G75*
%MOIN*%
%OFA0B0*%
%FSLAX25Y25*%
%IPPOS*%
%LPD*%
%AMOC8*
5,1,8,0,0,1.08239X$1,22.5*
%
%ADD10C,0.07400*%
%ADD11C,0.02500*%
%ADD12C,0.02700*%
%ADD13C,0.00800*%
%ADD14C,0.02000*%
%ADD15C,0.02400*%
D10*
X0533333Y0018333D03*
X0548333Y0018333D03*
X0563333Y0018333D03*
X0578333Y0018333D03*
X0608333Y0018333D03*
X0618333Y0018333D03*
X0628333Y0018333D03*
X0638333Y0018333D03*
X0648333Y0018333D03*
X0658333Y0018333D03*
X0668333Y0018333D03*
X0678333Y0018333D03*
X0688333Y0018333D03*
X0698333Y0018333D03*
X0798333Y0018333D03*
X0808333Y0018333D03*
X0818333Y0018333D03*
X0828333Y0018333D03*
X0838333Y0018333D03*
X0848333Y0018333D03*
X0578333Y0048333D03*
X0563333Y0048333D03*
X0548333Y0048333D03*
X0533333Y0048333D03*
D11*
X0768333Y0013333D03*
X0408333Y0168333D03*
D12*
X0418333Y0165333D03*
X0467333Y0165333D03*
X0490833Y0166333D03*
X0483333Y0173333D03*
X0534833Y0178833D03*
X0578333Y0168333D03*
X0583333Y0173333D03*
X0593333Y0177783D03*
X0608333Y0173333D03*
X0614833Y0163833D03*
X0640333Y0163333D03*
X0668833Y0164333D03*
X0688333Y0163333D03*
X0688333Y0153333D03*
X0728333Y0153333D03*
X0738333Y0143333D03*
X0748333Y0143333D03*
X0763333Y0138333D03*
X0763333Y0133333D03*
X0809333Y0125833D03*
X0823333Y0126833D03*
X0818333Y0132333D03*
X0851333Y0132833D03*
X0818333Y0141833D03*
X0808333Y0148333D03*
X0813833Y0152333D03*
X0783333Y0148833D03*
X0778333Y0153333D03*
X0783333Y0163333D03*
X0799333Y0172833D03*
X0827833Y0172833D03*
X0848333Y0166333D03*
X0728333Y0177783D03*
X0698333Y0173333D03*
X0633333Y0153333D03*
X0583333Y0153333D03*
X0558333Y0153333D03*
X0558333Y0158333D03*
X0533333Y0138333D03*
X0548333Y0134833D03*
X0563833Y0134833D03*
X0573833Y0136333D03*
X0568333Y0128333D03*
X0538333Y0128333D03*
X0505833Y0119333D03*
X0492333Y0115833D03*
X0529333Y0114333D03*
X0543333Y0108333D03*
X0553333Y0108333D03*
X0558333Y0108333D03*
X0558333Y0103333D03*
X0567333Y0103333D03*
X0577833Y0103333D03*
X0583333Y0103333D03*
X0583333Y0098333D03*
X0596833Y0098333D03*
X0596833Y0109333D03*
X0583333Y0113333D03*
X0597833Y0117833D03*
X0583333Y0118333D03*
X0553333Y0113333D03*
X0493333Y0098333D03*
X0483333Y0103333D03*
X0463333Y0103333D03*
X0458333Y0103333D03*
X0448333Y0103333D03*
X0443333Y0103333D03*
X0433333Y0103333D03*
X0428333Y0103333D03*
X0418333Y0103333D03*
X0413333Y0103333D03*
X0523333Y0088333D03*
X0528833Y0085833D03*
X0523333Y0083333D03*
X0528833Y0080833D03*
X0523333Y0078333D03*
X0528333Y0075833D03*
X0523333Y0073333D03*
X0526833Y0070833D03*
X0523333Y0068333D03*
X0520333Y0065833D03*
X0523333Y0063333D03*
X0519333Y0060833D03*
X0523333Y0058333D03*
X0520333Y0055333D03*
X0537833Y0052833D03*
X0518833Y0046333D03*
X0488333Y0043333D03*
X0506833Y0031833D03*
X0503333Y0028333D03*
X0494333Y0026833D03*
X0518833Y0023333D03*
X0553333Y0038333D03*
X0585833Y0032333D03*
X0595833Y0021333D03*
X0648333Y0038333D03*
X0644333Y0044333D03*
X0633333Y0044833D03*
X0622833Y0044833D03*
X0613333Y0044833D03*
X0601333Y0043833D03*
X0588333Y0058333D03*
X0612333Y0062833D03*
X0623833Y0062833D03*
X0632833Y0063333D03*
X0628333Y0068333D03*
X0613333Y0068333D03*
X0595833Y0073333D03*
X0579833Y0070833D03*
X0568333Y0072333D03*
X0550833Y0067333D03*
X0598333Y0078333D03*
X0613333Y0083333D03*
X0568333Y0082333D03*
X0530333Y0091333D03*
X0524333Y0097333D03*
X0638333Y0113333D03*
X0652833Y0108833D03*
X0712333Y0096833D03*
X0677833Y0093833D03*
X0658333Y0093333D03*
X0733333Y0078333D03*
X0758333Y0073333D03*
X0778333Y0073333D03*
X0818333Y0063333D03*
X0838333Y0058333D03*
X0808333Y0048333D03*
X0818333Y0038333D03*
X0776833Y0024333D03*
X0727833Y0025333D03*
X0698333Y0028333D03*
X0738333Y0038333D03*
X0743333Y0043333D03*
X0763333Y0038333D03*
X0711833Y0055833D03*
X0677833Y0054833D03*
X0648333Y0058333D03*
X0843333Y0078333D03*
X0851833Y0100833D03*
X0802333Y0103333D03*
X0778333Y0108333D03*
X0770833Y0111333D03*
X0758333Y0118333D03*
X0738333Y0118333D03*
X0737833Y0109833D03*
X0798333Y0118333D03*
X0712833Y0129333D03*
X0677833Y0137833D03*
X0698333Y0143333D03*
X0638833Y0138333D03*
X0668333Y0123333D03*
X0493333Y0138333D03*
X0470833Y0134833D03*
X0419333Y0135833D03*
X0444833Y0149333D03*
X0406333Y0044333D03*
X0406333Y0035333D03*
X0406333Y0026833D03*
X0406333Y0015833D03*
D13*
X0399334Y0009333D02*
X0399372Y0182333D01*
X0857333Y0182333D01*
X0857333Y0009333D01*
X0399334Y0009333D01*
X0399334Y0009930D02*
X0857333Y0009930D01*
X0857333Y0010729D02*
X0399334Y0010729D01*
X0399334Y0011527D02*
X0766957Y0011527D01*
X0767401Y0011083D02*
X0766083Y0012401D01*
X0766083Y0014265D01*
X0767401Y0015583D01*
X0769265Y0015583D01*
X0770583Y0014265D01*
X0770583Y0012401D01*
X0769265Y0011083D01*
X0767401Y0011083D01*
X0766159Y0012326D02*
X0399334Y0012326D01*
X0399334Y0013124D02*
X0766083Y0013124D01*
X0766083Y0013923D02*
X0699967Y0013923D01*
X0699268Y0013633D02*
X0700996Y0014349D01*
X0702318Y0015671D01*
X0703033Y0017398D01*
X0703033Y0019268D01*
X0702318Y0020996D01*
X0700996Y0022318D01*
X0699268Y0023033D01*
X0697398Y0023033D01*
X0695671Y0022318D01*
X0694349Y0020996D01*
X0693633Y0019268D01*
X0693633Y0017398D01*
X0694349Y0015671D01*
X0695671Y0014349D01*
X0697398Y0013633D01*
X0699268Y0013633D01*
X0701368Y0014721D02*
X0766539Y0014721D01*
X0767338Y0015520D02*
X0702167Y0015520D01*
X0702586Y0016318D02*
X0794081Y0016318D01*
X0794349Y0015671D02*
X0795671Y0014349D01*
X0797398Y0013633D01*
X0799268Y0013633D01*
X0800996Y0014349D01*
X0802318Y0015671D01*
X0803033Y0017398D01*
X0803033Y0019268D01*
X0802318Y0020996D01*
X0800996Y0022318D01*
X0799268Y0023033D01*
X0797398Y0023033D01*
X0795671Y0022318D01*
X0794349Y0020996D01*
X0793633Y0019268D01*
X0793633Y0017398D01*
X0794349Y0015671D01*
X0794500Y0015520D02*
X0769329Y0015520D01*
X0770127Y0014721D02*
X0795298Y0014721D01*
X0796699Y0013923D02*
X0770583Y0013923D01*
X0770583Y0013124D02*
X0857333Y0013124D01*
X0857333Y0012326D02*
X0770508Y0012326D01*
X0769709Y0011527D02*
X0857333Y0011527D01*
X0857333Y0013923D02*
X0849967Y0013923D01*
X0849268Y0013633D02*
X0850996Y0014349D01*
X0852318Y0015671D01*
X0853033Y0017398D01*
X0853033Y0019268D01*
X0852318Y0020996D01*
X0850996Y0022318D01*
X0849268Y0023033D01*
X0847398Y0023033D01*
X0845671Y0022318D01*
X0844349Y0020996D01*
X0843633Y0019268D01*
X0843633Y0017398D01*
X0844349Y0015671D01*
X0845671Y0014349D01*
X0847398Y0013633D01*
X0849268Y0013633D01*
X0851368Y0014721D02*
X0857333Y0014721D01*
X0857333Y0015520D02*
X0852167Y0015520D01*
X0852586Y0016318D02*
X0857333Y0016318D01*
X0857333Y0017117D02*
X0852917Y0017117D01*
X0853033Y0017915D02*
X0857333Y0017915D01*
X0857333Y0018714D02*
X0853033Y0018714D01*
X0852932Y0019512D02*
X0857333Y0019512D01*
X0857333Y0020311D02*
X0852601Y0020311D01*
X0852204Y0021110D02*
X0857333Y0021110D01*
X0857333Y0021908D02*
X0851405Y0021908D01*
X0850057Y0022707D02*
X0857333Y0022707D01*
X0857333Y0023505D02*
X0506818Y0023505D01*
X0506020Y0024304D02*
X0857333Y0024304D01*
X0857333Y0025102D02*
X0505221Y0025102D01*
X0504423Y0025901D02*
X0857333Y0025901D01*
X0857333Y0026699D02*
X0700022Y0026699D01*
X0700683Y0027360D02*
X0700683Y0029307D01*
X0699307Y0030683D01*
X0697360Y0030683D01*
X0697010Y0030333D01*
X0504657Y0030333D01*
X0504307Y0030683D01*
X0502383Y0030683D01*
X0502383Y0032112D01*
X0501212Y0033283D01*
X0490683Y0043812D01*
X0490683Y0044307D01*
X0489307Y0045683D01*
X0487360Y0045683D01*
X0485983Y0044307D01*
X0485983Y0042360D01*
X0487360Y0040983D01*
X0487855Y0040983D01*
X0498383Y0030455D01*
X0498383Y0026283D01*
X0507161Y0017505D01*
X0508333Y0016333D01*
X0529075Y0016333D01*
X0529349Y0015671D01*
X0530671Y0014349D01*
X0532398Y0013633D01*
X0534268Y0013633D01*
X0535996Y0014349D01*
X0537318Y0015671D01*
X0538033Y0017398D01*
X0538033Y0019268D01*
X0537318Y0020996D01*
X0535996Y0022318D01*
X0534268Y0023033D01*
X0532398Y0023033D01*
X0530671Y0022318D01*
X0529349Y0020996D01*
X0529075Y0020333D01*
X0509990Y0020333D01*
X0504323Y0026000D01*
X0504657Y0026333D01*
X0697010Y0026333D01*
X0697360Y0025983D01*
X0699307Y0025983D01*
X0700683Y0027360D01*
X0700683Y0027498D02*
X0857333Y0027498D01*
X0857333Y0028296D02*
X0700683Y0028296D01*
X0700683Y0029095D02*
X0857333Y0029095D01*
X0857333Y0029893D02*
X0700097Y0029893D01*
X0700057Y0022707D02*
X0796609Y0022707D01*
X0795261Y0021908D02*
X0701405Y0021908D01*
X0702204Y0021110D02*
X0794463Y0021110D01*
X0794065Y0020311D02*
X0702601Y0020311D01*
X0702932Y0019512D02*
X0793735Y0019512D01*
X0793633Y0018714D02*
X0703033Y0018714D01*
X0703033Y0017915D02*
X0793633Y0017915D01*
X0793750Y0017117D02*
X0702917Y0017117D01*
X0694500Y0015520D02*
X0692167Y0015520D01*
X0692318Y0015671D02*
X0693033Y0017398D01*
X0693033Y0019268D01*
X0692318Y0020996D01*
X0690996Y0022318D01*
X0689268Y0023033D01*
X0687398Y0023033D01*
X0685671Y0022318D01*
X0684349Y0020996D01*
X0683633Y0019268D01*
X0683633Y0017398D01*
X0684349Y0015671D01*
X0685671Y0014349D01*
X0687398Y0013633D01*
X0689268Y0013633D01*
X0690996Y0014349D01*
X0692318Y0015671D01*
X0692586Y0016318D02*
X0694081Y0016318D01*
X0693750Y0017117D02*
X0692917Y0017117D01*
X0693033Y0017915D02*
X0693633Y0017915D01*
X0693633Y0018714D02*
X0693033Y0018714D01*
X0692932Y0019512D02*
X0693735Y0019512D01*
X0694065Y0020311D02*
X0692601Y0020311D01*
X0692204Y0021110D02*
X0694463Y0021110D01*
X0695261Y0021908D02*
X0691405Y0021908D01*
X0690057Y0022707D02*
X0696609Y0022707D01*
X0686609Y0022707D02*
X0680984Y0022707D01*
X0681006Y0022695D02*
X0680291Y0023060D01*
X0679528Y0023308D01*
X0678735Y0023433D01*
X0678733Y0023433D01*
X0678733Y0018733D01*
X0677933Y0018733D01*
X0677933Y0017933D01*
X0673233Y0017933D01*
X0673233Y0017932D01*
X0673359Y0017139D01*
X0673607Y0016376D01*
X0673971Y0015660D01*
X0674443Y0015011D01*
X0675011Y0014443D01*
X0675660Y0013971D01*
X0676376Y0013607D01*
X0677139Y0013359D01*
X0677932Y0013233D01*
X0677933Y0013233D01*
X0677933Y0017933D01*
X0678733Y0017933D01*
X0678733Y0013233D01*
X0678735Y0013233D01*
X0679528Y0013359D01*
X0680291Y0013607D01*
X0681006Y0013971D01*
X0681656Y0014443D01*
X0682223Y0015011D01*
X0682695Y0015660D01*
X0683060Y0016376D01*
X0683308Y0017139D01*
X0683433Y0017932D01*
X0683433Y0017933D01*
X0678733Y0017933D01*
X0678733Y0018733D01*
X0683433Y0018733D01*
X0683433Y0018735D01*
X0683308Y0019528D01*
X0683060Y0020291D01*
X0682695Y0021006D01*
X0682223Y0021656D01*
X0681656Y0022223D01*
X0681006Y0022695D01*
X0681971Y0021908D02*
X0685261Y0021908D01*
X0684463Y0021110D02*
X0682620Y0021110D01*
X0683050Y0020311D02*
X0684065Y0020311D01*
X0683735Y0019512D02*
X0683310Y0019512D01*
X0683633Y0018714D02*
X0678733Y0018714D01*
X0678733Y0019512D02*
X0677933Y0019512D01*
X0677933Y0018733D02*
X0677933Y0023433D01*
X0677932Y0023433D01*
X0677139Y0023308D01*
X0676376Y0023060D01*
X0675660Y0022695D01*
X0675011Y0022223D01*
X0674443Y0021656D01*
X0673971Y0021006D01*
X0673607Y0020291D01*
X0673359Y0019528D01*
X0673233Y0018735D01*
X0673233Y0018733D01*
X0677933Y0018733D01*
X0677933Y0018714D02*
X0673033Y0018714D01*
X0673033Y0019268D02*
X0672318Y0020996D01*
X0670996Y0022318D01*
X0669268Y0023033D01*
X0667398Y0023033D01*
X0665671Y0022318D01*
X0664349Y0020996D01*
X0663633Y0019268D01*
X0663633Y0017398D01*
X0664349Y0015671D01*
X0665671Y0014349D01*
X0667398Y0013633D01*
X0669268Y0013633D01*
X0670996Y0014349D01*
X0672318Y0015671D01*
X0673033Y0017398D01*
X0673033Y0019268D01*
X0672932Y0019512D02*
X0673357Y0019512D01*
X0673617Y0020311D02*
X0672601Y0020311D01*
X0672204Y0021110D02*
X0674046Y0021110D01*
X0674696Y0021908D02*
X0671405Y0021908D01*
X0670057Y0022707D02*
X0675683Y0022707D01*
X0677933Y0022707D02*
X0678733Y0022707D01*
X0678733Y0021908D02*
X0677933Y0021908D01*
X0677933Y0021110D02*
X0678733Y0021110D01*
X0678733Y0020311D02*
X0677933Y0020311D01*
X0677933Y0017915D02*
X0678733Y0017915D01*
X0678733Y0017117D02*
X0677933Y0017117D01*
X0677933Y0016318D02*
X0678733Y0016318D01*
X0678733Y0015520D02*
X0677933Y0015520D01*
X0677933Y0014721D02*
X0678733Y0014721D01*
X0678733Y0013923D02*
X0677933Y0013923D01*
X0675756Y0013923D02*
X0669967Y0013923D01*
X0671368Y0014721D02*
X0674733Y0014721D01*
X0674073Y0015520D02*
X0672167Y0015520D01*
X0672586Y0016318D02*
X0673636Y0016318D01*
X0673366Y0017117D02*
X0672917Y0017117D01*
X0673033Y0017915D02*
X0673236Y0017915D01*
X0664500Y0015520D02*
X0662167Y0015520D01*
X0662318Y0015671D02*
X0663033Y0017398D01*
X0663033Y0019268D01*
X0662318Y0020996D01*
X0660996Y0022318D01*
X0659268Y0023033D01*
X0657398Y0023033D01*
X0655671Y0022318D01*
X0654349Y0020996D01*
X0653633Y0019268D01*
X0653633Y0017398D01*
X0654349Y0015671D01*
X0655671Y0014349D01*
X0657398Y0013633D01*
X0659268Y0013633D01*
X0660996Y0014349D01*
X0662318Y0015671D01*
X0662586Y0016318D02*
X0664081Y0016318D01*
X0663750Y0017117D02*
X0662917Y0017117D01*
X0663033Y0017915D02*
X0663633Y0017915D01*
X0663633Y0018714D02*
X0663033Y0018714D01*
X0662932Y0019512D02*
X0663735Y0019512D01*
X0664065Y0020311D02*
X0662601Y0020311D01*
X0662204Y0021110D02*
X0664463Y0021110D01*
X0665261Y0021908D02*
X0661405Y0021908D01*
X0660057Y0022707D02*
X0666609Y0022707D01*
X0656609Y0022707D02*
X0650057Y0022707D01*
X0649268Y0023033D02*
X0647398Y0023033D01*
X0645671Y0022318D01*
X0644349Y0020996D01*
X0643633Y0019268D01*
X0643633Y0017398D01*
X0644349Y0015671D01*
X0645671Y0014349D01*
X0647398Y0013633D01*
X0649268Y0013633D01*
X0650996Y0014349D01*
X0652318Y0015671D01*
X0653033Y0017398D01*
X0653033Y0019268D01*
X0652318Y0020996D01*
X0650996Y0022318D01*
X0649268Y0023033D01*
X0651405Y0021908D02*
X0655261Y0021908D01*
X0654463Y0021110D02*
X0652204Y0021110D01*
X0652601Y0020311D02*
X0654065Y0020311D01*
X0653735Y0019512D02*
X0652932Y0019512D01*
X0653033Y0018714D02*
X0653633Y0018714D01*
X0653633Y0017915D02*
X0653033Y0017915D01*
X0652917Y0017117D02*
X0653750Y0017117D01*
X0654081Y0016318D02*
X0652586Y0016318D01*
X0652167Y0015520D02*
X0654500Y0015520D01*
X0655298Y0014721D02*
X0651368Y0014721D01*
X0649967Y0013923D02*
X0656699Y0013923D01*
X0659967Y0013923D02*
X0666699Y0013923D01*
X0665298Y0014721D02*
X0661368Y0014721D01*
X0646699Y0013923D02*
X0639967Y0013923D01*
X0639268Y0013633D02*
X0640996Y0014349D01*
X0642318Y0015671D01*
X0643033Y0017398D01*
X0643033Y0019268D01*
X0642318Y0020996D01*
X0640996Y0022318D01*
X0639268Y0023033D01*
X0637398Y0023033D01*
X0635671Y0022318D01*
X0634349Y0020996D01*
X0633633Y0019268D01*
X0633633Y0017398D01*
X0634349Y0015671D01*
X0635671Y0014349D01*
X0637398Y0013633D01*
X0639268Y0013633D01*
X0641368Y0014721D02*
X0645298Y0014721D01*
X0644500Y0015520D02*
X0642167Y0015520D01*
X0642586Y0016318D02*
X0644081Y0016318D01*
X0643750Y0017117D02*
X0642917Y0017117D01*
X0643033Y0017915D02*
X0643633Y0017915D01*
X0643633Y0018714D02*
X0643033Y0018714D01*
X0642932Y0019512D02*
X0643735Y0019512D01*
X0644065Y0020311D02*
X0642601Y0020311D01*
X0642204Y0021110D02*
X0644463Y0021110D01*
X0645261Y0021908D02*
X0641405Y0021908D01*
X0640057Y0022707D02*
X0646609Y0022707D01*
X0636609Y0022707D02*
X0630057Y0022707D01*
X0629268Y0023033D02*
X0627398Y0023033D01*
X0625671Y0022318D01*
X0624349Y0020996D01*
X0623633Y0019268D01*
X0623633Y0017398D01*
X0624349Y0015671D01*
X0625671Y0014349D01*
X0627398Y0013633D01*
X0629268Y0013633D01*
X0630996Y0014349D01*
X0632318Y0015671D01*
X0633033Y0017398D01*
X0633033Y0019268D01*
X0632318Y0020996D01*
X0630996Y0022318D01*
X0629268Y0023033D01*
X0631405Y0021908D02*
X0635261Y0021908D01*
X0634463Y0021110D02*
X0632204Y0021110D01*
X0632601Y0020311D02*
X0634065Y0020311D01*
X0633735Y0019512D02*
X0632932Y0019512D01*
X0633033Y0018714D02*
X0633633Y0018714D01*
X0633633Y0017915D02*
X0633033Y0017915D01*
X0632917Y0017117D02*
X0633750Y0017117D01*
X0634081Y0016318D02*
X0632586Y0016318D01*
X0632167Y0015520D02*
X0634500Y0015520D01*
X0635298Y0014721D02*
X0631368Y0014721D01*
X0629967Y0013923D02*
X0636699Y0013923D01*
X0626699Y0013923D02*
X0619967Y0013923D01*
X0619268Y0013633D02*
X0620996Y0014349D01*
X0622318Y0015671D01*
X0623033Y0017398D01*
X0623033Y0019268D01*
X0622318Y0020996D01*
X0620996Y0022318D01*
X0619268Y0023033D01*
X0617398Y0023033D01*
X0615671Y0022318D01*
X0614349Y0020996D01*
X0613633Y0019268D01*
X0613633Y0017398D01*
X0614349Y0015671D01*
X0615671Y0014349D01*
X0617398Y0013633D01*
X0619268Y0013633D01*
X0621368Y0014721D02*
X0625298Y0014721D01*
X0624500Y0015520D02*
X0622167Y0015520D01*
X0622586Y0016318D02*
X0624081Y0016318D01*
X0623750Y0017117D02*
X0622917Y0017117D01*
X0623033Y0017915D02*
X0623633Y0017915D01*
X0623633Y0018714D02*
X0623033Y0018714D01*
X0622932Y0019512D02*
X0623735Y0019512D01*
X0624065Y0020311D02*
X0622601Y0020311D01*
X0622204Y0021110D02*
X0624463Y0021110D01*
X0625261Y0021908D02*
X0621405Y0021908D01*
X0620057Y0022707D02*
X0626609Y0022707D01*
X0616609Y0022707D02*
X0610057Y0022707D01*
X0609268Y0023033D02*
X0607398Y0023033D01*
X0605671Y0022318D01*
X0604349Y0020996D01*
X0603633Y0019268D01*
X0603633Y0017398D01*
X0604349Y0015671D01*
X0605671Y0014349D01*
X0607398Y0013633D01*
X0609268Y0013633D01*
X0610996Y0014349D01*
X0612318Y0015671D01*
X0613033Y0017398D01*
X0613033Y0019268D01*
X0612318Y0020996D01*
X0610996Y0022318D01*
X0609268Y0023033D01*
X0611405Y0021908D02*
X0615261Y0021908D01*
X0614463Y0021110D02*
X0612204Y0021110D01*
X0612601Y0020311D02*
X0614065Y0020311D01*
X0613735Y0019512D02*
X0612932Y0019512D01*
X0613033Y0018714D02*
X0613633Y0018714D01*
X0613633Y0017915D02*
X0613033Y0017915D01*
X0612917Y0017117D02*
X0613750Y0017117D01*
X0614081Y0016318D02*
X0612586Y0016318D01*
X0612167Y0015520D02*
X0614500Y0015520D01*
X0615298Y0014721D02*
X0611368Y0014721D01*
X0609967Y0013923D02*
X0616699Y0013923D01*
X0606699Y0013923D02*
X0579967Y0013923D01*
X0579268Y0013633D02*
X0580996Y0014349D01*
X0582318Y0015671D01*
X0583033Y0017398D01*
X0583033Y0019268D01*
X0582318Y0020996D01*
X0580996Y0022318D01*
X0579268Y0023033D01*
X0577398Y0023033D01*
X0575671Y0022318D01*
X0574349Y0020996D01*
X0573633Y0019268D01*
X0573633Y0017398D01*
X0574349Y0015671D01*
X0575671Y0014349D01*
X0577398Y0013633D01*
X0579268Y0013633D01*
X0581368Y0014721D02*
X0605298Y0014721D01*
X0604500Y0015520D02*
X0582167Y0015520D01*
X0582586Y0016318D02*
X0604081Y0016318D01*
X0603750Y0017117D02*
X0582917Y0017117D01*
X0583033Y0017915D02*
X0603633Y0017915D01*
X0603633Y0018714D02*
X0583033Y0018714D01*
X0582932Y0019512D02*
X0603735Y0019512D01*
X0604065Y0020311D02*
X0582601Y0020311D01*
X0582204Y0021110D02*
X0604463Y0021110D01*
X0605261Y0021908D02*
X0581405Y0021908D01*
X0580057Y0022707D02*
X0606609Y0022707D01*
X0576609Y0022707D02*
X0565057Y0022707D01*
X0564268Y0023033D02*
X0562398Y0023033D01*
X0560671Y0022318D01*
X0559349Y0020996D01*
X0558633Y0019268D01*
X0558633Y0017398D01*
X0559349Y0015671D01*
X0560671Y0014349D01*
X0562398Y0013633D01*
X0564268Y0013633D01*
X0565996Y0014349D01*
X0567318Y0015671D01*
X0568033Y0017398D01*
X0568033Y0019268D01*
X0567318Y0020996D01*
X0565996Y0022318D01*
X0564268Y0023033D01*
X0566405Y0021908D02*
X0575261Y0021908D01*
X0574463Y0021110D02*
X0567204Y0021110D01*
X0567601Y0020311D02*
X0574065Y0020311D01*
X0573735Y0019512D02*
X0567932Y0019512D01*
X0568033Y0018714D02*
X0573633Y0018714D01*
X0573633Y0017915D02*
X0568033Y0017915D01*
X0567917Y0017117D02*
X0573750Y0017117D01*
X0574081Y0016318D02*
X0567586Y0016318D01*
X0567167Y0015520D02*
X0574500Y0015520D01*
X0575298Y0014721D02*
X0566368Y0014721D01*
X0564967Y0013923D02*
X0576699Y0013923D01*
X0561699Y0013923D02*
X0549967Y0013923D01*
X0549268Y0013633D02*
X0550996Y0014349D01*
X0552318Y0015671D01*
X0553033Y0017398D01*
X0553033Y0019268D01*
X0552318Y0020996D01*
X0550996Y0022318D01*
X0549268Y0023033D01*
X0547398Y0023033D01*
X0545671Y0022318D01*
X0544349Y0020996D01*
X0543633Y0019268D01*
X0543633Y0017398D01*
X0544349Y0015671D01*
X0545671Y0014349D01*
X0547398Y0013633D01*
X0549268Y0013633D01*
X0551368Y0014721D02*
X0560298Y0014721D01*
X0559500Y0015520D02*
X0552167Y0015520D01*
X0552586Y0016318D02*
X0559081Y0016318D01*
X0558750Y0017117D02*
X0552917Y0017117D01*
X0553033Y0017915D02*
X0558633Y0017915D01*
X0558633Y0018714D02*
X0553033Y0018714D01*
X0552932Y0019512D02*
X0558735Y0019512D01*
X0559065Y0020311D02*
X0552601Y0020311D01*
X0552204Y0021110D02*
X0559463Y0021110D01*
X0560261Y0021908D02*
X0551405Y0021908D01*
X0550057Y0022707D02*
X0561609Y0022707D01*
X0546609Y0022707D02*
X0535057Y0022707D01*
X0536405Y0021908D02*
X0545261Y0021908D01*
X0544463Y0021110D02*
X0537204Y0021110D01*
X0537601Y0020311D02*
X0544065Y0020311D01*
X0543735Y0019512D02*
X0537932Y0019512D01*
X0538033Y0018714D02*
X0543633Y0018714D01*
X0543633Y0017915D02*
X0538033Y0017915D01*
X0537917Y0017117D02*
X0543750Y0017117D01*
X0544081Y0016318D02*
X0537586Y0016318D01*
X0537167Y0015520D02*
X0544500Y0015520D01*
X0545298Y0014721D02*
X0536368Y0014721D01*
X0534967Y0013923D02*
X0546699Y0013923D01*
X0531699Y0013923D02*
X0399335Y0013923D01*
X0399335Y0014721D02*
X0530298Y0014721D01*
X0529500Y0015520D02*
X0399335Y0015520D01*
X0399335Y0016318D02*
X0529081Y0016318D01*
X0507549Y0017117D02*
X0399335Y0017117D01*
X0399335Y0017915D02*
X0506751Y0017915D01*
X0505952Y0018714D02*
X0399336Y0018714D01*
X0399336Y0019512D02*
X0505154Y0019512D01*
X0504355Y0020311D02*
X0399336Y0020311D01*
X0399336Y0021110D02*
X0503557Y0021110D01*
X0502758Y0021908D02*
X0399336Y0021908D01*
X0399337Y0022707D02*
X0501960Y0022707D01*
X0501161Y0023505D02*
X0399337Y0023505D01*
X0399337Y0024304D02*
X0500363Y0024304D01*
X0499564Y0025102D02*
X0399337Y0025102D01*
X0399337Y0025901D02*
X0498766Y0025901D01*
X0498383Y0026699D02*
X0399337Y0026699D01*
X0399338Y0027498D02*
X0498383Y0027498D01*
X0498383Y0028296D02*
X0399338Y0028296D01*
X0399338Y0029095D02*
X0498383Y0029095D01*
X0498383Y0029893D02*
X0399338Y0029893D01*
X0399338Y0030692D02*
X0498147Y0030692D01*
X0497348Y0031490D02*
X0399339Y0031490D01*
X0399339Y0032289D02*
X0496550Y0032289D01*
X0495751Y0033087D02*
X0399339Y0033087D01*
X0399339Y0033886D02*
X0494953Y0033886D01*
X0494154Y0034684D02*
X0399339Y0034684D01*
X0399339Y0035483D02*
X0493356Y0035483D01*
X0492557Y0036281D02*
X0399340Y0036281D01*
X0399340Y0037080D02*
X0491758Y0037080D01*
X0490960Y0037878D02*
X0399340Y0037878D01*
X0399340Y0038677D02*
X0490161Y0038677D01*
X0489363Y0039475D02*
X0399340Y0039475D01*
X0399340Y0040274D02*
X0488564Y0040274D01*
X0487271Y0041072D02*
X0399341Y0041072D01*
X0399341Y0041871D02*
X0486472Y0041871D01*
X0485983Y0042669D02*
X0399341Y0042669D01*
X0399341Y0043468D02*
X0485983Y0043468D01*
X0485983Y0044266D02*
X0399341Y0044266D01*
X0399342Y0045065D02*
X0486741Y0045065D01*
X0489925Y0045065D02*
X0524622Y0045065D01*
X0523823Y0045863D02*
X0399342Y0045863D01*
X0399342Y0046662D02*
X0523025Y0046662D01*
X0522226Y0047460D02*
X0399342Y0047460D01*
X0399342Y0048259D02*
X0521428Y0048259D01*
X0520629Y0049057D02*
X0399342Y0049057D01*
X0399343Y0049856D02*
X0519831Y0049856D01*
X0519032Y0050654D02*
X0399343Y0050654D01*
X0399343Y0051453D02*
X0518234Y0051453D01*
X0517753Y0051933D02*
X0531933Y0037753D01*
X0532753Y0036933D01*
X0551410Y0036933D01*
X0552360Y0035983D01*
X0554307Y0035983D01*
X0555683Y0037360D01*
X0555683Y0039307D01*
X0554307Y0040683D01*
X0552360Y0040683D01*
X0551410Y0039733D01*
X0533913Y0039733D01*
X0518913Y0054733D01*
X0463913Y0054733D01*
X0417663Y0100983D01*
X0418703Y0100983D01*
X0461933Y0057753D01*
X0462753Y0056933D01*
X0521410Y0056933D01*
X0522360Y0055983D01*
X0524307Y0055983D01*
X0525683Y0057360D01*
X0525683Y0059307D01*
X0524307Y0060683D01*
X0522360Y0060683D01*
X0521410Y0059733D01*
X0463913Y0059733D01*
X0420683Y0102963D01*
X0420683Y0104307D01*
X0419307Y0105683D01*
X0417360Y0105683D01*
X0415983Y0104307D01*
X0415983Y0102663D01*
X0415683Y0102963D01*
X0415683Y0104307D01*
X0414307Y0105683D01*
X0412360Y0105683D01*
X0410983Y0104307D01*
X0410983Y0102360D01*
X0412360Y0100983D01*
X0413703Y0100983D01*
X0461933Y0052753D01*
X0462753Y0051933D01*
X0517753Y0051933D01*
X0518333Y0053333D02*
X0533333Y0038333D01*
X0553333Y0038333D01*
X0555683Y0038677D02*
X0645983Y0038677D01*
X0645983Y0039307D02*
X0645983Y0037360D01*
X0647360Y0035983D01*
X0649307Y0035983D01*
X0650257Y0036933D01*
X0736410Y0036933D01*
X0737360Y0035983D01*
X0739307Y0035983D01*
X0740257Y0036933D01*
X0761410Y0036933D01*
X0762360Y0035983D01*
X0764307Y0035983D01*
X0765257Y0036933D01*
X0816410Y0036933D01*
X0817360Y0035983D01*
X0819307Y0035983D01*
X0820683Y0037360D01*
X0820683Y0039307D01*
X0819307Y0040683D01*
X0817360Y0040683D01*
X0816410Y0039733D01*
X0765257Y0039733D01*
X0764307Y0040683D01*
X0762360Y0040683D01*
X0761410Y0039733D01*
X0740257Y0039733D01*
X0739307Y0040683D01*
X0737360Y0040683D01*
X0736410Y0039733D01*
X0650257Y0039733D01*
X0649307Y0040683D01*
X0647360Y0040683D01*
X0645983Y0039307D01*
X0646152Y0039475D02*
X0555515Y0039475D01*
X0554716Y0040274D02*
X0646950Y0040274D01*
X0648333Y0038333D02*
X0738333Y0038333D01*
X0763333Y0038333D01*
X0818333Y0038333D01*
X0820683Y0038677D02*
X0857333Y0038677D01*
X0857333Y0039475D02*
X0820515Y0039475D01*
X0819716Y0040274D02*
X0857333Y0040274D01*
X0857333Y0041072D02*
X0744396Y0041072D01*
X0744307Y0040983D02*
X0745257Y0041933D01*
X0803913Y0041933D01*
X0804733Y0042753D01*
X0807963Y0045983D01*
X0809307Y0045983D01*
X0810683Y0047360D01*
X0810683Y0049307D01*
X0809307Y0050683D01*
X0807360Y0050683D01*
X0805983Y0049307D01*
X0805983Y0047963D01*
X0802753Y0044733D01*
X0745257Y0044733D01*
X0744307Y0045683D01*
X0742360Y0045683D01*
X0740983Y0044307D01*
X0740983Y0042360D01*
X0742360Y0040983D01*
X0744307Y0040983D01*
X0745194Y0041871D02*
X0857333Y0041871D01*
X0857333Y0042669D02*
X0804649Y0042669D01*
X0805448Y0043468D02*
X0857333Y0043468D01*
X0857333Y0044266D02*
X0806246Y0044266D01*
X0807045Y0045065D02*
X0857333Y0045065D01*
X0857333Y0045863D02*
X0807843Y0045863D01*
X0809985Y0046662D02*
X0857333Y0046662D01*
X0857333Y0047460D02*
X0810683Y0047460D01*
X0810683Y0048259D02*
X0857333Y0048259D01*
X0857333Y0049057D02*
X0810683Y0049057D01*
X0810134Y0049856D02*
X0857333Y0049856D01*
X0857333Y0050654D02*
X0809336Y0050654D01*
X0807331Y0050654D02*
X0582459Y0050654D01*
X0582318Y0050996D02*
X0580996Y0052318D01*
X0579268Y0053033D01*
X0577398Y0053033D01*
X0576136Y0052510D01*
X0575233Y0053413D01*
X0575233Y0134410D01*
X0576183Y0135360D01*
X0576183Y0137307D01*
X0574807Y0138683D01*
X0572860Y0138683D01*
X0571483Y0137307D01*
X0571483Y0135360D01*
X0572433Y0134410D01*
X0572433Y0052253D01*
X0574156Y0050531D01*
X0573633Y0049268D01*
X0573633Y0047398D01*
X0574349Y0045671D01*
X0575671Y0044349D01*
X0577398Y0043633D01*
X0579268Y0043633D01*
X0580996Y0044349D01*
X0582318Y0045671D01*
X0583033Y0047398D01*
X0583033Y0049268D01*
X0582318Y0050996D01*
X0581861Y0051453D02*
X0857333Y0051453D01*
X0857333Y0052251D02*
X0581062Y0052251D01*
X0578333Y0048333D02*
X0573833Y0052833D01*
X0573833Y0136333D01*
X0571483Y0136095D02*
X0559733Y0136095D01*
X0559733Y0135297D02*
X0571547Y0135297D01*
X0572345Y0134498D02*
X0559733Y0134498D01*
X0559733Y0133700D02*
X0572433Y0133700D01*
X0572433Y0132901D02*
X0559733Y0132901D01*
X0559733Y0132103D02*
X0572433Y0132103D01*
X0572433Y0131304D02*
X0559733Y0131304D01*
X0559733Y0130506D02*
X0567182Y0130506D01*
X0567360Y0130683D02*
X0565983Y0129307D01*
X0565983Y0127963D01*
X0561933Y0123913D01*
X0561933Y0052841D01*
X0560671Y0052318D01*
X0559349Y0050996D01*
X0558633Y0049268D01*
X0558633Y0047398D01*
X0559349Y0045671D01*
X0560671Y0044349D01*
X0562398Y0043633D01*
X0564268Y0043633D01*
X0565996Y0044349D01*
X0567318Y0045671D01*
X0568033Y0047398D01*
X0568033Y0049268D01*
X0567318Y0050996D01*
X0565996Y0052318D01*
X0564733Y0052841D01*
X0564733Y0122753D01*
X0567963Y0125983D01*
X0569307Y0125983D01*
X0570683Y0127360D01*
X0570683Y0129307D01*
X0569307Y0130683D01*
X0567360Y0130683D01*
X0566384Y0129707D02*
X0559733Y0129707D01*
X0559733Y0128909D02*
X0565983Y0128909D01*
X0565983Y0128110D02*
X0559733Y0128110D01*
X0559733Y0127312D02*
X0565332Y0127312D01*
X0564533Y0126513D02*
X0559733Y0126513D01*
X0559733Y0125714D02*
X0563735Y0125714D01*
X0562936Y0124916D02*
X0559733Y0124916D01*
X0559733Y0124117D02*
X0562138Y0124117D01*
X0561933Y0123319D02*
X0559733Y0123319D01*
X0559733Y0122520D02*
X0561933Y0122520D01*
X0561933Y0121722D02*
X0559733Y0121722D01*
X0559733Y0120923D02*
X0561933Y0120923D01*
X0561933Y0120125D02*
X0559733Y0120125D01*
X0559733Y0119326D02*
X0561933Y0119326D01*
X0561933Y0118528D02*
X0559733Y0118528D01*
X0559733Y0117729D02*
X0561933Y0117729D01*
X0561933Y0116931D02*
X0559733Y0116931D01*
X0559733Y0116132D02*
X0561933Y0116132D01*
X0561933Y0115334D02*
X0559733Y0115334D01*
X0559733Y0114535D02*
X0561933Y0114535D01*
X0561933Y0113737D02*
X0559733Y0113737D01*
X0559733Y0112938D02*
X0561933Y0112938D01*
X0561933Y0112140D02*
X0559733Y0112140D01*
X0559733Y0111341D02*
X0561933Y0111341D01*
X0561933Y0110543D02*
X0559733Y0110543D01*
X0559733Y0110257D02*
X0559733Y0151410D01*
X0560683Y0152360D01*
X0560683Y0154307D01*
X0559307Y0155683D01*
X0557663Y0155683D01*
X0557963Y0155983D01*
X0559307Y0155983D01*
X0560683Y0157360D01*
X0560683Y0159307D01*
X0559307Y0160683D01*
X0557360Y0160683D01*
X0555983Y0159307D01*
X0555983Y0157963D01*
X0552753Y0154733D01*
X0551933Y0153913D01*
X0551933Y0115257D01*
X0550983Y0114307D01*
X0550983Y0112360D01*
X0552360Y0110983D01*
X0554307Y0110983D01*
X0555683Y0112360D01*
X0555683Y0114307D01*
X0554733Y0115257D01*
X0554733Y0152753D01*
X0555983Y0154003D01*
X0555983Y0152360D01*
X0556933Y0151410D01*
X0556933Y0110257D01*
X0555983Y0109307D01*
X0555983Y0107360D01*
X0557360Y0105983D01*
X0559307Y0105983D01*
X0560683Y0107360D01*
X0560683Y0109307D01*
X0559733Y0110257D01*
X0560246Y0109744D02*
X0561933Y0109744D01*
X0561933Y0108946D02*
X0560683Y0108946D01*
X0560683Y0108147D02*
X0561933Y0108147D01*
X0561933Y0107349D02*
X0560672Y0107349D01*
X0559874Y0106550D02*
X0561933Y0106550D01*
X0561933Y0105752D02*
X0539733Y0105752D01*
X0539733Y0106550D02*
X0556793Y0106550D01*
X0555995Y0107349D02*
X0539733Y0107349D01*
X0539733Y0108147D02*
X0555983Y0108147D01*
X0555983Y0108946D02*
X0539733Y0108946D01*
X0539733Y0109744D02*
X0556421Y0109744D01*
X0556933Y0110543D02*
X0539733Y0110543D01*
X0539733Y0111341D02*
X0552002Y0111341D01*
X0551203Y0112140D02*
X0539733Y0112140D01*
X0539733Y0112938D02*
X0550983Y0112938D01*
X0550983Y0113737D02*
X0539733Y0113737D01*
X0539733Y0114535D02*
X0551212Y0114535D01*
X0551933Y0115334D02*
X0539733Y0115334D01*
X0539733Y0116132D02*
X0551933Y0116132D01*
X0551933Y0116931D02*
X0539733Y0116931D01*
X0539733Y0117729D02*
X0551933Y0117729D01*
X0551933Y0118528D02*
X0539733Y0118528D01*
X0539733Y0119326D02*
X0551933Y0119326D01*
X0551933Y0120125D02*
X0539733Y0120125D01*
X0539733Y0120923D02*
X0551933Y0120923D01*
X0551933Y0121722D02*
X0539733Y0121722D01*
X0539733Y0122520D02*
X0551933Y0122520D01*
X0551933Y0123319D02*
X0539733Y0123319D01*
X0539733Y0124117D02*
X0551933Y0124117D01*
X0551933Y0124916D02*
X0539733Y0124916D01*
X0539733Y0125714D02*
X0551933Y0125714D01*
X0551933Y0126513D02*
X0539836Y0126513D01*
X0539733Y0126410D02*
X0540683Y0127360D01*
X0540683Y0129307D01*
X0539307Y0130683D01*
X0537360Y0130683D01*
X0535983Y0129307D01*
X0535983Y0127360D01*
X0536933Y0126410D01*
X0536933Y0057753D01*
X0537753Y0056933D01*
X0544156Y0050531D01*
X0543633Y0049268D01*
X0543633Y0047398D01*
X0544349Y0045671D01*
X0545671Y0044349D01*
X0547398Y0043633D01*
X0549268Y0043633D01*
X0550996Y0044349D01*
X0552318Y0045671D01*
X0553033Y0047398D01*
X0553033Y0049268D01*
X0552318Y0050996D01*
X0550996Y0052318D01*
X0549268Y0053033D01*
X0547398Y0053033D01*
X0546136Y0052510D01*
X0539733Y0058913D01*
X0539733Y0126410D01*
X0540635Y0127312D02*
X0551933Y0127312D01*
X0551933Y0128110D02*
X0540683Y0128110D01*
X0540683Y0128909D02*
X0551933Y0128909D01*
X0551933Y0129707D02*
X0540283Y0129707D01*
X0539484Y0130506D02*
X0551933Y0130506D01*
X0551933Y0131304D02*
X0534733Y0131304D01*
X0534733Y0130506D02*
X0537182Y0130506D01*
X0536384Y0129707D02*
X0534733Y0129707D01*
X0534733Y0128909D02*
X0535983Y0128909D01*
X0535983Y0128110D02*
X0534733Y0128110D01*
X0534733Y0127312D02*
X0536032Y0127312D01*
X0536830Y0126513D02*
X0534733Y0126513D01*
X0534733Y0125714D02*
X0536933Y0125714D01*
X0536933Y0124916D02*
X0534733Y0124916D01*
X0534733Y0124117D02*
X0536933Y0124117D01*
X0536933Y0123319D02*
X0534733Y0123319D01*
X0534733Y0122520D02*
X0536933Y0122520D01*
X0536933Y0121722D02*
X0534733Y0121722D01*
X0534733Y0120923D02*
X0536933Y0120923D01*
X0536933Y0120125D02*
X0534733Y0120125D01*
X0534733Y0119326D02*
X0536933Y0119326D01*
X0536933Y0118528D02*
X0534733Y0118528D01*
X0534733Y0117729D02*
X0536933Y0117729D01*
X0536933Y0116931D02*
X0534733Y0116931D01*
X0534733Y0116132D02*
X0536933Y0116132D01*
X0536933Y0115334D02*
X0534733Y0115334D01*
X0534733Y0114535D02*
X0536933Y0114535D01*
X0536933Y0113737D02*
X0534733Y0113737D01*
X0534733Y0112938D02*
X0536933Y0112938D01*
X0536933Y0112140D02*
X0534733Y0112140D01*
X0534733Y0111341D02*
X0536933Y0111341D01*
X0536933Y0110543D02*
X0534733Y0110543D01*
X0534733Y0109744D02*
X0536933Y0109744D01*
X0536933Y0108946D02*
X0534733Y0108946D01*
X0534733Y0108147D02*
X0536933Y0108147D01*
X0536933Y0107349D02*
X0534733Y0107349D01*
X0534733Y0106550D02*
X0536933Y0106550D01*
X0536933Y0105752D02*
X0534733Y0105752D01*
X0534733Y0104953D02*
X0536933Y0104953D01*
X0536933Y0104155D02*
X0534733Y0104155D01*
X0534733Y0103356D02*
X0536933Y0103356D01*
X0536933Y0102558D02*
X0534733Y0102558D01*
X0534733Y0101759D02*
X0536933Y0101759D01*
X0536933Y0100961D02*
X0534733Y0100961D01*
X0534733Y0100162D02*
X0536933Y0100162D01*
X0536933Y0099364D02*
X0534733Y0099364D01*
X0534733Y0098565D02*
X0536933Y0098565D01*
X0536933Y0097767D02*
X0534733Y0097767D01*
X0534733Y0096968D02*
X0536933Y0096968D01*
X0536933Y0096170D02*
X0534733Y0096170D01*
X0534733Y0095371D02*
X0536933Y0095371D01*
X0536933Y0094573D02*
X0534733Y0094573D01*
X0534733Y0093774D02*
X0536933Y0093774D01*
X0536933Y0092976D02*
X0534733Y0092976D01*
X0534733Y0092177D02*
X0536933Y0092177D01*
X0536933Y0091379D02*
X0534733Y0091379D01*
X0534733Y0090580D02*
X0536933Y0090580D01*
X0536933Y0089781D02*
X0534733Y0089781D01*
X0534733Y0088983D02*
X0536933Y0088983D01*
X0536933Y0088184D02*
X0534733Y0088184D01*
X0534733Y0087386D02*
X0536933Y0087386D01*
X0536933Y0086587D02*
X0534733Y0086587D01*
X0534733Y0085789D02*
X0536933Y0085789D01*
X0536933Y0084990D02*
X0534733Y0084990D01*
X0534733Y0084192D02*
X0536933Y0084192D01*
X0536933Y0083393D02*
X0534733Y0083393D01*
X0534733Y0082595D02*
X0536933Y0082595D01*
X0536933Y0081796D02*
X0534733Y0081796D01*
X0534733Y0080998D02*
X0536933Y0080998D01*
X0536933Y0080199D02*
X0534733Y0080199D01*
X0534733Y0079401D02*
X0536933Y0079401D01*
X0536933Y0078602D02*
X0534733Y0078602D01*
X0534733Y0077804D02*
X0536933Y0077804D01*
X0536933Y0077005D02*
X0534733Y0077005D01*
X0534733Y0076207D02*
X0536933Y0076207D01*
X0536933Y0075408D02*
X0534733Y0075408D01*
X0534733Y0074610D02*
X0536933Y0074610D01*
X0536933Y0073811D02*
X0534733Y0073811D01*
X0534733Y0073013D02*
X0536933Y0073013D01*
X0536933Y0072214D02*
X0534733Y0072214D01*
X0534733Y0071416D02*
X0536933Y0071416D01*
X0536933Y0070617D02*
X0534733Y0070617D01*
X0534733Y0069819D02*
X0536933Y0069819D01*
X0536933Y0069020D02*
X0534733Y0069020D01*
X0534733Y0068222D02*
X0536933Y0068222D01*
X0536933Y0067423D02*
X0534733Y0067423D01*
X0534733Y0066625D02*
X0536933Y0066625D01*
X0536933Y0065826D02*
X0534733Y0065826D01*
X0534733Y0065028D02*
X0536933Y0065028D01*
X0536933Y0064229D02*
X0534733Y0064229D01*
X0534733Y0063431D02*
X0536933Y0063431D01*
X0536933Y0062632D02*
X0534733Y0062632D01*
X0534733Y0061834D02*
X0536933Y0061834D01*
X0536933Y0061035D02*
X0534733Y0061035D01*
X0534733Y0060237D02*
X0536933Y0060237D01*
X0536933Y0059438D02*
X0534733Y0059438D01*
X0534733Y0058640D02*
X0536933Y0058640D01*
X0536933Y0057841D02*
X0534733Y0057841D01*
X0534733Y0057043D02*
X0537644Y0057043D01*
X0538443Y0056244D02*
X0534733Y0056244D01*
X0534733Y0055445D02*
X0539241Y0055445D01*
X0540040Y0054647D02*
X0534733Y0054647D01*
X0534733Y0053848D02*
X0540838Y0053848D01*
X0541637Y0053050D02*
X0534733Y0053050D01*
X0534733Y0052841D02*
X0534733Y0136410D01*
X0535683Y0137360D01*
X0535683Y0139307D01*
X0534307Y0140683D01*
X0532360Y0140683D01*
X0530983Y0139307D01*
X0530983Y0137360D01*
X0531933Y0136410D01*
X0531933Y0052841D01*
X0530671Y0052318D01*
X0529349Y0050996D01*
X0528633Y0049268D01*
X0528633Y0047398D01*
X0529349Y0045671D01*
X0530671Y0044349D01*
X0532398Y0043633D01*
X0534268Y0043633D01*
X0535996Y0044349D01*
X0537318Y0045671D01*
X0538033Y0047398D01*
X0538033Y0049268D01*
X0537318Y0050996D01*
X0535996Y0052318D01*
X0534733Y0052841D01*
X0536062Y0052251D02*
X0542435Y0052251D01*
X0543234Y0051453D02*
X0536861Y0051453D01*
X0537459Y0050654D02*
X0544032Y0050654D01*
X0543877Y0049856D02*
X0537790Y0049856D01*
X0538033Y0049057D02*
X0543633Y0049057D01*
X0543633Y0048259D02*
X0538033Y0048259D01*
X0538033Y0047460D02*
X0543633Y0047460D01*
X0543938Y0046662D02*
X0537728Y0046662D01*
X0537397Y0045863D02*
X0544269Y0045863D01*
X0544955Y0045065D02*
X0536712Y0045065D01*
X0535796Y0044266D02*
X0545870Y0044266D01*
X0550796Y0044266D02*
X0560870Y0044266D01*
X0559955Y0045065D02*
X0551712Y0045065D01*
X0552397Y0045863D02*
X0559269Y0045863D01*
X0558938Y0046662D02*
X0552728Y0046662D01*
X0553033Y0047460D02*
X0558633Y0047460D01*
X0558633Y0048259D02*
X0553033Y0048259D01*
X0553033Y0049057D02*
X0558633Y0049057D01*
X0558877Y0049856D02*
X0552790Y0049856D01*
X0552459Y0050654D02*
X0559208Y0050654D01*
X0559806Y0051453D02*
X0551861Y0051453D01*
X0551062Y0052251D02*
X0560605Y0052251D01*
X0561933Y0053050D02*
X0545597Y0053050D01*
X0544798Y0053848D02*
X0561933Y0053848D01*
X0561933Y0054647D02*
X0544000Y0054647D01*
X0543201Y0055445D02*
X0561933Y0055445D01*
X0561933Y0056244D02*
X0542403Y0056244D01*
X0541604Y0057043D02*
X0561933Y0057043D01*
X0561933Y0057841D02*
X0540806Y0057841D01*
X0540007Y0058640D02*
X0561933Y0058640D01*
X0561933Y0059438D02*
X0539733Y0059438D01*
X0539733Y0060237D02*
X0561933Y0060237D01*
X0561933Y0061035D02*
X0539733Y0061035D01*
X0539733Y0061834D02*
X0561933Y0061834D01*
X0561933Y0062632D02*
X0539733Y0062632D01*
X0539733Y0063431D02*
X0561933Y0063431D01*
X0561933Y0064229D02*
X0539733Y0064229D01*
X0539733Y0065028D02*
X0561933Y0065028D01*
X0561933Y0065826D02*
X0539733Y0065826D01*
X0539733Y0066625D02*
X0561933Y0066625D01*
X0561933Y0067423D02*
X0539733Y0067423D01*
X0539733Y0068222D02*
X0561933Y0068222D01*
X0561933Y0069020D02*
X0539733Y0069020D01*
X0539733Y0069819D02*
X0561933Y0069819D01*
X0561933Y0070617D02*
X0539733Y0070617D01*
X0539733Y0071416D02*
X0561933Y0071416D01*
X0561933Y0072214D02*
X0539733Y0072214D01*
X0539733Y0073013D02*
X0561933Y0073013D01*
X0561933Y0073811D02*
X0539733Y0073811D01*
X0539733Y0074610D02*
X0561933Y0074610D01*
X0561933Y0075408D02*
X0539733Y0075408D01*
X0539733Y0076207D02*
X0561933Y0076207D01*
X0561933Y0077005D02*
X0539733Y0077005D01*
X0539733Y0077804D02*
X0561933Y0077804D01*
X0561933Y0078602D02*
X0539733Y0078602D01*
X0539733Y0079401D02*
X0561933Y0079401D01*
X0561933Y0080199D02*
X0539733Y0080199D01*
X0539733Y0080998D02*
X0561933Y0080998D01*
X0561933Y0081796D02*
X0539733Y0081796D01*
X0539733Y0082595D02*
X0561933Y0082595D01*
X0561933Y0083393D02*
X0539733Y0083393D01*
X0539733Y0084192D02*
X0561933Y0084192D01*
X0561933Y0084990D02*
X0539733Y0084990D01*
X0539733Y0085789D02*
X0561933Y0085789D01*
X0561933Y0086587D02*
X0539733Y0086587D01*
X0539733Y0087386D02*
X0561933Y0087386D01*
X0561933Y0088184D02*
X0539733Y0088184D01*
X0539733Y0088983D02*
X0561933Y0088983D01*
X0561933Y0089781D02*
X0539733Y0089781D01*
X0539733Y0090580D02*
X0561933Y0090580D01*
X0561933Y0091379D02*
X0539733Y0091379D01*
X0539733Y0092177D02*
X0561933Y0092177D01*
X0561933Y0092976D02*
X0539733Y0092976D01*
X0539733Y0093774D02*
X0561933Y0093774D01*
X0561933Y0094573D02*
X0539733Y0094573D01*
X0539733Y0095371D02*
X0561933Y0095371D01*
X0561933Y0096170D02*
X0539733Y0096170D01*
X0539733Y0096968D02*
X0561933Y0096968D01*
X0561933Y0097767D02*
X0539733Y0097767D01*
X0539733Y0098565D02*
X0561933Y0098565D01*
X0561933Y0099364D02*
X0539733Y0099364D01*
X0539733Y0100162D02*
X0561933Y0100162D01*
X0561933Y0100961D02*
X0539733Y0100961D01*
X0539733Y0101759D02*
X0561933Y0101759D01*
X0561933Y0102558D02*
X0539733Y0102558D01*
X0539733Y0103356D02*
X0561933Y0103356D01*
X0561933Y0104155D02*
X0539733Y0104155D01*
X0539733Y0104953D02*
X0561933Y0104953D01*
X0564733Y0104953D02*
X0572433Y0104953D01*
X0572433Y0104155D02*
X0564733Y0104155D01*
X0564733Y0103356D02*
X0572433Y0103356D01*
X0572433Y0102558D02*
X0564733Y0102558D01*
X0564733Y0101759D02*
X0572433Y0101759D01*
X0572433Y0100961D02*
X0564733Y0100961D01*
X0564733Y0100162D02*
X0572433Y0100162D01*
X0572433Y0099364D02*
X0564733Y0099364D01*
X0564733Y0098565D02*
X0572433Y0098565D01*
X0572433Y0097767D02*
X0564733Y0097767D01*
X0564733Y0096968D02*
X0572433Y0096968D01*
X0572433Y0096170D02*
X0564733Y0096170D01*
X0564733Y0095371D02*
X0572433Y0095371D01*
X0572433Y0094573D02*
X0564733Y0094573D01*
X0564733Y0093774D02*
X0572433Y0093774D01*
X0572433Y0092976D02*
X0564733Y0092976D01*
X0564733Y0092177D02*
X0572433Y0092177D01*
X0572433Y0091379D02*
X0564733Y0091379D01*
X0564733Y0090580D02*
X0572433Y0090580D01*
X0572433Y0089781D02*
X0564733Y0089781D01*
X0564733Y0088983D02*
X0572433Y0088983D01*
X0572433Y0088184D02*
X0564733Y0088184D01*
X0564733Y0087386D02*
X0572433Y0087386D01*
X0572433Y0086587D02*
X0564733Y0086587D01*
X0564733Y0085789D02*
X0572433Y0085789D01*
X0572433Y0084990D02*
X0564733Y0084990D01*
X0564733Y0084192D02*
X0572433Y0084192D01*
X0572433Y0083393D02*
X0564733Y0083393D01*
X0564733Y0082595D02*
X0572433Y0082595D01*
X0572433Y0081796D02*
X0564733Y0081796D01*
X0564733Y0080998D02*
X0572433Y0080998D01*
X0572433Y0080199D02*
X0564733Y0080199D01*
X0564733Y0079401D02*
X0572433Y0079401D01*
X0572433Y0078602D02*
X0564733Y0078602D01*
X0564733Y0077804D02*
X0572433Y0077804D01*
X0572433Y0077005D02*
X0564733Y0077005D01*
X0564733Y0076207D02*
X0572433Y0076207D01*
X0572433Y0075408D02*
X0564733Y0075408D01*
X0564733Y0074610D02*
X0572433Y0074610D01*
X0572433Y0073811D02*
X0564733Y0073811D01*
X0564733Y0073013D02*
X0572433Y0073013D01*
X0572433Y0072214D02*
X0564733Y0072214D01*
X0564733Y0071416D02*
X0572433Y0071416D01*
X0572433Y0070617D02*
X0564733Y0070617D01*
X0564733Y0069819D02*
X0572433Y0069819D01*
X0572433Y0069020D02*
X0564733Y0069020D01*
X0564733Y0068222D02*
X0572433Y0068222D01*
X0572433Y0067423D02*
X0564733Y0067423D01*
X0564733Y0066625D02*
X0572433Y0066625D01*
X0572433Y0065826D02*
X0564733Y0065826D01*
X0564733Y0065028D02*
X0572433Y0065028D01*
X0572433Y0064229D02*
X0564733Y0064229D01*
X0564733Y0063431D02*
X0572433Y0063431D01*
X0572433Y0062632D02*
X0564733Y0062632D01*
X0564733Y0061834D02*
X0572433Y0061834D01*
X0572433Y0061035D02*
X0564733Y0061035D01*
X0564733Y0060237D02*
X0572433Y0060237D01*
X0572433Y0059438D02*
X0564733Y0059438D01*
X0564733Y0058640D02*
X0572433Y0058640D01*
X0572433Y0057841D02*
X0564733Y0057841D01*
X0564733Y0057043D02*
X0572433Y0057043D01*
X0572433Y0056244D02*
X0564733Y0056244D01*
X0564733Y0055445D02*
X0572433Y0055445D01*
X0572433Y0054647D02*
X0564733Y0054647D01*
X0564733Y0053848D02*
X0572433Y0053848D01*
X0572433Y0053050D02*
X0564733Y0053050D01*
X0566062Y0052251D02*
X0572435Y0052251D01*
X0573234Y0051453D02*
X0566861Y0051453D01*
X0567459Y0050654D02*
X0574032Y0050654D01*
X0573877Y0049856D02*
X0567790Y0049856D01*
X0568033Y0049057D02*
X0573633Y0049057D01*
X0573633Y0048259D02*
X0568033Y0048259D01*
X0568033Y0047460D02*
X0573633Y0047460D01*
X0573938Y0046662D02*
X0567728Y0046662D01*
X0567397Y0045863D02*
X0574269Y0045863D01*
X0574955Y0045065D02*
X0566712Y0045065D01*
X0565796Y0044266D02*
X0575870Y0044266D01*
X0580796Y0044266D02*
X0740983Y0044266D01*
X0740983Y0043468D02*
X0530179Y0043468D01*
X0530870Y0044266D02*
X0529380Y0044266D01*
X0529955Y0045065D02*
X0528582Y0045065D01*
X0529269Y0045863D02*
X0527783Y0045863D01*
X0526985Y0046662D02*
X0528938Y0046662D01*
X0528633Y0047460D02*
X0526186Y0047460D01*
X0525388Y0048259D02*
X0528633Y0048259D01*
X0528633Y0049057D02*
X0524589Y0049057D01*
X0523791Y0049856D02*
X0528877Y0049856D01*
X0529208Y0050654D02*
X0522992Y0050654D01*
X0522194Y0051453D02*
X0529806Y0051453D01*
X0530605Y0052251D02*
X0521395Y0052251D01*
X0520597Y0053050D02*
X0531933Y0053050D01*
X0531933Y0053848D02*
X0519798Y0053848D01*
X0519000Y0054647D02*
X0531933Y0054647D01*
X0531933Y0055445D02*
X0463201Y0055445D01*
X0462403Y0056244D02*
X0522099Y0056244D01*
X0523333Y0058333D02*
X0463333Y0058333D01*
X0418333Y0103333D01*
X0415983Y0103356D02*
X0415683Y0103356D01*
X0415683Y0104155D02*
X0415983Y0104155D01*
X0416630Y0104953D02*
X0415037Y0104953D01*
X0413333Y0103333D02*
X0463333Y0053333D01*
X0518333Y0053333D01*
X0524567Y0056244D02*
X0531933Y0056244D01*
X0531933Y0057043D02*
X0525366Y0057043D01*
X0525683Y0057841D02*
X0531933Y0057841D01*
X0531933Y0058640D02*
X0525683Y0058640D01*
X0525552Y0059438D02*
X0531933Y0059438D01*
X0531933Y0060237D02*
X0524753Y0060237D01*
X0524307Y0060983D02*
X0525683Y0062360D01*
X0525683Y0064307D01*
X0524307Y0065683D01*
X0522360Y0065683D01*
X0521410Y0064733D01*
X0468913Y0064733D01*
X0432663Y0100983D01*
X0433703Y0100983D01*
X0466933Y0067753D01*
X0467753Y0066933D01*
X0521410Y0066933D01*
X0522360Y0065983D01*
X0524307Y0065983D01*
X0525683Y0067360D01*
X0525683Y0069307D01*
X0524307Y0070683D01*
X0522360Y0070683D01*
X0521410Y0069733D01*
X0468913Y0069733D01*
X0435683Y0102963D01*
X0435683Y0104307D01*
X0434307Y0105683D01*
X0432360Y0105683D01*
X0430983Y0104307D01*
X0430983Y0102663D01*
X0430683Y0102963D01*
X0430683Y0104307D01*
X0429307Y0105683D01*
X0427360Y0105683D01*
X0425983Y0104307D01*
X0425983Y0102360D01*
X0427360Y0100983D01*
X0428703Y0100983D01*
X0467753Y0061933D01*
X0521410Y0061933D01*
X0522360Y0060983D01*
X0524307Y0060983D01*
X0524358Y0061035D02*
X0531933Y0061035D01*
X0531933Y0061834D02*
X0525157Y0061834D01*
X0525683Y0062632D02*
X0531933Y0062632D01*
X0531933Y0063431D02*
X0525683Y0063431D01*
X0525683Y0064229D02*
X0531933Y0064229D01*
X0531933Y0065028D02*
X0524962Y0065028D01*
X0524948Y0066625D02*
X0531933Y0066625D01*
X0531933Y0067423D02*
X0525683Y0067423D01*
X0525683Y0068222D02*
X0531933Y0068222D01*
X0531933Y0069020D02*
X0525683Y0069020D01*
X0525171Y0069819D02*
X0531933Y0069819D01*
X0531933Y0070617D02*
X0524373Y0070617D01*
X0524307Y0070983D02*
X0525683Y0072360D01*
X0525683Y0074307D01*
X0524307Y0075683D01*
X0522360Y0075683D01*
X0521410Y0074733D01*
X0473913Y0074733D01*
X0447663Y0100983D01*
X0448703Y0100983D01*
X0471933Y0077753D01*
X0472753Y0076933D01*
X0521410Y0076933D01*
X0522360Y0075983D01*
X0524307Y0075983D01*
X0525683Y0077360D01*
X0525683Y0079307D01*
X0524307Y0080683D01*
X0522360Y0080683D01*
X0521410Y0079733D01*
X0473913Y0079733D01*
X0450683Y0102963D01*
X0450683Y0104307D01*
X0449307Y0105683D01*
X0447360Y0105683D01*
X0445983Y0104307D01*
X0445983Y0102663D01*
X0445683Y0102963D01*
X0445683Y0104307D01*
X0444307Y0105683D01*
X0442360Y0105683D01*
X0440983Y0104307D01*
X0440983Y0102360D01*
X0442360Y0100983D01*
X0443703Y0100983D01*
X0471933Y0072753D01*
X0472753Y0071933D01*
X0521410Y0071933D01*
X0522360Y0070983D01*
X0524307Y0070983D01*
X0524739Y0071416D02*
X0531933Y0071416D01*
X0531933Y0072214D02*
X0525538Y0072214D01*
X0525683Y0073013D02*
X0531933Y0073013D01*
X0531933Y0073811D02*
X0525683Y0073811D01*
X0525380Y0074610D02*
X0531933Y0074610D01*
X0531933Y0075408D02*
X0524582Y0075408D01*
X0524530Y0076207D02*
X0531933Y0076207D01*
X0531933Y0077005D02*
X0525329Y0077005D01*
X0525683Y0077804D02*
X0531933Y0077804D01*
X0531933Y0078602D02*
X0525683Y0078602D01*
X0525589Y0079401D02*
X0531933Y0079401D01*
X0531933Y0080199D02*
X0524791Y0080199D01*
X0524307Y0080983D02*
X0525683Y0082360D01*
X0525683Y0084307D01*
X0524307Y0085683D01*
X0522360Y0085683D01*
X0521410Y0084733D01*
X0478913Y0084733D01*
X0462663Y0100983D01*
X0463703Y0100983D01*
X0476933Y0087753D01*
X0477753Y0086933D01*
X0521410Y0086933D01*
X0522360Y0085983D01*
X0524307Y0085983D01*
X0525683Y0087360D01*
X0525683Y0089307D01*
X0524307Y0090683D01*
X0522360Y0090683D01*
X0521410Y0089733D01*
X0478913Y0089733D01*
X0472513Y0096133D01*
X0474245Y0096133D01*
X0475533Y0097422D01*
X0475533Y0099245D01*
X0474245Y0100533D01*
X0472422Y0100533D01*
X0471133Y0099245D01*
X0471133Y0097513D01*
X0465683Y0102963D01*
X0465683Y0104307D01*
X0464307Y0105683D01*
X0462360Y0105683D01*
X0460983Y0104307D01*
X0460983Y0102663D01*
X0460683Y0102963D01*
X0460683Y0104307D01*
X0459307Y0105683D01*
X0457360Y0105683D01*
X0455983Y0104307D01*
X0455983Y0102360D01*
X0457360Y0100983D01*
X0458703Y0100983D01*
X0477753Y0081933D01*
X0521410Y0081933D01*
X0522360Y0080983D01*
X0524307Y0080983D01*
X0524321Y0080998D02*
X0531933Y0080998D01*
X0531933Y0081796D02*
X0525120Y0081796D01*
X0525683Y0082595D02*
X0531933Y0082595D01*
X0531933Y0083393D02*
X0525683Y0083393D01*
X0525683Y0084192D02*
X0531933Y0084192D01*
X0531933Y0084990D02*
X0525000Y0084990D01*
X0524911Y0086587D02*
X0531933Y0086587D01*
X0531933Y0085789D02*
X0477858Y0085789D01*
X0478656Y0084990D02*
X0521667Y0084990D01*
X0521756Y0086587D02*
X0477059Y0086587D01*
X0477301Y0087386D02*
X0476261Y0087386D01*
X0476502Y0088184D02*
X0475462Y0088184D01*
X0475704Y0088983D02*
X0474664Y0088983D01*
X0474905Y0089781D02*
X0473865Y0089781D01*
X0474107Y0090580D02*
X0473067Y0090580D01*
X0473308Y0091379D02*
X0472268Y0091379D01*
X0472510Y0092177D02*
X0471470Y0092177D01*
X0471711Y0092976D02*
X0470671Y0092976D01*
X0470913Y0093774D02*
X0469873Y0093774D01*
X0470114Y0094573D02*
X0469074Y0094573D01*
X0469316Y0095371D02*
X0468275Y0095371D01*
X0468517Y0096170D02*
X0467477Y0096170D01*
X0467719Y0096968D02*
X0466678Y0096968D01*
X0466920Y0097767D02*
X0465880Y0097767D01*
X0466122Y0098565D02*
X0465081Y0098565D01*
X0465323Y0099364D02*
X0464283Y0099364D01*
X0464525Y0100162D02*
X0463484Y0100162D01*
X0463726Y0100961D02*
X0462686Y0100961D01*
X0463333Y0103333D02*
X0478333Y0088333D01*
X0523333Y0088333D01*
X0525683Y0088184D02*
X0531933Y0088184D01*
X0531933Y0087386D02*
X0525683Y0087386D01*
X0525683Y0088983D02*
X0531933Y0088983D01*
X0531933Y0089781D02*
X0525209Y0089781D01*
X0524410Y0090580D02*
X0531933Y0090580D01*
X0531933Y0091379D02*
X0477268Y0091379D01*
X0476470Y0092177D02*
X0531933Y0092177D01*
X0531933Y0092976D02*
X0475671Y0092976D01*
X0474873Y0093774D02*
X0531933Y0093774D01*
X0531933Y0094573D02*
X0474074Y0094573D01*
X0473275Y0095371D02*
X0531933Y0095371D01*
X0531933Y0096170D02*
X0474281Y0096170D01*
X0475079Y0096968D02*
X0531933Y0096968D01*
X0531933Y0097767D02*
X0475533Y0097767D01*
X0475533Y0098565D02*
X0531933Y0098565D01*
X0531933Y0099364D02*
X0475414Y0099364D01*
X0474616Y0100162D02*
X0531933Y0100162D01*
X0531933Y0100961D02*
X0467686Y0100961D01*
X0466887Y0101759D02*
X0481584Y0101759D01*
X0480983Y0102360D02*
X0480983Y0104307D01*
X0481333Y0104657D01*
X0481333Y0172010D01*
X0480983Y0172360D01*
X0480983Y0174307D01*
X0482360Y0175683D01*
X0484307Y0175683D01*
X0485683Y0174307D01*
X0485683Y0172360D01*
X0485333Y0172010D01*
X0485333Y0104657D01*
X0485683Y0104307D01*
X0485683Y0102360D01*
X0484307Y0100983D01*
X0482360Y0100983D01*
X0480983Y0102360D01*
X0480983Y0102558D02*
X0466089Y0102558D01*
X0465683Y0103356D02*
X0480983Y0103356D01*
X0480983Y0104155D02*
X0465683Y0104155D01*
X0465037Y0104953D02*
X0481333Y0104953D01*
X0481333Y0105752D02*
X0399355Y0105752D01*
X0399355Y0106550D02*
X0481333Y0106550D01*
X0481333Y0107349D02*
X0399356Y0107349D01*
X0399356Y0108147D02*
X0481333Y0108147D01*
X0481333Y0108946D02*
X0399356Y0108946D01*
X0399356Y0109744D02*
X0481333Y0109744D01*
X0481333Y0110543D02*
X0399356Y0110543D01*
X0399356Y0111341D02*
X0481333Y0111341D01*
X0481333Y0112140D02*
X0399357Y0112140D01*
X0399357Y0112938D02*
X0481333Y0112938D01*
X0481333Y0113737D02*
X0399357Y0113737D01*
X0399357Y0114535D02*
X0481333Y0114535D01*
X0481333Y0115334D02*
X0399357Y0115334D01*
X0399358Y0116132D02*
X0481333Y0116132D01*
X0481333Y0116931D02*
X0399358Y0116931D01*
X0399358Y0117729D02*
X0481333Y0117729D01*
X0481333Y0118528D02*
X0399358Y0118528D01*
X0399358Y0119326D02*
X0481333Y0119326D01*
X0481333Y0120125D02*
X0399358Y0120125D01*
X0399359Y0120923D02*
X0481333Y0120923D01*
X0481333Y0121722D02*
X0399359Y0121722D01*
X0399359Y0122520D02*
X0481333Y0122520D01*
X0481333Y0123319D02*
X0399359Y0123319D01*
X0399359Y0124117D02*
X0481333Y0124117D01*
X0481333Y0124916D02*
X0399360Y0124916D01*
X0399360Y0125714D02*
X0481333Y0125714D01*
X0481333Y0126513D02*
X0399360Y0126513D01*
X0399360Y0127312D02*
X0481333Y0127312D01*
X0481333Y0128110D02*
X0399360Y0128110D01*
X0399360Y0128909D02*
X0481333Y0128909D01*
X0481333Y0129707D02*
X0399361Y0129707D01*
X0399361Y0130506D02*
X0481333Y0130506D01*
X0481333Y0131304D02*
X0399361Y0131304D01*
X0399361Y0132103D02*
X0481333Y0132103D01*
X0481333Y0132901D02*
X0399361Y0132901D01*
X0399362Y0133700D02*
X0481333Y0133700D01*
X0481333Y0134498D02*
X0399362Y0134498D01*
X0399362Y0135297D02*
X0481333Y0135297D01*
X0481333Y0136095D02*
X0399362Y0136095D01*
X0399362Y0136894D02*
X0481333Y0136894D01*
X0481333Y0137692D02*
X0399362Y0137692D01*
X0399363Y0138491D02*
X0481333Y0138491D01*
X0481333Y0139289D02*
X0399363Y0139289D01*
X0399363Y0140088D02*
X0481333Y0140088D01*
X0481333Y0140886D02*
X0399363Y0140886D01*
X0399363Y0141685D02*
X0481333Y0141685D01*
X0481333Y0142483D02*
X0399363Y0142483D01*
X0399364Y0143282D02*
X0481333Y0143282D01*
X0481333Y0144080D02*
X0399364Y0144080D01*
X0399364Y0144879D02*
X0481333Y0144879D01*
X0481333Y0145677D02*
X0399364Y0145677D01*
X0399364Y0146476D02*
X0481333Y0146476D01*
X0481333Y0147274D02*
X0399365Y0147274D01*
X0399365Y0148073D02*
X0481333Y0148073D01*
X0481333Y0148871D02*
X0399365Y0148871D01*
X0399365Y0149670D02*
X0481333Y0149670D01*
X0481333Y0150468D02*
X0399365Y0150468D01*
X0399365Y0151267D02*
X0481333Y0151267D01*
X0481333Y0152065D02*
X0399366Y0152065D01*
X0399366Y0152864D02*
X0481333Y0152864D01*
X0481333Y0153662D02*
X0399366Y0153662D01*
X0399366Y0154461D02*
X0481333Y0154461D01*
X0481333Y0155259D02*
X0399366Y0155259D01*
X0399367Y0156058D02*
X0481333Y0156058D01*
X0481333Y0156856D02*
X0399367Y0156856D01*
X0399367Y0157655D02*
X0481333Y0157655D01*
X0481333Y0158453D02*
X0399367Y0158453D01*
X0399367Y0159252D02*
X0481333Y0159252D01*
X0481333Y0160050D02*
X0399367Y0160050D01*
X0399368Y0160849D02*
X0481333Y0160849D01*
X0481333Y0161648D02*
X0399368Y0161648D01*
X0399368Y0162446D02*
X0481333Y0162446D01*
X0481333Y0163245D02*
X0399368Y0163245D01*
X0399368Y0164043D02*
X0481333Y0164043D01*
X0481333Y0164842D02*
X0399369Y0164842D01*
X0399369Y0165640D02*
X0481333Y0165640D01*
X0481333Y0166439D02*
X0409621Y0166439D01*
X0409265Y0166083D02*
X0410583Y0167401D01*
X0410583Y0169265D01*
X0409265Y0170583D01*
X0407401Y0170583D01*
X0406083Y0169265D01*
X0406083Y0167401D01*
X0407401Y0166083D01*
X0409265Y0166083D01*
X0410419Y0167237D02*
X0481333Y0167237D01*
X0481333Y0168036D02*
X0410583Y0168036D01*
X0410583Y0168834D02*
X0481333Y0168834D01*
X0481333Y0169633D02*
X0410216Y0169633D01*
X0409417Y0170431D02*
X0481333Y0170431D01*
X0481333Y0171230D02*
X0399370Y0171230D01*
X0399370Y0172028D02*
X0481315Y0172028D01*
X0480983Y0172827D02*
X0399370Y0172827D01*
X0399370Y0173625D02*
X0480983Y0173625D01*
X0481100Y0174424D02*
X0399371Y0174424D01*
X0399371Y0175222D02*
X0481899Y0175222D01*
X0484768Y0175222D02*
X0581899Y0175222D01*
X0582360Y0175683D02*
X0580983Y0174307D01*
X0580983Y0172360D01*
X0581333Y0172010D01*
X0581333Y0154657D01*
X0580983Y0154307D01*
X0580983Y0152360D01*
X0582360Y0150983D01*
X0584307Y0150983D01*
X0585683Y0152360D01*
X0585683Y0154307D01*
X0585333Y0154657D01*
X0585333Y0172010D01*
X0585683Y0172360D01*
X0585683Y0174307D01*
X0584307Y0175683D01*
X0582360Y0175683D01*
X0581100Y0174424D02*
X0485566Y0174424D01*
X0485683Y0173625D02*
X0580983Y0173625D01*
X0580983Y0172827D02*
X0485683Y0172827D01*
X0485352Y0172028D02*
X0581315Y0172028D01*
X0581333Y0171230D02*
X0485333Y0171230D01*
X0485333Y0170431D02*
X0581333Y0170431D01*
X0581333Y0169633D02*
X0485333Y0169633D01*
X0485333Y0168834D02*
X0581333Y0168834D01*
X0581333Y0168036D02*
X0485333Y0168036D01*
X0485333Y0167237D02*
X0581333Y0167237D01*
X0581333Y0166439D02*
X0485333Y0166439D01*
X0485333Y0165640D02*
X0581333Y0165640D01*
X0581333Y0164842D02*
X0485333Y0164842D01*
X0485333Y0164043D02*
X0581333Y0164043D01*
X0581333Y0163245D02*
X0485333Y0163245D01*
X0485333Y0162446D02*
X0581333Y0162446D01*
X0581333Y0161648D02*
X0485333Y0161648D01*
X0485333Y0160849D02*
X0581333Y0160849D01*
X0581333Y0160050D02*
X0559940Y0160050D01*
X0560683Y0159252D02*
X0581333Y0159252D01*
X0581333Y0158453D02*
X0560683Y0158453D01*
X0560683Y0157655D02*
X0581333Y0157655D01*
X0581333Y0156856D02*
X0560180Y0156856D01*
X0559381Y0156058D02*
X0581333Y0156058D01*
X0581333Y0155259D02*
X0559731Y0155259D01*
X0560529Y0154461D02*
X0581138Y0154461D01*
X0580983Y0153662D02*
X0560683Y0153662D01*
X0560683Y0152864D02*
X0580983Y0152864D01*
X0581278Y0152065D02*
X0560389Y0152065D01*
X0559733Y0151267D02*
X0582076Y0151267D01*
X0584590Y0151267D02*
X0632076Y0151267D01*
X0632360Y0150983D02*
X0634307Y0150983D01*
X0634657Y0151333D01*
X0687010Y0151333D01*
X0687360Y0150983D01*
X0689307Y0150983D01*
X0690683Y0152360D01*
X0690683Y0154307D01*
X0689307Y0155683D01*
X0687360Y0155683D01*
X0687010Y0155333D01*
X0634657Y0155333D01*
X0634307Y0155683D01*
X0632360Y0155683D01*
X0630983Y0154307D01*
X0630983Y0152360D01*
X0632360Y0150983D01*
X0631278Y0152065D02*
X0585389Y0152065D01*
X0585683Y0152864D02*
X0630983Y0152864D01*
X0630983Y0153662D02*
X0585683Y0153662D01*
X0585529Y0154461D02*
X0631138Y0154461D01*
X0631936Y0155259D02*
X0585333Y0155259D01*
X0585333Y0156058D02*
X0857333Y0156058D01*
X0857333Y0156856D02*
X0585333Y0156856D01*
X0585333Y0157655D02*
X0857333Y0157655D01*
X0857333Y0158453D02*
X0585333Y0158453D01*
X0585333Y0159252D02*
X0857333Y0159252D01*
X0857333Y0160050D02*
X0585333Y0160050D01*
X0585333Y0160849D02*
X0857333Y0160849D01*
X0857333Y0161648D02*
X0784971Y0161648D01*
X0784307Y0160983D02*
X0785683Y0162360D01*
X0785683Y0164307D01*
X0784307Y0165683D01*
X0782360Y0165683D01*
X0782010Y0165333D01*
X0689657Y0165333D01*
X0689307Y0165683D01*
X0687360Y0165683D01*
X0685983Y0164307D01*
X0685983Y0162360D01*
X0687360Y0160983D01*
X0689307Y0160983D01*
X0689657Y0161333D01*
X0782010Y0161333D01*
X0782360Y0160983D01*
X0784307Y0160983D01*
X0785683Y0162446D02*
X0857333Y0162446D01*
X0857333Y0163245D02*
X0785683Y0163245D01*
X0785683Y0164043D02*
X0857333Y0164043D01*
X0857333Y0164842D02*
X0785148Y0164842D01*
X0784350Y0165640D02*
X0857333Y0165640D01*
X0857333Y0166439D02*
X0585333Y0166439D01*
X0585333Y0167237D02*
X0857333Y0167237D01*
X0857333Y0168036D02*
X0585333Y0168036D01*
X0585333Y0168834D02*
X0857333Y0168834D01*
X0857333Y0169633D02*
X0585333Y0169633D01*
X0585333Y0170431D02*
X0857333Y0170431D01*
X0857333Y0171230D02*
X0699553Y0171230D01*
X0699307Y0170983D02*
X0700683Y0172360D01*
X0700683Y0174307D01*
X0699307Y0175683D01*
X0697360Y0175683D01*
X0697010Y0175333D01*
X0609657Y0175333D01*
X0609307Y0175683D01*
X0607360Y0175683D01*
X0605983Y0174307D01*
X0605983Y0172360D01*
X0607360Y0170983D01*
X0609307Y0170983D01*
X0609657Y0171333D01*
X0697010Y0171333D01*
X0697360Y0170983D01*
X0699307Y0170983D01*
X0700352Y0172028D02*
X0857333Y0172028D01*
X0857333Y0172827D02*
X0700683Y0172827D01*
X0700683Y0173625D02*
X0857333Y0173625D01*
X0857333Y0174424D02*
X0700566Y0174424D01*
X0699768Y0175222D02*
X0857333Y0175222D01*
X0857333Y0176021D02*
X0729894Y0176021D01*
X0729307Y0175433D02*
X0730683Y0176810D01*
X0730683Y0178757D01*
X0729307Y0180133D01*
X0727360Y0180133D01*
X0726410Y0179183D01*
X0595257Y0179183D01*
X0594307Y0180133D01*
X0592360Y0180133D01*
X0590983Y0178757D01*
X0590983Y0176810D01*
X0592360Y0175433D01*
X0594307Y0175433D01*
X0595257Y0176383D01*
X0726410Y0176383D01*
X0727360Y0175433D01*
X0729307Y0175433D01*
X0730683Y0176819D02*
X0857333Y0176819D01*
X0857333Y0177618D02*
X0730683Y0177618D01*
X0730683Y0178416D02*
X0857333Y0178416D01*
X0857333Y0179215D02*
X0730225Y0179215D01*
X0729427Y0180013D02*
X0857333Y0180013D01*
X0857333Y0180812D02*
X0399372Y0180812D01*
X0399372Y0181610D02*
X0857333Y0181610D01*
X0782317Y0165640D02*
X0689350Y0165640D01*
X0687317Y0165640D02*
X0585333Y0165640D01*
X0585333Y0164842D02*
X0686518Y0164842D01*
X0685983Y0164043D02*
X0585333Y0164043D01*
X0585333Y0163245D02*
X0685983Y0163245D01*
X0685983Y0162446D02*
X0585333Y0162446D01*
X0585333Y0161648D02*
X0686696Y0161648D01*
X0689731Y0155259D02*
X0726936Y0155259D01*
X0727360Y0155683D02*
X0725983Y0154307D01*
X0725983Y0152360D01*
X0727360Y0150983D01*
X0729307Y0150983D01*
X0730257Y0151933D01*
X0776410Y0151933D01*
X0777360Y0150983D01*
X0779307Y0150983D01*
X0780683Y0152360D01*
X0780683Y0154307D01*
X0779307Y0155683D01*
X0777360Y0155683D01*
X0776410Y0154733D01*
X0730257Y0154733D01*
X0729307Y0155683D01*
X0727360Y0155683D01*
X0726137Y0154461D02*
X0690529Y0154461D01*
X0690683Y0153662D02*
X0725983Y0153662D01*
X0725983Y0152864D02*
X0690683Y0152864D01*
X0690389Y0152065D02*
X0726278Y0152065D01*
X0727076Y0151267D02*
X0689590Y0151267D01*
X0687076Y0151267D02*
X0634590Y0151267D01*
X0576183Y0136894D02*
X0794065Y0136894D01*
X0794864Y0137692D02*
X0575798Y0137692D01*
X0574999Y0138491D02*
X0795662Y0138491D01*
X0796461Y0139289D02*
X0559733Y0139289D01*
X0559733Y0138491D02*
X0572667Y0138491D01*
X0571869Y0137692D02*
X0559733Y0137692D01*
X0559733Y0136894D02*
X0571483Y0136894D01*
X0576183Y0136095D02*
X0793267Y0136095D01*
X0792468Y0135297D02*
X0576120Y0135297D01*
X0575322Y0134498D02*
X0791670Y0134498D01*
X0790871Y0133700D02*
X0575233Y0133700D01*
X0575233Y0132901D02*
X0790073Y0132901D01*
X0789274Y0132103D02*
X0575233Y0132103D01*
X0575233Y0131304D02*
X0788476Y0131304D01*
X0787677Y0130506D02*
X0575233Y0130506D01*
X0575233Y0129707D02*
X0786879Y0129707D01*
X0786080Y0128909D02*
X0575233Y0128909D01*
X0575233Y0128110D02*
X0785282Y0128110D01*
X0784483Y0127312D02*
X0575233Y0127312D01*
X0575233Y0126513D02*
X0783685Y0126513D01*
X0782886Y0125714D02*
X0575233Y0125714D01*
X0575233Y0124916D02*
X0666593Y0124916D01*
X0666410Y0124733D02*
X0587753Y0124733D01*
X0583703Y0120683D01*
X0582360Y0120683D01*
X0580983Y0119307D01*
X0580983Y0117360D01*
X0582360Y0115983D01*
X0584307Y0115983D01*
X0585683Y0117360D01*
X0585683Y0118703D01*
X0588913Y0121933D01*
X0666410Y0121933D01*
X0667360Y0120983D01*
X0669307Y0120983D01*
X0670683Y0122360D01*
X0670683Y0124307D01*
X0669307Y0125683D01*
X0667360Y0125683D01*
X0666410Y0124733D01*
X0668333Y0123333D02*
X0588333Y0123333D01*
X0583333Y0118333D01*
X0581802Y0120125D02*
X0575233Y0120125D01*
X0575233Y0120923D02*
X0583944Y0120923D01*
X0584742Y0121722D02*
X0575233Y0121722D01*
X0575233Y0122520D02*
X0585541Y0122520D01*
X0586339Y0123319D02*
X0575233Y0123319D01*
X0575233Y0124117D02*
X0587138Y0124117D01*
X0588702Y0121722D02*
X0666621Y0121722D01*
X0670045Y0121722D02*
X0778894Y0121722D01*
X0779692Y0122520D02*
X0670683Y0122520D01*
X0670683Y0123319D02*
X0780491Y0123319D01*
X0781289Y0124117D02*
X0670683Y0124117D01*
X0670074Y0124916D02*
X0782088Y0124916D01*
X0785349Y0122520D02*
X0816192Y0122520D01*
X0815394Y0121722D02*
X0784550Y0121722D01*
X0783752Y0120923D02*
X0814595Y0120923D01*
X0814005Y0120333D02*
X0799657Y0120333D01*
X0799307Y0120683D01*
X0797360Y0120683D01*
X0795983Y0119307D01*
X0795983Y0117360D01*
X0797360Y0115983D01*
X0799307Y0115983D01*
X0799657Y0116333D01*
X0815662Y0116333D01*
X0823812Y0124483D01*
X0824307Y0124483D01*
X0825683Y0125860D01*
X0825683Y0127807D01*
X0824307Y0129183D01*
X0822360Y0129183D01*
X0820983Y0127807D01*
X0820983Y0127312D01*
X0814005Y0120333D01*
X0816991Y0123319D02*
X0786147Y0123319D01*
X0786946Y0124117D02*
X0817789Y0124117D01*
X0818588Y0124916D02*
X0787744Y0124916D01*
X0788543Y0125714D02*
X0819386Y0125714D01*
X0820185Y0126513D02*
X0789341Y0126513D01*
X0790140Y0127312D02*
X0820983Y0127312D01*
X0821287Y0128110D02*
X0790938Y0128110D01*
X0791737Y0128909D02*
X0822085Y0128909D01*
X0824582Y0128909D02*
X0857333Y0128909D01*
X0857333Y0129707D02*
X0792535Y0129707D01*
X0793334Y0130506D02*
X0857333Y0130506D01*
X0857333Y0131304D02*
X0794132Y0131304D01*
X0794931Y0132103D02*
X0857333Y0132103D01*
X0857333Y0132901D02*
X0795730Y0132901D01*
X0796528Y0133700D02*
X0857333Y0133700D01*
X0857333Y0134498D02*
X0797327Y0134498D01*
X0798125Y0135297D02*
X0857333Y0135297D01*
X0857333Y0136095D02*
X0798924Y0136095D01*
X0799722Y0136894D02*
X0857333Y0136894D01*
X0857333Y0137692D02*
X0800521Y0137692D01*
X0801319Y0138491D02*
X0857333Y0138491D01*
X0857333Y0139289D02*
X0802118Y0139289D01*
X0802916Y0140088D02*
X0857333Y0140088D01*
X0857333Y0140886D02*
X0803715Y0140886D01*
X0804513Y0141685D02*
X0857333Y0141685D01*
X0857333Y0142483D02*
X0805312Y0142483D01*
X0806110Y0143282D02*
X0857333Y0143282D01*
X0857333Y0144080D02*
X0806909Y0144080D01*
X0807707Y0144879D02*
X0857333Y0144879D01*
X0857333Y0145677D02*
X0808506Y0145677D01*
X0808812Y0145983D02*
X0809307Y0145983D01*
X0810683Y0147360D01*
X0810683Y0149307D01*
X0809307Y0150683D01*
X0807360Y0150683D01*
X0805983Y0149307D01*
X0805983Y0148812D01*
X0776333Y0119162D01*
X0776333Y0109657D01*
X0775983Y0109307D01*
X0775983Y0107360D01*
X0777360Y0105983D01*
X0779307Y0105983D01*
X0780683Y0107360D01*
X0780683Y0109307D01*
X0780333Y0109657D01*
X0780333Y0117505D01*
X0808812Y0145983D01*
X0809799Y0146476D02*
X0857333Y0146476D01*
X0857333Y0147274D02*
X0810598Y0147274D01*
X0810683Y0148073D02*
X0857333Y0148073D01*
X0857333Y0148871D02*
X0810683Y0148871D01*
X0810320Y0149670D02*
X0857333Y0149670D01*
X0857333Y0150468D02*
X0809522Y0150468D01*
X0807145Y0150468D02*
X0559733Y0150468D01*
X0559733Y0149670D02*
X0806346Y0149670D01*
X0805983Y0148871D02*
X0559733Y0148871D01*
X0559733Y0148073D02*
X0805244Y0148073D01*
X0804446Y0147274D02*
X0559733Y0147274D01*
X0559733Y0146476D02*
X0803647Y0146476D01*
X0802849Y0145677D02*
X0749313Y0145677D01*
X0749307Y0145683D02*
X0747360Y0145683D01*
X0747010Y0145333D01*
X0739657Y0145333D01*
X0739307Y0145683D01*
X0737360Y0145683D01*
X0737010Y0145333D01*
X0699657Y0145333D01*
X0699307Y0145683D01*
X0697360Y0145683D01*
X0695983Y0144307D01*
X0695983Y0142360D01*
X0697360Y0140983D01*
X0699307Y0140983D01*
X0699657Y0141333D01*
X0737010Y0141333D01*
X0737360Y0140983D01*
X0739307Y0140983D01*
X0739657Y0141333D01*
X0747010Y0141333D01*
X0747360Y0140983D01*
X0749307Y0140983D01*
X0750683Y0142360D01*
X0750683Y0144307D01*
X0749307Y0145683D01*
X0750111Y0144879D02*
X0802050Y0144879D01*
X0801252Y0144080D02*
X0750683Y0144080D01*
X0750683Y0143282D02*
X0800453Y0143282D01*
X0799655Y0142483D02*
X0750683Y0142483D01*
X0750008Y0141685D02*
X0798856Y0141685D01*
X0798058Y0140886D02*
X0559733Y0140886D01*
X0559733Y0140088D02*
X0797259Y0140088D01*
X0779590Y0151267D02*
X0857333Y0151267D01*
X0857333Y0152065D02*
X0780389Y0152065D01*
X0780683Y0152864D02*
X0857333Y0152864D01*
X0857333Y0153662D02*
X0780683Y0153662D01*
X0780529Y0154461D02*
X0857333Y0154461D01*
X0857333Y0155259D02*
X0779731Y0155259D01*
X0778333Y0153333D02*
X0728333Y0153333D01*
X0729731Y0155259D02*
X0776936Y0155259D01*
X0777076Y0151267D02*
X0729590Y0151267D01*
X0737354Y0145677D02*
X0699313Y0145677D01*
X0697354Y0145677D02*
X0559733Y0145677D01*
X0559733Y0144879D02*
X0696555Y0144879D01*
X0695983Y0144080D02*
X0559733Y0144080D01*
X0559733Y0143282D02*
X0695983Y0143282D01*
X0695983Y0142483D02*
X0559733Y0142483D01*
X0559733Y0141685D02*
X0696659Y0141685D01*
X0739313Y0145677D02*
X0747354Y0145677D01*
X0825380Y0128110D02*
X0857333Y0128110D01*
X0857333Y0127312D02*
X0825683Y0127312D01*
X0825683Y0126513D02*
X0857333Y0126513D01*
X0857333Y0125714D02*
X0825538Y0125714D01*
X0824739Y0124916D02*
X0857333Y0124916D01*
X0857333Y0124117D02*
X0823446Y0124117D01*
X0822647Y0123319D02*
X0857333Y0123319D01*
X0857333Y0122520D02*
X0821849Y0122520D01*
X0821050Y0121722D02*
X0857333Y0121722D01*
X0857333Y0120923D02*
X0820252Y0120923D01*
X0819453Y0120125D02*
X0857333Y0120125D01*
X0857333Y0119326D02*
X0818655Y0119326D01*
X0817856Y0118528D02*
X0857333Y0118528D01*
X0857333Y0117729D02*
X0817058Y0117729D01*
X0816259Y0116931D02*
X0857333Y0116931D01*
X0857333Y0116132D02*
X0799456Y0116132D01*
X0797211Y0116132D02*
X0780333Y0116132D01*
X0780333Y0115334D02*
X0857333Y0115334D01*
X0857333Y0114535D02*
X0780333Y0114535D01*
X0780333Y0113737D02*
X0857333Y0113737D01*
X0857333Y0112938D02*
X0780333Y0112938D01*
X0780333Y0112140D02*
X0857333Y0112140D01*
X0857333Y0111341D02*
X0780333Y0111341D01*
X0780333Y0110543D02*
X0857333Y0110543D01*
X0857333Y0109744D02*
X0780333Y0109744D01*
X0780683Y0108946D02*
X0857333Y0108946D01*
X0857333Y0108147D02*
X0780683Y0108147D01*
X0780672Y0107349D02*
X0857333Y0107349D01*
X0857333Y0106550D02*
X0779874Y0106550D01*
X0776793Y0106550D02*
X0575233Y0106550D01*
X0575233Y0105752D02*
X0857333Y0105752D01*
X0857333Y0104953D02*
X0585037Y0104953D01*
X0585683Y0104307D02*
X0584307Y0105683D01*
X0582360Y0105683D01*
X0580983Y0104307D01*
X0580983Y0102360D01*
X0582360Y0100983D01*
X0584307Y0100983D01*
X0585683Y0102360D01*
X0585683Y0104307D01*
X0585683Y0104155D02*
X0857333Y0104155D01*
X0857333Y0103356D02*
X0585683Y0103356D01*
X0585683Y0102558D02*
X0857333Y0102558D01*
X0857333Y0101759D02*
X0585083Y0101759D01*
X0584307Y0100683D02*
X0582360Y0100683D01*
X0580983Y0099307D01*
X0580983Y0097360D01*
X0582360Y0095983D01*
X0583703Y0095983D01*
X0587753Y0091933D01*
X0656410Y0091933D01*
X0657360Y0090983D01*
X0659307Y0090983D01*
X0660683Y0092360D01*
X0660683Y0094307D01*
X0659307Y0095683D01*
X0657360Y0095683D01*
X0656410Y0094733D01*
X0588913Y0094733D01*
X0585683Y0097963D01*
X0585683Y0099307D01*
X0584307Y0100683D01*
X0584828Y0100162D02*
X0857333Y0100162D01*
X0857333Y0099364D02*
X0585626Y0099364D01*
X0585683Y0098565D02*
X0857333Y0098565D01*
X0857333Y0097767D02*
X0585880Y0097767D01*
X0586678Y0096968D02*
X0857333Y0096968D01*
X0857333Y0096170D02*
X0587477Y0096170D01*
X0588275Y0095371D02*
X0657048Y0095371D01*
X0658333Y0093333D02*
X0588333Y0093333D01*
X0583333Y0098333D01*
X0580983Y0098565D02*
X0575233Y0098565D01*
X0575233Y0097767D02*
X0580983Y0097767D01*
X0581375Y0096968D02*
X0575233Y0096968D01*
X0575233Y0096170D02*
X0582174Y0096170D01*
X0584316Y0095371D02*
X0575233Y0095371D01*
X0575233Y0094573D02*
X0585114Y0094573D01*
X0585913Y0093774D02*
X0575233Y0093774D01*
X0575233Y0092976D02*
X0586711Y0092976D01*
X0587510Y0092177D02*
X0575233Y0092177D01*
X0575233Y0091379D02*
X0656965Y0091379D01*
X0659702Y0091379D02*
X0857333Y0091379D01*
X0857333Y0092177D02*
X0660500Y0092177D01*
X0660683Y0092976D02*
X0857333Y0092976D01*
X0857333Y0093774D02*
X0660683Y0093774D01*
X0660417Y0094573D02*
X0857333Y0094573D01*
X0857333Y0095371D02*
X0659619Y0095371D01*
X0615683Y0084307D02*
X0614307Y0085683D01*
X0612360Y0085683D01*
X0612010Y0085333D01*
X0602505Y0085333D01*
X0601333Y0084162D01*
X0597855Y0080683D01*
X0597360Y0080683D01*
X0595983Y0079307D01*
X0595983Y0077360D01*
X0597360Y0075983D01*
X0599307Y0075983D01*
X0600683Y0077360D01*
X0600683Y0077855D01*
X0604162Y0081333D01*
X0612010Y0081333D01*
X0612360Y0080983D01*
X0614307Y0080983D01*
X0615683Y0082360D01*
X0615683Y0084307D01*
X0615683Y0084192D02*
X0857333Y0084192D01*
X0857333Y0084990D02*
X0615000Y0084990D01*
X0615683Y0083393D02*
X0857333Y0083393D01*
X0857333Y0082595D02*
X0615683Y0082595D01*
X0615120Y0081796D02*
X0857333Y0081796D01*
X0857333Y0080998D02*
X0614321Y0080998D01*
X0612345Y0080998D02*
X0603826Y0080998D01*
X0603028Y0080199D02*
X0731876Y0080199D01*
X0732360Y0080683D02*
X0730983Y0079307D01*
X0730983Y0077360D01*
X0732360Y0075983D01*
X0734307Y0075983D01*
X0734657Y0076333D01*
X0752505Y0076333D01*
X0755983Y0072855D01*
X0755983Y0072360D01*
X0757360Y0070983D01*
X0759307Y0070983D01*
X0759657Y0071333D01*
X0777010Y0071333D01*
X0777360Y0070983D01*
X0779307Y0070983D01*
X0779657Y0071333D01*
X0807505Y0071333D01*
X0815983Y0062855D01*
X0815983Y0062360D01*
X0817360Y0060983D01*
X0819307Y0060983D01*
X0820683Y0062360D01*
X0820683Y0064307D01*
X0819307Y0065683D01*
X0818812Y0065683D01*
X0809162Y0075333D01*
X0779657Y0075333D01*
X0779307Y0075683D01*
X0777360Y0075683D01*
X0777010Y0075333D01*
X0759657Y0075333D01*
X0759307Y0075683D01*
X0758812Y0075683D01*
X0754162Y0080333D01*
X0734657Y0080333D01*
X0734307Y0080683D01*
X0732360Y0080683D01*
X0731077Y0079401D02*
X0602229Y0079401D01*
X0601431Y0078602D02*
X0730983Y0078602D01*
X0730983Y0077804D02*
X0600683Y0077804D01*
X0600329Y0077005D02*
X0731338Y0077005D01*
X0732136Y0076207D02*
X0599530Y0076207D01*
X0597136Y0076207D02*
X0575233Y0076207D01*
X0575233Y0077005D02*
X0596338Y0077005D01*
X0595983Y0077804D02*
X0575233Y0077804D01*
X0575233Y0078602D02*
X0595983Y0078602D01*
X0596077Y0079401D02*
X0575233Y0079401D01*
X0575233Y0080199D02*
X0596876Y0080199D01*
X0598169Y0080998D02*
X0575233Y0080998D01*
X0575233Y0081796D02*
X0598968Y0081796D01*
X0599766Y0082595D02*
X0575233Y0082595D01*
X0575233Y0083393D02*
X0600565Y0083393D01*
X0601363Y0084192D02*
X0575233Y0084192D01*
X0575233Y0084990D02*
X0602162Y0084990D01*
X0575233Y0085789D02*
X0857333Y0085789D01*
X0857333Y0086587D02*
X0575233Y0086587D01*
X0575233Y0087386D02*
X0857333Y0087386D01*
X0857333Y0088184D02*
X0575233Y0088184D01*
X0575233Y0088983D02*
X0857333Y0088983D01*
X0857333Y0089781D02*
X0575233Y0089781D01*
X0575233Y0090580D02*
X0857333Y0090580D01*
X0857333Y0100961D02*
X0575233Y0100961D01*
X0575233Y0101759D02*
X0581584Y0101759D01*
X0580983Y0102558D02*
X0575233Y0102558D01*
X0575233Y0103356D02*
X0580983Y0103356D01*
X0580983Y0104155D02*
X0575233Y0104155D01*
X0575233Y0104953D02*
X0581630Y0104953D01*
X0572433Y0105752D02*
X0564733Y0105752D01*
X0564733Y0106550D02*
X0572433Y0106550D01*
X0572433Y0107349D02*
X0564733Y0107349D01*
X0564733Y0108147D02*
X0572433Y0108147D01*
X0572433Y0108946D02*
X0564733Y0108946D01*
X0564733Y0109744D02*
X0572433Y0109744D01*
X0572433Y0110543D02*
X0564733Y0110543D01*
X0564733Y0111341D02*
X0572433Y0111341D01*
X0572433Y0112140D02*
X0564733Y0112140D01*
X0564733Y0112938D02*
X0572433Y0112938D01*
X0572433Y0113737D02*
X0564733Y0113737D01*
X0564733Y0114535D02*
X0572433Y0114535D01*
X0572433Y0115334D02*
X0564733Y0115334D01*
X0564733Y0116132D02*
X0572433Y0116132D01*
X0572433Y0116931D02*
X0564733Y0116931D01*
X0564733Y0117729D02*
X0572433Y0117729D01*
X0572433Y0118528D02*
X0564733Y0118528D01*
X0564733Y0119326D02*
X0572433Y0119326D01*
X0572433Y0120125D02*
X0564733Y0120125D01*
X0564733Y0120923D02*
X0572433Y0120923D01*
X0572433Y0121722D02*
X0564733Y0121722D01*
X0564733Y0122520D02*
X0572433Y0122520D01*
X0572433Y0123319D02*
X0565299Y0123319D01*
X0566097Y0124117D02*
X0572433Y0124117D01*
X0572433Y0124916D02*
X0566896Y0124916D01*
X0567694Y0125714D02*
X0572433Y0125714D01*
X0572433Y0126513D02*
X0569836Y0126513D01*
X0570635Y0127312D02*
X0572433Y0127312D01*
X0572433Y0128110D02*
X0570683Y0128110D01*
X0570683Y0128909D02*
X0572433Y0128909D01*
X0572433Y0129707D02*
X0570283Y0129707D01*
X0569484Y0130506D02*
X0572433Y0130506D01*
X0568333Y0128333D02*
X0563333Y0123333D01*
X0563333Y0048333D01*
X0575597Y0053050D02*
X0857333Y0053050D01*
X0857333Y0053848D02*
X0575233Y0053848D01*
X0575233Y0054647D02*
X0857333Y0054647D01*
X0857333Y0055445D02*
X0575233Y0055445D01*
X0575233Y0056244D02*
X0587099Y0056244D01*
X0587360Y0055983D02*
X0589307Y0055983D01*
X0590257Y0056933D01*
X0646410Y0056933D01*
X0647360Y0055983D01*
X0649307Y0055983D01*
X0650683Y0057360D01*
X0650683Y0059307D01*
X0649307Y0060683D01*
X0647360Y0060683D01*
X0646410Y0059733D01*
X0590257Y0059733D01*
X0589307Y0060683D01*
X0587360Y0060683D01*
X0585983Y0059307D01*
X0585983Y0057360D01*
X0587360Y0055983D01*
X0586301Y0057043D02*
X0575233Y0057043D01*
X0575233Y0057841D02*
X0585983Y0057841D01*
X0585983Y0058640D02*
X0575233Y0058640D01*
X0575233Y0059438D02*
X0586115Y0059438D01*
X0586913Y0060237D02*
X0575233Y0060237D01*
X0575233Y0061035D02*
X0817308Y0061035D01*
X0816510Y0061834D02*
X0575233Y0061834D01*
X0575233Y0062632D02*
X0815983Y0062632D01*
X0815408Y0063431D02*
X0575233Y0063431D01*
X0575233Y0064229D02*
X0814609Y0064229D01*
X0813811Y0065028D02*
X0575233Y0065028D01*
X0575233Y0065826D02*
X0813012Y0065826D01*
X0812214Y0066625D02*
X0629948Y0066625D01*
X0629307Y0065983D02*
X0630683Y0067360D01*
X0630683Y0069307D01*
X0629307Y0070683D01*
X0627360Y0070683D01*
X0626410Y0069733D01*
X0615257Y0069733D01*
X0614307Y0070683D01*
X0612360Y0070683D01*
X0610983Y0069307D01*
X0610983Y0067360D01*
X0612360Y0065983D01*
X0614307Y0065983D01*
X0615257Y0066933D01*
X0626410Y0066933D01*
X0627360Y0065983D01*
X0629307Y0065983D01*
X0630683Y0067423D02*
X0811415Y0067423D01*
X0810617Y0068222D02*
X0630683Y0068222D01*
X0630683Y0069020D02*
X0809818Y0069020D01*
X0809020Y0069819D02*
X0630171Y0069819D01*
X0629373Y0070617D02*
X0808221Y0070617D01*
X0810684Y0073811D02*
X0836333Y0073811D01*
X0836333Y0074162D02*
X0836333Y0059657D01*
X0835983Y0059307D01*
X0835983Y0057360D01*
X0837360Y0055983D01*
X0839307Y0055983D01*
X0840683Y0057360D01*
X0840683Y0059307D01*
X0840333Y0059657D01*
X0840333Y0072505D01*
X0843812Y0075983D01*
X0844307Y0075983D01*
X0845683Y0077360D01*
X0845683Y0079307D01*
X0844307Y0080683D01*
X0842360Y0080683D01*
X0840983Y0079307D01*
X0840983Y0078812D01*
X0836333Y0074162D01*
X0836781Y0074610D02*
X0809885Y0074610D01*
X0811482Y0073013D02*
X0836333Y0073013D01*
X0836333Y0072214D02*
X0812281Y0072214D01*
X0813079Y0071416D02*
X0836333Y0071416D01*
X0836333Y0070617D02*
X0813878Y0070617D01*
X0814676Y0069819D02*
X0836333Y0069819D01*
X0836333Y0069020D02*
X0815475Y0069020D01*
X0816273Y0068222D02*
X0836333Y0068222D01*
X0836333Y0067423D02*
X0817072Y0067423D01*
X0817870Y0066625D02*
X0836333Y0066625D01*
X0836333Y0065826D02*
X0818669Y0065826D01*
X0819962Y0065028D02*
X0836333Y0065028D01*
X0836333Y0064229D02*
X0820683Y0064229D01*
X0820683Y0063431D02*
X0836333Y0063431D01*
X0836333Y0062632D02*
X0820683Y0062632D01*
X0820157Y0061834D02*
X0836333Y0061834D01*
X0836333Y0061035D02*
X0819358Y0061035D01*
X0835983Y0058640D02*
X0650683Y0058640D01*
X0650683Y0057841D02*
X0835983Y0057841D01*
X0836301Y0057043D02*
X0650366Y0057043D01*
X0649567Y0056244D02*
X0837099Y0056244D01*
X0839567Y0056244D02*
X0857333Y0056244D01*
X0857333Y0057043D02*
X0840366Y0057043D01*
X0840683Y0057841D02*
X0857333Y0057841D01*
X0857333Y0058640D02*
X0840683Y0058640D01*
X0840552Y0059438D02*
X0857333Y0059438D01*
X0857333Y0060237D02*
X0840333Y0060237D01*
X0840333Y0061035D02*
X0857333Y0061035D01*
X0857333Y0061834D02*
X0840333Y0061834D01*
X0840333Y0062632D02*
X0857333Y0062632D01*
X0857333Y0063431D02*
X0840333Y0063431D01*
X0840333Y0064229D02*
X0857333Y0064229D01*
X0857333Y0065028D02*
X0840333Y0065028D01*
X0840333Y0065826D02*
X0857333Y0065826D01*
X0857333Y0066625D02*
X0840333Y0066625D01*
X0840333Y0067423D02*
X0857333Y0067423D01*
X0857333Y0068222D02*
X0840333Y0068222D01*
X0840333Y0069020D02*
X0857333Y0069020D01*
X0857333Y0069819D02*
X0840333Y0069819D01*
X0840333Y0070617D02*
X0857333Y0070617D01*
X0857333Y0071416D02*
X0840333Y0071416D01*
X0840333Y0072214D02*
X0857333Y0072214D01*
X0857333Y0073013D02*
X0840841Y0073013D01*
X0841640Y0073811D02*
X0857333Y0073811D01*
X0857333Y0074610D02*
X0842438Y0074610D01*
X0843237Y0075408D02*
X0857333Y0075408D01*
X0857333Y0076207D02*
X0844530Y0076207D01*
X0845329Y0077005D02*
X0857333Y0077005D01*
X0857333Y0077804D02*
X0845683Y0077804D01*
X0845683Y0078602D02*
X0857333Y0078602D01*
X0857333Y0079401D02*
X0845589Y0079401D01*
X0844791Y0080199D02*
X0857333Y0080199D01*
X0841876Y0080199D02*
X0754296Y0080199D01*
X0755094Y0079401D02*
X0841077Y0079401D01*
X0840774Y0078602D02*
X0755893Y0078602D01*
X0756691Y0077804D02*
X0839975Y0077804D01*
X0839177Y0077005D02*
X0757490Y0077005D01*
X0758288Y0076207D02*
X0838378Y0076207D01*
X0837580Y0075408D02*
X0779582Y0075408D01*
X0777085Y0075408D02*
X0759582Y0075408D01*
X0755825Y0073013D02*
X0575233Y0073013D01*
X0575233Y0073811D02*
X0755027Y0073811D01*
X0754228Y0074610D02*
X0575233Y0074610D01*
X0575233Y0075408D02*
X0753430Y0075408D01*
X0752631Y0076207D02*
X0734530Y0076207D01*
X0756129Y0072214D02*
X0575233Y0072214D01*
X0575233Y0071416D02*
X0756928Y0071416D01*
X0836115Y0059438D02*
X0650552Y0059438D01*
X0649753Y0060237D02*
X0836333Y0060237D01*
X0808333Y0048333D02*
X0803333Y0043333D01*
X0743333Y0043333D01*
X0741741Y0045065D02*
X0581712Y0045065D01*
X0582397Y0045863D02*
X0803883Y0045863D01*
X0803085Y0045065D02*
X0744925Y0045065D01*
X0740983Y0042669D02*
X0530977Y0042669D01*
X0531776Y0041871D02*
X0741472Y0041871D01*
X0742271Y0041072D02*
X0532574Y0041072D01*
X0533373Y0040274D02*
X0551950Y0040274D01*
X0555683Y0037878D02*
X0645983Y0037878D01*
X0646264Y0037080D02*
X0555403Y0037080D01*
X0554605Y0036281D02*
X0647062Y0036281D01*
X0649605Y0036281D02*
X0737062Y0036281D01*
X0739605Y0036281D02*
X0762062Y0036281D01*
X0764605Y0036281D02*
X0817062Y0036281D01*
X0819605Y0036281D02*
X0857333Y0036281D01*
X0857333Y0035483D02*
X0499012Y0035483D01*
X0498214Y0036281D02*
X0552062Y0036281D01*
X0532607Y0037080D02*
X0497415Y0037080D01*
X0496617Y0037878D02*
X0531809Y0037878D01*
X0531010Y0038677D02*
X0495818Y0038677D01*
X0495020Y0039475D02*
X0530211Y0039475D01*
X0529413Y0040274D02*
X0494221Y0040274D01*
X0493423Y0041072D02*
X0528614Y0041072D01*
X0527816Y0041871D02*
X0492624Y0041871D01*
X0491826Y0042669D02*
X0527017Y0042669D01*
X0526219Y0043468D02*
X0491027Y0043468D01*
X0490683Y0044266D02*
X0525420Y0044266D01*
X0533333Y0048333D02*
X0533333Y0138333D01*
X0531764Y0140088D02*
X0485333Y0140088D01*
X0485333Y0140886D02*
X0551933Y0140886D01*
X0551933Y0140088D02*
X0534902Y0140088D01*
X0535683Y0139289D02*
X0551933Y0139289D01*
X0551933Y0138491D02*
X0535683Y0138491D01*
X0535683Y0137692D02*
X0551933Y0137692D01*
X0551933Y0136894D02*
X0535217Y0136894D01*
X0534733Y0136095D02*
X0551933Y0136095D01*
X0551933Y0135297D02*
X0534733Y0135297D01*
X0534733Y0134498D02*
X0551933Y0134498D01*
X0551933Y0133700D02*
X0534733Y0133700D01*
X0534733Y0132901D02*
X0551933Y0132901D01*
X0551933Y0132103D02*
X0534733Y0132103D01*
X0531933Y0132103D02*
X0485333Y0132103D01*
X0485333Y0132901D02*
X0531933Y0132901D01*
X0531933Y0133700D02*
X0485333Y0133700D01*
X0485333Y0134498D02*
X0531933Y0134498D01*
X0531933Y0135297D02*
X0485333Y0135297D01*
X0485333Y0136095D02*
X0531933Y0136095D01*
X0531450Y0136894D02*
X0485333Y0136894D01*
X0485333Y0137692D02*
X0530983Y0137692D01*
X0530983Y0138491D02*
X0485333Y0138491D01*
X0485333Y0139289D02*
X0530983Y0139289D01*
X0551933Y0141685D02*
X0485333Y0141685D01*
X0485333Y0142483D02*
X0551933Y0142483D01*
X0551933Y0143282D02*
X0485333Y0143282D01*
X0485333Y0144080D02*
X0551933Y0144080D01*
X0551933Y0144879D02*
X0485333Y0144879D01*
X0485333Y0145677D02*
X0551933Y0145677D01*
X0551933Y0146476D02*
X0485333Y0146476D01*
X0485333Y0147274D02*
X0551933Y0147274D01*
X0551933Y0148073D02*
X0485333Y0148073D01*
X0485333Y0148871D02*
X0551933Y0148871D01*
X0551933Y0149670D02*
X0485333Y0149670D01*
X0485333Y0150468D02*
X0551933Y0150468D01*
X0551933Y0151267D02*
X0485333Y0151267D01*
X0485333Y0152065D02*
X0551933Y0152065D01*
X0551933Y0152864D02*
X0485333Y0152864D01*
X0485333Y0153662D02*
X0551933Y0153662D01*
X0552481Y0154461D02*
X0485333Y0154461D01*
X0485333Y0155259D02*
X0553280Y0155259D01*
X0554078Y0156058D02*
X0485333Y0156058D01*
X0485333Y0156856D02*
X0554877Y0156856D01*
X0555675Y0157655D02*
X0485333Y0157655D01*
X0485333Y0158453D02*
X0555983Y0158453D01*
X0555983Y0159252D02*
X0485333Y0159252D01*
X0485333Y0160050D02*
X0556727Y0160050D01*
X0558333Y0158333D02*
X0553333Y0153333D01*
X0553333Y0113333D01*
X0555683Y0112938D02*
X0556933Y0112938D01*
X0556933Y0112140D02*
X0555463Y0112140D01*
X0554665Y0111341D02*
X0556933Y0111341D01*
X0556933Y0113737D02*
X0555683Y0113737D01*
X0555455Y0114535D02*
X0556933Y0114535D01*
X0556933Y0115334D02*
X0554733Y0115334D01*
X0554733Y0116132D02*
X0556933Y0116132D01*
X0556933Y0116931D02*
X0554733Y0116931D01*
X0554733Y0117729D02*
X0556933Y0117729D01*
X0556933Y0118528D02*
X0554733Y0118528D01*
X0554733Y0119326D02*
X0556933Y0119326D01*
X0556933Y0120125D02*
X0554733Y0120125D01*
X0554733Y0120923D02*
X0556933Y0120923D01*
X0556933Y0121722D02*
X0554733Y0121722D01*
X0554733Y0122520D02*
X0556933Y0122520D01*
X0556933Y0123319D02*
X0554733Y0123319D01*
X0554733Y0124117D02*
X0556933Y0124117D01*
X0556933Y0124916D02*
X0554733Y0124916D01*
X0554733Y0125714D02*
X0556933Y0125714D01*
X0556933Y0126513D02*
X0554733Y0126513D01*
X0554733Y0127312D02*
X0556933Y0127312D01*
X0556933Y0128110D02*
X0554733Y0128110D01*
X0554733Y0128909D02*
X0556933Y0128909D01*
X0556933Y0129707D02*
X0554733Y0129707D01*
X0554733Y0130506D02*
X0556933Y0130506D01*
X0556933Y0131304D02*
X0554733Y0131304D01*
X0554733Y0132103D02*
X0556933Y0132103D01*
X0556933Y0132901D02*
X0554733Y0132901D01*
X0554733Y0133700D02*
X0556933Y0133700D01*
X0556933Y0134498D02*
X0554733Y0134498D01*
X0554733Y0135297D02*
X0556933Y0135297D01*
X0556933Y0136095D02*
X0554733Y0136095D01*
X0554733Y0136894D02*
X0556933Y0136894D01*
X0556933Y0137692D02*
X0554733Y0137692D01*
X0554733Y0138491D02*
X0556933Y0138491D01*
X0556933Y0139289D02*
X0554733Y0139289D01*
X0554733Y0140088D02*
X0556933Y0140088D01*
X0556933Y0140886D02*
X0554733Y0140886D01*
X0554733Y0141685D02*
X0556933Y0141685D01*
X0556933Y0142483D02*
X0554733Y0142483D01*
X0554733Y0143282D02*
X0556933Y0143282D01*
X0556933Y0144080D02*
X0554733Y0144080D01*
X0554733Y0144879D02*
X0556933Y0144879D01*
X0556933Y0145677D02*
X0554733Y0145677D01*
X0554733Y0146476D02*
X0556933Y0146476D01*
X0556933Y0147274D02*
X0554733Y0147274D01*
X0554733Y0148073D02*
X0556933Y0148073D01*
X0556933Y0148871D02*
X0554733Y0148871D01*
X0554733Y0149670D02*
X0556933Y0149670D01*
X0556933Y0150468D02*
X0554733Y0150468D01*
X0554733Y0151267D02*
X0556933Y0151267D01*
X0556278Y0152065D02*
X0554733Y0152065D01*
X0554844Y0152864D02*
X0555983Y0152864D01*
X0555983Y0153662D02*
X0555642Y0153662D01*
X0558333Y0153333D02*
X0558333Y0108333D01*
X0575233Y0108147D02*
X0775983Y0108147D01*
X0775995Y0107349D02*
X0575233Y0107349D01*
X0575233Y0108946D02*
X0775983Y0108946D01*
X0776333Y0109744D02*
X0575233Y0109744D01*
X0575233Y0110543D02*
X0776333Y0110543D01*
X0776333Y0111341D02*
X0639665Y0111341D01*
X0639307Y0110983D02*
X0640683Y0112360D01*
X0640683Y0114307D01*
X0639307Y0115683D01*
X0637360Y0115683D01*
X0636410Y0114733D01*
X0585257Y0114733D01*
X0584307Y0115683D01*
X0582360Y0115683D01*
X0580983Y0114307D01*
X0580983Y0112360D01*
X0582360Y0110983D01*
X0584307Y0110983D01*
X0585257Y0111933D01*
X0636410Y0111933D01*
X0637360Y0110983D01*
X0639307Y0110983D01*
X0640463Y0112140D02*
X0776333Y0112140D01*
X0776333Y0112938D02*
X0640683Y0112938D01*
X0640683Y0113737D02*
X0776333Y0113737D01*
X0776333Y0114535D02*
X0640455Y0114535D01*
X0639656Y0115334D02*
X0776333Y0115334D01*
X0776333Y0116132D02*
X0759456Y0116132D01*
X0759307Y0115983D02*
X0760683Y0117360D01*
X0760683Y0119307D01*
X0759307Y0120683D01*
X0757360Y0120683D01*
X0757010Y0120333D01*
X0739657Y0120333D01*
X0739307Y0120683D01*
X0737360Y0120683D01*
X0735983Y0119307D01*
X0735983Y0117360D01*
X0737360Y0115983D01*
X0739307Y0115983D01*
X0739657Y0116333D01*
X0757010Y0116333D01*
X0757360Y0115983D01*
X0759307Y0115983D01*
X0760254Y0116931D02*
X0776333Y0116931D01*
X0776333Y0117729D02*
X0760683Y0117729D01*
X0760683Y0118528D02*
X0776333Y0118528D01*
X0776498Y0119326D02*
X0760664Y0119326D01*
X0759865Y0120125D02*
X0777296Y0120125D01*
X0778095Y0120923D02*
X0587903Y0120923D01*
X0587105Y0120125D02*
X0736802Y0120125D01*
X0736003Y0119326D02*
X0586306Y0119326D01*
X0585683Y0118528D02*
X0735983Y0118528D01*
X0735983Y0117729D02*
X0585683Y0117729D01*
X0585254Y0116931D02*
X0736412Y0116931D01*
X0737211Y0116132D02*
X0584456Y0116132D01*
X0584656Y0115334D02*
X0637010Y0115334D01*
X0638333Y0113333D02*
X0583333Y0113333D01*
X0580983Y0112938D02*
X0575233Y0112938D01*
X0575233Y0112140D02*
X0581203Y0112140D01*
X0582002Y0111341D02*
X0575233Y0111341D01*
X0575233Y0113737D02*
X0580983Y0113737D01*
X0581212Y0114535D02*
X0575233Y0114535D01*
X0575233Y0115334D02*
X0582010Y0115334D01*
X0582211Y0116132D02*
X0575233Y0116132D01*
X0575233Y0116931D02*
X0581412Y0116931D01*
X0580983Y0117729D02*
X0575233Y0117729D01*
X0575233Y0118528D02*
X0580983Y0118528D01*
X0581003Y0119326D02*
X0575233Y0119326D01*
X0584665Y0111341D02*
X0637002Y0111341D01*
X0581839Y0100162D02*
X0575233Y0100162D01*
X0575233Y0099364D02*
X0581040Y0099364D01*
X0531933Y0101759D02*
X0485083Y0101759D01*
X0485683Y0102558D02*
X0531933Y0102558D01*
X0531933Y0103356D02*
X0485683Y0103356D01*
X0485683Y0104155D02*
X0531933Y0104155D01*
X0531933Y0104953D02*
X0485333Y0104953D01*
X0485333Y0105752D02*
X0531933Y0105752D01*
X0531933Y0106550D02*
X0485333Y0106550D01*
X0485333Y0107349D02*
X0531933Y0107349D01*
X0531933Y0108147D02*
X0485333Y0108147D01*
X0485333Y0108946D02*
X0531933Y0108946D01*
X0531933Y0109744D02*
X0485333Y0109744D01*
X0485333Y0110543D02*
X0531933Y0110543D01*
X0531933Y0111341D02*
X0485333Y0111341D01*
X0485333Y0112140D02*
X0528203Y0112140D01*
X0528360Y0111983D02*
X0530307Y0111983D01*
X0531683Y0113360D01*
X0531683Y0115307D01*
X0530307Y0116683D01*
X0528360Y0116683D01*
X0526983Y0115307D01*
X0526983Y0113360D01*
X0528360Y0111983D01*
X0527405Y0112938D02*
X0485333Y0112938D01*
X0485333Y0113737D02*
X0526983Y0113737D01*
X0526983Y0114535D02*
X0485333Y0114535D01*
X0485333Y0115334D02*
X0527010Y0115334D01*
X0527809Y0116132D02*
X0485333Y0116132D01*
X0485333Y0116931D02*
X0531933Y0116931D01*
X0531933Y0117729D02*
X0485333Y0117729D01*
X0485333Y0118528D02*
X0531933Y0118528D01*
X0531933Y0119326D02*
X0485333Y0119326D01*
X0485333Y0120125D02*
X0531933Y0120125D01*
X0531933Y0120923D02*
X0485333Y0120923D01*
X0485333Y0121722D02*
X0531933Y0121722D01*
X0531933Y0122520D02*
X0485333Y0122520D01*
X0485333Y0123319D02*
X0531933Y0123319D01*
X0531933Y0124117D02*
X0485333Y0124117D01*
X0485333Y0124916D02*
X0531933Y0124916D01*
X0531933Y0125714D02*
X0485333Y0125714D01*
X0485333Y0126513D02*
X0531933Y0126513D01*
X0531933Y0127312D02*
X0485333Y0127312D01*
X0485333Y0128110D02*
X0531933Y0128110D01*
X0531933Y0128909D02*
X0485333Y0128909D01*
X0485333Y0129707D02*
X0531933Y0129707D01*
X0531933Y0130506D02*
X0485333Y0130506D01*
X0485333Y0131304D02*
X0531933Y0131304D01*
X0538333Y0128333D02*
X0538333Y0058333D01*
X0548333Y0048333D01*
X0582728Y0046662D02*
X0804682Y0046662D01*
X0805480Y0047460D02*
X0583033Y0047460D01*
X0583033Y0048259D02*
X0805983Y0048259D01*
X0805983Y0049057D02*
X0583033Y0049057D01*
X0582790Y0049856D02*
X0806533Y0049856D01*
X0816950Y0040274D02*
X0764716Y0040274D01*
X0761950Y0040274D02*
X0739716Y0040274D01*
X0736950Y0040274D02*
X0649716Y0040274D01*
X0647099Y0056244D02*
X0589567Y0056244D01*
X0588333Y0058333D02*
X0648333Y0058333D01*
X0646913Y0060237D02*
X0589753Y0060237D01*
X0575233Y0066625D02*
X0611719Y0066625D01*
X0610983Y0067423D02*
X0575233Y0067423D01*
X0575233Y0068222D02*
X0610983Y0068222D01*
X0610983Y0069020D02*
X0575233Y0069020D01*
X0575233Y0069819D02*
X0611495Y0069819D01*
X0612294Y0070617D02*
X0575233Y0070617D01*
X0613333Y0068333D02*
X0628333Y0068333D01*
X0626719Y0066625D02*
X0614948Y0066625D01*
X0615171Y0069819D02*
X0626495Y0069819D01*
X0627294Y0070617D02*
X0614373Y0070617D01*
X0531933Y0065826D02*
X0467820Y0065826D01*
X0467022Y0066625D02*
X0521719Y0066625D01*
X0521704Y0065028D02*
X0468619Y0065028D01*
X0468333Y0063333D02*
X0428333Y0103333D01*
X0425983Y0103356D02*
X0420683Y0103356D01*
X0420683Y0104155D02*
X0425983Y0104155D01*
X0426630Y0104953D02*
X0420037Y0104953D01*
X0421089Y0102558D02*
X0425983Y0102558D01*
X0426584Y0101759D02*
X0421887Y0101759D01*
X0422686Y0100961D02*
X0428726Y0100961D01*
X0429525Y0100162D02*
X0423484Y0100162D01*
X0424283Y0099364D02*
X0430323Y0099364D01*
X0431122Y0098565D02*
X0425081Y0098565D01*
X0425880Y0097767D02*
X0431920Y0097767D01*
X0432719Y0096968D02*
X0426678Y0096968D01*
X0427477Y0096170D02*
X0433517Y0096170D01*
X0434316Y0095371D02*
X0428275Y0095371D01*
X0429074Y0094573D02*
X0435114Y0094573D01*
X0435913Y0093774D02*
X0429873Y0093774D01*
X0430671Y0092976D02*
X0436711Y0092976D01*
X0437510Y0092177D02*
X0431470Y0092177D01*
X0432268Y0091379D02*
X0438308Y0091379D01*
X0439107Y0090580D02*
X0433067Y0090580D01*
X0433865Y0089781D02*
X0439905Y0089781D01*
X0440704Y0088983D02*
X0434664Y0088983D01*
X0435462Y0088184D02*
X0441502Y0088184D01*
X0442301Y0087386D02*
X0436261Y0087386D01*
X0437059Y0086587D02*
X0443099Y0086587D01*
X0443898Y0085789D02*
X0437858Y0085789D01*
X0438656Y0084990D02*
X0444696Y0084990D01*
X0445495Y0084192D02*
X0439455Y0084192D01*
X0440253Y0083393D02*
X0446293Y0083393D01*
X0447092Y0082595D02*
X0441052Y0082595D01*
X0441850Y0081796D02*
X0447890Y0081796D01*
X0448689Y0080998D02*
X0442649Y0080998D01*
X0443447Y0080199D02*
X0449487Y0080199D01*
X0450286Y0079401D02*
X0444246Y0079401D01*
X0445044Y0078602D02*
X0451084Y0078602D01*
X0451883Y0077804D02*
X0445843Y0077804D01*
X0446641Y0077005D02*
X0452681Y0077005D01*
X0453480Y0076207D02*
X0447440Y0076207D01*
X0448238Y0075408D02*
X0454278Y0075408D01*
X0455077Y0074610D02*
X0449037Y0074610D01*
X0449835Y0073811D02*
X0455875Y0073811D01*
X0456674Y0073013D02*
X0450634Y0073013D01*
X0451432Y0072214D02*
X0457473Y0072214D01*
X0458271Y0071416D02*
X0452231Y0071416D01*
X0453029Y0070617D02*
X0459070Y0070617D01*
X0459868Y0069819D02*
X0453828Y0069819D01*
X0454626Y0069020D02*
X0460667Y0069020D01*
X0461465Y0068222D02*
X0455425Y0068222D01*
X0456223Y0067423D02*
X0462264Y0067423D01*
X0463062Y0066625D02*
X0457022Y0066625D01*
X0457820Y0065826D02*
X0463861Y0065826D01*
X0464659Y0065028D02*
X0458619Y0065028D01*
X0459417Y0064229D02*
X0465458Y0064229D01*
X0466256Y0063431D02*
X0460216Y0063431D01*
X0461014Y0062632D02*
X0467055Y0062632D01*
X0468333Y0063333D02*
X0523333Y0063333D01*
X0521510Y0061834D02*
X0461813Y0061834D01*
X0462611Y0061035D02*
X0522308Y0061035D01*
X0521913Y0060237D02*
X0463410Y0060237D01*
X0461047Y0058640D02*
X0460007Y0058640D01*
X0460249Y0059438D02*
X0459208Y0059438D01*
X0459450Y0060237D02*
X0458410Y0060237D01*
X0458652Y0061035D02*
X0457611Y0061035D01*
X0457853Y0061834D02*
X0456813Y0061834D01*
X0457055Y0062632D02*
X0456014Y0062632D01*
X0456256Y0063431D02*
X0455216Y0063431D01*
X0455458Y0064229D02*
X0454417Y0064229D01*
X0454659Y0065028D02*
X0453619Y0065028D01*
X0453861Y0065826D02*
X0452820Y0065826D01*
X0453062Y0066625D02*
X0452022Y0066625D01*
X0452264Y0067423D02*
X0451223Y0067423D01*
X0451465Y0068222D02*
X0450425Y0068222D01*
X0450667Y0069020D02*
X0449626Y0069020D01*
X0449868Y0069819D02*
X0448828Y0069819D01*
X0449070Y0070617D02*
X0448029Y0070617D01*
X0448271Y0071416D02*
X0447231Y0071416D01*
X0447473Y0072214D02*
X0446432Y0072214D01*
X0446674Y0073013D02*
X0445634Y0073013D01*
X0445875Y0073811D02*
X0444835Y0073811D01*
X0445077Y0074610D02*
X0444037Y0074610D01*
X0444278Y0075408D02*
X0443238Y0075408D01*
X0443480Y0076207D02*
X0442440Y0076207D01*
X0442681Y0077005D02*
X0441641Y0077005D01*
X0441883Y0077804D02*
X0440843Y0077804D01*
X0441084Y0078602D02*
X0440044Y0078602D01*
X0440286Y0079401D02*
X0439246Y0079401D01*
X0439487Y0080199D02*
X0438447Y0080199D01*
X0438689Y0080998D02*
X0437649Y0080998D01*
X0437890Y0081796D02*
X0436850Y0081796D01*
X0437092Y0082595D02*
X0436052Y0082595D01*
X0436293Y0083393D02*
X0435253Y0083393D01*
X0435495Y0084192D02*
X0434455Y0084192D01*
X0434696Y0084990D02*
X0433656Y0084990D01*
X0433898Y0085789D02*
X0432858Y0085789D01*
X0433099Y0086587D02*
X0432059Y0086587D01*
X0432301Y0087386D02*
X0431261Y0087386D01*
X0431502Y0088184D02*
X0430462Y0088184D01*
X0430704Y0088983D02*
X0429664Y0088983D01*
X0429905Y0089781D02*
X0428865Y0089781D01*
X0429107Y0090580D02*
X0428067Y0090580D01*
X0428308Y0091379D02*
X0427268Y0091379D01*
X0427510Y0092177D02*
X0426470Y0092177D01*
X0426711Y0092976D02*
X0425671Y0092976D01*
X0425913Y0093774D02*
X0424873Y0093774D01*
X0425114Y0094573D02*
X0424074Y0094573D01*
X0424316Y0095371D02*
X0423275Y0095371D01*
X0423517Y0096170D02*
X0422477Y0096170D01*
X0422719Y0096968D02*
X0421678Y0096968D01*
X0421920Y0097767D02*
X0420880Y0097767D01*
X0421122Y0098565D02*
X0420081Y0098565D01*
X0420323Y0099364D02*
X0419283Y0099364D01*
X0419525Y0100162D02*
X0418484Y0100162D01*
X0418726Y0100961D02*
X0417686Y0100961D01*
X0415323Y0099364D02*
X0399354Y0099364D01*
X0399354Y0100162D02*
X0414525Y0100162D01*
X0413726Y0100961D02*
X0399354Y0100961D01*
X0399354Y0101759D02*
X0411584Y0101759D01*
X0410983Y0102558D02*
X0399355Y0102558D01*
X0399355Y0103356D02*
X0410983Y0103356D01*
X0410983Y0104155D02*
X0399355Y0104155D01*
X0399355Y0104953D02*
X0411630Y0104953D01*
X0416122Y0098565D02*
X0399354Y0098565D01*
X0399353Y0097767D02*
X0416920Y0097767D01*
X0417719Y0096968D02*
X0399353Y0096968D01*
X0399353Y0096170D02*
X0418517Y0096170D01*
X0419316Y0095371D02*
X0399353Y0095371D01*
X0399353Y0094573D02*
X0420114Y0094573D01*
X0420913Y0093774D02*
X0399353Y0093774D01*
X0399352Y0092976D02*
X0421711Y0092976D01*
X0422510Y0092177D02*
X0399352Y0092177D01*
X0399352Y0091379D02*
X0423308Y0091379D01*
X0424107Y0090580D02*
X0399352Y0090580D01*
X0399352Y0089781D02*
X0424905Y0089781D01*
X0425704Y0088983D02*
X0399351Y0088983D01*
X0399351Y0088184D02*
X0426502Y0088184D01*
X0427301Y0087386D02*
X0399351Y0087386D01*
X0399351Y0086587D02*
X0428099Y0086587D01*
X0428898Y0085789D02*
X0399351Y0085789D01*
X0399351Y0084990D02*
X0429696Y0084990D01*
X0430495Y0084192D02*
X0399350Y0084192D01*
X0399350Y0083393D02*
X0431293Y0083393D01*
X0432092Y0082595D02*
X0399350Y0082595D01*
X0399350Y0081796D02*
X0432890Y0081796D01*
X0433689Y0080998D02*
X0399350Y0080998D01*
X0399349Y0080199D02*
X0434487Y0080199D01*
X0435286Y0079401D02*
X0399349Y0079401D01*
X0399349Y0078602D02*
X0436084Y0078602D01*
X0436883Y0077804D02*
X0399349Y0077804D01*
X0399349Y0077005D02*
X0437681Y0077005D01*
X0438480Y0076207D02*
X0399349Y0076207D01*
X0399348Y0075408D02*
X0439278Y0075408D01*
X0440077Y0074610D02*
X0399348Y0074610D01*
X0399348Y0073811D02*
X0440875Y0073811D01*
X0441674Y0073013D02*
X0399348Y0073013D01*
X0399348Y0072214D02*
X0442473Y0072214D01*
X0443271Y0071416D02*
X0399347Y0071416D01*
X0399347Y0070617D02*
X0444070Y0070617D01*
X0444868Y0069819D02*
X0399347Y0069819D01*
X0399347Y0069020D02*
X0445667Y0069020D01*
X0446465Y0068222D02*
X0399347Y0068222D01*
X0399347Y0067423D02*
X0447264Y0067423D01*
X0448062Y0066625D02*
X0399346Y0066625D01*
X0399346Y0065826D02*
X0448861Y0065826D01*
X0449659Y0065028D02*
X0399346Y0065028D01*
X0399346Y0064229D02*
X0450458Y0064229D01*
X0451256Y0063431D02*
X0399346Y0063431D01*
X0399346Y0062632D02*
X0452055Y0062632D01*
X0452853Y0061834D02*
X0399345Y0061834D01*
X0399345Y0061035D02*
X0453652Y0061035D01*
X0454450Y0060237D02*
X0399345Y0060237D01*
X0399345Y0059438D02*
X0455249Y0059438D01*
X0456047Y0058640D02*
X0399345Y0058640D01*
X0399344Y0057841D02*
X0456846Y0057841D01*
X0457644Y0057043D02*
X0399344Y0057043D01*
X0399344Y0056244D02*
X0458443Y0056244D01*
X0459241Y0055445D02*
X0399344Y0055445D01*
X0399344Y0054647D02*
X0460040Y0054647D01*
X0460838Y0053848D02*
X0399344Y0053848D01*
X0399343Y0053050D02*
X0461637Y0053050D01*
X0462435Y0052251D02*
X0399343Y0052251D01*
X0460806Y0057841D02*
X0461846Y0057841D01*
X0461604Y0057043D02*
X0462644Y0057043D01*
X0466223Y0067423D02*
X0467264Y0067423D01*
X0466465Y0068222D02*
X0465425Y0068222D01*
X0465667Y0069020D02*
X0464626Y0069020D01*
X0464868Y0069819D02*
X0463828Y0069819D01*
X0464070Y0070617D02*
X0463029Y0070617D01*
X0463271Y0071416D02*
X0462231Y0071416D01*
X0462473Y0072214D02*
X0461432Y0072214D01*
X0461674Y0073013D02*
X0460634Y0073013D01*
X0460875Y0073811D02*
X0459835Y0073811D01*
X0460077Y0074610D02*
X0459037Y0074610D01*
X0459278Y0075408D02*
X0458238Y0075408D01*
X0458480Y0076207D02*
X0457440Y0076207D01*
X0457681Y0077005D02*
X0456641Y0077005D01*
X0456883Y0077804D02*
X0455843Y0077804D01*
X0456084Y0078602D02*
X0455044Y0078602D01*
X0455286Y0079401D02*
X0454246Y0079401D01*
X0454487Y0080199D02*
X0453447Y0080199D01*
X0453689Y0080998D02*
X0452649Y0080998D01*
X0452890Y0081796D02*
X0451850Y0081796D01*
X0452092Y0082595D02*
X0451052Y0082595D01*
X0451293Y0083393D02*
X0450253Y0083393D01*
X0450495Y0084192D02*
X0449455Y0084192D01*
X0449696Y0084990D02*
X0448656Y0084990D01*
X0448898Y0085789D02*
X0447858Y0085789D01*
X0448099Y0086587D02*
X0447059Y0086587D01*
X0447301Y0087386D02*
X0446261Y0087386D01*
X0446502Y0088184D02*
X0445462Y0088184D01*
X0445704Y0088983D02*
X0444664Y0088983D01*
X0444905Y0089781D02*
X0443865Y0089781D01*
X0444107Y0090580D02*
X0443067Y0090580D01*
X0443308Y0091379D02*
X0442268Y0091379D01*
X0442510Y0092177D02*
X0441470Y0092177D01*
X0441711Y0092976D02*
X0440671Y0092976D01*
X0440913Y0093774D02*
X0439873Y0093774D01*
X0440114Y0094573D02*
X0439074Y0094573D01*
X0439316Y0095371D02*
X0438275Y0095371D01*
X0438517Y0096170D02*
X0437477Y0096170D01*
X0437719Y0096968D02*
X0436678Y0096968D01*
X0436920Y0097767D02*
X0435880Y0097767D01*
X0436122Y0098565D02*
X0435081Y0098565D01*
X0435323Y0099364D02*
X0434283Y0099364D01*
X0434525Y0100162D02*
X0433484Y0100162D01*
X0433726Y0100961D02*
X0432686Y0100961D01*
X0433333Y0103333D02*
X0468333Y0068333D01*
X0523333Y0068333D01*
X0521495Y0069819D02*
X0468828Y0069819D01*
X0468029Y0070617D02*
X0522294Y0070617D01*
X0521928Y0071416D02*
X0467231Y0071416D01*
X0466432Y0072214D02*
X0472473Y0072214D01*
X0471674Y0073013D02*
X0465634Y0073013D01*
X0464835Y0073811D02*
X0470875Y0073811D01*
X0470077Y0074610D02*
X0464037Y0074610D01*
X0463238Y0075408D02*
X0469278Y0075408D01*
X0468480Y0076207D02*
X0462440Y0076207D01*
X0461641Y0077005D02*
X0467681Y0077005D01*
X0466883Y0077804D02*
X0460843Y0077804D01*
X0460044Y0078602D02*
X0466084Y0078602D01*
X0465286Y0079401D02*
X0459246Y0079401D01*
X0458447Y0080199D02*
X0464487Y0080199D01*
X0463689Y0080998D02*
X0457649Y0080998D01*
X0456850Y0081796D02*
X0462890Y0081796D01*
X0462092Y0082595D02*
X0456052Y0082595D01*
X0455253Y0083393D02*
X0461293Y0083393D01*
X0460495Y0084192D02*
X0454455Y0084192D01*
X0453656Y0084990D02*
X0459696Y0084990D01*
X0458898Y0085789D02*
X0452858Y0085789D01*
X0452059Y0086587D02*
X0458099Y0086587D01*
X0457301Y0087386D02*
X0451261Y0087386D01*
X0450462Y0088184D02*
X0456502Y0088184D01*
X0455704Y0088983D02*
X0449664Y0088983D01*
X0448865Y0089781D02*
X0454905Y0089781D01*
X0454107Y0090580D02*
X0448067Y0090580D01*
X0447268Y0091379D02*
X0453308Y0091379D01*
X0452510Y0092177D02*
X0446470Y0092177D01*
X0445671Y0092976D02*
X0451711Y0092976D01*
X0450913Y0093774D02*
X0444873Y0093774D01*
X0444074Y0094573D02*
X0450114Y0094573D01*
X0449316Y0095371D02*
X0443275Y0095371D01*
X0442477Y0096170D02*
X0448517Y0096170D01*
X0447719Y0096968D02*
X0441678Y0096968D01*
X0440880Y0097767D02*
X0446920Y0097767D01*
X0446122Y0098565D02*
X0440081Y0098565D01*
X0439283Y0099364D02*
X0445323Y0099364D01*
X0444525Y0100162D02*
X0438484Y0100162D01*
X0437686Y0100961D02*
X0443726Y0100961D01*
X0441584Y0101759D02*
X0436887Y0101759D01*
X0436089Y0102558D02*
X0440983Y0102558D01*
X0440983Y0103356D02*
X0435683Y0103356D01*
X0435683Y0104155D02*
X0440983Y0104155D01*
X0441630Y0104953D02*
X0435037Y0104953D01*
X0431630Y0104953D02*
X0430037Y0104953D01*
X0430683Y0104155D02*
X0430983Y0104155D01*
X0430983Y0103356D02*
X0430683Y0103356D01*
X0443333Y0103333D02*
X0473333Y0073333D01*
X0523333Y0073333D01*
X0522085Y0075408D02*
X0473238Y0075408D01*
X0472440Y0076207D02*
X0522136Y0076207D01*
X0523333Y0078333D02*
X0473333Y0078333D01*
X0448333Y0103333D01*
X0445983Y0103356D02*
X0445683Y0103356D01*
X0445683Y0104155D02*
X0445983Y0104155D01*
X0446630Y0104953D02*
X0445037Y0104953D01*
X0450037Y0104953D02*
X0456630Y0104953D01*
X0455983Y0104155D02*
X0450683Y0104155D01*
X0450683Y0103356D02*
X0455983Y0103356D01*
X0455983Y0102558D02*
X0451089Y0102558D01*
X0451887Y0101759D02*
X0456584Y0101759D01*
X0458726Y0100961D02*
X0452686Y0100961D01*
X0453484Y0100162D02*
X0459525Y0100162D01*
X0460323Y0099364D02*
X0454283Y0099364D01*
X0455081Y0098565D02*
X0461122Y0098565D01*
X0461920Y0097767D02*
X0455880Y0097767D01*
X0456678Y0096968D02*
X0462719Y0096968D01*
X0463517Y0096170D02*
X0457477Y0096170D01*
X0458275Y0095371D02*
X0464316Y0095371D01*
X0465114Y0094573D02*
X0459074Y0094573D01*
X0459873Y0093774D02*
X0465913Y0093774D01*
X0466711Y0092976D02*
X0460671Y0092976D01*
X0461470Y0092177D02*
X0467510Y0092177D01*
X0468308Y0091379D02*
X0462268Y0091379D01*
X0463067Y0090580D02*
X0469107Y0090580D01*
X0469905Y0089781D02*
X0463865Y0089781D01*
X0464664Y0088983D02*
X0470704Y0088983D01*
X0471502Y0088184D02*
X0465462Y0088184D01*
X0466261Y0087386D02*
X0472301Y0087386D01*
X0473099Y0086587D02*
X0467059Y0086587D01*
X0467858Y0085789D02*
X0473898Y0085789D01*
X0474696Y0084990D02*
X0468656Y0084990D01*
X0469455Y0084192D02*
X0475495Y0084192D01*
X0476293Y0083393D02*
X0470253Y0083393D01*
X0471052Y0082595D02*
X0477092Y0082595D01*
X0478333Y0083333D02*
X0523333Y0083333D01*
X0521547Y0081796D02*
X0471850Y0081796D01*
X0472649Y0080998D02*
X0522345Y0080998D01*
X0521876Y0080199D02*
X0473447Y0080199D01*
X0471084Y0078602D02*
X0470044Y0078602D01*
X0470286Y0079401D02*
X0469246Y0079401D01*
X0469487Y0080199D02*
X0468447Y0080199D01*
X0468689Y0080998D02*
X0467649Y0080998D01*
X0467890Y0081796D02*
X0466850Y0081796D01*
X0467092Y0082595D02*
X0466052Y0082595D01*
X0466293Y0083393D02*
X0465253Y0083393D01*
X0465495Y0084192D02*
X0464455Y0084192D01*
X0464696Y0084990D02*
X0463656Y0084990D01*
X0463898Y0085789D02*
X0462858Y0085789D01*
X0463099Y0086587D02*
X0462059Y0086587D01*
X0462301Y0087386D02*
X0461261Y0087386D01*
X0461502Y0088184D02*
X0460462Y0088184D01*
X0460704Y0088983D02*
X0459664Y0088983D01*
X0459905Y0089781D02*
X0458865Y0089781D01*
X0459107Y0090580D02*
X0458067Y0090580D01*
X0458308Y0091379D02*
X0457268Y0091379D01*
X0457510Y0092177D02*
X0456470Y0092177D01*
X0456711Y0092976D02*
X0455671Y0092976D01*
X0455913Y0093774D02*
X0454873Y0093774D01*
X0455114Y0094573D02*
X0454074Y0094573D01*
X0454316Y0095371D02*
X0453275Y0095371D01*
X0453517Y0096170D02*
X0452477Y0096170D01*
X0452719Y0096968D02*
X0451678Y0096968D01*
X0451920Y0097767D02*
X0450880Y0097767D01*
X0451122Y0098565D02*
X0450081Y0098565D01*
X0450323Y0099364D02*
X0449283Y0099364D01*
X0449525Y0100162D02*
X0448484Y0100162D01*
X0448726Y0100961D02*
X0447686Y0100961D01*
X0458333Y0103333D02*
X0478333Y0083333D01*
X0478865Y0089781D02*
X0521458Y0089781D01*
X0522257Y0090580D02*
X0478067Y0090580D01*
X0471133Y0097767D02*
X0470880Y0097767D01*
X0471133Y0098565D02*
X0470081Y0098565D01*
X0469283Y0099364D02*
X0471252Y0099364D01*
X0472051Y0100162D02*
X0468484Y0100162D01*
X0460983Y0103356D02*
X0460683Y0103356D01*
X0460683Y0104155D02*
X0460983Y0104155D01*
X0461630Y0104953D02*
X0460037Y0104953D01*
X0530463Y0112140D02*
X0531933Y0112140D01*
X0531933Y0112938D02*
X0531262Y0112938D01*
X0531683Y0113737D02*
X0531933Y0113737D01*
X0531933Y0114535D02*
X0531683Y0114535D01*
X0531656Y0115334D02*
X0531933Y0115334D01*
X0531933Y0116132D02*
X0530858Y0116132D01*
X0471883Y0077804D02*
X0470843Y0077804D01*
X0471641Y0077005D02*
X0472681Y0077005D01*
X0499811Y0034684D02*
X0857333Y0034684D01*
X0857333Y0033886D02*
X0500609Y0033886D01*
X0501408Y0033087D02*
X0857333Y0033087D01*
X0857333Y0032289D02*
X0502206Y0032289D01*
X0502383Y0031490D02*
X0857333Y0031490D01*
X0857333Y0030692D02*
X0502383Y0030692D01*
X0507617Y0022707D02*
X0531609Y0022707D01*
X0530261Y0021908D02*
X0508415Y0021908D01*
X0509214Y0021110D02*
X0529463Y0021110D01*
X0680911Y0013923D02*
X0686699Y0013923D01*
X0685298Y0014721D02*
X0681934Y0014721D01*
X0682593Y0015520D02*
X0684500Y0015520D01*
X0684081Y0016318D02*
X0683031Y0016318D01*
X0683301Y0017117D02*
X0683750Y0017117D01*
X0683633Y0017915D02*
X0683431Y0017915D01*
X0689967Y0013923D02*
X0696699Y0013923D01*
X0695298Y0014721D02*
X0691368Y0014721D01*
X0799967Y0013923D02*
X0806699Y0013923D01*
X0807398Y0013633D02*
X0809268Y0013633D01*
X0810996Y0014349D01*
X0812318Y0015671D01*
X0813033Y0017398D01*
X0813033Y0019268D01*
X0812318Y0020996D01*
X0810996Y0022318D01*
X0809268Y0023033D01*
X0807398Y0023033D01*
X0805671Y0022318D01*
X0804349Y0020996D01*
X0803633Y0019268D01*
X0803633Y0017398D01*
X0804349Y0015671D01*
X0805671Y0014349D01*
X0807398Y0013633D01*
X0805298Y0014721D02*
X0801368Y0014721D01*
X0802167Y0015520D02*
X0804500Y0015520D01*
X0804081Y0016318D02*
X0802586Y0016318D01*
X0802917Y0017117D02*
X0803750Y0017117D01*
X0803633Y0017915D02*
X0803033Y0017915D01*
X0803033Y0018714D02*
X0803633Y0018714D01*
X0803735Y0019512D02*
X0802932Y0019512D01*
X0802601Y0020311D02*
X0804065Y0020311D01*
X0804463Y0021110D02*
X0802204Y0021110D01*
X0801405Y0021908D02*
X0805261Y0021908D01*
X0806609Y0022707D02*
X0800057Y0022707D01*
X0810057Y0022707D02*
X0816609Y0022707D01*
X0817398Y0023033D02*
X0815671Y0022318D01*
X0814349Y0020996D01*
X0813633Y0019268D01*
X0813633Y0017398D01*
X0814349Y0015671D01*
X0815671Y0014349D01*
X0817398Y0013633D01*
X0819268Y0013633D01*
X0820996Y0014349D01*
X0822318Y0015671D01*
X0823033Y0017398D01*
X0823033Y0019268D01*
X0822318Y0020996D01*
X0820996Y0022318D01*
X0819268Y0023033D01*
X0817398Y0023033D01*
X0815261Y0021908D02*
X0811405Y0021908D01*
X0812204Y0021110D02*
X0814463Y0021110D01*
X0814065Y0020311D02*
X0812601Y0020311D01*
X0812932Y0019512D02*
X0813735Y0019512D01*
X0813633Y0018714D02*
X0813033Y0018714D01*
X0813033Y0017915D02*
X0813633Y0017915D01*
X0813750Y0017117D02*
X0812917Y0017117D01*
X0812586Y0016318D02*
X0814081Y0016318D01*
X0814500Y0015520D02*
X0812167Y0015520D01*
X0811368Y0014721D02*
X0815298Y0014721D01*
X0816699Y0013923D02*
X0809967Y0013923D01*
X0819967Y0013923D02*
X0825756Y0013923D01*
X0825660Y0013971D02*
X0826376Y0013607D01*
X0827139Y0013359D01*
X0827932Y0013233D01*
X0827933Y0013233D01*
X0827933Y0017933D01*
X0823233Y0017933D01*
X0823233Y0017932D01*
X0823359Y0017139D01*
X0823607Y0016376D01*
X0823971Y0015660D01*
X0824443Y0015011D01*
X0825011Y0014443D01*
X0825660Y0013971D01*
X0824733Y0014721D02*
X0821368Y0014721D01*
X0822167Y0015520D02*
X0824073Y0015520D01*
X0823636Y0016318D02*
X0822586Y0016318D01*
X0822917Y0017117D02*
X0823366Y0017117D01*
X0823236Y0017915D02*
X0823033Y0017915D01*
X0823033Y0018714D02*
X0827933Y0018714D01*
X0827933Y0018733D02*
X0827933Y0017933D01*
X0828733Y0017933D01*
X0828733Y0013233D01*
X0828735Y0013233D01*
X0829528Y0013359D01*
X0830291Y0013607D01*
X0831006Y0013971D01*
X0831656Y0014443D01*
X0832223Y0015011D01*
X0832695Y0015660D01*
X0833060Y0016376D01*
X0833308Y0017139D01*
X0833433Y0017932D01*
X0833433Y0017933D01*
X0828733Y0017933D01*
X0828733Y0018733D01*
X0827933Y0018733D01*
X0823233Y0018733D01*
X0823233Y0018735D01*
X0823359Y0019528D01*
X0823607Y0020291D01*
X0823971Y0021006D01*
X0824443Y0021656D01*
X0825011Y0022223D01*
X0825660Y0022695D01*
X0826376Y0023060D01*
X0827139Y0023308D01*
X0827932Y0023433D01*
X0827933Y0023433D01*
X0827933Y0018733D01*
X0827933Y0019512D02*
X0828733Y0019512D01*
X0828733Y0018733D02*
X0828733Y0023433D01*
X0828735Y0023433D01*
X0829528Y0023308D01*
X0830291Y0023060D01*
X0831006Y0022695D01*
X0831656Y0022223D01*
X0832223Y0021656D01*
X0832695Y0021006D01*
X0833060Y0020291D01*
X0833308Y0019528D01*
X0833433Y0018735D01*
X0833433Y0018733D01*
X0828733Y0018733D01*
X0828733Y0018714D02*
X0833633Y0018714D01*
X0833633Y0019268D02*
X0833633Y0017398D01*
X0834349Y0015671D01*
X0835671Y0014349D01*
X0837398Y0013633D01*
X0839268Y0013633D01*
X0840996Y0014349D01*
X0842318Y0015671D01*
X0843033Y0017398D01*
X0843033Y0019268D01*
X0842318Y0020996D01*
X0840996Y0022318D01*
X0839268Y0023033D01*
X0837398Y0023033D01*
X0835671Y0022318D01*
X0834349Y0020996D01*
X0833633Y0019268D01*
X0833735Y0019512D02*
X0833310Y0019512D01*
X0833050Y0020311D02*
X0834065Y0020311D01*
X0834463Y0021110D02*
X0832620Y0021110D01*
X0831971Y0021908D02*
X0835261Y0021908D01*
X0836609Y0022707D02*
X0830984Y0022707D01*
X0828733Y0022707D02*
X0827933Y0022707D01*
X0827933Y0021908D02*
X0828733Y0021908D01*
X0828733Y0021110D02*
X0827933Y0021110D01*
X0827933Y0020311D02*
X0828733Y0020311D01*
X0828733Y0017915D02*
X0827933Y0017915D01*
X0827933Y0017117D02*
X0828733Y0017117D01*
X0828733Y0016318D02*
X0827933Y0016318D01*
X0827933Y0015520D02*
X0828733Y0015520D01*
X0828733Y0014721D02*
X0827933Y0014721D01*
X0827933Y0013923D02*
X0828733Y0013923D01*
X0830911Y0013923D02*
X0836699Y0013923D01*
X0835298Y0014721D02*
X0831934Y0014721D01*
X0832593Y0015520D02*
X0834500Y0015520D01*
X0834081Y0016318D02*
X0833031Y0016318D01*
X0833301Y0017117D02*
X0833750Y0017117D01*
X0833633Y0017915D02*
X0833431Y0017915D01*
X0842167Y0015520D02*
X0844500Y0015520D01*
X0844081Y0016318D02*
X0842586Y0016318D01*
X0842917Y0017117D02*
X0843750Y0017117D01*
X0843633Y0017915D02*
X0843033Y0017915D01*
X0843033Y0018714D02*
X0843633Y0018714D01*
X0843735Y0019512D02*
X0842932Y0019512D01*
X0842601Y0020311D02*
X0844065Y0020311D01*
X0844463Y0021110D02*
X0842204Y0021110D01*
X0841405Y0021908D02*
X0845261Y0021908D01*
X0846609Y0022707D02*
X0840057Y0022707D01*
X0825683Y0022707D02*
X0820057Y0022707D01*
X0821405Y0021908D02*
X0824696Y0021908D01*
X0824046Y0021110D02*
X0822204Y0021110D01*
X0822601Y0020311D02*
X0823617Y0020311D01*
X0823357Y0019512D02*
X0822932Y0019512D01*
X0839967Y0013923D02*
X0846699Y0013923D01*
X0845298Y0014721D02*
X0841368Y0014721D01*
X0857333Y0037080D02*
X0820403Y0037080D01*
X0820683Y0037878D02*
X0857333Y0037878D01*
X0757211Y0116132D02*
X0739456Y0116132D01*
X0780333Y0116931D02*
X0796412Y0116931D01*
X0795983Y0117729D02*
X0780558Y0117729D01*
X0781356Y0118528D02*
X0795983Y0118528D01*
X0796003Y0119326D02*
X0782155Y0119326D01*
X0782953Y0120125D02*
X0796802Y0120125D01*
X0697114Y0171230D02*
X0609553Y0171230D01*
X0607114Y0171230D02*
X0585333Y0171230D01*
X0585352Y0172028D02*
X0606315Y0172028D01*
X0605983Y0172827D02*
X0585683Y0172827D01*
X0585683Y0173625D02*
X0605983Y0173625D01*
X0606100Y0174424D02*
X0585566Y0174424D01*
X0584768Y0175222D02*
X0606899Y0175222D01*
X0594894Y0176021D02*
X0726773Y0176021D01*
X0728333Y0177783D02*
X0593333Y0177783D01*
X0591773Y0176021D02*
X0399371Y0176021D01*
X0399371Y0176819D02*
X0590983Y0176819D01*
X0590983Y0177618D02*
X0399371Y0177618D01*
X0399372Y0178416D02*
X0590983Y0178416D01*
X0591441Y0179215D02*
X0399372Y0179215D01*
X0399372Y0180013D02*
X0592240Y0180013D01*
X0594427Y0180013D02*
X0727240Y0180013D01*
X0726441Y0179215D02*
X0595225Y0179215D01*
X0407249Y0170431D02*
X0399370Y0170431D01*
X0399370Y0169633D02*
X0406451Y0169633D01*
X0406083Y0168834D02*
X0399369Y0168834D01*
X0399369Y0168036D02*
X0406083Y0168036D01*
X0406248Y0167237D02*
X0399369Y0167237D01*
X0399369Y0166439D02*
X0407046Y0166439D01*
D14*
X0483333Y0173333D02*
X0483333Y0103333D01*
X0493333Y0098333D02*
X0493333Y0138333D01*
X0583333Y0153333D02*
X0583333Y0173333D01*
X0608333Y0173333D02*
X0698333Y0173333D01*
X0688333Y0163333D02*
X0783333Y0163333D01*
X0808333Y0148333D02*
X0778333Y0118333D01*
X0778333Y0108333D01*
X0758333Y0118333D02*
X0738333Y0118333D01*
X0798333Y0118333D02*
X0814833Y0118333D01*
X0823333Y0126833D01*
X0748333Y0143333D02*
X0738333Y0143333D01*
X0698333Y0143333D01*
X0688333Y0153333D02*
X0633333Y0153333D01*
X0613333Y0083333D02*
X0603333Y0083333D01*
X0598333Y0078333D01*
X0733333Y0078333D02*
X0753333Y0078333D01*
X0758333Y0073333D01*
X0778333Y0073333D01*
X0808333Y0073333D01*
X0818333Y0063333D01*
X0838333Y0058333D02*
X0838333Y0073333D01*
X0843333Y0078333D01*
X0698333Y0028333D02*
X0503333Y0028333D01*
X0500383Y0027111D02*
X0509161Y0018333D01*
X0533333Y0018333D01*
X0500383Y0027111D02*
X0500383Y0031283D01*
X0488333Y0043333D01*
D15*
X0468333Y0043333D03*
X0453333Y0043333D03*
X0438333Y0043333D03*
X0423333Y0043333D03*
X0428333Y0098333D03*
X0413333Y0098333D03*
X0443333Y0098333D03*
X0458333Y0098333D03*
X0473333Y0098333D03*
X0473333Y0113333D03*
X0458333Y0113333D03*
X0443333Y0113333D03*
X0428333Y0113333D03*
X0418333Y0113333D03*
M02*
