%
M48
M72
T01C0.0120
T02C0.0150
T03C0.0354
T04C0.0400
%
T01
X42333Y4333
X43833Y4333
X45333Y4333
X46833Y4333
X47333Y9833
X45833Y9833
X44333Y9833
X42833Y9833
X41333Y9833
X41833Y11333
X42833Y11333
X44333Y11333
X45833Y11333
X47333Y11333
T02
X40633Y1583
X40633Y2683
X40633Y3533
X40633Y4433
X48833Y4333
X51883Y4633
X53783Y5283
X52033Y5533
X52333Y5833
X51933Y6083
X52333Y6333
X52033Y6583
X52333Y6833
X52683Y7083
X52333Y7333
X52833Y7583
X52333Y7833
X52883Y8083
X52333Y8333
X52883Y8583
X52333Y8833
X53033Y9133
X52433Y9733
X49333Y9833
X48333Y10333
X46333Y10333
X45833Y10333
X44833Y10333
X44333Y10333
X43333Y10333
X42833Y10333
X41833Y10333
X41333Y10333
X49233Y11583
X50583Y11933
X52933Y11433
X54333Y10833
X55333Y10833
X55833Y10833
X55833Y10333
X56733Y10333
X57783Y10333
X58333Y10333
X58333Y9833
X59683Y9833
X59683Y10933
X58333Y11333
X59783Y11783
X58333Y11833
X55333Y11333
X53833Y12833
X54833Y13483
X53333Y13833
X56383Y13483
X57383Y13633
X56833Y12833
X63883Y13833
X67783Y13783
X69833Y14333
X73833Y14333
X74833Y14333
X76333Y13833
X76333Y13333
X80933Y12583
X82333Y12683
X81833Y13233
X85133Y13283
X81833Y14183
X80833Y14833
X81383Y15233
X78333Y14883
X77833Y15333
X78333Y16333
X79933Y17283
X82783Y17283
X84833Y16633
X72833Y17778
X69833Y17333
X68833Y16333
X66883Y16433
X64033Y16333
X61483Y16383
X57833Y16833
X58333Y17333
X59333Y17778
X60833Y17333
X55833Y15833
X55833Y15333
X58333Y15333
X63333Y15333
X68833Y15333
X72833Y15333
X71283Y12933
X66833Y12333
X63833Y11333
X65283Y10883
X71233Y9683
X67783Y9383
X65833Y9333
X61333Y8333
X59833Y7833
X59583Y7333
X57983Y7083
X56833Y7233
X55083Y6733
X58833Y5833
X61233Y6283
X62383Y6283
X63283Y6333
X62833Y6833
X61333Y6833
X64833Y5833
X67783Y5483
X71183Y5583
X74333Y4333
X73833Y3833
X76333Y3833
X80833Y4833
X83833Y5833
X81833Y6333
X77833Y7333
X75833Y7333
X73333Y7833
X80233Y10333
X77833Y10833
X77083Y11133
X75833Y11833
X73833Y11833
X73783Y10983
X79833Y11833
X85183Y10083
X84333Y7833
X81833Y3833
X77683Y2433
X72783Y2533
X69833Y2833
X64833Y3833
X64433Y4433
X63333Y4483
X62283Y4483
X61333Y4483
X60133Y4383
X55333Y3833
X58583Y3233
X59583Y2133
X51883Y2333
X50333Y2833
X49433Y2683
X50683Y3183
X56833Y8233
X47083Y13483
X49333Y13833
X44483Y14933
X41933Y13583
X41833Y16533
X46733Y16533
X49083Y16633
X48333Y17333
X53483Y17883
T03
X53333Y4833
X54833Y4833
X56333Y4833
X57833Y4833
X57833Y1833
X56333Y1833
X54833Y1833
X53333Y1833
T04
X60833Y1833
X61833Y1833
X62833Y1833
X63833Y1833
X64833Y1833
X65833Y1833
X66833Y1833
X67833Y1833
X68833Y1833
X69833Y1833
X79833Y1833
X80833Y1833
X81833Y1833
X82833Y1833
X83833Y1833
X84833Y1833
M30
