%
M48
M72
T01C0.0120
T02C0.0150
T03C0.0200
T04C0.0354
%
T01
X26331Y3800
X31481Y3610
X31481Y5350
X37681Y9500
X38431Y8900
X38731Y9150
X31481Y11810
X31481Y13550
X26331Y12000
X37681Y17700
X38731Y17350
X38431Y17100
X31481Y20010
X31481Y21750
X26331Y20200
X37681Y25900
X38431Y25300
X38731Y25550
X31481Y28210
X31481Y29950
X26331Y28400
X37681Y34100
X38431Y33500
X38731Y33750
X31481Y36410
X31481Y38150
X26331Y36600
X37681Y42300
X38431Y41700
X38731Y41950
X48431Y41500
X49131Y41500
X49731Y38150
X48951Y37080
X49131Y33300
X48431Y33300
X49731Y29950
X48951Y28880
X49131Y25100
X48431Y25100
X49731Y21750
X48951Y20680
X49131Y16900
X48431Y16900
X49731Y13550
X48951Y12480
X49131Y8700
X48431Y8700
X49731Y5350
X48951Y4280
T02
X26281Y3250
X28081Y3900
X27979Y4900
X28681Y5350
X28781Y5750
X28054Y5727
X28031Y6100
X28031Y6550
X29431Y7000
X29881Y5700
X29483Y5300
X30531Y4550
X30931Y3300
X32381Y4600
X33081Y5700
X33331Y6450
X35031Y6450
X35381Y6800
X35731Y6400
X36181Y6250
X37581Y6800
X36931Y7200
X36181Y7500
X35831Y7150
X36031Y8200
X36681Y8050
X36281Y9250
X37431Y9150
X38731Y7850
X38881Y7200
X41181Y6650
X41931Y6600
X42081Y6100
X43831Y5150
X45281Y5250
X44681Y3895
X44681Y3150
X42581Y3300
X41831Y3200
X40881Y3300
X40031Y4200
X39031Y4550
X38131Y4650
X36231Y4450
X39829Y5555
X42531Y4450
X45781Y7650
X46381Y8450
X45831Y9500
X44031Y9250
X44031Y10100
X44681Y11350
X44681Y12095
X45281Y13450
X43831Y13350
X42531Y12650
X42581Y11500
X41831Y11400
X40881Y11500
X40031Y12400
X39031Y12750
X38131Y12850
X36231Y12650
X36181Y14450
X35731Y14600
X35381Y15000
X35031Y14650
X35831Y15350
X36181Y15700
X36681Y16250
X36031Y16400
X36281Y17450
X37431Y17350
X38731Y16050
X38881Y15400
X37581Y15000
X36931Y15400
X34681Y17350
X34213Y18550
X32532Y17902
X32381Y17050
X31431Y17000
X30581Y16950
X30317Y17952
X31647Y18550
X30931Y19700
X30531Y20950
X29483Y21700
X29881Y22100
X28781Y22150
X28681Y21750
X28054Y22127
X28031Y22500
X28031Y22950
X29431Y23400
X28531Y25002
X27631Y25700
X27081Y25000
X26581Y24500
X26281Y26750
X26281Y27850
X28081Y28500
X27979Y29500
X28681Y29950
X28781Y30350
X28054Y30327
X28031Y30700
X28031Y31150
X29431Y31600
X29881Y30300
X29483Y29900
X30531Y29150
X30931Y27900
X32381Y29200
X33081Y30300
X33331Y31050
X35031Y31050
X35381Y31400
X35731Y31000
X36181Y30850
X37581Y31400
X36931Y31800
X36181Y32100
X35831Y31750
X36031Y32800
X36681Y32650
X36281Y33850
X37431Y33750
X38731Y32450
X38881Y31800
X41181Y31250
X41931Y31200
X42081Y30700
X43831Y29750
X45281Y29850
X44681Y28495
X44681Y27750
X44031Y26500
X44031Y25650
X45831Y25900
X46381Y24850
X45781Y24050
X47381Y24050
X48731Y23900
X50281Y24300
X50631Y24300
X50981Y24300
X51331Y24300
X51681Y24295
X52252Y23729
X52131Y23050
X53181Y23550
X55271Y23750
X56131Y23162
X55251Y22620
X56131Y21862
X55251Y21350
X55611Y20130
X56101Y20120
X56601Y20130
X57976Y20135
X59262Y20394
X59129Y18747
X58687Y17948
X57531Y17950
X56581Y17550
X56131Y16300
X55231Y16700
X55271Y15550
X56131Y14962
X55251Y14420
X56131Y13662
X55251Y13150
X55611Y11930
X56101Y11920
X56601Y11930
X57976Y11935
X59262Y12194
X58733Y13928
X62191Y12220
X61716Y10547
X60776Y10547
X59129Y10547
X58687Y9748
X57531Y9750
X56581Y9350
X55231Y8500
X56131Y8100
X55271Y7350
X56131Y6762
X55251Y6220
X56131Y5462
X55251Y4950
X55611Y3730
X56101Y3720
X56601Y3730
X57976Y3735
X59262Y3994
X58733Y5728
X62191Y4020
X62191Y8530
X54431Y10293
X53630Y9559
X52231Y9200
X51081Y9500
X50531Y9500
X51347Y10350
X52101Y11680
X52851Y11670
X51481Y12950
X50281Y13110
X49221Y12260
X50131Y12000
X48631Y11550
X47581Y12650
X47881Y12950
X47481Y13350
X48731Y15700
X47381Y15850
X46381Y16650
X45781Y15850
X44031Y17450
X44031Y18300
X44681Y19550
X44681Y20295
X45281Y21650
X43831Y21550
X42531Y20850
X42581Y19700
X41831Y19600
X40881Y19700
X40031Y20600
X39031Y20950
X38131Y21050
X36231Y20850
X36181Y22650
X35731Y22800
X35381Y23200
X35031Y22850
X35831Y23550
X36181Y23900
X36031Y24600
X36681Y24450
X36931Y23600
X37581Y23200
X38881Y23600
X38731Y24250
X40031Y25500
X41331Y24950
X41378Y26697
X41831Y27800
X42581Y27900
X42531Y29050
X40881Y27900
X40031Y28800
X39031Y29150
X38131Y29250
X36231Y29050
X39829Y30155
X41331Y33150
X40031Y33700
X40081Y35000
X41378Y34897
X41831Y36000
X42581Y36100
X40881Y36100
X40031Y37000
X39031Y37350
X38131Y37450
X36231Y37250
X36181Y39050
X35731Y39200
X35381Y39600
X35031Y39250
X35831Y39950
X36181Y40300
X36681Y40850
X36031Y41000
X36281Y42050
X37431Y41950
X38731Y40650
X38881Y40000
X37581Y39600
X36931Y40000
X34681Y41950
X34213Y43150
X32532Y42502
X32381Y41650
X31431Y41600
X30581Y41550
X30317Y42552
X31647Y43150
X28531Y41402
X27631Y42100
X27081Y41400
X26581Y40900
X28031Y39350
X28031Y38900
X28054Y38527
X28781Y38550
X28681Y38150
X29483Y38100
X29881Y38500
X30531Y37350
X31481Y38550
X32381Y37400
X33081Y38500
X33331Y39250
X33855Y40474
X31481Y39600
X29431Y39800
X27979Y37700
X28081Y36700
X26281Y36050
X26281Y34950
X27631Y33900
X27081Y33200
X26581Y32700
X28531Y33202
X30581Y33350
X31431Y33400
X32381Y33450
X32532Y34302
X31647Y34950
X30931Y36100
X30317Y34352
X33855Y32274
X34681Y33750
X34213Y34950
X39829Y38355
X41181Y39450
X41931Y39400
X42081Y38900
X43831Y37950
X45281Y38050
X44681Y36695
X44681Y35950
X44031Y34700
X44031Y33850
X45831Y34100
X46381Y33050
X45781Y32250
X47381Y32250
X48731Y32100
X50281Y32500
X50631Y32500
X50981Y32500
X51331Y32500
X51681Y32495
X52252Y31929
X52131Y31250
X53181Y31750
X55271Y31950
X56131Y31362
X55251Y30820
X56131Y30062
X55251Y29550
X55611Y28330
X56101Y28320
X56601Y28330
X57976Y28335
X59262Y28594
X59129Y26947
X58687Y26148
X57531Y26150
X56581Y25750
X55231Y24900
X56131Y24500
X53630Y25959
X54431Y26693
X52851Y28070
X52101Y28080
X51481Y29350
X50281Y29510
X50131Y28400
X49221Y28660
X48631Y27950
X47581Y29050
X47881Y29350
X47481Y29750
X51347Y26750
X51081Y25900
X50531Y25900
X52231Y25600
X48481Y25800
X42081Y22500
X41931Y23000
X41181Y23050
X39829Y21955
X40081Y18600
X41378Y18497
X40031Y17300
X41331Y16750
X41181Y14850
X41931Y14800
X42081Y14300
X39829Y13755
X40081Y10400
X41378Y10297
X40031Y9100
X41331Y8550
X47381Y7650
X48731Y7500
X50281Y7900
X50631Y7900
X50981Y7900
X51331Y7900
X51681Y7895
X52252Y7329
X52131Y6650
X53181Y7150
X51481Y4750
X50281Y4910
X50131Y3800
X49221Y4060
X48631Y3350
X47581Y4450
X47881Y4750
X47481Y5150
X52101Y3480
X52851Y3470
X48481Y9400
X52131Y14850
X52252Y15529
X51681Y16095
X51331Y16100
X50981Y16100
X50631Y16100
X50281Y16100
X52231Y17400
X51081Y17700
X50531Y17700
X51347Y18550
X52101Y19880
X52851Y19870
X51481Y21150
X50281Y21310
X50131Y20200
X49221Y20460
X48631Y19750
X47581Y20850
X47881Y21150
X47481Y21550
X45831Y17700
X48481Y17600
X53630Y17759
X54431Y18493
X53181Y15350
X60776Y18747
X61716Y18747
X62191Y20420
X58733Y22128
X62191Y24930
X61716Y26947
X60776Y26947
X62191Y28620
X58733Y30328
X56131Y32700
X55231Y33100
X56581Y33950
X57531Y34350
X58687Y34348
X59129Y35147
X60776Y35147
X61716Y35147
X62191Y36820
X59262Y36794
X57976Y36535
X56601Y36530
X56101Y36520
X55611Y36530
X55251Y37750
X56131Y38262
X55251Y39020
X56131Y39562
X55271Y40150
X56131Y40900
X55231Y41300
X56581Y42150
X57531Y42550
X58687Y42548
X59129Y43347
X60776Y43347
X61716Y43347
X62191Y41330
X58733Y38528
X54431Y34893
X53630Y34159
X52231Y33800
X51081Y34100
X50531Y34100
X51347Y34950
X52101Y36280
X52851Y36270
X51481Y37550
X50281Y37710
X49221Y36860
X50131Y36600
X48631Y36150
X47581Y37250
X47881Y37550
X47481Y37950
X47381Y40450
X46381Y41250
X45781Y40450
X45831Y42300
X44031Y42050
X44031Y42900
X41378Y43097
X40081Y43200
X40031Y41900
X41331Y41350
X42531Y37250
X48481Y34000
X52131Y39450
X52252Y40129
X51681Y40695
X51331Y40700
X50981Y40700
X50631Y40700
X50281Y40700
X48731Y40300
X48481Y42200
X50531Y42300
X51081Y42300
X52231Y42000
X53630Y42359
X54431Y43093
X51347Y43150
X53181Y39950
X62191Y33130
X40081Y26800
X37431Y25550
X36281Y25650
X34681Y25550
X32532Y26102
X32381Y25250
X31431Y25200
X30581Y25150
X30317Y26152
X31647Y26750
X34213Y26750
X33855Y24074
X33331Y22850
X33081Y22100
X32381Y21000
X31481Y22150
X31481Y23200
X27979Y21300
X28081Y20300
X26281Y19650
X26281Y18550
X27631Y17500
X27081Y16800
X26581Y16300
X28531Y16802
X29431Y15200
X28781Y13950
X28681Y13550
X28054Y13927
X28031Y14300
X28031Y14750
X29483Y13500
X29881Y13900
X30531Y12750
X32381Y12800
X33081Y13900
X33331Y14650
X33855Y15874
X31481Y15000
X31481Y13950
X28081Y12100
X27979Y13100
X26281Y11450
X26281Y10350
X27631Y9300
X27081Y8600
X26581Y8100
X28531Y8602
X30581Y8750
X31431Y8800
X32381Y8850
X32532Y9702
X31647Y10350
X30931Y11500
X30317Y9752
X33855Y7674
X34681Y9150
X34213Y10350
X31481Y6800
X31481Y5750
X62191Y16730
X31481Y30350
X31481Y31400
X26281Y43150
T03
X40720Y41204
X41427Y40496
X42134Y41204
X42841Y40496
X42134Y39789
X41427Y41911
X41427Y33711
X42134Y33004
X41427Y32296
X40720Y33004
X42134Y31589
X42841Y32296
X41427Y25511
X42134Y24804
X41427Y24096
X42134Y23389
X42841Y24096
X40720Y24804
X41427Y17311
X42134Y16604
X41427Y15896
X40720Y16604
X42134Y15189
X42841Y15896
X41427Y9111
X42134Y8404
X41427Y7696
X42134Y6989
X42841Y7696
X40720Y8404
T04
X43607Y6934
X44557Y6209
X46057Y5485
X47557Y6209
X46607Y6934
X48107Y7659
X45107Y7659
X43057Y5485
X43057Y13685
X44557Y14409
X43607Y15134
X45107Y15859
X46607Y15134
X47557Y14409
X46057Y13685
X48107Y15859
X46057Y21885
X47557Y22609
X46607Y23334
X48107Y24059
X45107Y24059
X43607Y23334
X44557Y22609
X43057Y21885
X43057Y30085
X44557Y30809
X43607Y31534
X45107Y32259
X46607Y31534
X47557Y30809
X46057Y30085
X48107Y32259
X46057Y38285
X47557Y39009
X46607Y39734
X48107Y40459
X45107Y40459
X43607Y39734
X44557Y39009
X43057Y38285
M30
