%
M48
M72
T01C0.0120
T02C0.0150
T03C0.0200
T04C0.0354
%
T01
X4475Y3800
X9625Y3610
X9625Y5350
X15825Y9500
X16575Y8900
X16875Y9150
X9625Y11810
X9625Y13550
X4475Y12000
X4475Y20200
X9625Y20010
X9625Y21750
X15825Y17700
X16575Y17100
X16875Y17350
X16575Y25300
X16875Y25550
X15825Y25900
X9625Y28210
X9625Y29950
X4475Y28400
X4475Y36600
X9625Y36410
X9625Y38150
X15825Y34100
X16575Y33500
X16875Y33750
X16575Y41700
X16875Y41950
X15825Y42300
X26575Y41500
X27275Y41500
X27875Y38150
X27095Y37080
X27275Y33300
X26575Y33300
X27875Y29950
X27095Y28880
X27275Y25100
X26575Y25100
X27875Y21750
X27095Y20680
X27275Y16900
X26575Y16900
X27875Y13550
X27095Y12480
X27275Y8700
X26575Y8700
X27875Y5350
X27095Y4280
T02
X27365Y4060
X26775Y3350
X25725Y4450
X26025Y4750
X25625Y5150
X23425Y5250
X21975Y5150
X22825Y3895
X22825Y3150
X20475Y3300
X19975Y3200
X19025Y3300
X18175Y4200
X17175Y4550
X16275Y4650
X17974Y5555
X19325Y6650
X20075Y6600
X20225Y6100
X20225Y4700
X17025Y7200
X16875Y7850
X15725Y6800
X15075Y7200
X14325Y7500
X13975Y7150
X13525Y6800
X13175Y6450
X13875Y6400
X14325Y6250
X14375Y4450
X11475Y6450
X11285Y5730
X10525Y4600
X9625Y5750
X9625Y6800
X8025Y5700
X7628Y5300
X6825Y5350
X6925Y5750
X6198Y5727
X6175Y6100
X6175Y6550
X7575Y7000
X6675Y8602
X5775Y9300
X5225Y8600
X4725Y8100
X4425Y10350
X6225Y11500
X6124Y13100
X6198Y13927
X6175Y14300
X6175Y14750
X6925Y13950
X6825Y13550
X7628Y13500
X8025Y13900
X8675Y12750
X9075Y11500
X9791Y10350
X10676Y9702
X10525Y8850
X9575Y8800
X8725Y8750
X8462Y9752
X10525Y12800
X11285Y13930
X11475Y14650
X11999Y15874
X12825Y17350
X12358Y18550
X10676Y17902
X10525Y17050
X9575Y17000
X8725Y16950
X8462Y17952
X9791Y18550
X9075Y19700
X8675Y20950
X7628Y21700
X8025Y22100
X6925Y22150
X6825Y21750
X6198Y22127
X6175Y22500
X6175Y22950
X7575Y23400
X6675Y25002
X5775Y25700
X5225Y25000
X4725Y24500
X4425Y26750
X6225Y27900
X6124Y29500
X6198Y30327
X6175Y30700
X6175Y31150
X6925Y30350
X6825Y29950
X7628Y29900
X8025Y30300
X7575Y31600
X6675Y33202
X5775Y33900
X5225Y33200
X4725Y32700
X4425Y34950
X6225Y36100
X6124Y37700
X6198Y38527
X6175Y38900
X6175Y39350
X6925Y38550
X6825Y38150
X7628Y38100
X8025Y38500
X8675Y37350
X9625Y38550
X10525Y37400
X11285Y38530
X11475Y39250
X11999Y40474
X12825Y41950
X12358Y43150
X10676Y42502
X10525Y41650
X9575Y41600
X8725Y41550
X8462Y42552
X9791Y43150
X6675Y41402
X5775Y42100
X5225Y41400
X4725Y40900
X4425Y43150
X7575Y39800
X9625Y39600
X13175Y39250
X13525Y39600
X13875Y39200
X14325Y39050
X13975Y39950
X14325Y40300
X14825Y40850
X14175Y41000
X14425Y42050
X15575Y41950
X16875Y40650
X17025Y40000
X15725Y39600
X15075Y40000
X17974Y38355
X17175Y37350
X18175Y37000
X19025Y36100
X19975Y36000
X20475Y36100
X19522Y34897
X18225Y35000
X18175Y33700
X19475Y33150
X19325Y31250
X20075Y31200
X20225Y30700
X20225Y29300
X20475Y27900
X19975Y27800
X19025Y27900
X18175Y28800
X17175Y29150
X16275Y29250
X17974Y30155
X17025Y31800
X16875Y32450
X15725Y31400
X15075Y31800
X14325Y32100
X13975Y31750
X13525Y31400
X13175Y31050
X13875Y31000
X14325Y30850
X14375Y29050
X12358Y26750
X12825Y25550
X14425Y25650
X15575Y25550
X14825Y24450
X14175Y24600
X14325Y23900
X13975Y23550
X13525Y23200
X13175Y22850
X13875Y22800
X14325Y22650
X15075Y23600
X15725Y23200
X17025Y23600
X16875Y24250
X18175Y25500
X18225Y26800
X19522Y26697
X19475Y24950
X19325Y23050
X20075Y23000
X20225Y22500
X20225Y21100
X20475Y19700
X19975Y19600
X19025Y19700
X18175Y20600
X17175Y20950
X16275Y21050
X17974Y21955
X18225Y18600
X19522Y18497
X19475Y16750
X18175Y17300
X16875Y16050
X17025Y15400
X15725Y15000
X15075Y15400
X14825Y16250
X14175Y16400
X14325Y15700
X13975Y15350
X13525Y15000
X13175Y14650
X13875Y14600
X14325Y14450
X14375Y12650
X16275Y12850
X17175Y12750
X18175Y12400
X19025Y11500
X19975Y11400
X20475Y11500
X19522Y10297
X18225Y10400
X18175Y9100
X19475Y8550
X22175Y9250
X22175Y10100
X22825Y11350
X22825Y12095
X23425Y13450
X21975Y13350
X20225Y12900
X20225Y14300
X20075Y14800
X19325Y14850
X17974Y13755
X15575Y17350
X14425Y17450
X14375Y20850
X11475Y22850
X11285Y22130
X10525Y21000
X9625Y22150
X9625Y23200
X9575Y25200
X8725Y25150
X8462Y26152
X9791Y26750
X10676Y26102
X10525Y25250
X11999Y24074
X9075Y27900
X8675Y29150
X9625Y30350
X9625Y31400
X11285Y30330
X11475Y31050
X11999Y32274
X12825Y33750
X12358Y34950
X10676Y34302
X10525Y33450
X9575Y33400
X8725Y33350
X8462Y34352
X9791Y34950
X9075Y36100
X14375Y37250
X16275Y37450
X19325Y39450
X20075Y39400
X20225Y38900
X20225Y37500
X21975Y37950
X23425Y38050
X22825Y36695
X22825Y35950
X22175Y34700
X22175Y33850
X23975Y34100
X24525Y33050
X23925Y32250
X25525Y32250
X26875Y32100
X28425Y32500
X28775Y32500
X29125Y32500
X29475Y32500
X29825Y32495
X30396Y31929
X30275Y31250
X31325Y31750
X33365Y31780
X34275Y31362
X33365Y30470
X34275Y30062
X33365Y29230
X33755Y28330
X34245Y28320
X34745Y28330
X36121Y28335
X37406Y28594
X37273Y26947
X36831Y26148
X35675Y26150
X34725Y25750
X33365Y24900
X34275Y24500
X33365Y23580
X34275Y23162
X33365Y22270
X34275Y21862
X33365Y21030
X33755Y20130
X34245Y20120
X34745Y20130
X36121Y20135
X37406Y20394
X37273Y18747
X36831Y17948
X35675Y17950
X34725Y17550
X34275Y16300
X33365Y16700
X33365Y15380
X34275Y14962
X33365Y14070
X34275Y13662
X33365Y12830
X33755Y11930
X34245Y11920
X34745Y11930
X36121Y11935
X37406Y12194
X36877Y13928
X40335Y12220
X38920Y10547
X37273Y10547
X36831Y9748
X35675Y9750
X34725Y9350
X33365Y8500
X34275Y8100
X33365Y7180
X34275Y6762
X33365Y5870
X34275Y5462
X33365Y4630
X33755Y3730
X34245Y3720
X34745Y3730
X36121Y3735
X37406Y3994
X36877Y5728
X40335Y4020
X40335Y8530
X32576Y10293
X31774Y9559
X30375Y9200
X29225Y9500
X28675Y9500
X29492Y10350
X30245Y11680
X30995Y11670
X29625Y12950
X28425Y13110
X27365Y12260
X26775Y11550
X25725Y12650
X26025Y12950
X25625Y13350
X26875Y15700
X25525Y15850
X24525Y16650
X23925Y15850
X23975Y17700
X22175Y17450
X22175Y18300
X22825Y19550
X22825Y20295
X23425Y21650
X21975Y21550
X23925Y24050
X24525Y24850
X23975Y25900
X22175Y25650
X22175Y26500
X22825Y27750
X22825Y28495
X21975Y29750
X23425Y29850
X25625Y29750
X26025Y29350
X25725Y29050
X26775Y27950
X27365Y28660
X28275Y28400
X28425Y29510
X29625Y29350
X30245Y28080
X30995Y28070
X29492Y26750
X29225Y25900
X28675Y25900
X28775Y24300
X28425Y24300
X29125Y24300
X29475Y24300
X29825Y24295
X30396Y23729
X30275Y23050
X31325Y23550
X30375Y25600
X31774Y25959
X32576Y26693
X36877Y30328
X34275Y32700
X33365Y33100
X34725Y33950
X35675Y34350
X36831Y34348
X37273Y35147
X38920Y35147
X40335Y36820
X37406Y36794
X36121Y36535
X34745Y36530
X34245Y36520
X33755Y36530
X33365Y37430
X34275Y38262
X33365Y38670
X34275Y39562
X33365Y39980
X34275Y40900
X33365Y41300
X34725Y42150
X35675Y42550
X36831Y42548
X37273Y43347
X38920Y43347
X40335Y41330
X36877Y38528
X32576Y34893
X31774Y34159
X30375Y33800
X29225Y34100
X28675Y34100
X29492Y34950
X30245Y36280
X30995Y36270
X29625Y37550
X28425Y37710
X27365Y36860
X26775Y36150
X25725Y37250
X26025Y37550
X25625Y37950
X25525Y40450
X24525Y41250
X23925Y40450
X23975Y42300
X22175Y42050
X22175Y42900
X19522Y43097
X18225Y43200
X18175Y41900
X19475Y41350
X26625Y42200
X28425Y40700
X28775Y40700
X29125Y40700
X29475Y40700
X29825Y40695
X30396Y40129
X30275Y39450
X31325Y39950
X30375Y42000
X29225Y42300
X28675Y42300
X29492Y43150
X31774Y42359
X32576Y43093
X26875Y40300
X28275Y36600
X26625Y34000
X26625Y25800
X26875Y23900
X25525Y24050
X25625Y21550
X26025Y21150
X25725Y20850
X26775Y19750
X27365Y20460
X28275Y20200
X28425Y21310
X29625Y21150
X30245Y19880
X30995Y19870
X29492Y18550
X29225Y17700
X28675Y17700
X30375Y17400
X29825Y16095
X29475Y16100
X29125Y16100
X28775Y16100
X28425Y16100
X26625Y17600
X30396Y15529
X30275Y14850
X31325Y15350
X31774Y17759
X32576Y18493
X36877Y22128
X40335Y20420
X38920Y18747
X40335Y16730
X40335Y24930
X38920Y26947
X40335Y28620
X40335Y33130
X28275Y12000
X26625Y9400
X26875Y7500
X25525Y7650
X24525Y8450
X23925Y7650
X23975Y9500
X28425Y7900
X28775Y7900
X29125Y7900
X29475Y7900
X29825Y7895
X30396Y7329
X30275Y6650
X31325Y7150
X29625Y4750
X28425Y4910
X28275Y3800
X30245Y3480
X30995Y3470
X15575Y9150
X14425Y9250
X14175Y8200
X14825Y8050
X12825Y9150
X12358Y10350
X11999Y7674
X8675Y4550
X9075Y3300
X6225Y3300
X6124Y4900
X9625Y13950
X9625Y15000
X7575Y15200
X6675Y16802
X5775Y17500
X5225Y16800
X4725Y16300
X4425Y18550
X6225Y19700
X6124Y21300
X10525Y29200
X14175Y32800
X14825Y32650
X14425Y33850
X15575Y33750
T03
X18964Y33104
X19671Y33811
X20379Y33104
X21086Y32396
X20379Y31689
X19671Y32396
X19671Y25611
X18964Y24904
X19671Y24196
X20379Y23489
X21086Y24196
X20379Y24904
X19671Y17411
X18964Y16704
X19671Y15996
X20379Y15289
X21086Y15996
X20379Y16704
X19671Y9211
X18964Y8504
X19671Y7796
X20379Y7089
X21086Y7796
X20379Y8504
X20379Y39889
X21086Y40596
X20379Y41304
X19671Y42011
X18964Y41304
X19671Y40596
T04
X21751Y39734
X22701Y39009
X24201Y38285
X24751Y39734
X25701Y39009
X26251Y40459
X23251Y40459
X21201Y38285
X23251Y32259
X22701Y30809
X21751Y31534
X21201Y30085
X24201Y30085
X24751Y31534
X25701Y30809
X26251Y32259
X26251Y24059
X25701Y22609
X24751Y23334
X24201Y21885
X22701Y22609
X21751Y23334
X21201Y21885
X23251Y24059
X23251Y15859
X24751Y15134
X25701Y14409
X24201Y13685
X22701Y14409
X21751Y15134
X21201Y13685
X26251Y15859
X26251Y7659
X25701Y6209
X24751Y6934
X24201Y5485
X22701Y6209
X21751Y6934
X21201Y5485
X23251Y7659
M30
