G75*
%MOIN*%
%OFA0B0*%
%FSLAX25Y25*%
%IPPOS*%
%LPD*%
%AMOC8*
5,1,8,0,0,1.08239X$1,22.5*
%
%ADD10R,0.21457X0.00472*%
%ADD11R,0.06811X0.00472*%
%ADD12R,0.02441X0.00472*%
%ADD13R,0.01929X0.00472*%
%ADD14R,0.08307X0.00472*%
%ADD15R,0.01969X0.00472*%
%ADD16R,0.06850X0.00472*%
%ADD17R,0.25354X0.00512*%
%ADD18R,0.11693X0.00512*%
%ADD19R,0.05866X0.00512*%
%ADD20R,0.06339X0.00512*%
%ADD21R,0.12165X0.00512*%
%ADD22R,0.06299X0.00512*%
%ADD23R,0.11220X0.00512*%
%ADD24R,0.26339X0.00472*%
%ADD25R,0.14606X0.00472*%
%ADD26R,0.07323X0.00472*%
%ADD27R,0.14646X0.00472*%
%ADD28R,0.26811X0.00472*%
%ADD29R,0.16102X0.00472*%
%ADD30R,0.07795X0.00472*%
%ADD31R,0.08268X0.00472*%
%ADD32R,0.16063X0.00472*%
%ADD33R,0.27283X0.00512*%
%ADD34R,0.17559X0.00512*%
%ADD35R,0.08307X0.00512*%
%ADD36R,0.08268X0.00512*%
%ADD37R,0.17047X0.00512*%
%ADD38R,0.27756X0.00472*%
%ADD39R,0.20000X0.00472*%
%ADD40R,0.08780X0.00472*%
%ADD41R,0.08740X0.00472*%
%ADD42R,0.19016X0.00472*%
%ADD43R,0.19528X0.00472*%
%ADD44R,0.27756X0.00512*%
%ADD45R,0.20945X0.00512*%
%ADD46R,0.08780X0.00512*%
%ADD47R,0.08740X0.00512*%
%ADD48R,0.20472X0.00512*%
%ADD49R,0.22402X0.00472*%
%ADD50R,0.21929X0.00472*%
%ADD51R,0.22913X0.00472*%
%ADD52R,0.23386X0.00472*%
%ADD53R,0.23898X0.00472*%
%ADD54R,0.24370X0.00512*%
%ADD55R,0.25354X0.00472*%
%ADD56R,0.24843X0.00472*%
%ADD57R,0.25827X0.00512*%
%ADD58R,0.25866X0.00512*%
%ADD59R,0.27283X0.00472*%
%ADD60R,0.26811X0.00512*%
%ADD61R,0.27323X0.00512*%
%ADD62R,0.28780X0.00472*%
%ADD63R,0.26299X0.00472*%
%ADD64R,0.29724X0.00472*%
%ADD65R,0.13622X0.00512*%
%ADD66R,0.12638X0.00512*%
%ADD67R,0.13189X0.00512*%
%ADD68R,0.13661X0.00512*%
%ADD69R,0.13150X0.00472*%
%ADD70R,0.12165X0.00472*%
%ADD71R,0.12677X0.00472*%
%ADD72R,0.13189X0.00472*%
%ADD73R,0.12205X0.00512*%
%ADD74R,0.05827X0.00512*%
%ADD75R,0.11693X0.00472*%
%ADD76R,0.04370X0.00472*%
%ADD77R,0.10748X0.00472*%
%ADD78R,0.10709X0.00472*%
%ADD79R,0.04409X0.00472*%
%ADD80R,0.02953X0.00472*%
%ADD81R,0.10236X0.00472*%
%ADD82R,0.02913X0.00472*%
%ADD83R,0.10236X0.00512*%
%ADD84R,0.01929X0.00512*%
%ADD85R,0.01457X0.00512*%
%ADD86R,0.09764X0.00472*%
%ADD87R,0.09724X0.00472*%
%ADD88R,0.09252X0.00472*%
%ADD89R,0.09252X0.00512*%
%ADD90R,0.09291X0.00512*%
%ADD91R,0.09764X0.00512*%
%ADD92R,0.09291X0.00472*%
%ADD93R,0.18976X0.00512*%
%ADD94R,0.20472X0.00472*%
%ADD95R,0.21417X0.00472*%
%ADD96R,0.21929X0.00512*%
%ADD97R,0.29724X0.00512*%
%ADD98R,0.22402X0.00512*%
%ADD99R,0.21417X0.00512*%
%ADD100R,0.20945X0.00472*%
%ADD101R,0.09724X0.00512*%
%ADD102R,0.00984X0.00472*%
%ADD103R,0.01457X0.00472*%
%ADD104R,0.10709X0.00512*%
%ADD105R,0.02953X0.00512*%
%ADD106R,0.02913X0.00512*%
%ADD107R,0.05354X0.00512*%
%ADD108R,0.11732X0.00472*%
%ADD109R,0.25827X0.00472*%
%ADD110R,0.13622X0.00472*%
%ADD111R,0.15118X0.00472*%
%ADD112R,0.26772X0.00472*%
%ADD113R,0.24882X0.00472*%
%ADD114R,0.23858X0.00512*%
%ADD115R,0.22913X0.00512*%
%ADD116R,0.23386X0.00512*%
%ADD117R,0.22441X0.00472*%
%ADD118R,0.19488X0.00512*%
%ADD119R,0.20000X0.00512*%
%ADD120R,0.18071X0.00472*%
%ADD121R,0.18504X0.00472*%
%ADD122R,0.18031X0.00472*%
%ADD123R,0.16575X0.00512*%
%ADD124R,0.07795X0.00512*%
%ADD125R,0.07323X0.00512*%
%ADD126R,0.16535X0.00512*%
%ADD127R,0.25866X0.00472*%
%ADD128R,0.15079X0.00472*%
%ADD129R,0.05866X0.00472*%
%ADD130R,0.06339X0.00472*%
%ADD131R,0.13661X0.00472*%
%ADD132R,0.06299X0.00472*%
%ADD133R,0.22874X0.00512*%
%ADD134R,0.03898X0.00512*%
%ADD135R,0.03386X0.00512*%
%ADD136R,0.04882X0.00472*%
%ADD137R,0.31260X0.00394*%
%ADD138R,0.22953X0.00394*%
%ADD139R,0.07165X0.00394*%
%ADD140R,0.01890X0.00394*%
%ADD141R,0.31969X0.00354*%
%ADD142R,0.23701X0.00354*%
%ADD143R,0.07874X0.00354*%
%ADD144R,0.02638X0.00354*%
%ADD145R,0.02598X0.00354*%
%ADD146R,0.35000X0.00394*%
%ADD147R,0.27126X0.00394*%
%ADD148R,0.11693X0.00394*%
%ADD149R,0.06378X0.00394*%
%ADD150R,0.35748X0.00354*%
%ADD151R,0.28228X0.00354*%
%ADD152R,0.13898X0.00354*%
%ADD153R,0.36142X0.00394*%
%ADD154R,0.28622X0.00394*%
%ADD155R,0.15827X0.00394*%
%ADD156R,0.07874X0.00394*%
%ADD157R,0.08268X0.00394*%
%ADD158R,0.36535X0.00394*%
%ADD159R,0.28976X0.00394*%
%ADD160R,0.17323X0.00394*%
%ADD161R,0.08661X0.00394*%
%ADD162R,0.36535X0.00354*%
%ADD163R,0.29724X0.00354*%
%ADD164R,0.18819X0.00354*%
%ADD165R,0.09055X0.00354*%
%ADD166R,0.09016X0.00354*%
%ADD167R,0.29724X0.00394*%
%ADD168R,0.19961X0.00394*%
%ADD169R,0.09055X0.00394*%
%ADD170R,0.09016X0.00394*%
%ADD171R,0.21811X0.00354*%
%ADD172R,0.36890X0.00394*%
%ADD173R,0.22598X0.00394*%
%ADD174R,0.09409X0.00394*%
%ADD175R,0.36890X0.00354*%
%ADD176R,0.09409X0.00354*%
%ADD177R,0.09370X0.00354*%
%ADD178R,0.30079X0.00394*%
%ADD179R,0.24488X0.00394*%
%ADD180R,0.09370X0.00394*%
%ADD181R,0.25591X0.00394*%
%ADD182R,0.30079X0.00354*%
%ADD183R,0.26339X0.00354*%
%ADD184R,0.27087X0.00394*%
%ADD185R,0.27441X0.00354*%
%ADD186R,0.27835X0.00394*%
%ADD187R,0.36142X0.00354*%
%ADD188R,0.35748X0.00394*%
%ADD189R,0.28583X0.00394*%
%ADD190R,0.35000X0.00354*%
%ADD191R,0.28976X0.00354*%
%ADD192R,0.32362X0.00394*%
%ADD193R,0.29370X0.00354*%
%ADD194R,0.29331X0.00394*%
%ADD195R,0.28583X0.00354*%
%ADD196R,0.15433X0.00394*%
%ADD197R,0.10157X0.00394*%
%ADD198R,0.09764X0.00354*%
%ADD199R,0.14291X0.00354*%
%ADD200R,0.08268X0.00354*%
%ADD201R,0.13543X0.00394*%
%ADD202R,0.06772X0.00394*%
%ADD203R,0.12795X0.00354*%
%ADD204R,0.05630X0.00354*%
%ADD205R,0.12047X0.00394*%
%ADD206R,0.04882X0.00394*%
%ADD207R,0.04134X0.00394*%
%ADD208R,0.11299X0.00354*%
%ADD209R,0.10945X0.00394*%
%ADD210R,0.00394X0.00394*%
%ADD211R,0.10906X0.00354*%
%ADD212R,0.10551X0.00394*%
%ADD213R,0.10551X0.00354*%
%ADD214R,0.10157X0.00354*%
%ADD215R,0.09764X0.00394*%
%ADD216R,0.21417X0.00394*%
%ADD217R,0.22953X0.00354*%
%ADD218R,0.23307X0.00394*%
%ADD219R,0.09803X0.00394*%
%ADD220R,0.32362X0.00354*%
%ADD221R,0.24055X0.00394*%
%ADD222R,0.24055X0.00354*%
%ADD223R,0.24449X0.00394*%
%ADD224R,0.24449X0.00354*%
%ADD225R,0.24803X0.00354*%
%ADD226R,0.24803X0.00394*%
%ADD227R,0.23701X0.00394*%
%ADD228R,0.23307X0.00354*%
%ADD229R,0.09803X0.00354*%
%ADD230R,0.22205X0.00394*%
%ADD231R,0.11299X0.00394*%
%ADD232R,0.03780X0.00394*%
%ADD233R,0.11654X0.00354*%
%ADD234R,0.04882X0.00354*%
%ADD235R,0.12402X0.00394*%
%ADD236R,0.05630X0.00394*%
%ADD237R,0.13150X0.00354*%
%ADD238R,0.06772X0.00354*%
%ADD239R,0.13189X0.00394*%
%ADD240R,0.07520X0.00394*%
%ADD241R,0.26693X0.00354*%
%ADD242R,0.28622X0.00354*%
%ADD243R,0.28228X0.00394*%
%ADD244R,0.27835X0.00354*%
%ADD245R,0.27441X0.00394*%
%ADD246R,0.24843X0.00354*%
%ADD247R,0.21811X0.00394*%
%ADD248R,0.08661X0.00354*%
%ADD249R,0.19921X0.00354*%
%ADD250R,0.19213X0.00394*%
%ADD251R,0.29370X0.00394*%
%ADD252R,0.17677X0.00394*%
%ADD253R,0.16181X0.00354*%
%ADD254R,0.14291X0.00394*%
%ADD255R,0.06378X0.00354*%
%ADD256R,0.27480X0.00354*%
%ADD257R,0.24843X0.00394*%
D10*
X0501223Y0055350D03*
X0566538Y0055350D03*
X0600672Y0087516D03*
X0566538Y0137350D03*
X0600672Y0169516D03*
X0566538Y0219350D03*
X0600672Y0251516D03*
X0566538Y0301350D03*
X0600672Y0333516D03*
X0566538Y0383350D03*
X0600672Y0415516D03*
X0501223Y0383350D03*
X0501223Y0301350D03*
X0501223Y0219350D03*
X0501223Y0137350D03*
D11*
X0547050Y0135382D03*
X0547050Y0168531D03*
X0566538Y0169516D03*
X0547050Y0217382D03*
X0547050Y0250531D03*
X0566538Y0251516D03*
X0547050Y0299382D03*
X0547050Y0332531D03*
X0566538Y0333516D03*
X0547050Y0381382D03*
X0547050Y0414531D03*
X0566538Y0415516D03*
X0443703Y0389177D03*
X0443703Y0307177D03*
X0443703Y0225177D03*
X0443703Y0143177D03*
X0547050Y0086531D03*
X0566538Y0087516D03*
X0547050Y0053382D03*
X0443703Y0061177D03*
D12*
X0547306Y0087516D03*
X0547306Y0169516D03*
X0547306Y0251516D03*
X0547306Y0333516D03*
X0547306Y0415516D03*
D13*
X0525593Y0415516D03*
X0525593Y0333516D03*
X0525593Y0251516D03*
X0525593Y0169516D03*
X0525593Y0087516D03*
D14*
X0500987Y0087516D03*
X0547286Y0054366D03*
X0547286Y0136366D03*
X0500987Y0169516D03*
X0547286Y0218366D03*
X0500987Y0251516D03*
X0547286Y0300366D03*
X0500987Y0333516D03*
X0547286Y0382366D03*
X0500987Y0415516D03*
D15*
X0476361Y0415516D03*
X0476361Y0333516D03*
X0476361Y0251516D03*
X0476361Y0169516D03*
X0476361Y0087516D03*
D16*
X0450534Y0087516D03*
X0450534Y0169516D03*
X0450534Y0251516D03*
X0450534Y0333516D03*
X0450534Y0415516D03*
D17*
X0601164Y0415024D03*
X0601164Y0333024D03*
X0601164Y0251024D03*
X0601164Y0169024D03*
X0601164Y0087024D03*
D18*
X0566538Y0087024D03*
X0510987Y0078244D03*
X0490987Y0078244D03*
X0461262Y0078244D03*
X0461262Y0160244D03*
X0490987Y0160244D03*
X0510987Y0160244D03*
X0566538Y0169024D03*
X0510987Y0242244D03*
X0490987Y0242244D03*
X0461262Y0242244D03*
X0566538Y0251024D03*
X0510987Y0324244D03*
X0490987Y0324244D03*
X0461262Y0324244D03*
X0566538Y0333024D03*
X0510987Y0406244D03*
X0490987Y0406244D03*
X0461262Y0406244D03*
X0566538Y0415024D03*
D19*
X0547050Y0415024D03*
X0443231Y0406244D03*
X0547050Y0333024D03*
X0443231Y0324244D03*
X0547050Y0251024D03*
X0443231Y0242244D03*
X0547050Y0169024D03*
X0443231Y0160244D03*
X0547050Y0087024D03*
X0443231Y0078244D03*
D20*
X0525829Y0087024D03*
X0525829Y0169024D03*
X0525829Y0251024D03*
X0525829Y0333024D03*
X0525829Y0415024D03*
D21*
X0500987Y0415024D03*
X0500987Y0333024D03*
X0500987Y0251024D03*
X0500987Y0169024D03*
X0500987Y0087024D03*
D22*
X0476124Y0087024D03*
X0476124Y0169024D03*
X0476124Y0251024D03*
X0476124Y0333024D03*
X0476124Y0415024D03*
D23*
X0450790Y0415024D03*
X0461026Y0389669D03*
X0490750Y0389669D03*
X0511223Y0389669D03*
X0577010Y0389669D03*
X0577010Y0307669D03*
X0511223Y0307669D03*
X0490750Y0307669D03*
X0461026Y0307669D03*
X0450790Y0333024D03*
X0450790Y0251024D03*
X0461026Y0225669D03*
X0490750Y0225669D03*
X0511223Y0225669D03*
X0577010Y0225669D03*
X0450790Y0169024D03*
X0461026Y0143669D03*
X0490750Y0143669D03*
X0511223Y0143669D03*
X0577010Y0143669D03*
X0577010Y0061669D03*
X0511223Y0061669D03*
X0490750Y0061669D03*
X0461026Y0061669D03*
X0450790Y0087024D03*
D24*
X0451498Y0081650D03*
X0452483Y0059248D03*
X0451498Y0058264D03*
X0567522Y0058264D03*
X0567522Y0081650D03*
X0601144Y0086531D03*
X0567522Y0140264D03*
X0567522Y0163650D03*
X0601144Y0168531D03*
X0567522Y0222264D03*
X0567522Y0245650D03*
X0601144Y0250531D03*
X0567522Y0304264D03*
X0567522Y0327650D03*
X0601144Y0332531D03*
X0567522Y0386264D03*
X0567522Y0409650D03*
X0601144Y0414531D03*
X0451498Y0409650D03*
X0452483Y0387248D03*
X0451498Y0386264D03*
X0451498Y0327650D03*
X0452483Y0305248D03*
X0451498Y0304264D03*
X0451498Y0245650D03*
X0452483Y0223248D03*
X0451498Y0222264D03*
X0451498Y0163650D03*
X0452483Y0141248D03*
X0451498Y0140264D03*
D25*
X0501223Y0168531D03*
X0566538Y0168531D03*
X0566538Y0135382D03*
X0566538Y0086531D03*
X0566538Y0053382D03*
X0501223Y0086531D03*
X0566538Y0217382D03*
X0566538Y0250531D03*
X0501223Y0250531D03*
X0566538Y0299382D03*
X0566538Y0332531D03*
X0501223Y0332531D03*
X0566538Y0381382D03*
X0566538Y0414531D03*
X0501223Y0414531D03*
D26*
X0476124Y0414531D03*
X0476124Y0381382D03*
X0525849Y0381382D03*
X0559471Y0389177D03*
X0525849Y0414531D03*
X0525849Y0332531D03*
X0559471Y0307177D03*
X0525849Y0299382D03*
X0476124Y0299382D03*
X0476124Y0332531D03*
X0476124Y0250531D03*
X0476124Y0217382D03*
X0525849Y0217382D03*
X0559471Y0225177D03*
X0525849Y0250531D03*
X0525849Y0168531D03*
X0559471Y0143177D03*
X0525849Y0135382D03*
X0476124Y0135382D03*
X0476124Y0168531D03*
X0476124Y0086531D03*
X0476124Y0053382D03*
X0525849Y0053382D03*
X0559471Y0061177D03*
X0525849Y0086531D03*
D27*
X0574825Y0060705D03*
X0450534Y0053382D03*
X0450534Y0086531D03*
X0450534Y0135382D03*
X0450534Y0168531D03*
X0450534Y0217382D03*
X0450534Y0250531D03*
X0450534Y0299382D03*
X0450534Y0332531D03*
X0450534Y0381382D03*
X0450534Y0414531D03*
X0574825Y0388705D03*
X0574825Y0306705D03*
X0574825Y0224705D03*
X0574825Y0142705D03*
D28*
X0601380Y0141720D03*
X0601380Y0141248D03*
X0567758Y0163177D03*
X0600908Y0168059D03*
X0601380Y0223248D03*
X0601380Y0223720D03*
X0600908Y0250059D03*
X0567758Y0245177D03*
X0500987Y0245650D03*
X0500987Y0222264D03*
X0452246Y0223720D03*
X0452246Y0244193D03*
X0451735Y0245177D03*
X0452246Y0305720D03*
X0452246Y0326193D03*
X0451735Y0327177D03*
X0500987Y0327650D03*
X0500987Y0304264D03*
X0567758Y0327177D03*
X0600908Y0332059D03*
X0601380Y0305720D03*
X0601380Y0305248D03*
X0601380Y0387248D03*
X0601380Y0387720D03*
X0567758Y0409177D03*
X0600908Y0414059D03*
X0500987Y0409650D03*
X0500987Y0386264D03*
X0452246Y0387720D03*
X0452246Y0408193D03*
X0451735Y0409177D03*
X0451735Y0163177D03*
X0452246Y0162193D03*
X0452246Y0141720D03*
X0500987Y0140264D03*
X0500987Y0163650D03*
X0600908Y0086059D03*
X0567758Y0081177D03*
X0601380Y0059720D03*
X0601380Y0059248D03*
X0500987Y0058264D03*
X0500987Y0081650D03*
X0452246Y0080193D03*
X0451735Y0081177D03*
X0452246Y0059720D03*
D29*
X0500987Y0086059D03*
X0566302Y0086059D03*
X0566302Y0168059D03*
X0500987Y0168059D03*
X0500987Y0250059D03*
X0566302Y0250059D03*
X0566302Y0332059D03*
X0500987Y0332059D03*
X0500987Y0414059D03*
X0566302Y0414059D03*
D30*
X0559707Y0406736D03*
X0547030Y0414059D03*
X0525613Y0414059D03*
X0443723Y0406736D03*
X0525613Y0332059D03*
X0547030Y0332059D03*
X0559707Y0324736D03*
X0443723Y0324736D03*
X0525613Y0250059D03*
X0547030Y0250059D03*
X0559707Y0242736D03*
X0443723Y0242736D03*
X0525613Y0168059D03*
X0547030Y0168059D03*
X0559707Y0160736D03*
X0443723Y0160736D03*
X0525613Y0086059D03*
X0547030Y0086059D03*
X0559707Y0078736D03*
X0443723Y0078736D03*
D31*
X0464431Y0071413D03*
X0476124Y0071413D03*
X0476124Y0070941D03*
X0476124Y0069957D03*
X0476124Y0069484D03*
X0476124Y0068500D03*
X0476124Y0067516D03*
X0476124Y0067043D03*
X0476124Y0066059D03*
X0476124Y0065587D03*
X0476124Y0064602D03*
X0476124Y0063618D03*
X0476124Y0063146D03*
X0476124Y0062161D03*
X0476124Y0061177D03*
X0476124Y0060705D03*
X0476124Y0059720D03*
X0476124Y0059248D03*
X0476124Y0058264D03*
X0476124Y0057280D03*
X0476124Y0056807D03*
X0476124Y0055823D03*
X0476124Y0055350D03*
X0476124Y0054366D03*
X0487817Y0068500D03*
X0487817Y0069484D03*
X0487817Y0069957D03*
X0487817Y0070941D03*
X0487817Y0071413D03*
X0476124Y0072398D03*
X0476124Y0073382D03*
X0476124Y0073854D03*
X0476124Y0074839D03*
X0476124Y0075823D03*
X0476124Y0076295D03*
X0476124Y0077280D03*
X0476124Y0077752D03*
X0476124Y0078736D03*
X0476124Y0079720D03*
X0476124Y0080193D03*
X0476124Y0081177D03*
X0476124Y0081650D03*
X0476124Y0082634D03*
X0476124Y0083618D03*
X0476124Y0084091D03*
X0476124Y0085075D03*
X0476124Y0086059D03*
X0525849Y0054366D03*
X0525849Y0136366D03*
X0487817Y0150500D03*
X0487817Y0151484D03*
X0487817Y0151957D03*
X0487817Y0152941D03*
X0487817Y0153413D03*
X0476124Y0153413D03*
X0476124Y0152941D03*
X0476124Y0151957D03*
X0476124Y0151484D03*
X0476124Y0150500D03*
X0476124Y0149516D03*
X0476124Y0149043D03*
X0476124Y0148059D03*
X0476124Y0147587D03*
X0476124Y0146602D03*
X0476124Y0145618D03*
X0476124Y0145146D03*
X0476124Y0144161D03*
X0476124Y0143177D03*
X0476124Y0142705D03*
X0476124Y0141720D03*
X0476124Y0141248D03*
X0476124Y0140264D03*
X0476124Y0139280D03*
X0476124Y0138807D03*
X0476124Y0137823D03*
X0476124Y0137350D03*
X0476124Y0136366D03*
X0464431Y0153413D03*
X0476124Y0154398D03*
X0476124Y0155382D03*
X0476124Y0155854D03*
X0476124Y0156839D03*
X0476124Y0157823D03*
X0476124Y0158295D03*
X0476124Y0159280D03*
X0476124Y0159752D03*
X0476124Y0160736D03*
X0476124Y0161720D03*
X0476124Y0162193D03*
X0476124Y0163177D03*
X0476124Y0163650D03*
X0476124Y0164634D03*
X0476124Y0165618D03*
X0476124Y0166091D03*
X0476124Y0167075D03*
X0476124Y0168059D03*
X0476124Y0218366D03*
X0476124Y0219350D03*
X0476124Y0219823D03*
X0476124Y0220807D03*
X0476124Y0221280D03*
X0476124Y0222264D03*
X0476124Y0223248D03*
X0476124Y0223720D03*
X0476124Y0224705D03*
X0476124Y0225177D03*
X0476124Y0226161D03*
X0476124Y0227146D03*
X0476124Y0227618D03*
X0476124Y0228602D03*
X0476124Y0229587D03*
X0476124Y0230059D03*
X0476124Y0231043D03*
X0476124Y0231516D03*
X0476124Y0232500D03*
X0476124Y0233484D03*
X0476124Y0233957D03*
X0476124Y0234941D03*
X0476124Y0235413D03*
X0476124Y0236398D03*
X0476124Y0237382D03*
X0476124Y0237854D03*
X0476124Y0238839D03*
X0476124Y0239823D03*
X0476124Y0240295D03*
X0476124Y0241280D03*
X0476124Y0241752D03*
X0476124Y0242736D03*
X0476124Y0243720D03*
X0476124Y0244193D03*
X0476124Y0245177D03*
X0476124Y0245650D03*
X0476124Y0246634D03*
X0476124Y0247618D03*
X0476124Y0248091D03*
X0476124Y0249075D03*
X0476124Y0250059D03*
X0464431Y0235413D03*
X0487817Y0235413D03*
X0487817Y0234941D03*
X0487817Y0233957D03*
X0487817Y0233484D03*
X0487817Y0232500D03*
X0525849Y0218366D03*
X0525849Y0300366D03*
X0487817Y0314500D03*
X0487817Y0315484D03*
X0487817Y0315957D03*
X0487817Y0316941D03*
X0487817Y0317413D03*
X0476124Y0317413D03*
X0476124Y0316941D03*
X0476124Y0315957D03*
X0476124Y0315484D03*
X0476124Y0314500D03*
X0476124Y0313516D03*
X0476124Y0313043D03*
X0476124Y0312059D03*
X0476124Y0311587D03*
X0476124Y0310602D03*
X0476124Y0309618D03*
X0476124Y0309146D03*
X0476124Y0308161D03*
X0476124Y0307177D03*
X0476124Y0306705D03*
X0476124Y0305720D03*
X0476124Y0305248D03*
X0476124Y0304264D03*
X0476124Y0303280D03*
X0476124Y0302807D03*
X0476124Y0301823D03*
X0476124Y0301350D03*
X0476124Y0300366D03*
X0476124Y0318398D03*
X0476124Y0319382D03*
X0476124Y0319854D03*
X0476124Y0320839D03*
X0476124Y0321823D03*
X0476124Y0322295D03*
X0476124Y0323280D03*
X0476124Y0323752D03*
X0476124Y0324736D03*
X0476124Y0325720D03*
X0476124Y0326193D03*
X0476124Y0327177D03*
X0476124Y0327650D03*
X0476124Y0328634D03*
X0476124Y0329618D03*
X0476124Y0330091D03*
X0476124Y0331075D03*
X0476124Y0332059D03*
X0464431Y0317413D03*
X0476124Y0382366D03*
X0476124Y0383350D03*
X0476124Y0383823D03*
X0476124Y0384807D03*
X0476124Y0385280D03*
X0476124Y0386264D03*
X0476124Y0387248D03*
X0476124Y0387720D03*
X0476124Y0388705D03*
X0476124Y0389177D03*
X0476124Y0390161D03*
X0476124Y0391146D03*
X0476124Y0391618D03*
X0476124Y0392602D03*
X0476124Y0393587D03*
X0476124Y0394059D03*
X0476124Y0395043D03*
X0476124Y0395516D03*
X0476124Y0396500D03*
X0476124Y0397484D03*
X0476124Y0397957D03*
X0476124Y0398941D03*
X0476124Y0399413D03*
X0476124Y0400398D03*
X0476124Y0401382D03*
X0476124Y0401854D03*
X0476124Y0402839D03*
X0476124Y0403823D03*
X0476124Y0404295D03*
X0476124Y0405280D03*
X0476124Y0405752D03*
X0476124Y0406736D03*
X0476124Y0407720D03*
X0476124Y0408193D03*
X0476124Y0409177D03*
X0476124Y0409650D03*
X0476124Y0410634D03*
X0476124Y0411618D03*
X0476124Y0412091D03*
X0476124Y0413075D03*
X0476124Y0414059D03*
X0464431Y0399413D03*
X0487817Y0399413D03*
X0487817Y0398941D03*
X0487817Y0397957D03*
X0487817Y0397484D03*
X0487817Y0396500D03*
X0525849Y0382366D03*
D32*
X0450298Y0414059D03*
X0450298Y0332059D03*
X0450298Y0250059D03*
X0450298Y0168059D03*
X0450298Y0086059D03*
D33*
X0567994Y0080685D03*
X0600672Y0085567D03*
X0601144Y0058756D03*
X0601144Y0140756D03*
X0567994Y0162685D03*
X0600672Y0167567D03*
X0601144Y0222756D03*
X0567994Y0244685D03*
X0600672Y0249567D03*
X0601144Y0304756D03*
X0567994Y0326685D03*
X0600672Y0331567D03*
X0601144Y0386756D03*
X0600672Y0413567D03*
X0567994Y0408685D03*
D34*
X0566557Y0413567D03*
X0500731Y0413567D03*
X0500731Y0331567D03*
X0566557Y0331567D03*
X0566557Y0249567D03*
X0500731Y0249567D03*
X0500731Y0167567D03*
X0566557Y0167567D03*
X0566557Y0085567D03*
X0500731Y0085567D03*
D35*
X0513664Y0072890D03*
X0513664Y0066551D03*
X0547286Y0085567D03*
X0513664Y0148551D03*
X0513664Y0154890D03*
X0547286Y0167567D03*
X0513664Y0230551D03*
X0513664Y0236890D03*
X0547286Y0249567D03*
X0513664Y0312551D03*
X0513664Y0318890D03*
X0547286Y0331567D03*
X0513664Y0394551D03*
X0513664Y0400890D03*
X0547286Y0413567D03*
D36*
X0525849Y0413567D03*
X0487817Y0399906D03*
X0487817Y0398449D03*
X0487817Y0396992D03*
X0487817Y0396008D03*
X0476124Y0396008D03*
X0476124Y0396992D03*
X0476124Y0398449D03*
X0476124Y0399906D03*
X0476124Y0400890D03*
X0476124Y0402346D03*
X0476124Y0403331D03*
X0476124Y0404787D03*
X0476124Y0406244D03*
X0476124Y0407228D03*
X0476124Y0408685D03*
X0476124Y0410142D03*
X0476124Y0411126D03*
X0476124Y0412583D03*
X0476124Y0413567D03*
X0464431Y0399906D03*
X0476124Y0394551D03*
X0476124Y0393094D03*
X0476124Y0392110D03*
X0476124Y0390654D03*
X0476124Y0389669D03*
X0476124Y0388213D03*
X0476124Y0386756D03*
X0476124Y0385772D03*
X0476124Y0384315D03*
X0476124Y0382858D03*
X0525849Y0382858D03*
X0525849Y0331567D03*
X0487817Y0317906D03*
X0487817Y0316449D03*
X0487817Y0314992D03*
X0487817Y0314008D03*
X0476124Y0314008D03*
X0476124Y0314992D03*
X0476124Y0316449D03*
X0476124Y0317906D03*
X0476124Y0318890D03*
X0476124Y0320346D03*
X0476124Y0321331D03*
X0476124Y0322787D03*
X0476124Y0324244D03*
X0476124Y0325228D03*
X0476124Y0326685D03*
X0476124Y0328142D03*
X0476124Y0329126D03*
X0476124Y0330583D03*
X0476124Y0331567D03*
X0464431Y0317906D03*
X0476124Y0312551D03*
X0476124Y0311094D03*
X0476124Y0310110D03*
X0476124Y0308654D03*
X0476124Y0307669D03*
X0476124Y0306213D03*
X0476124Y0304756D03*
X0476124Y0303772D03*
X0476124Y0302315D03*
X0476124Y0300858D03*
X0525849Y0300858D03*
X0525849Y0249567D03*
X0487817Y0235906D03*
X0487817Y0234449D03*
X0487817Y0232992D03*
X0487817Y0232008D03*
X0476124Y0232008D03*
X0476124Y0232992D03*
X0476124Y0234449D03*
X0476124Y0235906D03*
X0476124Y0236890D03*
X0476124Y0238346D03*
X0476124Y0239331D03*
X0476124Y0240787D03*
X0476124Y0242244D03*
X0476124Y0243228D03*
X0476124Y0244685D03*
X0476124Y0246142D03*
X0476124Y0247126D03*
X0476124Y0248583D03*
X0476124Y0249567D03*
X0464431Y0235906D03*
X0476124Y0230551D03*
X0476124Y0229094D03*
X0476124Y0228110D03*
X0476124Y0226654D03*
X0476124Y0225669D03*
X0476124Y0224213D03*
X0476124Y0222756D03*
X0476124Y0221772D03*
X0476124Y0220315D03*
X0476124Y0218858D03*
X0525849Y0218858D03*
X0525849Y0167567D03*
X0487817Y0153906D03*
X0487817Y0152449D03*
X0487817Y0150992D03*
X0487817Y0150008D03*
X0476124Y0150008D03*
X0476124Y0150992D03*
X0476124Y0152449D03*
X0476124Y0153906D03*
X0476124Y0154890D03*
X0476124Y0156346D03*
X0476124Y0157331D03*
X0476124Y0158787D03*
X0476124Y0160244D03*
X0476124Y0161228D03*
X0476124Y0162685D03*
X0476124Y0164142D03*
X0476124Y0165126D03*
X0476124Y0166583D03*
X0476124Y0167567D03*
X0464431Y0153906D03*
X0476124Y0148551D03*
X0476124Y0147094D03*
X0476124Y0146110D03*
X0476124Y0144654D03*
X0476124Y0143669D03*
X0476124Y0142213D03*
X0476124Y0140756D03*
X0476124Y0139772D03*
X0476124Y0138315D03*
X0476124Y0136858D03*
X0525849Y0136858D03*
X0525849Y0085567D03*
X0487817Y0071906D03*
X0487817Y0070449D03*
X0487817Y0068992D03*
X0487817Y0068008D03*
X0476124Y0068008D03*
X0476124Y0068992D03*
X0476124Y0070449D03*
X0476124Y0071906D03*
X0476124Y0072890D03*
X0476124Y0074346D03*
X0476124Y0075331D03*
X0476124Y0076787D03*
X0476124Y0078244D03*
X0476124Y0079228D03*
X0476124Y0080685D03*
X0476124Y0082142D03*
X0476124Y0083126D03*
X0476124Y0084583D03*
X0476124Y0085567D03*
X0464431Y0071906D03*
X0476124Y0066551D03*
X0476124Y0065094D03*
X0476124Y0064110D03*
X0476124Y0062654D03*
X0476124Y0061669D03*
X0476124Y0060213D03*
X0476124Y0058756D03*
X0476124Y0057772D03*
X0476124Y0056315D03*
X0476124Y0054858D03*
X0525849Y0054858D03*
D37*
X0500987Y0053874D03*
X0450790Y0085567D03*
X0500987Y0135874D03*
X0450790Y0167567D03*
X0500987Y0217874D03*
X0450790Y0249567D03*
X0500987Y0299874D03*
X0450790Y0331567D03*
X0500987Y0381874D03*
X0450790Y0413567D03*
D38*
X0500987Y0409177D03*
X0600908Y0409650D03*
X0600908Y0410634D03*
X0600908Y0411618D03*
X0600908Y0412091D03*
X0600908Y0413075D03*
X0600908Y0386264D03*
X0600908Y0385280D03*
X0600908Y0384807D03*
X0600908Y0383823D03*
X0600908Y0383350D03*
X0600908Y0331075D03*
X0600908Y0330091D03*
X0600908Y0329618D03*
X0600908Y0328634D03*
X0600908Y0327650D03*
X0600908Y0304264D03*
X0600908Y0303280D03*
X0600908Y0302807D03*
X0600908Y0301823D03*
X0600908Y0301350D03*
X0600908Y0249075D03*
X0600908Y0248091D03*
X0600908Y0247618D03*
X0600908Y0246634D03*
X0600908Y0245650D03*
X0600908Y0222264D03*
X0600908Y0221280D03*
X0600908Y0220807D03*
X0600908Y0219823D03*
X0600908Y0219350D03*
X0600908Y0167075D03*
X0600908Y0166091D03*
X0600908Y0165618D03*
X0600908Y0164634D03*
X0600908Y0163650D03*
X0600908Y0140264D03*
X0600908Y0139280D03*
X0600908Y0138807D03*
X0600908Y0137823D03*
X0600908Y0137350D03*
X0600908Y0085075D03*
X0600908Y0084091D03*
X0600908Y0083618D03*
X0600908Y0082634D03*
X0600908Y0081650D03*
X0600908Y0058264D03*
X0600908Y0057280D03*
X0600908Y0056807D03*
X0600908Y0055823D03*
X0600908Y0055350D03*
X0500987Y0081177D03*
X0500987Y0163177D03*
X0500987Y0245177D03*
X0500987Y0327177D03*
D39*
X0566794Y0331075D03*
X0566794Y0413075D03*
X0566794Y0249075D03*
X0566794Y0167075D03*
X0566794Y0085075D03*
D40*
X0547050Y0085075D03*
X0547050Y0084091D03*
X0547050Y0083618D03*
X0547050Y0082634D03*
X0547050Y0081650D03*
X0547050Y0081177D03*
X0547050Y0080193D03*
X0547050Y0079720D03*
X0547050Y0078736D03*
X0547050Y0077752D03*
X0547050Y0077280D03*
X0547050Y0076295D03*
X0547050Y0075823D03*
X0547050Y0074839D03*
X0547050Y0073854D03*
X0547050Y0066059D03*
X0547050Y0065587D03*
X0547050Y0064602D03*
X0547050Y0063618D03*
X0547050Y0063146D03*
X0547050Y0062161D03*
X0547050Y0061177D03*
X0547050Y0060705D03*
X0547050Y0059720D03*
X0547050Y0059248D03*
X0547050Y0058264D03*
X0547050Y0057280D03*
X0547050Y0056807D03*
X0547050Y0055823D03*
X0547050Y0055350D03*
X0580199Y0067043D03*
X0580199Y0067516D03*
X0580199Y0068500D03*
X0580199Y0069484D03*
X0580199Y0069957D03*
X0580199Y0070941D03*
X0580199Y0071413D03*
X0580199Y0072398D03*
X0514372Y0071413D03*
X0514372Y0070941D03*
X0514372Y0069957D03*
X0514372Y0069484D03*
X0514372Y0068500D03*
X0513900Y0067043D03*
X0513900Y0066059D03*
X0513900Y0072398D03*
X0513900Y0073382D03*
X0513428Y0073854D03*
X0488546Y0073854D03*
X0488073Y0072398D03*
X0488073Y0067516D03*
X0488073Y0067043D03*
X0488546Y0066059D03*
X0488546Y0065587D03*
X0464176Y0067043D03*
X0464176Y0067516D03*
X0464176Y0068500D03*
X0464176Y0069484D03*
X0464176Y0069957D03*
X0464176Y0070941D03*
X0464176Y0072398D03*
X0463703Y0066059D03*
X0463703Y0065587D03*
X0547050Y0137350D03*
X0547050Y0137823D03*
X0547050Y0138807D03*
X0547050Y0139280D03*
X0547050Y0140264D03*
X0547050Y0141248D03*
X0547050Y0141720D03*
X0547050Y0142705D03*
X0547050Y0143177D03*
X0547050Y0144161D03*
X0547050Y0145146D03*
X0547050Y0145618D03*
X0547050Y0146602D03*
X0547050Y0147587D03*
X0547050Y0148059D03*
X0547050Y0155854D03*
X0547050Y0156839D03*
X0547050Y0157823D03*
X0547050Y0158295D03*
X0547050Y0159280D03*
X0547050Y0159752D03*
X0547050Y0160736D03*
X0547050Y0161720D03*
X0547050Y0162193D03*
X0547050Y0163177D03*
X0547050Y0163650D03*
X0547050Y0164634D03*
X0547050Y0165618D03*
X0547050Y0166091D03*
X0547050Y0167075D03*
X0580199Y0154398D03*
X0580199Y0153413D03*
X0580199Y0152941D03*
X0580199Y0151957D03*
X0580199Y0151484D03*
X0580199Y0150500D03*
X0580199Y0149516D03*
X0580199Y0149043D03*
X0514372Y0150500D03*
X0514372Y0151484D03*
X0514372Y0151957D03*
X0514372Y0152941D03*
X0514372Y0153413D03*
X0513900Y0154398D03*
X0513900Y0155382D03*
X0513428Y0155854D03*
X0513900Y0149043D03*
X0513900Y0148059D03*
X0488546Y0148059D03*
X0488546Y0147587D03*
X0488073Y0149043D03*
X0488073Y0149516D03*
X0488073Y0154398D03*
X0488546Y0155854D03*
X0464176Y0154398D03*
X0464176Y0152941D03*
X0464176Y0151957D03*
X0464176Y0151484D03*
X0464176Y0150500D03*
X0464176Y0149516D03*
X0464176Y0149043D03*
X0463703Y0148059D03*
X0463703Y0147587D03*
X0547050Y0219350D03*
X0547050Y0219823D03*
X0547050Y0220807D03*
X0547050Y0221280D03*
X0547050Y0222264D03*
X0547050Y0223248D03*
X0547050Y0223720D03*
X0547050Y0224705D03*
X0547050Y0225177D03*
X0547050Y0226161D03*
X0547050Y0227146D03*
X0547050Y0227618D03*
X0547050Y0228602D03*
X0547050Y0229587D03*
X0547050Y0230059D03*
X0547050Y0237854D03*
X0547050Y0238839D03*
X0547050Y0239823D03*
X0547050Y0240295D03*
X0547050Y0241280D03*
X0547050Y0241752D03*
X0547050Y0242736D03*
X0547050Y0243720D03*
X0547050Y0244193D03*
X0547050Y0245177D03*
X0547050Y0245650D03*
X0547050Y0246634D03*
X0547050Y0247618D03*
X0547050Y0248091D03*
X0547050Y0249075D03*
X0580199Y0236398D03*
X0580199Y0235413D03*
X0580199Y0234941D03*
X0580199Y0233957D03*
X0580199Y0233484D03*
X0580199Y0232500D03*
X0580199Y0231516D03*
X0580199Y0231043D03*
X0514372Y0232500D03*
X0514372Y0233484D03*
X0514372Y0233957D03*
X0514372Y0234941D03*
X0514372Y0235413D03*
X0513900Y0236398D03*
X0513900Y0237382D03*
X0513428Y0237854D03*
X0513900Y0231043D03*
X0513900Y0230059D03*
X0488546Y0230059D03*
X0488546Y0229587D03*
X0488073Y0231043D03*
X0488073Y0231516D03*
X0488073Y0236398D03*
X0488546Y0237854D03*
X0464176Y0236398D03*
X0464176Y0234941D03*
X0464176Y0233957D03*
X0464176Y0233484D03*
X0464176Y0232500D03*
X0464176Y0231516D03*
X0464176Y0231043D03*
X0463703Y0230059D03*
X0463703Y0229587D03*
X0547050Y0301350D03*
X0547050Y0301823D03*
X0547050Y0302807D03*
X0547050Y0303280D03*
X0547050Y0304264D03*
X0547050Y0305248D03*
X0547050Y0305720D03*
X0547050Y0306705D03*
X0547050Y0307177D03*
X0547050Y0308161D03*
X0547050Y0309146D03*
X0547050Y0309618D03*
X0547050Y0310602D03*
X0547050Y0311587D03*
X0547050Y0312059D03*
X0547050Y0319854D03*
X0547050Y0320839D03*
X0547050Y0321823D03*
X0547050Y0322295D03*
X0547050Y0323280D03*
X0547050Y0323752D03*
X0547050Y0324736D03*
X0547050Y0325720D03*
X0547050Y0326193D03*
X0547050Y0327177D03*
X0547050Y0327650D03*
X0547050Y0328634D03*
X0547050Y0329618D03*
X0547050Y0330091D03*
X0547050Y0331075D03*
X0580199Y0318398D03*
X0580199Y0317413D03*
X0580199Y0316941D03*
X0580199Y0315957D03*
X0580199Y0315484D03*
X0580199Y0314500D03*
X0580199Y0313516D03*
X0580199Y0313043D03*
X0514372Y0314500D03*
X0514372Y0315484D03*
X0514372Y0315957D03*
X0514372Y0316941D03*
X0514372Y0317413D03*
X0513900Y0318398D03*
X0513900Y0319382D03*
X0513428Y0319854D03*
X0513900Y0313043D03*
X0513900Y0312059D03*
X0488546Y0312059D03*
X0488546Y0311587D03*
X0488073Y0313043D03*
X0488073Y0313516D03*
X0488073Y0318398D03*
X0488546Y0319854D03*
X0464176Y0318398D03*
X0464176Y0316941D03*
X0464176Y0315957D03*
X0464176Y0315484D03*
X0464176Y0314500D03*
X0464176Y0313516D03*
X0464176Y0313043D03*
X0463703Y0312059D03*
X0463703Y0311587D03*
X0547050Y0383350D03*
X0547050Y0383823D03*
X0547050Y0384807D03*
X0547050Y0385280D03*
X0547050Y0386264D03*
X0547050Y0387248D03*
X0547050Y0387720D03*
X0547050Y0388705D03*
X0547050Y0389177D03*
X0547050Y0390161D03*
X0547050Y0391146D03*
X0547050Y0391618D03*
X0547050Y0392602D03*
X0547050Y0393587D03*
X0547050Y0394059D03*
X0547050Y0401854D03*
X0547050Y0402839D03*
X0547050Y0403823D03*
X0547050Y0404295D03*
X0547050Y0405280D03*
X0547050Y0405752D03*
X0547050Y0406736D03*
X0547050Y0407720D03*
X0547050Y0408193D03*
X0547050Y0409177D03*
X0547050Y0409650D03*
X0547050Y0410634D03*
X0547050Y0411618D03*
X0547050Y0412091D03*
X0547050Y0413075D03*
X0580199Y0400398D03*
X0580199Y0399413D03*
X0580199Y0398941D03*
X0580199Y0397957D03*
X0580199Y0397484D03*
X0580199Y0396500D03*
X0580199Y0395516D03*
X0580199Y0395043D03*
X0514372Y0396500D03*
X0514372Y0397484D03*
X0514372Y0397957D03*
X0514372Y0398941D03*
X0514372Y0399413D03*
X0513900Y0400398D03*
X0513900Y0401382D03*
X0513428Y0401854D03*
X0513900Y0395043D03*
X0513900Y0394059D03*
X0488546Y0394059D03*
X0488546Y0393587D03*
X0488073Y0395043D03*
X0488073Y0395516D03*
X0488073Y0400398D03*
X0488546Y0401854D03*
X0464176Y0400398D03*
X0464176Y0398941D03*
X0464176Y0397957D03*
X0464176Y0397484D03*
X0464176Y0396500D03*
X0464176Y0395516D03*
X0464176Y0395043D03*
X0463703Y0394059D03*
X0463703Y0393587D03*
D41*
X0526085Y0393587D03*
X0526085Y0394059D03*
X0526085Y0392602D03*
X0526085Y0391618D03*
X0526085Y0391146D03*
X0526085Y0390161D03*
X0526085Y0389177D03*
X0526085Y0388705D03*
X0526085Y0387720D03*
X0526085Y0387248D03*
X0526085Y0386264D03*
X0526085Y0385280D03*
X0526085Y0384807D03*
X0526085Y0383823D03*
X0526085Y0383350D03*
X0526085Y0401854D03*
X0526085Y0402839D03*
X0526085Y0403823D03*
X0526085Y0404295D03*
X0526085Y0405280D03*
X0526085Y0405752D03*
X0526085Y0406736D03*
X0526085Y0407720D03*
X0526085Y0408193D03*
X0526085Y0409177D03*
X0526085Y0409650D03*
X0526085Y0410634D03*
X0526085Y0411618D03*
X0526085Y0412091D03*
X0526085Y0413075D03*
X0579707Y0393587D03*
X0610416Y0393587D03*
X0610416Y0392602D03*
X0610416Y0391618D03*
X0610416Y0391146D03*
X0610416Y0390161D03*
X0610416Y0389177D03*
X0610416Y0402839D03*
X0610416Y0403823D03*
X0610416Y0404295D03*
X0610416Y0405280D03*
X0610416Y0405752D03*
X0610416Y0406736D03*
X0526085Y0331075D03*
X0526085Y0330091D03*
X0526085Y0329618D03*
X0526085Y0328634D03*
X0526085Y0327650D03*
X0526085Y0327177D03*
X0526085Y0326193D03*
X0526085Y0325720D03*
X0526085Y0324736D03*
X0526085Y0323752D03*
X0526085Y0323280D03*
X0526085Y0322295D03*
X0526085Y0321823D03*
X0526085Y0320839D03*
X0526085Y0319854D03*
X0526085Y0312059D03*
X0526085Y0311587D03*
X0526085Y0310602D03*
X0526085Y0309618D03*
X0526085Y0309146D03*
X0526085Y0308161D03*
X0526085Y0307177D03*
X0526085Y0306705D03*
X0526085Y0305720D03*
X0526085Y0305248D03*
X0526085Y0304264D03*
X0526085Y0303280D03*
X0526085Y0302807D03*
X0526085Y0301823D03*
X0526085Y0301350D03*
X0579707Y0311587D03*
X0610416Y0311587D03*
X0610416Y0310602D03*
X0610416Y0309618D03*
X0610416Y0309146D03*
X0610416Y0308161D03*
X0610416Y0307177D03*
X0610416Y0320839D03*
X0610416Y0321823D03*
X0610416Y0322295D03*
X0610416Y0323280D03*
X0610416Y0323752D03*
X0610416Y0324736D03*
X0526085Y0249075D03*
X0526085Y0248091D03*
X0526085Y0247618D03*
X0526085Y0246634D03*
X0526085Y0245650D03*
X0526085Y0245177D03*
X0526085Y0244193D03*
X0526085Y0243720D03*
X0526085Y0242736D03*
X0526085Y0241752D03*
X0526085Y0241280D03*
X0526085Y0240295D03*
X0526085Y0239823D03*
X0526085Y0238839D03*
X0526085Y0237854D03*
X0526085Y0230059D03*
X0526085Y0229587D03*
X0526085Y0228602D03*
X0526085Y0227618D03*
X0526085Y0227146D03*
X0526085Y0226161D03*
X0526085Y0225177D03*
X0526085Y0224705D03*
X0526085Y0223720D03*
X0526085Y0223248D03*
X0526085Y0222264D03*
X0526085Y0221280D03*
X0526085Y0220807D03*
X0526085Y0219823D03*
X0526085Y0219350D03*
X0579707Y0229587D03*
X0610416Y0229587D03*
X0610416Y0228602D03*
X0610416Y0227618D03*
X0610416Y0227146D03*
X0610416Y0226161D03*
X0610416Y0225177D03*
X0610416Y0238839D03*
X0610416Y0239823D03*
X0610416Y0240295D03*
X0610416Y0241280D03*
X0610416Y0241752D03*
X0610416Y0242736D03*
X0526085Y0167075D03*
X0526085Y0166091D03*
X0526085Y0165618D03*
X0526085Y0164634D03*
X0526085Y0163650D03*
X0526085Y0163177D03*
X0526085Y0162193D03*
X0526085Y0161720D03*
X0526085Y0160736D03*
X0526085Y0159752D03*
X0526085Y0159280D03*
X0526085Y0158295D03*
X0526085Y0157823D03*
X0526085Y0156839D03*
X0526085Y0155854D03*
X0526085Y0148059D03*
X0526085Y0147587D03*
X0526085Y0146602D03*
X0526085Y0145618D03*
X0526085Y0145146D03*
X0526085Y0144161D03*
X0526085Y0143177D03*
X0526085Y0142705D03*
X0526085Y0141720D03*
X0526085Y0141248D03*
X0526085Y0140264D03*
X0526085Y0139280D03*
X0526085Y0138807D03*
X0526085Y0137823D03*
X0526085Y0137350D03*
X0579707Y0147587D03*
X0610416Y0147587D03*
X0610416Y0146602D03*
X0610416Y0145618D03*
X0610416Y0145146D03*
X0610416Y0144161D03*
X0610416Y0143177D03*
X0610416Y0156839D03*
X0610416Y0157823D03*
X0610416Y0158295D03*
X0610416Y0159280D03*
X0610416Y0159752D03*
X0610416Y0160736D03*
X0526085Y0085075D03*
X0526085Y0084091D03*
X0526085Y0083618D03*
X0526085Y0082634D03*
X0526085Y0081650D03*
X0526085Y0081177D03*
X0526085Y0080193D03*
X0526085Y0079720D03*
X0526085Y0078736D03*
X0526085Y0077752D03*
X0526085Y0077280D03*
X0526085Y0076295D03*
X0526085Y0075823D03*
X0526085Y0074839D03*
X0526085Y0073854D03*
X0526085Y0066059D03*
X0526085Y0065587D03*
X0526085Y0064602D03*
X0526085Y0063618D03*
X0526085Y0063146D03*
X0526085Y0062161D03*
X0526085Y0061177D03*
X0526085Y0060705D03*
X0526085Y0059720D03*
X0526085Y0059248D03*
X0526085Y0058264D03*
X0526085Y0057280D03*
X0526085Y0056807D03*
X0526085Y0055823D03*
X0526085Y0055350D03*
X0579707Y0065587D03*
X0610416Y0065587D03*
X0610416Y0064602D03*
X0610416Y0063618D03*
X0610416Y0063146D03*
X0610416Y0062161D03*
X0610416Y0061177D03*
X0610416Y0074839D03*
X0610416Y0075823D03*
X0610416Y0076295D03*
X0610416Y0077280D03*
X0610416Y0077752D03*
X0610416Y0078736D03*
D42*
X0500987Y0085075D03*
X0500987Y0167075D03*
X0500987Y0249075D03*
X0500987Y0331075D03*
X0500987Y0413075D03*
D43*
X0450534Y0413075D03*
X0450534Y0331075D03*
X0450534Y0249075D03*
X0450534Y0167075D03*
X0450534Y0085075D03*
D44*
X0500987Y0080685D03*
X0500987Y0058756D03*
X0600908Y0057772D03*
X0600908Y0056315D03*
X0600908Y0054858D03*
X0600908Y0082142D03*
X0600908Y0083126D03*
X0600908Y0084583D03*
X0600908Y0136858D03*
X0600908Y0138315D03*
X0600908Y0139772D03*
X0600908Y0164142D03*
X0600908Y0165126D03*
X0600908Y0166583D03*
X0600908Y0218858D03*
X0600908Y0220315D03*
X0600908Y0221772D03*
X0600908Y0246142D03*
X0600908Y0247126D03*
X0600908Y0248583D03*
X0600908Y0300858D03*
X0600908Y0302315D03*
X0600908Y0303772D03*
X0600908Y0328142D03*
X0600908Y0329126D03*
X0600908Y0330583D03*
X0600908Y0382858D03*
X0600908Y0384315D03*
X0600908Y0385772D03*
X0600908Y0410142D03*
X0600908Y0411126D03*
X0600908Y0412583D03*
X0500987Y0408685D03*
X0500987Y0386756D03*
X0500987Y0326685D03*
X0500987Y0304756D03*
X0500987Y0244685D03*
X0500987Y0222756D03*
X0500987Y0162685D03*
X0500987Y0140756D03*
D45*
X0450770Y0166583D03*
X0566794Y0166583D03*
X0566794Y0084583D03*
X0450770Y0084583D03*
X0450770Y0248583D03*
X0566794Y0248583D03*
X0566794Y0330583D03*
X0450770Y0330583D03*
X0450770Y0412583D03*
X0566794Y0412583D03*
D46*
X0559727Y0407228D03*
X0547050Y0407228D03*
X0547050Y0406244D03*
X0547050Y0404787D03*
X0547050Y0403331D03*
X0547050Y0402346D03*
X0547050Y0408685D03*
X0547050Y0410142D03*
X0547050Y0411126D03*
X0547050Y0412583D03*
X0547050Y0393094D03*
X0547050Y0392110D03*
X0547050Y0390654D03*
X0547050Y0389669D03*
X0547050Y0388213D03*
X0547050Y0386756D03*
X0547050Y0385772D03*
X0547050Y0384315D03*
X0547050Y0382858D03*
X0566538Y0380417D03*
X0580199Y0396008D03*
X0580199Y0396992D03*
X0580199Y0398449D03*
X0580199Y0399906D03*
X0580199Y0400890D03*
X0514372Y0398449D03*
X0514372Y0396992D03*
X0514372Y0396008D03*
X0513428Y0402346D03*
X0488546Y0402346D03*
X0488073Y0400890D03*
X0488546Y0393094D03*
X0464176Y0396008D03*
X0464176Y0396992D03*
X0464176Y0398449D03*
X0464176Y0400890D03*
X0443703Y0407228D03*
X0547050Y0330583D03*
X0547050Y0329126D03*
X0547050Y0328142D03*
X0547050Y0326685D03*
X0547050Y0325228D03*
X0547050Y0324244D03*
X0547050Y0322787D03*
X0547050Y0321331D03*
X0547050Y0320346D03*
X0559727Y0325228D03*
X0547050Y0311094D03*
X0547050Y0310110D03*
X0547050Y0308654D03*
X0547050Y0307669D03*
X0547050Y0306213D03*
X0547050Y0304756D03*
X0547050Y0303772D03*
X0547050Y0302315D03*
X0547050Y0300858D03*
X0566538Y0298417D03*
X0580199Y0314008D03*
X0580199Y0314992D03*
X0580199Y0316449D03*
X0580199Y0317906D03*
X0580199Y0318890D03*
X0514372Y0316449D03*
X0514372Y0314992D03*
X0514372Y0314008D03*
X0513428Y0320346D03*
X0488546Y0320346D03*
X0488073Y0318890D03*
X0488546Y0311094D03*
X0464176Y0314008D03*
X0464176Y0314992D03*
X0464176Y0316449D03*
X0464176Y0318890D03*
X0443703Y0325228D03*
X0547050Y0248583D03*
X0547050Y0247126D03*
X0547050Y0246142D03*
X0547050Y0244685D03*
X0547050Y0243228D03*
X0547050Y0242244D03*
X0547050Y0240787D03*
X0547050Y0239331D03*
X0547050Y0238346D03*
X0559727Y0243228D03*
X0547050Y0229094D03*
X0547050Y0228110D03*
X0547050Y0226654D03*
X0547050Y0225669D03*
X0547050Y0224213D03*
X0547050Y0222756D03*
X0547050Y0221772D03*
X0547050Y0220315D03*
X0547050Y0218858D03*
X0566538Y0216417D03*
X0580199Y0232008D03*
X0580199Y0232992D03*
X0580199Y0234449D03*
X0580199Y0235906D03*
X0580199Y0236890D03*
X0514372Y0234449D03*
X0514372Y0232992D03*
X0514372Y0232008D03*
X0513428Y0238346D03*
X0488546Y0238346D03*
X0488073Y0236890D03*
X0488546Y0229094D03*
X0464176Y0232008D03*
X0464176Y0232992D03*
X0464176Y0234449D03*
X0464176Y0236890D03*
X0443703Y0243228D03*
X0547050Y0166583D03*
X0547050Y0165126D03*
X0547050Y0164142D03*
X0547050Y0162685D03*
X0547050Y0161228D03*
X0547050Y0160244D03*
X0547050Y0158787D03*
X0547050Y0157331D03*
X0547050Y0156346D03*
X0559727Y0161228D03*
X0547050Y0147094D03*
X0547050Y0146110D03*
X0547050Y0144654D03*
X0547050Y0143669D03*
X0547050Y0142213D03*
X0547050Y0140756D03*
X0547050Y0139772D03*
X0547050Y0138315D03*
X0547050Y0136858D03*
X0566538Y0134417D03*
X0580199Y0150008D03*
X0580199Y0150992D03*
X0580199Y0152449D03*
X0580199Y0153906D03*
X0580199Y0154890D03*
X0514372Y0152449D03*
X0514372Y0150992D03*
X0514372Y0150008D03*
X0513428Y0156346D03*
X0488546Y0156346D03*
X0488073Y0154890D03*
X0488546Y0147094D03*
X0464176Y0150008D03*
X0464176Y0150992D03*
X0464176Y0152449D03*
X0464176Y0154890D03*
X0443703Y0161228D03*
X0547050Y0084583D03*
X0547050Y0083126D03*
X0547050Y0082142D03*
X0547050Y0080685D03*
X0547050Y0079228D03*
X0547050Y0078244D03*
X0547050Y0076787D03*
X0547050Y0075331D03*
X0547050Y0074346D03*
X0547050Y0065094D03*
X0547050Y0064110D03*
X0547050Y0062654D03*
X0547050Y0061669D03*
X0547050Y0060213D03*
X0547050Y0058756D03*
X0547050Y0057772D03*
X0547050Y0056315D03*
X0547050Y0054858D03*
X0566538Y0052417D03*
X0580199Y0068008D03*
X0580199Y0068992D03*
X0580199Y0070449D03*
X0580199Y0071906D03*
X0580199Y0072890D03*
X0559727Y0079228D03*
X0514372Y0070449D03*
X0514372Y0068992D03*
X0514372Y0068008D03*
X0513428Y0074346D03*
X0488546Y0074346D03*
X0488073Y0072890D03*
X0488546Y0065094D03*
X0464176Y0068008D03*
X0464176Y0068992D03*
X0464176Y0070449D03*
X0464176Y0072890D03*
X0443703Y0079228D03*
D47*
X0526085Y0079228D03*
X0526085Y0078244D03*
X0526085Y0076787D03*
X0526085Y0075331D03*
X0526085Y0074346D03*
X0526085Y0080685D03*
X0526085Y0082142D03*
X0526085Y0083126D03*
X0526085Y0084583D03*
X0526085Y0065094D03*
X0526085Y0064110D03*
X0526085Y0062654D03*
X0526085Y0061669D03*
X0526085Y0060213D03*
X0526085Y0058756D03*
X0526085Y0057772D03*
X0526085Y0056315D03*
X0610416Y0061669D03*
X0610416Y0062654D03*
X0610416Y0064110D03*
X0610416Y0065094D03*
X0610416Y0075331D03*
X0610416Y0076787D03*
X0610416Y0078244D03*
X0610416Y0079228D03*
X0526085Y0138315D03*
X0526085Y0139772D03*
X0526085Y0140756D03*
X0526085Y0142213D03*
X0526085Y0143669D03*
X0526085Y0144654D03*
X0526085Y0146110D03*
X0526085Y0147094D03*
X0526085Y0156346D03*
X0526085Y0157331D03*
X0526085Y0158787D03*
X0526085Y0160244D03*
X0526085Y0161228D03*
X0526085Y0162685D03*
X0526085Y0164142D03*
X0526085Y0165126D03*
X0526085Y0166583D03*
X0610416Y0161228D03*
X0610416Y0160244D03*
X0610416Y0158787D03*
X0610416Y0157331D03*
X0610416Y0147094D03*
X0610416Y0146110D03*
X0610416Y0144654D03*
X0610416Y0143669D03*
X0526085Y0220315D03*
X0526085Y0221772D03*
X0526085Y0222756D03*
X0526085Y0224213D03*
X0526085Y0225669D03*
X0526085Y0226654D03*
X0526085Y0228110D03*
X0526085Y0229094D03*
X0526085Y0238346D03*
X0526085Y0239331D03*
X0526085Y0240787D03*
X0526085Y0242244D03*
X0526085Y0243228D03*
X0526085Y0244685D03*
X0526085Y0246142D03*
X0526085Y0247126D03*
X0526085Y0248583D03*
X0610416Y0243228D03*
X0610416Y0242244D03*
X0610416Y0240787D03*
X0610416Y0239331D03*
X0610416Y0229094D03*
X0610416Y0228110D03*
X0610416Y0226654D03*
X0610416Y0225669D03*
X0526085Y0302315D03*
X0526085Y0303772D03*
X0526085Y0304756D03*
X0526085Y0306213D03*
X0526085Y0307669D03*
X0526085Y0308654D03*
X0526085Y0310110D03*
X0526085Y0311094D03*
X0526085Y0320346D03*
X0526085Y0321331D03*
X0526085Y0322787D03*
X0526085Y0324244D03*
X0526085Y0325228D03*
X0526085Y0326685D03*
X0526085Y0328142D03*
X0526085Y0329126D03*
X0526085Y0330583D03*
X0526085Y0384315D03*
X0526085Y0385772D03*
X0526085Y0386756D03*
X0526085Y0388213D03*
X0526085Y0389669D03*
X0526085Y0390654D03*
X0526085Y0392110D03*
X0526085Y0393094D03*
X0526085Y0402346D03*
X0526085Y0403331D03*
X0526085Y0404787D03*
X0526085Y0406244D03*
X0526085Y0407228D03*
X0526085Y0408685D03*
X0526085Y0410142D03*
X0526085Y0411126D03*
X0526085Y0412583D03*
X0610416Y0407228D03*
X0610416Y0406244D03*
X0610416Y0404787D03*
X0610416Y0403331D03*
X0610416Y0393094D03*
X0610416Y0392110D03*
X0610416Y0390654D03*
X0610416Y0389669D03*
X0610416Y0325228D03*
X0610416Y0324244D03*
X0610416Y0322787D03*
X0610416Y0321331D03*
X0610416Y0311094D03*
X0610416Y0310110D03*
X0610416Y0308654D03*
X0610416Y0307669D03*
D48*
X0566557Y0300858D03*
X0501243Y0330583D03*
X0566557Y0382858D03*
X0501243Y0412583D03*
X0501243Y0248583D03*
X0566557Y0218858D03*
X0501243Y0166583D03*
X0566557Y0136858D03*
X0501243Y0084583D03*
X0566557Y0054858D03*
D49*
X0603585Y0069484D03*
X0603585Y0069957D03*
X0566538Y0084091D03*
X0603585Y0151484D03*
X0603585Y0151957D03*
X0566538Y0166091D03*
X0603585Y0233484D03*
X0603585Y0233957D03*
X0566538Y0248091D03*
X0603585Y0315484D03*
X0603585Y0315957D03*
X0566538Y0330091D03*
X0603585Y0397484D03*
X0603585Y0397957D03*
X0566538Y0412091D03*
D50*
X0603821Y0400398D03*
X0603821Y0399413D03*
X0603821Y0398941D03*
X0603821Y0396500D03*
X0603821Y0395516D03*
X0603821Y0395043D03*
X0500987Y0383823D03*
X0500987Y0412091D03*
X0500987Y0330091D03*
X0500987Y0301823D03*
X0500987Y0248091D03*
X0500987Y0219823D03*
X0500987Y0166091D03*
X0500987Y0137823D03*
X0500987Y0084091D03*
X0500987Y0055823D03*
X0603821Y0067043D03*
X0603821Y0067516D03*
X0603821Y0068500D03*
X0603821Y0070941D03*
X0603821Y0071413D03*
X0603821Y0072398D03*
X0603821Y0149043D03*
X0603821Y0149516D03*
X0603821Y0150500D03*
X0603821Y0152941D03*
X0603821Y0153413D03*
X0603821Y0154398D03*
X0603821Y0231043D03*
X0603821Y0231516D03*
X0603821Y0232500D03*
X0603821Y0234941D03*
X0603821Y0235413D03*
X0603821Y0236398D03*
X0603821Y0313043D03*
X0603821Y0313516D03*
X0603821Y0314500D03*
X0603821Y0316941D03*
X0603821Y0317413D03*
X0603821Y0318398D03*
D51*
X0566794Y0301823D03*
X0500967Y0329618D03*
X0450770Y0330091D03*
X0566794Y0383823D03*
X0500967Y0411618D03*
X0450770Y0412091D03*
X0450770Y0248091D03*
X0500967Y0247618D03*
X0566794Y0219823D03*
X0500967Y0165618D03*
X0450770Y0166091D03*
X0566794Y0137823D03*
X0500967Y0083618D03*
X0450770Y0084091D03*
X0566794Y0055823D03*
D52*
X0567030Y0083618D03*
X0567030Y0165618D03*
X0567030Y0247618D03*
X0567030Y0329618D03*
X0567030Y0411618D03*
D53*
X0500987Y0384807D03*
X0450790Y0411618D03*
X0450790Y0329618D03*
X0500987Y0302807D03*
X0450790Y0247618D03*
X0500987Y0220807D03*
X0450790Y0165618D03*
X0500987Y0138807D03*
X0450790Y0083618D03*
X0500987Y0056807D03*
D54*
X0501223Y0083126D03*
X0451026Y0083126D03*
X0567050Y0083126D03*
X0567050Y0165126D03*
X0501223Y0165126D03*
X0451026Y0165126D03*
X0451026Y0247126D03*
X0501223Y0247126D03*
X0567050Y0247126D03*
X0567050Y0329126D03*
X0501223Y0329126D03*
X0451026Y0329126D03*
X0451026Y0411126D03*
X0501223Y0411126D03*
X0567050Y0411126D03*
D55*
X0567030Y0410634D03*
X0567030Y0385280D03*
X0567030Y0328634D03*
X0567030Y0303280D03*
X0567030Y0246634D03*
X0567030Y0221280D03*
X0567030Y0164634D03*
X0567030Y0139280D03*
X0567030Y0082634D03*
X0567030Y0057280D03*
X0451006Y0057280D03*
X0451006Y0082634D03*
X0451006Y0139280D03*
X0451006Y0164634D03*
X0451006Y0221280D03*
X0451006Y0246634D03*
X0451006Y0303280D03*
X0451006Y0328634D03*
X0451006Y0385280D03*
X0451006Y0410634D03*
D56*
X0500987Y0410634D03*
X0500987Y0385280D03*
X0500987Y0328634D03*
X0500987Y0303280D03*
X0500987Y0246634D03*
X0500987Y0221280D03*
X0500987Y0164634D03*
X0500987Y0139280D03*
X0500987Y0082634D03*
X0500987Y0057280D03*
X0600908Y0052909D03*
X0600908Y0134909D03*
X0600908Y0216909D03*
X0600908Y0298909D03*
X0600908Y0380909D03*
D57*
X0567266Y0385772D03*
X0567266Y0410142D03*
X0567266Y0328142D03*
X0567266Y0303772D03*
X0567266Y0246142D03*
X0567266Y0221772D03*
X0567266Y0164142D03*
X0567266Y0139772D03*
X0567266Y0082142D03*
X0567266Y0057772D03*
D58*
X0500987Y0057772D03*
X0500987Y0082142D03*
X0451262Y0082142D03*
X0451262Y0057772D03*
X0451262Y0139772D03*
X0451262Y0164142D03*
X0500987Y0164142D03*
X0500987Y0139772D03*
X0500987Y0221772D03*
X0500987Y0246142D03*
X0451262Y0246142D03*
X0451262Y0221772D03*
X0451262Y0303772D03*
X0451262Y0328142D03*
X0500987Y0328142D03*
X0500987Y0303772D03*
X0500987Y0385772D03*
X0500987Y0410142D03*
X0451262Y0410142D03*
X0451262Y0385772D03*
D59*
X0452483Y0407720D03*
X0568506Y0407720D03*
X0568506Y0408193D03*
X0601144Y0408193D03*
X0601144Y0409177D03*
X0601144Y0382366D03*
X0601144Y0327177D03*
X0601144Y0326193D03*
X0568506Y0326193D03*
X0568506Y0325720D03*
X0601144Y0300366D03*
X0601144Y0245177D03*
X0601144Y0244193D03*
X0568506Y0244193D03*
X0568506Y0243720D03*
X0601144Y0218366D03*
X0601144Y0163177D03*
X0601144Y0162193D03*
X0568506Y0162193D03*
X0568506Y0161720D03*
X0601144Y0136366D03*
X0601144Y0081177D03*
X0601144Y0080193D03*
X0568506Y0080193D03*
X0568506Y0079720D03*
X0601144Y0054366D03*
X0452483Y0079720D03*
X0452483Y0161720D03*
X0452483Y0243720D03*
X0452483Y0325720D03*
D60*
X0452719Y0306213D03*
X0451735Y0304756D03*
X0567758Y0304756D03*
X0568743Y0306213D03*
X0601380Y0306213D03*
X0600908Y0299874D03*
X0601380Y0326685D03*
X0600908Y0381874D03*
X0601380Y0388213D03*
X0601380Y0408685D03*
X0568743Y0388213D03*
X0567758Y0386756D03*
X0452719Y0388213D03*
X0451735Y0386756D03*
X0601380Y0244685D03*
X0601380Y0224213D03*
X0600908Y0217874D03*
X0568743Y0224213D03*
X0567758Y0222756D03*
X0601380Y0162685D03*
X0601380Y0142213D03*
X0600908Y0135874D03*
X0568743Y0142213D03*
X0567758Y0140756D03*
X0601380Y0080685D03*
X0601380Y0060213D03*
X0600908Y0053874D03*
X0568743Y0060213D03*
X0567758Y0058756D03*
X0452719Y0060213D03*
X0451735Y0058756D03*
X0451735Y0140756D03*
X0452719Y0142213D03*
X0451735Y0222756D03*
X0452719Y0224213D03*
D61*
X0451991Y0244685D03*
X0451991Y0162685D03*
X0451991Y0080685D03*
X0451991Y0326685D03*
X0451991Y0408685D03*
D62*
X0500987Y0408193D03*
X0500987Y0387720D03*
X0500987Y0387248D03*
X0500987Y0326193D03*
X0500987Y0305720D03*
X0500987Y0305248D03*
X0500987Y0244193D03*
X0500987Y0223720D03*
X0500987Y0223248D03*
X0500987Y0162193D03*
X0500987Y0141720D03*
X0500987Y0141248D03*
X0500987Y0080193D03*
X0500987Y0059720D03*
X0500987Y0059248D03*
D63*
X0601636Y0079720D03*
X0601636Y0161720D03*
X0601636Y0243720D03*
X0601636Y0325720D03*
X0601636Y0407720D03*
D64*
X0536577Y0401382D03*
X0536577Y0400398D03*
X0536577Y0399413D03*
X0536577Y0398941D03*
X0536577Y0397957D03*
X0536577Y0397484D03*
X0536577Y0396500D03*
X0536577Y0395516D03*
X0536577Y0395043D03*
X0500987Y0407720D03*
X0500987Y0325720D03*
X0536577Y0319382D03*
X0536577Y0318398D03*
X0536577Y0317413D03*
X0536577Y0316941D03*
X0536577Y0315957D03*
X0536577Y0315484D03*
X0536577Y0314500D03*
X0536577Y0313516D03*
X0536577Y0313043D03*
X0500987Y0243720D03*
X0536577Y0237382D03*
X0536577Y0236398D03*
X0536577Y0235413D03*
X0536577Y0234941D03*
X0536577Y0233957D03*
X0536577Y0233484D03*
X0536577Y0232500D03*
X0536577Y0231516D03*
X0536577Y0231043D03*
X0500987Y0161720D03*
X0536577Y0155382D03*
X0536577Y0154398D03*
X0536577Y0153413D03*
X0536577Y0152941D03*
X0536577Y0151957D03*
X0536577Y0151484D03*
X0536577Y0150500D03*
X0536577Y0149516D03*
X0536577Y0149043D03*
X0500987Y0079720D03*
X0536577Y0073382D03*
X0536577Y0072398D03*
X0536577Y0071413D03*
X0536577Y0070941D03*
X0536577Y0069957D03*
X0536577Y0069484D03*
X0536577Y0068500D03*
X0536577Y0067516D03*
X0536577Y0067043D03*
D65*
X0575809Y0079228D03*
X0575809Y0161228D03*
X0575809Y0243228D03*
X0575809Y0325228D03*
X0575809Y0407228D03*
D66*
X0510002Y0407228D03*
X0510002Y0325228D03*
X0510002Y0243228D03*
X0510002Y0161228D03*
X0510002Y0079228D03*
D67*
X0492207Y0079228D03*
X0492207Y0161228D03*
X0492207Y0243228D03*
X0492207Y0325228D03*
X0492207Y0407228D03*
D68*
X0459806Y0407228D03*
X0459806Y0325228D03*
X0459806Y0243228D03*
X0459806Y0161228D03*
X0459806Y0079228D03*
D69*
X0576046Y0078736D03*
X0576046Y0160736D03*
X0576046Y0242736D03*
X0576046Y0324736D03*
X0576046Y0406736D03*
D70*
X0510239Y0406736D03*
X0510239Y0324736D03*
X0510239Y0242736D03*
X0510239Y0160736D03*
X0510239Y0078736D03*
D71*
X0491951Y0078736D03*
X0492463Y0060705D03*
X0460298Y0061177D03*
X0450534Y0052909D03*
X0566557Y0052909D03*
X0576282Y0061177D03*
X0566557Y0134909D03*
X0576282Y0143177D03*
X0492463Y0142705D03*
X0491951Y0160736D03*
X0460298Y0143177D03*
X0450534Y0134909D03*
X0450534Y0216909D03*
X0460298Y0225177D03*
X0492463Y0224705D03*
X0491951Y0242736D03*
X0566557Y0216909D03*
X0576282Y0225177D03*
X0566557Y0298909D03*
X0576282Y0307177D03*
X0492463Y0306705D03*
X0491951Y0324736D03*
X0460298Y0307177D03*
X0450534Y0298909D03*
X0450534Y0380909D03*
X0460298Y0389177D03*
X0492463Y0388705D03*
X0491951Y0406736D03*
X0566557Y0380909D03*
X0576282Y0389177D03*
D72*
X0460042Y0406736D03*
X0460042Y0324736D03*
X0460042Y0242736D03*
X0460042Y0160736D03*
X0460042Y0078736D03*
D73*
X0577030Y0078244D03*
X0577030Y0160244D03*
X0577030Y0242244D03*
X0577030Y0324244D03*
X0577030Y0406244D03*
D74*
X0559235Y0406244D03*
X0559235Y0324244D03*
X0559235Y0242244D03*
X0559235Y0160244D03*
X0559235Y0078244D03*
D75*
X0577758Y0077752D03*
X0510475Y0061177D03*
X0510475Y0143177D03*
X0577758Y0159752D03*
X0510475Y0225177D03*
X0577758Y0241752D03*
X0510475Y0307177D03*
X0577758Y0323752D03*
X0510475Y0389177D03*
X0577758Y0405752D03*
D76*
X0558979Y0405752D03*
X0558979Y0390161D03*
X0558979Y0323752D03*
X0558979Y0308161D03*
X0558979Y0241752D03*
X0558979Y0226161D03*
X0558979Y0159752D03*
X0558979Y0144161D03*
X0558979Y0077752D03*
X0558979Y0062161D03*
D77*
X0577758Y0062161D03*
X0511459Y0062161D03*
X0511459Y0077752D03*
X0511459Y0144161D03*
X0511459Y0159752D03*
X0577758Y0144161D03*
X0577758Y0226161D03*
X0511459Y0226161D03*
X0511459Y0241752D03*
X0511459Y0308161D03*
X0511459Y0323752D03*
X0577758Y0308161D03*
X0577758Y0390161D03*
X0511459Y0390161D03*
X0511459Y0405752D03*
D78*
X0490494Y0405752D03*
X0490022Y0405280D03*
X0490494Y0390161D03*
X0461754Y0390161D03*
X0462227Y0405280D03*
X0461754Y0405752D03*
X0578250Y0405280D03*
X0578250Y0323280D03*
X0490494Y0323752D03*
X0490022Y0323280D03*
X0490494Y0308161D03*
X0461754Y0308161D03*
X0462227Y0323280D03*
X0461754Y0323752D03*
X0461754Y0241752D03*
X0462227Y0241280D03*
X0461754Y0226161D03*
X0490494Y0226161D03*
X0490022Y0241280D03*
X0490494Y0241752D03*
X0578250Y0241280D03*
X0578250Y0159280D03*
X0490494Y0159752D03*
X0490022Y0159280D03*
X0490494Y0144161D03*
X0461754Y0144161D03*
X0462227Y0159280D03*
X0461754Y0159752D03*
X0461754Y0077752D03*
X0462227Y0077280D03*
X0461754Y0062161D03*
X0490494Y0062161D03*
X0490022Y0077280D03*
X0490494Y0077752D03*
X0578250Y0077280D03*
D79*
X0442975Y0077752D03*
X0442975Y0062161D03*
X0442975Y0144161D03*
X0442975Y0159752D03*
X0442975Y0226161D03*
X0442975Y0241752D03*
X0442975Y0308161D03*
X0442975Y0323752D03*
X0442975Y0390161D03*
X0442975Y0405752D03*
D80*
X0558743Y0405280D03*
X0558743Y0323280D03*
X0558743Y0241280D03*
X0558743Y0159280D03*
X0558743Y0077280D03*
D81*
X0578487Y0063146D03*
X0512187Y0063146D03*
X0511715Y0077280D03*
X0462975Y0076295D03*
X0462463Y0063146D03*
X0462463Y0145146D03*
X0462975Y0158295D03*
X0511715Y0159280D03*
X0512187Y0145146D03*
X0578487Y0145146D03*
X0578487Y0227146D03*
X0512187Y0227146D03*
X0511715Y0241280D03*
X0462975Y0240295D03*
X0462463Y0227146D03*
X0462463Y0309146D03*
X0462975Y0322295D03*
X0511715Y0323280D03*
X0512187Y0309146D03*
X0578487Y0309146D03*
X0578487Y0391146D03*
X0512187Y0391146D03*
X0511715Y0405280D03*
X0462975Y0404295D03*
X0462463Y0391146D03*
D82*
X0450534Y0379925D03*
X0442739Y0405280D03*
X0566557Y0379925D03*
X0442739Y0323280D03*
X0450534Y0297925D03*
X0442739Y0241280D03*
X0450534Y0215925D03*
X0442739Y0159280D03*
X0450534Y0133925D03*
X0442739Y0077280D03*
X0450534Y0051925D03*
X0566557Y0051925D03*
X0566557Y0133925D03*
X0566557Y0215925D03*
X0566557Y0297925D03*
D83*
X0578487Y0322787D03*
X0512187Y0322787D03*
X0489786Y0322787D03*
X0489786Y0308654D03*
X0500967Y0298417D03*
X0462463Y0322787D03*
X0500967Y0380417D03*
X0489786Y0390654D03*
X0489786Y0404787D03*
X0512187Y0404787D03*
X0462463Y0404787D03*
X0578487Y0404787D03*
X0578487Y0240787D03*
X0512187Y0240787D03*
X0489786Y0240787D03*
X0489786Y0226654D03*
X0500967Y0216417D03*
X0462463Y0240787D03*
X0462463Y0158787D03*
X0489786Y0158787D03*
X0489786Y0144654D03*
X0500967Y0134417D03*
X0512187Y0158787D03*
X0578487Y0158787D03*
X0578487Y0076787D03*
X0512187Y0076787D03*
X0489786Y0076787D03*
X0489786Y0062654D03*
X0500967Y0052417D03*
X0462463Y0076787D03*
D84*
X0558743Y0076787D03*
X0558743Y0158787D03*
X0558743Y0240787D03*
X0558743Y0322787D03*
X0558743Y0404787D03*
D85*
X0442994Y0404787D03*
X0442994Y0322787D03*
X0442994Y0240787D03*
X0442994Y0158787D03*
X0442994Y0076787D03*
D86*
X0463211Y0075823D03*
X0489038Y0075823D03*
X0560691Y0060705D03*
X0578723Y0063618D03*
X0578723Y0076295D03*
X0560691Y0142705D03*
X0578723Y0145618D03*
X0578723Y0158295D03*
X0489038Y0157823D03*
X0463211Y0157823D03*
X0560691Y0224705D03*
X0578723Y0227618D03*
X0578723Y0240295D03*
X0489038Y0239823D03*
X0463211Y0239823D03*
X0560691Y0306705D03*
X0578723Y0309618D03*
X0578723Y0322295D03*
X0489038Y0321823D03*
X0463211Y0321823D03*
X0560691Y0388705D03*
X0578723Y0391618D03*
X0578723Y0404295D03*
X0489038Y0403823D03*
X0463211Y0403823D03*
D87*
X0462719Y0391618D03*
X0444687Y0388705D03*
X0489530Y0391146D03*
X0489530Y0404295D03*
X0512443Y0404295D03*
X0512443Y0391618D03*
X0579215Y0403823D03*
X0579215Y0321823D03*
X0512443Y0322295D03*
X0512443Y0309618D03*
X0489530Y0309146D03*
X0489530Y0322295D03*
X0462719Y0309618D03*
X0444687Y0306705D03*
X0489530Y0240295D03*
X0489530Y0227146D03*
X0512443Y0227618D03*
X0512443Y0240295D03*
X0462719Y0227618D03*
X0444687Y0224705D03*
X0489530Y0158295D03*
X0489530Y0145146D03*
X0512443Y0145618D03*
X0512443Y0158295D03*
X0462719Y0145618D03*
X0444687Y0142705D03*
X0489530Y0076295D03*
X0489530Y0063146D03*
X0512443Y0063618D03*
X0512443Y0076295D03*
X0462719Y0063618D03*
X0444687Y0060705D03*
X0579215Y0075823D03*
X0579215Y0157823D03*
X0579215Y0239823D03*
D88*
X0579451Y0238839D03*
X0579963Y0237854D03*
X0579963Y0237382D03*
X0579963Y0230059D03*
X0579451Y0228602D03*
X0514136Y0231516D03*
X0513664Y0229587D03*
X0512680Y0239823D03*
X0488309Y0237382D03*
X0489294Y0227618D03*
X0463939Y0237382D03*
X0463939Y0237854D03*
X0489294Y0309618D03*
X0488309Y0319382D03*
X0512680Y0321823D03*
X0514136Y0313516D03*
X0513664Y0311587D03*
X0463939Y0319382D03*
X0463939Y0319854D03*
X0489294Y0391618D03*
X0488309Y0401382D03*
X0512680Y0403823D03*
X0514136Y0395516D03*
X0513664Y0393587D03*
X0463939Y0401382D03*
X0463939Y0401854D03*
X0579451Y0402839D03*
X0579963Y0401854D03*
X0579963Y0401382D03*
X0579963Y0394059D03*
X0579451Y0392602D03*
X0579451Y0320839D03*
X0579963Y0319854D03*
X0579963Y0319382D03*
X0579963Y0312059D03*
X0579451Y0310602D03*
X0579451Y0156839D03*
X0579963Y0155854D03*
X0579963Y0155382D03*
X0579963Y0148059D03*
X0579451Y0146602D03*
X0514136Y0149516D03*
X0513664Y0147587D03*
X0512680Y0157823D03*
X0488309Y0155382D03*
X0489294Y0145618D03*
X0463939Y0155382D03*
X0463939Y0155854D03*
X0512680Y0075823D03*
X0514136Y0067516D03*
X0513664Y0065587D03*
X0489294Y0063618D03*
X0488309Y0073382D03*
X0463939Y0073382D03*
X0463939Y0073854D03*
X0579451Y0074839D03*
X0579963Y0073854D03*
X0579963Y0073382D03*
X0579963Y0066059D03*
X0579451Y0064602D03*
D89*
X0579451Y0065094D03*
X0579963Y0066551D03*
X0579963Y0074346D03*
X0579451Y0075331D03*
X0514136Y0071906D03*
X0512680Y0075331D03*
X0512680Y0064110D03*
X0488309Y0066551D03*
X0463939Y0066551D03*
X0463939Y0074346D03*
X0450278Y0052417D03*
X0450278Y0134417D03*
X0463939Y0148551D03*
X0463939Y0156346D03*
X0488309Y0148551D03*
X0512680Y0146110D03*
X0514136Y0153906D03*
X0512680Y0157331D03*
X0579451Y0157331D03*
X0579963Y0156346D03*
X0579963Y0148551D03*
X0579451Y0147094D03*
X0450278Y0216417D03*
X0463939Y0230551D03*
X0463939Y0238346D03*
X0488309Y0230551D03*
X0512680Y0228110D03*
X0514136Y0235906D03*
X0512680Y0239331D03*
X0579451Y0239331D03*
X0579963Y0238346D03*
X0579963Y0230551D03*
X0579451Y0229094D03*
X0579451Y0311094D03*
X0579963Y0312551D03*
X0579963Y0320346D03*
X0579451Y0321331D03*
X0514136Y0317906D03*
X0512680Y0321331D03*
X0512680Y0310110D03*
X0488309Y0312551D03*
X0463939Y0312551D03*
X0463939Y0320346D03*
X0450278Y0298417D03*
X0450278Y0380417D03*
X0463939Y0394551D03*
X0463939Y0402346D03*
X0488309Y0394551D03*
X0512680Y0392110D03*
X0514136Y0399906D03*
X0512680Y0403331D03*
X0579451Y0403331D03*
X0579963Y0402346D03*
X0579963Y0394551D03*
X0579451Y0393094D03*
D90*
X0513172Y0393094D03*
X0488802Y0403331D03*
X0463447Y0393094D03*
X0488802Y0321331D03*
X0513172Y0311094D03*
X0463447Y0311094D03*
X0488802Y0239331D03*
X0513172Y0229094D03*
X0463447Y0229094D03*
X0488802Y0157331D03*
X0513172Y0147094D03*
X0463447Y0147094D03*
X0488802Y0075331D03*
X0513172Y0065094D03*
X0463447Y0065094D03*
D91*
X0463211Y0064110D03*
X0463211Y0075331D03*
X0489038Y0064110D03*
X0489038Y0146110D03*
X0463211Y0146110D03*
X0463211Y0157331D03*
X0463211Y0228110D03*
X0463211Y0239331D03*
X0489038Y0228110D03*
X0489038Y0310110D03*
X0463211Y0310110D03*
X0463211Y0321331D03*
X0463211Y0392110D03*
X0463211Y0403331D03*
X0489038Y0392110D03*
D92*
X0488802Y0392602D03*
X0488802Y0402839D03*
X0513172Y0402839D03*
X0513172Y0392602D03*
X0463447Y0392602D03*
X0463447Y0402839D03*
X0463447Y0320839D03*
X0463447Y0310602D03*
X0488802Y0310602D03*
X0488802Y0320839D03*
X0513172Y0320839D03*
X0513172Y0310602D03*
X0513172Y0238839D03*
X0513172Y0228602D03*
X0488802Y0228602D03*
X0488802Y0238839D03*
X0463447Y0238839D03*
X0463447Y0228602D03*
X0463447Y0156839D03*
X0463447Y0146602D03*
X0488802Y0146602D03*
X0488802Y0156839D03*
X0513172Y0156839D03*
X0513172Y0146602D03*
X0513172Y0074839D03*
X0513172Y0064602D03*
X0488802Y0064602D03*
X0488802Y0074839D03*
X0463447Y0074839D03*
X0463447Y0064602D03*
D93*
X0605298Y0074346D03*
X0605298Y0156346D03*
X0605298Y0238346D03*
X0605298Y0320346D03*
X0605298Y0402346D03*
D94*
X0604550Y0401854D03*
X0604550Y0319854D03*
X0604550Y0237854D03*
X0604550Y0155854D03*
X0604550Y0073854D03*
D95*
X0604077Y0073382D03*
X0604077Y0155382D03*
X0604077Y0237382D03*
X0604077Y0319382D03*
X0604077Y0401382D03*
X0450534Y0383350D03*
X0450534Y0301350D03*
X0450534Y0219350D03*
X0450534Y0137350D03*
X0450534Y0055350D03*
D96*
X0603821Y0068008D03*
X0603821Y0071906D03*
X0603821Y0072890D03*
X0603821Y0150008D03*
X0603821Y0153906D03*
X0603821Y0154890D03*
X0603821Y0232008D03*
X0603821Y0235906D03*
X0603821Y0236890D03*
X0603821Y0314008D03*
X0603821Y0317906D03*
X0603821Y0318890D03*
X0603821Y0396008D03*
X0603821Y0399906D03*
X0603821Y0400890D03*
D97*
X0536577Y0400890D03*
X0536577Y0399906D03*
X0536577Y0398449D03*
X0536577Y0396992D03*
X0536577Y0396008D03*
X0536577Y0394551D03*
X0500987Y0388213D03*
X0536577Y0318890D03*
X0536577Y0317906D03*
X0536577Y0316449D03*
X0536577Y0314992D03*
X0536577Y0314008D03*
X0536577Y0312551D03*
X0500987Y0306213D03*
X0536577Y0236890D03*
X0536577Y0235906D03*
X0536577Y0234449D03*
X0536577Y0232992D03*
X0536577Y0232008D03*
X0536577Y0230551D03*
X0500987Y0224213D03*
X0536577Y0154890D03*
X0536577Y0153906D03*
X0536577Y0152449D03*
X0536577Y0150992D03*
X0536577Y0150008D03*
X0536577Y0148551D03*
X0500987Y0142213D03*
X0536577Y0072890D03*
X0536577Y0071906D03*
X0536577Y0070449D03*
X0536577Y0068992D03*
X0536577Y0068008D03*
X0536577Y0066551D03*
X0500987Y0060213D03*
D98*
X0603585Y0068992D03*
X0603585Y0070449D03*
X0603585Y0150992D03*
X0603585Y0152449D03*
X0603585Y0232992D03*
X0603585Y0234449D03*
X0603585Y0314992D03*
X0603585Y0316449D03*
X0603585Y0396992D03*
X0603585Y0398449D03*
D99*
X0604077Y0394551D03*
X0604077Y0312551D03*
X0604077Y0230551D03*
X0604077Y0148551D03*
X0604077Y0066551D03*
D100*
X0604313Y0066059D03*
X0604313Y0148059D03*
X0604313Y0230059D03*
X0604313Y0312059D03*
X0604313Y0394059D03*
D101*
X0579215Y0392110D03*
X0579215Y0310110D03*
X0579215Y0228110D03*
X0579215Y0146110D03*
X0579215Y0064110D03*
D102*
X0558743Y0063146D03*
X0558743Y0145146D03*
X0558743Y0227146D03*
X0558743Y0309146D03*
X0558743Y0391146D03*
D103*
X0442994Y0391146D03*
X0442994Y0309146D03*
X0442994Y0227146D03*
X0442994Y0145146D03*
X0442994Y0063146D03*
D104*
X0462227Y0062654D03*
X0511951Y0062654D03*
X0578250Y0062654D03*
X0578250Y0144654D03*
X0511951Y0144654D03*
X0462227Y0144654D03*
X0462227Y0226654D03*
X0511951Y0226654D03*
X0578250Y0226654D03*
X0578250Y0308654D03*
X0511951Y0308654D03*
X0462227Y0308654D03*
X0462227Y0390654D03*
X0511951Y0390654D03*
X0578250Y0390654D03*
D105*
X0558743Y0390654D03*
X0558743Y0308654D03*
X0558743Y0226654D03*
X0558743Y0144654D03*
X0558743Y0062654D03*
D106*
X0442739Y0062654D03*
X0442739Y0144654D03*
X0442739Y0226654D03*
X0442739Y0308654D03*
X0442739Y0390654D03*
D107*
X0442975Y0389669D03*
X0558998Y0389669D03*
X0558998Y0307669D03*
X0442975Y0307669D03*
X0442975Y0225669D03*
X0558998Y0225669D03*
X0558998Y0143669D03*
X0442975Y0143669D03*
X0442975Y0061669D03*
X0558998Y0061669D03*
D108*
X0491479Y0061177D03*
X0491479Y0143177D03*
X0491479Y0225177D03*
X0491479Y0307177D03*
X0491479Y0389177D03*
D109*
X0601872Y0388705D03*
X0601872Y0306705D03*
X0601872Y0224705D03*
X0601872Y0142705D03*
X0601872Y0060705D03*
D110*
X0509510Y0060705D03*
X0509510Y0142705D03*
X0509510Y0224705D03*
X0509510Y0306705D03*
X0509510Y0388705D03*
D111*
X0459077Y0388705D03*
X0459077Y0306705D03*
X0459077Y0224705D03*
X0459077Y0142705D03*
X0459077Y0060705D03*
D112*
X0568250Y0059720D03*
X0568250Y0059248D03*
X0568250Y0141248D03*
X0568250Y0141720D03*
X0568250Y0223248D03*
X0568250Y0223720D03*
X0568250Y0305248D03*
X0568250Y0305720D03*
X0568250Y0387248D03*
X0568250Y0387720D03*
D113*
X0566794Y0384807D03*
X0450770Y0384807D03*
X0450770Y0302807D03*
X0566794Y0302807D03*
X0566794Y0220807D03*
X0450770Y0220807D03*
X0450770Y0138807D03*
X0566794Y0138807D03*
X0566794Y0056807D03*
X0450770Y0056807D03*
D114*
X0566794Y0056315D03*
X0566794Y0138315D03*
X0566794Y0220315D03*
X0566794Y0302315D03*
X0566794Y0384315D03*
D115*
X0500967Y0384315D03*
X0500967Y0302315D03*
X0500967Y0220315D03*
X0500967Y0138315D03*
X0500967Y0056315D03*
D116*
X0450534Y0056315D03*
X0450534Y0138315D03*
X0450534Y0220315D03*
X0450534Y0302315D03*
X0450534Y0384315D03*
D117*
X0450534Y0383823D03*
X0450534Y0301823D03*
X0450534Y0219823D03*
X0450534Y0137823D03*
X0450534Y0055823D03*
D118*
X0500750Y0054858D03*
X0500750Y0136858D03*
X0500750Y0218858D03*
X0500750Y0300858D03*
X0500750Y0382858D03*
D119*
X0450770Y0382858D03*
X0450770Y0300858D03*
X0450770Y0218858D03*
X0450770Y0136858D03*
X0450770Y0054858D03*
D120*
X0566302Y0054366D03*
X0566302Y0136366D03*
X0566302Y0218366D03*
X0566302Y0300366D03*
X0566302Y0382366D03*
D121*
X0500731Y0382366D03*
X0500731Y0300366D03*
X0500731Y0218366D03*
X0500731Y0136366D03*
X0500731Y0054366D03*
D122*
X0450298Y0054366D03*
X0450298Y0136366D03*
X0450298Y0218366D03*
X0450298Y0300366D03*
X0450298Y0382366D03*
D123*
X0566538Y0381874D03*
X0566538Y0299874D03*
X0566538Y0217874D03*
X0566538Y0135874D03*
X0566538Y0053874D03*
D124*
X0547030Y0053874D03*
X0547030Y0135874D03*
X0547030Y0217874D03*
X0547030Y0299874D03*
X0547030Y0381874D03*
D125*
X0525849Y0381874D03*
X0476124Y0381874D03*
X0476124Y0299874D03*
X0525849Y0299874D03*
X0525849Y0217874D03*
X0476124Y0217874D03*
X0476124Y0135874D03*
X0525849Y0135874D03*
X0525849Y0053874D03*
X0476124Y0053874D03*
D126*
X0450534Y0053874D03*
X0450534Y0135874D03*
X0450534Y0217874D03*
X0450534Y0299874D03*
X0450534Y0381874D03*
D127*
X0600908Y0381382D03*
X0600908Y0299382D03*
X0600908Y0217382D03*
X0600908Y0135382D03*
X0600908Y0053382D03*
D128*
X0500987Y0053382D03*
X0500987Y0135382D03*
X0500987Y0217382D03*
X0500987Y0299382D03*
X0500987Y0381382D03*
D129*
X0547050Y0380909D03*
X0547050Y0298909D03*
X0547050Y0216909D03*
X0547050Y0134909D03*
X0547050Y0052909D03*
D130*
X0525829Y0052909D03*
X0525829Y0134909D03*
X0525829Y0216909D03*
X0525829Y0298909D03*
X0525829Y0380909D03*
D131*
X0500750Y0380909D03*
X0500750Y0298909D03*
X0500750Y0216909D03*
X0500750Y0134909D03*
X0500750Y0052909D03*
D132*
X0476124Y0052909D03*
X0476124Y0134909D03*
X0476124Y0216909D03*
X0476124Y0298909D03*
X0476124Y0380909D03*
D133*
X0600908Y0380417D03*
X0600908Y0298417D03*
X0600908Y0216417D03*
X0600908Y0134417D03*
X0600908Y0052417D03*
D134*
X0547050Y0052417D03*
X0547050Y0134417D03*
X0547050Y0216417D03*
X0547050Y0298417D03*
X0547050Y0380417D03*
D135*
X0525849Y0380417D03*
X0476124Y0380417D03*
X0476124Y0298417D03*
X0525849Y0298417D03*
X0525849Y0216417D03*
X0476124Y0216417D03*
X0476124Y0134417D03*
X0525849Y0134417D03*
X0525849Y0052417D03*
X0476124Y0052417D03*
D136*
X0500731Y0051925D03*
X0500731Y0133925D03*
X0500731Y0215925D03*
X0500731Y0297925D03*
X0500731Y0379925D03*
D137*
X0391124Y0409098D03*
X0391124Y0417012D03*
X0391124Y0335012D03*
X0391124Y0327098D03*
X0391124Y0253012D03*
X0391124Y0245098D03*
X0391124Y0171012D03*
X0391124Y0163098D03*
X0391124Y0089012D03*
X0391124Y0081098D03*
D138*
X0354609Y0089012D03*
X0354609Y0171012D03*
X0354609Y0253012D03*
X0354609Y0335012D03*
X0354609Y0417012D03*
D139*
X0317739Y0417012D03*
X0296282Y0379374D03*
X0317739Y0335012D03*
X0296282Y0297374D03*
X0317739Y0253012D03*
X0296282Y0215374D03*
X0317739Y0171012D03*
X0296282Y0133374D03*
X0317739Y0089012D03*
X0296282Y0051374D03*
X0391124Y0051374D03*
X0391124Y0133374D03*
X0391124Y0215374D03*
X0391124Y0297374D03*
X0391124Y0379374D03*
D140*
X0296282Y0417012D03*
X0273329Y0417012D03*
X0273329Y0335012D03*
X0296282Y0335012D03*
X0296282Y0253012D03*
X0273329Y0253012D03*
X0273329Y0171012D03*
X0296282Y0171012D03*
X0296282Y0089012D03*
X0273329Y0089012D03*
D141*
X0391124Y0088638D03*
X0391124Y0170638D03*
X0391124Y0252638D03*
X0391124Y0334638D03*
X0391124Y0416638D03*
D142*
X0358369Y0401205D03*
X0358369Y0394433D03*
X0354628Y0416638D03*
X0317739Y0413252D03*
X0317739Y0331252D03*
X0354628Y0334638D03*
X0358369Y0319205D03*
X0358369Y0312433D03*
X0354628Y0252638D03*
X0358369Y0237205D03*
X0358369Y0230433D03*
X0317739Y0249252D03*
X0354628Y0170638D03*
X0358369Y0155205D03*
X0358369Y0148433D03*
X0317739Y0167252D03*
X0354628Y0088638D03*
X0358369Y0073205D03*
X0358369Y0066433D03*
X0317739Y0085252D03*
D143*
X0317739Y0088638D03*
X0296282Y0087890D03*
X0273329Y0087890D03*
X0296282Y0051748D03*
X0391124Y0051748D03*
X0391124Y0133748D03*
X0317739Y0170638D03*
X0296282Y0169890D03*
X0273329Y0169890D03*
X0296282Y0133748D03*
X0296282Y0215748D03*
X0296282Y0251890D03*
X0317739Y0252638D03*
X0273329Y0251890D03*
X0296282Y0297748D03*
X0296282Y0333890D03*
X0317739Y0334638D03*
X0273329Y0333890D03*
X0296282Y0379748D03*
X0296282Y0415890D03*
X0317739Y0416638D03*
X0273329Y0415890D03*
X0391124Y0379748D03*
X0391124Y0297748D03*
X0391124Y0215748D03*
D144*
X0309097Y0225906D03*
X0309097Y0241339D03*
X0296302Y0252638D03*
X0309097Y0307906D03*
X0309097Y0323339D03*
X0296302Y0334638D03*
X0309097Y0389906D03*
X0309097Y0405339D03*
X0296302Y0416638D03*
X0296302Y0170638D03*
X0309097Y0159339D03*
X0309097Y0143906D03*
X0296302Y0088638D03*
X0309097Y0077339D03*
X0309097Y0061906D03*
D145*
X0273329Y0088638D03*
X0273329Y0170638D03*
X0273329Y0252638D03*
X0273329Y0334638D03*
X0273329Y0416638D03*
D146*
X0391105Y0416264D03*
X0391105Y0334264D03*
X0391105Y0252264D03*
X0391105Y0170264D03*
X0391105Y0088264D03*
D147*
X0354806Y0088264D03*
X0354806Y0170264D03*
X0354806Y0252264D03*
X0354806Y0334264D03*
X0354806Y0416264D03*
D148*
X0317365Y0416264D03*
X0317365Y0334264D03*
X0317365Y0252264D03*
X0317365Y0170264D03*
X0317365Y0088264D03*
D149*
X0296282Y0088264D03*
X0273329Y0088264D03*
X0273329Y0170264D03*
X0296282Y0170264D03*
X0296282Y0252264D03*
X0273329Y0252264D03*
X0273329Y0334264D03*
X0296282Y0334264D03*
X0296282Y0416264D03*
X0273329Y0416264D03*
D150*
X0391124Y0415890D03*
X0391124Y0333890D03*
X0391124Y0251890D03*
X0391124Y0169890D03*
X0391124Y0087890D03*
D151*
X0355002Y0087890D03*
X0318506Y0082614D03*
X0318506Y0164614D03*
X0355002Y0169890D03*
X0318506Y0246614D03*
X0355002Y0251890D03*
X0318506Y0328614D03*
X0355002Y0333890D03*
X0318506Y0410614D03*
X0355002Y0415890D03*
D152*
X0317365Y0415890D03*
X0327522Y0387661D03*
X0317365Y0333890D03*
X0327522Y0305661D03*
X0317365Y0251890D03*
X0327522Y0223661D03*
X0317365Y0169890D03*
X0327522Y0141661D03*
X0317365Y0087890D03*
X0327522Y0059661D03*
D153*
X0391321Y0082988D03*
X0391321Y0087516D03*
X0391321Y0164988D03*
X0391321Y0169516D03*
X0391321Y0246988D03*
X0391321Y0251516D03*
X0391321Y0328988D03*
X0391321Y0333516D03*
X0391321Y0410988D03*
X0391321Y0415516D03*
D154*
X0354806Y0415516D03*
X0319806Y0386894D03*
X0354806Y0333516D03*
X0319806Y0304894D03*
X0354806Y0251516D03*
X0319806Y0222894D03*
X0354806Y0169516D03*
X0319806Y0140894D03*
X0354806Y0087516D03*
X0319806Y0058894D03*
D155*
X0317542Y0087516D03*
X0317542Y0169516D03*
X0317542Y0251516D03*
X0317542Y0333516D03*
X0317542Y0415516D03*
D156*
X0296282Y0415516D03*
X0296282Y0333516D03*
X0296282Y0251516D03*
X0296282Y0169516D03*
X0296282Y0087516D03*
D157*
X0273132Y0087516D03*
X0273132Y0087122D03*
X0273132Y0169122D03*
X0273132Y0169516D03*
X0273132Y0251122D03*
X0273132Y0251516D03*
X0273132Y0333122D03*
X0273132Y0333516D03*
X0273132Y0415122D03*
X0273132Y0415516D03*
D158*
X0391124Y0415122D03*
X0391124Y0414374D03*
X0391124Y0411736D03*
X0391124Y0333122D03*
X0391124Y0332374D03*
X0391124Y0329736D03*
X0391124Y0251122D03*
X0391124Y0250374D03*
X0391124Y0247736D03*
X0391124Y0169122D03*
X0391124Y0168374D03*
X0391124Y0165736D03*
X0391124Y0087122D03*
X0391124Y0086374D03*
X0391124Y0083736D03*
D159*
X0354983Y0087122D03*
X0319235Y0081098D03*
X0318880Y0081492D03*
X0319983Y0059287D03*
X0319235Y0058146D03*
X0355731Y0059287D03*
X0355731Y0141287D03*
X0319983Y0141287D03*
X0319235Y0140146D03*
X0319235Y0163098D03*
X0318880Y0163492D03*
X0354983Y0169122D03*
X0319235Y0222146D03*
X0319983Y0223287D03*
X0319235Y0245098D03*
X0318880Y0245492D03*
X0354983Y0251122D03*
X0355731Y0223287D03*
X0355731Y0305287D03*
X0319983Y0305287D03*
X0319235Y0304146D03*
X0319235Y0327098D03*
X0318880Y0327492D03*
X0354983Y0333122D03*
X0355731Y0387287D03*
X0319983Y0387287D03*
X0319235Y0386146D03*
X0319235Y0409098D03*
X0318880Y0409492D03*
X0354983Y0415122D03*
D160*
X0317542Y0415122D03*
X0317542Y0333122D03*
X0317542Y0251122D03*
X0317542Y0169122D03*
X0317542Y0087122D03*
D161*
X0296282Y0087122D03*
X0296282Y0052516D03*
X0296282Y0052122D03*
X0273329Y0052122D03*
X0391124Y0052122D03*
X0391124Y0052516D03*
X0391124Y0134122D03*
X0391124Y0134516D03*
X0296282Y0134516D03*
X0296282Y0134122D03*
X0273329Y0134122D03*
X0296282Y0169122D03*
X0296282Y0216122D03*
X0296282Y0216516D03*
X0273329Y0216122D03*
X0296282Y0251122D03*
X0296282Y0298122D03*
X0296282Y0298516D03*
X0273329Y0298122D03*
X0296282Y0333122D03*
X0296282Y0380122D03*
X0296282Y0380516D03*
X0273329Y0380122D03*
X0296282Y0415122D03*
X0391124Y0380516D03*
X0391124Y0380122D03*
X0391124Y0298516D03*
X0391124Y0298122D03*
X0391124Y0216516D03*
X0391124Y0216122D03*
D162*
X0391124Y0247362D03*
X0391124Y0248110D03*
X0391124Y0250000D03*
X0391124Y0250748D03*
X0391124Y0329362D03*
X0391124Y0330110D03*
X0391124Y0332000D03*
X0391124Y0332748D03*
X0391124Y0411362D03*
X0391124Y0412110D03*
X0391124Y0414000D03*
X0391124Y0414748D03*
X0391124Y0168748D03*
X0391124Y0168000D03*
X0391124Y0166110D03*
X0391124Y0165362D03*
X0391124Y0086748D03*
X0391124Y0086000D03*
X0391124Y0084110D03*
X0391124Y0083362D03*
D163*
X0355357Y0080724D03*
X0355002Y0085252D03*
X0355002Y0086000D03*
X0355002Y0086748D03*
X0355357Y0058520D03*
X0355002Y0053638D03*
X0355002Y0052890D03*
X0355002Y0134890D03*
X0355002Y0135638D03*
X0355357Y0140520D03*
X0355357Y0162724D03*
X0355002Y0167252D03*
X0355002Y0168000D03*
X0355002Y0168748D03*
X0355002Y0216890D03*
X0355002Y0217638D03*
X0355357Y0222520D03*
X0355357Y0244724D03*
X0355002Y0249252D03*
X0355002Y0250000D03*
X0355002Y0250748D03*
X0355002Y0298890D03*
X0355002Y0299638D03*
X0355357Y0304520D03*
X0355357Y0326724D03*
X0355002Y0331252D03*
X0355002Y0332000D03*
X0355002Y0332748D03*
X0355002Y0380890D03*
X0355002Y0381638D03*
X0355357Y0386520D03*
X0355357Y0408724D03*
X0355002Y0413252D03*
X0355002Y0414000D03*
X0355002Y0414748D03*
D164*
X0317542Y0414748D03*
X0317542Y0332748D03*
X0317542Y0250748D03*
X0317542Y0168748D03*
X0317542Y0086748D03*
D165*
X0296479Y0086748D03*
X0296479Y0086000D03*
X0296479Y0168000D03*
X0296479Y0168748D03*
X0296479Y0250000D03*
X0296479Y0250748D03*
X0296479Y0332000D03*
X0296479Y0332748D03*
X0296479Y0414000D03*
X0296479Y0414748D03*
D166*
X0273152Y0414748D03*
X0273152Y0414000D03*
X0310396Y0387661D03*
X0332601Y0395181D03*
X0332601Y0395929D03*
X0391302Y0395929D03*
X0391302Y0395181D03*
X0391302Y0394433D03*
X0391302Y0393685D03*
X0391302Y0392543D03*
X0391302Y0391795D03*
X0391302Y0391047D03*
X0391302Y0389906D03*
X0391302Y0389157D03*
X0391302Y0388409D03*
X0391302Y0387661D03*
X0391302Y0386520D03*
X0391302Y0385772D03*
X0391302Y0385024D03*
X0391302Y0384276D03*
X0391302Y0383134D03*
X0391302Y0382386D03*
X0391302Y0381638D03*
X0391302Y0397071D03*
X0391302Y0397819D03*
X0391302Y0398567D03*
X0391302Y0399315D03*
X0391302Y0400457D03*
X0391302Y0401205D03*
X0391302Y0401953D03*
X0391302Y0403094D03*
X0391302Y0403843D03*
X0391302Y0404591D03*
X0391302Y0405339D03*
X0391302Y0406480D03*
X0391302Y0407228D03*
X0391302Y0407976D03*
X0391302Y0408724D03*
X0273152Y0380890D03*
X0273152Y0332748D03*
X0273152Y0332000D03*
X0310396Y0305661D03*
X0332601Y0313181D03*
X0332601Y0313929D03*
X0391302Y0313929D03*
X0391302Y0313181D03*
X0391302Y0312433D03*
X0391302Y0311685D03*
X0391302Y0310543D03*
X0391302Y0309795D03*
X0391302Y0309047D03*
X0391302Y0307906D03*
X0391302Y0307157D03*
X0391302Y0306409D03*
X0391302Y0305661D03*
X0391302Y0304520D03*
X0391302Y0303772D03*
X0391302Y0303024D03*
X0391302Y0302276D03*
X0391302Y0301134D03*
X0391302Y0300386D03*
X0391302Y0299638D03*
X0391302Y0315071D03*
X0391302Y0315819D03*
X0391302Y0316567D03*
X0391302Y0317315D03*
X0391302Y0318457D03*
X0391302Y0319205D03*
X0391302Y0319953D03*
X0391302Y0321094D03*
X0391302Y0321843D03*
X0391302Y0322591D03*
X0391302Y0323339D03*
X0391302Y0324480D03*
X0391302Y0325228D03*
X0391302Y0325976D03*
X0391302Y0326724D03*
X0273152Y0298890D03*
X0273152Y0250748D03*
X0273152Y0250000D03*
X0310396Y0223661D03*
X0332601Y0231181D03*
X0332601Y0231929D03*
X0391302Y0231929D03*
X0391302Y0231181D03*
X0391302Y0230433D03*
X0391302Y0229685D03*
X0391302Y0228543D03*
X0391302Y0227795D03*
X0391302Y0227047D03*
X0391302Y0225906D03*
X0391302Y0225157D03*
X0391302Y0224409D03*
X0391302Y0223661D03*
X0391302Y0222520D03*
X0391302Y0221772D03*
X0391302Y0221024D03*
X0391302Y0220276D03*
X0391302Y0219134D03*
X0391302Y0218386D03*
X0391302Y0217638D03*
X0391302Y0233071D03*
X0391302Y0233819D03*
X0391302Y0234567D03*
X0391302Y0235315D03*
X0391302Y0236457D03*
X0391302Y0237205D03*
X0391302Y0237953D03*
X0391302Y0239094D03*
X0391302Y0239843D03*
X0391302Y0240591D03*
X0391302Y0241339D03*
X0391302Y0242480D03*
X0391302Y0243228D03*
X0391302Y0243976D03*
X0391302Y0244724D03*
X0273152Y0216890D03*
X0273152Y0168748D03*
X0273152Y0168000D03*
X0310396Y0141661D03*
X0332601Y0149181D03*
X0332601Y0149929D03*
X0391302Y0149929D03*
X0391302Y0149181D03*
X0391302Y0148433D03*
X0391302Y0147685D03*
X0391302Y0146543D03*
X0391302Y0145795D03*
X0391302Y0145047D03*
X0391302Y0143906D03*
X0391302Y0143157D03*
X0391302Y0142409D03*
X0391302Y0141661D03*
X0391302Y0140520D03*
X0391302Y0139772D03*
X0391302Y0139024D03*
X0391302Y0138276D03*
X0391302Y0137134D03*
X0391302Y0136386D03*
X0391302Y0135638D03*
X0391302Y0151071D03*
X0391302Y0151819D03*
X0391302Y0152567D03*
X0391302Y0153315D03*
X0391302Y0154457D03*
X0391302Y0155205D03*
X0391302Y0155953D03*
X0391302Y0157094D03*
X0391302Y0157843D03*
X0391302Y0158591D03*
X0391302Y0159339D03*
X0391302Y0160480D03*
X0391302Y0161228D03*
X0391302Y0161976D03*
X0391302Y0162724D03*
X0273152Y0134890D03*
X0273152Y0086748D03*
X0273152Y0086000D03*
X0310396Y0059661D03*
X0332601Y0067181D03*
X0332601Y0067929D03*
X0391302Y0067929D03*
X0391302Y0067181D03*
X0391302Y0066433D03*
X0391302Y0065685D03*
X0391302Y0064543D03*
X0391302Y0063795D03*
X0391302Y0063047D03*
X0391302Y0061906D03*
X0391302Y0061157D03*
X0391302Y0060409D03*
X0391302Y0059661D03*
X0391302Y0058520D03*
X0391302Y0057772D03*
X0391302Y0057024D03*
X0391302Y0056276D03*
X0391302Y0055134D03*
X0391302Y0054386D03*
X0391302Y0053638D03*
X0391302Y0069071D03*
X0391302Y0069819D03*
X0391302Y0070567D03*
X0391302Y0071315D03*
X0391302Y0072457D03*
X0391302Y0073205D03*
X0391302Y0073953D03*
X0391302Y0075094D03*
X0391302Y0075843D03*
X0391302Y0076591D03*
X0391302Y0077339D03*
X0391302Y0078480D03*
X0391302Y0079228D03*
X0391302Y0079976D03*
X0391302Y0080724D03*
X0273152Y0052890D03*
D167*
X0355002Y0052516D03*
X0355002Y0053264D03*
X0355357Y0058146D03*
X0355357Y0081098D03*
X0355357Y0081492D03*
X0355002Y0085626D03*
X0355002Y0086374D03*
X0355002Y0134516D03*
X0355002Y0135264D03*
X0355357Y0140146D03*
X0355357Y0163098D03*
X0355357Y0163492D03*
X0355002Y0167626D03*
X0355002Y0168374D03*
X0355002Y0216516D03*
X0355002Y0217264D03*
X0355357Y0222146D03*
X0355357Y0245098D03*
X0355357Y0245492D03*
X0355002Y0249626D03*
X0355002Y0250374D03*
X0355002Y0298516D03*
X0355002Y0299264D03*
X0355357Y0304146D03*
X0355357Y0327098D03*
X0355357Y0327492D03*
X0355002Y0331626D03*
X0355002Y0332374D03*
X0355002Y0380516D03*
X0355002Y0381264D03*
X0355357Y0386146D03*
X0355357Y0409098D03*
X0355357Y0409492D03*
X0355002Y0413626D03*
X0355002Y0414374D03*
D168*
X0317365Y0414374D03*
X0317365Y0332374D03*
X0317365Y0250374D03*
X0317365Y0168374D03*
X0317365Y0086374D03*
D169*
X0296479Y0086374D03*
X0296479Y0168374D03*
X0296479Y0250374D03*
X0296479Y0332374D03*
X0296479Y0414374D03*
D170*
X0273152Y0414374D03*
X0273152Y0413626D03*
X0273152Y0381264D03*
X0273152Y0380516D03*
X0332601Y0395555D03*
X0332601Y0399689D03*
X0391302Y0399689D03*
X0391302Y0400083D03*
X0391302Y0400831D03*
X0391302Y0401579D03*
X0391302Y0402327D03*
X0391302Y0402720D03*
X0391302Y0403469D03*
X0391302Y0404217D03*
X0391302Y0404965D03*
X0391302Y0405713D03*
X0391302Y0406106D03*
X0391302Y0406854D03*
X0391302Y0407602D03*
X0391302Y0408350D03*
X0391302Y0398941D03*
X0391302Y0398193D03*
X0391302Y0397445D03*
X0391302Y0396697D03*
X0391302Y0396303D03*
X0391302Y0395555D03*
X0391302Y0394807D03*
X0391302Y0394059D03*
X0391302Y0393311D03*
X0391302Y0392917D03*
X0391302Y0392169D03*
X0391302Y0391421D03*
X0391302Y0390673D03*
X0391302Y0390280D03*
X0391302Y0389531D03*
X0391302Y0388783D03*
X0391302Y0388035D03*
X0391302Y0387287D03*
X0391302Y0386894D03*
X0391302Y0386146D03*
X0391302Y0385398D03*
X0391302Y0384650D03*
X0391302Y0383902D03*
X0391302Y0383508D03*
X0391302Y0382760D03*
X0391302Y0382012D03*
X0391302Y0381264D03*
X0391302Y0326350D03*
X0391302Y0325602D03*
X0391302Y0324854D03*
X0391302Y0324106D03*
X0391302Y0323713D03*
X0391302Y0322965D03*
X0391302Y0322217D03*
X0391302Y0321469D03*
X0391302Y0320720D03*
X0391302Y0320327D03*
X0391302Y0319579D03*
X0391302Y0318831D03*
X0391302Y0318083D03*
X0391302Y0317689D03*
X0391302Y0316941D03*
X0391302Y0316193D03*
X0391302Y0315445D03*
X0391302Y0314697D03*
X0391302Y0314303D03*
X0391302Y0313555D03*
X0391302Y0312807D03*
X0391302Y0312059D03*
X0391302Y0311311D03*
X0391302Y0310917D03*
X0391302Y0310169D03*
X0391302Y0309421D03*
X0391302Y0308673D03*
X0391302Y0308280D03*
X0391302Y0307531D03*
X0391302Y0306783D03*
X0391302Y0306035D03*
X0391302Y0305287D03*
X0391302Y0304894D03*
X0391302Y0304146D03*
X0391302Y0303398D03*
X0391302Y0302650D03*
X0391302Y0301902D03*
X0391302Y0301508D03*
X0391302Y0300760D03*
X0391302Y0300012D03*
X0391302Y0299264D03*
X0332601Y0313555D03*
X0332601Y0317689D03*
X0273152Y0331626D03*
X0273152Y0332374D03*
X0273152Y0299264D03*
X0273152Y0298516D03*
X0273152Y0250374D03*
X0273152Y0249626D03*
X0273152Y0217264D03*
X0273152Y0216516D03*
X0332601Y0231555D03*
X0332601Y0235689D03*
X0391302Y0235689D03*
X0391302Y0236083D03*
X0391302Y0236831D03*
X0391302Y0237579D03*
X0391302Y0238327D03*
X0391302Y0238720D03*
X0391302Y0239469D03*
X0391302Y0240217D03*
X0391302Y0240965D03*
X0391302Y0241713D03*
X0391302Y0242106D03*
X0391302Y0242854D03*
X0391302Y0243602D03*
X0391302Y0244350D03*
X0391302Y0234941D03*
X0391302Y0234193D03*
X0391302Y0233445D03*
X0391302Y0232697D03*
X0391302Y0232303D03*
X0391302Y0231555D03*
X0391302Y0230807D03*
X0391302Y0230059D03*
X0391302Y0229311D03*
X0391302Y0228917D03*
X0391302Y0228169D03*
X0391302Y0227421D03*
X0391302Y0226673D03*
X0391302Y0226280D03*
X0391302Y0225531D03*
X0391302Y0224783D03*
X0391302Y0224035D03*
X0391302Y0223287D03*
X0391302Y0222894D03*
X0391302Y0222146D03*
X0391302Y0221398D03*
X0391302Y0220650D03*
X0391302Y0219902D03*
X0391302Y0219508D03*
X0391302Y0218760D03*
X0391302Y0218012D03*
X0391302Y0217264D03*
X0391302Y0162350D03*
X0391302Y0161602D03*
X0391302Y0160854D03*
X0391302Y0160106D03*
X0391302Y0159713D03*
X0391302Y0158965D03*
X0391302Y0158217D03*
X0391302Y0157469D03*
X0391302Y0156720D03*
X0391302Y0156327D03*
X0391302Y0155579D03*
X0391302Y0154831D03*
X0391302Y0154083D03*
X0391302Y0153689D03*
X0391302Y0152941D03*
X0391302Y0152193D03*
X0391302Y0151445D03*
X0391302Y0150697D03*
X0391302Y0150303D03*
X0391302Y0149555D03*
X0391302Y0148807D03*
X0391302Y0148059D03*
X0391302Y0147311D03*
X0391302Y0146917D03*
X0391302Y0146169D03*
X0391302Y0145421D03*
X0391302Y0144673D03*
X0391302Y0144280D03*
X0391302Y0143531D03*
X0391302Y0142783D03*
X0391302Y0142035D03*
X0391302Y0141287D03*
X0391302Y0140894D03*
X0391302Y0140146D03*
X0391302Y0139398D03*
X0391302Y0138650D03*
X0391302Y0137902D03*
X0391302Y0137508D03*
X0391302Y0136760D03*
X0391302Y0136012D03*
X0391302Y0135264D03*
X0332601Y0149555D03*
X0332601Y0153689D03*
X0273152Y0167626D03*
X0273152Y0168374D03*
X0273152Y0135264D03*
X0273152Y0134516D03*
X0273152Y0086374D03*
X0273152Y0085626D03*
X0273152Y0053264D03*
X0273152Y0052516D03*
X0332601Y0067555D03*
X0332601Y0071689D03*
X0391302Y0071689D03*
X0391302Y0072083D03*
X0391302Y0072831D03*
X0391302Y0073579D03*
X0391302Y0074327D03*
X0391302Y0074720D03*
X0391302Y0075469D03*
X0391302Y0076217D03*
X0391302Y0076965D03*
X0391302Y0077713D03*
X0391302Y0078106D03*
X0391302Y0078854D03*
X0391302Y0079602D03*
X0391302Y0080350D03*
X0391302Y0070941D03*
X0391302Y0070193D03*
X0391302Y0069445D03*
X0391302Y0068697D03*
X0391302Y0068303D03*
X0391302Y0067555D03*
X0391302Y0066807D03*
X0391302Y0066059D03*
X0391302Y0065311D03*
X0391302Y0064917D03*
X0391302Y0064169D03*
X0391302Y0063421D03*
X0391302Y0062673D03*
X0391302Y0062280D03*
X0391302Y0061531D03*
X0391302Y0060783D03*
X0391302Y0060035D03*
X0391302Y0059287D03*
X0391302Y0058894D03*
X0391302Y0058146D03*
X0391302Y0057398D03*
X0391302Y0056650D03*
X0391302Y0055902D03*
X0391302Y0055508D03*
X0391302Y0054760D03*
X0391302Y0054012D03*
X0391302Y0053264D03*
D171*
X0317542Y0086000D03*
X0317542Y0168000D03*
X0317542Y0250000D03*
X0317542Y0332000D03*
X0317542Y0414000D03*
D172*
X0391302Y0413626D03*
X0391302Y0412878D03*
X0391302Y0412484D03*
X0391302Y0331626D03*
X0391302Y0330878D03*
X0391302Y0330484D03*
X0391302Y0249626D03*
X0391302Y0248878D03*
X0391302Y0248484D03*
X0391302Y0167626D03*
X0391302Y0166878D03*
X0391302Y0166484D03*
X0391302Y0085626D03*
X0391302Y0084878D03*
X0391302Y0084484D03*
D173*
X0317542Y0085626D03*
X0317542Y0167626D03*
X0317542Y0249626D03*
X0317542Y0331626D03*
X0317542Y0413626D03*
D174*
X0332404Y0400083D03*
X0332798Y0398941D03*
X0332798Y0398193D03*
X0332798Y0397445D03*
X0332798Y0396697D03*
X0332798Y0396303D03*
X0332404Y0394807D03*
X0365514Y0392169D03*
X0365514Y0391421D03*
X0365514Y0390673D03*
X0365514Y0390280D03*
X0365514Y0389531D03*
X0365514Y0388783D03*
X0365514Y0403469D03*
X0365514Y0404217D03*
X0365514Y0404965D03*
X0365514Y0405713D03*
X0365514Y0406106D03*
X0365514Y0406854D03*
X0296302Y0406854D03*
X0296302Y0406106D03*
X0296302Y0405713D03*
X0296302Y0404965D03*
X0296302Y0404217D03*
X0296302Y0403469D03*
X0296302Y0402720D03*
X0296302Y0402327D03*
X0296302Y0407602D03*
X0296302Y0408350D03*
X0296302Y0409098D03*
X0296302Y0409492D03*
X0296302Y0410240D03*
X0296302Y0410988D03*
X0296302Y0411736D03*
X0296302Y0412484D03*
X0296302Y0412878D03*
X0296302Y0413626D03*
X0296302Y0393311D03*
X0296302Y0392917D03*
X0296302Y0392169D03*
X0296302Y0391421D03*
X0296302Y0390673D03*
X0296302Y0390280D03*
X0296302Y0389531D03*
X0296302Y0388783D03*
X0296302Y0388035D03*
X0296302Y0387287D03*
X0296302Y0386894D03*
X0296302Y0386146D03*
X0296302Y0385398D03*
X0296302Y0384650D03*
X0296302Y0383902D03*
X0296302Y0383508D03*
X0296302Y0382760D03*
X0296302Y0382012D03*
X0296302Y0381264D03*
X0296302Y0331626D03*
X0296302Y0330878D03*
X0296302Y0330484D03*
X0296302Y0329736D03*
X0296302Y0328988D03*
X0296302Y0328240D03*
X0296302Y0327492D03*
X0296302Y0327098D03*
X0296302Y0326350D03*
X0296302Y0325602D03*
X0296302Y0324854D03*
X0296302Y0324106D03*
X0296302Y0323713D03*
X0296302Y0322965D03*
X0296302Y0322217D03*
X0296302Y0321469D03*
X0296302Y0320720D03*
X0296302Y0320327D03*
X0296302Y0311311D03*
X0296302Y0310917D03*
X0296302Y0310169D03*
X0296302Y0309421D03*
X0296302Y0308673D03*
X0296302Y0308280D03*
X0296302Y0307531D03*
X0296302Y0306783D03*
X0296302Y0306035D03*
X0296302Y0305287D03*
X0296302Y0304894D03*
X0296302Y0304146D03*
X0296302Y0303398D03*
X0296302Y0302650D03*
X0296302Y0301902D03*
X0296302Y0301508D03*
X0296302Y0300760D03*
X0296302Y0300012D03*
X0296302Y0299264D03*
X0332404Y0312807D03*
X0332798Y0314303D03*
X0332798Y0314697D03*
X0332798Y0315445D03*
X0332798Y0316193D03*
X0332798Y0316941D03*
X0332404Y0318083D03*
X0365514Y0321469D03*
X0365514Y0322217D03*
X0365514Y0322965D03*
X0365514Y0323713D03*
X0365514Y0324106D03*
X0365514Y0324854D03*
X0365514Y0310169D03*
X0365514Y0309421D03*
X0365514Y0308673D03*
X0365514Y0308280D03*
X0365514Y0307531D03*
X0365514Y0306783D03*
X0296302Y0249626D03*
X0296302Y0248878D03*
X0296302Y0248484D03*
X0296302Y0247736D03*
X0296302Y0246988D03*
X0296302Y0246240D03*
X0296302Y0245492D03*
X0296302Y0245098D03*
X0296302Y0244350D03*
X0296302Y0243602D03*
X0296302Y0242854D03*
X0296302Y0242106D03*
X0296302Y0241713D03*
X0296302Y0240965D03*
X0296302Y0240217D03*
X0296302Y0239469D03*
X0296302Y0238720D03*
X0296302Y0238327D03*
X0296302Y0229311D03*
X0296302Y0228917D03*
X0296302Y0228169D03*
X0296302Y0227421D03*
X0296302Y0226673D03*
X0296302Y0226280D03*
X0296302Y0225531D03*
X0296302Y0224783D03*
X0296302Y0224035D03*
X0296302Y0223287D03*
X0296302Y0222894D03*
X0296302Y0222146D03*
X0296302Y0221398D03*
X0296302Y0220650D03*
X0296302Y0219902D03*
X0296302Y0219508D03*
X0296302Y0218760D03*
X0296302Y0218012D03*
X0296302Y0217264D03*
X0332404Y0230807D03*
X0332798Y0232303D03*
X0332798Y0232697D03*
X0332798Y0233445D03*
X0332798Y0234193D03*
X0332798Y0234941D03*
X0332404Y0236083D03*
X0365514Y0239469D03*
X0365514Y0240217D03*
X0365514Y0240965D03*
X0365514Y0241713D03*
X0365514Y0242106D03*
X0365514Y0242854D03*
X0365514Y0228169D03*
X0365514Y0227421D03*
X0365514Y0226673D03*
X0365514Y0226280D03*
X0365514Y0225531D03*
X0365514Y0224783D03*
X0296302Y0167626D03*
X0296302Y0166878D03*
X0296302Y0166484D03*
X0296302Y0165736D03*
X0296302Y0164988D03*
X0296302Y0164240D03*
X0296302Y0163492D03*
X0296302Y0163098D03*
X0296302Y0162350D03*
X0296302Y0161602D03*
X0296302Y0160854D03*
X0296302Y0160106D03*
X0296302Y0159713D03*
X0296302Y0158965D03*
X0296302Y0158217D03*
X0296302Y0157469D03*
X0296302Y0156720D03*
X0296302Y0156327D03*
X0296302Y0147311D03*
X0296302Y0146917D03*
X0296302Y0146169D03*
X0296302Y0145421D03*
X0296302Y0144673D03*
X0296302Y0144280D03*
X0296302Y0143531D03*
X0296302Y0142783D03*
X0296302Y0142035D03*
X0296302Y0141287D03*
X0296302Y0140894D03*
X0296302Y0140146D03*
X0296302Y0139398D03*
X0296302Y0138650D03*
X0296302Y0137902D03*
X0296302Y0137508D03*
X0296302Y0136760D03*
X0296302Y0136012D03*
X0296302Y0135264D03*
X0332404Y0148807D03*
X0332798Y0150303D03*
X0332798Y0150697D03*
X0332798Y0151445D03*
X0332798Y0152193D03*
X0332798Y0152941D03*
X0332404Y0154083D03*
X0365514Y0157469D03*
X0365514Y0158217D03*
X0365514Y0158965D03*
X0365514Y0159713D03*
X0365514Y0160106D03*
X0365514Y0160854D03*
X0365514Y0146169D03*
X0365514Y0145421D03*
X0365514Y0144673D03*
X0365514Y0144280D03*
X0365514Y0143531D03*
X0365514Y0142783D03*
X0296302Y0085626D03*
X0296302Y0084878D03*
X0296302Y0084484D03*
X0296302Y0083736D03*
X0296302Y0082988D03*
X0296302Y0082240D03*
X0296302Y0081492D03*
X0296302Y0081098D03*
X0296302Y0080350D03*
X0296302Y0079602D03*
X0296302Y0078854D03*
X0296302Y0078106D03*
X0296302Y0077713D03*
X0296302Y0076965D03*
X0296302Y0076217D03*
X0296302Y0075469D03*
X0296302Y0074720D03*
X0296302Y0074327D03*
X0296302Y0065311D03*
X0296302Y0064917D03*
X0296302Y0064169D03*
X0296302Y0063421D03*
X0296302Y0062673D03*
X0296302Y0062280D03*
X0296302Y0061531D03*
X0296302Y0060783D03*
X0296302Y0060035D03*
X0296302Y0059287D03*
X0296302Y0058894D03*
X0296302Y0058146D03*
X0296302Y0057398D03*
X0296302Y0056650D03*
X0296302Y0055902D03*
X0296302Y0055508D03*
X0296302Y0054760D03*
X0296302Y0054012D03*
X0296302Y0053264D03*
X0332404Y0066807D03*
X0332798Y0068303D03*
X0332798Y0068697D03*
X0332798Y0069445D03*
X0332798Y0070193D03*
X0332798Y0070941D03*
X0332404Y0072083D03*
X0365514Y0075469D03*
X0365514Y0076217D03*
X0365514Y0076965D03*
X0365514Y0077713D03*
X0365514Y0078106D03*
X0365514Y0078854D03*
X0365514Y0064169D03*
X0365514Y0063421D03*
X0365514Y0062673D03*
X0365514Y0062280D03*
X0365514Y0061531D03*
X0365514Y0060783D03*
D175*
X0391302Y0085252D03*
X0391302Y0167252D03*
X0391302Y0249252D03*
X0391302Y0331252D03*
X0391302Y0413252D03*
D176*
X0365514Y0406480D03*
X0365514Y0405339D03*
X0365514Y0404591D03*
X0365514Y0403843D03*
X0365514Y0403094D03*
X0365514Y0392543D03*
X0365514Y0391795D03*
X0365514Y0391047D03*
X0365514Y0389906D03*
X0365514Y0389157D03*
X0365514Y0388409D03*
X0332798Y0397071D03*
X0332798Y0397819D03*
X0332798Y0398567D03*
X0332798Y0399315D03*
X0296302Y0401953D03*
X0296302Y0403094D03*
X0296302Y0403843D03*
X0296302Y0404591D03*
X0296302Y0405339D03*
X0296302Y0406480D03*
X0296302Y0407228D03*
X0296302Y0407976D03*
X0296302Y0408724D03*
X0296302Y0409866D03*
X0296302Y0410614D03*
X0296302Y0411362D03*
X0296302Y0412110D03*
X0296302Y0413252D03*
X0296302Y0392543D03*
X0296302Y0391795D03*
X0296302Y0391047D03*
X0296302Y0389906D03*
X0296302Y0389157D03*
X0296302Y0388409D03*
X0296302Y0387661D03*
X0296302Y0386520D03*
X0296302Y0385772D03*
X0296302Y0385024D03*
X0296302Y0384276D03*
X0296302Y0383134D03*
X0296302Y0382386D03*
X0296302Y0381638D03*
X0296302Y0380890D03*
X0296302Y0331252D03*
X0296302Y0330110D03*
X0296302Y0329362D03*
X0296302Y0328614D03*
X0296302Y0327866D03*
X0296302Y0326724D03*
X0296302Y0325976D03*
X0296302Y0325228D03*
X0296302Y0324480D03*
X0296302Y0323339D03*
X0296302Y0322591D03*
X0296302Y0321843D03*
X0296302Y0321094D03*
X0296302Y0319953D03*
X0296302Y0310543D03*
X0296302Y0309795D03*
X0296302Y0309047D03*
X0296302Y0307906D03*
X0296302Y0307157D03*
X0296302Y0306409D03*
X0296302Y0305661D03*
X0296302Y0304520D03*
X0296302Y0303772D03*
X0296302Y0303024D03*
X0296302Y0302276D03*
X0296302Y0301134D03*
X0296302Y0300386D03*
X0296302Y0299638D03*
X0296302Y0298890D03*
X0332798Y0315071D03*
X0332798Y0315819D03*
X0332798Y0316567D03*
X0332798Y0317315D03*
X0365514Y0321094D03*
X0365514Y0321843D03*
X0365514Y0322591D03*
X0365514Y0323339D03*
X0365514Y0324480D03*
X0365514Y0310543D03*
X0365514Y0309795D03*
X0365514Y0309047D03*
X0365514Y0307906D03*
X0365514Y0307157D03*
X0365514Y0306409D03*
X0296302Y0249252D03*
X0296302Y0248110D03*
X0296302Y0247362D03*
X0296302Y0246614D03*
X0296302Y0245866D03*
X0296302Y0244724D03*
X0296302Y0243976D03*
X0296302Y0243228D03*
X0296302Y0242480D03*
X0296302Y0241339D03*
X0296302Y0240591D03*
X0296302Y0239843D03*
X0296302Y0239094D03*
X0296302Y0237953D03*
X0296302Y0228543D03*
X0296302Y0227795D03*
X0296302Y0227047D03*
X0296302Y0225906D03*
X0296302Y0225157D03*
X0296302Y0224409D03*
X0296302Y0223661D03*
X0296302Y0222520D03*
X0296302Y0221772D03*
X0296302Y0221024D03*
X0296302Y0220276D03*
X0296302Y0219134D03*
X0296302Y0218386D03*
X0296302Y0217638D03*
X0296302Y0216890D03*
X0332798Y0233071D03*
X0332798Y0233819D03*
X0332798Y0234567D03*
X0332798Y0235315D03*
X0365514Y0239094D03*
X0365514Y0239843D03*
X0365514Y0240591D03*
X0365514Y0241339D03*
X0365514Y0242480D03*
X0365514Y0228543D03*
X0365514Y0227795D03*
X0365514Y0227047D03*
X0365514Y0225906D03*
X0365514Y0225157D03*
X0365514Y0224409D03*
X0296302Y0167252D03*
X0296302Y0166110D03*
X0296302Y0165362D03*
X0296302Y0164614D03*
X0296302Y0163866D03*
X0296302Y0162724D03*
X0296302Y0161976D03*
X0296302Y0161228D03*
X0296302Y0160480D03*
X0296302Y0159339D03*
X0296302Y0158591D03*
X0296302Y0157843D03*
X0296302Y0157094D03*
X0296302Y0155953D03*
X0296302Y0146543D03*
X0296302Y0145795D03*
X0296302Y0145047D03*
X0296302Y0143906D03*
X0296302Y0143157D03*
X0296302Y0142409D03*
X0296302Y0141661D03*
X0296302Y0140520D03*
X0296302Y0139772D03*
X0296302Y0139024D03*
X0296302Y0138276D03*
X0296302Y0137134D03*
X0296302Y0136386D03*
X0296302Y0135638D03*
X0296302Y0134890D03*
X0332798Y0151071D03*
X0332798Y0151819D03*
X0332798Y0152567D03*
X0332798Y0153315D03*
X0365514Y0157094D03*
X0365514Y0157843D03*
X0365514Y0158591D03*
X0365514Y0159339D03*
X0365514Y0160480D03*
X0365514Y0146543D03*
X0365514Y0145795D03*
X0365514Y0145047D03*
X0365514Y0143906D03*
X0365514Y0143157D03*
X0365514Y0142409D03*
X0296302Y0085252D03*
X0296302Y0084110D03*
X0296302Y0083362D03*
X0296302Y0082614D03*
X0296302Y0081866D03*
X0296302Y0080724D03*
X0296302Y0079976D03*
X0296302Y0079228D03*
X0296302Y0078480D03*
X0296302Y0077339D03*
X0296302Y0076591D03*
X0296302Y0075843D03*
X0296302Y0075094D03*
X0296302Y0073953D03*
X0296302Y0064543D03*
X0296302Y0063795D03*
X0296302Y0063047D03*
X0296302Y0061906D03*
X0296302Y0061157D03*
X0296302Y0060409D03*
X0296302Y0059661D03*
X0296302Y0058520D03*
X0296302Y0057772D03*
X0296302Y0057024D03*
X0296302Y0056276D03*
X0296302Y0055134D03*
X0296302Y0054386D03*
X0296302Y0053638D03*
X0296302Y0052890D03*
X0332798Y0069071D03*
X0332798Y0069819D03*
X0332798Y0070567D03*
X0332798Y0071315D03*
X0365514Y0075094D03*
X0365514Y0075843D03*
X0365514Y0076591D03*
X0365514Y0077339D03*
X0365514Y0078480D03*
X0365514Y0064543D03*
X0365514Y0063795D03*
X0365514Y0063047D03*
X0365514Y0061906D03*
X0365514Y0061157D03*
X0365514Y0060409D03*
D177*
X0273329Y0060409D03*
X0273329Y0059661D03*
X0273329Y0058520D03*
X0273329Y0057772D03*
X0273329Y0057024D03*
X0273329Y0056276D03*
X0273329Y0055134D03*
X0273329Y0054386D03*
X0273329Y0053638D03*
X0273329Y0061157D03*
X0273329Y0061906D03*
X0273329Y0063047D03*
X0273329Y0063795D03*
X0273329Y0064543D03*
X0273329Y0073953D03*
X0273329Y0075094D03*
X0273329Y0075843D03*
X0273329Y0076591D03*
X0273329Y0077339D03*
X0273329Y0078480D03*
X0273329Y0079228D03*
X0273329Y0079976D03*
X0273329Y0080724D03*
X0273329Y0081866D03*
X0273329Y0082614D03*
X0273329Y0083362D03*
X0273329Y0084110D03*
X0273329Y0085252D03*
X0273329Y0135638D03*
X0273329Y0136386D03*
X0273329Y0137134D03*
X0273329Y0138276D03*
X0273329Y0139024D03*
X0273329Y0139772D03*
X0273329Y0140520D03*
X0273329Y0141661D03*
X0273329Y0142409D03*
X0273329Y0143157D03*
X0273329Y0143906D03*
X0273329Y0145047D03*
X0273329Y0145795D03*
X0273329Y0146543D03*
X0273329Y0155953D03*
X0273329Y0157094D03*
X0273329Y0157843D03*
X0273329Y0158591D03*
X0273329Y0159339D03*
X0273329Y0160480D03*
X0273329Y0161228D03*
X0273329Y0161976D03*
X0273329Y0162724D03*
X0273329Y0163866D03*
X0273329Y0164614D03*
X0273329Y0165362D03*
X0273329Y0166110D03*
X0273329Y0167252D03*
X0273329Y0217638D03*
X0273329Y0218386D03*
X0273329Y0219134D03*
X0273329Y0220276D03*
X0273329Y0221024D03*
X0273329Y0221772D03*
X0273329Y0222520D03*
X0273329Y0223661D03*
X0273329Y0224409D03*
X0273329Y0225157D03*
X0273329Y0225906D03*
X0273329Y0227047D03*
X0273329Y0227795D03*
X0273329Y0228543D03*
X0273329Y0237953D03*
X0273329Y0239094D03*
X0273329Y0239843D03*
X0273329Y0240591D03*
X0273329Y0241339D03*
X0273329Y0242480D03*
X0273329Y0243228D03*
X0273329Y0243976D03*
X0273329Y0244724D03*
X0273329Y0245866D03*
X0273329Y0246614D03*
X0273329Y0247362D03*
X0273329Y0248110D03*
X0273329Y0249252D03*
X0273329Y0299638D03*
X0273329Y0300386D03*
X0273329Y0301134D03*
X0273329Y0302276D03*
X0273329Y0303024D03*
X0273329Y0303772D03*
X0273329Y0304520D03*
X0273329Y0305661D03*
X0273329Y0306409D03*
X0273329Y0307157D03*
X0273329Y0307906D03*
X0273329Y0309047D03*
X0273329Y0309795D03*
X0273329Y0310543D03*
X0273329Y0319953D03*
X0273329Y0321094D03*
X0273329Y0321843D03*
X0273329Y0322591D03*
X0273329Y0323339D03*
X0273329Y0324480D03*
X0273329Y0325228D03*
X0273329Y0325976D03*
X0273329Y0326724D03*
X0273329Y0327866D03*
X0273329Y0328614D03*
X0273329Y0329362D03*
X0273329Y0330110D03*
X0273329Y0331252D03*
X0273329Y0381638D03*
X0273329Y0382386D03*
X0273329Y0383134D03*
X0273329Y0384276D03*
X0273329Y0385024D03*
X0273329Y0385772D03*
X0273329Y0386520D03*
X0273329Y0387661D03*
X0273329Y0388409D03*
X0273329Y0389157D03*
X0273329Y0389906D03*
X0273329Y0391047D03*
X0273329Y0391795D03*
X0273329Y0392543D03*
X0273329Y0401953D03*
X0273329Y0403094D03*
X0273329Y0403843D03*
X0273329Y0404591D03*
X0273329Y0405339D03*
X0273329Y0406480D03*
X0273329Y0407228D03*
X0273329Y0407976D03*
X0273329Y0408724D03*
X0273329Y0409866D03*
X0273329Y0410614D03*
X0273329Y0411362D03*
X0273329Y0412110D03*
X0273329Y0413252D03*
D178*
X0355180Y0412878D03*
X0355180Y0412484D03*
X0355180Y0411736D03*
X0355180Y0410988D03*
X0355180Y0410240D03*
X0355180Y0385398D03*
X0355180Y0384650D03*
X0355180Y0383902D03*
X0355180Y0383508D03*
X0355180Y0382760D03*
X0355180Y0382012D03*
X0355180Y0330878D03*
X0355180Y0330484D03*
X0355180Y0329736D03*
X0355180Y0328988D03*
X0355180Y0328240D03*
X0355180Y0303398D03*
X0355180Y0302650D03*
X0355180Y0301902D03*
X0355180Y0301508D03*
X0355180Y0300760D03*
X0355180Y0300012D03*
X0355180Y0248878D03*
X0355180Y0248484D03*
X0355180Y0247736D03*
X0355180Y0246988D03*
X0355180Y0246240D03*
X0355180Y0221398D03*
X0355180Y0220650D03*
X0355180Y0219902D03*
X0355180Y0219508D03*
X0355180Y0218760D03*
X0355180Y0218012D03*
X0355180Y0166878D03*
X0355180Y0166484D03*
X0355180Y0165736D03*
X0355180Y0164988D03*
X0355180Y0164240D03*
X0355180Y0139398D03*
X0355180Y0138650D03*
X0355180Y0137902D03*
X0355180Y0137508D03*
X0355180Y0136760D03*
X0355180Y0136012D03*
X0355180Y0084878D03*
X0355180Y0084484D03*
X0355180Y0083736D03*
X0355180Y0082988D03*
X0355180Y0082240D03*
X0355180Y0057398D03*
X0355180Y0056650D03*
X0355180Y0055902D03*
X0355180Y0055508D03*
X0355180Y0054760D03*
X0355180Y0054012D03*
D179*
X0317739Y0084878D03*
X0317739Y0166878D03*
X0317739Y0248878D03*
X0317739Y0330878D03*
X0317739Y0412878D03*
D180*
X0273329Y0412878D03*
X0273329Y0412484D03*
X0273329Y0411736D03*
X0273329Y0410988D03*
X0273329Y0410240D03*
X0273329Y0409492D03*
X0273329Y0409098D03*
X0273329Y0408350D03*
X0273329Y0407602D03*
X0273329Y0406854D03*
X0273329Y0406106D03*
X0273329Y0405713D03*
X0273329Y0404965D03*
X0273329Y0404217D03*
X0273329Y0403469D03*
X0273329Y0402720D03*
X0273329Y0402327D03*
X0273329Y0393311D03*
X0273329Y0392917D03*
X0273329Y0392169D03*
X0273329Y0391421D03*
X0273329Y0390673D03*
X0273329Y0390280D03*
X0273329Y0389531D03*
X0273329Y0388783D03*
X0273329Y0388035D03*
X0273329Y0387287D03*
X0273329Y0386894D03*
X0273329Y0386146D03*
X0273329Y0385398D03*
X0273329Y0384650D03*
X0273329Y0383902D03*
X0273329Y0383508D03*
X0273329Y0382760D03*
X0273329Y0382012D03*
X0273329Y0330878D03*
X0273329Y0330484D03*
X0273329Y0329736D03*
X0273329Y0328988D03*
X0273329Y0328240D03*
X0273329Y0327492D03*
X0273329Y0327098D03*
X0273329Y0326350D03*
X0273329Y0325602D03*
X0273329Y0324854D03*
X0273329Y0324106D03*
X0273329Y0323713D03*
X0273329Y0322965D03*
X0273329Y0322217D03*
X0273329Y0321469D03*
X0273329Y0320720D03*
X0273329Y0320327D03*
X0273329Y0311311D03*
X0273329Y0310917D03*
X0273329Y0310169D03*
X0273329Y0309421D03*
X0273329Y0308673D03*
X0273329Y0308280D03*
X0273329Y0307531D03*
X0273329Y0306783D03*
X0273329Y0306035D03*
X0273329Y0305287D03*
X0273329Y0304894D03*
X0273329Y0304146D03*
X0273329Y0303398D03*
X0273329Y0302650D03*
X0273329Y0301902D03*
X0273329Y0301508D03*
X0273329Y0300760D03*
X0273329Y0300012D03*
X0273329Y0248878D03*
X0273329Y0248484D03*
X0273329Y0247736D03*
X0273329Y0246988D03*
X0273329Y0246240D03*
X0273329Y0245492D03*
X0273329Y0245098D03*
X0273329Y0244350D03*
X0273329Y0243602D03*
X0273329Y0242854D03*
X0273329Y0242106D03*
X0273329Y0241713D03*
X0273329Y0240965D03*
X0273329Y0240217D03*
X0273329Y0239469D03*
X0273329Y0238720D03*
X0273329Y0238327D03*
X0273329Y0229311D03*
X0273329Y0228917D03*
X0273329Y0228169D03*
X0273329Y0227421D03*
X0273329Y0226673D03*
X0273329Y0226280D03*
X0273329Y0225531D03*
X0273329Y0224783D03*
X0273329Y0224035D03*
X0273329Y0223287D03*
X0273329Y0222894D03*
X0273329Y0222146D03*
X0273329Y0221398D03*
X0273329Y0220650D03*
X0273329Y0219902D03*
X0273329Y0219508D03*
X0273329Y0218760D03*
X0273329Y0218012D03*
X0273329Y0166878D03*
X0273329Y0166484D03*
X0273329Y0165736D03*
X0273329Y0164988D03*
X0273329Y0164240D03*
X0273329Y0163492D03*
X0273329Y0163098D03*
X0273329Y0162350D03*
X0273329Y0161602D03*
X0273329Y0160854D03*
X0273329Y0160106D03*
X0273329Y0159713D03*
X0273329Y0158965D03*
X0273329Y0158217D03*
X0273329Y0157469D03*
X0273329Y0156720D03*
X0273329Y0156327D03*
X0273329Y0147311D03*
X0273329Y0146917D03*
X0273329Y0146169D03*
X0273329Y0145421D03*
X0273329Y0144673D03*
X0273329Y0144280D03*
X0273329Y0143531D03*
X0273329Y0142783D03*
X0273329Y0142035D03*
X0273329Y0141287D03*
X0273329Y0140894D03*
X0273329Y0140146D03*
X0273329Y0139398D03*
X0273329Y0138650D03*
X0273329Y0137902D03*
X0273329Y0137508D03*
X0273329Y0136760D03*
X0273329Y0136012D03*
X0273329Y0084878D03*
X0273329Y0084484D03*
X0273329Y0083736D03*
X0273329Y0082988D03*
X0273329Y0082240D03*
X0273329Y0081492D03*
X0273329Y0081098D03*
X0273329Y0080350D03*
X0273329Y0079602D03*
X0273329Y0078854D03*
X0273329Y0078106D03*
X0273329Y0077713D03*
X0273329Y0076965D03*
X0273329Y0076217D03*
X0273329Y0075469D03*
X0273329Y0074720D03*
X0273329Y0074327D03*
X0273329Y0065311D03*
X0273329Y0064917D03*
X0273329Y0064169D03*
X0273329Y0063421D03*
X0273329Y0062673D03*
X0273329Y0062280D03*
X0273329Y0061531D03*
X0273329Y0060783D03*
X0273329Y0060035D03*
X0273329Y0059287D03*
X0273329Y0058894D03*
X0273329Y0058146D03*
X0273329Y0057398D03*
X0273329Y0056650D03*
X0273329Y0055902D03*
X0273329Y0055508D03*
X0273329Y0054760D03*
X0273329Y0054012D03*
D181*
X0317542Y0054760D03*
X0317935Y0084484D03*
X0317542Y0136760D03*
X0317935Y0166484D03*
X0317542Y0218760D03*
X0317935Y0248484D03*
X0317542Y0300760D03*
X0317935Y0330484D03*
X0317542Y0382760D03*
X0317935Y0412484D03*
D182*
X0355180Y0412110D03*
X0355180Y0411362D03*
X0355180Y0410614D03*
X0355180Y0409866D03*
X0355180Y0385772D03*
X0355180Y0385024D03*
X0355180Y0384276D03*
X0355180Y0383134D03*
X0355180Y0382386D03*
X0355180Y0330110D03*
X0355180Y0329362D03*
X0355180Y0328614D03*
X0355180Y0327866D03*
X0355180Y0303772D03*
X0355180Y0303024D03*
X0355180Y0302276D03*
X0355180Y0301134D03*
X0355180Y0300386D03*
X0355180Y0248110D03*
X0355180Y0247362D03*
X0355180Y0246614D03*
X0355180Y0245866D03*
X0355180Y0221772D03*
X0355180Y0221024D03*
X0355180Y0220276D03*
X0355180Y0219134D03*
X0355180Y0218386D03*
X0355180Y0166110D03*
X0355180Y0165362D03*
X0355180Y0164614D03*
X0355180Y0163866D03*
X0355180Y0139772D03*
X0355180Y0139024D03*
X0355180Y0138276D03*
X0355180Y0137134D03*
X0355180Y0136386D03*
X0355180Y0084110D03*
X0355180Y0083362D03*
X0355180Y0082614D03*
X0355180Y0081866D03*
X0355180Y0057772D03*
X0355180Y0057024D03*
X0355180Y0056276D03*
X0355180Y0055134D03*
X0355180Y0054386D03*
D183*
X0317916Y0055134D03*
X0317916Y0084110D03*
X0317916Y0137134D03*
X0317916Y0166110D03*
X0317916Y0219134D03*
X0317916Y0248110D03*
X0317916Y0301134D03*
X0317916Y0330110D03*
X0317916Y0383134D03*
X0317916Y0412110D03*
D184*
X0317935Y0411736D03*
X0317935Y0383508D03*
X0317935Y0329736D03*
X0317935Y0301508D03*
X0317935Y0247736D03*
X0317935Y0219508D03*
X0317935Y0165736D03*
X0317935Y0137508D03*
X0317935Y0083736D03*
X0317935Y0055508D03*
D185*
X0318113Y0083362D03*
X0318113Y0165362D03*
X0318113Y0247362D03*
X0318113Y0329362D03*
X0318113Y0411362D03*
D186*
X0318309Y0410988D03*
X0356302Y0407602D03*
X0356302Y0325602D03*
X0318309Y0328988D03*
X0318309Y0246988D03*
X0356302Y0243602D03*
X0318309Y0164988D03*
X0356302Y0161602D03*
X0356302Y0079602D03*
X0318309Y0082988D03*
D187*
X0391321Y0082614D03*
X0391321Y0164614D03*
X0391321Y0246614D03*
X0391321Y0328614D03*
X0391321Y0410614D03*
D188*
X0391124Y0410240D03*
X0391124Y0328240D03*
X0391124Y0246240D03*
X0391124Y0164240D03*
X0391124Y0082240D03*
D189*
X0318683Y0082240D03*
X0318683Y0164240D03*
X0318683Y0246240D03*
X0318683Y0328240D03*
X0318683Y0410240D03*
D190*
X0391105Y0409866D03*
X0391105Y0327866D03*
X0391105Y0245866D03*
X0391105Y0163866D03*
X0391105Y0081866D03*
D191*
X0319983Y0079976D03*
X0318880Y0081866D03*
X0319628Y0058520D03*
X0319628Y0140520D03*
X0319983Y0161976D03*
X0318880Y0163866D03*
X0319628Y0222520D03*
X0319983Y0243976D03*
X0318880Y0245866D03*
X0319628Y0304520D03*
X0319983Y0325976D03*
X0318880Y0327866D03*
X0319628Y0386520D03*
X0319983Y0407976D03*
X0318880Y0409866D03*
D192*
X0284825Y0400831D03*
X0284825Y0400083D03*
X0284825Y0399689D03*
X0284825Y0398941D03*
X0284825Y0398193D03*
X0284825Y0397445D03*
X0284825Y0396697D03*
X0284825Y0396303D03*
X0284825Y0395555D03*
X0284825Y0394807D03*
X0284825Y0394059D03*
X0391321Y0409492D03*
X0391321Y0327492D03*
X0284825Y0318831D03*
X0284825Y0318083D03*
X0284825Y0317689D03*
X0284825Y0316941D03*
X0284825Y0316193D03*
X0284825Y0315445D03*
X0284825Y0314697D03*
X0284825Y0314303D03*
X0284825Y0313555D03*
X0284825Y0312807D03*
X0284825Y0312059D03*
X0391321Y0245492D03*
X0284825Y0236831D03*
X0284825Y0236083D03*
X0284825Y0235689D03*
X0284825Y0234941D03*
X0284825Y0234193D03*
X0284825Y0233445D03*
X0284825Y0232697D03*
X0284825Y0232303D03*
X0284825Y0231555D03*
X0284825Y0230807D03*
X0284825Y0230059D03*
X0391321Y0163492D03*
X0284825Y0154831D03*
X0284825Y0154083D03*
X0284825Y0153689D03*
X0284825Y0152941D03*
X0284825Y0152193D03*
X0284825Y0151445D03*
X0284825Y0150697D03*
X0284825Y0150303D03*
X0284825Y0149555D03*
X0284825Y0148807D03*
X0284825Y0148059D03*
X0391321Y0081492D03*
X0284825Y0072831D03*
X0284825Y0072083D03*
X0284825Y0071689D03*
X0284825Y0070941D03*
X0284825Y0070193D03*
X0284825Y0069445D03*
X0284825Y0068697D03*
X0284825Y0068303D03*
X0284825Y0067555D03*
X0284825Y0066807D03*
X0284825Y0066059D03*
D193*
X0319431Y0080724D03*
X0319431Y0162724D03*
X0319431Y0244724D03*
X0319431Y0326724D03*
X0319431Y0408724D03*
D194*
X0319806Y0408350D03*
X0355554Y0408350D03*
X0355554Y0386894D03*
X0355554Y0326350D03*
X0355554Y0304894D03*
X0319806Y0326350D03*
X0319806Y0244350D03*
X0355554Y0244350D03*
X0355554Y0222894D03*
X0355554Y0162350D03*
X0355554Y0140894D03*
X0319806Y0162350D03*
X0319806Y0080350D03*
X0355554Y0080350D03*
X0355554Y0058894D03*
D195*
X0355928Y0079976D03*
X0318683Y0057024D03*
X0318683Y0139024D03*
X0355928Y0161976D03*
X0318683Y0221024D03*
X0355928Y0243976D03*
X0318683Y0303024D03*
X0355928Y0325976D03*
X0318683Y0385024D03*
X0355928Y0407976D03*
D196*
X0327148Y0407602D03*
X0327148Y0325602D03*
X0327148Y0243602D03*
X0327148Y0161602D03*
X0327148Y0079602D03*
D197*
X0331282Y0075469D03*
X0332030Y0074720D03*
X0332030Y0074327D03*
X0332030Y0065311D03*
X0331282Y0063421D03*
X0310573Y0079602D03*
X0331282Y0145421D03*
X0332030Y0147311D03*
X0332030Y0156327D03*
X0332030Y0156720D03*
X0331282Y0157469D03*
X0310573Y0161602D03*
X0331282Y0227421D03*
X0332030Y0229311D03*
X0332030Y0238327D03*
X0332030Y0238720D03*
X0331282Y0239469D03*
X0310573Y0243602D03*
X0331282Y0309421D03*
X0332030Y0311311D03*
X0332030Y0320327D03*
X0332030Y0320720D03*
X0331282Y0321469D03*
X0310573Y0325602D03*
X0331282Y0391421D03*
X0332030Y0393311D03*
X0332030Y0402327D03*
X0332030Y0402720D03*
X0331282Y0403469D03*
X0310573Y0407602D03*
D198*
X0332227Y0401205D03*
X0332227Y0400457D03*
X0332227Y0394433D03*
X0332227Y0393685D03*
X0331479Y0391795D03*
X0365337Y0407228D03*
X0273526Y0393685D03*
X0365337Y0325228D03*
X0332227Y0319205D03*
X0332227Y0318457D03*
X0332227Y0312433D03*
X0332227Y0311685D03*
X0331479Y0309795D03*
X0273526Y0311685D03*
X0365337Y0243228D03*
X0332227Y0237205D03*
X0332227Y0236457D03*
X0332227Y0230433D03*
X0332227Y0229685D03*
X0331479Y0227795D03*
X0273526Y0229685D03*
X0365337Y0161228D03*
X0332227Y0155205D03*
X0332227Y0154457D03*
X0332227Y0148433D03*
X0332227Y0147685D03*
X0331479Y0145795D03*
X0273526Y0147685D03*
X0365337Y0079228D03*
X0332227Y0073205D03*
X0332227Y0072457D03*
X0332227Y0066433D03*
X0332227Y0065685D03*
X0331479Y0063795D03*
X0273526Y0065685D03*
D199*
X0328073Y0079228D03*
X0328073Y0161228D03*
X0328073Y0243228D03*
X0328073Y0325228D03*
X0328073Y0407228D03*
D200*
X0310022Y0407228D03*
X0273132Y0379748D03*
X0310022Y0325228D03*
X0273132Y0297748D03*
X0310022Y0243228D03*
X0273132Y0215748D03*
X0310022Y0161228D03*
X0273132Y0133748D03*
X0310022Y0079228D03*
X0273132Y0051748D03*
D201*
X0328841Y0078854D03*
X0328841Y0160854D03*
X0328841Y0242854D03*
X0328841Y0324854D03*
X0328841Y0406854D03*
D202*
X0309628Y0406854D03*
X0309628Y0324854D03*
X0309628Y0242854D03*
X0309628Y0160854D03*
X0309628Y0078854D03*
D203*
X0329215Y0078480D03*
X0329215Y0160480D03*
X0329215Y0242480D03*
X0329215Y0324480D03*
X0329215Y0406480D03*
D204*
X0309451Y0406480D03*
X0309451Y0324480D03*
X0309451Y0242480D03*
X0309451Y0160480D03*
X0309451Y0078480D03*
D205*
X0329589Y0078106D03*
X0329983Y0077713D03*
X0329983Y0159713D03*
X0329589Y0160106D03*
X0329983Y0241713D03*
X0329589Y0242106D03*
X0329983Y0323713D03*
X0329589Y0324106D03*
X0329983Y0405713D03*
X0329589Y0406106D03*
D206*
X0309471Y0406106D03*
X0391124Y0378626D03*
X0309471Y0324106D03*
X0391124Y0296626D03*
X0309471Y0242106D03*
X0391124Y0214626D03*
X0309471Y0160106D03*
X0391124Y0132626D03*
X0309471Y0078106D03*
X0391124Y0050626D03*
D207*
X0309451Y0077713D03*
X0296302Y0050626D03*
X0296302Y0132626D03*
X0309451Y0159713D03*
X0296302Y0214626D03*
X0309451Y0241713D03*
X0296302Y0296626D03*
X0309451Y0323713D03*
X0296302Y0378626D03*
X0309451Y0405713D03*
D208*
X0330357Y0405339D03*
X0330357Y0389906D03*
X0330357Y0323339D03*
X0330357Y0307906D03*
X0330357Y0241339D03*
X0330357Y0225906D03*
X0330357Y0159339D03*
X0330357Y0143906D03*
X0330357Y0077339D03*
X0330357Y0061906D03*
D209*
X0330534Y0062280D03*
X0330534Y0076965D03*
X0330534Y0144280D03*
X0330534Y0158965D03*
X0330534Y0226280D03*
X0330534Y0240965D03*
X0330534Y0308280D03*
X0330534Y0322965D03*
X0330534Y0390280D03*
X0330534Y0404965D03*
D210*
X0309077Y0404965D03*
X0309077Y0390280D03*
X0309077Y0322965D03*
X0309077Y0308280D03*
X0309077Y0240965D03*
X0309077Y0226280D03*
X0309077Y0158965D03*
X0309077Y0144280D03*
X0309077Y0076965D03*
X0309077Y0062280D03*
D211*
X0330908Y0076591D03*
X0330908Y0158591D03*
X0330908Y0240591D03*
X0330908Y0322591D03*
X0330908Y0404591D03*
D212*
X0331085Y0404217D03*
X0330731Y0390673D03*
X0317542Y0378626D03*
X0331085Y0322217D03*
X0330731Y0308673D03*
X0317542Y0296626D03*
X0331085Y0240217D03*
X0330731Y0226673D03*
X0317542Y0214626D03*
X0331085Y0158217D03*
X0330731Y0144673D03*
X0317542Y0132626D03*
X0331085Y0076217D03*
X0330731Y0062673D03*
X0317542Y0050626D03*
D213*
X0331085Y0063047D03*
X0331085Y0075843D03*
X0331085Y0145047D03*
X0331085Y0157843D03*
X0331085Y0227047D03*
X0331085Y0239843D03*
X0331085Y0309047D03*
X0331085Y0321843D03*
X0331085Y0391047D03*
X0331085Y0403843D03*
D214*
X0331676Y0403094D03*
X0332030Y0401953D03*
X0331676Y0321094D03*
X0332030Y0319953D03*
X0331676Y0239094D03*
X0332030Y0237953D03*
X0331676Y0157094D03*
X0332030Y0155953D03*
X0331676Y0075094D03*
X0332030Y0073953D03*
D215*
X0332227Y0073579D03*
X0332227Y0072831D03*
X0332227Y0066059D03*
X0331479Y0064169D03*
X0365337Y0064917D03*
X0365337Y0060035D03*
X0365337Y0074720D03*
X0273526Y0073579D03*
X0365337Y0142035D03*
X0365337Y0146917D03*
X0365337Y0156720D03*
X0332227Y0155579D03*
X0332227Y0154831D03*
X0332227Y0148059D03*
X0331479Y0146169D03*
X0273526Y0155579D03*
X0365337Y0224035D03*
X0365337Y0228917D03*
X0365337Y0238720D03*
X0332227Y0237579D03*
X0332227Y0236831D03*
X0332227Y0230059D03*
X0331479Y0228169D03*
X0273526Y0237579D03*
X0365337Y0306035D03*
X0365337Y0310917D03*
X0365337Y0320720D03*
X0332227Y0319579D03*
X0332227Y0318831D03*
X0332227Y0312059D03*
X0331479Y0310169D03*
X0273526Y0319579D03*
X0365337Y0388035D03*
X0365337Y0392917D03*
X0365337Y0402720D03*
X0332227Y0401579D03*
X0332227Y0400831D03*
X0332227Y0394059D03*
X0331479Y0392169D03*
X0273526Y0401579D03*
D216*
X0359510Y0402327D03*
X0359510Y0320327D03*
X0359510Y0238327D03*
X0359510Y0156327D03*
X0359510Y0074327D03*
D217*
X0358743Y0073953D03*
X0317365Y0053638D03*
X0317365Y0135638D03*
X0358743Y0155953D03*
X0317365Y0217638D03*
X0358743Y0237953D03*
X0317365Y0299638D03*
X0358743Y0319953D03*
X0317365Y0381638D03*
X0358743Y0401953D03*
D218*
X0358565Y0401579D03*
X0358565Y0319579D03*
X0358565Y0237579D03*
X0358565Y0155579D03*
X0358565Y0073579D03*
D219*
X0331853Y0064917D03*
X0296105Y0073579D03*
X0331853Y0146917D03*
X0296105Y0155579D03*
X0331853Y0228917D03*
X0296105Y0237579D03*
X0331853Y0310917D03*
X0296105Y0319579D03*
X0331853Y0392917D03*
X0296105Y0401579D03*
D220*
X0284825Y0401205D03*
X0284825Y0400457D03*
X0284825Y0399315D03*
X0284825Y0398567D03*
X0284825Y0397819D03*
X0284825Y0397071D03*
X0284825Y0395929D03*
X0284825Y0395181D03*
X0284825Y0394433D03*
X0284825Y0319205D03*
X0284825Y0318457D03*
X0284825Y0317315D03*
X0284825Y0316567D03*
X0284825Y0315819D03*
X0284825Y0315071D03*
X0284825Y0313929D03*
X0284825Y0313181D03*
X0284825Y0312433D03*
X0284825Y0237205D03*
X0284825Y0236457D03*
X0284825Y0235315D03*
X0284825Y0234567D03*
X0284825Y0233819D03*
X0284825Y0233071D03*
X0284825Y0231929D03*
X0284825Y0231181D03*
X0284825Y0230433D03*
X0284825Y0155205D03*
X0284825Y0154457D03*
X0284825Y0153315D03*
X0284825Y0152567D03*
X0284825Y0151819D03*
X0284825Y0151071D03*
X0284825Y0149929D03*
X0284825Y0149181D03*
X0284825Y0148433D03*
X0284825Y0073205D03*
X0284825Y0072457D03*
X0284825Y0071315D03*
X0284825Y0070567D03*
X0284825Y0069819D03*
X0284825Y0069071D03*
X0284825Y0067929D03*
X0284825Y0067181D03*
X0284825Y0066433D03*
D221*
X0358191Y0066807D03*
X0358191Y0072083D03*
X0358191Y0072831D03*
X0358191Y0148807D03*
X0358191Y0154083D03*
X0358191Y0154831D03*
X0358191Y0230807D03*
X0358191Y0236083D03*
X0358191Y0236831D03*
X0358191Y0312807D03*
X0358191Y0318083D03*
X0358191Y0318831D03*
X0358191Y0394807D03*
X0358191Y0400083D03*
X0358191Y0400831D03*
D222*
X0358191Y0400457D03*
X0358191Y0395181D03*
X0358191Y0318457D03*
X0358191Y0313181D03*
X0358191Y0236457D03*
X0358191Y0231181D03*
X0358191Y0154457D03*
X0358191Y0149181D03*
X0358191Y0072457D03*
X0358191Y0067181D03*
D223*
X0357994Y0067555D03*
X0357994Y0068303D03*
X0357994Y0068697D03*
X0357994Y0070941D03*
X0357994Y0071689D03*
X0357994Y0149555D03*
X0357994Y0150303D03*
X0357994Y0150697D03*
X0357994Y0152941D03*
X0357994Y0153689D03*
X0357994Y0231555D03*
X0357994Y0232303D03*
X0357994Y0232697D03*
X0357994Y0234941D03*
X0357994Y0235689D03*
X0357994Y0313555D03*
X0357994Y0314303D03*
X0357994Y0314697D03*
X0357994Y0316941D03*
X0357994Y0317689D03*
X0357994Y0395555D03*
X0357994Y0396303D03*
X0357994Y0396697D03*
X0357994Y0398941D03*
X0357994Y0399689D03*
D224*
X0357994Y0399315D03*
X0357994Y0397071D03*
X0357994Y0395929D03*
X0357994Y0317315D03*
X0357994Y0315071D03*
X0357994Y0313929D03*
X0357994Y0235315D03*
X0357994Y0233071D03*
X0357994Y0231929D03*
X0357994Y0153315D03*
X0357994Y0151071D03*
X0357994Y0149929D03*
X0357994Y0071315D03*
X0357994Y0069071D03*
X0357994Y0067929D03*
D225*
X0357817Y0069819D03*
X0357817Y0070567D03*
X0357817Y0151819D03*
X0357817Y0152567D03*
X0357817Y0233819D03*
X0357817Y0234567D03*
X0357817Y0315819D03*
X0357817Y0316567D03*
X0357817Y0397819D03*
X0357817Y0398567D03*
D226*
X0357817Y0398193D03*
X0357817Y0397445D03*
X0357817Y0316193D03*
X0357817Y0315445D03*
X0357817Y0234193D03*
X0357817Y0233445D03*
X0357817Y0152193D03*
X0357817Y0151445D03*
X0357817Y0070193D03*
X0357817Y0069445D03*
D227*
X0358369Y0066059D03*
X0317739Y0054012D03*
X0317739Y0136012D03*
X0358369Y0148059D03*
X0317739Y0218012D03*
X0358369Y0230059D03*
X0317739Y0300012D03*
X0358369Y0312059D03*
X0317739Y0382012D03*
X0358369Y0394059D03*
D228*
X0358565Y0393685D03*
X0358565Y0311685D03*
X0358565Y0229685D03*
X0358565Y0147685D03*
X0358565Y0065685D03*
D229*
X0331853Y0064543D03*
X0296105Y0065685D03*
X0296105Y0147685D03*
X0331853Y0146543D03*
X0331853Y0228543D03*
X0296105Y0229685D03*
X0331853Y0310543D03*
X0296105Y0311685D03*
X0296105Y0393685D03*
X0331853Y0392543D03*
D230*
X0359117Y0393311D03*
X0359117Y0311311D03*
X0359117Y0229311D03*
X0359117Y0147311D03*
X0359117Y0065311D03*
D231*
X0329963Y0061531D03*
X0329963Y0143531D03*
X0329963Y0225531D03*
X0329963Y0307531D03*
X0329963Y0389531D03*
D232*
X0273132Y0050626D03*
X0309274Y0061531D03*
X0273132Y0132626D03*
X0309274Y0143531D03*
X0273132Y0214626D03*
X0309274Y0225531D03*
X0273132Y0296626D03*
X0309274Y0307531D03*
X0273132Y0378626D03*
X0309274Y0389531D03*
D233*
X0329786Y0389157D03*
X0329786Y0307157D03*
X0329786Y0225157D03*
X0329786Y0143157D03*
X0329786Y0061157D03*
D234*
X0309471Y0061157D03*
X0309471Y0143157D03*
X0309471Y0225157D03*
X0309471Y0307157D03*
X0309471Y0389157D03*
D235*
X0329018Y0388783D03*
X0329018Y0306783D03*
X0329018Y0224783D03*
X0329018Y0142783D03*
X0329018Y0060783D03*
D236*
X0309451Y0060783D03*
X0309451Y0142783D03*
X0309451Y0224783D03*
X0309451Y0306783D03*
X0309451Y0388783D03*
D237*
X0317739Y0379000D03*
X0328644Y0388409D03*
X0328644Y0306409D03*
X0317739Y0297000D03*
X0328644Y0224409D03*
X0317739Y0215000D03*
X0328644Y0142409D03*
X0317739Y0133000D03*
X0328644Y0060409D03*
X0317739Y0051000D03*
D238*
X0317542Y0050252D03*
X0309628Y0060409D03*
X0273132Y0051000D03*
X0273132Y0133000D03*
X0309628Y0142409D03*
X0317542Y0132252D03*
X0317542Y0214252D03*
X0309628Y0224409D03*
X0273132Y0215000D03*
X0273132Y0297000D03*
X0309628Y0306409D03*
X0317542Y0296252D03*
X0317542Y0378252D03*
X0309628Y0388409D03*
X0273132Y0379000D03*
D239*
X0328270Y0388035D03*
X0328270Y0306035D03*
X0328270Y0224035D03*
X0328270Y0142035D03*
X0328270Y0060035D03*
D240*
X0309648Y0060035D03*
X0273152Y0051374D03*
X0273152Y0133374D03*
X0309648Y0142035D03*
X0273152Y0215374D03*
X0309648Y0224035D03*
X0273152Y0297374D03*
X0309648Y0306035D03*
X0273152Y0379374D03*
X0309648Y0388035D03*
D241*
X0356872Y0387661D03*
X0356872Y0305661D03*
X0356872Y0223661D03*
X0356872Y0141661D03*
X0356872Y0059661D03*
D242*
X0354806Y0051748D03*
X0319057Y0057772D03*
X0354806Y0133748D03*
X0319057Y0139772D03*
X0354806Y0215748D03*
X0319057Y0221772D03*
X0354806Y0297748D03*
X0319057Y0303772D03*
X0354806Y0379748D03*
X0319057Y0385772D03*
D243*
X0318861Y0385398D03*
X0318506Y0384650D03*
X0355002Y0379374D03*
X0318861Y0303398D03*
X0318506Y0302650D03*
X0355002Y0297374D03*
X0318861Y0221398D03*
X0318506Y0220650D03*
X0355002Y0215374D03*
X0318861Y0139398D03*
X0318506Y0138650D03*
X0355002Y0133374D03*
X0318861Y0057398D03*
X0318506Y0056650D03*
X0355002Y0051374D03*
D244*
X0318309Y0056276D03*
X0318309Y0138276D03*
X0318309Y0220276D03*
X0318309Y0302276D03*
X0318309Y0384276D03*
D245*
X0318113Y0383902D03*
X0318113Y0301902D03*
X0318113Y0219902D03*
X0318113Y0137902D03*
X0318113Y0055902D03*
D246*
X0317561Y0054386D03*
X0317561Y0136386D03*
X0317561Y0218386D03*
X0317561Y0300386D03*
X0317561Y0382386D03*
D247*
X0317542Y0381264D03*
X0317542Y0299264D03*
X0317542Y0217264D03*
X0317542Y0135264D03*
X0317542Y0053264D03*
D248*
X0391124Y0052890D03*
X0391124Y0134890D03*
X0391124Y0216890D03*
X0391124Y0298890D03*
X0391124Y0380890D03*
D249*
X0317739Y0380890D03*
X0317739Y0298890D03*
X0317739Y0216890D03*
X0317739Y0134890D03*
X0317739Y0052890D03*
D250*
X0317739Y0052516D03*
X0317739Y0134516D03*
X0317739Y0216516D03*
X0317739Y0298516D03*
X0317739Y0380516D03*
D251*
X0355180Y0380122D03*
X0355180Y0298122D03*
X0355180Y0216122D03*
X0355180Y0134122D03*
X0355180Y0052122D03*
D252*
X0317365Y0052122D03*
X0317365Y0134122D03*
X0317365Y0216122D03*
X0317365Y0298122D03*
X0317365Y0380122D03*
D253*
X0317365Y0379748D03*
X0317365Y0297748D03*
X0317365Y0215748D03*
X0317365Y0133748D03*
X0317365Y0051748D03*
D254*
X0317561Y0051374D03*
X0317561Y0133374D03*
X0317561Y0215374D03*
X0317561Y0297374D03*
X0317561Y0379374D03*
D255*
X0296282Y0379000D03*
X0391124Y0379000D03*
X0391124Y0297000D03*
X0296282Y0297000D03*
X0296282Y0215000D03*
X0391124Y0215000D03*
X0391124Y0133000D03*
X0296282Y0133000D03*
X0296282Y0051000D03*
X0391124Y0051000D03*
D256*
X0354983Y0051000D03*
X0354983Y0133000D03*
X0354983Y0215000D03*
X0354983Y0297000D03*
X0354983Y0379000D03*
D257*
X0354806Y0378626D03*
X0354806Y0296626D03*
X0354806Y0214626D03*
X0354806Y0132626D03*
X0354806Y0050626D03*
M02*
