G75*
%MOIN*%
%OFA0B0*%
%FSLAX25Y25*%
%IPPOS*%
%LPD*%
%AMOC8*
5,1,8,0,0,1.08239X$1,22.5*
%
%ADD10R,0.03543X0.03150*%
%ADD11R,0.06299X0.07087*%
%ADD12R,0.03937X0.04331*%
%ADD13R,0.01000X0.04500*%
%ADD14R,0.04500X0.01000*%
%ADD15R,0.04331X0.03937*%
%ADD16C,0.01772*%
%ADD17R,0.02362X0.04724*%
%ADD18R,0.05000X0.02200*%
%ADD19R,0.02200X0.05000*%
%ADD20R,0.06000X0.03000*%
%ADD21R,0.05748X0.07874*%
%ADD22R,0.09843X0.05610*%
%ADD23C,0.00400*%
%ADD24C,0.00197*%
%ADD25C,0.07000*%
%ADD26R,0.03150X0.03543*%
%ADD27R,0.02165X0.04724*%
%ADD28R,0.02480X0.03268*%
%ADD29C,0.01181*%
%ADD30R,0.05000X0.08110*%
D10*
X0208813Y0036760D03*
X0217081Y0040500D03*
X0208813Y0044240D03*
X0208813Y0118760D03*
X0217081Y0122500D03*
X0208813Y0126240D03*
X0208813Y0200760D03*
X0208813Y0208240D03*
X0217081Y0204500D03*
X0208813Y0282760D03*
X0217081Y0286500D03*
X0208813Y0290240D03*
X0208813Y0364760D03*
X0217081Y0368500D03*
X0208813Y0372240D03*
X0342919Y0379000D03*
X0351187Y0375260D03*
X0351187Y0382740D03*
X0351187Y0388260D03*
X0342919Y0392000D03*
X0351187Y0395740D03*
X0351187Y0401260D03*
X0351187Y0408740D03*
X0342919Y0405000D03*
X0351187Y0414260D03*
X0351187Y0421740D03*
X0342919Y0418000D03*
X0351187Y0339740D03*
X0342919Y0336000D03*
X0351187Y0332260D03*
X0351187Y0326740D03*
X0342919Y0323000D03*
X0351187Y0319260D03*
X0351187Y0313740D03*
X0342919Y0310000D03*
X0351187Y0306260D03*
X0351187Y0300740D03*
X0351187Y0293260D03*
X0342919Y0297000D03*
X0351187Y0257740D03*
X0342919Y0254000D03*
X0351187Y0250260D03*
X0351187Y0244740D03*
X0351187Y0237260D03*
X0342919Y0241000D03*
X0351187Y0231740D03*
X0351187Y0224260D03*
X0351187Y0218740D03*
X0342919Y0215000D03*
X0351187Y0211260D03*
X0342919Y0228000D03*
X0351187Y0175740D03*
X0351187Y0168260D03*
X0342919Y0172000D03*
X0351187Y0162740D03*
X0351187Y0155260D03*
X0351187Y0149740D03*
X0342919Y0146000D03*
X0351187Y0142260D03*
X0351187Y0136740D03*
X0342919Y0133000D03*
X0351187Y0129260D03*
X0342919Y0159000D03*
X0351187Y0093740D03*
X0342919Y0090000D03*
X0351187Y0086260D03*
X0351187Y0080740D03*
X0342919Y0077000D03*
X0351187Y0073260D03*
X0351187Y0067740D03*
X0342919Y0064000D03*
X0351187Y0060260D03*
X0351187Y0054740D03*
X0351187Y0047260D03*
X0342919Y0051000D03*
D11*
X0358238Y0051000D03*
X0369262Y0051000D03*
X0369262Y0064000D03*
X0358238Y0064000D03*
X0358238Y0077000D03*
X0369262Y0077000D03*
X0368762Y0090000D03*
X0357738Y0090000D03*
X0329311Y0119939D03*
X0318287Y0119939D03*
X0358238Y0133000D03*
X0369262Y0133000D03*
X0369262Y0146000D03*
X0358238Y0146000D03*
X0358238Y0159000D03*
X0357738Y0172000D03*
X0368762Y0172000D03*
X0369262Y0159000D03*
X0329311Y0201939D03*
X0318287Y0201939D03*
X0358238Y0215000D03*
X0369262Y0215000D03*
X0369262Y0228000D03*
X0369262Y0241000D03*
X0358238Y0241000D03*
X0358238Y0228000D03*
X0357738Y0254000D03*
X0368762Y0254000D03*
X0329311Y0283939D03*
X0318287Y0283939D03*
X0358238Y0297000D03*
X0369262Y0297000D03*
X0369262Y0310000D03*
X0358238Y0310000D03*
X0358238Y0323000D03*
X0369262Y0323000D03*
X0368762Y0336000D03*
X0357738Y0336000D03*
X0329311Y0365939D03*
X0318287Y0365939D03*
X0358238Y0379000D03*
X0369262Y0379000D03*
X0369262Y0392000D03*
X0358238Y0392000D03*
X0358238Y0405000D03*
X0357738Y0418000D03*
X0368762Y0418000D03*
X0369262Y0405000D03*
X0329311Y0037939D03*
X0318287Y0037939D03*
D12*
X0324250Y0049154D03*
X0329750Y0049154D03*
X0329750Y0055846D03*
X0324250Y0055846D03*
X0324250Y0062154D03*
X0329750Y0062154D03*
X0329750Y0068846D03*
X0324250Y0068846D03*
X0324250Y0075154D03*
X0329750Y0075154D03*
X0329750Y0081846D03*
X0324250Y0081846D03*
X0324250Y0088154D03*
X0329750Y0088154D03*
X0329750Y0094846D03*
X0324250Y0094846D03*
X0337750Y0093346D03*
X0337750Y0086654D03*
X0337750Y0080346D03*
X0337750Y0073654D03*
X0337750Y0067346D03*
X0337750Y0060654D03*
X0337750Y0054346D03*
X0337750Y0047654D03*
X0304750Y0049846D03*
X0304750Y0043154D03*
X0261750Y0086654D03*
X0255750Y0086654D03*
X0249750Y0086654D03*
X0249750Y0093346D03*
X0255750Y0093346D03*
X0261750Y0093346D03*
X0223750Y0119154D03*
X0223750Y0125846D03*
X0249750Y0168654D03*
X0255750Y0168654D03*
X0261750Y0168654D03*
X0261750Y0175346D03*
X0255750Y0175346D03*
X0249750Y0175346D03*
X0223750Y0201154D03*
X0223750Y0207846D03*
X0249750Y0250654D03*
X0255750Y0250654D03*
X0261750Y0250654D03*
X0261750Y0257346D03*
X0255750Y0257346D03*
X0249750Y0257346D03*
X0223750Y0283154D03*
X0223750Y0289846D03*
X0249750Y0332654D03*
X0255750Y0332654D03*
X0261750Y0332654D03*
X0261750Y0339346D03*
X0255750Y0339346D03*
X0249750Y0339346D03*
X0223750Y0365154D03*
X0223750Y0371846D03*
X0249750Y0414654D03*
X0255750Y0414654D03*
X0261750Y0414654D03*
X0261750Y0421346D03*
X0255750Y0421346D03*
X0249750Y0421346D03*
X0304750Y0377846D03*
X0304750Y0371154D03*
X0324250Y0377154D03*
X0329750Y0377154D03*
X0329750Y0383846D03*
X0324250Y0383846D03*
X0324250Y0390154D03*
X0329750Y0390154D03*
X0329750Y0396846D03*
X0324250Y0396846D03*
X0324250Y0403154D03*
X0329750Y0403154D03*
X0329750Y0409846D03*
X0324250Y0409846D03*
X0324250Y0416154D03*
X0329750Y0416154D03*
X0329750Y0422846D03*
X0324250Y0422846D03*
X0337750Y0421346D03*
X0337750Y0414654D03*
X0337750Y0408346D03*
X0337750Y0401654D03*
X0337750Y0395346D03*
X0337750Y0388654D03*
X0337750Y0382346D03*
X0337750Y0375654D03*
X0329750Y0340846D03*
X0324250Y0340846D03*
X0324250Y0334154D03*
X0329750Y0334154D03*
X0329750Y0327846D03*
X0324250Y0327846D03*
X0324250Y0321154D03*
X0329750Y0321154D03*
X0329750Y0314846D03*
X0324250Y0314846D03*
X0324250Y0308154D03*
X0329750Y0308154D03*
X0329750Y0301846D03*
X0324250Y0301846D03*
X0324250Y0295154D03*
X0329750Y0295154D03*
X0337750Y0293654D03*
X0337750Y0300346D03*
X0337750Y0306654D03*
X0337750Y0313346D03*
X0337750Y0319654D03*
X0337750Y0326346D03*
X0337750Y0332654D03*
X0337750Y0339346D03*
X0304750Y0295846D03*
X0304750Y0289154D03*
X0324250Y0258846D03*
X0329750Y0258846D03*
X0329750Y0252154D03*
X0324250Y0252154D03*
X0324250Y0245846D03*
X0329750Y0245846D03*
X0329750Y0239154D03*
X0324250Y0239154D03*
X0324250Y0232846D03*
X0329750Y0232846D03*
X0329750Y0226154D03*
X0324250Y0226154D03*
X0324250Y0219846D03*
X0329750Y0219846D03*
X0329750Y0213154D03*
X0324250Y0213154D03*
X0337750Y0211654D03*
X0337750Y0218346D03*
X0337750Y0224654D03*
X0337750Y0231346D03*
X0337750Y0237654D03*
X0337750Y0244346D03*
X0337750Y0250654D03*
X0337750Y0257346D03*
X0304750Y0213846D03*
X0304750Y0207154D03*
X0324250Y0176846D03*
X0329750Y0176846D03*
X0329750Y0170154D03*
X0324250Y0170154D03*
X0324250Y0163846D03*
X0329750Y0163846D03*
X0329750Y0157154D03*
X0324250Y0157154D03*
X0324250Y0150846D03*
X0329750Y0150846D03*
X0329750Y0144154D03*
X0324250Y0144154D03*
X0324250Y0137846D03*
X0329750Y0137846D03*
X0329750Y0131154D03*
X0324250Y0131154D03*
X0337750Y0129654D03*
X0337750Y0136346D03*
X0337750Y0142654D03*
X0337750Y0149346D03*
X0337750Y0155654D03*
X0337750Y0162346D03*
X0337750Y0168654D03*
X0337750Y0175346D03*
X0304750Y0131846D03*
X0304750Y0125154D03*
X0223750Y0043846D03*
X0223750Y0037154D03*
X0074750Y0058154D03*
X0074750Y0064846D03*
X0074750Y0140154D03*
X0074750Y0146846D03*
X0074750Y0222154D03*
X0074750Y0228846D03*
X0074750Y0304154D03*
X0074750Y0310846D03*
X0074750Y0386154D03*
X0074750Y0392846D03*
D13*
G36*
X0274207Y0402439D02*
X0273500Y0401732D01*
X0270319Y0404913D01*
X0271026Y0405620D01*
X0274207Y0402439D01*
G37*
G36*
X0275599Y0403831D02*
X0274892Y0403124D01*
X0271711Y0406305D01*
X0272418Y0407012D01*
X0275599Y0403831D01*
G37*
G36*
X0276991Y0405223D02*
X0276284Y0404516D01*
X0273103Y0407697D01*
X0273810Y0408404D01*
X0276991Y0405223D01*
G37*
G36*
X0278383Y0406615D02*
X0277676Y0405908D01*
X0274495Y0409089D01*
X0275202Y0409796D01*
X0278383Y0406615D01*
G37*
G36*
X0279775Y0408007D02*
X0279068Y0407300D01*
X0275887Y0410481D01*
X0276594Y0411188D01*
X0279775Y0408007D01*
G37*
G36*
X0281167Y0409399D02*
X0280460Y0408692D01*
X0277279Y0411873D01*
X0277986Y0412580D01*
X0281167Y0409399D01*
G37*
G36*
X0282558Y0410790D02*
X0281851Y0410083D01*
X0278670Y0413264D01*
X0279377Y0413971D01*
X0282558Y0410790D01*
G37*
G36*
X0283950Y0412182D02*
X0283243Y0411475D01*
X0280062Y0414656D01*
X0280769Y0415363D01*
X0283950Y0412182D01*
G37*
G36*
X0285342Y0413574D02*
X0284635Y0412867D01*
X0281454Y0416048D01*
X0282161Y0416755D01*
X0285342Y0413574D01*
G37*
G36*
X0286734Y0414966D02*
X0286027Y0414259D01*
X0282846Y0417440D01*
X0283553Y0418147D01*
X0286734Y0414966D01*
G37*
G36*
X0288126Y0416358D02*
X0287419Y0415651D01*
X0284238Y0418832D01*
X0284945Y0419539D01*
X0288126Y0416358D01*
G37*
G36*
X0289518Y0417750D02*
X0288811Y0417043D01*
X0285630Y0420224D01*
X0286337Y0420931D01*
X0289518Y0417750D01*
G37*
G36*
X0313181Y0394087D02*
X0312474Y0393380D01*
X0309293Y0396561D01*
X0310000Y0397268D01*
X0313181Y0394087D01*
G37*
G36*
X0311789Y0392695D02*
X0311082Y0391988D01*
X0307901Y0395169D01*
X0308608Y0395876D01*
X0311789Y0392695D01*
G37*
G36*
X0310397Y0391303D02*
X0309690Y0390596D01*
X0306509Y0393777D01*
X0307216Y0394484D01*
X0310397Y0391303D01*
G37*
G36*
X0309005Y0389911D02*
X0308298Y0389204D01*
X0305117Y0392385D01*
X0305824Y0393092D01*
X0309005Y0389911D01*
G37*
G36*
X0307613Y0388519D02*
X0306906Y0387812D01*
X0303725Y0390993D01*
X0304432Y0391700D01*
X0307613Y0388519D01*
G37*
G36*
X0306221Y0387127D02*
X0305514Y0386420D01*
X0302333Y0389601D01*
X0303040Y0390308D01*
X0306221Y0387127D01*
G37*
G36*
X0304830Y0385736D02*
X0304123Y0385029D01*
X0300942Y0388210D01*
X0301649Y0388917D01*
X0304830Y0385736D01*
G37*
G36*
X0303438Y0384344D02*
X0302731Y0383637D01*
X0299550Y0386818D01*
X0300257Y0387525D01*
X0303438Y0384344D01*
G37*
G36*
X0302046Y0382952D02*
X0301339Y0382245D01*
X0298158Y0385426D01*
X0298865Y0386133D01*
X0302046Y0382952D01*
G37*
G36*
X0300654Y0381560D02*
X0299947Y0380853D01*
X0296766Y0384034D01*
X0297473Y0384741D01*
X0300654Y0381560D01*
G37*
G36*
X0299262Y0380168D02*
X0298555Y0379461D01*
X0295374Y0382642D01*
X0296081Y0383349D01*
X0299262Y0380168D01*
G37*
G36*
X0297870Y0378776D02*
X0297163Y0378069D01*
X0293982Y0381250D01*
X0294689Y0381957D01*
X0297870Y0378776D01*
G37*
G36*
X0289518Y0335750D02*
X0288811Y0335043D01*
X0285630Y0338224D01*
X0286337Y0338931D01*
X0289518Y0335750D01*
G37*
G36*
X0288126Y0334358D02*
X0287419Y0333651D01*
X0284238Y0336832D01*
X0284945Y0337539D01*
X0288126Y0334358D01*
G37*
G36*
X0286734Y0332966D02*
X0286027Y0332259D01*
X0282846Y0335440D01*
X0283553Y0336147D01*
X0286734Y0332966D01*
G37*
G36*
X0285342Y0331574D02*
X0284635Y0330867D01*
X0281454Y0334048D01*
X0282161Y0334755D01*
X0285342Y0331574D01*
G37*
G36*
X0283950Y0330182D02*
X0283243Y0329475D01*
X0280062Y0332656D01*
X0280769Y0333363D01*
X0283950Y0330182D01*
G37*
G36*
X0282558Y0328790D02*
X0281851Y0328083D01*
X0278670Y0331264D01*
X0279377Y0331971D01*
X0282558Y0328790D01*
G37*
G36*
X0281167Y0327399D02*
X0280460Y0326692D01*
X0277279Y0329873D01*
X0277986Y0330580D01*
X0281167Y0327399D01*
G37*
G36*
X0279775Y0326007D02*
X0279068Y0325300D01*
X0275887Y0328481D01*
X0276594Y0329188D01*
X0279775Y0326007D01*
G37*
G36*
X0278383Y0324615D02*
X0277676Y0323908D01*
X0274495Y0327089D01*
X0275202Y0327796D01*
X0278383Y0324615D01*
G37*
G36*
X0276991Y0323223D02*
X0276284Y0322516D01*
X0273103Y0325697D01*
X0273810Y0326404D01*
X0276991Y0323223D01*
G37*
G36*
X0275599Y0321831D02*
X0274892Y0321124D01*
X0271711Y0324305D01*
X0272418Y0325012D01*
X0275599Y0321831D01*
G37*
G36*
X0274207Y0320439D02*
X0273500Y0319732D01*
X0270319Y0322913D01*
X0271026Y0323620D01*
X0274207Y0320439D01*
G37*
G36*
X0297870Y0296776D02*
X0297163Y0296069D01*
X0293982Y0299250D01*
X0294689Y0299957D01*
X0297870Y0296776D01*
G37*
G36*
X0299262Y0298168D02*
X0298555Y0297461D01*
X0295374Y0300642D01*
X0296081Y0301349D01*
X0299262Y0298168D01*
G37*
G36*
X0300654Y0299560D02*
X0299947Y0298853D01*
X0296766Y0302034D01*
X0297473Y0302741D01*
X0300654Y0299560D01*
G37*
G36*
X0302046Y0300952D02*
X0301339Y0300245D01*
X0298158Y0303426D01*
X0298865Y0304133D01*
X0302046Y0300952D01*
G37*
G36*
X0303438Y0302344D02*
X0302731Y0301637D01*
X0299550Y0304818D01*
X0300257Y0305525D01*
X0303438Y0302344D01*
G37*
G36*
X0304830Y0303736D02*
X0304123Y0303029D01*
X0300942Y0306210D01*
X0301649Y0306917D01*
X0304830Y0303736D01*
G37*
G36*
X0306221Y0305127D02*
X0305514Y0304420D01*
X0302333Y0307601D01*
X0303040Y0308308D01*
X0306221Y0305127D01*
G37*
G36*
X0307613Y0306519D02*
X0306906Y0305812D01*
X0303725Y0308993D01*
X0304432Y0309700D01*
X0307613Y0306519D01*
G37*
G36*
X0309005Y0307911D02*
X0308298Y0307204D01*
X0305117Y0310385D01*
X0305824Y0311092D01*
X0309005Y0307911D01*
G37*
G36*
X0310397Y0309303D02*
X0309690Y0308596D01*
X0306509Y0311777D01*
X0307216Y0312484D01*
X0310397Y0309303D01*
G37*
G36*
X0311789Y0310695D02*
X0311082Y0309988D01*
X0307901Y0313169D01*
X0308608Y0313876D01*
X0311789Y0310695D01*
G37*
G36*
X0313181Y0312087D02*
X0312474Y0311380D01*
X0309293Y0314561D01*
X0310000Y0315268D01*
X0313181Y0312087D01*
G37*
G36*
X0289518Y0253750D02*
X0288811Y0253043D01*
X0285630Y0256224D01*
X0286337Y0256931D01*
X0289518Y0253750D01*
G37*
G36*
X0288126Y0252358D02*
X0287419Y0251651D01*
X0284238Y0254832D01*
X0284945Y0255539D01*
X0288126Y0252358D01*
G37*
G36*
X0286734Y0250966D02*
X0286027Y0250259D01*
X0282846Y0253440D01*
X0283553Y0254147D01*
X0286734Y0250966D01*
G37*
G36*
X0285342Y0249574D02*
X0284635Y0248867D01*
X0281454Y0252048D01*
X0282161Y0252755D01*
X0285342Y0249574D01*
G37*
G36*
X0283950Y0248182D02*
X0283243Y0247475D01*
X0280062Y0250656D01*
X0280769Y0251363D01*
X0283950Y0248182D01*
G37*
G36*
X0282558Y0246790D02*
X0281851Y0246083D01*
X0278670Y0249264D01*
X0279377Y0249971D01*
X0282558Y0246790D01*
G37*
G36*
X0281167Y0245399D02*
X0280460Y0244692D01*
X0277279Y0247873D01*
X0277986Y0248580D01*
X0281167Y0245399D01*
G37*
G36*
X0279775Y0244007D02*
X0279068Y0243300D01*
X0275887Y0246481D01*
X0276594Y0247188D01*
X0279775Y0244007D01*
G37*
G36*
X0278383Y0242615D02*
X0277676Y0241908D01*
X0274495Y0245089D01*
X0275202Y0245796D01*
X0278383Y0242615D01*
G37*
G36*
X0276991Y0241223D02*
X0276284Y0240516D01*
X0273103Y0243697D01*
X0273810Y0244404D01*
X0276991Y0241223D01*
G37*
G36*
X0275599Y0239831D02*
X0274892Y0239124D01*
X0271711Y0242305D01*
X0272418Y0243012D01*
X0275599Y0239831D01*
G37*
G36*
X0274207Y0238439D02*
X0273500Y0237732D01*
X0270319Y0240913D01*
X0271026Y0241620D01*
X0274207Y0238439D01*
G37*
G36*
X0297870Y0214776D02*
X0297163Y0214069D01*
X0293982Y0217250D01*
X0294689Y0217957D01*
X0297870Y0214776D01*
G37*
G36*
X0299262Y0216168D02*
X0298555Y0215461D01*
X0295374Y0218642D01*
X0296081Y0219349D01*
X0299262Y0216168D01*
G37*
G36*
X0300654Y0217560D02*
X0299947Y0216853D01*
X0296766Y0220034D01*
X0297473Y0220741D01*
X0300654Y0217560D01*
G37*
G36*
X0302046Y0218952D02*
X0301339Y0218245D01*
X0298158Y0221426D01*
X0298865Y0222133D01*
X0302046Y0218952D01*
G37*
G36*
X0303438Y0220344D02*
X0302731Y0219637D01*
X0299550Y0222818D01*
X0300257Y0223525D01*
X0303438Y0220344D01*
G37*
G36*
X0304830Y0221736D02*
X0304123Y0221029D01*
X0300942Y0224210D01*
X0301649Y0224917D01*
X0304830Y0221736D01*
G37*
G36*
X0306221Y0223127D02*
X0305514Y0222420D01*
X0302333Y0225601D01*
X0303040Y0226308D01*
X0306221Y0223127D01*
G37*
G36*
X0307613Y0224519D02*
X0306906Y0223812D01*
X0303725Y0226993D01*
X0304432Y0227700D01*
X0307613Y0224519D01*
G37*
G36*
X0309005Y0225911D02*
X0308298Y0225204D01*
X0305117Y0228385D01*
X0305824Y0229092D01*
X0309005Y0225911D01*
G37*
G36*
X0310397Y0227303D02*
X0309690Y0226596D01*
X0306509Y0229777D01*
X0307216Y0230484D01*
X0310397Y0227303D01*
G37*
G36*
X0311789Y0228695D02*
X0311082Y0227988D01*
X0307901Y0231169D01*
X0308608Y0231876D01*
X0311789Y0228695D01*
G37*
G36*
X0313181Y0230087D02*
X0312474Y0229380D01*
X0309293Y0232561D01*
X0310000Y0233268D01*
X0313181Y0230087D01*
G37*
G36*
X0289518Y0171750D02*
X0288811Y0171043D01*
X0285630Y0174224D01*
X0286337Y0174931D01*
X0289518Y0171750D01*
G37*
G36*
X0288126Y0170358D02*
X0287419Y0169651D01*
X0284238Y0172832D01*
X0284945Y0173539D01*
X0288126Y0170358D01*
G37*
G36*
X0286734Y0168966D02*
X0286027Y0168259D01*
X0282846Y0171440D01*
X0283553Y0172147D01*
X0286734Y0168966D01*
G37*
G36*
X0285342Y0167574D02*
X0284635Y0166867D01*
X0281454Y0170048D01*
X0282161Y0170755D01*
X0285342Y0167574D01*
G37*
G36*
X0283950Y0166182D02*
X0283243Y0165475D01*
X0280062Y0168656D01*
X0280769Y0169363D01*
X0283950Y0166182D01*
G37*
G36*
X0282558Y0164790D02*
X0281851Y0164083D01*
X0278670Y0167264D01*
X0279377Y0167971D01*
X0282558Y0164790D01*
G37*
G36*
X0281167Y0163399D02*
X0280460Y0162692D01*
X0277279Y0165873D01*
X0277986Y0166580D01*
X0281167Y0163399D01*
G37*
G36*
X0279775Y0162007D02*
X0279068Y0161300D01*
X0275887Y0164481D01*
X0276594Y0165188D01*
X0279775Y0162007D01*
G37*
G36*
X0278383Y0160615D02*
X0277676Y0159908D01*
X0274495Y0163089D01*
X0275202Y0163796D01*
X0278383Y0160615D01*
G37*
G36*
X0276991Y0159223D02*
X0276284Y0158516D01*
X0273103Y0161697D01*
X0273810Y0162404D01*
X0276991Y0159223D01*
G37*
G36*
X0275599Y0157831D02*
X0274892Y0157124D01*
X0271711Y0160305D01*
X0272418Y0161012D01*
X0275599Y0157831D01*
G37*
G36*
X0274207Y0156439D02*
X0273500Y0155732D01*
X0270319Y0158913D01*
X0271026Y0159620D01*
X0274207Y0156439D01*
G37*
G36*
X0297870Y0132776D02*
X0297163Y0132069D01*
X0293982Y0135250D01*
X0294689Y0135957D01*
X0297870Y0132776D01*
G37*
G36*
X0299262Y0134168D02*
X0298555Y0133461D01*
X0295374Y0136642D01*
X0296081Y0137349D01*
X0299262Y0134168D01*
G37*
G36*
X0300654Y0135560D02*
X0299947Y0134853D01*
X0296766Y0138034D01*
X0297473Y0138741D01*
X0300654Y0135560D01*
G37*
G36*
X0302046Y0136952D02*
X0301339Y0136245D01*
X0298158Y0139426D01*
X0298865Y0140133D01*
X0302046Y0136952D01*
G37*
G36*
X0303438Y0138344D02*
X0302731Y0137637D01*
X0299550Y0140818D01*
X0300257Y0141525D01*
X0303438Y0138344D01*
G37*
G36*
X0304830Y0139736D02*
X0304123Y0139029D01*
X0300942Y0142210D01*
X0301649Y0142917D01*
X0304830Y0139736D01*
G37*
G36*
X0306221Y0141127D02*
X0305514Y0140420D01*
X0302333Y0143601D01*
X0303040Y0144308D01*
X0306221Y0141127D01*
G37*
G36*
X0307613Y0142519D02*
X0306906Y0141812D01*
X0303725Y0144993D01*
X0304432Y0145700D01*
X0307613Y0142519D01*
G37*
G36*
X0309005Y0143911D02*
X0308298Y0143204D01*
X0305117Y0146385D01*
X0305824Y0147092D01*
X0309005Y0143911D01*
G37*
G36*
X0310397Y0145303D02*
X0309690Y0144596D01*
X0306509Y0147777D01*
X0307216Y0148484D01*
X0310397Y0145303D01*
G37*
G36*
X0311789Y0146695D02*
X0311082Y0145988D01*
X0307901Y0149169D01*
X0308608Y0149876D01*
X0311789Y0146695D01*
G37*
G36*
X0313181Y0148087D02*
X0312474Y0147380D01*
X0309293Y0150561D01*
X0310000Y0151268D01*
X0313181Y0148087D01*
G37*
G36*
X0289518Y0089750D02*
X0288811Y0089043D01*
X0285630Y0092224D01*
X0286337Y0092931D01*
X0289518Y0089750D01*
G37*
G36*
X0288126Y0088358D02*
X0287419Y0087651D01*
X0284238Y0090832D01*
X0284945Y0091539D01*
X0288126Y0088358D01*
G37*
G36*
X0286734Y0086966D02*
X0286027Y0086259D01*
X0282846Y0089440D01*
X0283553Y0090147D01*
X0286734Y0086966D01*
G37*
G36*
X0285342Y0085574D02*
X0284635Y0084867D01*
X0281454Y0088048D01*
X0282161Y0088755D01*
X0285342Y0085574D01*
G37*
G36*
X0283950Y0084182D02*
X0283243Y0083475D01*
X0280062Y0086656D01*
X0280769Y0087363D01*
X0283950Y0084182D01*
G37*
G36*
X0282558Y0082790D02*
X0281851Y0082083D01*
X0278670Y0085264D01*
X0279377Y0085971D01*
X0282558Y0082790D01*
G37*
G36*
X0281167Y0081399D02*
X0280460Y0080692D01*
X0277279Y0083873D01*
X0277986Y0084580D01*
X0281167Y0081399D01*
G37*
G36*
X0279775Y0080007D02*
X0279068Y0079300D01*
X0275887Y0082481D01*
X0276594Y0083188D01*
X0279775Y0080007D01*
G37*
G36*
X0278383Y0078615D02*
X0277676Y0077908D01*
X0274495Y0081089D01*
X0275202Y0081796D01*
X0278383Y0078615D01*
G37*
G36*
X0276991Y0077223D02*
X0276284Y0076516D01*
X0273103Y0079697D01*
X0273810Y0080404D01*
X0276991Y0077223D01*
G37*
G36*
X0275599Y0075831D02*
X0274892Y0075124D01*
X0271711Y0078305D01*
X0272418Y0079012D01*
X0275599Y0075831D01*
G37*
G36*
X0274207Y0074439D02*
X0273500Y0073732D01*
X0270319Y0076913D01*
X0271026Y0077620D01*
X0274207Y0074439D01*
G37*
G36*
X0297870Y0050776D02*
X0297163Y0050069D01*
X0293982Y0053250D01*
X0294689Y0053957D01*
X0297870Y0050776D01*
G37*
G36*
X0299262Y0052168D02*
X0298555Y0051461D01*
X0295374Y0054642D01*
X0296081Y0055349D01*
X0299262Y0052168D01*
G37*
G36*
X0300654Y0053560D02*
X0299947Y0052853D01*
X0296766Y0056034D01*
X0297473Y0056741D01*
X0300654Y0053560D01*
G37*
G36*
X0302046Y0054952D02*
X0301339Y0054245D01*
X0298158Y0057426D01*
X0298865Y0058133D01*
X0302046Y0054952D01*
G37*
G36*
X0303438Y0056344D02*
X0302731Y0055637D01*
X0299550Y0058818D01*
X0300257Y0059525D01*
X0303438Y0056344D01*
G37*
G36*
X0304830Y0057736D02*
X0304123Y0057029D01*
X0300942Y0060210D01*
X0301649Y0060917D01*
X0304830Y0057736D01*
G37*
G36*
X0306221Y0059127D02*
X0305514Y0058420D01*
X0302333Y0061601D01*
X0303040Y0062308D01*
X0306221Y0059127D01*
G37*
G36*
X0307613Y0060519D02*
X0306906Y0059812D01*
X0303725Y0062993D01*
X0304432Y0063700D01*
X0307613Y0060519D01*
G37*
G36*
X0309005Y0061911D02*
X0308298Y0061204D01*
X0305117Y0064385D01*
X0305824Y0065092D01*
X0309005Y0061911D01*
G37*
G36*
X0310397Y0063303D02*
X0309690Y0062596D01*
X0306509Y0065777D01*
X0307216Y0066484D01*
X0310397Y0063303D01*
G37*
G36*
X0311789Y0064695D02*
X0311082Y0063988D01*
X0307901Y0067169D01*
X0308608Y0067876D01*
X0311789Y0064695D01*
G37*
G36*
X0313181Y0066087D02*
X0312474Y0065380D01*
X0309293Y0068561D01*
X0310000Y0069268D01*
X0313181Y0066087D01*
G37*
D14*
G36*
X0313181Y0076913D02*
X0310000Y0073732D01*
X0309293Y0074439D01*
X0312474Y0077620D01*
X0313181Y0076913D01*
G37*
G36*
X0311789Y0078305D02*
X0308608Y0075124D01*
X0307901Y0075831D01*
X0311082Y0079012D01*
X0311789Y0078305D01*
G37*
G36*
X0310397Y0079697D02*
X0307216Y0076516D01*
X0306509Y0077223D01*
X0309690Y0080404D01*
X0310397Y0079697D01*
G37*
G36*
X0309005Y0081089D02*
X0305824Y0077908D01*
X0305117Y0078615D01*
X0308298Y0081796D01*
X0309005Y0081089D01*
G37*
G36*
X0307613Y0082481D02*
X0304432Y0079300D01*
X0303725Y0080007D01*
X0306906Y0083188D01*
X0307613Y0082481D01*
G37*
G36*
X0306221Y0083873D02*
X0303040Y0080692D01*
X0302333Y0081399D01*
X0305514Y0084580D01*
X0306221Y0083873D01*
G37*
G36*
X0304830Y0085264D02*
X0301649Y0082083D01*
X0300942Y0082790D01*
X0304123Y0085971D01*
X0304830Y0085264D01*
G37*
G36*
X0303438Y0086656D02*
X0300257Y0083475D01*
X0299550Y0084182D01*
X0302731Y0087363D01*
X0303438Y0086656D01*
G37*
G36*
X0302046Y0088048D02*
X0298865Y0084867D01*
X0298158Y0085574D01*
X0301339Y0088755D01*
X0302046Y0088048D01*
G37*
G36*
X0300654Y0089440D02*
X0297473Y0086259D01*
X0296766Y0086966D01*
X0299947Y0090147D01*
X0300654Y0089440D01*
G37*
G36*
X0299262Y0090832D02*
X0296081Y0087651D01*
X0295374Y0088358D01*
X0298555Y0091539D01*
X0299262Y0090832D01*
G37*
G36*
X0297870Y0092224D02*
X0294689Y0089043D01*
X0293982Y0089750D01*
X0297163Y0092931D01*
X0297870Y0092224D01*
G37*
G36*
X0274207Y0068561D02*
X0271026Y0065380D01*
X0270319Y0066087D01*
X0273500Y0069268D01*
X0274207Y0068561D01*
G37*
G36*
X0275599Y0067169D02*
X0272418Y0063988D01*
X0271711Y0064695D01*
X0274892Y0067876D01*
X0275599Y0067169D01*
G37*
G36*
X0276991Y0065777D02*
X0273810Y0062596D01*
X0273103Y0063303D01*
X0276284Y0066484D01*
X0276991Y0065777D01*
G37*
G36*
X0278383Y0064385D02*
X0275202Y0061204D01*
X0274495Y0061911D01*
X0277676Y0065092D01*
X0278383Y0064385D01*
G37*
G36*
X0279775Y0062993D02*
X0276594Y0059812D01*
X0275887Y0060519D01*
X0279068Y0063700D01*
X0279775Y0062993D01*
G37*
G36*
X0281167Y0061601D02*
X0277986Y0058420D01*
X0277279Y0059127D01*
X0280460Y0062308D01*
X0281167Y0061601D01*
G37*
G36*
X0282558Y0060210D02*
X0279377Y0057029D01*
X0278670Y0057736D01*
X0281851Y0060917D01*
X0282558Y0060210D01*
G37*
G36*
X0283950Y0058818D02*
X0280769Y0055637D01*
X0280062Y0056344D01*
X0283243Y0059525D01*
X0283950Y0058818D01*
G37*
G36*
X0285342Y0057426D02*
X0282161Y0054245D01*
X0281454Y0054952D01*
X0284635Y0058133D01*
X0285342Y0057426D01*
G37*
G36*
X0286734Y0056034D02*
X0283553Y0052853D01*
X0282846Y0053560D01*
X0286027Y0056741D01*
X0286734Y0056034D01*
G37*
G36*
X0288126Y0054642D02*
X0284945Y0051461D01*
X0284238Y0052168D01*
X0287419Y0055349D01*
X0288126Y0054642D01*
G37*
G36*
X0289518Y0053250D02*
X0286337Y0050069D01*
X0285630Y0050776D01*
X0288811Y0053957D01*
X0289518Y0053250D01*
G37*
G36*
X0289518Y0135250D02*
X0286337Y0132069D01*
X0285630Y0132776D01*
X0288811Y0135957D01*
X0289518Y0135250D01*
G37*
G36*
X0288126Y0136642D02*
X0284945Y0133461D01*
X0284238Y0134168D01*
X0287419Y0137349D01*
X0288126Y0136642D01*
G37*
G36*
X0286734Y0138034D02*
X0283553Y0134853D01*
X0282846Y0135560D01*
X0286027Y0138741D01*
X0286734Y0138034D01*
G37*
G36*
X0285342Y0139426D02*
X0282161Y0136245D01*
X0281454Y0136952D01*
X0284635Y0140133D01*
X0285342Y0139426D01*
G37*
G36*
X0283950Y0140818D02*
X0280769Y0137637D01*
X0280062Y0138344D01*
X0283243Y0141525D01*
X0283950Y0140818D01*
G37*
G36*
X0282558Y0142210D02*
X0279377Y0139029D01*
X0278670Y0139736D01*
X0281851Y0142917D01*
X0282558Y0142210D01*
G37*
G36*
X0281167Y0143601D02*
X0277986Y0140420D01*
X0277279Y0141127D01*
X0280460Y0144308D01*
X0281167Y0143601D01*
G37*
G36*
X0279775Y0144993D02*
X0276594Y0141812D01*
X0275887Y0142519D01*
X0279068Y0145700D01*
X0279775Y0144993D01*
G37*
G36*
X0278383Y0146385D02*
X0275202Y0143204D01*
X0274495Y0143911D01*
X0277676Y0147092D01*
X0278383Y0146385D01*
G37*
G36*
X0276991Y0147777D02*
X0273810Y0144596D01*
X0273103Y0145303D01*
X0276284Y0148484D01*
X0276991Y0147777D01*
G37*
G36*
X0275599Y0149169D02*
X0272418Y0145988D01*
X0271711Y0146695D01*
X0274892Y0149876D01*
X0275599Y0149169D01*
G37*
G36*
X0274207Y0150561D02*
X0271026Y0147380D01*
X0270319Y0148087D01*
X0273500Y0151268D01*
X0274207Y0150561D01*
G37*
G36*
X0297870Y0174224D02*
X0294689Y0171043D01*
X0293982Y0171750D01*
X0297163Y0174931D01*
X0297870Y0174224D01*
G37*
G36*
X0299262Y0172832D02*
X0296081Y0169651D01*
X0295374Y0170358D01*
X0298555Y0173539D01*
X0299262Y0172832D01*
G37*
G36*
X0300654Y0171440D02*
X0297473Y0168259D01*
X0296766Y0168966D01*
X0299947Y0172147D01*
X0300654Y0171440D01*
G37*
G36*
X0302046Y0170048D02*
X0298865Y0166867D01*
X0298158Y0167574D01*
X0301339Y0170755D01*
X0302046Y0170048D01*
G37*
G36*
X0303438Y0168656D02*
X0300257Y0165475D01*
X0299550Y0166182D01*
X0302731Y0169363D01*
X0303438Y0168656D01*
G37*
G36*
X0304830Y0167264D02*
X0301649Y0164083D01*
X0300942Y0164790D01*
X0304123Y0167971D01*
X0304830Y0167264D01*
G37*
G36*
X0306221Y0165873D02*
X0303040Y0162692D01*
X0302333Y0163399D01*
X0305514Y0166580D01*
X0306221Y0165873D01*
G37*
G36*
X0307613Y0164481D02*
X0304432Y0161300D01*
X0303725Y0162007D01*
X0306906Y0165188D01*
X0307613Y0164481D01*
G37*
G36*
X0309005Y0163089D02*
X0305824Y0159908D01*
X0305117Y0160615D01*
X0308298Y0163796D01*
X0309005Y0163089D01*
G37*
G36*
X0310397Y0161697D02*
X0307216Y0158516D01*
X0306509Y0159223D01*
X0309690Y0162404D01*
X0310397Y0161697D01*
G37*
G36*
X0311789Y0160305D02*
X0308608Y0157124D01*
X0307901Y0157831D01*
X0311082Y0161012D01*
X0311789Y0160305D01*
G37*
G36*
X0313181Y0158913D02*
X0310000Y0155732D01*
X0309293Y0156439D01*
X0312474Y0159620D01*
X0313181Y0158913D01*
G37*
G36*
X0289518Y0217250D02*
X0286337Y0214069D01*
X0285630Y0214776D01*
X0288811Y0217957D01*
X0289518Y0217250D01*
G37*
G36*
X0288126Y0218642D02*
X0284945Y0215461D01*
X0284238Y0216168D01*
X0287419Y0219349D01*
X0288126Y0218642D01*
G37*
G36*
X0286734Y0220034D02*
X0283553Y0216853D01*
X0282846Y0217560D01*
X0286027Y0220741D01*
X0286734Y0220034D01*
G37*
G36*
X0285342Y0221426D02*
X0282161Y0218245D01*
X0281454Y0218952D01*
X0284635Y0222133D01*
X0285342Y0221426D01*
G37*
G36*
X0283950Y0222818D02*
X0280769Y0219637D01*
X0280062Y0220344D01*
X0283243Y0223525D01*
X0283950Y0222818D01*
G37*
G36*
X0282558Y0224210D02*
X0279377Y0221029D01*
X0278670Y0221736D01*
X0281851Y0224917D01*
X0282558Y0224210D01*
G37*
G36*
X0281167Y0225601D02*
X0277986Y0222420D01*
X0277279Y0223127D01*
X0280460Y0226308D01*
X0281167Y0225601D01*
G37*
G36*
X0279775Y0226993D02*
X0276594Y0223812D01*
X0275887Y0224519D01*
X0279068Y0227700D01*
X0279775Y0226993D01*
G37*
G36*
X0278383Y0228385D02*
X0275202Y0225204D01*
X0274495Y0225911D01*
X0277676Y0229092D01*
X0278383Y0228385D01*
G37*
G36*
X0276991Y0229777D02*
X0273810Y0226596D01*
X0273103Y0227303D01*
X0276284Y0230484D01*
X0276991Y0229777D01*
G37*
G36*
X0275599Y0231169D02*
X0272418Y0227988D01*
X0271711Y0228695D01*
X0274892Y0231876D01*
X0275599Y0231169D01*
G37*
G36*
X0274207Y0232561D02*
X0271026Y0229380D01*
X0270319Y0230087D01*
X0273500Y0233268D01*
X0274207Y0232561D01*
G37*
G36*
X0297870Y0256224D02*
X0294689Y0253043D01*
X0293982Y0253750D01*
X0297163Y0256931D01*
X0297870Y0256224D01*
G37*
G36*
X0299262Y0254832D02*
X0296081Y0251651D01*
X0295374Y0252358D01*
X0298555Y0255539D01*
X0299262Y0254832D01*
G37*
G36*
X0300654Y0253440D02*
X0297473Y0250259D01*
X0296766Y0250966D01*
X0299947Y0254147D01*
X0300654Y0253440D01*
G37*
G36*
X0302046Y0252048D02*
X0298865Y0248867D01*
X0298158Y0249574D01*
X0301339Y0252755D01*
X0302046Y0252048D01*
G37*
G36*
X0303438Y0250656D02*
X0300257Y0247475D01*
X0299550Y0248182D01*
X0302731Y0251363D01*
X0303438Y0250656D01*
G37*
G36*
X0304830Y0249264D02*
X0301649Y0246083D01*
X0300942Y0246790D01*
X0304123Y0249971D01*
X0304830Y0249264D01*
G37*
G36*
X0306221Y0247873D02*
X0303040Y0244692D01*
X0302333Y0245399D01*
X0305514Y0248580D01*
X0306221Y0247873D01*
G37*
G36*
X0307613Y0246481D02*
X0304432Y0243300D01*
X0303725Y0244007D01*
X0306906Y0247188D01*
X0307613Y0246481D01*
G37*
G36*
X0309005Y0245089D02*
X0305824Y0241908D01*
X0305117Y0242615D01*
X0308298Y0245796D01*
X0309005Y0245089D01*
G37*
G36*
X0310397Y0243697D02*
X0307216Y0240516D01*
X0306509Y0241223D01*
X0309690Y0244404D01*
X0310397Y0243697D01*
G37*
G36*
X0311789Y0242305D02*
X0308608Y0239124D01*
X0307901Y0239831D01*
X0311082Y0243012D01*
X0311789Y0242305D01*
G37*
G36*
X0313181Y0240913D02*
X0310000Y0237732D01*
X0309293Y0238439D01*
X0312474Y0241620D01*
X0313181Y0240913D01*
G37*
G36*
X0289518Y0299250D02*
X0286337Y0296069D01*
X0285630Y0296776D01*
X0288811Y0299957D01*
X0289518Y0299250D01*
G37*
G36*
X0288126Y0300642D02*
X0284945Y0297461D01*
X0284238Y0298168D01*
X0287419Y0301349D01*
X0288126Y0300642D01*
G37*
G36*
X0286734Y0302034D02*
X0283553Y0298853D01*
X0282846Y0299560D01*
X0286027Y0302741D01*
X0286734Y0302034D01*
G37*
G36*
X0285342Y0303426D02*
X0282161Y0300245D01*
X0281454Y0300952D01*
X0284635Y0304133D01*
X0285342Y0303426D01*
G37*
G36*
X0283950Y0304818D02*
X0280769Y0301637D01*
X0280062Y0302344D01*
X0283243Y0305525D01*
X0283950Y0304818D01*
G37*
G36*
X0282558Y0306210D02*
X0279377Y0303029D01*
X0278670Y0303736D01*
X0281851Y0306917D01*
X0282558Y0306210D01*
G37*
G36*
X0281167Y0307601D02*
X0277986Y0304420D01*
X0277279Y0305127D01*
X0280460Y0308308D01*
X0281167Y0307601D01*
G37*
G36*
X0279775Y0308993D02*
X0276594Y0305812D01*
X0275887Y0306519D01*
X0279068Y0309700D01*
X0279775Y0308993D01*
G37*
G36*
X0278383Y0310385D02*
X0275202Y0307204D01*
X0274495Y0307911D01*
X0277676Y0311092D01*
X0278383Y0310385D01*
G37*
G36*
X0276991Y0311777D02*
X0273810Y0308596D01*
X0273103Y0309303D01*
X0276284Y0312484D01*
X0276991Y0311777D01*
G37*
G36*
X0275599Y0313169D02*
X0272418Y0309988D01*
X0271711Y0310695D01*
X0274892Y0313876D01*
X0275599Y0313169D01*
G37*
G36*
X0274207Y0314561D02*
X0271026Y0311380D01*
X0270319Y0312087D01*
X0273500Y0315268D01*
X0274207Y0314561D01*
G37*
G36*
X0297870Y0338224D02*
X0294689Y0335043D01*
X0293982Y0335750D01*
X0297163Y0338931D01*
X0297870Y0338224D01*
G37*
G36*
X0299262Y0336832D02*
X0296081Y0333651D01*
X0295374Y0334358D01*
X0298555Y0337539D01*
X0299262Y0336832D01*
G37*
G36*
X0300654Y0335440D02*
X0297473Y0332259D01*
X0296766Y0332966D01*
X0299947Y0336147D01*
X0300654Y0335440D01*
G37*
G36*
X0302046Y0334048D02*
X0298865Y0330867D01*
X0298158Y0331574D01*
X0301339Y0334755D01*
X0302046Y0334048D01*
G37*
G36*
X0303438Y0332656D02*
X0300257Y0329475D01*
X0299550Y0330182D01*
X0302731Y0333363D01*
X0303438Y0332656D01*
G37*
G36*
X0304830Y0331264D02*
X0301649Y0328083D01*
X0300942Y0328790D01*
X0304123Y0331971D01*
X0304830Y0331264D01*
G37*
G36*
X0306221Y0329873D02*
X0303040Y0326692D01*
X0302333Y0327399D01*
X0305514Y0330580D01*
X0306221Y0329873D01*
G37*
G36*
X0307613Y0328481D02*
X0304432Y0325300D01*
X0303725Y0326007D01*
X0306906Y0329188D01*
X0307613Y0328481D01*
G37*
G36*
X0309005Y0327089D02*
X0305824Y0323908D01*
X0305117Y0324615D01*
X0308298Y0327796D01*
X0309005Y0327089D01*
G37*
G36*
X0310397Y0325697D02*
X0307216Y0322516D01*
X0306509Y0323223D01*
X0309690Y0326404D01*
X0310397Y0325697D01*
G37*
G36*
X0311789Y0324305D02*
X0308608Y0321124D01*
X0307901Y0321831D01*
X0311082Y0325012D01*
X0311789Y0324305D01*
G37*
G36*
X0313181Y0322913D02*
X0310000Y0319732D01*
X0309293Y0320439D01*
X0312474Y0323620D01*
X0313181Y0322913D01*
G37*
G36*
X0289518Y0381250D02*
X0286337Y0378069D01*
X0285630Y0378776D01*
X0288811Y0381957D01*
X0289518Y0381250D01*
G37*
G36*
X0288126Y0382642D02*
X0284945Y0379461D01*
X0284238Y0380168D01*
X0287419Y0383349D01*
X0288126Y0382642D01*
G37*
G36*
X0286734Y0384034D02*
X0283553Y0380853D01*
X0282846Y0381560D01*
X0286027Y0384741D01*
X0286734Y0384034D01*
G37*
G36*
X0285342Y0385426D02*
X0282161Y0382245D01*
X0281454Y0382952D01*
X0284635Y0386133D01*
X0285342Y0385426D01*
G37*
G36*
X0283950Y0386818D02*
X0280769Y0383637D01*
X0280062Y0384344D01*
X0283243Y0387525D01*
X0283950Y0386818D01*
G37*
G36*
X0282558Y0388210D02*
X0279377Y0385029D01*
X0278670Y0385736D01*
X0281851Y0388917D01*
X0282558Y0388210D01*
G37*
G36*
X0281167Y0389601D02*
X0277986Y0386420D01*
X0277279Y0387127D01*
X0280460Y0390308D01*
X0281167Y0389601D01*
G37*
G36*
X0279775Y0390993D02*
X0276594Y0387812D01*
X0275887Y0388519D01*
X0279068Y0391700D01*
X0279775Y0390993D01*
G37*
G36*
X0278383Y0392385D02*
X0275202Y0389204D01*
X0274495Y0389911D01*
X0277676Y0393092D01*
X0278383Y0392385D01*
G37*
G36*
X0276991Y0393777D02*
X0273810Y0390596D01*
X0273103Y0391303D01*
X0276284Y0394484D01*
X0276991Y0393777D01*
G37*
G36*
X0275599Y0395169D02*
X0272418Y0391988D01*
X0271711Y0392695D01*
X0274892Y0395876D01*
X0275599Y0395169D01*
G37*
G36*
X0274207Y0396561D02*
X0271026Y0393380D01*
X0270319Y0394087D01*
X0273500Y0397268D01*
X0274207Y0396561D01*
G37*
G36*
X0297870Y0420224D02*
X0294689Y0417043D01*
X0293982Y0417750D01*
X0297163Y0420931D01*
X0297870Y0420224D01*
G37*
G36*
X0299262Y0418832D02*
X0296081Y0415651D01*
X0295374Y0416358D01*
X0298555Y0419539D01*
X0299262Y0418832D01*
G37*
G36*
X0300654Y0417440D02*
X0297473Y0414259D01*
X0296766Y0414966D01*
X0299947Y0418147D01*
X0300654Y0417440D01*
G37*
G36*
X0302046Y0416048D02*
X0298865Y0412867D01*
X0298158Y0413574D01*
X0301339Y0416755D01*
X0302046Y0416048D01*
G37*
G36*
X0303438Y0414656D02*
X0300257Y0411475D01*
X0299550Y0412182D01*
X0302731Y0415363D01*
X0303438Y0414656D01*
G37*
G36*
X0304830Y0413264D02*
X0301649Y0410083D01*
X0300942Y0410790D01*
X0304123Y0413971D01*
X0304830Y0413264D01*
G37*
G36*
X0306221Y0411873D02*
X0303040Y0408692D01*
X0302333Y0409399D01*
X0305514Y0412580D01*
X0306221Y0411873D01*
G37*
G36*
X0307613Y0410481D02*
X0304432Y0407300D01*
X0303725Y0408007D01*
X0306906Y0411188D01*
X0307613Y0410481D01*
G37*
G36*
X0309005Y0409089D02*
X0305824Y0405908D01*
X0305117Y0406615D01*
X0308298Y0409796D01*
X0309005Y0409089D01*
G37*
G36*
X0310397Y0407697D02*
X0307216Y0404516D01*
X0306509Y0405223D01*
X0309690Y0408404D01*
X0310397Y0407697D01*
G37*
G36*
X0311789Y0406305D02*
X0308608Y0403124D01*
X0307901Y0403831D01*
X0311082Y0407012D01*
X0311789Y0406305D01*
G37*
G36*
X0313181Y0404913D02*
X0310000Y0401732D01*
X0309293Y0402439D01*
X0312474Y0405620D01*
X0313181Y0404913D01*
G37*
D15*
G36*
X0313477Y0414056D02*
X0316538Y0410995D01*
X0313755Y0408212D01*
X0310694Y0411273D01*
X0313477Y0414056D01*
G37*
G36*
X0308745Y0418788D02*
X0311806Y0415727D01*
X0309023Y0412944D01*
X0305962Y0416005D01*
X0308745Y0418788D01*
G37*
G36*
X0312755Y0417712D02*
X0309694Y0420773D01*
X0312477Y0423556D01*
X0315538Y0420495D01*
X0312755Y0417712D01*
G37*
G36*
X0308023Y0422444D02*
X0304962Y0425505D01*
X0307745Y0428288D01*
X0310806Y0425227D01*
X0308023Y0422444D01*
G37*
G36*
X0284538Y0422505D02*
X0281477Y0419444D01*
X0278694Y0422227D01*
X0281755Y0425288D01*
X0284538Y0422505D01*
G37*
G36*
X0279806Y0417773D02*
X0276745Y0414712D01*
X0273962Y0417495D01*
X0277023Y0420556D01*
X0279806Y0417773D01*
G37*
G36*
X0271194Y0423227D02*
X0274255Y0426288D01*
X0277038Y0423505D01*
X0273977Y0420444D01*
X0271194Y0423227D01*
G37*
G36*
X0266462Y0418495D02*
X0269523Y0421556D01*
X0272306Y0418773D01*
X0269245Y0415712D01*
X0266462Y0418495D01*
G37*
X0263404Y0431500D03*
X0270096Y0431500D03*
G36*
X0268523Y0384944D02*
X0265462Y0388005D01*
X0268245Y0390788D01*
X0271306Y0387727D01*
X0268523Y0384944D01*
G37*
G36*
X0264523Y0380944D02*
X0261462Y0384005D01*
X0264245Y0386788D01*
X0267306Y0383727D01*
X0264523Y0380944D01*
G37*
G36*
X0269255Y0376212D02*
X0266194Y0379273D01*
X0268977Y0382056D01*
X0272038Y0378995D01*
X0269255Y0376212D01*
G37*
G36*
X0273255Y0380212D02*
X0270194Y0383273D01*
X0272977Y0386056D01*
X0276038Y0382995D01*
X0273255Y0380212D01*
G37*
X0255596Y0364500D03*
X0248904Y0364500D03*
X0242596Y0364500D03*
X0235904Y0364500D03*
X0263404Y0349500D03*
X0270096Y0349500D03*
G36*
X0271194Y0341227D02*
X0274255Y0344288D01*
X0277038Y0341505D01*
X0273977Y0338444D01*
X0271194Y0341227D01*
G37*
G36*
X0266462Y0336495D02*
X0269523Y0339556D01*
X0272306Y0336773D01*
X0269245Y0333712D01*
X0266462Y0336495D01*
G37*
G36*
X0279806Y0335773D02*
X0276745Y0332712D01*
X0273962Y0335495D01*
X0277023Y0338556D01*
X0279806Y0335773D01*
G37*
G36*
X0284538Y0340505D02*
X0281477Y0337444D01*
X0278694Y0340227D01*
X0281755Y0343288D01*
X0284538Y0340505D01*
G37*
G36*
X0308023Y0340444D02*
X0304962Y0343505D01*
X0307745Y0346288D01*
X0310806Y0343227D01*
X0308023Y0340444D01*
G37*
G36*
X0312755Y0335712D02*
X0309694Y0338773D01*
X0312477Y0341556D01*
X0315538Y0338495D01*
X0312755Y0335712D01*
G37*
G36*
X0308745Y0336788D02*
X0311806Y0333727D01*
X0309023Y0330944D01*
X0305962Y0334005D01*
X0308745Y0336788D01*
G37*
G36*
X0313477Y0332056D02*
X0316538Y0328995D01*
X0313755Y0326212D01*
X0310694Y0329273D01*
X0313477Y0332056D01*
G37*
G36*
X0273255Y0298212D02*
X0270194Y0301273D01*
X0272977Y0304056D01*
X0276038Y0300995D01*
X0273255Y0298212D01*
G37*
G36*
X0269255Y0294212D02*
X0266194Y0297273D01*
X0268977Y0300056D01*
X0272038Y0296995D01*
X0269255Y0294212D01*
G37*
G36*
X0264523Y0298944D02*
X0261462Y0302005D01*
X0264245Y0304788D01*
X0267306Y0301727D01*
X0264523Y0298944D01*
G37*
G36*
X0268523Y0302944D02*
X0265462Y0306005D01*
X0268245Y0308788D01*
X0271306Y0305727D01*
X0268523Y0302944D01*
G37*
X0255596Y0282500D03*
X0248904Y0282500D03*
X0242596Y0282500D03*
X0235904Y0282500D03*
X0263404Y0267500D03*
X0270096Y0267500D03*
G36*
X0271194Y0259227D02*
X0274255Y0262288D01*
X0277038Y0259505D01*
X0273977Y0256444D01*
X0271194Y0259227D01*
G37*
G36*
X0266462Y0254495D02*
X0269523Y0257556D01*
X0272306Y0254773D01*
X0269245Y0251712D01*
X0266462Y0254495D01*
G37*
G36*
X0279806Y0253773D02*
X0276745Y0250712D01*
X0273962Y0253495D01*
X0277023Y0256556D01*
X0279806Y0253773D01*
G37*
G36*
X0284538Y0258505D02*
X0281477Y0255444D01*
X0278694Y0258227D01*
X0281755Y0261288D01*
X0284538Y0258505D01*
G37*
G36*
X0308023Y0258444D02*
X0304962Y0261505D01*
X0307745Y0264288D01*
X0310806Y0261227D01*
X0308023Y0258444D01*
G37*
G36*
X0312755Y0253712D02*
X0309694Y0256773D01*
X0312477Y0259556D01*
X0315538Y0256495D01*
X0312755Y0253712D01*
G37*
G36*
X0308745Y0254788D02*
X0311806Y0251727D01*
X0309023Y0248944D01*
X0305962Y0252005D01*
X0308745Y0254788D01*
G37*
G36*
X0313477Y0250056D02*
X0316538Y0246995D01*
X0313755Y0244212D01*
X0310694Y0247273D01*
X0313477Y0250056D01*
G37*
G36*
X0273255Y0216212D02*
X0270194Y0219273D01*
X0272977Y0222056D01*
X0276038Y0218995D01*
X0273255Y0216212D01*
G37*
G36*
X0269255Y0212212D02*
X0266194Y0215273D01*
X0268977Y0218056D01*
X0272038Y0214995D01*
X0269255Y0212212D01*
G37*
G36*
X0264523Y0216944D02*
X0261462Y0220005D01*
X0264245Y0222788D01*
X0267306Y0219727D01*
X0264523Y0216944D01*
G37*
G36*
X0268523Y0220944D02*
X0265462Y0224005D01*
X0268245Y0226788D01*
X0271306Y0223727D01*
X0268523Y0220944D01*
G37*
X0255596Y0200500D03*
X0248904Y0200500D03*
X0242596Y0200500D03*
X0235904Y0200500D03*
X0263404Y0185500D03*
X0270096Y0185500D03*
G36*
X0271194Y0177227D02*
X0274255Y0180288D01*
X0277038Y0177505D01*
X0273977Y0174444D01*
X0271194Y0177227D01*
G37*
G36*
X0266462Y0172495D02*
X0269523Y0175556D01*
X0272306Y0172773D01*
X0269245Y0169712D01*
X0266462Y0172495D01*
G37*
G36*
X0279806Y0171773D02*
X0276745Y0168712D01*
X0273962Y0171495D01*
X0277023Y0174556D01*
X0279806Y0171773D01*
G37*
G36*
X0284538Y0176505D02*
X0281477Y0173444D01*
X0278694Y0176227D01*
X0281755Y0179288D01*
X0284538Y0176505D01*
G37*
G36*
X0308023Y0176444D02*
X0304962Y0179505D01*
X0307745Y0182288D01*
X0310806Y0179227D01*
X0308023Y0176444D01*
G37*
G36*
X0312755Y0171712D02*
X0309694Y0174773D01*
X0312477Y0177556D01*
X0315538Y0174495D01*
X0312755Y0171712D01*
G37*
G36*
X0308745Y0172788D02*
X0311806Y0169727D01*
X0309023Y0166944D01*
X0305962Y0170005D01*
X0308745Y0172788D01*
G37*
G36*
X0313477Y0168056D02*
X0316538Y0164995D01*
X0313755Y0162212D01*
X0310694Y0165273D01*
X0313477Y0168056D01*
G37*
G36*
X0273255Y0134212D02*
X0270194Y0137273D01*
X0272977Y0140056D01*
X0276038Y0136995D01*
X0273255Y0134212D01*
G37*
G36*
X0269255Y0130212D02*
X0266194Y0133273D01*
X0268977Y0136056D01*
X0272038Y0132995D01*
X0269255Y0130212D01*
G37*
G36*
X0264523Y0134944D02*
X0261462Y0138005D01*
X0264245Y0140788D01*
X0267306Y0137727D01*
X0264523Y0134944D01*
G37*
G36*
X0268523Y0138944D02*
X0265462Y0142005D01*
X0268245Y0144788D01*
X0271306Y0141727D01*
X0268523Y0138944D01*
G37*
X0255596Y0118500D03*
X0248904Y0118500D03*
X0242596Y0118500D03*
X0235904Y0118500D03*
X0263404Y0103500D03*
X0270096Y0103500D03*
G36*
X0271194Y0095227D02*
X0274255Y0098288D01*
X0277038Y0095505D01*
X0273977Y0092444D01*
X0271194Y0095227D01*
G37*
G36*
X0266462Y0090495D02*
X0269523Y0093556D01*
X0272306Y0090773D01*
X0269245Y0087712D01*
X0266462Y0090495D01*
G37*
G36*
X0279806Y0089773D02*
X0276745Y0086712D01*
X0273962Y0089495D01*
X0277023Y0092556D01*
X0279806Y0089773D01*
G37*
G36*
X0284538Y0094505D02*
X0281477Y0091444D01*
X0278694Y0094227D01*
X0281755Y0097288D01*
X0284538Y0094505D01*
G37*
G36*
X0308023Y0094444D02*
X0304962Y0097505D01*
X0307745Y0100288D01*
X0310806Y0097227D01*
X0308023Y0094444D01*
G37*
G36*
X0312755Y0089712D02*
X0309694Y0092773D01*
X0312477Y0095556D01*
X0315538Y0092495D01*
X0312755Y0089712D01*
G37*
G36*
X0308745Y0090788D02*
X0311806Y0087727D01*
X0309023Y0084944D01*
X0305962Y0088005D01*
X0308745Y0090788D01*
G37*
G36*
X0313477Y0086056D02*
X0316538Y0082995D01*
X0313755Y0080212D01*
X0310694Y0083273D01*
X0313477Y0086056D01*
G37*
G36*
X0273255Y0052212D02*
X0270194Y0055273D01*
X0272977Y0058056D01*
X0276038Y0054995D01*
X0273255Y0052212D01*
G37*
G36*
X0269255Y0048212D02*
X0266194Y0051273D01*
X0268977Y0054056D01*
X0272038Y0050995D01*
X0269255Y0048212D01*
G37*
G36*
X0264523Y0052944D02*
X0261462Y0056005D01*
X0264245Y0058788D01*
X0267306Y0055727D01*
X0264523Y0052944D01*
G37*
G36*
X0268523Y0056944D02*
X0265462Y0060005D01*
X0268245Y0062788D01*
X0271306Y0059727D01*
X0268523Y0056944D01*
G37*
X0255596Y0036500D03*
X0248904Y0036500D03*
X0242596Y0036500D03*
X0235904Y0036500D03*
X0202096Y0052000D03*
X0195404Y0052000D03*
X0196596Y0071500D03*
X0189904Y0071500D03*
G36*
X0175194Y0085727D02*
X0178255Y0088788D01*
X0181038Y0086005D01*
X0177977Y0082944D01*
X0175194Y0085727D01*
G37*
G36*
X0177038Y0090505D02*
X0173977Y0087444D01*
X0171194Y0090227D01*
X0174255Y0093288D01*
X0177038Y0090505D01*
G37*
G36*
X0172306Y0085773D02*
X0169245Y0082712D01*
X0166462Y0085495D01*
X0169523Y0088556D01*
X0172306Y0085773D01*
G37*
G36*
X0170462Y0080995D02*
X0173523Y0084056D01*
X0176306Y0081273D01*
X0173245Y0078212D01*
X0170462Y0080995D01*
G37*
G36*
X0164259Y0078452D02*
X0161198Y0081513D01*
X0163981Y0084296D01*
X0167042Y0081235D01*
X0164259Y0078452D01*
G37*
G36*
X0159527Y0083184D02*
X0156466Y0086245D01*
X0159249Y0089028D01*
X0162310Y0085967D01*
X0159527Y0083184D01*
G37*
X0166404Y0103500D03*
X0173096Y0103500D03*
G36*
X0170255Y0115712D02*
X0167194Y0118773D01*
X0169977Y0121556D01*
X0173038Y0118495D01*
X0170255Y0115712D01*
G37*
G36*
X0165523Y0120444D02*
X0162462Y0123505D01*
X0165245Y0126288D01*
X0168306Y0123227D01*
X0165523Y0120444D01*
G37*
G36*
X0160477Y0121556D02*
X0163538Y0118495D01*
X0160755Y0115712D01*
X0157694Y0118773D01*
X0160477Y0121556D01*
G37*
G36*
X0155745Y0126288D02*
X0158806Y0123227D01*
X0156023Y0120444D01*
X0152962Y0123505D01*
X0155745Y0126288D01*
G37*
G36*
X0148023Y0119944D02*
X0144962Y0123005D01*
X0147745Y0125788D01*
X0150806Y0122727D01*
X0148023Y0119944D01*
G37*
G36*
X0152755Y0115212D02*
X0149694Y0118273D01*
X0152477Y0121056D01*
X0155538Y0117995D01*
X0152755Y0115212D01*
G37*
G36*
X0122879Y0126005D02*
X0125940Y0122944D01*
X0123157Y0120161D01*
X0120096Y0123222D01*
X0122879Y0126005D01*
G37*
G36*
X0118146Y0130737D02*
X0121207Y0127676D01*
X0118424Y0124893D01*
X0115363Y0127954D01*
X0118146Y0130737D01*
G37*
G36*
X0115717Y0165804D02*
X0118778Y0162743D01*
X0115995Y0159960D01*
X0112934Y0163021D01*
X0115717Y0165804D01*
G37*
G36*
X0110985Y0170536D02*
X0114046Y0167475D01*
X0111263Y0164692D01*
X0108202Y0167753D01*
X0110985Y0170536D01*
G37*
G36*
X0118023Y0171444D02*
X0114962Y0174505D01*
X0117745Y0177288D01*
X0120806Y0174227D01*
X0118023Y0171444D01*
G37*
G36*
X0122755Y0166712D02*
X0119694Y0169773D01*
X0122477Y0172556D01*
X0125538Y0169495D01*
X0122755Y0166712D01*
G37*
X0099596Y0165500D03*
X0092904Y0165500D03*
X0072096Y0185484D03*
X0065404Y0185484D03*
X0068404Y0201500D03*
X0068404Y0207500D03*
X0075096Y0207500D03*
X0075096Y0201500D03*
G36*
X0118146Y0212737D02*
X0121207Y0209676D01*
X0118424Y0206893D01*
X0115363Y0209954D01*
X0118146Y0212737D01*
G37*
G36*
X0122879Y0208005D02*
X0125940Y0204944D01*
X0123157Y0202161D01*
X0120096Y0205222D01*
X0122879Y0208005D01*
G37*
G36*
X0148023Y0201944D02*
X0144962Y0205005D01*
X0147745Y0207788D01*
X0150806Y0204727D01*
X0148023Y0201944D01*
G37*
G36*
X0152755Y0197212D02*
X0149694Y0200273D01*
X0152477Y0203056D01*
X0155538Y0199995D01*
X0152755Y0197212D01*
G37*
G36*
X0160477Y0203556D02*
X0163538Y0200495D01*
X0160755Y0197712D01*
X0157694Y0200773D01*
X0160477Y0203556D01*
G37*
G36*
X0155745Y0208288D02*
X0158806Y0205227D01*
X0156023Y0202444D01*
X0152962Y0205505D01*
X0155745Y0208288D01*
G37*
G36*
X0165523Y0202444D02*
X0162462Y0205505D01*
X0165245Y0208288D01*
X0168306Y0205227D01*
X0165523Y0202444D01*
G37*
G36*
X0170255Y0197712D02*
X0167194Y0200773D01*
X0169977Y0203556D01*
X0173038Y0200495D01*
X0170255Y0197712D01*
G37*
X0173096Y0185500D03*
X0166404Y0185500D03*
G36*
X0177038Y0172505D02*
X0173977Y0169444D01*
X0171194Y0172227D01*
X0174255Y0175288D01*
X0177038Y0172505D01*
G37*
G36*
X0175194Y0167727D02*
X0178255Y0170788D01*
X0181038Y0168005D01*
X0177977Y0164944D01*
X0175194Y0167727D01*
G37*
G36*
X0170462Y0162995D02*
X0173523Y0166056D01*
X0176306Y0163273D01*
X0173245Y0160212D01*
X0170462Y0162995D01*
G37*
G36*
X0172306Y0167773D02*
X0169245Y0164712D01*
X0166462Y0167495D01*
X0169523Y0170556D01*
X0172306Y0167773D01*
G37*
G36*
X0164259Y0160452D02*
X0161198Y0163513D01*
X0163981Y0166296D01*
X0167042Y0163235D01*
X0164259Y0160452D01*
G37*
G36*
X0159527Y0165184D02*
X0156466Y0168245D01*
X0159249Y0171028D01*
X0162310Y0167967D01*
X0159527Y0165184D01*
G37*
X0189904Y0153500D03*
X0196596Y0153500D03*
X0195404Y0134000D03*
X0202096Y0134000D03*
G36*
X0122755Y0084712D02*
X0119694Y0087773D01*
X0122477Y0090556D01*
X0125538Y0087495D01*
X0122755Y0084712D01*
G37*
G36*
X0115717Y0083804D02*
X0118778Y0080743D01*
X0115995Y0077960D01*
X0112934Y0081021D01*
X0115717Y0083804D01*
G37*
G36*
X0110985Y0088536D02*
X0114046Y0085475D01*
X0111263Y0082692D01*
X0108202Y0085753D01*
X0110985Y0088536D01*
G37*
G36*
X0118023Y0089444D02*
X0114962Y0092505D01*
X0117745Y0095288D01*
X0120806Y0092227D01*
X0118023Y0089444D01*
G37*
X0099596Y0083500D03*
X0092904Y0083500D03*
X0072096Y0103484D03*
X0065404Y0103484D03*
X0068404Y0119500D03*
X0068404Y0125500D03*
X0075096Y0125500D03*
X0075096Y0119500D03*
X0075096Y0043500D03*
X0075096Y0037500D03*
X0068404Y0037500D03*
X0068404Y0043500D03*
G36*
X0118146Y0048737D02*
X0121207Y0045676D01*
X0118424Y0042893D01*
X0115363Y0045954D01*
X0118146Y0048737D01*
G37*
G36*
X0122879Y0044005D02*
X0125940Y0040944D01*
X0123157Y0038161D01*
X0120096Y0041222D01*
X0122879Y0044005D01*
G37*
G36*
X0148023Y0037944D02*
X0144962Y0041005D01*
X0147745Y0043788D01*
X0150806Y0040727D01*
X0148023Y0037944D01*
G37*
G36*
X0152755Y0033212D02*
X0149694Y0036273D01*
X0152477Y0039056D01*
X0155538Y0035995D01*
X0152755Y0033212D01*
G37*
G36*
X0160477Y0039556D02*
X0163538Y0036495D01*
X0160755Y0033712D01*
X0157694Y0036773D01*
X0160477Y0039556D01*
G37*
G36*
X0155745Y0044288D02*
X0158806Y0041227D01*
X0156023Y0038444D01*
X0152962Y0041505D01*
X0155745Y0044288D01*
G37*
G36*
X0165523Y0038444D02*
X0162462Y0041505D01*
X0165245Y0044288D01*
X0168306Y0041227D01*
X0165523Y0038444D01*
G37*
G36*
X0170255Y0033712D02*
X0167194Y0036773D01*
X0169977Y0039556D01*
X0173038Y0036495D01*
X0170255Y0033712D01*
G37*
X0361404Y0103500D03*
X0368096Y0103500D03*
X0368096Y0185500D03*
X0361404Y0185500D03*
X0361404Y0267500D03*
X0368096Y0267500D03*
X0368096Y0349500D03*
X0361404Y0349500D03*
X0361404Y0431500D03*
X0368096Y0431500D03*
X0202096Y0380000D03*
X0195404Y0380000D03*
X0196596Y0399500D03*
X0189904Y0399500D03*
G36*
X0170462Y0408995D02*
X0173523Y0412056D01*
X0176306Y0409273D01*
X0173245Y0406212D01*
X0170462Y0408995D01*
G37*
G36*
X0172306Y0413773D02*
X0169245Y0410712D01*
X0166462Y0413495D01*
X0169523Y0416556D01*
X0172306Y0413773D01*
G37*
G36*
X0177038Y0418505D02*
X0173977Y0415444D01*
X0171194Y0418227D01*
X0174255Y0421288D01*
X0177038Y0418505D01*
G37*
G36*
X0175194Y0413727D02*
X0178255Y0416788D01*
X0181038Y0414005D01*
X0177977Y0410944D01*
X0175194Y0413727D01*
G37*
G36*
X0164259Y0406452D02*
X0161198Y0409513D01*
X0163981Y0412296D01*
X0167042Y0409235D01*
X0164259Y0406452D01*
G37*
G36*
X0159527Y0411184D02*
X0156466Y0414245D01*
X0159249Y0417028D01*
X0162310Y0413967D01*
X0159527Y0411184D01*
G37*
X0166404Y0431500D03*
X0173096Y0431500D03*
G36*
X0122755Y0412712D02*
X0119694Y0415773D01*
X0122477Y0418556D01*
X0125538Y0415495D01*
X0122755Y0412712D01*
G37*
G36*
X0115717Y0411804D02*
X0118778Y0408743D01*
X0115995Y0405960D01*
X0112934Y0409021D01*
X0115717Y0411804D01*
G37*
G36*
X0110985Y0416536D02*
X0114046Y0413475D01*
X0111263Y0410692D01*
X0108202Y0413753D01*
X0110985Y0416536D01*
G37*
G36*
X0118023Y0417444D02*
X0114962Y0420505D01*
X0117745Y0423288D01*
X0120806Y0420227D01*
X0118023Y0417444D01*
G37*
X0099596Y0411500D03*
X0092904Y0411500D03*
X0072096Y0431484D03*
X0065404Y0431484D03*
G36*
X0118146Y0376737D02*
X0121207Y0373676D01*
X0118424Y0370893D01*
X0115363Y0373954D01*
X0118146Y0376737D01*
G37*
G36*
X0122879Y0372005D02*
X0125940Y0368944D01*
X0123157Y0366161D01*
X0120096Y0369222D01*
X0122879Y0372005D01*
G37*
G36*
X0148023Y0365944D02*
X0144962Y0369005D01*
X0147745Y0371788D01*
X0150806Y0368727D01*
X0148023Y0365944D01*
G37*
G36*
X0152755Y0361212D02*
X0149694Y0364273D01*
X0152477Y0367056D01*
X0155538Y0363995D01*
X0152755Y0361212D01*
G37*
G36*
X0160477Y0367556D02*
X0163538Y0364495D01*
X0160755Y0361712D01*
X0157694Y0364773D01*
X0160477Y0367556D01*
G37*
G36*
X0155745Y0372288D02*
X0158806Y0369227D01*
X0156023Y0366444D01*
X0152962Y0369505D01*
X0155745Y0372288D01*
G37*
G36*
X0165523Y0366444D02*
X0162462Y0369505D01*
X0165245Y0372288D01*
X0168306Y0369227D01*
X0165523Y0366444D01*
G37*
G36*
X0170255Y0361712D02*
X0167194Y0364773D01*
X0169977Y0367556D01*
X0173038Y0364495D01*
X0170255Y0361712D01*
G37*
X0173096Y0349500D03*
X0166404Y0349500D03*
G36*
X0177038Y0336505D02*
X0173977Y0333444D01*
X0171194Y0336227D01*
X0174255Y0339288D01*
X0177038Y0336505D01*
G37*
G36*
X0175194Y0331727D02*
X0178255Y0334788D01*
X0181038Y0332005D01*
X0177977Y0328944D01*
X0175194Y0331727D01*
G37*
G36*
X0170462Y0326995D02*
X0173523Y0330056D01*
X0176306Y0327273D01*
X0173245Y0324212D01*
X0170462Y0326995D01*
G37*
G36*
X0172306Y0331773D02*
X0169245Y0328712D01*
X0166462Y0331495D01*
X0169523Y0334556D01*
X0172306Y0331773D01*
G37*
G36*
X0164259Y0324452D02*
X0161198Y0327513D01*
X0163981Y0330296D01*
X0167042Y0327235D01*
X0164259Y0324452D01*
G37*
G36*
X0159527Y0329184D02*
X0156466Y0332245D01*
X0159249Y0335028D01*
X0162310Y0331967D01*
X0159527Y0329184D01*
G37*
X0189904Y0317500D03*
X0196596Y0317500D03*
X0195404Y0298000D03*
X0202096Y0298000D03*
G36*
X0170255Y0279712D02*
X0167194Y0282773D01*
X0169977Y0285556D01*
X0173038Y0282495D01*
X0170255Y0279712D01*
G37*
G36*
X0165523Y0284444D02*
X0162462Y0287505D01*
X0165245Y0290288D01*
X0168306Y0287227D01*
X0165523Y0284444D01*
G37*
G36*
X0160477Y0285556D02*
X0163538Y0282495D01*
X0160755Y0279712D01*
X0157694Y0282773D01*
X0160477Y0285556D01*
G37*
G36*
X0155745Y0290288D02*
X0158806Y0287227D01*
X0156023Y0284444D01*
X0152962Y0287505D01*
X0155745Y0290288D01*
G37*
G36*
X0148023Y0283944D02*
X0144962Y0287005D01*
X0147745Y0289788D01*
X0150806Y0286727D01*
X0148023Y0283944D01*
G37*
G36*
X0152755Y0279212D02*
X0149694Y0282273D01*
X0152477Y0285056D01*
X0155538Y0281995D01*
X0152755Y0279212D01*
G37*
X0166404Y0267500D03*
X0173096Y0267500D03*
G36*
X0177038Y0254505D02*
X0173977Y0251444D01*
X0171194Y0254227D01*
X0174255Y0257288D01*
X0177038Y0254505D01*
G37*
G36*
X0175194Y0249727D02*
X0178255Y0252788D01*
X0181038Y0250005D01*
X0177977Y0246944D01*
X0175194Y0249727D01*
G37*
G36*
X0170462Y0244995D02*
X0173523Y0248056D01*
X0176306Y0245273D01*
X0173245Y0242212D01*
X0170462Y0244995D01*
G37*
G36*
X0172306Y0249773D02*
X0169245Y0246712D01*
X0166462Y0249495D01*
X0169523Y0252556D01*
X0172306Y0249773D01*
G37*
G36*
X0164259Y0242452D02*
X0161198Y0245513D01*
X0163981Y0248296D01*
X0167042Y0245235D01*
X0164259Y0242452D01*
G37*
G36*
X0159527Y0247184D02*
X0156466Y0250245D01*
X0159249Y0253028D01*
X0162310Y0249967D01*
X0159527Y0247184D01*
G37*
X0189904Y0235500D03*
X0196596Y0235500D03*
X0195404Y0216000D03*
X0202096Y0216000D03*
G36*
X0122755Y0248712D02*
X0119694Y0251773D01*
X0122477Y0254556D01*
X0125538Y0251495D01*
X0122755Y0248712D01*
G37*
G36*
X0115717Y0247804D02*
X0118778Y0244743D01*
X0115995Y0241960D01*
X0112934Y0245021D01*
X0115717Y0247804D01*
G37*
G36*
X0110985Y0252536D02*
X0114046Y0249475D01*
X0111263Y0246692D01*
X0108202Y0249753D01*
X0110985Y0252536D01*
G37*
G36*
X0118023Y0253444D02*
X0114962Y0256505D01*
X0117745Y0259288D01*
X0120806Y0256227D01*
X0118023Y0253444D01*
G37*
X0099596Y0247500D03*
X0092904Y0247500D03*
X0072096Y0267484D03*
X0065404Y0267484D03*
X0068404Y0283500D03*
X0075096Y0283500D03*
X0075096Y0289500D03*
X0068404Y0289500D03*
X0092904Y0329500D03*
X0099596Y0329500D03*
G36*
X0110985Y0334536D02*
X0114046Y0331475D01*
X0111263Y0328692D01*
X0108202Y0331753D01*
X0110985Y0334536D01*
G37*
G36*
X0118023Y0335444D02*
X0114962Y0338505D01*
X0117745Y0341288D01*
X0120806Y0338227D01*
X0118023Y0335444D01*
G37*
G36*
X0122755Y0330712D02*
X0119694Y0333773D01*
X0122477Y0336556D01*
X0125538Y0333495D01*
X0122755Y0330712D01*
G37*
G36*
X0115717Y0329804D02*
X0118778Y0326743D01*
X0115995Y0323960D01*
X0112934Y0327021D01*
X0115717Y0329804D01*
G37*
G36*
X0118146Y0294737D02*
X0121207Y0291676D01*
X0118424Y0288893D01*
X0115363Y0291954D01*
X0118146Y0294737D01*
G37*
G36*
X0122879Y0290005D02*
X0125940Y0286944D01*
X0123157Y0284161D01*
X0120096Y0287222D01*
X0122879Y0290005D01*
G37*
X0072096Y0349484D03*
X0065404Y0349484D03*
X0068404Y0365500D03*
X0068404Y0371500D03*
X0075096Y0371500D03*
X0075096Y0365500D03*
D16*
X0127117Y0372506D02*
X0131167Y0376556D01*
X0134507Y0373216D02*
X0130457Y0369166D01*
X0133798Y0365825D02*
X0137848Y0369875D01*
X0131167Y0294556D02*
X0127117Y0290506D01*
X0130457Y0287166D02*
X0134507Y0291216D01*
X0137848Y0287875D02*
X0133798Y0283825D01*
X0131167Y0212556D02*
X0127117Y0208506D01*
X0130457Y0205166D02*
X0134507Y0209216D01*
X0137848Y0205875D02*
X0133798Y0201825D01*
X0131167Y0130556D02*
X0127117Y0126506D01*
X0130457Y0123166D02*
X0134507Y0127216D01*
X0137848Y0123875D02*
X0133798Y0119825D01*
X0131167Y0048556D02*
X0127117Y0044506D01*
X0130457Y0041166D02*
X0134507Y0045216D01*
X0137848Y0041875D02*
X0133798Y0037825D01*
D17*
G36*
X0164273Y0050705D02*
X0165943Y0052375D01*
X0169283Y0049035D01*
X0167613Y0047365D01*
X0164273Y0050705D01*
G37*
G36*
X0167808Y0054240D02*
X0169478Y0055910D01*
X0172818Y0052570D01*
X0171148Y0050900D01*
X0167808Y0054240D01*
G37*
G36*
X0171344Y0057776D02*
X0173014Y0059446D01*
X0176354Y0056106D01*
X0174684Y0054436D01*
X0171344Y0057776D01*
G37*
G36*
X0174879Y0061311D02*
X0176549Y0062981D01*
X0179889Y0059641D01*
X0178219Y0057971D01*
X0174879Y0061311D01*
G37*
G36*
X0190469Y0045721D02*
X0192139Y0047391D01*
X0195479Y0044051D01*
X0193809Y0042381D01*
X0190469Y0045721D01*
G37*
G36*
X0186934Y0042186D02*
X0188604Y0043856D01*
X0191944Y0040516D01*
X0190274Y0038846D01*
X0186934Y0042186D01*
G37*
G36*
X0183398Y0038650D02*
X0185068Y0040320D01*
X0188408Y0036980D01*
X0186738Y0035310D01*
X0183398Y0038650D01*
G37*
G36*
X0179863Y0035115D02*
X0181533Y0036785D01*
X0184873Y0033445D01*
X0183203Y0031775D01*
X0179863Y0035115D01*
G37*
G36*
X0179863Y0117115D02*
X0181533Y0118785D01*
X0184873Y0115445D01*
X0183203Y0113775D01*
X0179863Y0117115D01*
G37*
G36*
X0183398Y0120650D02*
X0185068Y0122320D01*
X0188408Y0118980D01*
X0186738Y0117310D01*
X0183398Y0120650D01*
G37*
G36*
X0186934Y0124186D02*
X0188604Y0125856D01*
X0191944Y0122516D01*
X0190274Y0120846D01*
X0186934Y0124186D01*
G37*
G36*
X0190469Y0127721D02*
X0192139Y0129391D01*
X0195479Y0126051D01*
X0193809Y0124381D01*
X0190469Y0127721D01*
G37*
G36*
X0174879Y0143311D02*
X0176549Y0144981D01*
X0179889Y0141641D01*
X0178219Y0139971D01*
X0174879Y0143311D01*
G37*
G36*
X0171344Y0139776D02*
X0173014Y0141446D01*
X0176354Y0138106D01*
X0174684Y0136436D01*
X0171344Y0139776D01*
G37*
G36*
X0167808Y0136240D02*
X0169478Y0137910D01*
X0172818Y0134570D01*
X0171148Y0132900D01*
X0167808Y0136240D01*
G37*
G36*
X0164273Y0132705D02*
X0165943Y0134375D01*
X0169283Y0131035D01*
X0167613Y0129365D01*
X0164273Y0132705D01*
G37*
G36*
X0179863Y0199115D02*
X0181533Y0200785D01*
X0184873Y0197445D01*
X0183203Y0195775D01*
X0179863Y0199115D01*
G37*
G36*
X0183398Y0202650D02*
X0185068Y0204320D01*
X0188408Y0200980D01*
X0186738Y0199310D01*
X0183398Y0202650D01*
G37*
G36*
X0186934Y0206186D02*
X0188604Y0207856D01*
X0191944Y0204516D01*
X0190274Y0202846D01*
X0186934Y0206186D01*
G37*
G36*
X0190469Y0209721D02*
X0192139Y0211391D01*
X0195479Y0208051D01*
X0193809Y0206381D01*
X0190469Y0209721D01*
G37*
G36*
X0174879Y0225311D02*
X0176549Y0226981D01*
X0179889Y0223641D01*
X0178219Y0221971D01*
X0174879Y0225311D01*
G37*
G36*
X0171344Y0221776D02*
X0173014Y0223446D01*
X0176354Y0220106D01*
X0174684Y0218436D01*
X0171344Y0221776D01*
G37*
G36*
X0167808Y0218240D02*
X0169478Y0219910D01*
X0172818Y0216570D01*
X0171148Y0214900D01*
X0167808Y0218240D01*
G37*
G36*
X0164273Y0214705D02*
X0165943Y0216375D01*
X0169283Y0213035D01*
X0167613Y0211365D01*
X0164273Y0214705D01*
G37*
G36*
X0179863Y0281115D02*
X0181533Y0282785D01*
X0184873Y0279445D01*
X0183203Y0277775D01*
X0179863Y0281115D01*
G37*
G36*
X0183398Y0284650D02*
X0185068Y0286320D01*
X0188408Y0282980D01*
X0186738Y0281310D01*
X0183398Y0284650D01*
G37*
G36*
X0186934Y0288186D02*
X0188604Y0289856D01*
X0191944Y0286516D01*
X0190274Y0284846D01*
X0186934Y0288186D01*
G37*
G36*
X0190469Y0291721D02*
X0192139Y0293391D01*
X0195479Y0290051D01*
X0193809Y0288381D01*
X0190469Y0291721D01*
G37*
G36*
X0174879Y0307311D02*
X0176549Y0308981D01*
X0179889Y0305641D01*
X0178219Y0303971D01*
X0174879Y0307311D01*
G37*
G36*
X0171344Y0303776D02*
X0173014Y0305446D01*
X0176354Y0302106D01*
X0174684Y0300436D01*
X0171344Y0303776D01*
G37*
G36*
X0167808Y0300240D02*
X0169478Y0301910D01*
X0172818Y0298570D01*
X0171148Y0296900D01*
X0167808Y0300240D01*
G37*
G36*
X0164273Y0296705D02*
X0165943Y0298375D01*
X0169283Y0295035D01*
X0167613Y0293365D01*
X0164273Y0296705D01*
G37*
G36*
X0179863Y0363115D02*
X0181533Y0364785D01*
X0184873Y0361445D01*
X0183203Y0359775D01*
X0179863Y0363115D01*
G37*
G36*
X0183398Y0366650D02*
X0185068Y0368320D01*
X0188408Y0364980D01*
X0186738Y0363310D01*
X0183398Y0366650D01*
G37*
G36*
X0186934Y0370186D02*
X0188604Y0371856D01*
X0191944Y0368516D01*
X0190274Y0366846D01*
X0186934Y0370186D01*
G37*
G36*
X0190469Y0373721D02*
X0192139Y0375391D01*
X0195479Y0372051D01*
X0193809Y0370381D01*
X0190469Y0373721D01*
G37*
G36*
X0174879Y0389311D02*
X0176549Y0390981D01*
X0179889Y0387641D01*
X0178219Y0385971D01*
X0174879Y0389311D01*
G37*
G36*
X0171344Y0385776D02*
X0173014Y0387446D01*
X0176354Y0384106D01*
X0174684Y0382436D01*
X0171344Y0385776D01*
G37*
G36*
X0167808Y0382240D02*
X0169478Y0383910D01*
X0172818Y0380570D01*
X0171148Y0378900D01*
X0167808Y0382240D01*
G37*
G36*
X0164273Y0378705D02*
X0165943Y0380375D01*
X0169283Y0377035D01*
X0167613Y0375365D01*
X0164273Y0378705D01*
G37*
X0080250Y0403201D03*
X0075250Y0403201D03*
X0070250Y0403201D03*
X0065250Y0403201D03*
X0060250Y0403201D03*
X0055250Y0403201D03*
X0050250Y0403201D03*
X0045250Y0403201D03*
X0045250Y0425248D03*
X0050250Y0425248D03*
X0055250Y0425248D03*
X0060250Y0425248D03*
X0065250Y0425248D03*
X0070250Y0425248D03*
X0075250Y0425248D03*
X0080250Y0425248D03*
X0080250Y0343248D03*
X0075250Y0343248D03*
X0070250Y0343248D03*
X0065250Y0343248D03*
X0060250Y0343248D03*
X0055250Y0343248D03*
X0050250Y0343248D03*
X0045250Y0343248D03*
X0045250Y0321201D03*
X0050250Y0321201D03*
X0055250Y0321201D03*
X0060250Y0321201D03*
X0065250Y0321201D03*
X0070250Y0321201D03*
X0075250Y0321201D03*
X0080250Y0321201D03*
X0080250Y0261248D03*
X0075250Y0261248D03*
X0070250Y0261248D03*
X0065250Y0261248D03*
X0060250Y0261248D03*
X0055250Y0261248D03*
X0050250Y0261248D03*
X0045250Y0261248D03*
X0045250Y0239201D03*
X0050250Y0239201D03*
X0055250Y0239201D03*
X0060250Y0239201D03*
X0065250Y0239201D03*
X0070250Y0239201D03*
X0075250Y0239201D03*
X0080250Y0239201D03*
X0080250Y0179248D03*
X0075250Y0179248D03*
X0070250Y0179248D03*
X0065250Y0179248D03*
X0060250Y0179248D03*
X0055250Y0179248D03*
X0050250Y0179248D03*
X0045250Y0179248D03*
X0045250Y0157201D03*
X0050250Y0157201D03*
X0055250Y0157201D03*
X0060250Y0157201D03*
X0065250Y0157201D03*
X0070250Y0157201D03*
X0075250Y0157201D03*
X0080250Y0157201D03*
X0080250Y0097248D03*
X0075250Y0097248D03*
X0070250Y0097248D03*
X0065250Y0097248D03*
X0060250Y0097248D03*
X0055250Y0097248D03*
X0050250Y0097248D03*
X0045250Y0097248D03*
X0045250Y0075201D03*
X0050250Y0075201D03*
X0055250Y0075201D03*
X0060250Y0075201D03*
X0065250Y0075201D03*
X0070250Y0075201D03*
X0075250Y0075201D03*
X0080250Y0075201D03*
D18*
G36*
X0126950Y0065127D02*
X0123416Y0061593D01*
X0121860Y0063149D01*
X0125394Y0066683D01*
X0126950Y0065127D01*
G37*
G36*
X0129177Y0062900D02*
X0125643Y0059366D01*
X0124087Y0060922D01*
X0127621Y0064456D01*
X0129177Y0062900D01*
G37*
G36*
X0131404Y0060672D02*
X0127870Y0057138D01*
X0126314Y0058694D01*
X0129848Y0062228D01*
X0131404Y0060672D01*
G37*
G36*
X0133631Y0058445D02*
X0130097Y0054911D01*
X0128541Y0056467D01*
X0132075Y0060001D01*
X0133631Y0058445D01*
G37*
G36*
X0135858Y0056218D02*
X0132324Y0052684D01*
X0130768Y0054240D01*
X0134302Y0057774D01*
X0135858Y0056218D01*
G37*
G36*
X0138085Y0053991D02*
X0134551Y0050457D01*
X0132995Y0052013D01*
X0136529Y0055547D01*
X0138085Y0053991D01*
G37*
G36*
X0140312Y0051764D02*
X0136778Y0048230D01*
X0135222Y0049786D01*
X0138756Y0053320D01*
X0140312Y0051764D01*
G37*
G36*
X0142539Y0049537D02*
X0139005Y0046003D01*
X0137449Y0047559D01*
X0140983Y0051093D01*
X0142539Y0049537D01*
G37*
G36*
X0166439Y0073437D02*
X0162905Y0069903D01*
X0161349Y0071459D01*
X0164883Y0074993D01*
X0166439Y0073437D01*
G37*
G36*
X0164212Y0075664D02*
X0160678Y0072130D01*
X0159122Y0073686D01*
X0162656Y0077220D01*
X0164212Y0075664D01*
G37*
G36*
X0161985Y0077891D02*
X0158451Y0074357D01*
X0156895Y0075913D01*
X0160429Y0079447D01*
X0161985Y0077891D01*
G37*
G36*
X0159758Y0080118D02*
X0156224Y0076584D01*
X0154668Y0078140D01*
X0158202Y0081674D01*
X0159758Y0080118D01*
G37*
G36*
X0157531Y0082346D02*
X0153997Y0078812D01*
X0152441Y0080368D01*
X0155975Y0083902D01*
X0157531Y0082346D01*
G37*
G36*
X0155304Y0084573D02*
X0151770Y0081039D01*
X0150214Y0082595D01*
X0153748Y0086129D01*
X0155304Y0084573D01*
G37*
G36*
X0153077Y0086800D02*
X0149543Y0083266D01*
X0147987Y0084822D01*
X0151521Y0088356D01*
X0153077Y0086800D01*
G37*
G36*
X0150850Y0089027D02*
X0147316Y0085493D01*
X0145760Y0087049D01*
X0149294Y0090583D01*
X0150850Y0089027D01*
G37*
G36*
X0142539Y0131537D02*
X0139005Y0128003D01*
X0137449Y0129559D01*
X0140983Y0133093D01*
X0142539Y0131537D01*
G37*
G36*
X0140312Y0133764D02*
X0136778Y0130230D01*
X0135222Y0131786D01*
X0138756Y0135320D01*
X0140312Y0133764D01*
G37*
G36*
X0138085Y0135991D02*
X0134551Y0132457D01*
X0132995Y0134013D01*
X0136529Y0137547D01*
X0138085Y0135991D01*
G37*
G36*
X0135858Y0138218D02*
X0132324Y0134684D01*
X0130768Y0136240D01*
X0134302Y0139774D01*
X0135858Y0138218D01*
G37*
G36*
X0133631Y0140445D02*
X0130097Y0136911D01*
X0128541Y0138467D01*
X0132075Y0142001D01*
X0133631Y0140445D01*
G37*
G36*
X0131404Y0142672D02*
X0127870Y0139138D01*
X0126314Y0140694D01*
X0129848Y0144228D01*
X0131404Y0142672D01*
G37*
G36*
X0129177Y0144900D02*
X0125643Y0141366D01*
X0124087Y0142922D01*
X0127621Y0146456D01*
X0129177Y0144900D01*
G37*
G36*
X0126950Y0147127D02*
X0123416Y0143593D01*
X0121860Y0145149D01*
X0125394Y0148683D01*
X0126950Y0147127D01*
G37*
G36*
X0150850Y0171027D02*
X0147316Y0167493D01*
X0145760Y0169049D01*
X0149294Y0172583D01*
X0150850Y0171027D01*
G37*
G36*
X0153077Y0168800D02*
X0149543Y0165266D01*
X0147987Y0166822D01*
X0151521Y0170356D01*
X0153077Y0168800D01*
G37*
G36*
X0155304Y0166573D02*
X0151770Y0163039D01*
X0150214Y0164595D01*
X0153748Y0168129D01*
X0155304Y0166573D01*
G37*
G36*
X0157531Y0164346D02*
X0153997Y0160812D01*
X0152441Y0162368D01*
X0155975Y0165902D01*
X0157531Y0164346D01*
G37*
G36*
X0159758Y0162118D02*
X0156224Y0158584D01*
X0154668Y0160140D01*
X0158202Y0163674D01*
X0159758Y0162118D01*
G37*
G36*
X0161985Y0159891D02*
X0158451Y0156357D01*
X0156895Y0157913D01*
X0160429Y0161447D01*
X0161985Y0159891D01*
G37*
G36*
X0164212Y0157664D02*
X0160678Y0154130D01*
X0159122Y0155686D01*
X0162656Y0159220D01*
X0164212Y0157664D01*
G37*
G36*
X0166439Y0155437D02*
X0162905Y0151903D01*
X0161349Y0153459D01*
X0164883Y0156993D01*
X0166439Y0155437D01*
G37*
G36*
X0142539Y0213537D02*
X0139005Y0210003D01*
X0137449Y0211559D01*
X0140983Y0215093D01*
X0142539Y0213537D01*
G37*
G36*
X0140312Y0215764D02*
X0136778Y0212230D01*
X0135222Y0213786D01*
X0138756Y0217320D01*
X0140312Y0215764D01*
G37*
G36*
X0138085Y0217991D02*
X0134551Y0214457D01*
X0132995Y0216013D01*
X0136529Y0219547D01*
X0138085Y0217991D01*
G37*
G36*
X0135858Y0220218D02*
X0132324Y0216684D01*
X0130768Y0218240D01*
X0134302Y0221774D01*
X0135858Y0220218D01*
G37*
G36*
X0133631Y0222445D02*
X0130097Y0218911D01*
X0128541Y0220467D01*
X0132075Y0224001D01*
X0133631Y0222445D01*
G37*
G36*
X0131404Y0224672D02*
X0127870Y0221138D01*
X0126314Y0222694D01*
X0129848Y0226228D01*
X0131404Y0224672D01*
G37*
G36*
X0129177Y0226900D02*
X0125643Y0223366D01*
X0124087Y0224922D01*
X0127621Y0228456D01*
X0129177Y0226900D01*
G37*
G36*
X0126950Y0229127D02*
X0123416Y0225593D01*
X0121860Y0227149D01*
X0125394Y0230683D01*
X0126950Y0229127D01*
G37*
G36*
X0153077Y0250800D02*
X0149543Y0247266D01*
X0147987Y0248822D01*
X0151521Y0252356D01*
X0153077Y0250800D01*
G37*
G36*
X0155304Y0248573D02*
X0151770Y0245039D01*
X0150214Y0246595D01*
X0153748Y0250129D01*
X0155304Y0248573D01*
G37*
G36*
X0157531Y0246346D02*
X0153997Y0242812D01*
X0152441Y0244368D01*
X0155975Y0247902D01*
X0157531Y0246346D01*
G37*
G36*
X0159758Y0244118D02*
X0156224Y0240584D01*
X0154668Y0242140D01*
X0158202Y0245674D01*
X0159758Y0244118D01*
G37*
G36*
X0161985Y0241891D02*
X0158451Y0238357D01*
X0156895Y0239913D01*
X0160429Y0243447D01*
X0161985Y0241891D01*
G37*
G36*
X0164212Y0239664D02*
X0160678Y0236130D01*
X0159122Y0237686D01*
X0162656Y0241220D01*
X0164212Y0239664D01*
G37*
G36*
X0166439Y0237437D02*
X0162905Y0233903D01*
X0161349Y0235459D01*
X0164883Y0238993D01*
X0166439Y0237437D01*
G37*
G36*
X0150850Y0253027D02*
X0147316Y0249493D01*
X0145760Y0251049D01*
X0149294Y0254583D01*
X0150850Y0253027D01*
G37*
G36*
X0142539Y0295537D02*
X0139005Y0292003D01*
X0137449Y0293559D01*
X0140983Y0297093D01*
X0142539Y0295537D01*
G37*
G36*
X0140312Y0297764D02*
X0136778Y0294230D01*
X0135222Y0295786D01*
X0138756Y0299320D01*
X0140312Y0297764D01*
G37*
G36*
X0138085Y0299991D02*
X0134551Y0296457D01*
X0132995Y0298013D01*
X0136529Y0301547D01*
X0138085Y0299991D01*
G37*
G36*
X0135858Y0302218D02*
X0132324Y0298684D01*
X0130768Y0300240D01*
X0134302Y0303774D01*
X0135858Y0302218D01*
G37*
G36*
X0133631Y0304445D02*
X0130097Y0300911D01*
X0128541Y0302467D01*
X0132075Y0306001D01*
X0133631Y0304445D01*
G37*
G36*
X0131404Y0306672D02*
X0127870Y0303138D01*
X0126314Y0304694D01*
X0129848Y0308228D01*
X0131404Y0306672D01*
G37*
G36*
X0129177Y0308900D02*
X0125643Y0305366D01*
X0124087Y0306922D01*
X0127621Y0310456D01*
X0129177Y0308900D01*
G37*
G36*
X0126950Y0311127D02*
X0123416Y0307593D01*
X0121860Y0309149D01*
X0125394Y0312683D01*
X0126950Y0311127D01*
G37*
G36*
X0150850Y0335027D02*
X0147316Y0331493D01*
X0145760Y0333049D01*
X0149294Y0336583D01*
X0150850Y0335027D01*
G37*
G36*
X0153077Y0332800D02*
X0149543Y0329266D01*
X0147987Y0330822D01*
X0151521Y0334356D01*
X0153077Y0332800D01*
G37*
G36*
X0155304Y0330573D02*
X0151770Y0327039D01*
X0150214Y0328595D01*
X0153748Y0332129D01*
X0155304Y0330573D01*
G37*
G36*
X0157531Y0328346D02*
X0153997Y0324812D01*
X0152441Y0326368D01*
X0155975Y0329902D01*
X0157531Y0328346D01*
G37*
G36*
X0159758Y0326118D02*
X0156224Y0322584D01*
X0154668Y0324140D01*
X0158202Y0327674D01*
X0159758Y0326118D01*
G37*
G36*
X0161985Y0323891D02*
X0158451Y0320357D01*
X0156895Y0321913D01*
X0160429Y0325447D01*
X0161985Y0323891D01*
G37*
G36*
X0164212Y0321664D02*
X0160678Y0318130D01*
X0159122Y0319686D01*
X0162656Y0323220D01*
X0164212Y0321664D01*
G37*
G36*
X0166439Y0319437D02*
X0162905Y0315903D01*
X0161349Y0317459D01*
X0164883Y0320993D01*
X0166439Y0319437D01*
G37*
G36*
X0142539Y0377537D02*
X0139005Y0374003D01*
X0137449Y0375559D01*
X0140983Y0379093D01*
X0142539Y0377537D01*
G37*
G36*
X0140312Y0379764D02*
X0136778Y0376230D01*
X0135222Y0377786D01*
X0138756Y0381320D01*
X0140312Y0379764D01*
G37*
G36*
X0138085Y0381991D02*
X0134551Y0378457D01*
X0132995Y0380013D01*
X0136529Y0383547D01*
X0138085Y0381991D01*
G37*
G36*
X0135858Y0384218D02*
X0132324Y0380684D01*
X0130768Y0382240D01*
X0134302Y0385774D01*
X0135858Y0384218D01*
G37*
G36*
X0133631Y0386445D02*
X0130097Y0382911D01*
X0128541Y0384467D01*
X0132075Y0388001D01*
X0133631Y0386445D01*
G37*
G36*
X0131404Y0388672D02*
X0127870Y0385138D01*
X0126314Y0386694D01*
X0129848Y0390228D01*
X0131404Y0388672D01*
G37*
G36*
X0129177Y0390900D02*
X0125643Y0387366D01*
X0124087Y0388922D01*
X0127621Y0392456D01*
X0129177Y0390900D01*
G37*
G36*
X0126950Y0393127D02*
X0123416Y0389593D01*
X0121860Y0391149D01*
X0125394Y0394683D01*
X0126950Y0393127D01*
G37*
G36*
X0153077Y0414800D02*
X0149543Y0411266D01*
X0147987Y0412822D01*
X0151521Y0416356D01*
X0153077Y0414800D01*
G37*
G36*
X0155304Y0412573D02*
X0151770Y0409039D01*
X0150214Y0410595D01*
X0153748Y0414129D01*
X0155304Y0412573D01*
G37*
G36*
X0157531Y0410346D02*
X0153997Y0406812D01*
X0152441Y0408368D01*
X0155975Y0411902D01*
X0157531Y0410346D01*
G37*
G36*
X0159758Y0408118D02*
X0156224Y0404584D01*
X0154668Y0406140D01*
X0158202Y0409674D01*
X0159758Y0408118D01*
G37*
G36*
X0161985Y0405891D02*
X0158451Y0402357D01*
X0156895Y0403913D01*
X0160429Y0407447D01*
X0161985Y0405891D01*
G37*
G36*
X0164212Y0403664D02*
X0160678Y0400130D01*
X0159122Y0401686D01*
X0162656Y0405220D01*
X0164212Y0403664D01*
G37*
G36*
X0166439Y0401437D02*
X0162905Y0397903D01*
X0161349Y0399459D01*
X0164883Y0402993D01*
X0166439Y0401437D01*
G37*
G36*
X0150850Y0417027D02*
X0147316Y0413493D01*
X0145760Y0415049D01*
X0149294Y0418583D01*
X0150850Y0417027D01*
G37*
D19*
G36*
X0142539Y0415049D02*
X0140983Y0413493D01*
X0137449Y0417027D01*
X0139005Y0418583D01*
X0142539Y0415049D01*
G37*
G36*
X0140312Y0412822D02*
X0138756Y0411266D01*
X0135222Y0414800D01*
X0136778Y0416356D01*
X0140312Y0412822D01*
G37*
G36*
X0138085Y0410595D02*
X0136529Y0409039D01*
X0132995Y0412573D01*
X0134551Y0414129D01*
X0138085Y0410595D01*
G37*
G36*
X0135858Y0408368D02*
X0134302Y0406812D01*
X0130768Y0410346D01*
X0132324Y0411902D01*
X0135858Y0408368D01*
G37*
G36*
X0133631Y0406140D02*
X0132075Y0404584D01*
X0128541Y0408118D01*
X0130097Y0409674D01*
X0133631Y0406140D01*
G37*
G36*
X0131404Y0403913D02*
X0129848Y0402357D01*
X0126314Y0405891D01*
X0127870Y0407447D01*
X0131404Y0403913D01*
G37*
G36*
X0129177Y0401686D02*
X0127621Y0400130D01*
X0124087Y0403664D01*
X0125643Y0405220D01*
X0129177Y0401686D01*
G37*
G36*
X0126950Y0399459D02*
X0125394Y0397903D01*
X0121860Y0401437D01*
X0123416Y0402993D01*
X0126950Y0399459D01*
G37*
G36*
X0153077Y0377786D02*
X0151521Y0376230D01*
X0147987Y0379764D01*
X0149543Y0381320D01*
X0153077Y0377786D01*
G37*
G36*
X0155304Y0380013D02*
X0153748Y0378457D01*
X0150214Y0381991D01*
X0151770Y0383547D01*
X0155304Y0380013D01*
G37*
G36*
X0157531Y0382240D02*
X0155975Y0380684D01*
X0152441Y0384218D01*
X0153997Y0385774D01*
X0157531Y0382240D01*
G37*
G36*
X0159758Y0384467D02*
X0158202Y0382911D01*
X0154668Y0386445D01*
X0156224Y0388001D01*
X0159758Y0384467D01*
G37*
G36*
X0161985Y0386694D02*
X0160429Y0385138D01*
X0156895Y0388672D01*
X0158451Y0390228D01*
X0161985Y0386694D01*
G37*
G36*
X0164212Y0388922D02*
X0162656Y0387366D01*
X0159122Y0390900D01*
X0160678Y0392456D01*
X0164212Y0388922D01*
G37*
G36*
X0166439Y0391149D02*
X0164883Y0389593D01*
X0161349Y0393127D01*
X0162905Y0394683D01*
X0166439Y0391149D01*
G37*
G36*
X0150850Y0375559D02*
X0149294Y0374003D01*
X0145760Y0377537D01*
X0147316Y0379093D01*
X0150850Y0375559D01*
G37*
G36*
X0142539Y0333049D02*
X0140983Y0331493D01*
X0137449Y0335027D01*
X0139005Y0336583D01*
X0142539Y0333049D01*
G37*
G36*
X0140312Y0330822D02*
X0138756Y0329266D01*
X0135222Y0332800D01*
X0136778Y0334356D01*
X0140312Y0330822D01*
G37*
G36*
X0138085Y0328595D02*
X0136529Y0327039D01*
X0132995Y0330573D01*
X0134551Y0332129D01*
X0138085Y0328595D01*
G37*
G36*
X0135858Y0326368D02*
X0134302Y0324812D01*
X0130768Y0328346D01*
X0132324Y0329902D01*
X0135858Y0326368D01*
G37*
G36*
X0133631Y0324140D02*
X0132075Y0322584D01*
X0128541Y0326118D01*
X0130097Y0327674D01*
X0133631Y0324140D01*
G37*
G36*
X0131404Y0321913D02*
X0129848Y0320357D01*
X0126314Y0323891D01*
X0127870Y0325447D01*
X0131404Y0321913D01*
G37*
G36*
X0129177Y0319686D02*
X0127621Y0318130D01*
X0124087Y0321664D01*
X0125643Y0323220D01*
X0129177Y0319686D01*
G37*
G36*
X0126950Y0317459D02*
X0125394Y0315903D01*
X0121860Y0319437D01*
X0123416Y0320993D01*
X0126950Y0317459D01*
G37*
G36*
X0150850Y0293559D02*
X0149294Y0292003D01*
X0145760Y0295537D01*
X0147316Y0297093D01*
X0150850Y0293559D01*
G37*
G36*
X0153077Y0295786D02*
X0151521Y0294230D01*
X0147987Y0297764D01*
X0149543Y0299320D01*
X0153077Y0295786D01*
G37*
G36*
X0155304Y0298013D02*
X0153748Y0296457D01*
X0150214Y0299991D01*
X0151770Y0301547D01*
X0155304Y0298013D01*
G37*
G36*
X0157531Y0300240D02*
X0155975Y0298684D01*
X0152441Y0302218D01*
X0153997Y0303774D01*
X0157531Y0300240D01*
G37*
G36*
X0159758Y0302467D02*
X0158202Y0300911D01*
X0154668Y0304445D01*
X0156224Y0306001D01*
X0159758Y0302467D01*
G37*
G36*
X0161985Y0304694D02*
X0160429Y0303138D01*
X0156895Y0306672D01*
X0158451Y0308228D01*
X0161985Y0304694D01*
G37*
G36*
X0164212Y0306922D02*
X0162656Y0305366D01*
X0159122Y0308900D01*
X0160678Y0310456D01*
X0164212Y0306922D01*
G37*
G36*
X0166439Y0309149D02*
X0164883Y0307593D01*
X0161349Y0311127D01*
X0162905Y0312683D01*
X0166439Y0309149D01*
G37*
G36*
X0142539Y0251049D02*
X0140983Y0249493D01*
X0137449Y0253027D01*
X0139005Y0254583D01*
X0142539Y0251049D01*
G37*
G36*
X0140312Y0248822D02*
X0138756Y0247266D01*
X0135222Y0250800D01*
X0136778Y0252356D01*
X0140312Y0248822D01*
G37*
G36*
X0138085Y0246595D02*
X0136529Y0245039D01*
X0132995Y0248573D01*
X0134551Y0250129D01*
X0138085Y0246595D01*
G37*
G36*
X0135858Y0244368D02*
X0134302Y0242812D01*
X0130768Y0246346D01*
X0132324Y0247902D01*
X0135858Y0244368D01*
G37*
G36*
X0133631Y0242140D02*
X0132075Y0240584D01*
X0128541Y0244118D01*
X0130097Y0245674D01*
X0133631Y0242140D01*
G37*
G36*
X0131404Y0239913D02*
X0129848Y0238357D01*
X0126314Y0241891D01*
X0127870Y0243447D01*
X0131404Y0239913D01*
G37*
G36*
X0129177Y0237686D02*
X0127621Y0236130D01*
X0124087Y0239664D01*
X0125643Y0241220D01*
X0129177Y0237686D01*
G37*
G36*
X0126950Y0235459D02*
X0125394Y0233903D01*
X0121860Y0237437D01*
X0123416Y0238993D01*
X0126950Y0235459D01*
G37*
G36*
X0153077Y0213786D02*
X0151521Y0212230D01*
X0147987Y0215764D01*
X0149543Y0217320D01*
X0153077Y0213786D01*
G37*
G36*
X0155304Y0216013D02*
X0153748Y0214457D01*
X0150214Y0217991D01*
X0151770Y0219547D01*
X0155304Y0216013D01*
G37*
G36*
X0157531Y0218240D02*
X0155975Y0216684D01*
X0152441Y0220218D01*
X0153997Y0221774D01*
X0157531Y0218240D01*
G37*
G36*
X0159758Y0220467D02*
X0158202Y0218911D01*
X0154668Y0222445D01*
X0156224Y0224001D01*
X0159758Y0220467D01*
G37*
G36*
X0161985Y0222694D02*
X0160429Y0221138D01*
X0156895Y0224672D01*
X0158451Y0226228D01*
X0161985Y0222694D01*
G37*
G36*
X0164212Y0224922D02*
X0162656Y0223366D01*
X0159122Y0226900D01*
X0160678Y0228456D01*
X0164212Y0224922D01*
G37*
G36*
X0166439Y0227149D02*
X0164883Y0225593D01*
X0161349Y0229127D01*
X0162905Y0230683D01*
X0166439Y0227149D01*
G37*
G36*
X0150850Y0211559D02*
X0149294Y0210003D01*
X0145760Y0213537D01*
X0147316Y0215093D01*
X0150850Y0211559D01*
G37*
G36*
X0142539Y0169049D02*
X0140983Y0167493D01*
X0137449Y0171027D01*
X0139005Y0172583D01*
X0142539Y0169049D01*
G37*
G36*
X0140312Y0166822D02*
X0138756Y0165266D01*
X0135222Y0168800D01*
X0136778Y0170356D01*
X0140312Y0166822D01*
G37*
G36*
X0138085Y0164595D02*
X0136529Y0163039D01*
X0132995Y0166573D01*
X0134551Y0168129D01*
X0138085Y0164595D01*
G37*
G36*
X0135858Y0162368D02*
X0134302Y0160812D01*
X0130768Y0164346D01*
X0132324Y0165902D01*
X0135858Y0162368D01*
G37*
G36*
X0133631Y0160140D02*
X0132075Y0158584D01*
X0128541Y0162118D01*
X0130097Y0163674D01*
X0133631Y0160140D01*
G37*
G36*
X0131404Y0157913D02*
X0129848Y0156357D01*
X0126314Y0159891D01*
X0127870Y0161447D01*
X0131404Y0157913D01*
G37*
G36*
X0129177Y0155686D02*
X0127621Y0154130D01*
X0124087Y0157664D01*
X0125643Y0159220D01*
X0129177Y0155686D01*
G37*
G36*
X0126950Y0153459D02*
X0125394Y0151903D01*
X0121860Y0155437D01*
X0123416Y0156993D01*
X0126950Y0153459D01*
G37*
G36*
X0150850Y0129559D02*
X0149294Y0128003D01*
X0145760Y0131537D01*
X0147316Y0133093D01*
X0150850Y0129559D01*
G37*
G36*
X0153077Y0131786D02*
X0151521Y0130230D01*
X0147987Y0133764D01*
X0149543Y0135320D01*
X0153077Y0131786D01*
G37*
G36*
X0155304Y0134013D02*
X0153748Y0132457D01*
X0150214Y0135991D01*
X0151770Y0137547D01*
X0155304Y0134013D01*
G37*
G36*
X0157531Y0136240D02*
X0155975Y0134684D01*
X0152441Y0138218D01*
X0153997Y0139774D01*
X0157531Y0136240D01*
G37*
G36*
X0159758Y0138467D02*
X0158202Y0136911D01*
X0154668Y0140445D01*
X0156224Y0142001D01*
X0159758Y0138467D01*
G37*
G36*
X0161985Y0140694D02*
X0160429Y0139138D01*
X0156895Y0142672D01*
X0158451Y0144228D01*
X0161985Y0140694D01*
G37*
G36*
X0164212Y0142922D02*
X0162656Y0141366D01*
X0159122Y0144900D01*
X0160678Y0146456D01*
X0164212Y0142922D01*
G37*
G36*
X0166439Y0145149D02*
X0164883Y0143593D01*
X0161349Y0147127D01*
X0162905Y0148683D01*
X0166439Y0145149D01*
G37*
G36*
X0142539Y0087049D02*
X0140983Y0085493D01*
X0137449Y0089027D01*
X0139005Y0090583D01*
X0142539Y0087049D01*
G37*
G36*
X0140312Y0084822D02*
X0138756Y0083266D01*
X0135222Y0086800D01*
X0136778Y0088356D01*
X0140312Y0084822D01*
G37*
G36*
X0138085Y0082595D02*
X0136529Y0081039D01*
X0132995Y0084573D01*
X0134551Y0086129D01*
X0138085Y0082595D01*
G37*
G36*
X0135858Y0080368D02*
X0134302Y0078812D01*
X0130768Y0082346D01*
X0132324Y0083902D01*
X0135858Y0080368D01*
G37*
G36*
X0133631Y0078140D02*
X0132075Y0076584D01*
X0128541Y0080118D01*
X0130097Y0081674D01*
X0133631Y0078140D01*
G37*
G36*
X0131404Y0075913D02*
X0129848Y0074357D01*
X0126314Y0077891D01*
X0127870Y0079447D01*
X0131404Y0075913D01*
G37*
G36*
X0129177Y0073686D02*
X0127621Y0072130D01*
X0124087Y0075664D01*
X0125643Y0077220D01*
X0129177Y0073686D01*
G37*
G36*
X0126950Y0071459D02*
X0125394Y0069903D01*
X0121860Y0073437D01*
X0123416Y0074993D01*
X0126950Y0071459D01*
G37*
G36*
X0150850Y0047559D02*
X0149294Y0046003D01*
X0145760Y0049537D01*
X0147316Y0051093D01*
X0150850Y0047559D01*
G37*
G36*
X0153077Y0049786D02*
X0151521Y0048230D01*
X0147987Y0051764D01*
X0149543Y0053320D01*
X0153077Y0049786D01*
G37*
G36*
X0155304Y0052013D02*
X0153748Y0050457D01*
X0150214Y0053991D01*
X0151770Y0055547D01*
X0155304Y0052013D01*
G37*
G36*
X0157531Y0054240D02*
X0155975Y0052684D01*
X0152441Y0056218D01*
X0153997Y0057774D01*
X0157531Y0054240D01*
G37*
G36*
X0159758Y0056467D02*
X0158202Y0054911D01*
X0154668Y0058445D01*
X0156224Y0060001D01*
X0159758Y0056467D01*
G37*
G36*
X0161985Y0058694D02*
X0160429Y0057138D01*
X0156895Y0060672D01*
X0158451Y0062228D01*
X0161985Y0058694D01*
G37*
G36*
X0164212Y0060922D02*
X0162656Y0059366D01*
X0159122Y0062900D01*
X0160678Y0064456D01*
X0164212Y0060922D01*
G37*
G36*
X0166439Y0063149D02*
X0164883Y0061593D01*
X0161349Y0065127D01*
X0162905Y0066683D01*
X0166439Y0063149D01*
G37*
D20*
X0211242Y0084024D03*
X0211242Y0099024D03*
X0233242Y0099024D03*
X0233242Y0084024D03*
X0233242Y0166024D03*
X0233242Y0181024D03*
X0211242Y0181024D03*
X0211242Y0166024D03*
X0211242Y0248024D03*
X0211242Y0263024D03*
X0233242Y0263024D03*
X0233242Y0248024D03*
X0233242Y0330024D03*
X0233242Y0345024D03*
X0211242Y0345024D03*
X0211242Y0330024D03*
X0211242Y0412024D03*
X0211242Y0427024D03*
X0233242Y0427024D03*
X0233242Y0412024D03*
X0109750Y0404000D03*
X0109750Y0389000D03*
X0109750Y0381500D03*
X0109750Y0366500D03*
X0087750Y0366500D03*
X0087750Y0381500D03*
X0087750Y0389000D03*
X0087750Y0404000D03*
X0087750Y0322000D03*
X0087750Y0307000D03*
X0087750Y0299500D03*
X0087750Y0284500D03*
X0109750Y0284500D03*
X0109750Y0299500D03*
X0109750Y0307000D03*
X0109750Y0322000D03*
X0109750Y0240000D03*
X0109750Y0225000D03*
X0109750Y0217500D03*
X0109750Y0202500D03*
X0087750Y0202500D03*
X0087750Y0217500D03*
X0087750Y0225000D03*
X0087750Y0240000D03*
X0087750Y0158000D03*
X0087750Y0143000D03*
X0087750Y0135500D03*
X0087750Y0120500D03*
X0109750Y0120500D03*
X0109750Y0135500D03*
X0109750Y0143000D03*
X0109750Y0158000D03*
X0109750Y0076000D03*
X0109750Y0061000D03*
X0109750Y0053500D03*
X0109750Y0038500D03*
X0087750Y0038500D03*
X0087750Y0053500D03*
X0087750Y0061000D03*
X0087750Y0076000D03*
D21*
X0056333Y0065417D03*
X0056333Y0042583D03*
X0056333Y0124583D03*
X0056333Y0147417D03*
X0056333Y0206583D03*
X0056333Y0229417D03*
X0056333Y0288583D03*
X0056333Y0311417D03*
X0056333Y0370583D03*
X0056333Y0393417D03*
D22*
X0044719Y0385789D03*
X0044719Y0378211D03*
X0044719Y0303789D03*
X0044719Y0296211D03*
X0044719Y0221789D03*
X0044719Y0214211D03*
X0044719Y0139789D03*
X0044719Y0132211D03*
X0044719Y0057789D03*
X0044719Y0050211D03*
D23*
X0041509Y0041473D02*
X0041652Y0041246D01*
X0041842Y0041055D01*
X0042070Y0040913D01*
X0042323Y0040824D01*
X0042590Y0040794D01*
X0049490Y0040794D01*
X0049528Y0040786D01*
X0049561Y0040764D01*
X0049583Y0040732D01*
X0049590Y0040694D01*
X0049590Y0038794D01*
X0052690Y0038794D01*
X0052690Y0046194D01*
X0042690Y0046194D01*
X0042401Y0046161D01*
X0042126Y0046065D01*
X0041880Y0045910D01*
X0041674Y0045704D01*
X0041519Y0045458D01*
X0041423Y0045183D01*
X0041390Y0044894D01*
X0041390Y0041994D01*
X0041420Y0041727D01*
X0041509Y0041473D01*
X0041447Y0041651D02*
X0052690Y0041651D01*
X0052690Y0042049D02*
X0041390Y0042049D01*
X0041390Y0042448D02*
X0052690Y0042448D01*
X0052690Y0042846D02*
X0041390Y0042846D01*
X0041390Y0043245D02*
X0052690Y0043245D01*
X0052690Y0043643D02*
X0041390Y0043643D01*
X0041390Y0044042D02*
X0052690Y0044042D01*
X0052690Y0044440D02*
X0041390Y0044440D01*
X0041390Y0044839D02*
X0052690Y0044839D01*
X0052690Y0045237D02*
X0041442Y0045237D01*
X0041631Y0045636D02*
X0052690Y0045636D01*
X0052690Y0046034D02*
X0042078Y0046034D01*
X0041648Y0041252D02*
X0052690Y0041252D01*
X0052690Y0040854D02*
X0042237Y0040854D01*
X0049590Y0040455D02*
X0052690Y0040455D01*
X0052690Y0040057D02*
X0049590Y0040057D01*
X0049590Y0039658D02*
X0052690Y0039658D01*
X0052690Y0039260D02*
X0049590Y0039260D01*
X0049590Y0038861D02*
X0052690Y0038861D01*
X0052690Y0061857D02*
X0042690Y0061857D01*
X0042401Y0061889D01*
X0042126Y0061986D01*
X0041880Y0062140D01*
X0041674Y0062346D01*
X0041519Y0062593D01*
X0041423Y0062868D01*
X0041390Y0063157D01*
X0041390Y0066057D01*
X0041420Y0066324D01*
X0041509Y0066577D01*
X0041652Y0066805D01*
X0041842Y0066995D01*
X0042070Y0067138D01*
X0042323Y0067227D01*
X0042590Y0067257D01*
X0049490Y0067257D01*
X0049528Y0067264D01*
X0049561Y0067286D01*
X0049583Y0067319D01*
X0049590Y0067357D01*
X0049590Y0069257D01*
X0052690Y0069257D01*
X0052690Y0061857D01*
X0052690Y0061975D02*
X0042156Y0061975D01*
X0041657Y0062373D02*
X0052690Y0062373D01*
X0052690Y0062772D02*
X0041456Y0062772D01*
X0041390Y0063170D02*
X0052690Y0063170D01*
X0052690Y0063569D02*
X0041390Y0063569D01*
X0041390Y0063968D02*
X0052690Y0063968D01*
X0052690Y0064366D02*
X0041390Y0064366D01*
X0041390Y0064765D02*
X0052690Y0064765D01*
X0052690Y0065163D02*
X0041390Y0065163D01*
X0041390Y0065562D02*
X0052690Y0065562D01*
X0052690Y0065960D02*
X0041390Y0065960D01*
X0041432Y0066359D02*
X0052690Y0066359D01*
X0052690Y0066757D02*
X0041622Y0066757D01*
X0042120Y0067156D02*
X0052690Y0067156D01*
X0052690Y0067554D02*
X0049590Y0067554D01*
X0049590Y0067953D02*
X0052690Y0067953D01*
X0052690Y0068351D02*
X0049590Y0068351D01*
X0049590Y0068750D02*
X0052690Y0068750D01*
X0052690Y0069148D02*
X0049590Y0069148D01*
X0049590Y0120794D02*
X0052690Y0120794D01*
X0052690Y0128194D01*
X0042690Y0128194D01*
X0042401Y0128161D01*
X0042126Y0128065D01*
X0041880Y0127910D01*
X0041674Y0127704D01*
X0041519Y0127458D01*
X0041423Y0127183D01*
X0041390Y0126894D01*
X0041390Y0123994D01*
X0041420Y0123727D01*
X0041509Y0123473D01*
X0041652Y0123246D01*
X0041842Y0123055D01*
X0042070Y0122913D01*
X0042323Y0122824D01*
X0042590Y0122794D01*
X0049490Y0122794D01*
X0049528Y0122786D01*
X0049561Y0122764D01*
X0049583Y0122732D01*
X0049590Y0122694D01*
X0049590Y0120794D01*
X0049590Y0120955D02*
X0052690Y0120955D01*
X0052690Y0121353D02*
X0049590Y0121353D01*
X0049590Y0121752D02*
X0052690Y0121752D01*
X0052690Y0122150D02*
X0049590Y0122150D01*
X0049590Y0122549D02*
X0052690Y0122549D01*
X0052690Y0122947D02*
X0042014Y0122947D01*
X0041589Y0123346D02*
X0052690Y0123346D01*
X0052690Y0123744D02*
X0041418Y0123744D01*
X0041390Y0124143D02*
X0052690Y0124143D01*
X0052690Y0124541D02*
X0041390Y0124541D01*
X0041390Y0124940D02*
X0052690Y0124940D01*
X0052690Y0125338D02*
X0041390Y0125338D01*
X0041390Y0125737D02*
X0052690Y0125737D01*
X0052690Y0126135D02*
X0041390Y0126135D01*
X0041390Y0126534D02*
X0052690Y0126534D01*
X0052690Y0126932D02*
X0041395Y0126932D01*
X0041474Y0127331D02*
X0052690Y0127331D01*
X0052690Y0127729D02*
X0041699Y0127729D01*
X0042306Y0128128D02*
X0052690Y0128128D01*
X0052690Y0143857D02*
X0042690Y0143857D01*
X0042401Y0143889D01*
X0042126Y0143986D01*
X0041880Y0144140D01*
X0041674Y0144346D01*
X0041519Y0144593D01*
X0041423Y0144868D01*
X0041390Y0145157D01*
X0041390Y0148057D01*
X0041420Y0148324D01*
X0041509Y0148577D01*
X0041652Y0148805D01*
X0041842Y0148995D01*
X0042070Y0149138D01*
X0042323Y0149227D01*
X0042590Y0149257D01*
X0049490Y0149257D01*
X0049528Y0149264D01*
X0049561Y0149286D01*
X0049583Y0149319D01*
X0049590Y0149357D01*
X0049590Y0151257D01*
X0052690Y0151257D01*
X0052690Y0143857D01*
X0052690Y0144068D02*
X0041995Y0144068D01*
X0041598Y0144467D02*
X0052690Y0144467D01*
X0052690Y0144865D02*
X0041424Y0144865D01*
X0041390Y0145264D02*
X0052690Y0145264D01*
X0052690Y0145662D02*
X0041390Y0145662D01*
X0041390Y0146061D02*
X0052690Y0146061D01*
X0052690Y0146459D02*
X0041390Y0146459D01*
X0041390Y0146858D02*
X0052690Y0146858D01*
X0052690Y0147256D02*
X0041390Y0147256D01*
X0041390Y0147655D02*
X0052690Y0147655D01*
X0052690Y0148053D02*
X0041390Y0148053D01*
X0041465Y0148452D02*
X0052690Y0148452D01*
X0052690Y0148850D02*
X0041697Y0148850D01*
X0042520Y0149249D02*
X0052690Y0149249D01*
X0052690Y0149647D02*
X0049590Y0149647D01*
X0049590Y0150046D02*
X0052690Y0150046D01*
X0052690Y0150444D02*
X0049590Y0150444D01*
X0049590Y0150843D02*
X0052690Y0150843D01*
X0052690Y0151241D02*
X0049590Y0151241D01*
X0049590Y0202794D02*
X0052690Y0202794D01*
X0052690Y0210194D01*
X0042690Y0210194D01*
X0042401Y0210161D01*
X0042126Y0210065D01*
X0041880Y0209910D01*
X0041674Y0209704D01*
X0041519Y0209458D01*
X0041423Y0209183D01*
X0041390Y0208894D01*
X0041390Y0205994D01*
X0041420Y0205727D01*
X0041509Y0205473D01*
X0041652Y0205246D01*
X0041842Y0205055D01*
X0042070Y0204913D01*
X0042323Y0204824D01*
X0042590Y0204794D01*
X0049490Y0204794D01*
X0049528Y0204786D01*
X0049561Y0204764D01*
X0049583Y0204732D01*
X0049590Y0204694D01*
X0049590Y0202794D01*
X0049590Y0203048D02*
X0052690Y0203048D01*
X0052690Y0203446D02*
X0049590Y0203446D01*
X0049590Y0203845D02*
X0052690Y0203845D01*
X0052690Y0204243D02*
X0049590Y0204243D01*
X0049590Y0204642D02*
X0052690Y0204642D01*
X0052690Y0205041D02*
X0041866Y0205041D01*
X0041530Y0205439D02*
X0052690Y0205439D01*
X0052690Y0205838D02*
X0041408Y0205838D01*
X0041390Y0206236D02*
X0052690Y0206236D01*
X0052690Y0206635D02*
X0041390Y0206635D01*
X0041390Y0207033D02*
X0052690Y0207033D01*
X0052690Y0207432D02*
X0041390Y0207432D01*
X0041390Y0207830D02*
X0052690Y0207830D01*
X0052690Y0208229D02*
X0041390Y0208229D01*
X0041390Y0208627D02*
X0052690Y0208627D01*
X0052690Y0209026D02*
X0041405Y0209026D01*
X0041507Y0209424D02*
X0052690Y0209424D01*
X0052690Y0209823D02*
X0041792Y0209823D01*
X0042690Y0225857D02*
X0042401Y0225889D01*
X0042126Y0225986D01*
X0041880Y0226140D01*
X0041674Y0226346D01*
X0041519Y0226593D01*
X0041423Y0226868D01*
X0041390Y0227157D01*
X0041390Y0230057D01*
X0041420Y0230324D01*
X0041509Y0230577D01*
X0041652Y0230805D01*
X0041842Y0230995D01*
X0042070Y0231138D01*
X0042323Y0231227D01*
X0042590Y0231257D01*
X0049490Y0231257D01*
X0049528Y0231264D01*
X0049561Y0231286D01*
X0049583Y0231319D01*
X0049590Y0231357D01*
X0049590Y0233257D01*
X0052690Y0233257D01*
X0052690Y0225857D01*
X0042690Y0225857D01*
X0041858Y0226162D02*
X0052690Y0226162D01*
X0052690Y0226560D02*
X0041539Y0226560D01*
X0041413Y0226959D02*
X0052690Y0226959D01*
X0052690Y0227357D02*
X0041390Y0227357D01*
X0041390Y0227756D02*
X0052690Y0227756D01*
X0052690Y0228154D02*
X0041390Y0228154D01*
X0041390Y0228553D02*
X0052690Y0228553D01*
X0052690Y0228951D02*
X0041390Y0228951D01*
X0041390Y0229350D02*
X0052690Y0229350D01*
X0052690Y0229748D02*
X0041390Y0229748D01*
X0041400Y0230147D02*
X0052690Y0230147D01*
X0052690Y0230545D02*
X0041498Y0230545D01*
X0041791Y0230944D02*
X0052690Y0230944D01*
X0052690Y0231342D02*
X0049587Y0231342D01*
X0049590Y0231741D02*
X0052690Y0231741D01*
X0052690Y0232139D02*
X0049590Y0232139D01*
X0049590Y0232538D02*
X0052690Y0232538D01*
X0052690Y0232936D02*
X0049590Y0232936D01*
X0049590Y0284794D02*
X0052690Y0284794D01*
X0052690Y0292194D01*
X0042690Y0292194D01*
X0042401Y0292161D01*
X0042126Y0292065D01*
X0041880Y0291910D01*
X0041674Y0291704D01*
X0041519Y0291458D01*
X0041423Y0291183D01*
X0041390Y0290894D01*
X0041390Y0287994D01*
X0041420Y0287727D01*
X0041509Y0287473D01*
X0041652Y0287246D01*
X0041842Y0287055D01*
X0042070Y0286913D01*
X0042323Y0286824D01*
X0042590Y0286794D01*
X0049490Y0286794D01*
X0049528Y0286786D01*
X0049561Y0286764D01*
X0049583Y0286732D01*
X0049590Y0286694D01*
X0049590Y0284794D01*
X0049590Y0285141D02*
X0052690Y0285141D01*
X0052690Y0285540D02*
X0049590Y0285540D01*
X0049590Y0285938D02*
X0052690Y0285938D01*
X0052690Y0286337D02*
X0049590Y0286337D01*
X0049580Y0286735D02*
X0052690Y0286735D01*
X0052690Y0287134D02*
X0041764Y0287134D01*
X0041488Y0287532D02*
X0052690Y0287532D01*
X0052690Y0287931D02*
X0041397Y0287931D01*
X0041390Y0288329D02*
X0052690Y0288329D01*
X0052690Y0288728D02*
X0041390Y0288728D01*
X0041390Y0289126D02*
X0052690Y0289126D01*
X0052690Y0289525D02*
X0041390Y0289525D01*
X0041390Y0289923D02*
X0052690Y0289923D01*
X0052690Y0290322D02*
X0041390Y0290322D01*
X0041390Y0290720D02*
X0052690Y0290720D01*
X0052690Y0291119D02*
X0041416Y0291119D01*
X0041556Y0291517D02*
X0052690Y0291517D01*
X0052690Y0291916D02*
X0041889Y0291916D01*
X0042690Y0307857D02*
X0042401Y0307889D01*
X0042126Y0307986D01*
X0041880Y0308140D01*
X0041674Y0308346D01*
X0041519Y0308593D01*
X0041423Y0308868D01*
X0041390Y0309157D01*
X0041390Y0312057D01*
X0041420Y0312324D01*
X0041509Y0312577D01*
X0041652Y0312805D01*
X0041842Y0312995D01*
X0042070Y0313138D01*
X0042323Y0313227D01*
X0042590Y0313257D01*
X0049490Y0313257D01*
X0049528Y0313264D01*
X0049561Y0313286D01*
X0049583Y0313319D01*
X0049590Y0313357D01*
X0049590Y0315257D01*
X0052690Y0315257D01*
X0052690Y0307857D01*
X0042690Y0307857D01*
X0041765Y0308255D02*
X0052690Y0308255D01*
X0052690Y0308653D02*
X0041498Y0308653D01*
X0041402Y0309052D02*
X0052690Y0309052D01*
X0052690Y0309450D02*
X0041390Y0309450D01*
X0041390Y0309849D02*
X0052690Y0309849D01*
X0052690Y0310248D02*
X0041390Y0310248D01*
X0041390Y0310646D02*
X0052690Y0310646D01*
X0052690Y0311045D02*
X0041390Y0311045D01*
X0041390Y0311443D02*
X0052690Y0311443D01*
X0052690Y0311842D02*
X0041390Y0311842D01*
X0041411Y0312240D02*
X0052690Y0312240D01*
X0052690Y0312639D02*
X0041547Y0312639D01*
X0041909Y0313037D02*
X0052690Y0313037D01*
X0052690Y0313436D02*
X0049590Y0313436D01*
X0049590Y0313834D02*
X0052690Y0313834D01*
X0052690Y0314233D02*
X0049590Y0314233D01*
X0049590Y0314631D02*
X0052690Y0314631D01*
X0052690Y0315030D02*
X0049590Y0315030D01*
X0049590Y0366794D02*
X0052690Y0366794D01*
X0052690Y0374194D01*
X0042690Y0374194D01*
X0042401Y0374161D01*
X0042126Y0374065D01*
X0041880Y0373910D01*
X0041674Y0373704D01*
X0041519Y0373458D01*
X0041423Y0373183D01*
X0041390Y0372894D01*
X0041390Y0369994D01*
X0041420Y0369727D01*
X0041509Y0369473D01*
X0041652Y0369246D01*
X0041842Y0369055D01*
X0042070Y0368913D01*
X0042323Y0368824D01*
X0042590Y0368794D01*
X0049490Y0368794D01*
X0049528Y0368786D01*
X0049561Y0368764D01*
X0049583Y0368732D01*
X0049590Y0368694D01*
X0049590Y0366794D01*
X0049590Y0366836D02*
X0052690Y0366836D01*
X0052690Y0367235D02*
X0049590Y0367235D01*
X0049590Y0367633D02*
X0052690Y0367633D01*
X0052690Y0368032D02*
X0049590Y0368032D01*
X0049590Y0368430D02*
X0052690Y0368430D01*
X0052690Y0368829D02*
X0042309Y0368829D01*
X0041670Y0369227D02*
X0052690Y0369227D01*
X0052690Y0369626D02*
X0041456Y0369626D01*
X0041390Y0370024D02*
X0052690Y0370024D01*
X0052690Y0370423D02*
X0041390Y0370423D01*
X0041390Y0370821D02*
X0052690Y0370821D01*
X0052690Y0371220D02*
X0041390Y0371220D01*
X0041390Y0371618D02*
X0052690Y0371618D01*
X0052690Y0372017D02*
X0041390Y0372017D01*
X0041390Y0372415D02*
X0052690Y0372415D01*
X0052690Y0372814D02*
X0041390Y0372814D01*
X0041433Y0373212D02*
X0052690Y0373212D01*
X0052690Y0373611D02*
X0041615Y0373611D01*
X0042038Y0374009D02*
X0052690Y0374009D01*
X0052690Y0389857D02*
X0042690Y0389857D01*
X0042401Y0389889D01*
X0042126Y0389986D01*
X0041880Y0390140D01*
X0041674Y0390346D01*
X0041519Y0390593D01*
X0041423Y0390868D01*
X0041390Y0391157D01*
X0041390Y0394057D01*
X0041420Y0394324D01*
X0041509Y0394577D01*
X0041652Y0394805D01*
X0041842Y0394995D01*
X0042070Y0395138D01*
X0042323Y0395227D01*
X0042590Y0395257D01*
X0049490Y0395257D01*
X0049528Y0395264D01*
X0049561Y0395286D01*
X0049583Y0395319D01*
X0049590Y0395357D01*
X0049590Y0397257D01*
X0052690Y0397257D01*
X0052690Y0389857D01*
X0052690Y0389950D02*
X0042228Y0389950D01*
X0041673Y0390348D02*
X0052690Y0390348D01*
X0052690Y0390747D02*
X0041465Y0390747D01*
X0041391Y0391145D02*
X0052690Y0391145D01*
X0052690Y0391544D02*
X0041390Y0391544D01*
X0041390Y0391942D02*
X0052690Y0391942D01*
X0052690Y0392341D02*
X0041390Y0392341D01*
X0041390Y0392739D02*
X0052690Y0392739D01*
X0052690Y0393138D02*
X0041390Y0393138D01*
X0041390Y0393536D02*
X0052690Y0393536D01*
X0052690Y0393935D02*
X0041390Y0393935D01*
X0041424Y0394333D02*
X0052690Y0394333D01*
X0052690Y0394732D02*
X0041606Y0394732D01*
X0042057Y0395130D02*
X0052690Y0395130D01*
X0052690Y0395529D02*
X0049590Y0395529D01*
X0049590Y0395927D02*
X0052690Y0395927D01*
X0052690Y0396326D02*
X0049590Y0396326D01*
X0049590Y0396724D02*
X0052690Y0396724D01*
X0052690Y0397123D02*
X0049590Y0397123D01*
D24*
X0052077Y0387610D02*
X0058475Y0387610D01*
X0058475Y0386626D01*
X0052077Y0386626D01*
X0052077Y0387610D01*
X0052077Y0387575D02*
X0058475Y0387575D01*
X0058475Y0387379D02*
X0052077Y0387379D01*
X0052077Y0387184D02*
X0058475Y0387184D01*
X0058475Y0386989D02*
X0052077Y0386989D01*
X0052077Y0386793D02*
X0058475Y0386793D01*
X0058475Y0385051D02*
X0052077Y0385051D01*
X0052077Y0384067D01*
X0058475Y0384067D01*
X0058475Y0385051D01*
X0058475Y0385035D02*
X0052077Y0385035D01*
X0052077Y0384840D02*
X0058475Y0384840D01*
X0058475Y0384644D02*
X0052077Y0384644D01*
X0052077Y0384449D02*
X0058475Y0384449D01*
X0058475Y0384254D02*
X0052077Y0384254D01*
X0052077Y0382492D02*
X0058475Y0382492D01*
X0058475Y0381508D01*
X0052077Y0381508D01*
X0052077Y0382492D01*
X0052077Y0382300D02*
X0058475Y0382300D01*
X0058475Y0382105D02*
X0052077Y0382105D01*
X0052077Y0381909D02*
X0058475Y0381909D01*
X0058475Y0381714D02*
X0052077Y0381714D01*
X0052077Y0381519D02*
X0058475Y0381519D01*
X0058475Y0379933D02*
X0052077Y0379933D01*
X0052077Y0378949D01*
X0058475Y0378949D01*
X0058475Y0379933D01*
X0058475Y0379760D02*
X0052077Y0379760D01*
X0052077Y0379565D02*
X0058475Y0379565D01*
X0058475Y0379370D02*
X0052077Y0379370D01*
X0052077Y0379174D02*
X0058475Y0379174D01*
X0058475Y0378979D02*
X0052077Y0378979D01*
X0052077Y0377374D02*
X0058475Y0377374D01*
X0058475Y0376390D01*
X0052077Y0376390D01*
X0052077Y0377374D01*
X0052077Y0377221D02*
X0058475Y0377221D01*
X0058475Y0377025D02*
X0052077Y0377025D01*
X0052077Y0376830D02*
X0058475Y0376830D01*
X0058475Y0376635D02*
X0052077Y0376635D01*
X0052077Y0376439D02*
X0058475Y0376439D01*
X0058475Y0305610D02*
X0052077Y0305610D01*
X0052077Y0304626D01*
X0058475Y0304626D01*
X0058475Y0305610D01*
X0058475Y0305523D02*
X0052077Y0305523D01*
X0052077Y0305328D02*
X0058475Y0305328D01*
X0058475Y0305132D02*
X0052077Y0305132D01*
X0052077Y0304937D02*
X0058475Y0304937D01*
X0058475Y0304741D02*
X0052077Y0304741D01*
X0052077Y0303051D02*
X0058475Y0303051D01*
X0058475Y0302067D01*
X0052077Y0302067D01*
X0052077Y0303051D01*
X0052077Y0302983D02*
X0058475Y0302983D01*
X0058475Y0302788D02*
X0052077Y0302788D01*
X0052077Y0302592D02*
X0058475Y0302592D01*
X0058475Y0302397D02*
X0052077Y0302397D01*
X0052077Y0302202D02*
X0058475Y0302202D01*
X0058475Y0300492D02*
X0052077Y0300492D01*
X0052077Y0299508D01*
X0058475Y0299508D01*
X0058475Y0300492D01*
X0058475Y0300444D02*
X0052077Y0300444D01*
X0052077Y0300248D02*
X0058475Y0300248D01*
X0058475Y0300053D02*
X0052077Y0300053D01*
X0052077Y0299857D02*
X0058475Y0299857D01*
X0058475Y0299662D02*
X0052077Y0299662D01*
X0052077Y0297933D02*
X0058475Y0297933D01*
X0058475Y0296949D01*
X0052077Y0296949D01*
X0052077Y0297933D01*
X0052077Y0297904D02*
X0058475Y0297904D01*
X0058475Y0297708D02*
X0052077Y0297708D01*
X0052077Y0297513D02*
X0058475Y0297513D01*
X0058475Y0297318D02*
X0052077Y0297318D01*
X0052077Y0297122D02*
X0058475Y0297122D01*
X0058475Y0295374D02*
X0052077Y0295374D01*
X0052077Y0294390D01*
X0058475Y0294390D01*
X0058475Y0295374D01*
X0058475Y0295364D02*
X0052077Y0295364D01*
X0052077Y0295169D02*
X0058475Y0295169D01*
X0058475Y0294973D02*
X0052077Y0294973D01*
X0052077Y0294778D02*
X0058475Y0294778D01*
X0058475Y0294583D02*
X0052077Y0294583D01*
X0052077Y0223610D02*
X0058475Y0223610D01*
X0058475Y0222626D01*
X0052077Y0222626D01*
X0052077Y0223610D01*
X0052077Y0223471D02*
X0058475Y0223471D01*
X0058475Y0223276D02*
X0052077Y0223276D01*
X0052077Y0223080D02*
X0058475Y0223080D01*
X0058475Y0222885D02*
X0052077Y0222885D01*
X0052077Y0222690D02*
X0058475Y0222690D01*
X0058475Y0221051D02*
X0052077Y0221051D01*
X0052077Y0220067D01*
X0058475Y0220067D01*
X0058475Y0221051D01*
X0058475Y0220931D02*
X0052077Y0220931D01*
X0052077Y0220736D02*
X0058475Y0220736D01*
X0058475Y0220541D02*
X0052077Y0220541D01*
X0052077Y0220345D02*
X0058475Y0220345D01*
X0058475Y0220150D02*
X0052077Y0220150D01*
X0052077Y0218492D02*
X0058475Y0218492D01*
X0058475Y0217508D01*
X0052077Y0217508D01*
X0052077Y0218492D01*
X0052077Y0218392D02*
X0058475Y0218392D01*
X0058475Y0218196D02*
X0052077Y0218196D01*
X0052077Y0218001D02*
X0058475Y0218001D01*
X0058475Y0217805D02*
X0052077Y0217805D01*
X0052077Y0217610D02*
X0058475Y0217610D01*
X0058475Y0215933D02*
X0052077Y0215933D01*
X0052077Y0214949D01*
X0058475Y0214949D01*
X0058475Y0215933D01*
X0058475Y0215852D02*
X0052077Y0215852D01*
X0052077Y0215657D02*
X0058475Y0215657D01*
X0058475Y0215461D02*
X0052077Y0215461D01*
X0052077Y0215266D02*
X0058475Y0215266D01*
X0058475Y0215070D02*
X0052077Y0215070D01*
X0052077Y0213374D02*
X0058475Y0213374D01*
X0058475Y0212390D01*
X0052077Y0212390D01*
X0052077Y0213374D01*
X0052077Y0213312D02*
X0058475Y0213312D01*
X0058475Y0213117D02*
X0052077Y0213117D01*
X0052077Y0212921D02*
X0058475Y0212921D01*
X0058475Y0212726D02*
X0052077Y0212726D01*
X0052077Y0212531D02*
X0058475Y0212531D01*
X0058475Y0141610D02*
X0052077Y0141610D01*
X0052077Y0140626D01*
X0058475Y0140626D01*
X0058475Y0141610D01*
X0058475Y0141419D02*
X0052077Y0141419D01*
X0052077Y0141224D02*
X0058475Y0141224D01*
X0058475Y0141028D02*
X0052077Y0141028D01*
X0052077Y0140833D02*
X0058475Y0140833D01*
X0058475Y0140638D02*
X0052077Y0140638D01*
X0052077Y0139051D02*
X0058475Y0139051D01*
X0058475Y0138067D01*
X0052077Y0138067D01*
X0052077Y0139051D01*
X0052077Y0138879D02*
X0058475Y0138879D01*
X0058475Y0138684D02*
X0052077Y0138684D01*
X0052077Y0138489D02*
X0058475Y0138489D01*
X0058475Y0138293D02*
X0052077Y0138293D01*
X0052077Y0138098D02*
X0058475Y0138098D01*
X0058475Y0136492D02*
X0052077Y0136492D01*
X0052077Y0135508D01*
X0058475Y0135508D01*
X0058475Y0136492D01*
X0058475Y0136340D02*
X0052077Y0136340D01*
X0052077Y0136144D02*
X0058475Y0136144D01*
X0058475Y0135949D02*
X0052077Y0135949D01*
X0052077Y0135754D02*
X0058475Y0135754D01*
X0058475Y0135558D02*
X0052077Y0135558D01*
X0052077Y0133933D02*
X0058475Y0133933D01*
X0058475Y0132949D01*
X0052077Y0132949D01*
X0052077Y0133933D01*
X0052077Y0133800D02*
X0058475Y0133800D01*
X0058475Y0133605D02*
X0052077Y0133605D01*
X0052077Y0133409D02*
X0058475Y0133409D01*
X0058475Y0133214D02*
X0052077Y0133214D01*
X0052077Y0133019D02*
X0058475Y0133019D01*
X0058475Y0131374D02*
X0052077Y0131374D01*
X0052077Y0130390D01*
X0058475Y0130390D01*
X0058475Y0131374D01*
X0058475Y0131260D02*
X0052077Y0131260D01*
X0052077Y0131065D02*
X0058475Y0131065D01*
X0058475Y0130870D02*
X0052077Y0130870D01*
X0052077Y0130674D02*
X0058475Y0130674D01*
X0058475Y0130479D02*
X0052077Y0130479D01*
X0052077Y0059610D02*
X0058475Y0059610D01*
X0058475Y0058626D01*
X0052077Y0058626D01*
X0052077Y0059610D01*
X0052077Y0059563D02*
X0058475Y0059563D01*
X0058475Y0059367D02*
X0052077Y0059367D01*
X0052077Y0059172D02*
X0058475Y0059172D01*
X0058475Y0058976D02*
X0052077Y0058976D01*
X0052077Y0058781D02*
X0058475Y0058781D01*
X0058475Y0057051D02*
X0052077Y0057051D01*
X0052077Y0056067D01*
X0058475Y0056067D01*
X0058475Y0057051D01*
X0058475Y0057023D02*
X0052077Y0057023D01*
X0052077Y0056827D02*
X0058475Y0056827D01*
X0058475Y0056632D02*
X0052077Y0056632D01*
X0052077Y0056437D02*
X0058475Y0056437D01*
X0058475Y0056241D02*
X0052077Y0056241D01*
X0052077Y0054492D02*
X0058475Y0054492D01*
X0058475Y0053508D01*
X0052077Y0053508D01*
X0052077Y0054492D01*
X0052077Y0054483D02*
X0058475Y0054483D01*
X0058475Y0054288D02*
X0052077Y0054288D01*
X0052077Y0054092D02*
X0058475Y0054092D01*
X0058475Y0053897D02*
X0052077Y0053897D01*
X0052077Y0053702D02*
X0058475Y0053702D01*
X0058475Y0051933D02*
X0052077Y0051933D01*
X0052077Y0050949D01*
X0058475Y0050949D01*
X0058475Y0051933D01*
X0058475Y0051748D02*
X0052077Y0051748D01*
X0052077Y0051553D02*
X0058475Y0051553D01*
X0058475Y0051357D02*
X0052077Y0051357D01*
X0052077Y0051162D02*
X0058475Y0051162D01*
X0058475Y0050967D02*
X0052077Y0050967D01*
X0052077Y0049374D02*
X0058475Y0049374D01*
X0058475Y0048390D01*
X0052077Y0048390D01*
X0052077Y0049374D01*
X0052077Y0049208D02*
X0058475Y0049208D01*
X0058475Y0049013D02*
X0052077Y0049013D01*
X0052077Y0048818D02*
X0058475Y0048818D01*
X0058475Y0048622D02*
X0052077Y0048622D01*
X0052077Y0048427D02*
X0058475Y0048427D01*
D25*
X0377250Y0045094D02*
X0400250Y0045094D01*
X0400250Y0057063D02*
X0377250Y0057063D01*
X0377150Y0068312D02*
X0400150Y0068312D01*
X0400250Y0079031D02*
X0377250Y0079031D01*
X0377250Y0091000D02*
X0400250Y0091000D01*
X0400250Y0127094D02*
X0377250Y0127094D01*
X0377250Y0139063D02*
X0400250Y0139063D01*
X0400150Y0150312D02*
X0377150Y0150312D01*
X0377250Y0161031D02*
X0400250Y0161031D01*
X0400250Y0173000D02*
X0377250Y0173000D01*
X0377250Y0209094D02*
X0400250Y0209094D01*
X0400250Y0221063D02*
X0377250Y0221063D01*
X0377150Y0232312D02*
X0400150Y0232312D01*
X0400250Y0243031D02*
X0377250Y0243031D01*
X0377250Y0255000D02*
X0400250Y0255000D01*
X0400250Y0291094D02*
X0377250Y0291094D01*
X0377250Y0303063D02*
X0400250Y0303063D01*
X0400150Y0314312D02*
X0377150Y0314312D01*
X0377250Y0325031D02*
X0400250Y0325031D01*
X0400250Y0337000D02*
X0377250Y0337000D01*
X0377250Y0373094D02*
X0400250Y0373094D01*
X0400250Y0385063D02*
X0377250Y0385063D01*
X0377150Y0396312D02*
X0400150Y0396312D01*
X0400250Y0407031D02*
X0377250Y0407031D01*
X0377250Y0419000D02*
X0400250Y0419000D01*
D26*
X0291750Y0374831D03*
X0288010Y0366563D03*
X0295490Y0366563D03*
X0291750Y0292831D03*
X0288010Y0284563D03*
X0295490Y0284563D03*
X0291750Y0210831D03*
X0288010Y0202563D03*
X0295490Y0202563D03*
X0291750Y0128831D03*
X0288010Y0120563D03*
X0295490Y0120563D03*
X0291750Y0046831D03*
X0288010Y0038563D03*
X0295490Y0038563D03*
X0196990Y0065937D03*
X0189510Y0065937D03*
X0193250Y0057669D03*
X0193250Y0139669D03*
X0189510Y0147937D03*
X0196990Y0147937D03*
X0193250Y0221669D03*
X0189510Y0229937D03*
X0196990Y0229937D03*
X0193250Y0303669D03*
X0189510Y0311937D03*
X0196990Y0311937D03*
X0193250Y0385669D03*
X0189510Y0393937D03*
X0196990Y0393937D03*
D27*
G36*
X0256421Y0375570D02*
X0254891Y0374040D01*
X0251551Y0377380D01*
X0253081Y0378910D01*
X0256421Y0375570D01*
G37*
G36*
X0263660Y0368331D02*
X0262130Y0366801D01*
X0258790Y0370141D01*
X0260320Y0371671D01*
X0263660Y0368331D01*
G37*
G36*
X0266304Y0370976D02*
X0264774Y0369446D01*
X0261434Y0372786D01*
X0262964Y0374316D01*
X0266304Y0370976D01*
G37*
G36*
X0268949Y0373620D02*
X0267419Y0372090D01*
X0264079Y0375430D01*
X0265609Y0376960D01*
X0268949Y0373620D01*
G37*
G36*
X0261710Y0380859D02*
X0260180Y0379329D01*
X0256840Y0382669D01*
X0258370Y0384199D01*
X0261710Y0380859D01*
G37*
G36*
X0261710Y0298859D02*
X0260180Y0297329D01*
X0256840Y0300669D01*
X0258370Y0302199D01*
X0261710Y0298859D01*
G37*
G36*
X0268949Y0291620D02*
X0267419Y0290090D01*
X0264079Y0293430D01*
X0265609Y0294960D01*
X0268949Y0291620D01*
G37*
G36*
X0266304Y0288976D02*
X0264774Y0287446D01*
X0261434Y0290786D01*
X0262964Y0292316D01*
X0266304Y0288976D01*
G37*
G36*
X0263660Y0286331D02*
X0262130Y0284801D01*
X0258790Y0288141D01*
X0260320Y0289671D01*
X0263660Y0286331D01*
G37*
G36*
X0256421Y0293570D02*
X0254891Y0292040D01*
X0251551Y0295380D01*
X0253081Y0296910D01*
X0256421Y0293570D01*
G37*
G36*
X0261710Y0216859D02*
X0260180Y0215329D01*
X0256840Y0218669D01*
X0258370Y0220199D01*
X0261710Y0216859D01*
G37*
G36*
X0268949Y0209620D02*
X0267419Y0208090D01*
X0264079Y0211430D01*
X0265609Y0212960D01*
X0268949Y0209620D01*
G37*
G36*
X0266304Y0206976D02*
X0264774Y0205446D01*
X0261434Y0208786D01*
X0262964Y0210316D01*
X0266304Y0206976D01*
G37*
G36*
X0263660Y0204331D02*
X0262130Y0202801D01*
X0258790Y0206141D01*
X0260320Y0207671D01*
X0263660Y0204331D01*
G37*
G36*
X0256421Y0211570D02*
X0254891Y0210040D01*
X0251551Y0213380D01*
X0253081Y0214910D01*
X0256421Y0211570D01*
G37*
G36*
X0261710Y0134859D02*
X0260180Y0133329D01*
X0256840Y0136669D01*
X0258370Y0138199D01*
X0261710Y0134859D01*
G37*
G36*
X0268949Y0127620D02*
X0267419Y0126090D01*
X0264079Y0129430D01*
X0265609Y0130960D01*
X0268949Y0127620D01*
G37*
G36*
X0266304Y0124976D02*
X0264774Y0123446D01*
X0261434Y0126786D01*
X0262964Y0128316D01*
X0266304Y0124976D01*
G37*
G36*
X0263660Y0122331D02*
X0262130Y0120801D01*
X0258790Y0124141D01*
X0260320Y0125671D01*
X0263660Y0122331D01*
G37*
G36*
X0256421Y0129570D02*
X0254891Y0128040D01*
X0251551Y0131380D01*
X0253081Y0132910D01*
X0256421Y0129570D01*
G37*
G36*
X0261710Y0052859D02*
X0260180Y0051329D01*
X0256840Y0054669D01*
X0258370Y0056199D01*
X0261710Y0052859D01*
G37*
G36*
X0268949Y0045620D02*
X0267419Y0044090D01*
X0264079Y0047430D01*
X0265609Y0048960D01*
X0268949Y0045620D01*
G37*
G36*
X0266304Y0042976D02*
X0264774Y0041446D01*
X0261434Y0044786D01*
X0262964Y0046316D01*
X0266304Y0042976D01*
G37*
G36*
X0263660Y0040331D02*
X0262130Y0038801D01*
X0258790Y0042141D01*
X0260320Y0043671D01*
X0263660Y0040331D01*
G37*
G36*
X0256421Y0047570D02*
X0254891Y0046040D01*
X0251551Y0049380D01*
X0253081Y0050910D01*
X0256421Y0047570D01*
G37*
D28*
X0239278Y0043000D03*
X0230222Y0043000D03*
X0230222Y0125000D03*
X0239278Y0125000D03*
X0239278Y0207000D03*
X0230222Y0207000D03*
X0230222Y0289000D03*
X0239278Y0289000D03*
X0239278Y0371000D03*
X0230222Y0371000D03*
X0076278Y0377000D03*
X0067222Y0377000D03*
X0067222Y0295000D03*
X0076278Y0295000D03*
X0076278Y0213000D03*
X0067222Y0213000D03*
X0067222Y0131000D03*
X0076278Y0131000D03*
X0076278Y0049000D03*
X0067222Y0049000D03*
D29*
X0115711Y0057493D02*
X0117659Y0059441D01*
X0119607Y0057493D01*
X0117659Y0055545D01*
X0115711Y0057493D01*
X0116537Y0056667D02*
X0118781Y0056667D01*
X0119311Y0057789D02*
X0116007Y0057789D01*
X0117129Y0058911D02*
X0118189Y0058911D01*
X0122542Y0054558D02*
X0120594Y0052610D01*
X0122542Y0054558D02*
X0124490Y0052610D01*
X0122542Y0050662D01*
X0120594Y0052610D01*
X0121420Y0051784D02*
X0123664Y0051784D01*
X0124194Y0052906D02*
X0120890Y0052906D01*
X0122012Y0054028D02*
X0123072Y0054028D01*
X0151419Y0102122D02*
X0151419Y0104878D01*
X0154175Y0104878D01*
X0154175Y0102122D01*
X0151419Y0102122D01*
X0151419Y0103244D02*
X0154175Y0103244D01*
X0154175Y0104366D02*
X0151419Y0104366D01*
X0158325Y0104878D02*
X0158325Y0102122D01*
X0158325Y0104878D02*
X0161081Y0104878D01*
X0161081Y0102122D01*
X0158325Y0102122D01*
X0158325Y0103244D02*
X0161081Y0103244D01*
X0161081Y0104366D02*
X0158325Y0104366D01*
X0122542Y0136558D02*
X0120594Y0134610D01*
X0122542Y0136558D02*
X0124490Y0134610D01*
X0122542Y0132662D01*
X0120594Y0134610D01*
X0121420Y0133784D02*
X0123664Y0133784D01*
X0124194Y0134906D02*
X0120890Y0134906D01*
X0122012Y0136028D02*
X0123072Y0136028D01*
X0117659Y0141441D02*
X0115711Y0139493D01*
X0117659Y0141441D02*
X0119607Y0139493D01*
X0117659Y0137545D01*
X0115711Y0139493D01*
X0116537Y0138667D02*
X0118781Y0138667D01*
X0119311Y0139789D02*
X0116007Y0139789D01*
X0117129Y0140911D02*
X0118189Y0140911D01*
X0151419Y0184122D02*
X0151419Y0186878D01*
X0154175Y0186878D01*
X0154175Y0184122D01*
X0151419Y0184122D01*
X0151419Y0185244D02*
X0154175Y0185244D01*
X0154175Y0186366D02*
X0151419Y0186366D01*
X0158325Y0186878D02*
X0158325Y0184122D01*
X0158325Y0186878D02*
X0161081Y0186878D01*
X0161081Y0184122D01*
X0158325Y0184122D01*
X0158325Y0185244D02*
X0161081Y0185244D01*
X0161081Y0186366D02*
X0158325Y0186366D01*
X0122542Y0218558D02*
X0120594Y0216610D01*
X0122542Y0218558D02*
X0124490Y0216610D01*
X0122542Y0214662D01*
X0120594Y0216610D01*
X0121420Y0215784D02*
X0123664Y0215784D01*
X0124194Y0216906D02*
X0120890Y0216906D01*
X0122012Y0218028D02*
X0123072Y0218028D01*
X0117659Y0223441D02*
X0115711Y0221493D01*
X0117659Y0223441D02*
X0119607Y0221493D01*
X0117659Y0219545D01*
X0115711Y0221493D01*
X0116537Y0220667D02*
X0118781Y0220667D01*
X0119311Y0221789D02*
X0116007Y0221789D01*
X0117129Y0222911D02*
X0118189Y0222911D01*
X0151419Y0266122D02*
X0151419Y0268878D01*
X0154175Y0268878D01*
X0154175Y0266122D01*
X0151419Y0266122D01*
X0151419Y0267244D02*
X0154175Y0267244D01*
X0154175Y0268366D02*
X0151419Y0268366D01*
X0158325Y0268878D02*
X0158325Y0266122D01*
X0158325Y0268878D02*
X0161081Y0268878D01*
X0161081Y0266122D01*
X0158325Y0266122D01*
X0158325Y0267244D02*
X0161081Y0267244D01*
X0161081Y0268366D02*
X0158325Y0268366D01*
X0122542Y0300558D02*
X0120594Y0298610D01*
X0122542Y0300558D02*
X0124490Y0298610D01*
X0122542Y0296662D01*
X0120594Y0298610D01*
X0121420Y0297784D02*
X0123664Y0297784D01*
X0124194Y0298906D02*
X0120890Y0298906D01*
X0122012Y0300028D02*
X0123072Y0300028D01*
X0117659Y0305441D02*
X0115711Y0303493D01*
X0117659Y0305441D02*
X0119607Y0303493D01*
X0117659Y0301545D01*
X0115711Y0303493D01*
X0116537Y0302667D02*
X0118781Y0302667D01*
X0119311Y0303789D02*
X0116007Y0303789D01*
X0117129Y0304911D02*
X0118189Y0304911D01*
X0151419Y0348122D02*
X0151419Y0350878D01*
X0154175Y0350878D01*
X0154175Y0348122D01*
X0151419Y0348122D01*
X0151419Y0349244D02*
X0154175Y0349244D01*
X0154175Y0350366D02*
X0151419Y0350366D01*
X0158325Y0350878D02*
X0158325Y0348122D01*
X0158325Y0350878D02*
X0161081Y0350878D01*
X0161081Y0348122D01*
X0158325Y0348122D01*
X0158325Y0349244D02*
X0161081Y0349244D01*
X0161081Y0350366D02*
X0158325Y0350366D01*
X0122542Y0382558D02*
X0120594Y0380610D01*
X0122542Y0382558D02*
X0124490Y0380610D01*
X0122542Y0378662D01*
X0120594Y0380610D01*
X0121420Y0379784D02*
X0123664Y0379784D01*
X0124194Y0380906D02*
X0120890Y0380906D01*
X0122012Y0382028D02*
X0123072Y0382028D01*
X0117659Y0387441D02*
X0115711Y0385493D01*
X0117659Y0387441D02*
X0119607Y0385493D01*
X0117659Y0383545D01*
X0115711Y0385493D01*
X0116537Y0384667D02*
X0118781Y0384667D01*
X0119311Y0385789D02*
X0116007Y0385789D01*
X0117129Y0386911D02*
X0118189Y0386911D01*
X0151419Y0430122D02*
X0151419Y0432878D01*
X0154175Y0432878D01*
X0154175Y0430122D01*
X0151419Y0430122D01*
X0151419Y0431244D02*
X0154175Y0431244D01*
X0154175Y0432366D02*
X0151419Y0432366D01*
X0158325Y0432878D02*
X0158325Y0430122D01*
X0158325Y0432878D02*
X0161081Y0432878D01*
X0161081Y0430122D01*
X0158325Y0430122D01*
X0158325Y0431244D02*
X0161081Y0431244D01*
X0161081Y0432366D02*
X0158325Y0432366D01*
X0248419Y0432878D02*
X0248419Y0430122D01*
X0248419Y0432878D02*
X0251175Y0432878D01*
X0251175Y0430122D01*
X0248419Y0430122D01*
X0248419Y0431244D02*
X0251175Y0431244D01*
X0251175Y0432366D02*
X0248419Y0432366D01*
X0255325Y0432878D02*
X0255325Y0430122D01*
X0255325Y0432878D02*
X0258081Y0432878D01*
X0258081Y0430122D01*
X0255325Y0430122D01*
X0255325Y0431244D02*
X0258081Y0431244D01*
X0258081Y0432366D02*
X0255325Y0432366D01*
X0255325Y0350878D02*
X0255325Y0348122D01*
X0255325Y0350878D02*
X0258081Y0350878D01*
X0258081Y0348122D01*
X0255325Y0348122D01*
X0255325Y0349244D02*
X0258081Y0349244D01*
X0258081Y0350366D02*
X0255325Y0350366D01*
X0248419Y0350878D02*
X0248419Y0348122D01*
X0248419Y0350878D02*
X0251175Y0350878D01*
X0251175Y0348122D01*
X0248419Y0348122D01*
X0248419Y0349244D02*
X0251175Y0349244D01*
X0251175Y0350366D02*
X0248419Y0350366D01*
X0248419Y0268878D02*
X0248419Y0266122D01*
X0248419Y0268878D02*
X0251175Y0268878D01*
X0251175Y0266122D01*
X0248419Y0266122D01*
X0248419Y0267244D02*
X0251175Y0267244D01*
X0251175Y0268366D02*
X0248419Y0268366D01*
X0255325Y0268878D02*
X0255325Y0266122D01*
X0255325Y0268878D02*
X0258081Y0268878D01*
X0258081Y0266122D01*
X0255325Y0266122D01*
X0255325Y0267244D02*
X0258081Y0267244D01*
X0258081Y0268366D02*
X0255325Y0268366D01*
X0346419Y0268878D02*
X0346419Y0266122D01*
X0346419Y0268878D02*
X0349175Y0268878D01*
X0349175Y0266122D01*
X0346419Y0266122D01*
X0346419Y0267244D02*
X0349175Y0267244D01*
X0349175Y0268366D02*
X0346419Y0268366D01*
X0353325Y0268878D02*
X0353325Y0266122D01*
X0353325Y0268878D02*
X0356081Y0268878D01*
X0356081Y0266122D01*
X0353325Y0266122D01*
X0353325Y0267244D02*
X0356081Y0267244D01*
X0356081Y0268366D02*
X0353325Y0268366D01*
X0353325Y0348122D02*
X0353325Y0350878D01*
X0356081Y0350878D01*
X0356081Y0348122D01*
X0353325Y0348122D01*
X0353325Y0349244D02*
X0356081Y0349244D01*
X0356081Y0350366D02*
X0353325Y0350366D01*
X0346419Y0350878D02*
X0346419Y0348122D01*
X0346419Y0350878D02*
X0349175Y0350878D01*
X0349175Y0348122D01*
X0346419Y0348122D01*
X0346419Y0349244D02*
X0349175Y0349244D01*
X0349175Y0350366D02*
X0346419Y0350366D01*
X0346419Y0430122D02*
X0346419Y0432878D01*
X0349175Y0432878D01*
X0349175Y0430122D01*
X0346419Y0430122D01*
X0346419Y0431244D02*
X0349175Y0431244D01*
X0349175Y0432366D02*
X0346419Y0432366D01*
X0353325Y0432878D02*
X0353325Y0430122D01*
X0353325Y0432878D02*
X0356081Y0432878D01*
X0356081Y0430122D01*
X0353325Y0430122D01*
X0353325Y0431244D02*
X0356081Y0431244D01*
X0356081Y0432366D02*
X0353325Y0432366D01*
X0353325Y0186878D02*
X0353325Y0184122D01*
X0353325Y0186878D02*
X0356081Y0186878D01*
X0356081Y0184122D01*
X0353325Y0184122D01*
X0353325Y0185244D02*
X0356081Y0185244D01*
X0356081Y0186366D02*
X0353325Y0186366D01*
X0346419Y0186878D02*
X0346419Y0184122D01*
X0346419Y0186878D02*
X0349175Y0186878D01*
X0349175Y0184122D01*
X0346419Y0184122D01*
X0346419Y0185244D02*
X0349175Y0185244D01*
X0349175Y0186366D02*
X0346419Y0186366D01*
X0255325Y0186878D02*
X0255325Y0184122D01*
X0255325Y0186878D02*
X0258081Y0186878D01*
X0258081Y0184122D01*
X0255325Y0184122D01*
X0255325Y0185244D02*
X0258081Y0185244D01*
X0258081Y0186366D02*
X0255325Y0186366D01*
X0248419Y0186878D02*
X0248419Y0184122D01*
X0248419Y0186878D02*
X0251175Y0186878D01*
X0251175Y0184122D01*
X0248419Y0184122D01*
X0248419Y0185244D02*
X0251175Y0185244D01*
X0251175Y0186366D02*
X0248419Y0186366D01*
X0248419Y0104878D02*
X0248419Y0102122D01*
X0248419Y0104878D02*
X0251175Y0104878D01*
X0251175Y0102122D01*
X0248419Y0102122D01*
X0248419Y0103244D02*
X0251175Y0103244D01*
X0251175Y0104366D02*
X0248419Y0104366D01*
X0255325Y0104878D02*
X0255325Y0102122D01*
X0255325Y0104878D02*
X0258081Y0104878D01*
X0258081Y0102122D01*
X0255325Y0102122D01*
X0255325Y0103244D02*
X0258081Y0103244D01*
X0258081Y0104366D02*
X0255325Y0104366D01*
X0346419Y0104878D02*
X0346419Y0102122D01*
X0346419Y0104878D02*
X0349175Y0104878D01*
X0349175Y0102122D01*
X0346419Y0102122D01*
X0346419Y0103244D02*
X0349175Y0103244D01*
X0349175Y0104366D02*
X0346419Y0104366D01*
X0353325Y0104878D02*
X0353325Y0102122D01*
X0353325Y0104878D02*
X0356081Y0104878D01*
X0356081Y0102122D01*
X0353325Y0102122D01*
X0353325Y0103244D02*
X0356081Y0103244D01*
X0356081Y0104366D02*
X0353325Y0104366D01*
X0057325Y0104862D02*
X0057325Y0102106D01*
X0057325Y0104862D02*
X0060081Y0104862D01*
X0060081Y0102106D01*
X0057325Y0102106D01*
X0057325Y0103228D02*
X0060081Y0103228D01*
X0060081Y0104350D02*
X0057325Y0104350D01*
X0050419Y0104862D02*
X0050419Y0102106D01*
X0050419Y0104862D02*
X0053175Y0104862D01*
X0053175Y0102106D01*
X0050419Y0102106D01*
X0050419Y0103228D02*
X0053175Y0103228D01*
X0053175Y0104350D02*
X0050419Y0104350D01*
X0050419Y0184106D02*
X0050419Y0186862D01*
X0053175Y0186862D01*
X0053175Y0184106D01*
X0050419Y0184106D01*
X0050419Y0185228D02*
X0053175Y0185228D01*
X0053175Y0186350D02*
X0050419Y0186350D01*
X0057325Y0186862D02*
X0057325Y0184106D01*
X0057325Y0186862D02*
X0060081Y0186862D01*
X0060081Y0184106D01*
X0057325Y0184106D01*
X0057325Y0185228D02*
X0060081Y0185228D01*
X0060081Y0186350D02*
X0057325Y0186350D01*
X0057325Y0266106D02*
X0057325Y0268862D01*
X0060081Y0268862D01*
X0060081Y0266106D01*
X0057325Y0266106D01*
X0057325Y0267228D02*
X0060081Y0267228D01*
X0060081Y0268350D02*
X0057325Y0268350D01*
X0050419Y0268862D02*
X0050419Y0266106D01*
X0050419Y0268862D02*
X0053175Y0268862D01*
X0053175Y0266106D01*
X0050419Y0266106D01*
X0050419Y0267228D02*
X0053175Y0267228D01*
X0053175Y0268350D02*
X0050419Y0268350D01*
X0050419Y0348106D02*
X0050419Y0350862D01*
X0053175Y0350862D01*
X0053175Y0348106D01*
X0050419Y0348106D01*
X0050419Y0349228D02*
X0053175Y0349228D01*
X0053175Y0350350D02*
X0050419Y0350350D01*
X0057325Y0350862D02*
X0057325Y0348106D01*
X0057325Y0350862D02*
X0060081Y0350862D01*
X0060081Y0348106D01*
X0057325Y0348106D01*
X0057325Y0349228D02*
X0060081Y0349228D01*
X0060081Y0350350D02*
X0057325Y0350350D01*
X0057325Y0430106D02*
X0057325Y0432862D01*
X0060081Y0432862D01*
X0060081Y0430106D01*
X0057325Y0430106D01*
X0057325Y0431228D02*
X0060081Y0431228D01*
X0060081Y0432350D02*
X0057325Y0432350D01*
X0050419Y0432862D02*
X0050419Y0430106D01*
X0050419Y0432862D02*
X0053175Y0432862D01*
X0053175Y0430106D01*
X0050419Y0430106D01*
X0050419Y0431228D02*
X0053175Y0431228D01*
X0053175Y0432350D02*
X0050419Y0432350D01*
D30*
X0354241Y0365400D03*
X0368059Y0365400D03*
X0368059Y0283400D03*
X0354241Y0283400D03*
X0354241Y0201400D03*
X0368059Y0201400D03*
X0368059Y0119400D03*
X0354241Y0119400D03*
X0354241Y0037400D03*
X0368059Y0037400D03*
M02*
