G75*
%MOIN*%
%OFA0B0*%
%FSLAX25Y25*%
%IPPOS*%
%LPD*%
%AMOC8*
5,1,8,0,0,1.08239X$1,22.5*
%
%ADD10R,0.21457X0.00472*%
%ADD11R,0.06811X0.00472*%
%ADD12R,0.02441X0.00472*%
%ADD13R,0.01929X0.00472*%
%ADD14R,0.08307X0.00472*%
%ADD15R,0.01969X0.00472*%
%ADD16R,0.06850X0.00472*%
%ADD17R,0.25354X0.00512*%
%ADD18R,0.11693X0.00512*%
%ADD19R,0.05866X0.00512*%
%ADD20R,0.06339X0.00512*%
%ADD21R,0.12165X0.00512*%
%ADD22R,0.06299X0.00512*%
%ADD23R,0.11220X0.00512*%
%ADD24R,0.26339X0.00472*%
%ADD25R,0.14606X0.00472*%
%ADD26R,0.07323X0.00472*%
%ADD27R,0.14646X0.00472*%
%ADD28R,0.26811X0.00472*%
%ADD29R,0.16102X0.00472*%
%ADD30R,0.07795X0.00472*%
%ADD31R,0.08268X0.00472*%
%ADD32R,0.16063X0.00472*%
%ADD33R,0.27283X0.00512*%
%ADD34R,0.17559X0.00512*%
%ADD35R,0.08307X0.00512*%
%ADD36R,0.08268X0.00512*%
%ADD37R,0.17047X0.00512*%
%ADD38R,0.27756X0.00472*%
%ADD39R,0.20000X0.00472*%
%ADD40R,0.08780X0.00472*%
%ADD41R,0.08740X0.00472*%
%ADD42R,0.19016X0.00472*%
%ADD43R,0.19528X0.00472*%
%ADD44R,0.27756X0.00512*%
%ADD45R,0.20945X0.00512*%
%ADD46R,0.08780X0.00512*%
%ADD47R,0.08740X0.00512*%
%ADD48R,0.20472X0.00512*%
%ADD49R,0.22402X0.00472*%
%ADD50R,0.21929X0.00472*%
%ADD51R,0.22913X0.00472*%
%ADD52R,0.23386X0.00472*%
%ADD53R,0.23898X0.00472*%
%ADD54R,0.24370X0.00512*%
%ADD55R,0.25354X0.00472*%
%ADD56R,0.24843X0.00472*%
%ADD57R,0.25827X0.00512*%
%ADD58R,0.25866X0.00512*%
%ADD59R,0.27283X0.00472*%
%ADD60R,0.26811X0.00512*%
%ADD61R,0.27323X0.00512*%
%ADD62R,0.28780X0.00472*%
%ADD63R,0.26299X0.00472*%
%ADD64R,0.29724X0.00472*%
%ADD65R,0.13622X0.00512*%
%ADD66R,0.12638X0.00512*%
%ADD67R,0.13189X0.00512*%
%ADD68R,0.13661X0.00512*%
%ADD69R,0.13150X0.00472*%
%ADD70R,0.12165X0.00472*%
%ADD71R,0.12677X0.00472*%
%ADD72R,0.13189X0.00472*%
%ADD73R,0.12205X0.00512*%
%ADD74R,0.05827X0.00512*%
%ADD75R,0.11693X0.00472*%
%ADD76R,0.04370X0.00472*%
%ADD77R,0.10748X0.00472*%
%ADD78R,0.10709X0.00472*%
%ADD79R,0.04409X0.00472*%
%ADD80R,0.02953X0.00472*%
%ADD81R,0.10236X0.00472*%
%ADD82R,0.02913X0.00472*%
%ADD83R,0.10236X0.00512*%
%ADD84R,0.01929X0.00512*%
%ADD85R,0.01457X0.00512*%
%ADD86R,0.09764X0.00472*%
%ADD87R,0.09724X0.00472*%
%ADD88R,0.09252X0.00472*%
%ADD89R,0.09252X0.00512*%
%ADD90R,0.09291X0.00512*%
%ADD91R,0.09764X0.00512*%
%ADD92R,0.09291X0.00472*%
%ADD93R,0.18976X0.00512*%
%ADD94R,0.20472X0.00472*%
%ADD95R,0.21417X0.00472*%
%ADD96R,0.21929X0.00512*%
%ADD97R,0.29724X0.00512*%
%ADD98R,0.22402X0.00512*%
%ADD99R,0.21417X0.00512*%
%ADD100R,0.20945X0.00472*%
%ADD101R,0.09724X0.00512*%
%ADD102R,0.00984X0.00472*%
%ADD103R,0.01457X0.00472*%
%ADD104R,0.10709X0.00512*%
%ADD105R,0.02953X0.00512*%
%ADD106R,0.02913X0.00512*%
%ADD107R,0.05354X0.00512*%
%ADD108R,0.11732X0.00472*%
%ADD109R,0.25827X0.00472*%
%ADD110R,0.13622X0.00472*%
%ADD111R,0.15118X0.00472*%
%ADD112R,0.26772X0.00472*%
%ADD113R,0.24882X0.00472*%
%ADD114R,0.23858X0.00512*%
%ADD115R,0.22913X0.00512*%
%ADD116R,0.23386X0.00512*%
%ADD117R,0.22441X0.00472*%
%ADD118R,0.19488X0.00512*%
%ADD119R,0.20000X0.00512*%
%ADD120R,0.18071X0.00472*%
%ADD121R,0.18504X0.00472*%
%ADD122R,0.18031X0.00472*%
%ADD123R,0.16575X0.00512*%
%ADD124R,0.07795X0.00512*%
%ADD125R,0.07323X0.00512*%
%ADD126R,0.16535X0.00512*%
%ADD127R,0.25866X0.00472*%
%ADD128R,0.15079X0.00472*%
%ADD129R,0.05866X0.00472*%
%ADD130R,0.06339X0.00472*%
%ADD131R,0.13661X0.00472*%
%ADD132R,0.06299X0.00472*%
%ADD133R,0.22874X0.00512*%
%ADD134R,0.03898X0.00512*%
%ADD135R,0.03386X0.00512*%
%ADD136R,0.04882X0.00472*%
%ADD137R,0.31260X0.00394*%
%ADD138R,0.22953X0.00394*%
%ADD139R,0.07165X0.00394*%
%ADD140R,0.01890X0.00394*%
%ADD141R,0.31969X0.00354*%
%ADD142R,0.23701X0.00354*%
%ADD143R,0.07874X0.00354*%
%ADD144R,0.02638X0.00354*%
%ADD145R,0.02598X0.00354*%
%ADD146R,0.35000X0.00394*%
%ADD147R,0.27126X0.00394*%
%ADD148R,0.11693X0.00394*%
%ADD149R,0.06378X0.00394*%
%ADD150R,0.35748X0.00354*%
%ADD151R,0.28228X0.00354*%
%ADD152R,0.13898X0.00354*%
%ADD153R,0.36142X0.00394*%
%ADD154R,0.28622X0.00394*%
%ADD155R,0.15827X0.00394*%
%ADD156R,0.07874X0.00394*%
%ADD157R,0.08268X0.00394*%
%ADD158R,0.36535X0.00394*%
%ADD159R,0.28976X0.00394*%
%ADD160R,0.17323X0.00394*%
%ADD161R,0.08661X0.00394*%
%ADD162R,0.36535X0.00354*%
%ADD163R,0.29724X0.00354*%
%ADD164R,0.18819X0.00354*%
%ADD165R,0.09055X0.00354*%
%ADD166R,0.09016X0.00354*%
%ADD167R,0.29724X0.00394*%
%ADD168R,0.19961X0.00394*%
%ADD169R,0.09055X0.00394*%
%ADD170R,0.09016X0.00394*%
%ADD171R,0.21811X0.00354*%
%ADD172R,0.36890X0.00394*%
%ADD173R,0.22598X0.00394*%
%ADD174R,0.09409X0.00394*%
%ADD175R,0.36890X0.00354*%
%ADD176R,0.09409X0.00354*%
%ADD177R,0.09370X0.00354*%
%ADD178R,0.30079X0.00394*%
%ADD179R,0.24488X0.00394*%
%ADD180R,0.09370X0.00394*%
%ADD181R,0.25591X0.00394*%
%ADD182R,0.30079X0.00354*%
%ADD183R,0.26339X0.00354*%
%ADD184R,0.27087X0.00394*%
%ADD185R,0.27441X0.00354*%
%ADD186R,0.27835X0.00394*%
%ADD187R,0.36142X0.00354*%
%ADD188R,0.35748X0.00394*%
%ADD189R,0.28583X0.00394*%
%ADD190R,0.35000X0.00354*%
%ADD191R,0.28976X0.00354*%
%ADD192R,0.32362X0.00394*%
%ADD193R,0.29370X0.00354*%
%ADD194R,0.29331X0.00394*%
%ADD195R,0.28583X0.00354*%
%ADD196R,0.15433X0.00394*%
%ADD197R,0.10157X0.00394*%
%ADD198R,0.09764X0.00354*%
%ADD199R,0.14291X0.00354*%
%ADD200R,0.08268X0.00354*%
%ADD201R,0.13543X0.00394*%
%ADD202R,0.06772X0.00394*%
%ADD203R,0.12795X0.00354*%
%ADD204R,0.05630X0.00354*%
%ADD205R,0.12047X0.00394*%
%ADD206R,0.04882X0.00394*%
%ADD207R,0.04134X0.00394*%
%ADD208R,0.11299X0.00354*%
%ADD209R,0.10945X0.00394*%
%ADD210R,0.00394X0.00394*%
%ADD211R,0.10906X0.00354*%
%ADD212R,0.10551X0.00394*%
%ADD213R,0.10551X0.00354*%
%ADD214R,0.10157X0.00354*%
%ADD215R,0.09764X0.00394*%
%ADD216R,0.21417X0.00394*%
%ADD217R,0.22953X0.00354*%
%ADD218R,0.23307X0.00394*%
%ADD219R,0.09803X0.00394*%
%ADD220R,0.32362X0.00354*%
%ADD221R,0.24055X0.00394*%
%ADD222R,0.24055X0.00354*%
%ADD223R,0.24449X0.00394*%
%ADD224R,0.24449X0.00354*%
%ADD225R,0.24803X0.00354*%
%ADD226R,0.24803X0.00394*%
%ADD227R,0.23701X0.00394*%
%ADD228R,0.23307X0.00354*%
%ADD229R,0.09803X0.00354*%
%ADD230R,0.22205X0.00394*%
%ADD231R,0.11299X0.00394*%
%ADD232R,0.03780X0.00394*%
%ADD233R,0.11654X0.00354*%
%ADD234R,0.04882X0.00354*%
%ADD235R,0.12402X0.00394*%
%ADD236R,0.05630X0.00394*%
%ADD237R,0.13150X0.00354*%
%ADD238R,0.06772X0.00354*%
%ADD239R,0.13189X0.00394*%
%ADD240R,0.07520X0.00394*%
%ADD241R,0.26693X0.00354*%
%ADD242R,0.28622X0.00354*%
%ADD243R,0.28228X0.00394*%
%ADD244R,0.27835X0.00354*%
%ADD245R,0.27441X0.00394*%
%ADD246R,0.24843X0.00354*%
%ADD247R,0.21811X0.00394*%
%ADD248R,0.08661X0.00354*%
%ADD249R,0.19921X0.00354*%
%ADD250R,0.19213X0.00394*%
%ADD251R,0.29370X0.00394*%
%ADD252R,0.17677X0.00394*%
%ADD253R,0.16181X0.00354*%
%ADD254R,0.14291X0.00394*%
%ADD255R,0.06378X0.00354*%
%ADD256R,0.27480X0.00354*%
%ADD257R,0.24843X0.00394*%
D10*
X0282667Y0055350D03*
X0347982Y0055350D03*
X0382116Y0087516D03*
X0347982Y0137350D03*
X0382116Y0169516D03*
X0347982Y0219350D03*
X0382116Y0251516D03*
X0347982Y0301350D03*
X0382116Y0333516D03*
X0347982Y0383350D03*
X0382116Y0415516D03*
X0282667Y0383350D03*
X0282667Y0301350D03*
X0282667Y0219350D03*
X0282667Y0137350D03*
D11*
X0328494Y0135382D03*
X0328494Y0168531D03*
X0347982Y0169516D03*
X0328494Y0217382D03*
X0328494Y0250531D03*
X0347982Y0251516D03*
X0328494Y0299382D03*
X0328494Y0332531D03*
X0347982Y0333516D03*
X0328494Y0381382D03*
X0328494Y0414531D03*
X0347982Y0415516D03*
X0225148Y0389177D03*
X0225148Y0307177D03*
X0225148Y0225177D03*
X0225148Y0143177D03*
X0225148Y0061177D03*
X0328494Y0053382D03*
X0328494Y0086531D03*
X0347982Y0087516D03*
D12*
X0328750Y0087516D03*
X0328750Y0169516D03*
X0328750Y0251516D03*
X0328750Y0333516D03*
X0328750Y0415516D03*
D13*
X0307037Y0415516D03*
X0307037Y0333516D03*
X0307037Y0251516D03*
X0307037Y0169516D03*
X0307037Y0087516D03*
D14*
X0282431Y0087516D03*
X0328730Y0054366D03*
X0328730Y0136366D03*
X0282431Y0169516D03*
X0328730Y0218366D03*
X0282431Y0251516D03*
X0328730Y0300366D03*
X0282431Y0333516D03*
X0328730Y0382366D03*
X0282431Y0415516D03*
D15*
X0257805Y0415516D03*
X0257805Y0333516D03*
X0257805Y0251516D03*
X0257805Y0169516D03*
X0257805Y0087516D03*
D16*
X0231978Y0087516D03*
X0231978Y0169516D03*
X0231978Y0251516D03*
X0231978Y0333516D03*
X0231978Y0415516D03*
D17*
X0382608Y0415024D03*
X0382608Y0333024D03*
X0382608Y0251024D03*
X0382608Y0169024D03*
X0382608Y0087024D03*
D18*
X0347982Y0087024D03*
X0292431Y0078244D03*
X0272431Y0078244D03*
X0242707Y0078244D03*
X0242707Y0160244D03*
X0272431Y0160244D03*
X0292431Y0160244D03*
X0347982Y0169024D03*
X0292431Y0242244D03*
X0272431Y0242244D03*
X0242707Y0242244D03*
X0242707Y0324244D03*
X0272431Y0324244D03*
X0292431Y0324244D03*
X0347982Y0333024D03*
X0292431Y0406244D03*
X0272431Y0406244D03*
X0242707Y0406244D03*
X0347982Y0415024D03*
X0347982Y0251024D03*
D19*
X0328494Y0251024D03*
X0328494Y0169024D03*
X0328494Y0087024D03*
X0224675Y0078244D03*
X0224675Y0160244D03*
X0224675Y0242244D03*
X0224675Y0324244D03*
X0224675Y0406244D03*
X0328494Y0415024D03*
X0328494Y0333024D03*
D20*
X0307274Y0333024D03*
X0307274Y0415024D03*
X0307274Y0251024D03*
X0307274Y0169024D03*
X0307274Y0087024D03*
D21*
X0282431Y0087024D03*
X0282431Y0169024D03*
X0282431Y0251024D03*
X0282431Y0333024D03*
X0282431Y0415024D03*
D22*
X0257569Y0415024D03*
X0257569Y0333024D03*
X0257569Y0251024D03*
X0257569Y0169024D03*
X0257569Y0087024D03*
D23*
X0232234Y0087024D03*
X0242470Y0061669D03*
X0272195Y0061669D03*
X0292667Y0061669D03*
X0358455Y0061669D03*
X0358455Y0143669D03*
X0292667Y0143669D03*
X0272195Y0143669D03*
X0242470Y0143669D03*
X0232234Y0169024D03*
X0242470Y0225669D03*
X0232234Y0251024D03*
X0272195Y0225669D03*
X0292667Y0225669D03*
X0358455Y0225669D03*
X0358455Y0307669D03*
X0292667Y0307669D03*
X0272195Y0307669D03*
X0242470Y0307669D03*
X0232234Y0333024D03*
X0242470Y0389669D03*
X0232234Y0415024D03*
X0272195Y0389669D03*
X0292667Y0389669D03*
X0358455Y0389669D03*
D24*
X0348967Y0386264D03*
X0348967Y0409650D03*
X0382589Y0414531D03*
X0382589Y0332531D03*
X0348967Y0327650D03*
X0348967Y0304264D03*
X0382589Y0250531D03*
X0348967Y0245650D03*
X0348967Y0222264D03*
X0382589Y0168531D03*
X0348967Y0163650D03*
X0348967Y0140264D03*
X0382589Y0086531D03*
X0348967Y0081650D03*
X0348967Y0058264D03*
X0233927Y0059248D03*
X0232943Y0058264D03*
X0232943Y0081650D03*
X0232943Y0140264D03*
X0233927Y0141248D03*
X0232943Y0163650D03*
X0232943Y0222264D03*
X0233927Y0223248D03*
X0232943Y0245650D03*
X0232943Y0304264D03*
X0233927Y0305248D03*
X0232943Y0327650D03*
X0232943Y0386264D03*
X0233927Y0387248D03*
X0232943Y0409650D03*
D25*
X0282667Y0414531D03*
X0347982Y0414531D03*
X0347982Y0381382D03*
X0347982Y0332531D03*
X0347982Y0299382D03*
X0347982Y0250531D03*
X0347982Y0217382D03*
X0347982Y0168531D03*
X0347982Y0135382D03*
X0347982Y0086531D03*
X0347982Y0053382D03*
X0282667Y0086531D03*
X0282667Y0168531D03*
X0282667Y0250531D03*
X0282667Y0332531D03*
D26*
X0307293Y0332531D03*
X0340915Y0307177D03*
X0307293Y0299382D03*
X0257569Y0299382D03*
X0257569Y0332531D03*
X0257569Y0381382D03*
X0257569Y0414531D03*
X0307293Y0414531D03*
X0340915Y0389177D03*
X0307293Y0381382D03*
X0307293Y0250531D03*
X0340915Y0225177D03*
X0307293Y0217382D03*
X0307293Y0168531D03*
X0340915Y0143177D03*
X0307293Y0135382D03*
X0257569Y0135382D03*
X0257569Y0168531D03*
X0257569Y0217382D03*
X0257569Y0250531D03*
X0257569Y0086531D03*
X0257569Y0053382D03*
X0307293Y0053382D03*
X0340915Y0061177D03*
X0307293Y0086531D03*
D27*
X0356270Y0060705D03*
X0356270Y0142705D03*
X0356270Y0224705D03*
X0356270Y0306705D03*
X0356270Y0388705D03*
X0231978Y0381382D03*
X0231978Y0414531D03*
X0231978Y0332531D03*
X0231978Y0299382D03*
X0231978Y0250531D03*
X0231978Y0217382D03*
X0231978Y0168531D03*
X0231978Y0135382D03*
X0231978Y0086531D03*
X0231978Y0053382D03*
D28*
X0233691Y0059720D03*
X0233691Y0080193D03*
X0233179Y0081177D03*
X0282431Y0081650D03*
X0282431Y0058264D03*
X0349203Y0081177D03*
X0382352Y0086059D03*
X0382825Y0059720D03*
X0382825Y0059248D03*
X0382825Y0141248D03*
X0382825Y0141720D03*
X0382352Y0168059D03*
X0349203Y0163177D03*
X0282431Y0163650D03*
X0282431Y0140264D03*
X0233691Y0141720D03*
X0233691Y0162193D03*
X0233179Y0163177D03*
X0282431Y0222264D03*
X0282431Y0245650D03*
X0233691Y0244193D03*
X0233179Y0245177D03*
X0233691Y0223720D03*
X0233691Y0305720D03*
X0233691Y0326193D03*
X0233179Y0327177D03*
X0282431Y0327650D03*
X0282431Y0304264D03*
X0349203Y0327177D03*
X0382352Y0332059D03*
X0382825Y0305720D03*
X0382825Y0305248D03*
X0382352Y0250059D03*
X0382825Y0223720D03*
X0382825Y0223248D03*
X0349203Y0245177D03*
X0382825Y0387248D03*
X0382825Y0387720D03*
X0382352Y0414059D03*
X0349203Y0409177D03*
X0282431Y0409650D03*
X0282431Y0386264D03*
X0233691Y0387720D03*
X0233691Y0408193D03*
X0233179Y0409177D03*
D29*
X0282431Y0414059D03*
X0347746Y0414059D03*
X0347746Y0332059D03*
X0282431Y0332059D03*
X0282431Y0250059D03*
X0347746Y0250059D03*
X0347746Y0168059D03*
X0282431Y0168059D03*
X0282431Y0086059D03*
X0347746Y0086059D03*
D30*
X0341152Y0078736D03*
X0328474Y0086059D03*
X0307057Y0086059D03*
X0341152Y0160736D03*
X0328474Y0168059D03*
X0307057Y0168059D03*
X0341152Y0242736D03*
X0328474Y0250059D03*
X0307057Y0250059D03*
X0341152Y0324736D03*
X0328474Y0332059D03*
X0307057Y0332059D03*
X0341152Y0406736D03*
X0328474Y0414059D03*
X0307057Y0414059D03*
X0225167Y0406736D03*
X0225167Y0324736D03*
X0225167Y0242736D03*
X0225167Y0160736D03*
X0225167Y0078736D03*
D31*
X0245876Y0071413D03*
X0257569Y0071413D03*
X0257569Y0070941D03*
X0257569Y0069957D03*
X0257569Y0069484D03*
X0257569Y0068500D03*
X0257569Y0067516D03*
X0257569Y0067043D03*
X0257569Y0066059D03*
X0257569Y0065587D03*
X0257569Y0064602D03*
X0257569Y0063618D03*
X0257569Y0063146D03*
X0257569Y0062161D03*
X0257569Y0061177D03*
X0257569Y0060705D03*
X0257569Y0059720D03*
X0257569Y0059248D03*
X0257569Y0058264D03*
X0257569Y0057280D03*
X0257569Y0056807D03*
X0257569Y0055823D03*
X0257569Y0055350D03*
X0257569Y0054366D03*
X0269262Y0068500D03*
X0269262Y0069484D03*
X0269262Y0069957D03*
X0269262Y0070941D03*
X0269262Y0071413D03*
X0257569Y0072398D03*
X0257569Y0073382D03*
X0257569Y0073854D03*
X0257569Y0074839D03*
X0257569Y0075823D03*
X0257569Y0076295D03*
X0257569Y0077280D03*
X0257569Y0077752D03*
X0257569Y0078736D03*
X0257569Y0079720D03*
X0257569Y0080193D03*
X0257569Y0081177D03*
X0257569Y0081650D03*
X0257569Y0082634D03*
X0257569Y0083618D03*
X0257569Y0084091D03*
X0257569Y0085075D03*
X0257569Y0086059D03*
X0307293Y0054366D03*
X0307293Y0136366D03*
X0269262Y0150500D03*
X0269262Y0151484D03*
X0269262Y0151957D03*
X0269262Y0152941D03*
X0269262Y0153413D03*
X0257569Y0153413D03*
X0257569Y0152941D03*
X0257569Y0151957D03*
X0257569Y0151484D03*
X0257569Y0150500D03*
X0257569Y0149516D03*
X0257569Y0149043D03*
X0257569Y0148059D03*
X0257569Y0147587D03*
X0257569Y0146602D03*
X0257569Y0145618D03*
X0257569Y0145146D03*
X0257569Y0144161D03*
X0257569Y0143177D03*
X0257569Y0142705D03*
X0257569Y0141720D03*
X0257569Y0141248D03*
X0257569Y0140264D03*
X0257569Y0139280D03*
X0257569Y0138807D03*
X0257569Y0137823D03*
X0257569Y0137350D03*
X0257569Y0136366D03*
X0245876Y0153413D03*
X0257569Y0154398D03*
X0257569Y0155382D03*
X0257569Y0155854D03*
X0257569Y0156839D03*
X0257569Y0157823D03*
X0257569Y0158295D03*
X0257569Y0159280D03*
X0257569Y0159752D03*
X0257569Y0160736D03*
X0257569Y0161720D03*
X0257569Y0162193D03*
X0257569Y0163177D03*
X0257569Y0163650D03*
X0257569Y0164634D03*
X0257569Y0165618D03*
X0257569Y0166091D03*
X0257569Y0167075D03*
X0257569Y0168059D03*
X0257569Y0218366D03*
X0257569Y0219350D03*
X0257569Y0219823D03*
X0257569Y0220807D03*
X0257569Y0221280D03*
X0257569Y0222264D03*
X0257569Y0223248D03*
X0257569Y0223720D03*
X0257569Y0224705D03*
X0257569Y0225177D03*
X0257569Y0226161D03*
X0257569Y0227146D03*
X0257569Y0227618D03*
X0257569Y0228602D03*
X0257569Y0229587D03*
X0257569Y0230059D03*
X0257569Y0231043D03*
X0257569Y0231516D03*
X0257569Y0232500D03*
X0257569Y0233484D03*
X0257569Y0233957D03*
X0257569Y0234941D03*
X0257569Y0235413D03*
X0257569Y0236398D03*
X0257569Y0237382D03*
X0257569Y0237854D03*
X0257569Y0238839D03*
X0257569Y0239823D03*
X0257569Y0240295D03*
X0257569Y0241280D03*
X0257569Y0241752D03*
X0257569Y0242736D03*
X0257569Y0243720D03*
X0257569Y0244193D03*
X0257569Y0245177D03*
X0257569Y0245650D03*
X0257569Y0246634D03*
X0257569Y0247618D03*
X0257569Y0248091D03*
X0257569Y0249075D03*
X0257569Y0250059D03*
X0269262Y0235413D03*
X0269262Y0234941D03*
X0269262Y0233957D03*
X0269262Y0233484D03*
X0269262Y0232500D03*
X0245876Y0235413D03*
X0307293Y0218366D03*
X0307293Y0300366D03*
X0269262Y0314500D03*
X0269262Y0315484D03*
X0269262Y0315957D03*
X0269262Y0316941D03*
X0269262Y0317413D03*
X0257569Y0317413D03*
X0257569Y0316941D03*
X0257569Y0315957D03*
X0257569Y0315484D03*
X0257569Y0314500D03*
X0257569Y0313516D03*
X0257569Y0313043D03*
X0257569Y0312059D03*
X0257569Y0311587D03*
X0257569Y0310602D03*
X0257569Y0309618D03*
X0257569Y0309146D03*
X0257569Y0308161D03*
X0257569Y0307177D03*
X0257569Y0306705D03*
X0257569Y0305720D03*
X0257569Y0305248D03*
X0257569Y0304264D03*
X0257569Y0303280D03*
X0257569Y0302807D03*
X0257569Y0301823D03*
X0257569Y0301350D03*
X0257569Y0300366D03*
X0257569Y0318398D03*
X0257569Y0319382D03*
X0257569Y0319854D03*
X0257569Y0320839D03*
X0257569Y0321823D03*
X0257569Y0322295D03*
X0257569Y0323280D03*
X0257569Y0323752D03*
X0257569Y0324736D03*
X0257569Y0325720D03*
X0257569Y0326193D03*
X0257569Y0327177D03*
X0257569Y0327650D03*
X0257569Y0328634D03*
X0257569Y0329618D03*
X0257569Y0330091D03*
X0257569Y0331075D03*
X0257569Y0332059D03*
X0245876Y0317413D03*
X0257569Y0382366D03*
X0257569Y0383350D03*
X0257569Y0383823D03*
X0257569Y0384807D03*
X0257569Y0385280D03*
X0257569Y0386264D03*
X0257569Y0387248D03*
X0257569Y0387720D03*
X0257569Y0388705D03*
X0257569Y0389177D03*
X0257569Y0390161D03*
X0257569Y0391146D03*
X0257569Y0391618D03*
X0257569Y0392602D03*
X0257569Y0393587D03*
X0257569Y0394059D03*
X0257569Y0395043D03*
X0257569Y0395516D03*
X0257569Y0396500D03*
X0257569Y0397484D03*
X0257569Y0397957D03*
X0257569Y0398941D03*
X0257569Y0399413D03*
X0257569Y0400398D03*
X0257569Y0401382D03*
X0257569Y0401854D03*
X0257569Y0402839D03*
X0257569Y0403823D03*
X0257569Y0404295D03*
X0257569Y0405280D03*
X0257569Y0405752D03*
X0257569Y0406736D03*
X0257569Y0407720D03*
X0257569Y0408193D03*
X0257569Y0409177D03*
X0257569Y0409650D03*
X0257569Y0410634D03*
X0257569Y0411618D03*
X0257569Y0412091D03*
X0257569Y0413075D03*
X0257569Y0414059D03*
X0269262Y0399413D03*
X0269262Y0398941D03*
X0269262Y0397957D03*
X0269262Y0397484D03*
X0269262Y0396500D03*
X0245876Y0399413D03*
X0307293Y0382366D03*
D32*
X0231742Y0414059D03*
X0231742Y0332059D03*
X0231742Y0250059D03*
X0231742Y0168059D03*
X0231742Y0086059D03*
D33*
X0349439Y0080685D03*
X0382116Y0085567D03*
X0382589Y0058756D03*
X0382589Y0140756D03*
X0382116Y0167567D03*
X0349439Y0162685D03*
X0382589Y0222756D03*
X0382116Y0249567D03*
X0349439Y0244685D03*
X0382589Y0304756D03*
X0382116Y0331567D03*
X0349439Y0326685D03*
X0382589Y0386756D03*
X0382116Y0413567D03*
X0349439Y0408685D03*
D34*
X0348002Y0413567D03*
X0282175Y0413567D03*
X0282175Y0331567D03*
X0348002Y0331567D03*
X0348002Y0249567D03*
X0282175Y0249567D03*
X0282175Y0167567D03*
X0348002Y0167567D03*
X0348002Y0085567D03*
X0282175Y0085567D03*
D35*
X0295108Y0072890D03*
X0295108Y0066551D03*
X0328730Y0085567D03*
X0295108Y0148551D03*
X0295108Y0154890D03*
X0328730Y0167567D03*
X0295108Y0230551D03*
X0295108Y0236890D03*
X0328730Y0249567D03*
X0295108Y0312551D03*
X0295108Y0318890D03*
X0328730Y0331567D03*
X0295108Y0394551D03*
X0295108Y0400890D03*
X0328730Y0413567D03*
D36*
X0307293Y0413567D03*
X0307293Y0382858D03*
X0269262Y0396008D03*
X0269262Y0396992D03*
X0269262Y0398449D03*
X0269262Y0399906D03*
X0257569Y0399906D03*
X0257569Y0400890D03*
X0257569Y0402346D03*
X0257569Y0403331D03*
X0257569Y0404787D03*
X0257569Y0406244D03*
X0257569Y0407228D03*
X0257569Y0408685D03*
X0257569Y0410142D03*
X0257569Y0411126D03*
X0257569Y0412583D03*
X0257569Y0413567D03*
X0245876Y0399906D03*
X0257569Y0398449D03*
X0257569Y0396992D03*
X0257569Y0396008D03*
X0257569Y0394551D03*
X0257569Y0393094D03*
X0257569Y0392110D03*
X0257569Y0390654D03*
X0257569Y0389669D03*
X0257569Y0388213D03*
X0257569Y0386756D03*
X0257569Y0385772D03*
X0257569Y0384315D03*
X0257569Y0382858D03*
X0257569Y0331567D03*
X0257569Y0330583D03*
X0257569Y0329126D03*
X0257569Y0328142D03*
X0257569Y0326685D03*
X0257569Y0325228D03*
X0257569Y0324244D03*
X0257569Y0322787D03*
X0257569Y0321331D03*
X0257569Y0320346D03*
X0257569Y0318890D03*
X0257569Y0317906D03*
X0257569Y0316449D03*
X0257569Y0314992D03*
X0257569Y0314008D03*
X0257569Y0312551D03*
X0257569Y0311094D03*
X0257569Y0310110D03*
X0257569Y0308654D03*
X0257569Y0307669D03*
X0257569Y0306213D03*
X0257569Y0304756D03*
X0257569Y0303772D03*
X0257569Y0302315D03*
X0257569Y0300858D03*
X0269262Y0314008D03*
X0269262Y0314992D03*
X0269262Y0316449D03*
X0269262Y0317906D03*
X0245876Y0317906D03*
X0307293Y0331567D03*
X0307293Y0300858D03*
X0307293Y0249567D03*
X0307293Y0218858D03*
X0269262Y0232008D03*
X0269262Y0232992D03*
X0269262Y0234449D03*
X0269262Y0235906D03*
X0257569Y0235906D03*
X0257569Y0236890D03*
X0257569Y0238346D03*
X0257569Y0239331D03*
X0257569Y0240787D03*
X0257569Y0242244D03*
X0257569Y0243228D03*
X0257569Y0244685D03*
X0257569Y0246142D03*
X0257569Y0247126D03*
X0257569Y0248583D03*
X0257569Y0249567D03*
X0257569Y0234449D03*
X0257569Y0232992D03*
X0257569Y0232008D03*
X0257569Y0230551D03*
X0257569Y0229094D03*
X0257569Y0228110D03*
X0257569Y0226654D03*
X0257569Y0225669D03*
X0257569Y0224213D03*
X0257569Y0222756D03*
X0257569Y0221772D03*
X0257569Y0220315D03*
X0257569Y0218858D03*
X0245876Y0235906D03*
X0257569Y0167567D03*
X0257569Y0166583D03*
X0257569Y0165126D03*
X0257569Y0164142D03*
X0257569Y0162685D03*
X0257569Y0161228D03*
X0257569Y0160244D03*
X0257569Y0158787D03*
X0257569Y0157331D03*
X0257569Y0156346D03*
X0257569Y0154890D03*
X0257569Y0153906D03*
X0257569Y0152449D03*
X0257569Y0150992D03*
X0257569Y0150008D03*
X0257569Y0148551D03*
X0257569Y0147094D03*
X0257569Y0146110D03*
X0257569Y0144654D03*
X0257569Y0143669D03*
X0257569Y0142213D03*
X0257569Y0140756D03*
X0257569Y0139772D03*
X0257569Y0138315D03*
X0257569Y0136858D03*
X0269262Y0150008D03*
X0269262Y0150992D03*
X0269262Y0152449D03*
X0269262Y0153906D03*
X0245876Y0153906D03*
X0307293Y0167567D03*
X0307293Y0136858D03*
X0307293Y0085567D03*
X0307293Y0054858D03*
X0269262Y0068008D03*
X0269262Y0068992D03*
X0269262Y0070449D03*
X0269262Y0071906D03*
X0257569Y0071906D03*
X0257569Y0072890D03*
X0257569Y0074346D03*
X0257569Y0075331D03*
X0257569Y0076787D03*
X0257569Y0078244D03*
X0257569Y0079228D03*
X0257569Y0080685D03*
X0257569Y0082142D03*
X0257569Y0083126D03*
X0257569Y0084583D03*
X0257569Y0085567D03*
X0257569Y0070449D03*
X0257569Y0068992D03*
X0257569Y0068008D03*
X0257569Y0066551D03*
X0257569Y0065094D03*
X0257569Y0064110D03*
X0257569Y0062654D03*
X0257569Y0061669D03*
X0257569Y0060213D03*
X0257569Y0058756D03*
X0257569Y0057772D03*
X0257569Y0056315D03*
X0257569Y0054858D03*
X0245876Y0071906D03*
D37*
X0232234Y0085567D03*
X0282431Y0053874D03*
X0282431Y0135874D03*
X0232234Y0167567D03*
X0282431Y0217874D03*
X0232234Y0249567D03*
X0282431Y0299874D03*
X0232234Y0331567D03*
X0282431Y0381874D03*
X0232234Y0413567D03*
D38*
X0282431Y0409177D03*
X0282431Y0327177D03*
X0282431Y0245177D03*
X0282431Y0163177D03*
X0282431Y0081177D03*
X0382352Y0081650D03*
X0382352Y0082634D03*
X0382352Y0083618D03*
X0382352Y0084091D03*
X0382352Y0085075D03*
X0382352Y0058264D03*
X0382352Y0057280D03*
X0382352Y0056807D03*
X0382352Y0055823D03*
X0382352Y0055350D03*
X0382352Y0137350D03*
X0382352Y0137823D03*
X0382352Y0138807D03*
X0382352Y0139280D03*
X0382352Y0140264D03*
X0382352Y0163650D03*
X0382352Y0164634D03*
X0382352Y0165618D03*
X0382352Y0166091D03*
X0382352Y0167075D03*
X0382352Y0219350D03*
X0382352Y0219823D03*
X0382352Y0220807D03*
X0382352Y0221280D03*
X0382352Y0222264D03*
X0382352Y0245650D03*
X0382352Y0246634D03*
X0382352Y0247618D03*
X0382352Y0248091D03*
X0382352Y0249075D03*
X0382352Y0301350D03*
X0382352Y0301823D03*
X0382352Y0302807D03*
X0382352Y0303280D03*
X0382352Y0304264D03*
X0382352Y0327650D03*
X0382352Y0328634D03*
X0382352Y0329618D03*
X0382352Y0330091D03*
X0382352Y0331075D03*
X0382352Y0383350D03*
X0382352Y0383823D03*
X0382352Y0384807D03*
X0382352Y0385280D03*
X0382352Y0386264D03*
X0382352Y0409650D03*
X0382352Y0410634D03*
X0382352Y0411618D03*
X0382352Y0412091D03*
X0382352Y0413075D03*
D39*
X0348238Y0413075D03*
X0348238Y0331075D03*
X0348238Y0249075D03*
X0348238Y0167075D03*
X0348238Y0085075D03*
D40*
X0361644Y0072398D03*
X0361644Y0071413D03*
X0361644Y0070941D03*
X0361644Y0069957D03*
X0361644Y0069484D03*
X0361644Y0068500D03*
X0361644Y0067516D03*
X0361644Y0067043D03*
X0328494Y0066059D03*
X0328494Y0065587D03*
X0328494Y0064602D03*
X0328494Y0063618D03*
X0328494Y0063146D03*
X0328494Y0062161D03*
X0328494Y0061177D03*
X0328494Y0060705D03*
X0328494Y0059720D03*
X0328494Y0059248D03*
X0328494Y0058264D03*
X0328494Y0057280D03*
X0328494Y0056807D03*
X0328494Y0055823D03*
X0328494Y0055350D03*
X0328494Y0073854D03*
X0328494Y0074839D03*
X0328494Y0075823D03*
X0328494Y0076295D03*
X0328494Y0077280D03*
X0328494Y0077752D03*
X0328494Y0078736D03*
X0328494Y0079720D03*
X0328494Y0080193D03*
X0328494Y0081177D03*
X0328494Y0081650D03*
X0328494Y0082634D03*
X0328494Y0083618D03*
X0328494Y0084091D03*
X0328494Y0085075D03*
X0295344Y0073382D03*
X0294872Y0073854D03*
X0295344Y0072398D03*
X0295817Y0071413D03*
X0295817Y0070941D03*
X0295817Y0069957D03*
X0295817Y0069484D03*
X0295817Y0068500D03*
X0295344Y0067043D03*
X0295344Y0066059D03*
X0269990Y0066059D03*
X0269990Y0065587D03*
X0269518Y0067043D03*
X0269518Y0067516D03*
X0269518Y0072398D03*
X0269990Y0073854D03*
X0245620Y0072398D03*
X0245620Y0070941D03*
X0245620Y0069957D03*
X0245620Y0069484D03*
X0245620Y0068500D03*
X0245620Y0067516D03*
X0245620Y0067043D03*
X0245148Y0066059D03*
X0245148Y0065587D03*
X0328494Y0137350D03*
X0328494Y0137823D03*
X0328494Y0138807D03*
X0328494Y0139280D03*
X0328494Y0140264D03*
X0328494Y0141248D03*
X0328494Y0141720D03*
X0328494Y0142705D03*
X0328494Y0143177D03*
X0328494Y0144161D03*
X0328494Y0145146D03*
X0328494Y0145618D03*
X0328494Y0146602D03*
X0328494Y0147587D03*
X0328494Y0148059D03*
X0328494Y0155854D03*
X0328494Y0156839D03*
X0328494Y0157823D03*
X0328494Y0158295D03*
X0328494Y0159280D03*
X0328494Y0159752D03*
X0328494Y0160736D03*
X0328494Y0161720D03*
X0328494Y0162193D03*
X0328494Y0163177D03*
X0328494Y0163650D03*
X0328494Y0164634D03*
X0328494Y0165618D03*
X0328494Y0166091D03*
X0328494Y0167075D03*
X0361644Y0154398D03*
X0361644Y0153413D03*
X0361644Y0152941D03*
X0361644Y0151957D03*
X0361644Y0151484D03*
X0361644Y0150500D03*
X0361644Y0149516D03*
X0361644Y0149043D03*
X0295817Y0150500D03*
X0295817Y0151484D03*
X0295817Y0151957D03*
X0295817Y0152941D03*
X0295817Y0153413D03*
X0295344Y0154398D03*
X0295344Y0155382D03*
X0294872Y0155854D03*
X0295344Y0149043D03*
X0295344Y0148059D03*
X0269990Y0148059D03*
X0269990Y0147587D03*
X0269518Y0149043D03*
X0269518Y0149516D03*
X0269518Y0154398D03*
X0269990Y0155854D03*
X0245620Y0154398D03*
X0245620Y0152941D03*
X0245620Y0151957D03*
X0245620Y0151484D03*
X0245620Y0150500D03*
X0245620Y0149516D03*
X0245620Y0149043D03*
X0245148Y0148059D03*
X0245148Y0147587D03*
X0328494Y0219350D03*
X0328494Y0219823D03*
X0328494Y0220807D03*
X0328494Y0221280D03*
X0328494Y0222264D03*
X0328494Y0223248D03*
X0328494Y0223720D03*
X0328494Y0224705D03*
X0328494Y0225177D03*
X0328494Y0226161D03*
X0328494Y0227146D03*
X0328494Y0227618D03*
X0328494Y0228602D03*
X0328494Y0229587D03*
X0328494Y0230059D03*
X0328494Y0237854D03*
X0328494Y0238839D03*
X0328494Y0239823D03*
X0328494Y0240295D03*
X0328494Y0241280D03*
X0328494Y0241752D03*
X0328494Y0242736D03*
X0328494Y0243720D03*
X0328494Y0244193D03*
X0328494Y0245177D03*
X0328494Y0245650D03*
X0328494Y0246634D03*
X0328494Y0247618D03*
X0328494Y0248091D03*
X0328494Y0249075D03*
X0361644Y0236398D03*
X0361644Y0235413D03*
X0361644Y0234941D03*
X0361644Y0233957D03*
X0361644Y0233484D03*
X0361644Y0232500D03*
X0361644Y0231516D03*
X0361644Y0231043D03*
X0295817Y0232500D03*
X0295817Y0233484D03*
X0295817Y0233957D03*
X0295817Y0234941D03*
X0295817Y0235413D03*
X0295344Y0236398D03*
X0295344Y0237382D03*
X0294872Y0237854D03*
X0295344Y0231043D03*
X0295344Y0230059D03*
X0269990Y0230059D03*
X0269990Y0229587D03*
X0269518Y0231043D03*
X0269518Y0231516D03*
X0269518Y0236398D03*
X0269990Y0237854D03*
X0245620Y0236398D03*
X0245620Y0234941D03*
X0245620Y0233957D03*
X0245620Y0233484D03*
X0245620Y0232500D03*
X0245620Y0231516D03*
X0245620Y0231043D03*
X0245148Y0230059D03*
X0245148Y0229587D03*
X0328494Y0301350D03*
X0328494Y0301823D03*
X0328494Y0302807D03*
X0328494Y0303280D03*
X0328494Y0304264D03*
X0328494Y0305248D03*
X0328494Y0305720D03*
X0328494Y0306705D03*
X0328494Y0307177D03*
X0328494Y0308161D03*
X0328494Y0309146D03*
X0328494Y0309618D03*
X0328494Y0310602D03*
X0328494Y0311587D03*
X0328494Y0312059D03*
X0328494Y0319854D03*
X0328494Y0320839D03*
X0328494Y0321823D03*
X0328494Y0322295D03*
X0328494Y0323280D03*
X0328494Y0323752D03*
X0328494Y0324736D03*
X0328494Y0325720D03*
X0328494Y0326193D03*
X0328494Y0327177D03*
X0328494Y0327650D03*
X0328494Y0328634D03*
X0328494Y0329618D03*
X0328494Y0330091D03*
X0328494Y0331075D03*
X0361644Y0318398D03*
X0361644Y0317413D03*
X0361644Y0316941D03*
X0361644Y0315957D03*
X0361644Y0315484D03*
X0361644Y0314500D03*
X0361644Y0313516D03*
X0361644Y0313043D03*
X0295817Y0314500D03*
X0295817Y0315484D03*
X0295817Y0315957D03*
X0295817Y0316941D03*
X0295817Y0317413D03*
X0295344Y0318398D03*
X0295344Y0319382D03*
X0294872Y0319854D03*
X0295344Y0313043D03*
X0295344Y0312059D03*
X0269990Y0312059D03*
X0269990Y0311587D03*
X0269518Y0313043D03*
X0269518Y0313516D03*
X0269518Y0318398D03*
X0269990Y0319854D03*
X0245620Y0318398D03*
X0245620Y0316941D03*
X0245620Y0315957D03*
X0245620Y0315484D03*
X0245620Y0314500D03*
X0245620Y0313516D03*
X0245620Y0313043D03*
X0245148Y0312059D03*
X0245148Y0311587D03*
X0328494Y0383350D03*
X0328494Y0383823D03*
X0328494Y0384807D03*
X0328494Y0385280D03*
X0328494Y0386264D03*
X0328494Y0387248D03*
X0328494Y0387720D03*
X0328494Y0388705D03*
X0328494Y0389177D03*
X0328494Y0390161D03*
X0328494Y0391146D03*
X0328494Y0391618D03*
X0328494Y0392602D03*
X0328494Y0393587D03*
X0328494Y0394059D03*
X0328494Y0401854D03*
X0328494Y0402839D03*
X0328494Y0403823D03*
X0328494Y0404295D03*
X0328494Y0405280D03*
X0328494Y0405752D03*
X0328494Y0406736D03*
X0328494Y0407720D03*
X0328494Y0408193D03*
X0328494Y0409177D03*
X0328494Y0409650D03*
X0328494Y0410634D03*
X0328494Y0411618D03*
X0328494Y0412091D03*
X0328494Y0413075D03*
X0361644Y0400398D03*
X0361644Y0399413D03*
X0361644Y0398941D03*
X0361644Y0397957D03*
X0361644Y0397484D03*
X0361644Y0396500D03*
X0361644Y0395516D03*
X0361644Y0395043D03*
X0295817Y0396500D03*
X0295817Y0397484D03*
X0295817Y0397957D03*
X0295817Y0398941D03*
X0295817Y0399413D03*
X0295344Y0400398D03*
X0295344Y0401382D03*
X0294872Y0401854D03*
X0295344Y0395043D03*
X0295344Y0394059D03*
X0269990Y0394059D03*
X0269990Y0393587D03*
X0269518Y0395043D03*
X0269518Y0395516D03*
X0269518Y0400398D03*
X0269990Y0401854D03*
X0245620Y0400398D03*
X0245620Y0398941D03*
X0245620Y0397957D03*
X0245620Y0397484D03*
X0245620Y0396500D03*
X0245620Y0395516D03*
X0245620Y0395043D03*
X0245148Y0394059D03*
X0245148Y0393587D03*
D41*
X0307530Y0393587D03*
X0307530Y0394059D03*
X0307530Y0392602D03*
X0307530Y0391618D03*
X0307530Y0391146D03*
X0307530Y0390161D03*
X0307530Y0389177D03*
X0307530Y0388705D03*
X0307530Y0387720D03*
X0307530Y0387248D03*
X0307530Y0386264D03*
X0307530Y0385280D03*
X0307530Y0384807D03*
X0307530Y0383823D03*
X0307530Y0383350D03*
X0307530Y0401854D03*
X0307530Y0402839D03*
X0307530Y0403823D03*
X0307530Y0404295D03*
X0307530Y0405280D03*
X0307530Y0405752D03*
X0307530Y0406736D03*
X0307530Y0407720D03*
X0307530Y0408193D03*
X0307530Y0409177D03*
X0307530Y0409650D03*
X0307530Y0410634D03*
X0307530Y0411618D03*
X0307530Y0412091D03*
X0307530Y0413075D03*
X0361152Y0393587D03*
X0391860Y0393587D03*
X0391860Y0392602D03*
X0391860Y0391618D03*
X0391860Y0391146D03*
X0391860Y0390161D03*
X0391860Y0389177D03*
X0391860Y0402839D03*
X0391860Y0403823D03*
X0391860Y0404295D03*
X0391860Y0405280D03*
X0391860Y0405752D03*
X0391860Y0406736D03*
X0307530Y0331075D03*
X0307530Y0330091D03*
X0307530Y0329618D03*
X0307530Y0328634D03*
X0307530Y0327650D03*
X0307530Y0327177D03*
X0307530Y0326193D03*
X0307530Y0325720D03*
X0307530Y0324736D03*
X0307530Y0323752D03*
X0307530Y0323280D03*
X0307530Y0322295D03*
X0307530Y0321823D03*
X0307530Y0320839D03*
X0307530Y0319854D03*
X0307530Y0312059D03*
X0307530Y0311587D03*
X0307530Y0310602D03*
X0307530Y0309618D03*
X0307530Y0309146D03*
X0307530Y0308161D03*
X0307530Y0307177D03*
X0307530Y0306705D03*
X0307530Y0305720D03*
X0307530Y0305248D03*
X0307530Y0304264D03*
X0307530Y0303280D03*
X0307530Y0302807D03*
X0307530Y0301823D03*
X0307530Y0301350D03*
X0361152Y0311587D03*
X0391860Y0311587D03*
X0391860Y0310602D03*
X0391860Y0309618D03*
X0391860Y0309146D03*
X0391860Y0308161D03*
X0391860Y0307177D03*
X0391860Y0320839D03*
X0391860Y0321823D03*
X0391860Y0322295D03*
X0391860Y0323280D03*
X0391860Y0323752D03*
X0391860Y0324736D03*
X0307530Y0249075D03*
X0307530Y0248091D03*
X0307530Y0247618D03*
X0307530Y0246634D03*
X0307530Y0245650D03*
X0307530Y0245177D03*
X0307530Y0244193D03*
X0307530Y0243720D03*
X0307530Y0242736D03*
X0307530Y0241752D03*
X0307530Y0241280D03*
X0307530Y0240295D03*
X0307530Y0239823D03*
X0307530Y0238839D03*
X0307530Y0237854D03*
X0307530Y0230059D03*
X0307530Y0229587D03*
X0307530Y0228602D03*
X0307530Y0227618D03*
X0307530Y0227146D03*
X0307530Y0226161D03*
X0307530Y0225177D03*
X0307530Y0224705D03*
X0307530Y0223720D03*
X0307530Y0223248D03*
X0307530Y0222264D03*
X0307530Y0221280D03*
X0307530Y0220807D03*
X0307530Y0219823D03*
X0307530Y0219350D03*
X0361152Y0229587D03*
X0391860Y0229587D03*
X0391860Y0228602D03*
X0391860Y0227618D03*
X0391860Y0227146D03*
X0391860Y0226161D03*
X0391860Y0225177D03*
X0391860Y0238839D03*
X0391860Y0239823D03*
X0391860Y0240295D03*
X0391860Y0241280D03*
X0391860Y0241752D03*
X0391860Y0242736D03*
X0307530Y0167075D03*
X0307530Y0166091D03*
X0307530Y0165618D03*
X0307530Y0164634D03*
X0307530Y0163650D03*
X0307530Y0163177D03*
X0307530Y0162193D03*
X0307530Y0161720D03*
X0307530Y0160736D03*
X0307530Y0159752D03*
X0307530Y0159280D03*
X0307530Y0158295D03*
X0307530Y0157823D03*
X0307530Y0156839D03*
X0307530Y0155854D03*
X0307530Y0148059D03*
X0307530Y0147587D03*
X0307530Y0146602D03*
X0307530Y0145618D03*
X0307530Y0145146D03*
X0307530Y0144161D03*
X0307530Y0143177D03*
X0307530Y0142705D03*
X0307530Y0141720D03*
X0307530Y0141248D03*
X0307530Y0140264D03*
X0307530Y0139280D03*
X0307530Y0138807D03*
X0307530Y0137823D03*
X0307530Y0137350D03*
X0361152Y0147587D03*
X0391860Y0147587D03*
X0391860Y0146602D03*
X0391860Y0145618D03*
X0391860Y0145146D03*
X0391860Y0144161D03*
X0391860Y0143177D03*
X0391860Y0156839D03*
X0391860Y0157823D03*
X0391860Y0158295D03*
X0391860Y0159280D03*
X0391860Y0159752D03*
X0391860Y0160736D03*
X0307530Y0085075D03*
X0307530Y0084091D03*
X0307530Y0083618D03*
X0307530Y0082634D03*
X0307530Y0081650D03*
X0307530Y0081177D03*
X0307530Y0080193D03*
X0307530Y0079720D03*
X0307530Y0078736D03*
X0307530Y0077752D03*
X0307530Y0077280D03*
X0307530Y0076295D03*
X0307530Y0075823D03*
X0307530Y0074839D03*
X0307530Y0073854D03*
X0307530Y0066059D03*
X0307530Y0065587D03*
X0307530Y0064602D03*
X0307530Y0063618D03*
X0307530Y0063146D03*
X0307530Y0062161D03*
X0307530Y0061177D03*
X0307530Y0060705D03*
X0307530Y0059720D03*
X0307530Y0059248D03*
X0307530Y0058264D03*
X0307530Y0057280D03*
X0307530Y0056807D03*
X0307530Y0055823D03*
X0307530Y0055350D03*
X0361152Y0065587D03*
X0391860Y0065587D03*
X0391860Y0064602D03*
X0391860Y0063618D03*
X0391860Y0063146D03*
X0391860Y0062161D03*
X0391860Y0061177D03*
X0391860Y0074839D03*
X0391860Y0075823D03*
X0391860Y0076295D03*
X0391860Y0077280D03*
X0391860Y0077752D03*
X0391860Y0078736D03*
D42*
X0282431Y0085075D03*
X0282431Y0167075D03*
X0282431Y0249075D03*
X0282431Y0331075D03*
X0282431Y0413075D03*
D43*
X0231978Y0413075D03*
X0231978Y0331075D03*
X0231978Y0249075D03*
X0231978Y0167075D03*
X0231978Y0085075D03*
D44*
X0282431Y0080685D03*
X0282431Y0058756D03*
X0282431Y0140756D03*
X0282431Y0162685D03*
X0282431Y0222756D03*
X0282431Y0244685D03*
X0282431Y0304756D03*
X0282431Y0326685D03*
X0282431Y0386756D03*
X0282431Y0408685D03*
X0382352Y0410142D03*
X0382352Y0411126D03*
X0382352Y0412583D03*
X0382352Y0385772D03*
X0382352Y0384315D03*
X0382352Y0382858D03*
X0382352Y0330583D03*
X0382352Y0329126D03*
X0382352Y0328142D03*
X0382352Y0303772D03*
X0382352Y0302315D03*
X0382352Y0300858D03*
X0382352Y0248583D03*
X0382352Y0247126D03*
X0382352Y0246142D03*
X0382352Y0221772D03*
X0382352Y0220315D03*
X0382352Y0218858D03*
X0382352Y0166583D03*
X0382352Y0165126D03*
X0382352Y0164142D03*
X0382352Y0139772D03*
X0382352Y0138315D03*
X0382352Y0136858D03*
X0382352Y0084583D03*
X0382352Y0083126D03*
X0382352Y0082142D03*
X0382352Y0057772D03*
X0382352Y0056315D03*
X0382352Y0054858D03*
D45*
X0348238Y0084583D03*
X0348238Y0166583D03*
X0348238Y0248583D03*
X0348238Y0330583D03*
X0348238Y0412583D03*
X0232215Y0412583D03*
X0232215Y0330583D03*
X0232215Y0248583D03*
X0232215Y0166583D03*
X0232215Y0084583D03*
D46*
X0225148Y0079228D03*
X0245620Y0072890D03*
X0245620Y0070449D03*
X0245620Y0068992D03*
X0245620Y0068008D03*
X0269518Y0072890D03*
X0269990Y0074346D03*
X0269990Y0065094D03*
X0295817Y0068008D03*
X0295817Y0068992D03*
X0295817Y0070449D03*
X0294872Y0074346D03*
X0328494Y0074346D03*
X0328494Y0075331D03*
X0328494Y0076787D03*
X0328494Y0078244D03*
X0328494Y0079228D03*
X0328494Y0080685D03*
X0328494Y0082142D03*
X0328494Y0083126D03*
X0328494Y0084583D03*
X0341171Y0079228D03*
X0328494Y0065094D03*
X0328494Y0064110D03*
X0328494Y0062654D03*
X0328494Y0061669D03*
X0328494Y0060213D03*
X0328494Y0058756D03*
X0328494Y0057772D03*
X0328494Y0056315D03*
X0328494Y0054858D03*
X0347982Y0052417D03*
X0361644Y0068008D03*
X0361644Y0068992D03*
X0361644Y0070449D03*
X0361644Y0071906D03*
X0361644Y0072890D03*
X0347982Y0134417D03*
X0328494Y0136858D03*
X0328494Y0138315D03*
X0328494Y0139772D03*
X0328494Y0140756D03*
X0328494Y0142213D03*
X0328494Y0143669D03*
X0328494Y0144654D03*
X0328494Y0146110D03*
X0328494Y0147094D03*
X0328494Y0156346D03*
X0328494Y0157331D03*
X0328494Y0158787D03*
X0328494Y0160244D03*
X0328494Y0161228D03*
X0328494Y0162685D03*
X0328494Y0164142D03*
X0328494Y0165126D03*
X0328494Y0166583D03*
X0341171Y0161228D03*
X0361644Y0154890D03*
X0361644Y0153906D03*
X0361644Y0152449D03*
X0361644Y0150992D03*
X0361644Y0150008D03*
X0295817Y0150008D03*
X0295817Y0150992D03*
X0295817Y0152449D03*
X0294872Y0156346D03*
X0269990Y0156346D03*
X0269518Y0154890D03*
X0269990Y0147094D03*
X0245620Y0150008D03*
X0245620Y0150992D03*
X0245620Y0152449D03*
X0245620Y0154890D03*
X0225148Y0161228D03*
X0245620Y0232008D03*
X0245620Y0232992D03*
X0245620Y0234449D03*
X0245620Y0236890D03*
X0225148Y0243228D03*
X0269518Y0236890D03*
X0269990Y0238346D03*
X0269990Y0229094D03*
X0295817Y0232008D03*
X0295817Y0232992D03*
X0295817Y0234449D03*
X0294872Y0238346D03*
X0328494Y0238346D03*
X0328494Y0239331D03*
X0328494Y0240787D03*
X0328494Y0242244D03*
X0328494Y0243228D03*
X0328494Y0244685D03*
X0328494Y0246142D03*
X0328494Y0247126D03*
X0328494Y0248583D03*
X0341171Y0243228D03*
X0328494Y0229094D03*
X0328494Y0228110D03*
X0328494Y0226654D03*
X0328494Y0225669D03*
X0328494Y0224213D03*
X0328494Y0222756D03*
X0328494Y0221772D03*
X0328494Y0220315D03*
X0328494Y0218858D03*
X0347982Y0216417D03*
X0361644Y0232008D03*
X0361644Y0232992D03*
X0361644Y0234449D03*
X0361644Y0235906D03*
X0361644Y0236890D03*
X0347982Y0298417D03*
X0361644Y0314008D03*
X0361644Y0314992D03*
X0361644Y0316449D03*
X0361644Y0317906D03*
X0361644Y0318890D03*
X0341171Y0325228D03*
X0328494Y0325228D03*
X0328494Y0324244D03*
X0328494Y0322787D03*
X0328494Y0321331D03*
X0328494Y0320346D03*
X0328494Y0326685D03*
X0328494Y0328142D03*
X0328494Y0329126D03*
X0328494Y0330583D03*
X0328494Y0311094D03*
X0328494Y0310110D03*
X0328494Y0308654D03*
X0328494Y0307669D03*
X0328494Y0306213D03*
X0328494Y0304756D03*
X0328494Y0303772D03*
X0328494Y0302315D03*
X0328494Y0300858D03*
X0295817Y0314008D03*
X0295817Y0314992D03*
X0295817Y0316449D03*
X0294872Y0320346D03*
X0269990Y0320346D03*
X0269518Y0318890D03*
X0269990Y0311094D03*
X0245620Y0314008D03*
X0245620Y0314992D03*
X0245620Y0316449D03*
X0245620Y0318890D03*
X0225148Y0325228D03*
X0269990Y0393094D03*
X0269518Y0400890D03*
X0269990Y0402346D03*
X0245620Y0400890D03*
X0245620Y0398449D03*
X0245620Y0396992D03*
X0245620Y0396008D03*
X0225148Y0407228D03*
X0294872Y0402346D03*
X0295817Y0398449D03*
X0295817Y0396992D03*
X0295817Y0396008D03*
X0328494Y0393094D03*
X0328494Y0392110D03*
X0328494Y0390654D03*
X0328494Y0389669D03*
X0328494Y0388213D03*
X0328494Y0386756D03*
X0328494Y0385772D03*
X0328494Y0384315D03*
X0328494Y0382858D03*
X0328494Y0402346D03*
X0328494Y0403331D03*
X0328494Y0404787D03*
X0328494Y0406244D03*
X0328494Y0407228D03*
X0328494Y0408685D03*
X0328494Y0410142D03*
X0328494Y0411126D03*
X0328494Y0412583D03*
X0341171Y0407228D03*
X0361644Y0400890D03*
X0361644Y0399906D03*
X0361644Y0398449D03*
X0361644Y0396992D03*
X0361644Y0396008D03*
X0347982Y0380417D03*
D47*
X0307530Y0384315D03*
X0307530Y0385772D03*
X0307530Y0386756D03*
X0307530Y0388213D03*
X0307530Y0389669D03*
X0307530Y0390654D03*
X0307530Y0392110D03*
X0307530Y0393094D03*
X0307530Y0402346D03*
X0307530Y0403331D03*
X0307530Y0404787D03*
X0307530Y0406244D03*
X0307530Y0407228D03*
X0307530Y0408685D03*
X0307530Y0410142D03*
X0307530Y0411126D03*
X0307530Y0412583D03*
X0391860Y0407228D03*
X0391860Y0406244D03*
X0391860Y0404787D03*
X0391860Y0403331D03*
X0391860Y0393094D03*
X0391860Y0392110D03*
X0391860Y0390654D03*
X0391860Y0389669D03*
X0391860Y0325228D03*
X0391860Y0324244D03*
X0391860Y0322787D03*
X0391860Y0321331D03*
X0391860Y0311094D03*
X0391860Y0310110D03*
X0391860Y0308654D03*
X0391860Y0307669D03*
X0391860Y0243228D03*
X0391860Y0242244D03*
X0391860Y0240787D03*
X0391860Y0239331D03*
X0391860Y0229094D03*
X0391860Y0228110D03*
X0391860Y0226654D03*
X0391860Y0225669D03*
X0391860Y0161228D03*
X0391860Y0160244D03*
X0391860Y0158787D03*
X0391860Y0157331D03*
X0391860Y0147094D03*
X0391860Y0146110D03*
X0391860Y0144654D03*
X0391860Y0143669D03*
X0391860Y0079228D03*
X0391860Y0078244D03*
X0391860Y0076787D03*
X0391860Y0075331D03*
X0391860Y0065094D03*
X0391860Y0064110D03*
X0391860Y0062654D03*
X0391860Y0061669D03*
X0307530Y0061669D03*
X0307530Y0062654D03*
X0307530Y0064110D03*
X0307530Y0065094D03*
X0307530Y0060213D03*
X0307530Y0058756D03*
X0307530Y0057772D03*
X0307530Y0056315D03*
X0307530Y0074346D03*
X0307530Y0075331D03*
X0307530Y0076787D03*
X0307530Y0078244D03*
X0307530Y0079228D03*
X0307530Y0080685D03*
X0307530Y0082142D03*
X0307530Y0083126D03*
X0307530Y0084583D03*
X0307530Y0138315D03*
X0307530Y0139772D03*
X0307530Y0140756D03*
X0307530Y0142213D03*
X0307530Y0143669D03*
X0307530Y0144654D03*
X0307530Y0146110D03*
X0307530Y0147094D03*
X0307530Y0156346D03*
X0307530Y0157331D03*
X0307530Y0158787D03*
X0307530Y0160244D03*
X0307530Y0161228D03*
X0307530Y0162685D03*
X0307530Y0164142D03*
X0307530Y0165126D03*
X0307530Y0166583D03*
X0307530Y0220315D03*
X0307530Y0221772D03*
X0307530Y0222756D03*
X0307530Y0224213D03*
X0307530Y0225669D03*
X0307530Y0226654D03*
X0307530Y0228110D03*
X0307530Y0229094D03*
X0307530Y0238346D03*
X0307530Y0239331D03*
X0307530Y0240787D03*
X0307530Y0242244D03*
X0307530Y0243228D03*
X0307530Y0244685D03*
X0307530Y0246142D03*
X0307530Y0247126D03*
X0307530Y0248583D03*
X0307530Y0302315D03*
X0307530Y0303772D03*
X0307530Y0304756D03*
X0307530Y0306213D03*
X0307530Y0307669D03*
X0307530Y0308654D03*
X0307530Y0310110D03*
X0307530Y0311094D03*
X0307530Y0320346D03*
X0307530Y0321331D03*
X0307530Y0322787D03*
X0307530Y0324244D03*
X0307530Y0325228D03*
X0307530Y0326685D03*
X0307530Y0328142D03*
X0307530Y0329126D03*
X0307530Y0330583D03*
D48*
X0282687Y0330583D03*
X0348002Y0300858D03*
X0282687Y0248583D03*
X0348002Y0218858D03*
X0282687Y0166583D03*
X0348002Y0136858D03*
X0282687Y0084583D03*
X0348002Y0054858D03*
X0348002Y0382858D03*
X0282687Y0412583D03*
D49*
X0347982Y0412091D03*
X0385030Y0397957D03*
X0385030Y0397484D03*
X0347982Y0330091D03*
X0385030Y0315957D03*
X0385030Y0315484D03*
X0347982Y0248091D03*
X0385030Y0233957D03*
X0385030Y0233484D03*
X0347982Y0166091D03*
X0385030Y0151957D03*
X0385030Y0151484D03*
X0347982Y0084091D03*
X0385030Y0069957D03*
X0385030Y0069484D03*
D50*
X0385266Y0068500D03*
X0385266Y0067516D03*
X0385266Y0067043D03*
X0385266Y0070941D03*
X0385266Y0071413D03*
X0385266Y0072398D03*
X0385266Y0149043D03*
X0385266Y0149516D03*
X0385266Y0150500D03*
X0385266Y0152941D03*
X0385266Y0153413D03*
X0385266Y0154398D03*
X0385266Y0231043D03*
X0385266Y0231516D03*
X0385266Y0232500D03*
X0385266Y0234941D03*
X0385266Y0235413D03*
X0385266Y0236398D03*
X0385266Y0313043D03*
X0385266Y0313516D03*
X0385266Y0314500D03*
X0385266Y0316941D03*
X0385266Y0317413D03*
X0385266Y0318398D03*
X0385266Y0395043D03*
X0385266Y0395516D03*
X0385266Y0396500D03*
X0385266Y0398941D03*
X0385266Y0399413D03*
X0385266Y0400398D03*
X0282431Y0412091D03*
X0282431Y0383823D03*
X0282431Y0330091D03*
X0282431Y0301823D03*
X0282431Y0248091D03*
X0282431Y0219823D03*
X0282431Y0166091D03*
X0282431Y0137823D03*
X0282431Y0084091D03*
X0282431Y0055823D03*
D51*
X0282411Y0083618D03*
X0232215Y0084091D03*
X0232215Y0166091D03*
X0282411Y0165618D03*
X0348238Y0137823D03*
X0348238Y0055823D03*
X0348238Y0219823D03*
X0282411Y0247618D03*
X0232215Y0248091D03*
X0232215Y0330091D03*
X0282411Y0329618D03*
X0348238Y0301823D03*
X0348238Y0383823D03*
X0282411Y0411618D03*
X0232215Y0412091D03*
D52*
X0348474Y0411618D03*
X0348474Y0329618D03*
X0348474Y0247618D03*
X0348474Y0165618D03*
X0348474Y0083618D03*
D53*
X0282431Y0056807D03*
X0232234Y0083618D03*
X0282431Y0138807D03*
X0232234Y0165618D03*
X0282431Y0220807D03*
X0232234Y0247618D03*
X0282431Y0302807D03*
X0232234Y0329618D03*
X0282431Y0384807D03*
X0232234Y0411618D03*
D54*
X0232470Y0411126D03*
X0282667Y0411126D03*
X0348494Y0411126D03*
X0348494Y0329126D03*
X0282667Y0329126D03*
X0232470Y0329126D03*
X0232470Y0247126D03*
X0282667Y0247126D03*
X0348494Y0247126D03*
X0348494Y0165126D03*
X0282667Y0165126D03*
X0232470Y0165126D03*
X0232470Y0083126D03*
X0282667Y0083126D03*
X0348494Y0083126D03*
D55*
X0348474Y0082634D03*
X0348474Y0057280D03*
X0348474Y0139280D03*
X0348474Y0164634D03*
X0348474Y0221280D03*
X0348474Y0246634D03*
X0348474Y0303280D03*
X0348474Y0328634D03*
X0348474Y0385280D03*
X0348474Y0410634D03*
X0232451Y0410634D03*
X0232451Y0385280D03*
X0232451Y0328634D03*
X0232451Y0303280D03*
X0232451Y0246634D03*
X0232451Y0221280D03*
X0232451Y0164634D03*
X0232451Y0139280D03*
X0232451Y0082634D03*
X0232451Y0057280D03*
D56*
X0282431Y0057280D03*
X0282431Y0082634D03*
X0282431Y0139280D03*
X0282431Y0164634D03*
X0282431Y0221280D03*
X0282431Y0246634D03*
X0282431Y0303280D03*
X0282431Y0328634D03*
X0282431Y0385280D03*
X0282431Y0410634D03*
X0382352Y0380909D03*
X0382352Y0298909D03*
X0382352Y0216909D03*
X0382352Y0134909D03*
X0382352Y0052909D03*
D57*
X0348711Y0057772D03*
X0348711Y0082142D03*
X0348711Y0139772D03*
X0348711Y0164142D03*
X0348711Y0221772D03*
X0348711Y0246142D03*
X0348711Y0303772D03*
X0348711Y0328142D03*
X0348711Y0385772D03*
X0348711Y0410142D03*
D58*
X0282431Y0410142D03*
X0282431Y0385772D03*
X0232707Y0385772D03*
X0232707Y0410142D03*
X0232707Y0328142D03*
X0232707Y0303772D03*
X0282431Y0303772D03*
X0282431Y0328142D03*
X0282431Y0246142D03*
X0282431Y0221772D03*
X0232707Y0221772D03*
X0232707Y0246142D03*
X0232707Y0164142D03*
X0232707Y0139772D03*
X0282431Y0139772D03*
X0282431Y0164142D03*
X0282431Y0082142D03*
X0282431Y0057772D03*
X0232707Y0057772D03*
X0232707Y0082142D03*
D59*
X0233927Y0079720D03*
X0233927Y0161720D03*
X0233927Y0243720D03*
X0233927Y0325720D03*
X0233927Y0407720D03*
X0349951Y0407720D03*
X0349951Y0408193D03*
X0382589Y0408193D03*
X0382589Y0409177D03*
X0382589Y0382366D03*
X0382589Y0327177D03*
X0382589Y0326193D03*
X0382589Y0300366D03*
X0349951Y0325720D03*
X0349951Y0326193D03*
X0349951Y0244193D03*
X0349951Y0243720D03*
X0382589Y0244193D03*
X0382589Y0245177D03*
X0382589Y0218366D03*
X0382589Y0163177D03*
X0382589Y0162193D03*
X0382589Y0136366D03*
X0349951Y0161720D03*
X0349951Y0162193D03*
X0349951Y0080193D03*
X0349951Y0079720D03*
X0382589Y0080193D03*
X0382589Y0081177D03*
X0382589Y0054366D03*
D60*
X0382352Y0053874D03*
X0382825Y0060213D03*
X0382825Y0080685D03*
X0350187Y0060213D03*
X0349203Y0058756D03*
X0382352Y0135874D03*
X0382825Y0142213D03*
X0382825Y0162685D03*
X0350187Y0142213D03*
X0349203Y0140756D03*
X0382352Y0217874D03*
X0382825Y0224213D03*
X0382825Y0244685D03*
X0350187Y0224213D03*
X0349203Y0222756D03*
X0382352Y0299874D03*
X0382825Y0306213D03*
X0382825Y0326685D03*
X0350187Y0306213D03*
X0349203Y0304756D03*
X0382352Y0381874D03*
X0382825Y0388213D03*
X0382825Y0408685D03*
X0350187Y0388213D03*
X0349203Y0386756D03*
X0234163Y0388213D03*
X0233179Y0386756D03*
X0234163Y0306213D03*
X0233179Y0304756D03*
X0234163Y0224213D03*
X0233179Y0222756D03*
X0234163Y0142213D03*
X0233179Y0140756D03*
X0234163Y0060213D03*
X0233179Y0058756D03*
D61*
X0233435Y0080685D03*
X0233435Y0162685D03*
X0233435Y0244685D03*
X0233435Y0326685D03*
X0233435Y0408685D03*
D62*
X0282431Y0408193D03*
X0282431Y0387720D03*
X0282431Y0387248D03*
X0282431Y0326193D03*
X0282431Y0305720D03*
X0282431Y0305248D03*
X0282431Y0244193D03*
X0282431Y0223720D03*
X0282431Y0223248D03*
X0282431Y0162193D03*
X0282431Y0141720D03*
X0282431Y0141248D03*
X0282431Y0080193D03*
X0282431Y0059720D03*
X0282431Y0059248D03*
D63*
X0383081Y0079720D03*
X0383081Y0161720D03*
X0383081Y0243720D03*
X0383081Y0325720D03*
X0383081Y0407720D03*
D64*
X0318022Y0401382D03*
X0318022Y0400398D03*
X0318022Y0399413D03*
X0318022Y0398941D03*
X0318022Y0397957D03*
X0318022Y0397484D03*
X0318022Y0396500D03*
X0318022Y0395516D03*
X0318022Y0395043D03*
X0282431Y0407720D03*
X0282431Y0325720D03*
X0318022Y0319382D03*
X0318022Y0318398D03*
X0318022Y0317413D03*
X0318022Y0316941D03*
X0318022Y0315957D03*
X0318022Y0315484D03*
X0318022Y0314500D03*
X0318022Y0313516D03*
X0318022Y0313043D03*
X0282431Y0243720D03*
X0318022Y0237382D03*
X0318022Y0236398D03*
X0318022Y0235413D03*
X0318022Y0234941D03*
X0318022Y0233957D03*
X0318022Y0233484D03*
X0318022Y0232500D03*
X0318022Y0231516D03*
X0318022Y0231043D03*
X0282431Y0161720D03*
X0318022Y0155382D03*
X0318022Y0154398D03*
X0318022Y0153413D03*
X0318022Y0152941D03*
X0318022Y0151957D03*
X0318022Y0151484D03*
X0318022Y0150500D03*
X0318022Y0149516D03*
X0318022Y0149043D03*
X0282431Y0079720D03*
X0318022Y0073382D03*
X0318022Y0072398D03*
X0318022Y0071413D03*
X0318022Y0070941D03*
X0318022Y0069957D03*
X0318022Y0069484D03*
X0318022Y0068500D03*
X0318022Y0067516D03*
X0318022Y0067043D03*
D65*
X0357254Y0079228D03*
X0357254Y0161228D03*
X0357254Y0243228D03*
X0357254Y0325228D03*
X0357254Y0407228D03*
D66*
X0291447Y0407228D03*
X0291447Y0325228D03*
X0291447Y0243228D03*
X0291447Y0161228D03*
X0291447Y0079228D03*
D67*
X0273652Y0079228D03*
X0273652Y0161228D03*
X0273652Y0243228D03*
X0273652Y0325228D03*
X0273652Y0407228D03*
D68*
X0241250Y0407228D03*
X0241250Y0325228D03*
X0241250Y0243228D03*
X0241250Y0161228D03*
X0241250Y0079228D03*
D69*
X0357490Y0078736D03*
X0357490Y0160736D03*
X0357490Y0242736D03*
X0357490Y0324736D03*
X0357490Y0406736D03*
D70*
X0291683Y0406736D03*
X0291683Y0324736D03*
X0291683Y0242736D03*
X0291683Y0160736D03*
X0291683Y0078736D03*
D71*
X0273396Y0078736D03*
X0273907Y0060705D03*
X0241742Y0061177D03*
X0231978Y0052909D03*
X0231978Y0134909D03*
X0241742Y0143177D03*
X0273907Y0142705D03*
X0273396Y0160736D03*
X0231978Y0216909D03*
X0241742Y0225177D03*
X0273907Y0224705D03*
X0273396Y0242736D03*
X0231978Y0298909D03*
X0241742Y0307177D03*
X0273907Y0306705D03*
X0273396Y0324736D03*
X0231978Y0380909D03*
X0241742Y0389177D03*
X0273907Y0388705D03*
X0273396Y0406736D03*
X0348002Y0380909D03*
X0357726Y0389177D03*
X0357726Y0307177D03*
X0348002Y0298909D03*
X0357726Y0225177D03*
X0348002Y0216909D03*
X0357726Y0143177D03*
X0348002Y0134909D03*
X0357726Y0061177D03*
X0348002Y0052909D03*
D72*
X0241486Y0078736D03*
X0241486Y0160736D03*
X0241486Y0242736D03*
X0241486Y0324736D03*
X0241486Y0406736D03*
D73*
X0358474Y0406244D03*
X0358474Y0324244D03*
X0358474Y0242244D03*
X0358474Y0160244D03*
X0358474Y0078244D03*
D74*
X0340679Y0078244D03*
X0340679Y0160244D03*
X0340679Y0242244D03*
X0340679Y0324244D03*
X0340679Y0406244D03*
D75*
X0359203Y0405752D03*
X0291919Y0389177D03*
X0359203Y0323752D03*
X0291919Y0307177D03*
X0359203Y0241752D03*
X0291919Y0225177D03*
X0359203Y0159752D03*
X0291919Y0143177D03*
X0359203Y0077752D03*
X0291919Y0061177D03*
D76*
X0340423Y0062161D03*
X0340423Y0077752D03*
X0340423Y0144161D03*
X0340423Y0159752D03*
X0340423Y0226161D03*
X0340423Y0241752D03*
X0340423Y0308161D03*
X0340423Y0323752D03*
X0340423Y0390161D03*
X0340423Y0405752D03*
D77*
X0359203Y0390161D03*
X0292904Y0390161D03*
X0292904Y0405752D03*
X0292904Y0323752D03*
X0292904Y0308161D03*
X0359203Y0308161D03*
X0292904Y0241752D03*
X0292904Y0226161D03*
X0359203Y0226161D03*
X0292904Y0159752D03*
X0292904Y0144161D03*
X0359203Y0144161D03*
X0292904Y0077752D03*
X0292904Y0062161D03*
X0359203Y0062161D03*
D78*
X0359695Y0077280D03*
X0271939Y0077752D03*
X0271467Y0077280D03*
X0271939Y0062161D03*
X0243199Y0062161D03*
X0243671Y0077280D03*
X0243199Y0077752D03*
X0243199Y0144161D03*
X0243671Y0159280D03*
X0243199Y0159752D03*
X0271467Y0159280D03*
X0271939Y0159752D03*
X0271939Y0144161D03*
X0271939Y0226161D03*
X0271467Y0241280D03*
X0271939Y0241752D03*
X0243671Y0241280D03*
X0243199Y0241752D03*
X0243199Y0226161D03*
X0243199Y0308161D03*
X0243671Y0323280D03*
X0243199Y0323752D03*
X0271467Y0323280D03*
X0271939Y0323752D03*
X0271939Y0308161D03*
X0271939Y0390161D03*
X0271467Y0405280D03*
X0271939Y0405752D03*
X0243671Y0405280D03*
X0243199Y0405752D03*
X0243199Y0390161D03*
X0359695Y0405280D03*
X0359695Y0323280D03*
X0359695Y0241280D03*
X0359695Y0159280D03*
D79*
X0224419Y0159752D03*
X0224419Y0144161D03*
X0224419Y0077752D03*
X0224419Y0062161D03*
X0224419Y0226161D03*
X0224419Y0241752D03*
X0224419Y0308161D03*
X0224419Y0323752D03*
X0224419Y0390161D03*
X0224419Y0405752D03*
D80*
X0340187Y0405280D03*
X0340187Y0323280D03*
X0340187Y0241280D03*
X0340187Y0159280D03*
X0340187Y0077280D03*
D81*
X0359931Y0063146D03*
X0293632Y0063146D03*
X0293159Y0077280D03*
X0244419Y0076295D03*
X0243907Y0063146D03*
X0243907Y0145146D03*
X0244419Y0158295D03*
X0293159Y0159280D03*
X0293632Y0145146D03*
X0359931Y0145146D03*
X0359931Y0227146D03*
X0293632Y0227146D03*
X0293159Y0241280D03*
X0244419Y0240295D03*
X0243907Y0227146D03*
X0243907Y0309146D03*
X0244419Y0322295D03*
X0293159Y0323280D03*
X0293632Y0309146D03*
X0359931Y0309146D03*
X0359931Y0391146D03*
X0293632Y0391146D03*
X0293159Y0405280D03*
X0244419Y0404295D03*
X0243907Y0391146D03*
D82*
X0231978Y0379925D03*
X0224183Y0405280D03*
X0224183Y0323280D03*
X0231978Y0297925D03*
X0224183Y0241280D03*
X0231978Y0215925D03*
X0224183Y0159280D03*
X0231978Y0133925D03*
X0224183Y0077280D03*
X0231978Y0051925D03*
X0348002Y0051925D03*
X0348002Y0133925D03*
X0348002Y0215925D03*
X0348002Y0297925D03*
X0348002Y0379925D03*
D83*
X0359931Y0404787D03*
X0293632Y0404787D03*
X0271230Y0404787D03*
X0271230Y0390654D03*
X0282411Y0380417D03*
X0243907Y0404787D03*
X0243907Y0322787D03*
X0271230Y0322787D03*
X0271230Y0308654D03*
X0282411Y0298417D03*
X0293632Y0322787D03*
X0359931Y0322787D03*
X0359931Y0240787D03*
X0293632Y0240787D03*
X0271230Y0240787D03*
X0271230Y0226654D03*
X0282411Y0216417D03*
X0243907Y0240787D03*
X0243907Y0158787D03*
X0271230Y0158787D03*
X0271230Y0144654D03*
X0282411Y0134417D03*
X0293632Y0158787D03*
X0359931Y0158787D03*
X0359931Y0076787D03*
X0293632Y0076787D03*
X0271230Y0076787D03*
X0271230Y0062654D03*
X0282411Y0052417D03*
X0243907Y0076787D03*
D84*
X0340187Y0076787D03*
X0340187Y0158787D03*
X0340187Y0240787D03*
X0340187Y0322787D03*
X0340187Y0404787D03*
D85*
X0224439Y0404787D03*
X0224439Y0322787D03*
X0224439Y0240787D03*
X0224439Y0158787D03*
X0224439Y0076787D03*
D86*
X0244656Y0075823D03*
X0270482Y0075823D03*
X0342136Y0060705D03*
X0360167Y0063618D03*
X0360167Y0076295D03*
X0342136Y0142705D03*
X0360167Y0145618D03*
X0360167Y0158295D03*
X0342136Y0224705D03*
X0360167Y0227618D03*
X0360167Y0240295D03*
X0342136Y0306705D03*
X0360167Y0309618D03*
X0360167Y0322295D03*
X0342136Y0388705D03*
X0360167Y0391618D03*
X0360167Y0404295D03*
X0270482Y0403823D03*
X0244656Y0403823D03*
X0244656Y0321823D03*
X0270482Y0321823D03*
X0270482Y0239823D03*
X0244656Y0239823D03*
X0244656Y0157823D03*
X0270482Y0157823D03*
D87*
X0270974Y0158295D03*
X0270974Y0145146D03*
X0293888Y0145618D03*
X0293888Y0158295D03*
X0244163Y0145618D03*
X0226132Y0142705D03*
X0270974Y0076295D03*
X0270974Y0063146D03*
X0293888Y0063618D03*
X0293888Y0076295D03*
X0244163Y0063618D03*
X0226132Y0060705D03*
X0360659Y0075823D03*
X0360659Y0157823D03*
X0293888Y0227618D03*
X0293888Y0240295D03*
X0270974Y0240295D03*
X0270974Y0227146D03*
X0244163Y0227618D03*
X0226132Y0224705D03*
X0226132Y0306705D03*
X0244163Y0309618D03*
X0270974Y0309146D03*
X0270974Y0322295D03*
X0293888Y0322295D03*
X0293888Y0309618D03*
X0360659Y0321823D03*
X0293888Y0391618D03*
X0293888Y0404295D03*
X0270974Y0404295D03*
X0270974Y0391146D03*
X0244163Y0391618D03*
X0226132Y0388705D03*
X0360659Y0403823D03*
X0360659Y0239823D03*
D88*
X0360896Y0238839D03*
X0361407Y0237854D03*
X0361407Y0237382D03*
X0361407Y0230059D03*
X0360896Y0228602D03*
X0295581Y0231516D03*
X0295108Y0229587D03*
X0294124Y0239823D03*
X0270738Y0227618D03*
X0269754Y0237382D03*
X0245384Y0237382D03*
X0245384Y0237854D03*
X0270738Y0309618D03*
X0269754Y0319382D03*
X0245384Y0319382D03*
X0245384Y0319854D03*
X0294124Y0321823D03*
X0295581Y0313516D03*
X0295108Y0311587D03*
X0360896Y0310602D03*
X0361407Y0312059D03*
X0361407Y0319382D03*
X0361407Y0319854D03*
X0360896Y0320839D03*
X0360896Y0392602D03*
X0361407Y0394059D03*
X0361407Y0401382D03*
X0361407Y0401854D03*
X0360896Y0402839D03*
X0295581Y0395516D03*
X0295108Y0393587D03*
X0294124Y0403823D03*
X0270738Y0391618D03*
X0269754Y0401382D03*
X0245384Y0401382D03*
X0245384Y0401854D03*
X0245384Y0155854D03*
X0245384Y0155382D03*
X0269754Y0155382D03*
X0270738Y0145618D03*
X0295108Y0147587D03*
X0295581Y0149516D03*
X0294124Y0157823D03*
X0360896Y0156839D03*
X0361407Y0155854D03*
X0361407Y0155382D03*
X0361407Y0148059D03*
X0360896Y0146602D03*
X0360896Y0074839D03*
X0361407Y0073854D03*
X0361407Y0073382D03*
X0361407Y0066059D03*
X0360896Y0064602D03*
X0295581Y0067516D03*
X0295108Y0065587D03*
X0294124Y0075823D03*
X0270738Y0063618D03*
X0269754Y0073382D03*
X0245384Y0073382D03*
X0245384Y0073854D03*
D89*
X0245384Y0074346D03*
X0245384Y0066551D03*
X0231722Y0052417D03*
X0269754Y0066551D03*
X0294124Y0064110D03*
X0295581Y0071906D03*
X0294124Y0075331D03*
X0231722Y0134417D03*
X0245384Y0148551D03*
X0245384Y0156346D03*
X0269754Y0148551D03*
X0294124Y0146110D03*
X0295581Y0153906D03*
X0294124Y0157331D03*
X0360896Y0157331D03*
X0361407Y0156346D03*
X0361407Y0148551D03*
X0360896Y0147094D03*
X0360896Y0075331D03*
X0361407Y0074346D03*
X0361407Y0066551D03*
X0360896Y0065094D03*
X0231722Y0216417D03*
X0245384Y0230551D03*
X0245384Y0238346D03*
X0269754Y0230551D03*
X0294124Y0228110D03*
X0295581Y0235906D03*
X0294124Y0239331D03*
X0360896Y0239331D03*
X0361407Y0238346D03*
X0361407Y0230551D03*
X0360896Y0229094D03*
X0360896Y0311094D03*
X0361407Y0312551D03*
X0361407Y0320346D03*
X0360896Y0321331D03*
X0295581Y0317906D03*
X0294124Y0321331D03*
X0294124Y0310110D03*
X0269754Y0312551D03*
X0245384Y0312551D03*
X0245384Y0320346D03*
X0231722Y0298417D03*
X0231722Y0380417D03*
X0245384Y0394551D03*
X0245384Y0402346D03*
X0269754Y0394551D03*
X0294124Y0392110D03*
X0295581Y0399906D03*
X0294124Y0403331D03*
X0360896Y0403331D03*
X0361407Y0402346D03*
X0361407Y0394551D03*
X0360896Y0393094D03*
D90*
X0294616Y0393094D03*
X0270246Y0403331D03*
X0244892Y0393094D03*
X0270246Y0321331D03*
X0294616Y0311094D03*
X0244892Y0311094D03*
X0270246Y0239331D03*
X0294616Y0229094D03*
X0244892Y0229094D03*
X0270246Y0157331D03*
X0294616Y0147094D03*
X0244892Y0147094D03*
X0270246Y0075331D03*
X0294616Y0065094D03*
X0244892Y0065094D03*
D91*
X0244656Y0064110D03*
X0244656Y0075331D03*
X0270482Y0064110D03*
X0270482Y0146110D03*
X0244656Y0146110D03*
X0244656Y0157331D03*
X0244656Y0228110D03*
X0244656Y0239331D03*
X0270482Y0228110D03*
X0270482Y0310110D03*
X0244656Y0310110D03*
X0244656Y0321331D03*
X0244656Y0392110D03*
X0244656Y0403331D03*
X0270482Y0392110D03*
D92*
X0270246Y0392602D03*
X0270246Y0402839D03*
X0294616Y0402839D03*
X0294616Y0392602D03*
X0244892Y0392602D03*
X0244892Y0402839D03*
X0244892Y0320839D03*
X0244892Y0310602D03*
X0270246Y0310602D03*
X0270246Y0320839D03*
X0294616Y0320839D03*
X0294616Y0310602D03*
X0294616Y0238839D03*
X0294616Y0228602D03*
X0270246Y0228602D03*
X0270246Y0238839D03*
X0244892Y0238839D03*
X0244892Y0228602D03*
X0244892Y0156839D03*
X0244892Y0146602D03*
X0270246Y0146602D03*
X0270246Y0156839D03*
X0294616Y0156839D03*
X0294616Y0146602D03*
X0294616Y0074839D03*
X0294616Y0064602D03*
X0270246Y0064602D03*
X0270246Y0074839D03*
X0244892Y0074839D03*
X0244892Y0064602D03*
D93*
X0386742Y0074346D03*
X0386742Y0156346D03*
X0386742Y0238346D03*
X0386742Y0320346D03*
X0386742Y0402346D03*
D94*
X0385994Y0401854D03*
X0385994Y0319854D03*
X0385994Y0237854D03*
X0385994Y0155854D03*
X0385994Y0073854D03*
D95*
X0385522Y0073382D03*
X0385522Y0155382D03*
X0385522Y0237382D03*
X0385522Y0319382D03*
X0385522Y0401382D03*
X0231978Y0383350D03*
X0231978Y0301350D03*
X0231978Y0219350D03*
X0231978Y0137350D03*
X0231978Y0055350D03*
D96*
X0385266Y0068008D03*
X0385266Y0071906D03*
X0385266Y0072890D03*
X0385266Y0150008D03*
X0385266Y0153906D03*
X0385266Y0154890D03*
X0385266Y0232008D03*
X0385266Y0235906D03*
X0385266Y0236890D03*
X0385266Y0314008D03*
X0385266Y0317906D03*
X0385266Y0318890D03*
X0385266Y0396008D03*
X0385266Y0399906D03*
X0385266Y0400890D03*
D97*
X0318022Y0400890D03*
X0318022Y0399906D03*
X0318022Y0398449D03*
X0318022Y0396992D03*
X0318022Y0396008D03*
X0318022Y0394551D03*
X0282431Y0388213D03*
X0318022Y0318890D03*
X0318022Y0317906D03*
X0318022Y0316449D03*
X0318022Y0314992D03*
X0318022Y0314008D03*
X0318022Y0312551D03*
X0282431Y0306213D03*
X0318022Y0236890D03*
X0318022Y0235906D03*
X0318022Y0234449D03*
X0318022Y0232992D03*
X0318022Y0232008D03*
X0318022Y0230551D03*
X0282431Y0224213D03*
X0318022Y0154890D03*
X0318022Y0153906D03*
X0318022Y0152449D03*
X0318022Y0150992D03*
X0318022Y0150008D03*
X0318022Y0148551D03*
X0282431Y0142213D03*
X0318022Y0072890D03*
X0318022Y0071906D03*
X0318022Y0070449D03*
X0318022Y0068992D03*
X0318022Y0068008D03*
X0318022Y0066551D03*
X0282431Y0060213D03*
D98*
X0385030Y0068992D03*
X0385030Y0070449D03*
X0385030Y0150992D03*
X0385030Y0152449D03*
X0385030Y0232992D03*
X0385030Y0234449D03*
X0385030Y0314992D03*
X0385030Y0316449D03*
X0385030Y0396992D03*
X0385030Y0398449D03*
D99*
X0385522Y0394551D03*
X0385522Y0312551D03*
X0385522Y0230551D03*
X0385522Y0148551D03*
X0385522Y0066551D03*
D100*
X0385758Y0066059D03*
X0385758Y0148059D03*
X0385758Y0230059D03*
X0385758Y0312059D03*
X0385758Y0394059D03*
D101*
X0360659Y0392110D03*
X0360659Y0310110D03*
X0360659Y0228110D03*
X0360659Y0146110D03*
X0360659Y0064110D03*
D102*
X0340187Y0063146D03*
X0340187Y0145146D03*
X0340187Y0227146D03*
X0340187Y0309146D03*
X0340187Y0391146D03*
D103*
X0224439Y0391146D03*
X0224439Y0309146D03*
X0224439Y0227146D03*
X0224439Y0145146D03*
X0224439Y0063146D03*
D104*
X0243671Y0062654D03*
X0293396Y0062654D03*
X0359695Y0062654D03*
X0359695Y0144654D03*
X0293396Y0144654D03*
X0243671Y0144654D03*
X0243671Y0226654D03*
X0293396Y0226654D03*
X0359695Y0226654D03*
X0359695Y0308654D03*
X0293396Y0308654D03*
X0243671Y0308654D03*
X0243671Y0390654D03*
X0293396Y0390654D03*
X0359695Y0390654D03*
D105*
X0340187Y0390654D03*
X0340187Y0308654D03*
X0340187Y0226654D03*
X0340187Y0144654D03*
X0340187Y0062654D03*
D106*
X0224183Y0062654D03*
X0224183Y0144654D03*
X0224183Y0226654D03*
X0224183Y0308654D03*
X0224183Y0390654D03*
D107*
X0224419Y0389669D03*
X0224419Y0307669D03*
X0224419Y0225669D03*
X0224419Y0143669D03*
X0224419Y0061669D03*
X0340443Y0061669D03*
X0340443Y0143669D03*
X0340443Y0225669D03*
X0340443Y0307669D03*
X0340443Y0389669D03*
D108*
X0272923Y0389177D03*
X0272923Y0307177D03*
X0272923Y0225177D03*
X0272923Y0143177D03*
X0272923Y0061177D03*
D109*
X0383317Y0060705D03*
X0383317Y0142705D03*
X0383317Y0224705D03*
X0383317Y0306705D03*
X0383317Y0388705D03*
D110*
X0290955Y0388705D03*
X0290955Y0306705D03*
X0290955Y0224705D03*
X0290955Y0142705D03*
X0290955Y0060705D03*
D111*
X0240522Y0060705D03*
X0240522Y0142705D03*
X0240522Y0224705D03*
X0240522Y0306705D03*
X0240522Y0388705D03*
D112*
X0349695Y0387720D03*
X0349695Y0387248D03*
X0349695Y0305720D03*
X0349695Y0305248D03*
X0349695Y0223720D03*
X0349695Y0223248D03*
X0349695Y0141720D03*
X0349695Y0141248D03*
X0349695Y0059720D03*
X0349695Y0059248D03*
D113*
X0348238Y0056807D03*
X0348238Y0138807D03*
X0348238Y0220807D03*
X0348238Y0302807D03*
X0348238Y0384807D03*
X0232215Y0384807D03*
X0232215Y0302807D03*
X0232215Y0220807D03*
X0232215Y0138807D03*
X0232215Y0056807D03*
D114*
X0348238Y0056315D03*
X0348238Y0138315D03*
X0348238Y0220315D03*
X0348238Y0302315D03*
X0348238Y0384315D03*
D115*
X0282411Y0384315D03*
X0282411Y0302315D03*
X0282411Y0220315D03*
X0282411Y0138315D03*
X0282411Y0056315D03*
D116*
X0231978Y0056315D03*
X0231978Y0138315D03*
X0231978Y0220315D03*
X0231978Y0302315D03*
X0231978Y0384315D03*
D117*
X0231978Y0383823D03*
X0231978Y0301823D03*
X0231978Y0219823D03*
X0231978Y0137823D03*
X0231978Y0055823D03*
D118*
X0282195Y0054858D03*
X0282195Y0136858D03*
X0282195Y0218858D03*
X0282195Y0300858D03*
X0282195Y0382858D03*
D119*
X0232215Y0382858D03*
X0232215Y0300858D03*
X0232215Y0218858D03*
X0232215Y0136858D03*
X0232215Y0054858D03*
D120*
X0347746Y0054366D03*
X0347746Y0136366D03*
X0347746Y0218366D03*
X0347746Y0300366D03*
X0347746Y0382366D03*
D121*
X0282175Y0382366D03*
X0282175Y0300366D03*
X0282175Y0218366D03*
X0282175Y0136366D03*
X0282175Y0054366D03*
D122*
X0231742Y0054366D03*
X0231742Y0136366D03*
X0231742Y0218366D03*
X0231742Y0300366D03*
X0231742Y0382366D03*
D123*
X0347982Y0381874D03*
X0347982Y0299874D03*
X0347982Y0217874D03*
X0347982Y0135874D03*
X0347982Y0053874D03*
D124*
X0328474Y0053874D03*
X0328474Y0135874D03*
X0328474Y0217874D03*
X0328474Y0299874D03*
X0328474Y0381874D03*
D125*
X0307293Y0381874D03*
X0257569Y0381874D03*
X0257569Y0299874D03*
X0307293Y0299874D03*
X0307293Y0217874D03*
X0257569Y0217874D03*
X0257569Y0135874D03*
X0307293Y0135874D03*
X0307293Y0053874D03*
X0257569Y0053874D03*
D126*
X0231978Y0053874D03*
X0231978Y0135874D03*
X0231978Y0217874D03*
X0231978Y0299874D03*
X0231978Y0381874D03*
D127*
X0382352Y0381382D03*
X0382352Y0299382D03*
X0382352Y0217382D03*
X0382352Y0135382D03*
X0382352Y0053382D03*
D128*
X0282431Y0053382D03*
X0282431Y0135382D03*
X0282431Y0217382D03*
X0282431Y0299382D03*
X0282431Y0381382D03*
D129*
X0328494Y0380909D03*
X0328494Y0298909D03*
X0328494Y0216909D03*
X0328494Y0134909D03*
X0328494Y0052909D03*
D130*
X0307274Y0052909D03*
X0307274Y0134909D03*
X0307274Y0216909D03*
X0307274Y0298909D03*
X0307274Y0380909D03*
D131*
X0282195Y0380909D03*
X0282195Y0298909D03*
X0282195Y0216909D03*
X0282195Y0134909D03*
X0282195Y0052909D03*
D132*
X0257569Y0052909D03*
X0257569Y0134909D03*
X0257569Y0216909D03*
X0257569Y0298909D03*
X0257569Y0380909D03*
D133*
X0382352Y0380417D03*
X0382352Y0298417D03*
X0382352Y0216417D03*
X0382352Y0134417D03*
X0382352Y0052417D03*
D134*
X0328494Y0052417D03*
X0328494Y0134417D03*
X0328494Y0216417D03*
X0328494Y0298417D03*
X0328494Y0380417D03*
D135*
X0307293Y0380417D03*
X0257569Y0380417D03*
X0257569Y0298417D03*
X0307293Y0298417D03*
X0307293Y0216417D03*
X0257569Y0216417D03*
X0257569Y0134417D03*
X0307293Y0134417D03*
X0307293Y0052417D03*
X0257569Y0052417D03*
D136*
X0282175Y0051925D03*
X0282175Y0133925D03*
X0282175Y0215925D03*
X0282175Y0297925D03*
X0282175Y0379925D03*
D137*
X0172569Y0409098D03*
X0172569Y0417012D03*
X0172569Y0335012D03*
X0172569Y0327098D03*
X0172569Y0253012D03*
X0172569Y0245098D03*
X0172569Y0171012D03*
X0172569Y0163098D03*
X0172569Y0089012D03*
X0172569Y0081098D03*
D138*
X0136053Y0089012D03*
X0136053Y0171012D03*
X0136053Y0253012D03*
X0136053Y0335012D03*
X0136053Y0417012D03*
D139*
X0099183Y0417012D03*
X0077726Y0379374D03*
X0099183Y0335012D03*
X0077726Y0297374D03*
X0099183Y0253012D03*
X0077726Y0215374D03*
X0099183Y0171012D03*
X0077726Y0133374D03*
X0099183Y0089012D03*
X0077726Y0051374D03*
X0172569Y0051374D03*
X0172569Y0133374D03*
X0172569Y0215374D03*
X0172569Y0297374D03*
X0172569Y0379374D03*
D140*
X0077726Y0417012D03*
X0054774Y0417012D03*
X0054774Y0335012D03*
X0077726Y0335012D03*
X0077726Y0253012D03*
X0054774Y0253012D03*
X0054774Y0171012D03*
X0077726Y0171012D03*
X0077726Y0089012D03*
X0054774Y0089012D03*
D141*
X0172569Y0088638D03*
X0172569Y0170638D03*
X0172569Y0252638D03*
X0172569Y0334638D03*
X0172569Y0416638D03*
D142*
X0139813Y0401205D03*
X0139813Y0394433D03*
X0136073Y0416638D03*
X0099183Y0413252D03*
X0099183Y0331252D03*
X0136073Y0334638D03*
X0139813Y0319205D03*
X0139813Y0312433D03*
X0136073Y0252638D03*
X0139813Y0237205D03*
X0139813Y0230433D03*
X0099183Y0249252D03*
X0136073Y0170638D03*
X0139813Y0155205D03*
X0139813Y0148433D03*
X0099183Y0167252D03*
X0136073Y0088638D03*
X0139813Y0073205D03*
X0139813Y0066433D03*
X0099183Y0085252D03*
D143*
X0099183Y0088638D03*
X0077726Y0087890D03*
X0054774Y0087890D03*
X0077726Y0051748D03*
X0077726Y0133748D03*
X0077726Y0169890D03*
X0054774Y0169890D03*
X0099183Y0170638D03*
X0077726Y0215748D03*
X0077726Y0251890D03*
X0054774Y0251890D03*
X0099183Y0252638D03*
X0077726Y0297748D03*
X0077726Y0333890D03*
X0054774Y0333890D03*
X0099183Y0334638D03*
X0077726Y0379748D03*
X0077726Y0415890D03*
X0054774Y0415890D03*
X0099183Y0416638D03*
X0172569Y0379748D03*
X0172569Y0297748D03*
X0172569Y0215748D03*
X0172569Y0133748D03*
X0172569Y0051748D03*
D144*
X0090541Y0061906D03*
X0090541Y0077339D03*
X0077746Y0088638D03*
X0090541Y0143906D03*
X0090541Y0159339D03*
X0077746Y0170638D03*
X0090541Y0225906D03*
X0090541Y0241339D03*
X0077746Y0252638D03*
X0090541Y0307906D03*
X0090541Y0323339D03*
X0077746Y0334638D03*
X0090541Y0389906D03*
X0090541Y0405339D03*
X0077746Y0416638D03*
D145*
X0054774Y0416638D03*
X0054774Y0334638D03*
X0054774Y0252638D03*
X0054774Y0170638D03*
X0054774Y0088638D03*
D146*
X0172549Y0088264D03*
X0172549Y0170264D03*
X0172549Y0252264D03*
X0172549Y0334264D03*
X0172549Y0416264D03*
D147*
X0136250Y0416264D03*
X0136250Y0334264D03*
X0136250Y0252264D03*
X0136250Y0170264D03*
X0136250Y0088264D03*
D148*
X0098809Y0088264D03*
X0098809Y0170264D03*
X0098809Y0252264D03*
X0098809Y0334264D03*
X0098809Y0416264D03*
D149*
X0077726Y0416264D03*
X0054774Y0416264D03*
X0054774Y0334264D03*
X0077726Y0334264D03*
X0077726Y0252264D03*
X0054774Y0252264D03*
X0054774Y0170264D03*
X0077726Y0170264D03*
X0077726Y0088264D03*
X0054774Y0088264D03*
D150*
X0172569Y0087890D03*
X0172569Y0169890D03*
X0172569Y0251890D03*
X0172569Y0333890D03*
X0172569Y0415890D03*
D151*
X0136447Y0415890D03*
X0099951Y0410614D03*
X0136447Y0333890D03*
X0099951Y0328614D03*
X0136447Y0251890D03*
X0099951Y0246614D03*
X0136447Y0169890D03*
X0099951Y0164614D03*
X0136447Y0087890D03*
X0099951Y0082614D03*
D152*
X0098809Y0087890D03*
X0108967Y0059661D03*
X0108967Y0141661D03*
X0098809Y0169890D03*
X0108967Y0223661D03*
X0098809Y0251890D03*
X0108967Y0305661D03*
X0098809Y0333890D03*
X0108967Y0387661D03*
X0098809Y0415890D03*
D153*
X0172766Y0415516D03*
X0172766Y0410988D03*
X0172766Y0333516D03*
X0172766Y0328988D03*
X0172766Y0251516D03*
X0172766Y0246988D03*
X0172766Y0169516D03*
X0172766Y0164988D03*
X0172766Y0087516D03*
X0172766Y0082988D03*
D154*
X0136250Y0087516D03*
X0101250Y0058894D03*
X0101250Y0140894D03*
X0136250Y0169516D03*
X0101250Y0222894D03*
X0136250Y0251516D03*
X0101250Y0304894D03*
X0136250Y0333516D03*
X0101250Y0386894D03*
X0136250Y0415516D03*
D155*
X0098986Y0415516D03*
X0098986Y0333516D03*
X0098986Y0251516D03*
X0098986Y0169516D03*
X0098986Y0087516D03*
D156*
X0077726Y0087516D03*
X0077726Y0169516D03*
X0077726Y0251516D03*
X0077726Y0333516D03*
X0077726Y0415516D03*
D157*
X0054577Y0415516D03*
X0054577Y0415122D03*
X0054577Y0333516D03*
X0054577Y0333122D03*
X0054577Y0251516D03*
X0054577Y0251122D03*
X0054577Y0169516D03*
X0054577Y0169122D03*
X0054577Y0087516D03*
X0054577Y0087122D03*
D158*
X0172569Y0087122D03*
X0172569Y0086374D03*
X0172569Y0083736D03*
X0172569Y0165736D03*
X0172569Y0168374D03*
X0172569Y0169122D03*
X0172569Y0247736D03*
X0172569Y0250374D03*
X0172569Y0251122D03*
X0172569Y0329736D03*
X0172569Y0332374D03*
X0172569Y0333122D03*
X0172569Y0411736D03*
X0172569Y0414374D03*
X0172569Y0415122D03*
D159*
X0136427Y0415122D03*
X0137175Y0387287D03*
X0101427Y0387287D03*
X0100679Y0386146D03*
X0100679Y0409098D03*
X0100325Y0409492D03*
X0136427Y0333122D03*
X0137175Y0305287D03*
X0101427Y0305287D03*
X0100679Y0304146D03*
X0100679Y0327098D03*
X0100325Y0327492D03*
X0136427Y0251122D03*
X0137175Y0223287D03*
X0101427Y0223287D03*
X0100679Y0222146D03*
X0100679Y0245098D03*
X0100325Y0245492D03*
X0136427Y0169122D03*
X0137175Y0141287D03*
X0101427Y0141287D03*
X0100679Y0140146D03*
X0100679Y0163098D03*
X0100325Y0163492D03*
X0136427Y0087122D03*
X0137175Y0059287D03*
X0101427Y0059287D03*
X0100679Y0058146D03*
X0100679Y0081098D03*
X0100325Y0081492D03*
D160*
X0098986Y0087122D03*
X0098986Y0169122D03*
X0098986Y0251122D03*
X0098986Y0333122D03*
X0098986Y0415122D03*
D161*
X0077726Y0415122D03*
X0077726Y0380516D03*
X0077726Y0380122D03*
X0054774Y0380122D03*
X0077726Y0333122D03*
X0077726Y0298516D03*
X0077726Y0298122D03*
X0054774Y0298122D03*
X0077726Y0251122D03*
X0077726Y0216516D03*
X0077726Y0216122D03*
X0054774Y0216122D03*
X0077726Y0169122D03*
X0077726Y0134516D03*
X0077726Y0134122D03*
X0054774Y0134122D03*
X0077726Y0087122D03*
X0077726Y0052516D03*
X0077726Y0052122D03*
X0054774Y0052122D03*
X0172569Y0052122D03*
X0172569Y0052516D03*
X0172569Y0134122D03*
X0172569Y0134516D03*
X0172569Y0216122D03*
X0172569Y0216516D03*
X0172569Y0298122D03*
X0172569Y0298516D03*
X0172569Y0380122D03*
X0172569Y0380516D03*
D162*
X0172569Y0411362D03*
X0172569Y0412110D03*
X0172569Y0414000D03*
X0172569Y0414748D03*
X0172569Y0332748D03*
X0172569Y0332000D03*
X0172569Y0330110D03*
X0172569Y0329362D03*
X0172569Y0250748D03*
X0172569Y0250000D03*
X0172569Y0248110D03*
X0172569Y0247362D03*
X0172569Y0168748D03*
X0172569Y0168000D03*
X0172569Y0166110D03*
X0172569Y0165362D03*
X0172569Y0086748D03*
X0172569Y0086000D03*
X0172569Y0084110D03*
X0172569Y0083362D03*
D163*
X0136801Y0080724D03*
X0136447Y0085252D03*
X0136447Y0086000D03*
X0136447Y0086748D03*
X0136801Y0058520D03*
X0136447Y0053638D03*
X0136447Y0052890D03*
X0136447Y0134890D03*
X0136447Y0135638D03*
X0136801Y0140520D03*
X0136801Y0162724D03*
X0136447Y0167252D03*
X0136447Y0168000D03*
X0136447Y0168748D03*
X0136447Y0216890D03*
X0136447Y0217638D03*
X0136801Y0222520D03*
X0136801Y0244724D03*
X0136447Y0249252D03*
X0136447Y0250000D03*
X0136447Y0250748D03*
X0136447Y0298890D03*
X0136447Y0299638D03*
X0136801Y0304520D03*
X0136801Y0326724D03*
X0136447Y0331252D03*
X0136447Y0332000D03*
X0136447Y0332748D03*
X0136447Y0380890D03*
X0136447Y0381638D03*
X0136801Y0386520D03*
X0136801Y0408724D03*
X0136447Y0413252D03*
X0136447Y0414000D03*
X0136447Y0414748D03*
D164*
X0098986Y0414748D03*
X0098986Y0332748D03*
X0098986Y0250748D03*
X0098986Y0168748D03*
X0098986Y0086748D03*
D165*
X0077923Y0086748D03*
X0077923Y0086000D03*
X0077923Y0168000D03*
X0077923Y0168748D03*
X0077923Y0250000D03*
X0077923Y0250748D03*
X0077923Y0332000D03*
X0077923Y0332748D03*
X0077923Y0414000D03*
X0077923Y0414748D03*
D166*
X0054596Y0414748D03*
X0054596Y0414000D03*
X0091841Y0387661D03*
X0114045Y0395181D03*
X0114045Y0395929D03*
X0054596Y0380890D03*
X0054596Y0332748D03*
X0054596Y0332000D03*
X0054596Y0298890D03*
X0091841Y0305661D03*
X0114045Y0313181D03*
X0114045Y0313929D03*
X0172746Y0313929D03*
X0172746Y0313181D03*
X0172746Y0312433D03*
X0172746Y0311685D03*
X0172746Y0310543D03*
X0172746Y0309795D03*
X0172746Y0309047D03*
X0172746Y0307906D03*
X0172746Y0307157D03*
X0172746Y0306409D03*
X0172746Y0305661D03*
X0172746Y0304520D03*
X0172746Y0303772D03*
X0172746Y0303024D03*
X0172746Y0302276D03*
X0172746Y0301134D03*
X0172746Y0300386D03*
X0172746Y0299638D03*
X0172746Y0315071D03*
X0172746Y0315819D03*
X0172746Y0316567D03*
X0172746Y0317315D03*
X0172746Y0318457D03*
X0172746Y0319205D03*
X0172746Y0319953D03*
X0172746Y0321094D03*
X0172746Y0321843D03*
X0172746Y0322591D03*
X0172746Y0323339D03*
X0172746Y0324480D03*
X0172746Y0325228D03*
X0172746Y0325976D03*
X0172746Y0326724D03*
X0172746Y0381638D03*
X0172746Y0382386D03*
X0172746Y0383134D03*
X0172746Y0384276D03*
X0172746Y0385024D03*
X0172746Y0385772D03*
X0172746Y0386520D03*
X0172746Y0387661D03*
X0172746Y0388409D03*
X0172746Y0389157D03*
X0172746Y0389906D03*
X0172746Y0391047D03*
X0172746Y0391795D03*
X0172746Y0392543D03*
X0172746Y0393685D03*
X0172746Y0394433D03*
X0172746Y0395181D03*
X0172746Y0395929D03*
X0172746Y0397071D03*
X0172746Y0397819D03*
X0172746Y0398567D03*
X0172746Y0399315D03*
X0172746Y0400457D03*
X0172746Y0401205D03*
X0172746Y0401953D03*
X0172746Y0403094D03*
X0172746Y0403843D03*
X0172746Y0404591D03*
X0172746Y0405339D03*
X0172746Y0406480D03*
X0172746Y0407228D03*
X0172746Y0407976D03*
X0172746Y0408724D03*
X0054596Y0250748D03*
X0054596Y0250000D03*
X0054596Y0216890D03*
X0091841Y0223661D03*
X0114045Y0231181D03*
X0114045Y0231929D03*
X0172746Y0231929D03*
X0172746Y0231181D03*
X0172746Y0230433D03*
X0172746Y0229685D03*
X0172746Y0228543D03*
X0172746Y0227795D03*
X0172746Y0227047D03*
X0172746Y0225906D03*
X0172746Y0225157D03*
X0172746Y0224409D03*
X0172746Y0223661D03*
X0172746Y0222520D03*
X0172746Y0221772D03*
X0172746Y0221024D03*
X0172746Y0220276D03*
X0172746Y0219134D03*
X0172746Y0218386D03*
X0172746Y0217638D03*
X0172746Y0233071D03*
X0172746Y0233819D03*
X0172746Y0234567D03*
X0172746Y0235315D03*
X0172746Y0236457D03*
X0172746Y0237205D03*
X0172746Y0237953D03*
X0172746Y0239094D03*
X0172746Y0239843D03*
X0172746Y0240591D03*
X0172746Y0241339D03*
X0172746Y0242480D03*
X0172746Y0243228D03*
X0172746Y0243976D03*
X0172746Y0244724D03*
X0172746Y0162724D03*
X0172746Y0161976D03*
X0172746Y0161228D03*
X0172746Y0160480D03*
X0172746Y0159339D03*
X0172746Y0158591D03*
X0172746Y0157843D03*
X0172746Y0157094D03*
X0172746Y0155953D03*
X0172746Y0155205D03*
X0172746Y0154457D03*
X0172746Y0153315D03*
X0172746Y0152567D03*
X0172746Y0151819D03*
X0172746Y0151071D03*
X0172746Y0149929D03*
X0172746Y0149181D03*
X0172746Y0148433D03*
X0172746Y0147685D03*
X0172746Y0146543D03*
X0172746Y0145795D03*
X0172746Y0145047D03*
X0172746Y0143906D03*
X0172746Y0143157D03*
X0172746Y0142409D03*
X0172746Y0141661D03*
X0172746Y0140520D03*
X0172746Y0139772D03*
X0172746Y0139024D03*
X0172746Y0138276D03*
X0172746Y0137134D03*
X0172746Y0136386D03*
X0172746Y0135638D03*
X0172746Y0080724D03*
X0172746Y0079976D03*
X0172746Y0079228D03*
X0172746Y0078480D03*
X0172746Y0077339D03*
X0172746Y0076591D03*
X0172746Y0075843D03*
X0172746Y0075094D03*
X0172746Y0073953D03*
X0172746Y0073205D03*
X0172746Y0072457D03*
X0172746Y0071315D03*
X0172746Y0070567D03*
X0172746Y0069819D03*
X0172746Y0069071D03*
X0172746Y0067929D03*
X0172746Y0067181D03*
X0172746Y0066433D03*
X0172746Y0065685D03*
X0172746Y0064543D03*
X0172746Y0063795D03*
X0172746Y0063047D03*
X0172746Y0061906D03*
X0172746Y0061157D03*
X0172746Y0060409D03*
X0172746Y0059661D03*
X0172746Y0058520D03*
X0172746Y0057772D03*
X0172746Y0057024D03*
X0172746Y0056276D03*
X0172746Y0055134D03*
X0172746Y0054386D03*
X0172746Y0053638D03*
X0114045Y0067181D03*
X0114045Y0067929D03*
X0091841Y0059661D03*
X0054596Y0052890D03*
X0054596Y0086000D03*
X0054596Y0086748D03*
X0054596Y0134890D03*
X0054596Y0168000D03*
X0054596Y0168748D03*
X0091841Y0141661D03*
X0114045Y0149181D03*
X0114045Y0149929D03*
D167*
X0136801Y0140146D03*
X0136447Y0135264D03*
X0136447Y0134516D03*
X0136801Y0163098D03*
X0136801Y0163492D03*
X0136447Y0167626D03*
X0136447Y0168374D03*
X0136447Y0216516D03*
X0136447Y0217264D03*
X0136801Y0222146D03*
X0136801Y0245098D03*
X0136801Y0245492D03*
X0136447Y0249626D03*
X0136447Y0250374D03*
X0136447Y0298516D03*
X0136447Y0299264D03*
X0136801Y0304146D03*
X0136801Y0327098D03*
X0136801Y0327492D03*
X0136447Y0331626D03*
X0136447Y0332374D03*
X0136447Y0380516D03*
X0136447Y0381264D03*
X0136801Y0386146D03*
X0136801Y0409098D03*
X0136801Y0409492D03*
X0136447Y0413626D03*
X0136447Y0414374D03*
X0136447Y0086374D03*
X0136447Y0085626D03*
X0136801Y0081492D03*
X0136801Y0081098D03*
X0136801Y0058146D03*
X0136447Y0053264D03*
X0136447Y0052516D03*
D168*
X0098809Y0086374D03*
X0098809Y0168374D03*
X0098809Y0250374D03*
X0098809Y0332374D03*
X0098809Y0414374D03*
D169*
X0077923Y0414374D03*
X0077923Y0332374D03*
X0077923Y0250374D03*
X0077923Y0168374D03*
X0077923Y0086374D03*
D170*
X0054596Y0086374D03*
X0054596Y0085626D03*
X0054596Y0053264D03*
X0054596Y0052516D03*
X0114045Y0067555D03*
X0114045Y0071689D03*
X0172746Y0071689D03*
X0172746Y0072083D03*
X0172746Y0072831D03*
X0172746Y0073579D03*
X0172746Y0074327D03*
X0172746Y0074720D03*
X0172746Y0075469D03*
X0172746Y0076217D03*
X0172746Y0076965D03*
X0172746Y0077713D03*
X0172746Y0078106D03*
X0172746Y0078854D03*
X0172746Y0079602D03*
X0172746Y0080350D03*
X0172746Y0070941D03*
X0172746Y0070193D03*
X0172746Y0069445D03*
X0172746Y0068697D03*
X0172746Y0068303D03*
X0172746Y0067555D03*
X0172746Y0066807D03*
X0172746Y0066059D03*
X0172746Y0065311D03*
X0172746Y0064917D03*
X0172746Y0064169D03*
X0172746Y0063421D03*
X0172746Y0062673D03*
X0172746Y0062280D03*
X0172746Y0061531D03*
X0172746Y0060783D03*
X0172746Y0060035D03*
X0172746Y0059287D03*
X0172746Y0058894D03*
X0172746Y0058146D03*
X0172746Y0057398D03*
X0172746Y0056650D03*
X0172746Y0055902D03*
X0172746Y0055508D03*
X0172746Y0054760D03*
X0172746Y0054012D03*
X0172746Y0053264D03*
X0172746Y0135264D03*
X0172746Y0136012D03*
X0172746Y0136760D03*
X0172746Y0137508D03*
X0172746Y0137902D03*
X0172746Y0138650D03*
X0172746Y0139398D03*
X0172746Y0140146D03*
X0172746Y0140894D03*
X0172746Y0141287D03*
X0172746Y0142035D03*
X0172746Y0142783D03*
X0172746Y0143531D03*
X0172746Y0144280D03*
X0172746Y0144673D03*
X0172746Y0145421D03*
X0172746Y0146169D03*
X0172746Y0146917D03*
X0172746Y0147311D03*
X0172746Y0148059D03*
X0172746Y0148807D03*
X0172746Y0149555D03*
X0172746Y0150303D03*
X0172746Y0150697D03*
X0172746Y0151445D03*
X0172746Y0152193D03*
X0172746Y0152941D03*
X0172746Y0153689D03*
X0172746Y0154083D03*
X0172746Y0154831D03*
X0172746Y0155579D03*
X0172746Y0156327D03*
X0172746Y0156720D03*
X0172746Y0157469D03*
X0172746Y0158217D03*
X0172746Y0158965D03*
X0172746Y0159713D03*
X0172746Y0160106D03*
X0172746Y0160854D03*
X0172746Y0161602D03*
X0172746Y0162350D03*
X0172746Y0217264D03*
X0172746Y0218012D03*
X0172746Y0218760D03*
X0172746Y0219508D03*
X0172746Y0219902D03*
X0172746Y0220650D03*
X0172746Y0221398D03*
X0172746Y0222146D03*
X0172746Y0222894D03*
X0172746Y0223287D03*
X0172746Y0224035D03*
X0172746Y0224783D03*
X0172746Y0225531D03*
X0172746Y0226280D03*
X0172746Y0226673D03*
X0172746Y0227421D03*
X0172746Y0228169D03*
X0172746Y0228917D03*
X0172746Y0229311D03*
X0172746Y0230059D03*
X0172746Y0230807D03*
X0172746Y0231555D03*
X0172746Y0232303D03*
X0172746Y0232697D03*
X0172746Y0233445D03*
X0172746Y0234193D03*
X0172746Y0234941D03*
X0172746Y0235689D03*
X0172746Y0236083D03*
X0172746Y0236831D03*
X0172746Y0237579D03*
X0172746Y0238327D03*
X0172746Y0238720D03*
X0172746Y0239469D03*
X0172746Y0240217D03*
X0172746Y0240965D03*
X0172746Y0241713D03*
X0172746Y0242106D03*
X0172746Y0242854D03*
X0172746Y0243602D03*
X0172746Y0244350D03*
X0172746Y0299264D03*
X0172746Y0300012D03*
X0172746Y0300760D03*
X0172746Y0301508D03*
X0172746Y0301902D03*
X0172746Y0302650D03*
X0172746Y0303398D03*
X0172746Y0304146D03*
X0172746Y0304894D03*
X0172746Y0305287D03*
X0172746Y0306035D03*
X0172746Y0306783D03*
X0172746Y0307531D03*
X0172746Y0308280D03*
X0172746Y0308673D03*
X0172746Y0309421D03*
X0172746Y0310169D03*
X0172746Y0310917D03*
X0172746Y0311311D03*
X0172746Y0312059D03*
X0172746Y0312807D03*
X0172746Y0313555D03*
X0172746Y0314303D03*
X0172746Y0314697D03*
X0172746Y0315445D03*
X0172746Y0316193D03*
X0172746Y0316941D03*
X0172746Y0317689D03*
X0172746Y0318083D03*
X0172746Y0318831D03*
X0172746Y0319579D03*
X0172746Y0320327D03*
X0172746Y0320720D03*
X0172746Y0321469D03*
X0172746Y0322217D03*
X0172746Y0322965D03*
X0172746Y0323713D03*
X0172746Y0324106D03*
X0172746Y0324854D03*
X0172746Y0325602D03*
X0172746Y0326350D03*
X0172746Y0381264D03*
X0172746Y0382012D03*
X0172746Y0382760D03*
X0172746Y0383508D03*
X0172746Y0383902D03*
X0172746Y0384650D03*
X0172746Y0385398D03*
X0172746Y0386146D03*
X0172746Y0386894D03*
X0172746Y0387287D03*
X0172746Y0388035D03*
X0172746Y0388783D03*
X0172746Y0389531D03*
X0172746Y0390280D03*
X0172746Y0390673D03*
X0172746Y0391421D03*
X0172746Y0392169D03*
X0172746Y0392917D03*
X0172746Y0393311D03*
X0172746Y0394059D03*
X0172746Y0394807D03*
X0172746Y0395555D03*
X0172746Y0396303D03*
X0172746Y0396697D03*
X0172746Y0397445D03*
X0172746Y0398193D03*
X0172746Y0398941D03*
X0172746Y0399689D03*
X0172746Y0400083D03*
X0172746Y0400831D03*
X0172746Y0401579D03*
X0172746Y0402327D03*
X0172746Y0402720D03*
X0172746Y0403469D03*
X0172746Y0404217D03*
X0172746Y0404965D03*
X0172746Y0405713D03*
X0172746Y0406106D03*
X0172746Y0406854D03*
X0172746Y0407602D03*
X0172746Y0408350D03*
X0114045Y0399689D03*
X0114045Y0395555D03*
X0054596Y0381264D03*
X0054596Y0380516D03*
X0054596Y0413626D03*
X0054596Y0414374D03*
X0054596Y0332374D03*
X0054596Y0331626D03*
X0054596Y0299264D03*
X0054596Y0298516D03*
X0054596Y0250374D03*
X0054596Y0249626D03*
X0054596Y0217264D03*
X0054596Y0216516D03*
X0054596Y0168374D03*
X0054596Y0167626D03*
X0054596Y0135264D03*
X0054596Y0134516D03*
X0114045Y0149555D03*
X0114045Y0153689D03*
X0114045Y0231555D03*
X0114045Y0235689D03*
X0114045Y0313555D03*
X0114045Y0317689D03*
D171*
X0098986Y0332000D03*
X0098986Y0250000D03*
X0098986Y0168000D03*
X0098986Y0086000D03*
X0098986Y0414000D03*
D172*
X0172746Y0413626D03*
X0172746Y0412878D03*
X0172746Y0412484D03*
X0172746Y0331626D03*
X0172746Y0330878D03*
X0172746Y0330484D03*
X0172746Y0249626D03*
X0172746Y0248878D03*
X0172746Y0248484D03*
X0172746Y0167626D03*
X0172746Y0166878D03*
X0172746Y0166484D03*
X0172746Y0085626D03*
X0172746Y0084878D03*
X0172746Y0084484D03*
D173*
X0098986Y0085626D03*
X0098986Y0167626D03*
X0098986Y0249626D03*
X0098986Y0331626D03*
X0098986Y0413626D03*
D174*
X0113848Y0400083D03*
X0114242Y0398941D03*
X0114242Y0398193D03*
X0114242Y0397445D03*
X0114242Y0396697D03*
X0114242Y0396303D03*
X0113848Y0394807D03*
X0146959Y0392169D03*
X0146959Y0391421D03*
X0146959Y0390673D03*
X0146959Y0390280D03*
X0146959Y0389531D03*
X0146959Y0388783D03*
X0146959Y0403469D03*
X0146959Y0404217D03*
X0146959Y0404965D03*
X0146959Y0405713D03*
X0146959Y0406106D03*
X0146959Y0406854D03*
X0077746Y0406854D03*
X0077746Y0406106D03*
X0077746Y0405713D03*
X0077746Y0404965D03*
X0077746Y0404217D03*
X0077746Y0403469D03*
X0077746Y0402720D03*
X0077746Y0402327D03*
X0077746Y0407602D03*
X0077746Y0408350D03*
X0077746Y0409098D03*
X0077746Y0409492D03*
X0077746Y0410240D03*
X0077746Y0410988D03*
X0077746Y0411736D03*
X0077746Y0412484D03*
X0077746Y0412878D03*
X0077746Y0413626D03*
X0077746Y0393311D03*
X0077746Y0392917D03*
X0077746Y0392169D03*
X0077746Y0391421D03*
X0077746Y0390673D03*
X0077746Y0390280D03*
X0077746Y0389531D03*
X0077746Y0388783D03*
X0077746Y0388035D03*
X0077746Y0387287D03*
X0077746Y0386894D03*
X0077746Y0386146D03*
X0077746Y0385398D03*
X0077746Y0384650D03*
X0077746Y0383902D03*
X0077746Y0383508D03*
X0077746Y0382760D03*
X0077746Y0382012D03*
X0077746Y0381264D03*
X0077746Y0331626D03*
X0077746Y0330878D03*
X0077746Y0330484D03*
X0077746Y0329736D03*
X0077746Y0328988D03*
X0077746Y0328240D03*
X0077746Y0327492D03*
X0077746Y0327098D03*
X0077746Y0326350D03*
X0077746Y0325602D03*
X0077746Y0324854D03*
X0077746Y0324106D03*
X0077746Y0323713D03*
X0077746Y0322965D03*
X0077746Y0322217D03*
X0077746Y0321469D03*
X0077746Y0320720D03*
X0077746Y0320327D03*
X0077746Y0311311D03*
X0077746Y0310917D03*
X0077746Y0310169D03*
X0077746Y0309421D03*
X0077746Y0308673D03*
X0077746Y0308280D03*
X0077746Y0307531D03*
X0077746Y0306783D03*
X0077746Y0306035D03*
X0077746Y0305287D03*
X0077746Y0304894D03*
X0077746Y0304146D03*
X0077746Y0303398D03*
X0077746Y0302650D03*
X0077746Y0301902D03*
X0077746Y0301508D03*
X0077746Y0300760D03*
X0077746Y0300012D03*
X0077746Y0299264D03*
X0113848Y0312807D03*
X0114242Y0314303D03*
X0114242Y0314697D03*
X0114242Y0315445D03*
X0114242Y0316193D03*
X0114242Y0316941D03*
X0113848Y0318083D03*
X0146959Y0321469D03*
X0146959Y0322217D03*
X0146959Y0322965D03*
X0146959Y0323713D03*
X0146959Y0324106D03*
X0146959Y0324854D03*
X0146959Y0310169D03*
X0146959Y0309421D03*
X0146959Y0308673D03*
X0146959Y0308280D03*
X0146959Y0307531D03*
X0146959Y0306783D03*
X0146959Y0242854D03*
X0146959Y0242106D03*
X0146959Y0241713D03*
X0146959Y0240965D03*
X0146959Y0240217D03*
X0146959Y0239469D03*
X0146959Y0228169D03*
X0146959Y0227421D03*
X0146959Y0226673D03*
X0146959Y0226280D03*
X0146959Y0225531D03*
X0146959Y0224783D03*
X0114242Y0232303D03*
X0114242Y0232697D03*
X0114242Y0233445D03*
X0114242Y0234193D03*
X0114242Y0234941D03*
X0113848Y0236083D03*
X0113848Y0230807D03*
X0077746Y0229311D03*
X0077746Y0228917D03*
X0077746Y0228169D03*
X0077746Y0227421D03*
X0077746Y0226673D03*
X0077746Y0226280D03*
X0077746Y0225531D03*
X0077746Y0224783D03*
X0077746Y0224035D03*
X0077746Y0223287D03*
X0077746Y0222894D03*
X0077746Y0222146D03*
X0077746Y0221398D03*
X0077746Y0220650D03*
X0077746Y0219902D03*
X0077746Y0219508D03*
X0077746Y0218760D03*
X0077746Y0218012D03*
X0077746Y0217264D03*
X0077746Y0238327D03*
X0077746Y0238720D03*
X0077746Y0239469D03*
X0077746Y0240217D03*
X0077746Y0240965D03*
X0077746Y0241713D03*
X0077746Y0242106D03*
X0077746Y0242854D03*
X0077746Y0243602D03*
X0077746Y0244350D03*
X0077746Y0245098D03*
X0077746Y0245492D03*
X0077746Y0246240D03*
X0077746Y0246988D03*
X0077746Y0247736D03*
X0077746Y0248484D03*
X0077746Y0248878D03*
X0077746Y0249626D03*
X0077746Y0167626D03*
X0077746Y0166878D03*
X0077746Y0166484D03*
X0077746Y0165736D03*
X0077746Y0164988D03*
X0077746Y0164240D03*
X0077746Y0163492D03*
X0077746Y0163098D03*
X0077746Y0162350D03*
X0077746Y0161602D03*
X0077746Y0160854D03*
X0077746Y0160106D03*
X0077746Y0159713D03*
X0077746Y0158965D03*
X0077746Y0158217D03*
X0077746Y0157469D03*
X0077746Y0156720D03*
X0077746Y0156327D03*
X0077746Y0147311D03*
X0077746Y0146917D03*
X0077746Y0146169D03*
X0077746Y0145421D03*
X0077746Y0144673D03*
X0077746Y0144280D03*
X0077746Y0143531D03*
X0077746Y0142783D03*
X0077746Y0142035D03*
X0077746Y0141287D03*
X0077746Y0140894D03*
X0077746Y0140146D03*
X0077746Y0139398D03*
X0077746Y0138650D03*
X0077746Y0137902D03*
X0077746Y0137508D03*
X0077746Y0136760D03*
X0077746Y0136012D03*
X0077746Y0135264D03*
X0113848Y0148807D03*
X0114242Y0150303D03*
X0114242Y0150697D03*
X0114242Y0151445D03*
X0114242Y0152193D03*
X0114242Y0152941D03*
X0113848Y0154083D03*
X0146959Y0157469D03*
X0146959Y0158217D03*
X0146959Y0158965D03*
X0146959Y0159713D03*
X0146959Y0160106D03*
X0146959Y0160854D03*
X0146959Y0146169D03*
X0146959Y0145421D03*
X0146959Y0144673D03*
X0146959Y0144280D03*
X0146959Y0143531D03*
X0146959Y0142783D03*
X0146959Y0078854D03*
X0146959Y0078106D03*
X0146959Y0077713D03*
X0146959Y0076965D03*
X0146959Y0076217D03*
X0146959Y0075469D03*
X0146959Y0064169D03*
X0146959Y0063421D03*
X0146959Y0062673D03*
X0146959Y0062280D03*
X0146959Y0061531D03*
X0146959Y0060783D03*
X0114242Y0068303D03*
X0114242Y0068697D03*
X0114242Y0069445D03*
X0114242Y0070193D03*
X0114242Y0070941D03*
X0113848Y0072083D03*
X0113848Y0066807D03*
X0077746Y0065311D03*
X0077746Y0064917D03*
X0077746Y0064169D03*
X0077746Y0063421D03*
X0077746Y0062673D03*
X0077746Y0062280D03*
X0077746Y0061531D03*
X0077746Y0060783D03*
X0077746Y0060035D03*
X0077746Y0059287D03*
X0077746Y0058894D03*
X0077746Y0058146D03*
X0077746Y0057398D03*
X0077746Y0056650D03*
X0077746Y0055902D03*
X0077746Y0055508D03*
X0077746Y0054760D03*
X0077746Y0054012D03*
X0077746Y0053264D03*
X0077746Y0074327D03*
X0077746Y0074720D03*
X0077746Y0075469D03*
X0077746Y0076217D03*
X0077746Y0076965D03*
X0077746Y0077713D03*
X0077746Y0078106D03*
X0077746Y0078854D03*
X0077746Y0079602D03*
X0077746Y0080350D03*
X0077746Y0081098D03*
X0077746Y0081492D03*
X0077746Y0082240D03*
X0077746Y0082988D03*
X0077746Y0083736D03*
X0077746Y0084484D03*
X0077746Y0084878D03*
X0077746Y0085626D03*
D175*
X0172746Y0085252D03*
X0172746Y0167252D03*
X0172746Y0249252D03*
X0172746Y0331252D03*
X0172746Y0413252D03*
D176*
X0146959Y0406480D03*
X0146959Y0405339D03*
X0146959Y0404591D03*
X0146959Y0403843D03*
X0146959Y0403094D03*
X0146959Y0392543D03*
X0146959Y0391795D03*
X0146959Y0391047D03*
X0146959Y0389906D03*
X0146959Y0389157D03*
X0146959Y0388409D03*
X0114242Y0397071D03*
X0114242Y0397819D03*
X0114242Y0398567D03*
X0114242Y0399315D03*
X0077746Y0401953D03*
X0077746Y0403094D03*
X0077746Y0403843D03*
X0077746Y0404591D03*
X0077746Y0405339D03*
X0077746Y0406480D03*
X0077746Y0407228D03*
X0077746Y0407976D03*
X0077746Y0408724D03*
X0077746Y0409866D03*
X0077746Y0410614D03*
X0077746Y0411362D03*
X0077746Y0412110D03*
X0077746Y0413252D03*
X0077746Y0392543D03*
X0077746Y0391795D03*
X0077746Y0391047D03*
X0077746Y0389906D03*
X0077746Y0389157D03*
X0077746Y0388409D03*
X0077746Y0387661D03*
X0077746Y0386520D03*
X0077746Y0385772D03*
X0077746Y0385024D03*
X0077746Y0384276D03*
X0077746Y0383134D03*
X0077746Y0382386D03*
X0077746Y0381638D03*
X0077746Y0380890D03*
X0077746Y0331252D03*
X0077746Y0330110D03*
X0077746Y0329362D03*
X0077746Y0328614D03*
X0077746Y0327866D03*
X0077746Y0326724D03*
X0077746Y0325976D03*
X0077746Y0325228D03*
X0077746Y0324480D03*
X0077746Y0323339D03*
X0077746Y0322591D03*
X0077746Y0321843D03*
X0077746Y0321094D03*
X0077746Y0319953D03*
X0077746Y0310543D03*
X0077746Y0309795D03*
X0077746Y0309047D03*
X0077746Y0307906D03*
X0077746Y0307157D03*
X0077746Y0306409D03*
X0077746Y0305661D03*
X0077746Y0304520D03*
X0077746Y0303772D03*
X0077746Y0303024D03*
X0077746Y0302276D03*
X0077746Y0301134D03*
X0077746Y0300386D03*
X0077746Y0299638D03*
X0077746Y0298890D03*
X0114242Y0315071D03*
X0114242Y0315819D03*
X0114242Y0316567D03*
X0114242Y0317315D03*
X0146959Y0321094D03*
X0146959Y0321843D03*
X0146959Y0322591D03*
X0146959Y0323339D03*
X0146959Y0324480D03*
X0146959Y0310543D03*
X0146959Y0309795D03*
X0146959Y0309047D03*
X0146959Y0307906D03*
X0146959Y0307157D03*
X0146959Y0306409D03*
X0146959Y0242480D03*
X0146959Y0241339D03*
X0146959Y0240591D03*
X0146959Y0239843D03*
X0146959Y0239094D03*
X0146959Y0228543D03*
X0146959Y0227795D03*
X0146959Y0227047D03*
X0146959Y0225906D03*
X0146959Y0225157D03*
X0146959Y0224409D03*
X0114242Y0233071D03*
X0114242Y0233819D03*
X0114242Y0234567D03*
X0114242Y0235315D03*
X0077746Y0237953D03*
X0077746Y0239094D03*
X0077746Y0239843D03*
X0077746Y0240591D03*
X0077746Y0241339D03*
X0077746Y0242480D03*
X0077746Y0243228D03*
X0077746Y0243976D03*
X0077746Y0244724D03*
X0077746Y0245866D03*
X0077746Y0246614D03*
X0077746Y0247362D03*
X0077746Y0248110D03*
X0077746Y0249252D03*
X0077746Y0228543D03*
X0077746Y0227795D03*
X0077746Y0227047D03*
X0077746Y0225906D03*
X0077746Y0225157D03*
X0077746Y0224409D03*
X0077746Y0223661D03*
X0077746Y0222520D03*
X0077746Y0221772D03*
X0077746Y0221024D03*
X0077746Y0220276D03*
X0077746Y0219134D03*
X0077746Y0218386D03*
X0077746Y0217638D03*
X0077746Y0216890D03*
X0077746Y0167252D03*
X0077746Y0166110D03*
X0077746Y0165362D03*
X0077746Y0164614D03*
X0077746Y0163866D03*
X0077746Y0162724D03*
X0077746Y0161976D03*
X0077746Y0161228D03*
X0077746Y0160480D03*
X0077746Y0159339D03*
X0077746Y0158591D03*
X0077746Y0157843D03*
X0077746Y0157094D03*
X0077746Y0155953D03*
X0077746Y0146543D03*
X0077746Y0145795D03*
X0077746Y0145047D03*
X0077746Y0143906D03*
X0077746Y0143157D03*
X0077746Y0142409D03*
X0077746Y0141661D03*
X0077746Y0140520D03*
X0077746Y0139772D03*
X0077746Y0139024D03*
X0077746Y0138276D03*
X0077746Y0137134D03*
X0077746Y0136386D03*
X0077746Y0135638D03*
X0077746Y0134890D03*
X0114242Y0151071D03*
X0114242Y0151819D03*
X0114242Y0152567D03*
X0114242Y0153315D03*
X0146959Y0157094D03*
X0146959Y0157843D03*
X0146959Y0158591D03*
X0146959Y0159339D03*
X0146959Y0160480D03*
X0146959Y0146543D03*
X0146959Y0145795D03*
X0146959Y0145047D03*
X0146959Y0143906D03*
X0146959Y0143157D03*
X0146959Y0142409D03*
X0146959Y0078480D03*
X0146959Y0077339D03*
X0146959Y0076591D03*
X0146959Y0075843D03*
X0146959Y0075094D03*
X0146959Y0064543D03*
X0146959Y0063795D03*
X0146959Y0063047D03*
X0146959Y0061906D03*
X0146959Y0061157D03*
X0146959Y0060409D03*
X0114242Y0069071D03*
X0114242Y0069819D03*
X0114242Y0070567D03*
X0114242Y0071315D03*
X0077746Y0073953D03*
X0077746Y0075094D03*
X0077746Y0075843D03*
X0077746Y0076591D03*
X0077746Y0077339D03*
X0077746Y0078480D03*
X0077746Y0079228D03*
X0077746Y0079976D03*
X0077746Y0080724D03*
X0077746Y0081866D03*
X0077746Y0082614D03*
X0077746Y0083362D03*
X0077746Y0084110D03*
X0077746Y0085252D03*
X0077746Y0064543D03*
X0077746Y0063795D03*
X0077746Y0063047D03*
X0077746Y0061906D03*
X0077746Y0061157D03*
X0077746Y0060409D03*
X0077746Y0059661D03*
X0077746Y0058520D03*
X0077746Y0057772D03*
X0077746Y0057024D03*
X0077746Y0056276D03*
X0077746Y0055134D03*
X0077746Y0054386D03*
X0077746Y0053638D03*
X0077746Y0052890D03*
D177*
X0054774Y0053638D03*
X0054774Y0054386D03*
X0054774Y0055134D03*
X0054774Y0056276D03*
X0054774Y0057024D03*
X0054774Y0057772D03*
X0054774Y0058520D03*
X0054774Y0059661D03*
X0054774Y0060409D03*
X0054774Y0061157D03*
X0054774Y0061906D03*
X0054774Y0063047D03*
X0054774Y0063795D03*
X0054774Y0064543D03*
X0054774Y0073953D03*
X0054774Y0075094D03*
X0054774Y0075843D03*
X0054774Y0076591D03*
X0054774Y0077339D03*
X0054774Y0078480D03*
X0054774Y0079228D03*
X0054774Y0079976D03*
X0054774Y0080724D03*
X0054774Y0081866D03*
X0054774Y0082614D03*
X0054774Y0083362D03*
X0054774Y0084110D03*
X0054774Y0085252D03*
X0054774Y0135638D03*
X0054774Y0136386D03*
X0054774Y0137134D03*
X0054774Y0138276D03*
X0054774Y0139024D03*
X0054774Y0139772D03*
X0054774Y0140520D03*
X0054774Y0141661D03*
X0054774Y0142409D03*
X0054774Y0143157D03*
X0054774Y0143906D03*
X0054774Y0145047D03*
X0054774Y0145795D03*
X0054774Y0146543D03*
X0054774Y0155953D03*
X0054774Y0157094D03*
X0054774Y0157843D03*
X0054774Y0158591D03*
X0054774Y0159339D03*
X0054774Y0160480D03*
X0054774Y0161228D03*
X0054774Y0161976D03*
X0054774Y0162724D03*
X0054774Y0163866D03*
X0054774Y0164614D03*
X0054774Y0165362D03*
X0054774Y0166110D03*
X0054774Y0167252D03*
X0054774Y0217638D03*
X0054774Y0218386D03*
X0054774Y0219134D03*
X0054774Y0220276D03*
X0054774Y0221024D03*
X0054774Y0221772D03*
X0054774Y0222520D03*
X0054774Y0223661D03*
X0054774Y0224409D03*
X0054774Y0225157D03*
X0054774Y0225906D03*
X0054774Y0227047D03*
X0054774Y0227795D03*
X0054774Y0228543D03*
X0054774Y0237953D03*
X0054774Y0239094D03*
X0054774Y0239843D03*
X0054774Y0240591D03*
X0054774Y0241339D03*
X0054774Y0242480D03*
X0054774Y0243228D03*
X0054774Y0243976D03*
X0054774Y0244724D03*
X0054774Y0245866D03*
X0054774Y0246614D03*
X0054774Y0247362D03*
X0054774Y0248110D03*
X0054774Y0249252D03*
X0054774Y0299638D03*
X0054774Y0300386D03*
X0054774Y0301134D03*
X0054774Y0302276D03*
X0054774Y0303024D03*
X0054774Y0303772D03*
X0054774Y0304520D03*
X0054774Y0305661D03*
X0054774Y0306409D03*
X0054774Y0307157D03*
X0054774Y0307906D03*
X0054774Y0309047D03*
X0054774Y0309795D03*
X0054774Y0310543D03*
X0054774Y0319953D03*
X0054774Y0321094D03*
X0054774Y0321843D03*
X0054774Y0322591D03*
X0054774Y0323339D03*
X0054774Y0324480D03*
X0054774Y0325228D03*
X0054774Y0325976D03*
X0054774Y0326724D03*
X0054774Y0327866D03*
X0054774Y0328614D03*
X0054774Y0329362D03*
X0054774Y0330110D03*
X0054774Y0331252D03*
X0054774Y0381638D03*
X0054774Y0382386D03*
X0054774Y0383134D03*
X0054774Y0384276D03*
X0054774Y0385024D03*
X0054774Y0385772D03*
X0054774Y0386520D03*
X0054774Y0387661D03*
X0054774Y0388409D03*
X0054774Y0389157D03*
X0054774Y0389906D03*
X0054774Y0391047D03*
X0054774Y0391795D03*
X0054774Y0392543D03*
X0054774Y0401953D03*
X0054774Y0403094D03*
X0054774Y0403843D03*
X0054774Y0404591D03*
X0054774Y0405339D03*
X0054774Y0406480D03*
X0054774Y0407228D03*
X0054774Y0407976D03*
X0054774Y0408724D03*
X0054774Y0409866D03*
X0054774Y0410614D03*
X0054774Y0411362D03*
X0054774Y0412110D03*
X0054774Y0413252D03*
D178*
X0136624Y0412878D03*
X0136624Y0412484D03*
X0136624Y0411736D03*
X0136624Y0410988D03*
X0136624Y0410240D03*
X0136624Y0385398D03*
X0136624Y0384650D03*
X0136624Y0383902D03*
X0136624Y0383508D03*
X0136624Y0382760D03*
X0136624Y0382012D03*
X0136624Y0330878D03*
X0136624Y0330484D03*
X0136624Y0329736D03*
X0136624Y0328988D03*
X0136624Y0328240D03*
X0136624Y0303398D03*
X0136624Y0302650D03*
X0136624Y0301902D03*
X0136624Y0301508D03*
X0136624Y0300760D03*
X0136624Y0300012D03*
X0136624Y0248878D03*
X0136624Y0248484D03*
X0136624Y0247736D03*
X0136624Y0246988D03*
X0136624Y0246240D03*
X0136624Y0221398D03*
X0136624Y0220650D03*
X0136624Y0219902D03*
X0136624Y0219508D03*
X0136624Y0218760D03*
X0136624Y0218012D03*
X0136624Y0166878D03*
X0136624Y0166484D03*
X0136624Y0165736D03*
X0136624Y0164988D03*
X0136624Y0164240D03*
X0136624Y0139398D03*
X0136624Y0138650D03*
X0136624Y0137902D03*
X0136624Y0137508D03*
X0136624Y0136760D03*
X0136624Y0136012D03*
X0136624Y0084878D03*
X0136624Y0084484D03*
X0136624Y0083736D03*
X0136624Y0082988D03*
X0136624Y0082240D03*
X0136624Y0057398D03*
X0136624Y0056650D03*
X0136624Y0055902D03*
X0136624Y0055508D03*
X0136624Y0054760D03*
X0136624Y0054012D03*
D179*
X0099183Y0084878D03*
X0099183Y0166878D03*
X0099183Y0248878D03*
X0099183Y0330878D03*
X0099183Y0412878D03*
D180*
X0054774Y0412878D03*
X0054774Y0412484D03*
X0054774Y0411736D03*
X0054774Y0410988D03*
X0054774Y0410240D03*
X0054774Y0409492D03*
X0054774Y0409098D03*
X0054774Y0408350D03*
X0054774Y0407602D03*
X0054774Y0406854D03*
X0054774Y0406106D03*
X0054774Y0405713D03*
X0054774Y0404965D03*
X0054774Y0404217D03*
X0054774Y0403469D03*
X0054774Y0402720D03*
X0054774Y0402327D03*
X0054774Y0393311D03*
X0054774Y0392917D03*
X0054774Y0392169D03*
X0054774Y0391421D03*
X0054774Y0390673D03*
X0054774Y0390280D03*
X0054774Y0389531D03*
X0054774Y0388783D03*
X0054774Y0388035D03*
X0054774Y0387287D03*
X0054774Y0386894D03*
X0054774Y0386146D03*
X0054774Y0385398D03*
X0054774Y0384650D03*
X0054774Y0383902D03*
X0054774Y0383508D03*
X0054774Y0382760D03*
X0054774Y0382012D03*
X0054774Y0330878D03*
X0054774Y0330484D03*
X0054774Y0329736D03*
X0054774Y0328988D03*
X0054774Y0328240D03*
X0054774Y0327492D03*
X0054774Y0327098D03*
X0054774Y0326350D03*
X0054774Y0325602D03*
X0054774Y0324854D03*
X0054774Y0324106D03*
X0054774Y0323713D03*
X0054774Y0322965D03*
X0054774Y0322217D03*
X0054774Y0321469D03*
X0054774Y0320720D03*
X0054774Y0320327D03*
X0054774Y0311311D03*
X0054774Y0310917D03*
X0054774Y0310169D03*
X0054774Y0309421D03*
X0054774Y0308673D03*
X0054774Y0308280D03*
X0054774Y0307531D03*
X0054774Y0306783D03*
X0054774Y0306035D03*
X0054774Y0305287D03*
X0054774Y0304894D03*
X0054774Y0304146D03*
X0054774Y0303398D03*
X0054774Y0302650D03*
X0054774Y0301902D03*
X0054774Y0301508D03*
X0054774Y0300760D03*
X0054774Y0300012D03*
X0054774Y0248878D03*
X0054774Y0248484D03*
X0054774Y0247736D03*
X0054774Y0246988D03*
X0054774Y0246240D03*
X0054774Y0245492D03*
X0054774Y0245098D03*
X0054774Y0244350D03*
X0054774Y0243602D03*
X0054774Y0242854D03*
X0054774Y0242106D03*
X0054774Y0241713D03*
X0054774Y0240965D03*
X0054774Y0240217D03*
X0054774Y0239469D03*
X0054774Y0238720D03*
X0054774Y0238327D03*
X0054774Y0229311D03*
X0054774Y0228917D03*
X0054774Y0228169D03*
X0054774Y0227421D03*
X0054774Y0226673D03*
X0054774Y0226280D03*
X0054774Y0225531D03*
X0054774Y0224783D03*
X0054774Y0224035D03*
X0054774Y0223287D03*
X0054774Y0222894D03*
X0054774Y0222146D03*
X0054774Y0221398D03*
X0054774Y0220650D03*
X0054774Y0219902D03*
X0054774Y0219508D03*
X0054774Y0218760D03*
X0054774Y0218012D03*
X0054774Y0166878D03*
X0054774Y0166484D03*
X0054774Y0165736D03*
X0054774Y0164988D03*
X0054774Y0164240D03*
X0054774Y0163492D03*
X0054774Y0163098D03*
X0054774Y0162350D03*
X0054774Y0161602D03*
X0054774Y0160854D03*
X0054774Y0160106D03*
X0054774Y0159713D03*
X0054774Y0158965D03*
X0054774Y0158217D03*
X0054774Y0157469D03*
X0054774Y0156720D03*
X0054774Y0156327D03*
X0054774Y0147311D03*
X0054774Y0146917D03*
X0054774Y0146169D03*
X0054774Y0145421D03*
X0054774Y0144673D03*
X0054774Y0144280D03*
X0054774Y0143531D03*
X0054774Y0142783D03*
X0054774Y0142035D03*
X0054774Y0141287D03*
X0054774Y0140894D03*
X0054774Y0140146D03*
X0054774Y0139398D03*
X0054774Y0138650D03*
X0054774Y0137902D03*
X0054774Y0137508D03*
X0054774Y0136760D03*
X0054774Y0136012D03*
X0054774Y0084878D03*
X0054774Y0084484D03*
X0054774Y0083736D03*
X0054774Y0082988D03*
X0054774Y0082240D03*
X0054774Y0081492D03*
X0054774Y0081098D03*
X0054774Y0080350D03*
X0054774Y0079602D03*
X0054774Y0078854D03*
X0054774Y0078106D03*
X0054774Y0077713D03*
X0054774Y0076965D03*
X0054774Y0076217D03*
X0054774Y0075469D03*
X0054774Y0074720D03*
X0054774Y0074327D03*
X0054774Y0065311D03*
X0054774Y0064917D03*
X0054774Y0064169D03*
X0054774Y0063421D03*
X0054774Y0062673D03*
X0054774Y0062280D03*
X0054774Y0061531D03*
X0054774Y0060783D03*
X0054774Y0060035D03*
X0054774Y0059287D03*
X0054774Y0058894D03*
X0054774Y0058146D03*
X0054774Y0057398D03*
X0054774Y0056650D03*
X0054774Y0055902D03*
X0054774Y0055508D03*
X0054774Y0054760D03*
X0054774Y0054012D03*
D181*
X0098986Y0054760D03*
X0099380Y0084484D03*
X0098986Y0136760D03*
X0099380Y0166484D03*
X0098986Y0218760D03*
X0099380Y0248484D03*
X0098986Y0300760D03*
X0099380Y0330484D03*
X0098986Y0382760D03*
X0099380Y0412484D03*
D182*
X0136624Y0412110D03*
X0136624Y0411362D03*
X0136624Y0410614D03*
X0136624Y0409866D03*
X0136624Y0385772D03*
X0136624Y0385024D03*
X0136624Y0384276D03*
X0136624Y0383134D03*
X0136624Y0382386D03*
X0136624Y0330110D03*
X0136624Y0329362D03*
X0136624Y0328614D03*
X0136624Y0327866D03*
X0136624Y0303772D03*
X0136624Y0303024D03*
X0136624Y0302276D03*
X0136624Y0301134D03*
X0136624Y0300386D03*
X0136624Y0248110D03*
X0136624Y0247362D03*
X0136624Y0246614D03*
X0136624Y0245866D03*
X0136624Y0221772D03*
X0136624Y0221024D03*
X0136624Y0220276D03*
X0136624Y0219134D03*
X0136624Y0218386D03*
X0136624Y0166110D03*
X0136624Y0165362D03*
X0136624Y0164614D03*
X0136624Y0163866D03*
X0136624Y0139772D03*
X0136624Y0139024D03*
X0136624Y0138276D03*
X0136624Y0137134D03*
X0136624Y0136386D03*
X0136624Y0084110D03*
X0136624Y0083362D03*
X0136624Y0082614D03*
X0136624Y0081866D03*
X0136624Y0057772D03*
X0136624Y0057024D03*
X0136624Y0056276D03*
X0136624Y0055134D03*
X0136624Y0054386D03*
D183*
X0099360Y0055134D03*
X0099360Y0084110D03*
X0099360Y0137134D03*
X0099360Y0166110D03*
X0099360Y0219134D03*
X0099360Y0248110D03*
X0099360Y0301134D03*
X0099360Y0330110D03*
X0099360Y0383134D03*
X0099360Y0412110D03*
D184*
X0099380Y0411736D03*
X0099380Y0383508D03*
X0099380Y0329736D03*
X0099380Y0301508D03*
X0099380Y0247736D03*
X0099380Y0219508D03*
X0099380Y0165736D03*
X0099380Y0137508D03*
X0099380Y0083736D03*
X0099380Y0055508D03*
D185*
X0099557Y0083362D03*
X0099557Y0165362D03*
X0099557Y0247362D03*
X0099557Y0329362D03*
X0099557Y0411362D03*
D186*
X0099754Y0410988D03*
X0137746Y0407602D03*
X0137746Y0325602D03*
X0099754Y0328988D03*
X0099754Y0246988D03*
X0137746Y0243602D03*
X0099754Y0164988D03*
X0137746Y0161602D03*
X0137746Y0079602D03*
X0099754Y0082988D03*
D187*
X0172766Y0082614D03*
X0172766Y0164614D03*
X0172766Y0246614D03*
X0172766Y0328614D03*
X0172766Y0410614D03*
D188*
X0172569Y0410240D03*
X0172569Y0328240D03*
X0172569Y0246240D03*
X0172569Y0164240D03*
X0172569Y0082240D03*
D189*
X0100128Y0082240D03*
X0100128Y0164240D03*
X0100128Y0246240D03*
X0100128Y0328240D03*
X0100128Y0410240D03*
D190*
X0172549Y0409866D03*
X0172549Y0327866D03*
X0172549Y0245866D03*
X0172549Y0163866D03*
X0172549Y0081866D03*
D191*
X0101427Y0079976D03*
X0100325Y0081866D03*
X0101073Y0058520D03*
X0101073Y0140520D03*
X0101427Y0161976D03*
X0100325Y0163866D03*
X0101073Y0222520D03*
X0101427Y0243976D03*
X0100325Y0245866D03*
X0101073Y0304520D03*
X0101427Y0325976D03*
X0100325Y0327866D03*
X0101073Y0386520D03*
X0101427Y0407976D03*
X0100325Y0409866D03*
D192*
X0066270Y0400831D03*
X0066270Y0400083D03*
X0066270Y0399689D03*
X0066270Y0398941D03*
X0066270Y0398193D03*
X0066270Y0397445D03*
X0066270Y0396697D03*
X0066270Y0396303D03*
X0066270Y0395555D03*
X0066270Y0394807D03*
X0066270Y0394059D03*
X0066270Y0318831D03*
X0066270Y0318083D03*
X0066270Y0317689D03*
X0066270Y0316941D03*
X0066270Y0316193D03*
X0066270Y0315445D03*
X0066270Y0314697D03*
X0066270Y0314303D03*
X0066270Y0313555D03*
X0066270Y0312807D03*
X0066270Y0312059D03*
X0066270Y0236831D03*
X0066270Y0236083D03*
X0066270Y0235689D03*
X0066270Y0234941D03*
X0066270Y0234193D03*
X0066270Y0233445D03*
X0066270Y0232697D03*
X0066270Y0232303D03*
X0066270Y0231555D03*
X0066270Y0230807D03*
X0066270Y0230059D03*
X0066270Y0154831D03*
X0066270Y0154083D03*
X0066270Y0153689D03*
X0066270Y0152941D03*
X0066270Y0152193D03*
X0066270Y0151445D03*
X0066270Y0150697D03*
X0066270Y0150303D03*
X0066270Y0149555D03*
X0066270Y0148807D03*
X0066270Y0148059D03*
X0066270Y0072831D03*
X0066270Y0072083D03*
X0066270Y0071689D03*
X0066270Y0070941D03*
X0066270Y0070193D03*
X0066270Y0069445D03*
X0066270Y0068697D03*
X0066270Y0068303D03*
X0066270Y0067555D03*
X0066270Y0066807D03*
X0066270Y0066059D03*
X0172766Y0081492D03*
X0172766Y0163492D03*
X0172766Y0245492D03*
X0172766Y0327492D03*
X0172766Y0409492D03*
D193*
X0100876Y0408724D03*
X0100876Y0326724D03*
X0100876Y0244724D03*
X0100876Y0162724D03*
X0100876Y0080724D03*
D194*
X0101250Y0080350D03*
X0136998Y0080350D03*
X0136998Y0058894D03*
X0136998Y0140894D03*
X0136998Y0162350D03*
X0101250Y0162350D03*
X0136998Y0222894D03*
X0136998Y0244350D03*
X0101250Y0244350D03*
X0136998Y0304894D03*
X0136998Y0326350D03*
X0101250Y0326350D03*
X0136998Y0386894D03*
X0136998Y0408350D03*
X0101250Y0408350D03*
D195*
X0100128Y0385024D03*
X0137372Y0407976D03*
X0137372Y0325976D03*
X0100128Y0303024D03*
X0137372Y0243976D03*
X0100128Y0221024D03*
X0137372Y0161976D03*
X0100128Y0139024D03*
X0137372Y0079976D03*
X0100128Y0057024D03*
D196*
X0108593Y0079602D03*
X0108593Y0161602D03*
X0108593Y0243602D03*
X0108593Y0325602D03*
X0108593Y0407602D03*
D197*
X0112726Y0403469D03*
X0113474Y0402720D03*
X0113474Y0402327D03*
X0113474Y0393311D03*
X0112726Y0391421D03*
X0092018Y0407602D03*
X0092018Y0325602D03*
X0112726Y0321469D03*
X0113474Y0320720D03*
X0113474Y0320327D03*
X0113474Y0311311D03*
X0112726Y0309421D03*
X0092018Y0243602D03*
X0112726Y0239469D03*
X0113474Y0238720D03*
X0113474Y0238327D03*
X0113474Y0229311D03*
X0112726Y0227421D03*
X0092018Y0161602D03*
X0112726Y0157469D03*
X0113474Y0156720D03*
X0113474Y0156327D03*
X0113474Y0147311D03*
X0112726Y0145421D03*
X0092018Y0079602D03*
X0112726Y0075469D03*
X0113474Y0074720D03*
X0113474Y0074327D03*
X0113474Y0065311D03*
X0112726Y0063421D03*
D198*
X0112923Y0063795D03*
X0113671Y0065685D03*
X0113671Y0066433D03*
X0113671Y0072457D03*
X0113671Y0073205D03*
X0146781Y0079228D03*
X0112923Y0145795D03*
X0113671Y0147685D03*
X0113671Y0148433D03*
X0113671Y0154457D03*
X0113671Y0155205D03*
X0146781Y0161228D03*
X0112923Y0227795D03*
X0113671Y0229685D03*
X0113671Y0230433D03*
X0113671Y0236457D03*
X0113671Y0237205D03*
X0146781Y0243228D03*
X0112923Y0309795D03*
X0113671Y0311685D03*
X0113671Y0312433D03*
X0113671Y0318457D03*
X0113671Y0319205D03*
X0146781Y0325228D03*
X0112923Y0391795D03*
X0113671Y0393685D03*
X0113671Y0394433D03*
X0113671Y0400457D03*
X0113671Y0401205D03*
X0146781Y0407228D03*
X0054970Y0393685D03*
X0054970Y0311685D03*
X0054970Y0229685D03*
X0054970Y0147685D03*
X0054970Y0065685D03*
D199*
X0109518Y0079228D03*
X0109518Y0161228D03*
X0109518Y0243228D03*
X0109518Y0325228D03*
X0109518Y0407228D03*
D200*
X0091467Y0407228D03*
X0054577Y0379748D03*
X0091467Y0325228D03*
X0054577Y0297748D03*
X0091467Y0243228D03*
X0054577Y0215748D03*
X0091467Y0161228D03*
X0054577Y0133748D03*
X0091467Y0079228D03*
X0054577Y0051748D03*
D201*
X0110285Y0078854D03*
X0110285Y0160854D03*
X0110285Y0242854D03*
X0110285Y0324854D03*
X0110285Y0406854D03*
D202*
X0091073Y0406854D03*
X0091073Y0324854D03*
X0091073Y0242854D03*
X0091073Y0160854D03*
X0091073Y0078854D03*
D203*
X0110659Y0078480D03*
X0110659Y0160480D03*
X0110659Y0242480D03*
X0110659Y0324480D03*
X0110659Y0406480D03*
D204*
X0090896Y0406480D03*
X0090896Y0324480D03*
X0090896Y0242480D03*
X0090896Y0160480D03*
X0090896Y0078480D03*
D205*
X0111033Y0078106D03*
X0111427Y0077713D03*
X0111427Y0159713D03*
X0111033Y0160106D03*
X0111427Y0241713D03*
X0111033Y0242106D03*
X0111427Y0323713D03*
X0111033Y0324106D03*
X0111427Y0405713D03*
X0111033Y0406106D03*
D206*
X0090915Y0406106D03*
X0172569Y0378626D03*
X0090915Y0324106D03*
X0172569Y0296626D03*
X0090915Y0242106D03*
X0172569Y0214626D03*
X0090915Y0160106D03*
X0172569Y0132626D03*
X0090915Y0078106D03*
X0172569Y0050626D03*
D207*
X0090896Y0077713D03*
X0077746Y0050626D03*
X0077746Y0132626D03*
X0090896Y0159713D03*
X0077746Y0214626D03*
X0090896Y0241713D03*
X0077746Y0296626D03*
X0090896Y0323713D03*
X0077746Y0378626D03*
X0090896Y0405713D03*
D208*
X0111801Y0405339D03*
X0111801Y0389906D03*
X0111801Y0323339D03*
X0111801Y0307906D03*
X0111801Y0241339D03*
X0111801Y0225906D03*
X0111801Y0159339D03*
X0111801Y0143906D03*
X0111801Y0077339D03*
X0111801Y0061906D03*
D209*
X0111978Y0062280D03*
X0111978Y0076965D03*
X0111978Y0144280D03*
X0111978Y0158965D03*
X0111978Y0226280D03*
X0111978Y0240965D03*
X0111978Y0308280D03*
X0111978Y0322965D03*
X0111978Y0390280D03*
X0111978Y0404965D03*
D210*
X0090522Y0404965D03*
X0090522Y0390280D03*
X0090522Y0322965D03*
X0090522Y0308280D03*
X0090522Y0240965D03*
X0090522Y0226280D03*
X0090522Y0158965D03*
X0090522Y0144280D03*
X0090522Y0076965D03*
X0090522Y0062280D03*
D211*
X0112352Y0076591D03*
X0112352Y0158591D03*
X0112352Y0240591D03*
X0112352Y0322591D03*
X0112352Y0404591D03*
D212*
X0112530Y0404217D03*
X0112175Y0390673D03*
X0098986Y0378626D03*
X0112530Y0322217D03*
X0112175Y0308673D03*
X0098986Y0296626D03*
X0112530Y0240217D03*
X0112175Y0226673D03*
X0098986Y0214626D03*
X0112530Y0158217D03*
X0112175Y0144673D03*
X0098986Y0132626D03*
X0112530Y0076217D03*
X0112175Y0062673D03*
X0098986Y0050626D03*
D213*
X0112530Y0063047D03*
X0112530Y0075843D03*
X0112530Y0145047D03*
X0112530Y0157843D03*
X0112530Y0227047D03*
X0112530Y0239843D03*
X0112530Y0309047D03*
X0112530Y0321843D03*
X0112530Y0391047D03*
X0112530Y0403843D03*
D214*
X0113120Y0403094D03*
X0113474Y0401953D03*
X0113120Y0321094D03*
X0113474Y0319953D03*
X0113120Y0239094D03*
X0113474Y0237953D03*
X0113120Y0157094D03*
X0113474Y0155953D03*
X0113120Y0075094D03*
X0113474Y0073953D03*
D215*
X0113671Y0073579D03*
X0113671Y0072831D03*
X0113671Y0066059D03*
X0112923Y0064169D03*
X0146781Y0064917D03*
X0146781Y0060035D03*
X0146781Y0074720D03*
X0146781Y0142035D03*
X0146781Y0146917D03*
X0146781Y0156720D03*
X0113671Y0155579D03*
X0113671Y0154831D03*
X0113671Y0148059D03*
X0112923Y0146169D03*
X0054970Y0155579D03*
X0112923Y0228169D03*
X0113671Y0230059D03*
X0113671Y0236831D03*
X0113671Y0237579D03*
X0146781Y0238720D03*
X0146781Y0228917D03*
X0146781Y0224035D03*
X0146781Y0306035D03*
X0146781Y0310917D03*
X0146781Y0320720D03*
X0113671Y0319579D03*
X0113671Y0318831D03*
X0113671Y0312059D03*
X0112923Y0310169D03*
X0054970Y0319579D03*
X0112923Y0392169D03*
X0113671Y0394059D03*
X0113671Y0400831D03*
X0113671Y0401579D03*
X0146781Y0402720D03*
X0146781Y0392917D03*
X0146781Y0388035D03*
X0054970Y0401579D03*
X0054970Y0237579D03*
X0054970Y0073579D03*
D216*
X0140955Y0074327D03*
X0140955Y0156327D03*
X0140955Y0238327D03*
X0140955Y0320327D03*
X0140955Y0402327D03*
D217*
X0140187Y0401953D03*
X0098809Y0381638D03*
X0140187Y0319953D03*
X0098809Y0299638D03*
X0140187Y0237953D03*
X0098809Y0217638D03*
X0140187Y0155953D03*
X0098809Y0135638D03*
X0140187Y0073953D03*
X0098809Y0053638D03*
D218*
X0140010Y0073579D03*
X0140010Y0155579D03*
X0140010Y0237579D03*
X0140010Y0319579D03*
X0140010Y0401579D03*
D219*
X0113297Y0392917D03*
X0077549Y0401579D03*
X0077549Y0319579D03*
X0113297Y0310917D03*
X0077549Y0237579D03*
X0113297Y0228917D03*
X0077549Y0155579D03*
X0113297Y0146917D03*
X0077549Y0073579D03*
X0113297Y0064917D03*
D220*
X0066270Y0066433D03*
X0066270Y0067181D03*
X0066270Y0067929D03*
X0066270Y0069071D03*
X0066270Y0069819D03*
X0066270Y0070567D03*
X0066270Y0071315D03*
X0066270Y0072457D03*
X0066270Y0073205D03*
X0066270Y0148433D03*
X0066270Y0149181D03*
X0066270Y0149929D03*
X0066270Y0151071D03*
X0066270Y0151819D03*
X0066270Y0152567D03*
X0066270Y0153315D03*
X0066270Y0154457D03*
X0066270Y0155205D03*
X0066270Y0230433D03*
X0066270Y0231181D03*
X0066270Y0231929D03*
X0066270Y0233071D03*
X0066270Y0233819D03*
X0066270Y0234567D03*
X0066270Y0235315D03*
X0066270Y0236457D03*
X0066270Y0237205D03*
X0066270Y0312433D03*
X0066270Y0313181D03*
X0066270Y0313929D03*
X0066270Y0315071D03*
X0066270Y0315819D03*
X0066270Y0316567D03*
X0066270Y0317315D03*
X0066270Y0318457D03*
X0066270Y0319205D03*
X0066270Y0394433D03*
X0066270Y0395181D03*
X0066270Y0395929D03*
X0066270Y0397071D03*
X0066270Y0397819D03*
X0066270Y0398567D03*
X0066270Y0399315D03*
X0066270Y0400457D03*
X0066270Y0401205D03*
D221*
X0139636Y0400831D03*
X0139636Y0400083D03*
X0139636Y0394807D03*
X0139636Y0318831D03*
X0139636Y0318083D03*
X0139636Y0312807D03*
X0139636Y0236831D03*
X0139636Y0236083D03*
X0139636Y0230807D03*
X0139636Y0154831D03*
X0139636Y0154083D03*
X0139636Y0148807D03*
X0139636Y0072831D03*
X0139636Y0072083D03*
X0139636Y0066807D03*
D222*
X0139636Y0067181D03*
X0139636Y0072457D03*
X0139636Y0149181D03*
X0139636Y0154457D03*
X0139636Y0231181D03*
X0139636Y0236457D03*
X0139636Y0313181D03*
X0139636Y0318457D03*
X0139636Y0395181D03*
X0139636Y0400457D03*
D223*
X0139439Y0399689D03*
X0139439Y0398941D03*
X0139439Y0396697D03*
X0139439Y0396303D03*
X0139439Y0395555D03*
X0139439Y0317689D03*
X0139439Y0316941D03*
X0139439Y0314697D03*
X0139439Y0314303D03*
X0139439Y0313555D03*
X0139439Y0235689D03*
X0139439Y0234941D03*
X0139439Y0232697D03*
X0139439Y0232303D03*
X0139439Y0231555D03*
X0139439Y0153689D03*
X0139439Y0152941D03*
X0139439Y0150697D03*
X0139439Y0150303D03*
X0139439Y0149555D03*
X0139439Y0071689D03*
X0139439Y0070941D03*
X0139439Y0068697D03*
X0139439Y0068303D03*
X0139439Y0067555D03*
D224*
X0139439Y0067929D03*
X0139439Y0069071D03*
X0139439Y0071315D03*
X0139439Y0149929D03*
X0139439Y0151071D03*
X0139439Y0153315D03*
X0139439Y0231929D03*
X0139439Y0233071D03*
X0139439Y0235315D03*
X0139439Y0313929D03*
X0139439Y0315071D03*
X0139439Y0317315D03*
X0139439Y0395929D03*
X0139439Y0397071D03*
X0139439Y0399315D03*
D225*
X0139262Y0398567D03*
X0139262Y0397819D03*
X0139262Y0316567D03*
X0139262Y0315819D03*
X0139262Y0234567D03*
X0139262Y0233819D03*
X0139262Y0152567D03*
X0139262Y0151819D03*
X0139262Y0070567D03*
X0139262Y0069819D03*
D226*
X0139262Y0070193D03*
X0139262Y0069445D03*
X0139262Y0151445D03*
X0139262Y0152193D03*
X0139262Y0233445D03*
X0139262Y0234193D03*
X0139262Y0315445D03*
X0139262Y0316193D03*
X0139262Y0397445D03*
X0139262Y0398193D03*
D227*
X0139813Y0394059D03*
X0099183Y0382012D03*
X0139813Y0312059D03*
X0099183Y0300012D03*
X0139813Y0230059D03*
X0099183Y0218012D03*
X0139813Y0148059D03*
X0099183Y0136012D03*
X0139813Y0066059D03*
X0099183Y0054012D03*
D228*
X0140010Y0065685D03*
X0140010Y0147685D03*
X0140010Y0229685D03*
X0140010Y0311685D03*
X0140010Y0393685D03*
D229*
X0113297Y0392543D03*
X0077549Y0393685D03*
X0077549Y0311685D03*
X0113297Y0310543D03*
X0113297Y0228543D03*
X0077549Y0229685D03*
X0077549Y0147685D03*
X0113297Y0146543D03*
X0077549Y0065685D03*
X0113297Y0064543D03*
D230*
X0140561Y0065311D03*
X0140561Y0147311D03*
X0140561Y0229311D03*
X0140561Y0311311D03*
X0140561Y0393311D03*
D231*
X0111407Y0389531D03*
X0111407Y0307531D03*
X0111407Y0225531D03*
X0111407Y0143531D03*
X0111407Y0061531D03*
D232*
X0054577Y0050626D03*
X0090719Y0061531D03*
X0054577Y0132626D03*
X0090719Y0143531D03*
X0054577Y0214626D03*
X0090719Y0225531D03*
X0054577Y0296626D03*
X0090719Y0307531D03*
X0054577Y0378626D03*
X0090719Y0389531D03*
D233*
X0111230Y0389157D03*
X0111230Y0307157D03*
X0111230Y0225157D03*
X0111230Y0143157D03*
X0111230Y0061157D03*
D234*
X0090915Y0061157D03*
X0090915Y0143157D03*
X0090915Y0225157D03*
X0090915Y0307157D03*
X0090915Y0389157D03*
D235*
X0110463Y0388783D03*
X0110463Y0306783D03*
X0110463Y0224783D03*
X0110463Y0142783D03*
X0110463Y0060783D03*
D236*
X0090896Y0060783D03*
X0090896Y0142783D03*
X0090896Y0224783D03*
X0090896Y0306783D03*
X0090896Y0388783D03*
D237*
X0099183Y0379000D03*
X0110089Y0388409D03*
X0110089Y0306409D03*
X0099183Y0297000D03*
X0110089Y0224409D03*
X0099183Y0215000D03*
X0110089Y0142409D03*
X0099183Y0133000D03*
X0110089Y0060409D03*
X0099183Y0051000D03*
D238*
X0098986Y0050252D03*
X0091073Y0060409D03*
X0054577Y0051000D03*
X0054577Y0133000D03*
X0091073Y0142409D03*
X0098986Y0132252D03*
X0098986Y0214252D03*
X0091073Y0224409D03*
X0054577Y0215000D03*
X0054577Y0297000D03*
X0091073Y0306409D03*
X0098986Y0296252D03*
X0098986Y0378252D03*
X0091073Y0388409D03*
X0054577Y0379000D03*
D239*
X0109715Y0388035D03*
X0109715Y0306035D03*
X0109715Y0224035D03*
X0109715Y0142035D03*
X0109715Y0060035D03*
D240*
X0091093Y0060035D03*
X0054596Y0051374D03*
X0054596Y0133374D03*
X0091093Y0142035D03*
X0054596Y0215374D03*
X0091093Y0224035D03*
X0054596Y0297374D03*
X0091093Y0306035D03*
X0054596Y0379374D03*
X0091093Y0388035D03*
D241*
X0138317Y0387661D03*
X0138317Y0305661D03*
X0138317Y0223661D03*
X0138317Y0141661D03*
X0138317Y0059661D03*
D242*
X0136250Y0051748D03*
X0100502Y0057772D03*
X0136250Y0133748D03*
X0100502Y0139772D03*
X0136250Y0215748D03*
X0100502Y0221772D03*
X0136250Y0297748D03*
X0100502Y0303772D03*
X0136250Y0379748D03*
X0100502Y0385772D03*
D243*
X0100305Y0385398D03*
X0099951Y0384650D03*
X0136447Y0379374D03*
X0100305Y0303398D03*
X0099951Y0302650D03*
X0136447Y0297374D03*
X0100305Y0221398D03*
X0099951Y0220650D03*
X0136447Y0215374D03*
X0100305Y0139398D03*
X0099951Y0138650D03*
X0136447Y0133374D03*
X0100305Y0057398D03*
X0099951Y0056650D03*
X0136447Y0051374D03*
D244*
X0099754Y0056276D03*
X0099754Y0138276D03*
X0099754Y0220276D03*
X0099754Y0302276D03*
X0099754Y0384276D03*
D245*
X0099557Y0383902D03*
X0099557Y0301902D03*
X0099557Y0219902D03*
X0099557Y0137902D03*
X0099557Y0055902D03*
D246*
X0099006Y0054386D03*
X0099006Y0136386D03*
X0099006Y0218386D03*
X0099006Y0300386D03*
X0099006Y0382386D03*
D247*
X0098986Y0381264D03*
X0098986Y0299264D03*
X0098986Y0217264D03*
X0098986Y0135264D03*
X0098986Y0053264D03*
D248*
X0172569Y0052890D03*
X0172569Y0134890D03*
X0172569Y0216890D03*
X0172569Y0298890D03*
X0172569Y0380890D03*
D249*
X0099183Y0380890D03*
X0099183Y0298890D03*
X0099183Y0216890D03*
X0099183Y0134890D03*
X0099183Y0052890D03*
D250*
X0099183Y0052516D03*
X0099183Y0134516D03*
X0099183Y0216516D03*
X0099183Y0298516D03*
X0099183Y0380516D03*
D251*
X0136624Y0380122D03*
X0136624Y0298122D03*
X0136624Y0216122D03*
X0136624Y0134122D03*
X0136624Y0052122D03*
D252*
X0098809Y0052122D03*
X0098809Y0134122D03*
X0098809Y0216122D03*
X0098809Y0298122D03*
X0098809Y0380122D03*
D253*
X0098809Y0379748D03*
X0098809Y0297748D03*
X0098809Y0215748D03*
X0098809Y0133748D03*
X0098809Y0051748D03*
D254*
X0099006Y0051374D03*
X0099006Y0133374D03*
X0099006Y0215374D03*
X0099006Y0297374D03*
X0099006Y0379374D03*
D255*
X0077726Y0379000D03*
X0077726Y0297000D03*
X0077726Y0215000D03*
X0077726Y0133000D03*
X0077726Y0051000D03*
X0172569Y0051000D03*
X0172569Y0133000D03*
X0172569Y0215000D03*
X0172569Y0297000D03*
X0172569Y0379000D03*
D256*
X0136427Y0379000D03*
X0136427Y0297000D03*
X0136427Y0215000D03*
X0136427Y0133000D03*
X0136427Y0051000D03*
D257*
X0136250Y0050626D03*
X0136250Y0132626D03*
X0136250Y0214626D03*
X0136250Y0296626D03*
X0136250Y0378626D03*
M02*
