G75*
%MOIN*%
%OFA0B0*%
%FSLAX25Y25*%
%IPPOS*%
%LPD*%
%AMOC8*
5,1,8,0,0,1.08239X$1,22.5*
%
%ADD10C,0.00800*%
%ADD11C,0.00010*%
%ADD12C,0.01000*%
%ADD13C,0.01000*%
%ADD14R,0.00157X0.18268*%
%ADD15R,0.00157X0.18425*%
%ADD16R,0.00157X0.18740*%
%ADD17R,0.00157X0.18898*%
%ADD18R,0.00157X0.01732*%
%ADD19R,0.00157X0.01575*%
%ADD20R,0.00157X0.01417*%
%ADD21R,0.00157X0.01890*%
%ADD22R,0.00157X0.02362*%
%ADD23R,0.00157X0.20000*%
%ADD24R,0.00157X0.20157*%
%ADD25R,0.00157X0.20315*%
%ADD26R,0.00157X0.13071*%
%ADD27R,0.00157X0.07087*%
%ADD28R,0.00157X0.02677*%
%ADD29R,0.00157X0.00945*%
%ADD30R,0.00157X0.00472*%
%ADD31R,0.00157X0.02047*%
%ADD32R,0.00157X0.00787*%
%ADD33R,0.00157X0.02835*%
%ADD34R,0.00157X0.01260*%
%ADD35R,0.00157X0.00157*%
%ADD36R,0.00157X0.00315*%
%ADD37R,0.00157X0.02205*%
%ADD38R,0.00157X0.01102*%
%ADD39R,0.00157X0.02992*%
%ADD40R,0.00157X0.03150*%
%ADD41R,0.00157X0.04409*%
%ADD42R,0.00157X0.00630*%
%ADD43R,0.00157X0.04252*%
%ADD44R,0.00157X0.04094*%
%ADD45R,0.00157X0.03937*%
%ADD46R,0.00157X0.03780*%
%ADD47R,0.00157X0.03622*%
%ADD48R,0.00157X0.03465*%
%ADD49R,0.00157X0.03307*%
%ADD50R,0.00157X0.02520*%
%ADD51R,0.00157X0.19055*%
%ADD52R,0.00157X0.07874*%
%ADD53R,0.00157X0.08031*%
%ADD54R,0.00157X0.08346*%
%ADD55R,0.00157X0.08504*%
%ADD56R,0.00157X0.09606*%
%ADD57R,0.00157X0.09764*%
%ADD58R,0.00157X0.09921*%
%ADD59R,0.00157X0.05827*%
%ADD60R,0.00157X0.04724*%
%ADD61R,0.00157X0.04567*%
%ADD62R,0.00157X0.08661*%
%ADD63R,0.00157X0.17323*%
%ADD64R,0.00157X0.17480*%
%ADD65R,0.00157X0.17795*%
%ADD66R,0.00157X0.17953*%
%ADD67R,0.00157X0.19213*%
%ADD68R,0.00157X0.19370*%
%ADD69R,0.00157X0.08819*%
%ADD70R,0.00157X0.10394*%
%ADD71R,0.00157X0.18110*%
%ADD72R,0.00157X0.19843*%
%ADD73R,0.00157X0.19685*%
%ADD74R,0.00157X0.19528*%
%ADD75R,0.00157X0.23465*%
%ADD76R,0.00157X0.23307*%
%ADD77R,0.00157X0.23150*%
%ADD78R,0.00157X0.22992*%
%ADD79R,0.00157X0.22835*%
%ADD80R,0.00157X0.22677*%
%ADD81R,0.00157X0.22520*%
%ADD82R,0.00157X0.15276*%
%ADD83R,0.00157X0.28189*%
%ADD84R,0.00157X0.28031*%
%ADD85R,0.00157X0.27874*%
%ADD86R,0.00157X0.27717*%
%ADD87R,0.00157X0.27559*%
%ADD88R,0.00157X0.27402*%
%ADD89R,0.00157X0.27244*%
%ADD90R,0.00157X0.18583*%
%ADD91R,0.00157X0.16063*%
%ADD92R,0.00157X0.16220*%
%ADD93R,0.00157X0.16535*%
%ADD94R,0.00157X0.16693*%
%ADD95R,0.00157X0.16850*%
%ADD96R,0.00157X0.17008*%
%ADD97R,0.00157X0.17165*%
%ADD98R,0.00157X0.14961*%
%ADD99R,0.00157X0.32598*%
%ADD100R,0.00157X0.32756*%
%ADD101R,0.00157X0.30079*%
%ADD102R,0.00157X0.30236*%
%ADD103R,0.00236X0.00236*%
%ADD104R,0.00236X0.02126*%
%ADD105R,0.00236X0.01181*%
%ADD106R,0.00236X0.00945*%
%ADD107R,0.00236X0.03071*%
%ADD108R,0.00236X0.02362*%
%ADD109R,0.00236X0.04488*%
%ADD110R,0.00236X0.03307*%
%ADD111R,0.00236X0.01654*%
%ADD112R,0.00236X0.01417*%
%ADD113R,0.00236X0.03780*%
%ADD114R,0.00236X0.04961*%
%ADD115R,0.00236X0.04252*%
%ADD116R,0.00236X0.04016*%
%ADD117R,0.00236X0.01890*%
%ADD118R,0.00236X0.05197*%
%ADD119R,0.00236X0.04724*%
%ADD120R,0.00236X0.02598*%
%ADD121R,0.00236X0.02835*%
%ADD122R,0.00236X0.00709*%
%ADD123R,0.00236X0.00472*%
%ADD124R,0.00236X0.05433*%
%ADD125R,0.00236X0.03543*%
%ADD126R,0.00236X0.05669*%
%ADD127R,0.00236X0.05906*%
%ADD128R,0.00236X0.06142*%
%ADD129R,0.00236X0.11339*%
%ADD130R,0.01181X0.00236*%
%ADD131R,0.01654X0.00236*%
%ADD132R,0.01890X0.00236*%
%ADD133R,0.02126X0.00236*%
%ADD134R,0.02362X0.00236*%
%ADD135R,0.02598X0.00236*%
%ADD136R,0.02835X0.00236*%
%ADD137R,0.03071X0.00236*%
%ADD138R,0.03307X0.00236*%
%ADD139R,0.00472X0.00236*%
%ADD140R,0.01417X0.00236*%
%ADD141R,0.03780X0.00236*%
%ADD142R,0.04016X0.00236*%
%ADD143R,0.04252X0.00236*%
%ADD144R,0.04488X0.00236*%
%ADD145R,0.04961X0.00236*%
%ADD146R,0.04724X0.00236*%
%ADD147R,0.03543X0.00236*%
%ADD148R,0.00945X0.00236*%
%ADD149R,0.00709X0.00236*%
%ADD150R,0.00945X0.00157*%
%ADD151R,0.01417X0.00157*%
%ADD152R,0.00787X0.00157*%
%ADD153R,0.01102X0.00157*%
%ADD154R,0.00630X0.00157*%
%ADD155R,0.01260X0.00157*%
%ADD156R,0.02047X0.00157*%
%ADD157R,0.01890X0.00157*%
%ADD158R,0.02520X0.00157*%
%ADD159R,0.02205X0.00157*%
%ADD160R,0.02992X0.00157*%
%ADD161R,0.02362X0.00157*%
%ADD162R,0.03307X0.00157*%
%ADD163R,0.02677X0.00157*%
%ADD164R,0.01575X0.00157*%
%ADD165R,0.03465X0.00157*%
%ADD166R,0.02835X0.00157*%
%ADD167R,0.01732X0.00157*%
%ADD168R,0.03622X0.00157*%
%ADD169R,0.00472X0.00157*%
%ADD170R,0.00315X0.00157*%
%ADD171R,0.04094X0.00157*%
%ADD172R,0.03150X0.00157*%
%ADD173R,0.03780X0.00157*%
%ADD174R,0.03937X0.00157*%
%ADD175R,0.00315X0.00315*%
%ADD176R,0.01890X0.00315*%
%ADD177R,0.04724X0.00315*%
%ADD178R,0.02205X0.00315*%
%ADD179R,0.01575X0.00315*%
%ADD180R,0.05354X0.00315*%
%ADD181R,0.05669X0.00315*%
%ADD182R,0.05984X0.00315*%
%ADD183R,0.06299X0.00315*%
%ADD184R,0.02520X0.00315*%
%ADD185R,0.06614X0.00315*%
%ADD186R,0.00945X0.00315*%
%ADD187R,0.07559X0.00315*%
%ADD188R,0.01260X0.00315*%
%ADD189R,0.00630X0.00315*%
%ADD190R,0.08819X0.00315*%
%ADD191R,0.03465X0.00315*%
%ADD192R,0.04409X0.00315*%
%ADD193R,0.03150X0.00315*%
%ADD194R,0.05039X0.00315*%
%ADD195R,0.04094X0.00315*%
%ADD196R,0.02835X0.00315*%
%ADD197R,0.03780X0.00315*%
%ADD198R,0.06929X0.00315*%
D10*
X0420440Y0072322D02*
X0426339Y0072322D01*
X0426339Y0075684D01*
X0420333Y0077083D02*
X0420333Y0079583D01*
X0426339Y0080983D02*
X0426339Y0084345D01*
X0420440Y0084345D01*
X0435440Y0084345D02*
X0441339Y0084345D01*
X0441339Y0080983D01*
X0435333Y0079583D02*
X0435333Y0077083D01*
X0441339Y0075684D02*
X0441339Y0072322D01*
X0435440Y0072322D01*
X0450440Y0072322D02*
X0456339Y0072322D01*
X0456339Y0075684D01*
X0450333Y0077083D02*
X0450333Y0079583D01*
X0456339Y0080983D02*
X0456339Y0084345D01*
X0450440Y0084345D01*
X0465440Y0084345D02*
X0471339Y0084345D01*
X0471339Y0080983D01*
X0465333Y0079583D02*
X0465333Y0077083D01*
X0471339Y0075684D02*
X0471339Y0072322D01*
X0465440Y0072322D01*
X0501133Y0043133D02*
X0505533Y0043133D01*
X0505616Y0043131D01*
X0505699Y0043125D01*
X0505782Y0043116D01*
X0505864Y0043102D01*
X0505945Y0043085D01*
X0506026Y0043064D01*
X0506105Y0043040D01*
X0506183Y0043011D01*
X0506260Y0042980D01*
X0506335Y0042944D01*
X0506409Y0042906D01*
X0506481Y0042863D01*
X0506550Y0042818D01*
X0506618Y0042769D01*
X0506683Y0042718D01*
X0506746Y0042663D01*
X0506806Y0042606D01*
X0506863Y0042546D01*
X0506918Y0042483D01*
X0506969Y0042418D01*
X0507018Y0042350D01*
X0507063Y0042281D01*
X0507106Y0042209D01*
X0507144Y0042135D01*
X0507180Y0042060D01*
X0507211Y0041983D01*
X0507240Y0041905D01*
X0507264Y0041826D01*
X0507285Y0041745D01*
X0507302Y0041664D01*
X0507316Y0041582D01*
X0507325Y0041499D01*
X0507331Y0041416D01*
X0507333Y0041333D01*
X0507333Y0035333D01*
X0507331Y0035250D01*
X0507325Y0035167D01*
X0507316Y0035084D01*
X0507302Y0035002D01*
X0507285Y0034921D01*
X0507264Y0034840D01*
X0507240Y0034761D01*
X0507211Y0034683D01*
X0507180Y0034606D01*
X0507144Y0034531D01*
X0507106Y0034457D01*
X0507063Y0034385D01*
X0507018Y0034316D01*
X0506969Y0034248D01*
X0506918Y0034183D01*
X0506863Y0034120D01*
X0506806Y0034060D01*
X0506746Y0034003D01*
X0506683Y0033948D01*
X0506618Y0033897D01*
X0506550Y0033848D01*
X0506481Y0033803D01*
X0506409Y0033760D01*
X0506335Y0033722D01*
X0506260Y0033686D01*
X0506183Y0033655D01*
X0506105Y0033626D01*
X0506026Y0033602D01*
X0505945Y0033581D01*
X0505864Y0033564D01*
X0505782Y0033550D01*
X0505699Y0033541D01*
X0505616Y0033535D01*
X0505533Y0033533D01*
X0501133Y0033533D01*
X0501050Y0033535D01*
X0500967Y0033541D01*
X0500884Y0033550D01*
X0500802Y0033564D01*
X0500721Y0033581D01*
X0500640Y0033602D01*
X0500561Y0033626D01*
X0500483Y0033655D01*
X0500406Y0033686D01*
X0500331Y0033722D01*
X0500257Y0033760D01*
X0500185Y0033803D01*
X0500116Y0033848D01*
X0500048Y0033897D01*
X0499983Y0033948D01*
X0499920Y0034003D01*
X0499860Y0034060D01*
X0499803Y0034120D01*
X0499748Y0034183D01*
X0499697Y0034248D01*
X0499648Y0034316D01*
X0499603Y0034385D01*
X0499560Y0034457D01*
X0499522Y0034531D01*
X0499486Y0034606D01*
X0499455Y0034683D01*
X0499426Y0034761D01*
X0499402Y0034840D01*
X0499381Y0034921D01*
X0499364Y0035002D01*
X0499350Y0035084D01*
X0499341Y0035167D01*
X0499335Y0035250D01*
X0499333Y0035333D01*
X0499333Y0041333D01*
X0499335Y0041416D01*
X0499341Y0041499D01*
X0499350Y0041582D01*
X0499364Y0041664D01*
X0499381Y0041745D01*
X0499402Y0041826D01*
X0499426Y0041905D01*
X0499455Y0041983D01*
X0499486Y0042060D01*
X0499522Y0042135D01*
X0499560Y0042209D01*
X0499603Y0042281D01*
X0499648Y0042350D01*
X0499697Y0042418D01*
X0499748Y0042483D01*
X0499803Y0042546D01*
X0499860Y0042606D01*
X0499920Y0042663D01*
X0499983Y0042718D01*
X0500048Y0042769D01*
X0500116Y0042818D01*
X0500185Y0042863D01*
X0500257Y0042906D01*
X0500331Y0042944D01*
X0500406Y0042980D01*
X0500483Y0043011D01*
X0500561Y0043040D01*
X0500640Y0043064D01*
X0500721Y0043085D01*
X0500802Y0043102D01*
X0500884Y0043116D01*
X0500967Y0043125D01*
X0501050Y0043131D01*
X0501133Y0043133D01*
X0530333Y0043333D02*
X0533333Y0043333D01*
X0533333Y0044333D01*
X0533333Y0043333D02*
X0536333Y0043333D01*
X0536333Y0023333D01*
X0533333Y0023333D01*
X0533333Y0022333D01*
X0533333Y0023333D02*
X0530333Y0023333D01*
X0530333Y0043333D01*
X0545333Y0043333D02*
X0548333Y0043333D01*
X0548333Y0044333D01*
X0548333Y0043333D02*
X0551333Y0043333D01*
X0551333Y0023333D01*
X0548333Y0023333D01*
X0548333Y0022333D01*
X0548333Y0023333D02*
X0545333Y0023333D01*
X0545333Y0043333D01*
X0560333Y0043333D02*
X0563333Y0043333D01*
X0563333Y0044333D01*
X0563333Y0043333D02*
X0566333Y0043333D01*
X0566333Y0023333D01*
X0563333Y0023333D01*
X0563333Y0022333D01*
X0563333Y0023333D02*
X0560333Y0023333D01*
X0560333Y0043333D01*
X0575333Y0043333D02*
X0578333Y0043333D01*
X0578333Y0044333D01*
X0578333Y0043333D02*
X0581333Y0043333D01*
X0581333Y0023333D01*
X0578333Y0023333D01*
X0578333Y0022333D01*
X0578333Y0023333D02*
X0575333Y0023333D01*
X0575333Y0043333D01*
X0714583Y0061458D02*
X0714583Y0065208D01*
X0734583Y0065208D02*
X0734583Y0061458D01*
X0754583Y0061458D02*
X0754583Y0065208D01*
X0774583Y0065208D02*
X0774583Y0061458D01*
X0775983Y0051339D02*
X0779345Y0051339D01*
X0779345Y0045440D01*
X0774583Y0045333D02*
X0772083Y0045333D01*
X0767322Y0045440D02*
X0767322Y0051339D01*
X0770684Y0051339D01*
X0759345Y0051339D02*
X0759345Y0045440D01*
X0754583Y0045333D02*
X0752083Y0045333D01*
X0747322Y0045440D02*
X0747322Y0051339D01*
X0750684Y0051339D01*
X0755983Y0051339D02*
X0759345Y0051339D01*
X0818333Y0098333D02*
X0828215Y0098333D01*
X0833333Y0102270D02*
X0833333Y0114396D01*
X0813333Y0114396D02*
X0813333Y0102270D01*
X0818333Y0108333D02*
X0818335Y0108474D01*
X0818341Y0108615D01*
X0818351Y0108755D01*
X0818365Y0108895D01*
X0818383Y0109035D01*
X0818404Y0109174D01*
X0818430Y0109313D01*
X0818459Y0109451D01*
X0818493Y0109587D01*
X0818530Y0109723D01*
X0818571Y0109858D01*
X0818616Y0109992D01*
X0818665Y0110124D01*
X0818717Y0110255D01*
X0818773Y0110384D01*
X0818833Y0110511D01*
X0818896Y0110637D01*
X0818962Y0110761D01*
X0819033Y0110884D01*
X0819106Y0111004D01*
X0819183Y0111122D01*
X0819263Y0111238D01*
X0819347Y0111351D01*
X0819433Y0111462D01*
X0819523Y0111571D01*
X0819616Y0111677D01*
X0819711Y0111780D01*
X0819810Y0111881D01*
X0819911Y0111979D01*
X0820015Y0112074D01*
X0820122Y0112166D01*
X0820231Y0112255D01*
X0820343Y0112340D01*
X0820457Y0112423D01*
X0820573Y0112503D01*
X0820692Y0112579D01*
X0820813Y0112651D01*
X0820935Y0112721D01*
X0821060Y0112786D01*
X0821186Y0112849D01*
X0821314Y0112907D01*
X0821444Y0112962D01*
X0821575Y0113014D01*
X0821708Y0113061D01*
X0821842Y0113105D01*
X0821977Y0113146D01*
X0822113Y0113182D01*
X0822250Y0113214D01*
X0822388Y0113243D01*
X0822526Y0113268D01*
X0822666Y0113288D01*
X0822806Y0113305D01*
X0822946Y0113318D01*
X0823087Y0113327D01*
X0823227Y0113332D01*
X0823368Y0113333D01*
X0823509Y0113330D01*
X0823650Y0113323D01*
X0823790Y0113312D01*
X0823930Y0113297D01*
X0824070Y0113278D01*
X0824209Y0113256D01*
X0824347Y0113229D01*
X0824485Y0113199D01*
X0824621Y0113164D01*
X0824757Y0113126D01*
X0824891Y0113084D01*
X0825025Y0113038D01*
X0825157Y0112989D01*
X0825287Y0112935D01*
X0825416Y0112878D01*
X0825543Y0112818D01*
X0825669Y0112754D01*
X0825792Y0112686D01*
X0825914Y0112615D01*
X0826034Y0112541D01*
X0826151Y0112463D01*
X0826266Y0112382D01*
X0826379Y0112298D01*
X0826490Y0112211D01*
X0826598Y0112120D01*
X0826703Y0112027D01*
X0826806Y0111930D01*
X0826906Y0111831D01*
X0827003Y0111729D01*
X0827097Y0111624D01*
X0827188Y0111517D01*
X0827276Y0111407D01*
X0827361Y0111295D01*
X0827443Y0111180D01*
X0827522Y0111063D01*
X0827597Y0110944D01*
X0827669Y0110823D01*
X0827737Y0110700D01*
X0827802Y0110575D01*
X0827864Y0110448D01*
X0827921Y0110319D01*
X0827976Y0110189D01*
X0828026Y0110058D01*
X0828073Y0109925D01*
X0828116Y0109791D01*
X0828155Y0109655D01*
X0828190Y0109519D01*
X0828222Y0109382D01*
X0828249Y0109244D01*
X0828273Y0109105D01*
X0828293Y0108965D01*
X0828309Y0108825D01*
X0828321Y0108685D01*
X0828329Y0108544D01*
X0828333Y0108403D01*
X0828333Y0108263D01*
X0828329Y0108122D01*
X0828321Y0107981D01*
X0828309Y0107841D01*
X0828293Y0107701D01*
X0828273Y0107561D01*
X0828249Y0107422D01*
X0828222Y0107284D01*
X0828190Y0107147D01*
X0828155Y0107011D01*
X0828116Y0106875D01*
X0828073Y0106741D01*
X0828026Y0106608D01*
X0827976Y0106477D01*
X0827921Y0106347D01*
X0827864Y0106218D01*
X0827802Y0106091D01*
X0827737Y0105966D01*
X0827669Y0105843D01*
X0827597Y0105722D01*
X0827522Y0105603D01*
X0827443Y0105486D01*
X0827361Y0105371D01*
X0827276Y0105259D01*
X0827188Y0105149D01*
X0827097Y0105042D01*
X0827003Y0104937D01*
X0826906Y0104835D01*
X0826806Y0104736D01*
X0826703Y0104639D01*
X0826598Y0104546D01*
X0826490Y0104455D01*
X0826379Y0104368D01*
X0826266Y0104284D01*
X0826151Y0104203D01*
X0826034Y0104125D01*
X0825914Y0104051D01*
X0825792Y0103980D01*
X0825669Y0103912D01*
X0825543Y0103848D01*
X0825416Y0103788D01*
X0825287Y0103731D01*
X0825157Y0103677D01*
X0825025Y0103628D01*
X0824891Y0103582D01*
X0824757Y0103540D01*
X0824621Y0103502D01*
X0824485Y0103467D01*
X0824347Y0103437D01*
X0824209Y0103410D01*
X0824070Y0103388D01*
X0823930Y0103369D01*
X0823790Y0103354D01*
X0823650Y0103343D01*
X0823509Y0103336D01*
X0823368Y0103333D01*
X0823227Y0103334D01*
X0823087Y0103339D01*
X0822946Y0103348D01*
X0822806Y0103361D01*
X0822666Y0103378D01*
X0822526Y0103398D01*
X0822388Y0103423D01*
X0822250Y0103452D01*
X0822113Y0103484D01*
X0821977Y0103520D01*
X0821842Y0103561D01*
X0821708Y0103605D01*
X0821575Y0103652D01*
X0821444Y0103704D01*
X0821314Y0103759D01*
X0821186Y0103817D01*
X0821060Y0103880D01*
X0820935Y0103945D01*
X0820813Y0104015D01*
X0820692Y0104087D01*
X0820573Y0104163D01*
X0820457Y0104243D01*
X0820343Y0104326D01*
X0820231Y0104411D01*
X0820122Y0104500D01*
X0820015Y0104592D01*
X0819911Y0104687D01*
X0819810Y0104785D01*
X0819711Y0104886D01*
X0819616Y0104989D01*
X0819523Y0105095D01*
X0819433Y0105204D01*
X0819347Y0105315D01*
X0819263Y0105428D01*
X0819183Y0105544D01*
X0819106Y0105662D01*
X0819033Y0105782D01*
X0818962Y0105905D01*
X0818896Y0106029D01*
X0818833Y0106155D01*
X0818773Y0106282D01*
X0818717Y0106411D01*
X0818665Y0106542D01*
X0818616Y0106674D01*
X0818571Y0106808D01*
X0818530Y0106943D01*
X0818493Y0107079D01*
X0818459Y0107215D01*
X0818430Y0107353D01*
X0818404Y0107492D01*
X0818383Y0107631D01*
X0818365Y0107771D01*
X0818351Y0107911D01*
X0818341Y0108051D01*
X0818335Y0108192D01*
X0818333Y0108333D01*
X0818451Y0118333D02*
X0828215Y0118333D01*
X0829496Y0127633D02*
X0817171Y0127633D01*
X0817100Y0127624D01*
X0817029Y0127619D01*
X0816957Y0127618D01*
X0816886Y0127621D01*
X0816815Y0127628D01*
X0816744Y0127638D01*
X0816675Y0127652D01*
X0816605Y0127671D01*
X0816537Y0127692D01*
X0816471Y0127718D01*
X0816406Y0127747D01*
X0816342Y0127779D01*
X0816280Y0127815D01*
X0816221Y0127854D01*
X0816163Y0127897D01*
X0816108Y0127942D01*
X0816056Y0127991D01*
X0816006Y0128042D01*
X0815959Y0128095D01*
X0815915Y0128152D01*
X0815874Y0128210D01*
X0815836Y0128271D01*
X0815802Y0128333D01*
X0815771Y0128398D01*
X0815744Y0128464D01*
X0815720Y0128531D01*
X0815700Y0128599D01*
X0815683Y0128669D01*
X0815671Y0128739D01*
X0815671Y0128740D02*
X0815671Y0147533D01*
X0815671Y0147534D02*
X0815662Y0147604D01*
X0815657Y0147676D01*
X0815656Y0147747D01*
X0815659Y0147818D01*
X0815666Y0147889D01*
X0815676Y0147960D01*
X0815690Y0148030D01*
X0815708Y0148099D01*
X0815730Y0148167D01*
X0815756Y0148234D01*
X0815785Y0148299D01*
X0815817Y0148362D01*
X0815853Y0148424D01*
X0815892Y0148484D01*
X0815935Y0148541D01*
X0815980Y0148596D01*
X0816028Y0148649D01*
X0816080Y0148699D01*
X0816133Y0148746D01*
X0816189Y0148790D01*
X0816248Y0148830D01*
X0816309Y0148868D01*
X0816371Y0148902D01*
X0816435Y0148933D01*
X0816501Y0148961D01*
X0816569Y0148984D01*
X0816637Y0149004D01*
X0816707Y0149021D01*
X0816777Y0149033D01*
X0820733Y0149033D01*
X0820733Y0148833D02*
X0820735Y0148735D01*
X0820741Y0148637D01*
X0820750Y0148539D01*
X0820764Y0148442D01*
X0820781Y0148345D01*
X0820802Y0148249D01*
X0820827Y0148154D01*
X0820855Y0148060D01*
X0820888Y0147968D01*
X0820923Y0147876D01*
X0820963Y0147786D01*
X0821005Y0147698D01*
X0821052Y0147611D01*
X0821101Y0147527D01*
X0821154Y0147444D01*
X0821210Y0147364D01*
X0821270Y0147285D01*
X0821332Y0147209D01*
X0821397Y0147136D01*
X0821465Y0147065D01*
X0821536Y0146997D01*
X0821609Y0146932D01*
X0821685Y0146870D01*
X0821764Y0146810D01*
X0821844Y0146754D01*
X0821927Y0146701D01*
X0822011Y0146652D01*
X0822098Y0146605D01*
X0822186Y0146563D01*
X0822276Y0146523D01*
X0822368Y0146488D01*
X0822460Y0146455D01*
X0822554Y0146427D01*
X0822649Y0146402D01*
X0822745Y0146381D01*
X0822842Y0146364D01*
X0822939Y0146350D01*
X0823037Y0146341D01*
X0823135Y0146335D01*
X0823233Y0146333D01*
X0823331Y0146335D01*
X0823429Y0146341D01*
X0823527Y0146350D01*
X0823624Y0146364D01*
X0823721Y0146381D01*
X0823817Y0146402D01*
X0823912Y0146427D01*
X0824006Y0146455D01*
X0824098Y0146488D01*
X0824190Y0146523D01*
X0824280Y0146563D01*
X0824368Y0146605D01*
X0824455Y0146652D01*
X0824539Y0146701D01*
X0824622Y0146754D01*
X0824702Y0146810D01*
X0824781Y0146870D01*
X0824857Y0146932D01*
X0824930Y0146997D01*
X0825001Y0147065D01*
X0825069Y0147136D01*
X0825134Y0147209D01*
X0825196Y0147285D01*
X0825256Y0147364D01*
X0825312Y0147444D01*
X0825365Y0147527D01*
X0825414Y0147611D01*
X0825461Y0147698D01*
X0825503Y0147786D01*
X0825543Y0147876D01*
X0825578Y0147968D01*
X0825611Y0148060D01*
X0825639Y0148154D01*
X0825664Y0148249D01*
X0825685Y0148345D01*
X0825702Y0148442D01*
X0825716Y0148539D01*
X0825725Y0148637D01*
X0825731Y0148735D01*
X0825733Y0148833D01*
X0825733Y0149033D02*
X0829052Y0149033D01*
X0829102Y0149034D02*
X0829183Y0149041D01*
X0829264Y0149045D01*
X0829345Y0149044D01*
X0829427Y0149040D01*
X0829507Y0149032D01*
X0829588Y0149020D01*
X0829668Y0149005D01*
X0829747Y0148985D01*
X0829825Y0148962D01*
X0829901Y0148935D01*
X0829977Y0148905D01*
X0830051Y0148871D01*
X0830123Y0148833D01*
X0830193Y0148792D01*
X0830261Y0148748D01*
X0830327Y0148701D01*
X0830391Y0148650D01*
X0830452Y0148597D01*
X0830511Y0148540D01*
X0830567Y0148481D01*
X0830620Y0148420D01*
X0830670Y0148356D01*
X0830717Y0148289D01*
X0830761Y0148221D01*
X0830801Y0148150D01*
X0830838Y0148078D01*
X0830872Y0148004D01*
X0830901Y0147928D01*
X0830928Y0147851D01*
X0830950Y0147773D01*
X0830969Y0147694D01*
X0830984Y0147614D01*
X0830996Y0147533D01*
X0830996Y0129133D01*
X0830994Y0129057D01*
X0830988Y0128982D01*
X0830979Y0128906D01*
X0830965Y0128831D01*
X0830948Y0128757D01*
X0830927Y0128684D01*
X0830903Y0128612D01*
X0830875Y0128542D01*
X0830843Y0128473D01*
X0830808Y0128405D01*
X0830769Y0128340D01*
X0830727Y0128276D01*
X0830682Y0128215D01*
X0830634Y0128156D01*
X0830583Y0128100D01*
X0830529Y0128046D01*
X0830473Y0127995D01*
X0830414Y0127947D01*
X0830353Y0127902D01*
X0830289Y0127860D01*
X0830224Y0127821D01*
X0830156Y0127786D01*
X0830087Y0127754D01*
X0830017Y0127726D01*
X0829945Y0127702D01*
X0829872Y0127681D01*
X0829798Y0127664D01*
X0829723Y0127650D01*
X0829647Y0127641D01*
X0829572Y0127635D01*
X0829496Y0127633D01*
X0793845Y0137940D02*
X0793845Y0141089D01*
X0791483Y0141089D01*
X0785184Y0141089D02*
X0782822Y0141089D01*
X0782822Y0137940D01*
X0778845Y0133727D02*
X0778845Y0130577D01*
X0776483Y0130577D01*
X0770184Y0130577D02*
X0767822Y0130577D01*
X0767822Y0133727D01*
X0800440Y0152322D02*
X0806339Y0152322D01*
X0806339Y0155684D01*
X0800333Y0157083D02*
X0800333Y0159583D01*
X0806339Y0160983D02*
X0806339Y0164345D01*
X0800440Y0164345D01*
X0620302Y0155794D02*
X0620302Y0150873D01*
X0616877Y0150873D02*
X0609790Y0150873D01*
X0610333Y0147333D02*
X0616333Y0147333D01*
X0616416Y0147331D01*
X0616499Y0147325D01*
X0616582Y0147316D01*
X0616664Y0147302D01*
X0616745Y0147285D01*
X0616826Y0147264D01*
X0616905Y0147240D01*
X0616983Y0147211D01*
X0617060Y0147180D01*
X0617135Y0147144D01*
X0617209Y0147106D01*
X0617281Y0147063D01*
X0617350Y0147018D01*
X0617418Y0146969D01*
X0617483Y0146918D01*
X0617546Y0146863D01*
X0617606Y0146806D01*
X0617663Y0146746D01*
X0617718Y0146683D01*
X0617769Y0146618D01*
X0617818Y0146550D01*
X0617863Y0146481D01*
X0617906Y0146409D01*
X0617944Y0146335D01*
X0617980Y0146260D01*
X0618011Y0146183D01*
X0618040Y0146105D01*
X0618064Y0146026D01*
X0618085Y0145945D01*
X0618102Y0145864D01*
X0618116Y0145782D01*
X0618125Y0145699D01*
X0618131Y0145616D01*
X0618133Y0145533D01*
X0618133Y0141133D01*
X0618131Y0141050D01*
X0618125Y0140967D01*
X0618116Y0140884D01*
X0618102Y0140802D01*
X0618085Y0140721D01*
X0618064Y0140640D01*
X0618040Y0140561D01*
X0618011Y0140483D01*
X0617980Y0140406D01*
X0617944Y0140331D01*
X0617906Y0140257D01*
X0617863Y0140185D01*
X0617818Y0140116D01*
X0617769Y0140048D01*
X0617718Y0139983D01*
X0617663Y0139920D01*
X0617606Y0139860D01*
X0617546Y0139803D01*
X0617483Y0139748D01*
X0617418Y0139697D01*
X0617350Y0139648D01*
X0617281Y0139603D01*
X0617209Y0139560D01*
X0617135Y0139522D01*
X0617060Y0139486D01*
X0616983Y0139455D01*
X0616905Y0139426D01*
X0616826Y0139402D01*
X0616745Y0139381D01*
X0616664Y0139364D01*
X0616582Y0139350D01*
X0616499Y0139341D01*
X0616416Y0139335D01*
X0616333Y0139333D01*
X0610333Y0139333D01*
X0610250Y0139335D01*
X0610167Y0139341D01*
X0610084Y0139350D01*
X0610002Y0139364D01*
X0609921Y0139381D01*
X0609840Y0139402D01*
X0609761Y0139426D01*
X0609683Y0139455D01*
X0609606Y0139486D01*
X0609531Y0139522D01*
X0609457Y0139560D01*
X0609385Y0139603D01*
X0609316Y0139648D01*
X0609248Y0139697D01*
X0609183Y0139748D01*
X0609120Y0139803D01*
X0609060Y0139860D01*
X0609003Y0139920D01*
X0608948Y0139983D01*
X0608897Y0140048D01*
X0608848Y0140116D01*
X0608803Y0140185D01*
X0608760Y0140257D01*
X0608722Y0140331D01*
X0608686Y0140406D01*
X0608655Y0140483D01*
X0608626Y0140561D01*
X0608602Y0140640D01*
X0608581Y0140721D01*
X0608564Y0140802D01*
X0608550Y0140884D01*
X0608541Y0140967D01*
X0608535Y0141050D01*
X0608533Y0141133D01*
X0608533Y0145533D01*
X0608535Y0145616D01*
X0608541Y0145699D01*
X0608550Y0145782D01*
X0608564Y0145864D01*
X0608581Y0145945D01*
X0608602Y0146026D01*
X0608626Y0146105D01*
X0608655Y0146183D01*
X0608686Y0146260D01*
X0608722Y0146335D01*
X0608760Y0146409D01*
X0608803Y0146481D01*
X0608848Y0146550D01*
X0608897Y0146618D01*
X0608948Y0146683D01*
X0609003Y0146746D01*
X0609060Y0146806D01*
X0609120Y0146863D01*
X0609183Y0146918D01*
X0609248Y0146969D01*
X0609316Y0147018D01*
X0609385Y0147063D01*
X0609457Y0147106D01*
X0609531Y0147144D01*
X0609606Y0147180D01*
X0609683Y0147211D01*
X0609761Y0147240D01*
X0609840Y0147264D01*
X0609921Y0147285D01*
X0610002Y0147302D01*
X0610084Y0147316D01*
X0610167Y0147325D01*
X0610250Y0147331D01*
X0610333Y0147333D01*
X0609790Y0155794D02*
X0616877Y0155794D01*
X0599390Y0165543D02*
X0597277Y0165543D01*
X0593333Y0166643D02*
X0593333Y0170024D01*
X0603333Y0170024D02*
X0603333Y0166643D01*
X0531120Y0103333D02*
X0531122Y0103396D01*
X0531128Y0103458D01*
X0531138Y0103520D01*
X0531151Y0103582D01*
X0531169Y0103642D01*
X0531190Y0103701D01*
X0531215Y0103759D01*
X0531244Y0103815D01*
X0531276Y0103869D01*
X0531311Y0103921D01*
X0531349Y0103970D01*
X0531391Y0104018D01*
X0531435Y0104062D01*
X0531483Y0104104D01*
X0531532Y0104142D01*
X0531584Y0104177D01*
X0531638Y0104209D01*
X0531694Y0104238D01*
X0531752Y0104263D01*
X0531811Y0104284D01*
X0531871Y0104302D01*
X0531933Y0104315D01*
X0531995Y0104325D01*
X0532057Y0104331D01*
X0532120Y0104333D01*
X0532183Y0104331D01*
X0532245Y0104325D01*
X0532307Y0104315D01*
X0532369Y0104302D01*
X0532429Y0104284D01*
X0532488Y0104263D01*
X0532546Y0104238D01*
X0532602Y0104209D01*
X0532656Y0104177D01*
X0532708Y0104142D01*
X0532757Y0104104D01*
X0532805Y0104062D01*
X0532849Y0104018D01*
X0532891Y0103970D01*
X0532929Y0103921D01*
X0532964Y0103869D01*
X0532996Y0103815D01*
X0533025Y0103759D01*
X0533050Y0103701D01*
X0533071Y0103642D01*
X0533089Y0103582D01*
X0533102Y0103520D01*
X0533112Y0103458D01*
X0533118Y0103396D01*
X0533120Y0103333D01*
X0533118Y0103270D01*
X0533112Y0103208D01*
X0533102Y0103146D01*
X0533089Y0103084D01*
X0533071Y0103024D01*
X0533050Y0102965D01*
X0533025Y0102907D01*
X0532996Y0102851D01*
X0532964Y0102797D01*
X0532929Y0102745D01*
X0532891Y0102696D01*
X0532849Y0102648D01*
X0532805Y0102604D01*
X0532757Y0102562D01*
X0532708Y0102524D01*
X0532656Y0102489D01*
X0532602Y0102457D01*
X0532546Y0102428D01*
X0532488Y0102403D01*
X0532429Y0102382D01*
X0532369Y0102364D01*
X0532307Y0102351D01*
X0532245Y0102341D01*
X0532183Y0102335D01*
X0532120Y0102333D01*
X0532057Y0102335D01*
X0531995Y0102341D01*
X0531933Y0102351D01*
X0531871Y0102364D01*
X0531811Y0102382D01*
X0531752Y0102403D01*
X0531694Y0102428D01*
X0531638Y0102457D01*
X0531584Y0102489D01*
X0531532Y0102524D01*
X0531483Y0102562D01*
X0531435Y0102604D01*
X0531391Y0102648D01*
X0531349Y0102696D01*
X0531311Y0102745D01*
X0531276Y0102797D01*
X0531244Y0102851D01*
X0531215Y0102907D01*
X0531190Y0102965D01*
X0531169Y0103024D01*
X0531151Y0103084D01*
X0531138Y0103146D01*
X0531128Y0103208D01*
X0531122Y0103270D01*
X0531120Y0103333D01*
D11*
X0812740Y0149930D02*
X0812832Y0149666D01*
X0812981Y0149429D01*
X0813179Y0149231D01*
X0813416Y0149082D01*
X0813680Y0148990D01*
X0813958Y0148958D01*
X0814236Y0148990D01*
X0814501Y0149082D01*
X0814738Y0149231D01*
X0814936Y0149429D01*
X0815085Y0149666D01*
X0815177Y0149930D01*
X0815208Y0150208D01*
X0815177Y0150486D01*
X0815085Y0150751D01*
X0814936Y0150988D01*
X0814738Y0151186D01*
X0814501Y0151335D01*
X0814236Y0151427D01*
X0813958Y0151458D01*
X0813680Y0151427D01*
X0813416Y0151335D01*
X0813179Y0151186D01*
X0812981Y0150988D01*
X0812832Y0150751D01*
X0812740Y0150486D01*
X0812708Y0150208D01*
X0812740Y0149930D01*
X0812741Y0149926D02*
X0815176Y0149926D01*
X0815177Y0149935D02*
X0812739Y0149935D01*
X0812738Y0149943D02*
X0815178Y0149943D01*
X0815179Y0149952D02*
X0812737Y0149952D01*
X0812736Y0149960D02*
X0815180Y0149960D01*
X0815181Y0149969D02*
X0812735Y0149969D01*
X0812734Y0149977D02*
X0815182Y0149977D01*
X0815183Y0149986D02*
X0812733Y0149986D01*
X0812732Y0149994D02*
X0815184Y0149994D01*
X0815185Y0150003D02*
X0812731Y0150003D01*
X0812731Y0150011D02*
X0815186Y0150011D01*
X0815187Y0150020D02*
X0812730Y0150020D01*
X0812729Y0150028D02*
X0815188Y0150028D01*
X0815189Y0150037D02*
X0812728Y0150037D01*
X0812727Y0150045D02*
X0815190Y0150045D01*
X0815191Y0150054D02*
X0812726Y0150054D01*
X0812725Y0150062D02*
X0815192Y0150062D01*
X0815193Y0150071D02*
X0812724Y0150071D01*
X0812723Y0150079D02*
X0815194Y0150079D01*
X0815195Y0150088D02*
X0812722Y0150088D01*
X0812721Y0150096D02*
X0815196Y0150096D01*
X0815197Y0150105D02*
X0812720Y0150105D01*
X0812719Y0150113D02*
X0815198Y0150113D01*
X0815199Y0150122D02*
X0812718Y0150122D01*
X0812717Y0150130D02*
X0815200Y0150130D01*
X0815200Y0150139D02*
X0812716Y0150139D01*
X0812715Y0150147D02*
X0815201Y0150147D01*
X0815202Y0150156D02*
X0812714Y0150156D01*
X0812713Y0150164D02*
X0815203Y0150164D01*
X0815204Y0150173D02*
X0812712Y0150173D01*
X0812711Y0150181D02*
X0815205Y0150181D01*
X0815206Y0150190D02*
X0812710Y0150190D01*
X0812709Y0150198D02*
X0815207Y0150198D01*
X0815208Y0150207D02*
X0812708Y0150207D01*
X0812709Y0150215D02*
X0815208Y0150215D01*
X0815207Y0150224D02*
X0812710Y0150224D01*
X0812711Y0150232D02*
X0815206Y0150232D01*
X0815205Y0150241D02*
X0812712Y0150241D01*
X0812713Y0150250D02*
X0815204Y0150250D01*
X0815203Y0150258D02*
X0812714Y0150258D01*
X0812715Y0150267D02*
X0815202Y0150267D01*
X0815201Y0150275D02*
X0812716Y0150275D01*
X0812717Y0150284D02*
X0815200Y0150284D01*
X0815199Y0150292D02*
X0812718Y0150292D01*
X0812719Y0150301D02*
X0815198Y0150301D01*
X0815197Y0150309D02*
X0812720Y0150309D01*
X0812721Y0150318D02*
X0815196Y0150318D01*
X0815195Y0150326D02*
X0812722Y0150326D01*
X0812723Y0150335D02*
X0815194Y0150335D01*
X0815193Y0150343D02*
X0812724Y0150343D01*
X0812724Y0150352D02*
X0815192Y0150352D01*
X0815191Y0150360D02*
X0812725Y0150360D01*
X0812726Y0150369D02*
X0815190Y0150369D01*
X0815189Y0150377D02*
X0812727Y0150377D01*
X0812728Y0150386D02*
X0815188Y0150386D01*
X0815187Y0150394D02*
X0812729Y0150394D01*
X0812730Y0150403D02*
X0815186Y0150403D01*
X0815185Y0150411D02*
X0812731Y0150411D01*
X0812732Y0150420D02*
X0815185Y0150420D01*
X0815184Y0150428D02*
X0812733Y0150428D01*
X0812734Y0150437D02*
X0815183Y0150437D01*
X0815182Y0150445D02*
X0812735Y0150445D01*
X0812736Y0150454D02*
X0815181Y0150454D01*
X0815180Y0150462D02*
X0812737Y0150462D01*
X0812738Y0150471D02*
X0815179Y0150471D01*
X0815178Y0150479D02*
X0812739Y0150479D01*
X0812740Y0150488D02*
X0815177Y0150488D01*
X0815174Y0150496D02*
X0812743Y0150496D01*
X0812746Y0150505D02*
X0815171Y0150505D01*
X0815168Y0150513D02*
X0812749Y0150513D01*
X0812752Y0150522D02*
X0815165Y0150522D01*
X0815162Y0150530D02*
X0812755Y0150530D01*
X0812758Y0150539D02*
X0815159Y0150539D01*
X0815156Y0150548D02*
X0812761Y0150548D01*
X0812764Y0150556D02*
X0815153Y0150556D01*
X0815150Y0150565D02*
X0812767Y0150565D01*
X0812770Y0150573D02*
X0815147Y0150573D01*
X0815144Y0150582D02*
X0812773Y0150582D01*
X0812776Y0150590D02*
X0815141Y0150590D01*
X0815138Y0150599D02*
X0812779Y0150599D01*
X0812782Y0150607D02*
X0815135Y0150607D01*
X0815132Y0150616D02*
X0812785Y0150616D01*
X0812788Y0150624D02*
X0815129Y0150624D01*
X0815126Y0150633D02*
X0812791Y0150633D01*
X0812794Y0150641D02*
X0815123Y0150641D01*
X0815120Y0150650D02*
X0812797Y0150650D01*
X0812800Y0150658D02*
X0815117Y0150658D01*
X0815114Y0150667D02*
X0812803Y0150667D01*
X0812806Y0150675D02*
X0815111Y0150675D01*
X0815108Y0150684D02*
X0812809Y0150684D01*
X0812812Y0150692D02*
X0815105Y0150692D01*
X0815102Y0150701D02*
X0812815Y0150701D01*
X0812818Y0150709D02*
X0815099Y0150709D01*
X0815096Y0150718D02*
X0812821Y0150718D01*
X0812824Y0150726D02*
X0815093Y0150726D01*
X0815090Y0150735D02*
X0812827Y0150735D01*
X0812830Y0150743D02*
X0815087Y0150743D01*
X0815084Y0150752D02*
X0812833Y0150752D01*
X0812838Y0150760D02*
X0815078Y0150760D01*
X0815073Y0150769D02*
X0812844Y0150769D01*
X0812849Y0150777D02*
X0815068Y0150777D01*
X0815062Y0150786D02*
X0812854Y0150786D01*
X0812860Y0150794D02*
X0815057Y0150794D01*
X0815052Y0150803D02*
X0812865Y0150803D01*
X0812870Y0150811D02*
X0815046Y0150811D01*
X0815041Y0150820D02*
X0812876Y0150820D01*
X0812881Y0150828D02*
X0815036Y0150828D01*
X0815030Y0150837D02*
X0812886Y0150837D01*
X0812892Y0150845D02*
X0815025Y0150845D01*
X0815020Y0150854D02*
X0812897Y0150854D01*
X0812902Y0150863D02*
X0815014Y0150863D01*
X0815009Y0150871D02*
X0812908Y0150871D01*
X0812913Y0150880D02*
X0815004Y0150880D01*
X0814998Y0150888D02*
X0812918Y0150888D01*
X0812924Y0150897D02*
X0814993Y0150897D01*
X0814988Y0150905D02*
X0812929Y0150905D01*
X0812934Y0150914D02*
X0814982Y0150914D01*
X0814977Y0150922D02*
X0812940Y0150922D01*
X0812945Y0150931D02*
X0814971Y0150931D01*
X0814966Y0150939D02*
X0812951Y0150939D01*
X0812956Y0150948D02*
X0814961Y0150948D01*
X0814955Y0150956D02*
X0812961Y0150956D01*
X0812967Y0150965D02*
X0814950Y0150965D01*
X0814945Y0150973D02*
X0812972Y0150973D01*
X0812977Y0150982D02*
X0814939Y0150982D01*
X0814933Y0150990D02*
X0812984Y0150990D01*
X0812992Y0150999D02*
X0814925Y0150999D01*
X0814916Y0151007D02*
X0813001Y0151007D01*
X0813009Y0151016D02*
X0814908Y0151016D01*
X0814899Y0151024D02*
X0813018Y0151024D01*
X0813026Y0151033D02*
X0814891Y0151033D01*
X0814882Y0151041D02*
X0813035Y0151041D01*
X0813043Y0151050D02*
X0814873Y0151050D01*
X0814865Y0151058D02*
X0813052Y0151058D01*
X0813060Y0151067D02*
X0814856Y0151067D01*
X0814848Y0151075D02*
X0813069Y0151075D01*
X0813077Y0151084D02*
X0814839Y0151084D01*
X0814831Y0151092D02*
X0813086Y0151092D01*
X0813094Y0151101D02*
X0814822Y0151101D01*
X0814814Y0151109D02*
X0813103Y0151109D01*
X0813111Y0151118D02*
X0814805Y0151118D01*
X0814797Y0151126D02*
X0813120Y0151126D01*
X0813128Y0151135D02*
X0814788Y0151135D01*
X0814780Y0151143D02*
X0813137Y0151143D01*
X0813145Y0151152D02*
X0814771Y0151152D01*
X0814763Y0151160D02*
X0813154Y0151160D01*
X0813162Y0151169D02*
X0814754Y0151169D01*
X0814746Y0151178D02*
X0813171Y0151178D01*
X0813180Y0151186D02*
X0814737Y0151186D01*
X0814723Y0151195D02*
X0813193Y0151195D01*
X0813207Y0151203D02*
X0814710Y0151203D01*
X0814696Y0151212D02*
X0813220Y0151212D01*
X0813234Y0151220D02*
X0814683Y0151220D01*
X0814669Y0151229D02*
X0813247Y0151229D01*
X0813261Y0151237D02*
X0814656Y0151237D01*
X0814642Y0151246D02*
X0813274Y0151246D01*
X0813288Y0151254D02*
X0814629Y0151254D01*
X0814615Y0151263D02*
X0813302Y0151263D01*
X0813315Y0151271D02*
X0814602Y0151271D01*
X0814588Y0151280D02*
X0813329Y0151280D01*
X0813342Y0151288D02*
X0814574Y0151288D01*
X0814561Y0151297D02*
X0813356Y0151297D01*
X0813369Y0151305D02*
X0814547Y0151305D01*
X0814534Y0151314D02*
X0813383Y0151314D01*
X0813396Y0151322D02*
X0814520Y0151322D01*
X0814507Y0151331D02*
X0813410Y0151331D01*
X0813430Y0151339D02*
X0814487Y0151339D01*
X0814463Y0151348D02*
X0813454Y0151348D01*
X0813478Y0151356D02*
X0814438Y0151356D01*
X0814414Y0151365D02*
X0813503Y0151365D01*
X0813527Y0151373D02*
X0814390Y0151373D01*
X0814365Y0151382D02*
X0813551Y0151382D01*
X0813576Y0151390D02*
X0814341Y0151390D01*
X0814317Y0151399D02*
X0813600Y0151399D01*
X0813624Y0151407D02*
X0814292Y0151407D01*
X0814268Y0151416D02*
X0813649Y0151416D01*
X0813673Y0151424D02*
X0814244Y0151424D01*
X0814184Y0151433D02*
X0813733Y0151433D01*
X0813809Y0151441D02*
X0814108Y0151441D01*
X0814033Y0151450D02*
X0813884Y0151450D01*
X0812744Y0149917D02*
X0815173Y0149917D01*
X0815170Y0149909D02*
X0812747Y0149909D01*
X0812750Y0149900D02*
X0815167Y0149900D01*
X0815164Y0149892D02*
X0812753Y0149892D01*
X0812756Y0149883D02*
X0815161Y0149883D01*
X0815158Y0149875D02*
X0812759Y0149875D01*
X0812762Y0149866D02*
X0815155Y0149866D01*
X0815152Y0149858D02*
X0812765Y0149858D01*
X0812768Y0149849D02*
X0815149Y0149849D01*
X0815146Y0149841D02*
X0812771Y0149841D01*
X0812774Y0149832D02*
X0815143Y0149832D01*
X0815140Y0149824D02*
X0812777Y0149824D01*
X0812780Y0149815D02*
X0815137Y0149815D01*
X0815134Y0149807D02*
X0812783Y0149807D01*
X0812786Y0149798D02*
X0815131Y0149798D01*
X0815128Y0149790D02*
X0812789Y0149790D01*
X0812792Y0149781D02*
X0815125Y0149781D01*
X0815122Y0149773D02*
X0812795Y0149773D01*
X0812798Y0149764D02*
X0815119Y0149764D01*
X0815116Y0149756D02*
X0812801Y0149756D01*
X0812804Y0149747D02*
X0815113Y0149747D01*
X0815110Y0149739D02*
X0812807Y0149739D01*
X0812810Y0149730D02*
X0815107Y0149730D01*
X0815104Y0149722D02*
X0812813Y0149722D01*
X0812816Y0149713D02*
X0815101Y0149713D01*
X0815098Y0149705D02*
X0812819Y0149705D01*
X0812822Y0149696D02*
X0815095Y0149696D01*
X0815092Y0149688D02*
X0812825Y0149688D01*
X0812828Y0149679D02*
X0815089Y0149679D01*
X0815086Y0149671D02*
X0812830Y0149671D01*
X0812835Y0149662D02*
X0815082Y0149662D01*
X0815077Y0149654D02*
X0812840Y0149654D01*
X0812845Y0149645D02*
X0815071Y0149645D01*
X0815066Y0149637D02*
X0812851Y0149637D01*
X0812856Y0149628D02*
X0815061Y0149628D01*
X0815055Y0149620D02*
X0812861Y0149620D01*
X0812867Y0149611D02*
X0815050Y0149611D01*
X0815045Y0149602D02*
X0812872Y0149602D01*
X0812877Y0149594D02*
X0815039Y0149594D01*
X0815034Y0149585D02*
X0812883Y0149585D01*
X0812888Y0149577D02*
X0815029Y0149577D01*
X0815023Y0149568D02*
X0812893Y0149568D01*
X0812899Y0149560D02*
X0815018Y0149560D01*
X0815013Y0149551D02*
X0812904Y0149551D01*
X0812909Y0149543D02*
X0815007Y0149543D01*
X0815002Y0149534D02*
X0812915Y0149534D01*
X0812920Y0149526D02*
X0814996Y0149526D01*
X0814991Y0149517D02*
X0812926Y0149517D01*
X0812931Y0149509D02*
X0814986Y0149509D01*
X0814980Y0149500D02*
X0812936Y0149500D01*
X0812942Y0149492D02*
X0814975Y0149492D01*
X0814970Y0149483D02*
X0812947Y0149483D01*
X0812952Y0149475D02*
X0814964Y0149475D01*
X0814959Y0149466D02*
X0812958Y0149466D01*
X0812963Y0149458D02*
X0814954Y0149458D01*
X0814948Y0149449D02*
X0812968Y0149449D01*
X0812974Y0149441D02*
X0814943Y0149441D01*
X0814938Y0149432D02*
X0812979Y0149432D01*
X0812986Y0149424D02*
X0814930Y0149424D01*
X0814922Y0149415D02*
X0812995Y0149415D01*
X0813003Y0149407D02*
X0814913Y0149407D01*
X0814905Y0149398D02*
X0813012Y0149398D01*
X0813020Y0149390D02*
X0814896Y0149390D01*
X0814888Y0149381D02*
X0813029Y0149381D01*
X0813037Y0149373D02*
X0814879Y0149373D01*
X0814871Y0149364D02*
X0813046Y0149364D01*
X0813054Y0149356D02*
X0814862Y0149356D01*
X0814854Y0149347D02*
X0813063Y0149347D01*
X0813071Y0149339D02*
X0814845Y0149339D01*
X0814837Y0149330D02*
X0813080Y0149330D01*
X0813088Y0149322D02*
X0814828Y0149322D01*
X0814820Y0149313D02*
X0813097Y0149313D01*
X0813106Y0149304D02*
X0814811Y0149304D01*
X0814803Y0149296D02*
X0813114Y0149296D01*
X0813123Y0149287D02*
X0814794Y0149287D01*
X0814786Y0149279D02*
X0813131Y0149279D01*
X0813140Y0149270D02*
X0814777Y0149270D01*
X0814769Y0149262D02*
X0813148Y0149262D01*
X0813157Y0149253D02*
X0814760Y0149253D01*
X0814752Y0149245D02*
X0813165Y0149245D01*
X0813174Y0149236D02*
X0814743Y0149236D01*
X0814733Y0149228D02*
X0813184Y0149228D01*
X0813198Y0149219D02*
X0814719Y0149219D01*
X0814706Y0149211D02*
X0813211Y0149211D01*
X0813225Y0149202D02*
X0814692Y0149202D01*
X0814678Y0149194D02*
X0813238Y0149194D01*
X0813252Y0149185D02*
X0814665Y0149185D01*
X0814651Y0149177D02*
X0813265Y0149177D01*
X0813279Y0149168D02*
X0814638Y0149168D01*
X0814624Y0149160D02*
X0813292Y0149160D01*
X0813306Y0149151D02*
X0814611Y0149151D01*
X0814597Y0149143D02*
X0813320Y0149143D01*
X0813333Y0149134D02*
X0814584Y0149134D01*
X0814570Y0149126D02*
X0813347Y0149126D01*
X0813360Y0149117D02*
X0814556Y0149117D01*
X0814543Y0149109D02*
X0813374Y0149109D01*
X0813387Y0149100D02*
X0814529Y0149100D01*
X0814516Y0149092D02*
X0813401Y0149092D01*
X0813414Y0149083D02*
X0814502Y0149083D01*
X0814479Y0149075D02*
X0813437Y0149075D01*
X0813462Y0149066D02*
X0814455Y0149066D01*
X0814431Y0149058D02*
X0813486Y0149058D01*
X0813510Y0149049D02*
X0814406Y0149049D01*
X0814382Y0149041D02*
X0813535Y0149041D01*
X0813559Y0149032D02*
X0814358Y0149032D01*
X0814333Y0149024D02*
X0813583Y0149024D01*
X0813608Y0149015D02*
X0814309Y0149015D01*
X0814285Y0149007D02*
X0813632Y0149007D01*
X0813656Y0148998D02*
X0814260Y0148998D01*
X0814235Y0148989D02*
X0813682Y0148989D01*
X0813757Y0148981D02*
X0814159Y0148981D01*
X0814084Y0148972D02*
X0813833Y0148972D01*
X0813909Y0148964D02*
X0814008Y0148964D01*
D12*
X0604633Y0172333D03*
D13*
X0554099Y0121359D02*
X0571359Y0104099D01*
X0571359Y0102568D01*
X0554099Y0085308D01*
X0552568Y0085308D01*
X0535308Y0102568D01*
X0535308Y0104099D01*
X0552568Y0121359D01*
X0554099Y0121359D01*
D14*
X0655184Y0035144D03*
X0661483Y0035144D03*
X0641010Y0034514D03*
X0635656Y0034514D03*
X0816916Y0034987D03*
D15*
X0816759Y0035066D03*
X0661325Y0035223D03*
X0655341Y0035223D03*
X0641168Y0034593D03*
X0635499Y0034593D03*
D16*
X0635184Y0034751D03*
X0641483Y0034751D03*
X0655499Y0035381D03*
X0661168Y0035381D03*
D17*
X0661010Y0035459D03*
X0655656Y0035459D03*
D18*
X0657546Y0036010D03*
X0657703Y0036010D03*
X0659278Y0037900D03*
X0648491Y0035538D03*
X0640223Y0036798D03*
X0620223Y0036010D03*
X0618806Y0036955D03*
X0606286Y0034278D03*
X0620381Y0032388D03*
X0616916Y0029396D03*
X0616916Y0026247D03*
X0616759Y0026247D03*
X0616601Y0026247D03*
X0616444Y0026247D03*
X0617073Y0026247D03*
X0617231Y0026247D03*
X0617388Y0026247D03*
X0617546Y0026247D03*
X0617703Y0026247D03*
X0617861Y0026247D03*
X0618018Y0026247D03*
X0618176Y0026247D03*
X0618333Y0026247D03*
X0618491Y0026247D03*
X0618648Y0026247D03*
X0618806Y0026247D03*
X0618963Y0026247D03*
X0619121Y0026247D03*
X0619278Y0026247D03*
X0619436Y0026247D03*
X0619593Y0026247D03*
X0619751Y0026247D03*
X0619908Y0026247D03*
X0620066Y0026247D03*
X0620223Y0026247D03*
X0627073Y0026247D03*
X0627231Y0026247D03*
X0627388Y0026247D03*
X0627546Y0026247D03*
X0627703Y0026247D03*
X0627861Y0026247D03*
X0629278Y0026247D03*
X0629436Y0026247D03*
X0629593Y0026247D03*
X0629751Y0026247D03*
X0636444Y0026247D03*
X0636601Y0026247D03*
X0636759Y0026247D03*
X0636916Y0026247D03*
X0637073Y0026247D03*
X0637231Y0026247D03*
X0637388Y0026247D03*
X0637546Y0026247D03*
X0637703Y0026247D03*
X0637861Y0026247D03*
X0638018Y0026247D03*
X0638176Y0026247D03*
X0638333Y0026247D03*
X0638491Y0026247D03*
X0638648Y0026247D03*
X0638806Y0026247D03*
X0638963Y0026247D03*
X0639121Y0026247D03*
X0639278Y0026247D03*
X0639436Y0026247D03*
X0639593Y0026247D03*
X0639751Y0026247D03*
X0639908Y0026247D03*
X0640066Y0026247D03*
X0640223Y0026247D03*
X0636916Y0029396D03*
X0645814Y0026719D03*
X0646601Y0026719D03*
X0647546Y0026719D03*
X0647703Y0026719D03*
X0647861Y0026719D03*
X0648018Y0026719D03*
X0648176Y0026719D03*
X0648333Y0026719D03*
X0648491Y0026719D03*
X0648648Y0026719D03*
X0648806Y0026719D03*
X0648963Y0026719D03*
X0649121Y0026719D03*
X0649278Y0026719D03*
X0649436Y0026719D03*
X0649593Y0026719D03*
X0649751Y0026719D03*
X0649908Y0026719D03*
X0650066Y0026719D03*
X0650223Y0026719D03*
X0650381Y0026719D03*
X0650538Y0026719D03*
X0655814Y0026877D03*
X0656601Y0026877D03*
X0658333Y0026877D03*
X0658491Y0026877D03*
X0658648Y0026877D03*
X0658806Y0026877D03*
X0659278Y0026877D03*
X0659436Y0026877D03*
X0659593Y0026877D03*
X0659751Y0026877D03*
X0669593Y0026247D03*
X0669751Y0026247D03*
X0669908Y0026247D03*
X0670223Y0026247D03*
X0669751Y0029081D03*
X0667073Y0030656D03*
X0666916Y0030656D03*
X0666759Y0030656D03*
X0677703Y0026089D03*
X0677861Y0026089D03*
X0678018Y0026089D03*
X0678176Y0026089D03*
X0678333Y0026089D03*
X0678491Y0026089D03*
X0678648Y0026089D03*
X0678806Y0026089D03*
X0678963Y0026089D03*
X0686444Y0026089D03*
X0686601Y0026089D03*
X0686916Y0026089D03*
X0687073Y0026089D03*
X0687073Y0029081D03*
X0689593Y0030656D03*
X0697073Y0029081D03*
X0699593Y0030656D03*
X0699751Y0030656D03*
X0697073Y0026089D03*
X0696916Y0026089D03*
X0696601Y0026089D03*
X0696444Y0026089D03*
X0680223Y0032861D03*
X0697073Y0035538D03*
X0699751Y0037113D03*
X0697546Y0038845D03*
X0697388Y0038845D03*
X0689908Y0039318D03*
X0689751Y0039318D03*
X0689593Y0039318D03*
X0687231Y0039318D03*
X0687073Y0039318D03*
X0686916Y0039318D03*
X0686759Y0039318D03*
X0678963Y0039633D03*
X0678806Y0039633D03*
X0678648Y0039633D03*
X0678491Y0039633D03*
X0678333Y0039633D03*
X0678176Y0039633D03*
X0678018Y0039633D03*
X0677861Y0039633D03*
X0677703Y0039633D03*
X0669278Y0042310D03*
X0669121Y0042310D03*
X0668648Y0042310D03*
X0668491Y0042310D03*
X0660538Y0040892D03*
X0658806Y0040892D03*
X0658176Y0040892D03*
X0646129Y0043412D03*
X0639593Y0041365D03*
X0637073Y0041365D03*
X0656286Y0044672D03*
X0666601Y0046562D03*
X0696286Y0047192D03*
X0696444Y0047192D03*
X0609751Y0026877D03*
X0609593Y0026877D03*
X0609436Y0026877D03*
X0608648Y0026877D03*
X0608491Y0026877D03*
X0608333Y0026877D03*
X0608176Y0026877D03*
X0490223Y0024593D03*
X0488963Y0022703D03*
X0488806Y0022703D03*
X0487861Y0022703D03*
X0486601Y0020656D03*
X0489278Y0019869D03*
X0487546Y0016247D03*
X0487388Y0016247D03*
X0487231Y0016247D03*
X0487861Y0027585D03*
X0487861Y0030262D03*
X0488018Y0030262D03*
X0488176Y0030262D03*
X0488333Y0030262D03*
X0488491Y0030262D03*
X0488648Y0030262D03*
X0488806Y0030262D03*
X0488963Y0030262D03*
X0489121Y0030262D03*
X0489278Y0030262D03*
X0489436Y0030262D03*
X0489593Y0030262D03*
X0489751Y0030262D03*
X0489908Y0030262D03*
X0490066Y0030262D03*
X0487703Y0030262D03*
X0487546Y0030262D03*
X0487388Y0030262D03*
X0487231Y0030262D03*
X0487231Y0033097D03*
X0487388Y0033097D03*
X0487546Y0033097D03*
X0487703Y0033097D03*
X0487861Y0033097D03*
X0488018Y0033097D03*
X0488176Y0033097D03*
X0488333Y0033097D03*
X0488491Y0033097D03*
X0488648Y0033097D03*
X0488806Y0033097D03*
X0488963Y0033097D03*
X0489121Y0033097D03*
X0489278Y0033097D03*
X0489436Y0033097D03*
X0489593Y0033097D03*
X0489751Y0033097D03*
X0489908Y0033097D03*
X0490066Y0033097D03*
X0489908Y0035932D03*
X0489751Y0035932D03*
X0487073Y0037507D03*
X0489593Y0039081D03*
X0489751Y0039081D03*
X0409908Y0041286D03*
X0409751Y0041286D03*
X0407073Y0039711D03*
X0409593Y0038136D03*
X0409751Y0038136D03*
X0407703Y0032625D03*
X0407546Y0032625D03*
X0409751Y0030735D03*
X0407073Y0029160D03*
X0406444Y0018924D03*
X0406916Y0016247D03*
X0407073Y0016247D03*
X0409593Y0046168D03*
X0627546Y0119278D03*
X0627546Y0125420D03*
X0629593Y0129829D03*
X0629751Y0129829D03*
X0629908Y0129987D03*
X0630066Y0129987D03*
X0627546Y0132664D03*
X0629593Y0141010D03*
X0630381Y0150617D03*
X0630381Y0153451D03*
X0627546Y0169672D03*
X0806759Y0050971D03*
X0809908Y0050971D03*
X0846286Y0047192D03*
X0846444Y0047192D03*
X0818806Y0042310D03*
X0818648Y0042310D03*
X0818491Y0042310D03*
X0818333Y0042310D03*
X0818176Y0042310D03*
X0818018Y0042310D03*
X0827703Y0039633D03*
X0827861Y0039633D03*
X0828018Y0039633D03*
X0828176Y0039633D03*
X0828333Y0039633D03*
X0828491Y0039633D03*
X0828648Y0039633D03*
X0828806Y0039633D03*
X0828963Y0039633D03*
X0836759Y0039318D03*
X0836916Y0039318D03*
X0837073Y0039318D03*
X0837231Y0039318D03*
X0839593Y0039318D03*
X0839751Y0039318D03*
X0839908Y0039318D03*
X0847388Y0038845D03*
X0847546Y0038845D03*
X0849751Y0037113D03*
X0847073Y0035538D03*
X0830223Y0032861D03*
X0839593Y0030656D03*
X0837073Y0029081D03*
X0837073Y0026089D03*
X0836916Y0026089D03*
X0836601Y0026089D03*
X0836444Y0026089D03*
X0828963Y0026089D03*
X0828806Y0026089D03*
X0828648Y0026089D03*
X0828491Y0026089D03*
X0828333Y0026089D03*
X0828176Y0026089D03*
X0828018Y0026089D03*
X0827861Y0026089D03*
X0827703Y0026089D03*
X0820538Y0026719D03*
X0820381Y0026719D03*
X0820223Y0026719D03*
X0820066Y0026719D03*
X0819908Y0026719D03*
X0819751Y0026719D03*
X0819593Y0026719D03*
X0819436Y0026719D03*
X0819278Y0026719D03*
X0819121Y0026719D03*
X0818963Y0026719D03*
X0818806Y0026719D03*
X0818648Y0026719D03*
X0818491Y0026719D03*
X0818333Y0026719D03*
X0818176Y0026719D03*
X0818018Y0026719D03*
X0817861Y0026719D03*
X0817703Y0026719D03*
X0817546Y0026719D03*
X0816601Y0026719D03*
X0815814Y0026719D03*
X0808648Y0026089D03*
X0808491Y0026089D03*
X0808333Y0026089D03*
X0808176Y0026089D03*
X0808018Y0026089D03*
X0810381Y0032703D03*
X0809751Y0036798D03*
X0807073Y0038373D03*
X0806916Y0038373D03*
X0806759Y0038373D03*
X0806759Y0035381D03*
X0806916Y0035381D03*
X0806601Y0035381D03*
X0818491Y0035538D03*
X0849593Y0030656D03*
X0849751Y0030656D03*
X0847073Y0029081D03*
X0847073Y0026089D03*
X0846916Y0026089D03*
X0846601Y0026089D03*
X0846444Y0026089D03*
D19*
X0846759Y0026010D03*
X0847231Y0029003D03*
X0849278Y0030735D03*
X0849436Y0030735D03*
X0837231Y0029003D03*
X0836759Y0026010D03*
X0826286Y0030577D03*
X0826444Y0032940D03*
X0826601Y0032940D03*
X0819278Y0033570D03*
X0810223Y0032625D03*
X0806444Y0032625D03*
X0807073Y0035302D03*
X0807231Y0035302D03*
X0807231Y0038451D03*
X0807388Y0038451D03*
X0810381Y0040814D03*
X0806601Y0042703D03*
X0819908Y0039711D03*
X0820696Y0039869D03*
X0828333Y0037034D03*
X0837546Y0037034D03*
X0840223Y0035144D03*
X0847231Y0035459D03*
X0847388Y0035459D03*
X0847703Y0038924D03*
X0847861Y0038924D03*
X0846916Y0047270D03*
X0846759Y0047270D03*
X0846601Y0047270D03*
X0809751Y0050892D03*
X0809593Y0050735D03*
X0809436Y0050577D03*
X0807861Y0049948D03*
X0807073Y0050735D03*
X0806916Y0050892D03*
X0807546Y0029160D03*
X0815971Y0026640D03*
X0816129Y0026640D03*
X0816286Y0026640D03*
X0816444Y0026640D03*
X0699436Y0030735D03*
X0699278Y0030735D03*
X0697231Y0029003D03*
X0696759Y0026010D03*
X0687231Y0029003D03*
X0686759Y0026010D03*
X0676286Y0030577D03*
X0676444Y0032940D03*
X0676601Y0032940D03*
X0667388Y0030735D03*
X0667231Y0030735D03*
X0660696Y0032467D03*
X0660538Y0034829D03*
X0649278Y0033570D03*
X0637861Y0035932D03*
X0636601Y0036877D03*
X0637703Y0038766D03*
X0638963Y0038766D03*
X0630381Y0039239D03*
X0626286Y0039239D03*
X0617861Y0038924D03*
X0617703Y0034042D03*
X0618963Y0034042D03*
X0619121Y0034042D03*
X0616444Y0032310D03*
X0606129Y0034199D03*
X0627861Y0029633D03*
X0645971Y0026640D03*
X0646129Y0026640D03*
X0646286Y0026640D03*
X0646444Y0026640D03*
X0655971Y0026798D03*
X0656129Y0026798D03*
X0656286Y0026798D03*
X0656444Y0026798D03*
X0658963Y0026798D03*
X0659121Y0026798D03*
X0670066Y0026168D03*
X0690223Y0035144D03*
X0687546Y0037034D03*
X0678333Y0037034D03*
X0670381Y0040026D03*
X0670223Y0042388D03*
X0669751Y0042388D03*
X0669593Y0042388D03*
X0669436Y0042388D03*
X0668333Y0042388D03*
X0668176Y0042388D03*
X0668018Y0042388D03*
X0667546Y0042388D03*
X0667388Y0042388D03*
X0667231Y0042388D03*
X0660381Y0040971D03*
X0658963Y0040971D03*
X0655814Y0044278D03*
X0656129Y0044593D03*
X0645971Y0043333D03*
X0645814Y0043176D03*
X0649908Y0039711D03*
X0650696Y0039869D03*
X0660381Y0037349D03*
X0667073Y0046168D03*
X0666759Y0046483D03*
X0696601Y0047270D03*
X0696759Y0047270D03*
X0696916Y0047270D03*
X0697703Y0038924D03*
X0697861Y0038924D03*
X0697388Y0035459D03*
X0697231Y0035459D03*
X0609278Y0026798D03*
X0609121Y0026798D03*
X0608963Y0026798D03*
X0608806Y0026798D03*
X0606601Y0026798D03*
X0606444Y0026798D03*
X0606286Y0026798D03*
X0606129Y0026798D03*
X0605971Y0026798D03*
X0605814Y0026798D03*
X0489593Y0035853D03*
X0489436Y0035853D03*
X0487231Y0037428D03*
X0489278Y0039160D03*
X0489436Y0039160D03*
X0489593Y0043885D03*
X0489751Y0043885D03*
X0410223Y0046089D03*
X0409751Y0046247D03*
X0409593Y0041365D03*
X0409436Y0041365D03*
X0407231Y0039790D03*
X0409278Y0038058D03*
X0409436Y0038058D03*
X0408018Y0032703D03*
X0407861Y0032703D03*
X0406601Y0019003D03*
X0410066Y0018845D03*
X0410223Y0018845D03*
X0406759Y0016325D03*
X0406601Y0016325D03*
X0406444Y0016325D03*
X0406286Y0016483D03*
X0486286Y0016640D03*
X0486916Y0016325D03*
X0487073Y0016325D03*
X0487703Y0022625D03*
X0486601Y0024672D03*
X0627388Y0112900D03*
X0629278Y0112900D03*
X0630381Y0114160D03*
X0629908Y0116680D03*
X0629751Y0116680D03*
X0629593Y0116680D03*
X0628491Y0122034D03*
X0630381Y0122349D03*
X0629436Y0129751D03*
X0628491Y0150223D03*
X0628491Y0153058D03*
X0629436Y0154003D03*
X0627546Y0162822D03*
D20*
X0628491Y0163688D03*
X0628491Y0161955D03*
X0630381Y0162743D03*
X0629278Y0165262D03*
X0629278Y0166995D03*
X0629278Y0158806D03*
X0629436Y0151247D03*
X0629278Y0148412D03*
X0629278Y0146680D03*
X0629278Y0145105D03*
X0629278Y0143373D03*
X0629751Y0141010D03*
X0629908Y0141010D03*
X0628333Y0140066D03*
X0628648Y0136601D03*
X0629278Y0136601D03*
X0629278Y0133609D03*
X0630381Y0132664D03*
X0629278Y0131719D03*
X0630223Y0129987D03*
X0629436Y0122900D03*
X0628491Y0120066D03*
X0628491Y0118333D03*
X0629436Y0116601D03*
X0630066Y0116759D03*
X0630223Y0116759D03*
X0630381Y0119278D03*
X0626286Y0114081D03*
X0627703Y0112664D03*
X0807231Y0050656D03*
X0808018Y0050026D03*
X0808648Y0050026D03*
X0808806Y0050026D03*
X0806286Y0046247D03*
X0808806Y0044514D03*
X0808963Y0044672D03*
X0810223Y0043097D03*
X0818018Y0039790D03*
X0820066Y0039790D03*
X0820223Y0039790D03*
X0820381Y0039790D03*
X0820538Y0039790D03*
X0827861Y0036955D03*
X0828018Y0036955D03*
X0828176Y0036955D03*
X0828491Y0036955D03*
X0828648Y0036955D03*
X0828806Y0036955D03*
X0837546Y0033333D03*
X0830066Y0032861D03*
X0826759Y0033018D03*
X0839278Y0030656D03*
X0839436Y0030656D03*
X0837388Y0029081D03*
X0828963Y0028924D03*
X0828806Y0028766D03*
X0847388Y0029081D03*
X0848963Y0030814D03*
X0849121Y0030814D03*
X0850381Y0034593D03*
X0848018Y0035223D03*
X0847703Y0035381D03*
X0847546Y0035381D03*
X0849593Y0037113D03*
X0848176Y0039003D03*
X0848018Y0039003D03*
X0810066Y0032703D03*
X0809908Y0032703D03*
X0809751Y0032703D03*
X0809593Y0032703D03*
X0809436Y0032703D03*
X0809278Y0032703D03*
X0809121Y0032703D03*
X0808963Y0032703D03*
X0808806Y0032703D03*
X0807861Y0032703D03*
X0807703Y0032703D03*
X0807546Y0032703D03*
X0807388Y0032703D03*
X0807231Y0032703D03*
X0807073Y0032703D03*
X0806916Y0032703D03*
X0806759Y0032703D03*
X0806601Y0032703D03*
X0806286Y0030499D03*
X0807388Y0035223D03*
X0807546Y0035223D03*
X0809593Y0036798D03*
X0807703Y0038530D03*
X0807546Y0038530D03*
X0700381Y0034593D03*
X0698018Y0035223D03*
X0697703Y0035381D03*
X0697546Y0035381D03*
X0699593Y0037113D03*
X0698176Y0039003D03*
X0698018Y0039003D03*
X0687546Y0033333D03*
X0680066Y0032861D03*
X0676759Y0033018D03*
X0667703Y0030814D03*
X0667546Y0030814D03*
X0669593Y0029081D03*
X0678806Y0028766D03*
X0678963Y0028924D03*
X0687388Y0029081D03*
X0689278Y0030656D03*
X0689436Y0030656D03*
X0697388Y0029081D03*
X0698963Y0030814D03*
X0699121Y0030814D03*
X0678806Y0036955D03*
X0678648Y0036955D03*
X0678491Y0036955D03*
X0678176Y0036955D03*
X0678018Y0036955D03*
X0677861Y0036955D03*
X0670066Y0042467D03*
X0669908Y0042467D03*
X0667861Y0042467D03*
X0667703Y0042467D03*
X0666286Y0041050D03*
X0660223Y0041050D03*
X0659121Y0041050D03*
X0658018Y0040892D03*
X0650538Y0039790D03*
X0650381Y0039790D03*
X0650223Y0039790D03*
X0650066Y0039790D03*
X0648018Y0039790D03*
X0639436Y0041365D03*
X0637231Y0041365D03*
X0639121Y0038845D03*
X0640066Y0036798D03*
X0636286Y0033491D03*
X0630066Y0030499D03*
X0627546Y0032546D03*
X0626286Y0033806D03*
X0620223Y0032231D03*
X0626601Y0030499D03*
X0617073Y0029396D03*
X0610696Y0030814D03*
X0605971Y0034121D03*
X0605814Y0033963D03*
X0616601Y0036010D03*
X0620066Y0036010D03*
X0616286Y0039318D03*
X0655971Y0044514D03*
X0666916Y0046404D03*
X0660223Y0037270D03*
X0659593Y0037585D03*
X0658018Y0036010D03*
X0657861Y0036010D03*
X0660223Y0034751D03*
X0660381Y0034751D03*
X0657388Y0032546D03*
X0637073Y0029396D03*
X0490381Y0027900D03*
X0486286Y0027900D03*
X0487546Y0022703D03*
X0489121Y0022703D03*
X0486759Y0016404D03*
X0486601Y0016404D03*
X0486444Y0016404D03*
X0409908Y0018766D03*
X0406759Y0019081D03*
X0406444Y0025066D03*
X0408806Y0026640D03*
X0408963Y0026640D03*
X0410223Y0025066D03*
X0409593Y0030735D03*
X0408333Y0032782D03*
X0408176Y0032782D03*
X0408963Y0037979D03*
X0409121Y0037979D03*
X0407546Y0039711D03*
X0407388Y0039711D03*
X0409121Y0041444D03*
X0409278Y0041444D03*
X0410381Y0046010D03*
X0410066Y0046168D03*
X0409908Y0046168D03*
X0487388Y0037507D03*
X0488963Y0039239D03*
X0489121Y0039239D03*
X0489121Y0035774D03*
X0489278Y0035774D03*
X0490381Y0043648D03*
X0490223Y0043806D03*
X0490066Y0043806D03*
X0489908Y0043806D03*
D21*
X0489436Y0043885D03*
X0489908Y0039003D03*
X0490066Y0039003D03*
X0486916Y0037428D03*
X0490066Y0036010D03*
X0490223Y0036010D03*
X0490223Y0033176D03*
X0490223Y0030341D03*
X0488806Y0025617D03*
X0486444Y0024672D03*
X0487703Y0016168D03*
X0487861Y0016168D03*
X0410381Y0018845D03*
X0407546Y0016168D03*
X0407388Y0016168D03*
X0407231Y0016168D03*
X0406286Y0025144D03*
X0410381Y0025144D03*
X0407388Y0028924D03*
X0407231Y0029081D03*
X0406916Y0029239D03*
X0406759Y0029239D03*
X0409908Y0030814D03*
X0407388Y0032546D03*
X0407231Y0032546D03*
X0407231Y0035381D03*
X0407388Y0035381D03*
X0407546Y0035381D03*
X0407703Y0035381D03*
X0407861Y0035381D03*
X0408018Y0035381D03*
X0408176Y0035381D03*
X0408333Y0035381D03*
X0408491Y0035381D03*
X0408648Y0035381D03*
X0408806Y0035381D03*
X0408963Y0035381D03*
X0409121Y0035381D03*
X0409278Y0035381D03*
X0409436Y0035381D03*
X0409593Y0035381D03*
X0409751Y0035381D03*
X0409908Y0035381D03*
X0410066Y0035381D03*
X0410223Y0035381D03*
X0410066Y0038215D03*
X0409908Y0038215D03*
X0406916Y0039790D03*
X0410066Y0041207D03*
X0410223Y0041207D03*
X0606444Y0034357D03*
X0617861Y0034042D03*
X0618018Y0034042D03*
X0618176Y0034042D03*
X0618333Y0034042D03*
X0618491Y0034042D03*
X0618648Y0034042D03*
X0618806Y0034042D03*
X0636444Y0036877D03*
X0637861Y0038766D03*
X0638018Y0038766D03*
X0638176Y0038766D03*
X0638648Y0038766D03*
X0638806Y0038766D03*
X0648806Y0039554D03*
X0648963Y0039554D03*
X0649121Y0039554D03*
X0649278Y0039554D03*
X0660538Y0037349D03*
X0648333Y0035459D03*
X0638806Y0034042D03*
X0660696Y0034829D03*
X0666601Y0030577D03*
X0669908Y0029160D03*
X0669436Y0026325D03*
X0669278Y0026325D03*
X0670381Y0026325D03*
X0677388Y0026168D03*
X0677546Y0026168D03*
X0679121Y0026168D03*
X0679278Y0026168D03*
X0687231Y0026168D03*
X0687388Y0026168D03*
X0686916Y0029003D03*
X0686759Y0029003D03*
X0689751Y0030735D03*
X0696759Y0029003D03*
X0696916Y0029003D03*
X0697231Y0026168D03*
X0697388Y0026168D03*
X0699908Y0030577D03*
X0700066Y0030577D03*
X0680381Y0032940D03*
X0686444Y0035144D03*
X0686601Y0039239D03*
X0687388Y0039239D03*
X0689278Y0039239D03*
X0689436Y0039239D03*
X0690066Y0039239D03*
X0697231Y0038766D03*
X0699908Y0037034D03*
X0696916Y0035459D03*
X0679278Y0039554D03*
X0679121Y0039554D03*
X0677546Y0039554D03*
X0677388Y0039554D03*
X0670381Y0042388D03*
X0668963Y0042231D03*
X0668806Y0042231D03*
X0660696Y0040814D03*
X0646286Y0043491D03*
X0656444Y0044751D03*
X0697073Y0047113D03*
X0659908Y0026955D03*
X0658176Y0026955D03*
X0658018Y0026955D03*
X0650696Y0026798D03*
X0647388Y0026798D03*
X0640381Y0026325D03*
X0629908Y0026325D03*
X0629121Y0026325D03*
X0628176Y0026325D03*
X0628018Y0026325D03*
X0626916Y0026325D03*
X0626759Y0026325D03*
X0620381Y0026325D03*
X0610066Y0026955D03*
X0609908Y0026955D03*
X0608018Y0026955D03*
X0806286Y0032625D03*
X0809908Y0036877D03*
X0806601Y0038294D03*
X0818333Y0035459D03*
X0818806Y0039554D03*
X0818963Y0039554D03*
X0819121Y0039554D03*
X0819278Y0039554D03*
X0818963Y0042388D03*
X0810381Y0043176D03*
X0827388Y0039554D03*
X0827546Y0039554D03*
X0829121Y0039554D03*
X0829278Y0039554D03*
X0836601Y0039239D03*
X0837388Y0039239D03*
X0839278Y0039239D03*
X0839436Y0039239D03*
X0840066Y0039239D03*
X0847231Y0038766D03*
X0849908Y0037034D03*
X0846916Y0035459D03*
X0836444Y0035144D03*
X0830381Y0032940D03*
X0839751Y0030735D03*
X0836916Y0029003D03*
X0836759Y0029003D03*
X0837231Y0026168D03*
X0837388Y0026168D03*
X0829278Y0026168D03*
X0829121Y0026168D03*
X0827546Y0026168D03*
X0827388Y0026168D03*
X0820696Y0026798D03*
X0817388Y0026798D03*
X0809121Y0026168D03*
X0808963Y0026168D03*
X0808806Y0026168D03*
X0807861Y0026168D03*
X0807703Y0026168D03*
X0807546Y0026168D03*
X0846759Y0029003D03*
X0846916Y0029003D03*
X0847231Y0026168D03*
X0847388Y0026168D03*
X0849908Y0030577D03*
X0850066Y0030577D03*
X0847073Y0047113D03*
X0810066Y0051050D03*
X0806601Y0051050D03*
X0629278Y0122664D03*
X0627546Y0122507D03*
X0630381Y0125499D03*
X0629436Y0140932D03*
X0627546Y0150696D03*
X0629278Y0151010D03*
X0629278Y0153688D03*
X0627546Y0153530D03*
X0630223Y0162822D03*
X0630381Y0169751D03*
D22*
X0630223Y0169672D03*
X0630223Y0166522D03*
X0627546Y0166522D03*
X0630066Y0162743D03*
X0627546Y0158333D03*
X0627861Y0153451D03*
X0627861Y0150617D03*
X0628018Y0150617D03*
X0627703Y0144003D03*
X0630223Y0143845D03*
X0628963Y0141010D03*
X0630223Y0137231D03*
X0627546Y0137073D03*
X0627861Y0132664D03*
X0630066Y0132664D03*
X0628333Y0129672D03*
X0628176Y0129672D03*
X0627703Y0129672D03*
X0627546Y0129672D03*
X0630223Y0125577D03*
X0629593Y0122428D03*
X0630066Y0122270D03*
X0628176Y0122270D03*
X0627861Y0122428D03*
X0627861Y0119278D03*
X0630066Y0119278D03*
X0630223Y0114081D03*
X0810381Y0051129D03*
X0816129Y0043727D03*
X0819436Y0042625D03*
X0826759Y0039318D03*
X0829908Y0039318D03*
X0840381Y0039003D03*
X0850381Y0037113D03*
X0840381Y0035223D03*
X0819593Y0032703D03*
X0810381Y0036798D03*
X0806286Y0038215D03*
X0840066Y0030814D03*
X0850381Y0030499D03*
X0848333Y0026404D03*
X0848176Y0026404D03*
X0838333Y0026404D03*
X0838176Y0026404D03*
X0829908Y0026404D03*
X0826759Y0026404D03*
X0806916Y0026404D03*
X0700381Y0030499D03*
X0690066Y0030814D03*
X0688333Y0026404D03*
X0688176Y0026404D03*
X0679908Y0026404D03*
X0676759Y0026404D03*
X0670381Y0029081D03*
X0668491Y0026562D03*
X0668333Y0026562D03*
X0657546Y0027192D03*
X0658806Y0029711D03*
X0658963Y0029711D03*
X0659121Y0029711D03*
X0659278Y0029711D03*
X0666286Y0030499D03*
X0666444Y0033648D03*
X0666601Y0033648D03*
X0666759Y0033648D03*
X0666916Y0033648D03*
X0667073Y0033648D03*
X0667231Y0033648D03*
X0667388Y0033648D03*
X0667546Y0033648D03*
X0667703Y0033648D03*
X0667861Y0033648D03*
X0668018Y0033648D03*
X0668176Y0033648D03*
X0668333Y0033648D03*
X0668491Y0033648D03*
X0668648Y0033648D03*
X0668806Y0033648D03*
X0668963Y0033648D03*
X0669121Y0033648D03*
X0669278Y0033648D03*
X0669436Y0033648D03*
X0660696Y0037428D03*
X0659436Y0038215D03*
X0676759Y0039318D03*
X0679908Y0039318D03*
X0690381Y0039003D03*
X0700381Y0037113D03*
X0690381Y0035223D03*
X0698176Y0026404D03*
X0698333Y0026404D03*
X0649593Y0032703D03*
X0640381Y0036798D03*
X0637546Y0035696D03*
X0629436Y0036483D03*
X0629278Y0036483D03*
X0629121Y0036483D03*
X0628963Y0036483D03*
X0628806Y0036483D03*
X0628648Y0036483D03*
X0628491Y0036483D03*
X0628333Y0036483D03*
X0628176Y0036483D03*
X0628018Y0036483D03*
X0627861Y0036483D03*
X0627703Y0036483D03*
X0627546Y0036483D03*
X0627388Y0036483D03*
X0627231Y0036483D03*
X0627073Y0036483D03*
X0626916Y0036483D03*
X0626759Y0036483D03*
X0626601Y0036483D03*
X0626444Y0036483D03*
X0620381Y0036010D03*
X0609751Y0034593D03*
X0616444Y0029396D03*
X0619436Y0029396D03*
X0619593Y0029396D03*
X0619751Y0029396D03*
X0619908Y0029396D03*
X0620066Y0029396D03*
X0607546Y0027192D03*
X0636444Y0029396D03*
X0639436Y0029396D03*
X0639593Y0029396D03*
X0639751Y0029396D03*
X0639908Y0029396D03*
X0640066Y0029396D03*
X0636759Y0041365D03*
X0629908Y0041995D03*
X0626759Y0041995D03*
X0619908Y0041995D03*
X0616759Y0041995D03*
X0646601Y0043570D03*
X0656601Y0044672D03*
X0667546Y0045302D03*
X0669121Y0045302D03*
X0490381Y0038924D03*
X0486444Y0037507D03*
X0490381Y0036089D03*
X0487546Y0027270D03*
X0490381Y0024593D03*
X0489278Y0015932D03*
X0489121Y0015932D03*
X0488963Y0015932D03*
X0410381Y0030735D03*
X0410381Y0038294D03*
X0406444Y0039711D03*
X0410381Y0041129D03*
X0408806Y0015932D03*
X0408648Y0015932D03*
D23*
X0656759Y0036010D03*
X0815184Y0035853D03*
X0821483Y0035853D03*
D24*
X0656916Y0036089D03*
D25*
X0657073Y0036168D03*
D26*
X0657231Y0032546D03*
D27*
X0657231Y0042940D03*
D28*
X0667231Y0045459D03*
X0669436Y0045459D03*
X0658491Y0040420D03*
X0667388Y0037113D03*
X0667546Y0037113D03*
X0667703Y0037113D03*
X0668963Y0037113D03*
X0669121Y0037113D03*
X0669278Y0037113D03*
X0666286Y0033648D03*
X0677546Y0029711D03*
X0667861Y0026719D03*
X0667703Y0026719D03*
X0657388Y0027349D03*
X0640381Y0029396D03*
X0630381Y0030499D03*
X0629121Y0033018D03*
X0628963Y0033018D03*
X0627703Y0033018D03*
X0626286Y0036483D03*
X0609436Y0034751D03*
X0608963Y0029869D03*
X0607388Y0027349D03*
X0620381Y0029396D03*
X0628648Y0026719D03*
X0687861Y0033648D03*
X0688176Y0033491D03*
X0688333Y0033491D03*
X0688491Y0033491D03*
X0688806Y0033648D03*
X0696444Y0035381D03*
X0698806Y0026562D03*
X0698963Y0026562D03*
X0688963Y0026562D03*
X0688806Y0026562D03*
X0640066Y0041365D03*
X0636601Y0041365D03*
X0619593Y0042152D03*
X0617073Y0042152D03*
X0490066Y0015774D03*
X0489908Y0015774D03*
X0489751Y0015774D03*
X0489436Y0019554D03*
X0409593Y0015774D03*
X0409436Y0015774D03*
X0409278Y0023491D03*
X0409121Y0023491D03*
X0408963Y0023491D03*
X0407546Y0023491D03*
X0407388Y0023491D03*
X0406286Y0039711D03*
X0408176Y0046168D03*
X0408333Y0046168D03*
X0408491Y0046168D03*
X0408806Y0046010D03*
X0407231Y0046640D03*
X0407073Y0046640D03*
X0406916Y0046798D03*
X0406759Y0046798D03*
X0406601Y0046798D03*
X0486601Y0044436D03*
X0486759Y0044436D03*
X0486916Y0044436D03*
X0487231Y0044278D03*
X0488176Y0043806D03*
X0488333Y0043806D03*
X0488491Y0043806D03*
X0488648Y0043806D03*
X0806601Y0026562D03*
X0807861Y0029554D03*
X0808806Y0029554D03*
X0808963Y0029554D03*
X0810066Y0026562D03*
X0827546Y0029711D03*
X0837861Y0033648D03*
X0838176Y0033491D03*
X0838333Y0033491D03*
X0838491Y0033491D03*
X0838806Y0033648D03*
X0846444Y0035381D03*
X0819751Y0042782D03*
X0807546Y0045459D03*
X0838806Y0026562D03*
X0838963Y0026562D03*
X0848806Y0026562D03*
X0848963Y0026562D03*
X0630066Y0114081D03*
X0626601Y0114081D03*
X0628018Y0119278D03*
X0629908Y0119278D03*
X0629593Y0125262D03*
X0629751Y0125420D03*
X0629908Y0125420D03*
X0628018Y0125420D03*
X0628018Y0132664D03*
X0629751Y0132664D03*
X0629908Y0132664D03*
X0628648Y0140853D03*
X0627861Y0144003D03*
X0627861Y0147782D03*
X0630066Y0147782D03*
X0630066Y0158176D03*
X0627861Y0158176D03*
X0628018Y0162743D03*
X0627861Y0166365D03*
X0630066Y0166365D03*
X0629593Y0169357D03*
X0629751Y0169514D03*
X0629908Y0169514D03*
X0629278Y0169357D03*
X0628018Y0169514D03*
D29*
X0630538Y0169751D03*
X0626129Y0167073D03*
X0630381Y0165971D03*
X0627388Y0162822D03*
X0627546Y0160302D03*
X0626129Y0160302D03*
X0626129Y0158885D03*
X0630381Y0158885D03*
X0630381Y0157782D03*
X0630381Y0147388D03*
X0631483Y0143294D03*
X0631483Y0140459D03*
X0627546Y0139829D03*
X0630381Y0137625D03*
X0630381Y0136522D03*
X0626129Y0136522D03*
X0627546Y0143294D03*
X0627388Y0125499D03*
X0630538Y0125499D03*
X0626129Y0116365D03*
X0627388Y0114948D03*
X0806444Y0046325D03*
X0810223Y0046325D03*
X0810066Y0043018D03*
X0809436Y0040656D03*
X0807388Y0040656D03*
X0806916Y0042703D03*
X0808491Y0038766D03*
X0808648Y0038766D03*
X0808491Y0034987D03*
X0808333Y0034987D03*
X0818806Y0033255D03*
X0819593Y0034672D03*
X0820696Y0033727D03*
X0827388Y0033255D03*
X0829436Y0032625D03*
X0830223Y0030577D03*
X0826444Y0030577D03*
X0820538Y0029003D03*
X0820381Y0029003D03*
X0818648Y0029003D03*
X0818491Y0029003D03*
X0818333Y0029003D03*
X0807388Y0029160D03*
X0829278Y0036719D03*
X0836759Y0035144D03*
X0837388Y0033255D03*
X0839908Y0035144D03*
X0837388Y0037034D03*
X0848491Y0035144D03*
X0848648Y0035144D03*
X0848963Y0039239D03*
X0849121Y0039239D03*
X0850381Y0039396D03*
X0848176Y0031050D03*
X0848018Y0031050D03*
X0846286Y0031207D03*
X0847861Y0029003D03*
X0848018Y0029003D03*
X0838806Y0030735D03*
X0838648Y0030735D03*
X0838018Y0029003D03*
X0837861Y0029003D03*
X0700381Y0039396D03*
X0699121Y0039239D03*
X0698963Y0039239D03*
X0698648Y0035144D03*
X0698491Y0035144D03*
X0689908Y0035144D03*
X0687388Y0033255D03*
X0686759Y0035144D03*
X0687388Y0037034D03*
X0679278Y0036719D03*
X0677388Y0033255D03*
X0679436Y0032625D03*
X0680223Y0030577D03*
X0676444Y0030577D03*
X0668648Y0031050D03*
X0668491Y0031050D03*
X0660696Y0030577D03*
X0660223Y0032310D03*
X0660066Y0032310D03*
X0657861Y0032625D03*
X0657388Y0030577D03*
X0650538Y0029003D03*
X0650381Y0029003D03*
X0648648Y0029003D03*
X0648491Y0029003D03*
X0648333Y0029003D03*
X0639278Y0030105D03*
X0636286Y0031837D03*
X0636444Y0033570D03*
X0637388Y0034987D03*
X0638018Y0036247D03*
X0637388Y0036404D03*
X0637231Y0036562D03*
X0636916Y0036719D03*
X0637388Y0038766D03*
X0629908Y0039081D03*
X0626759Y0039081D03*
X0620223Y0039396D03*
X0618018Y0039239D03*
X0617388Y0037979D03*
X0616444Y0039396D03*
X0616916Y0036089D03*
X0618491Y0036562D03*
X0619278Y0034042D03*
X0617388Y0034042D03*
X0616759Y0032152D03*
X0619908Y0032152D03*
X0619278Y0030105D03*
X0627073Y0030262D03*
X0627231Y0030105D03*
X0627388Y0032467D03*
X0626444Y0033885D03*
X0629751Y0030420D03*
X0629278Y0028530D03*
X0638491Y0033570D03*
X0648806Y0033255D03*
X0649593Y0034672D03*
X0650696Y0033727D03*
X0659278Y0034514D03*
X0659436Y0034514D03*
X0668176Y0037979D03*
X0668333Y0037979D03*
X0668491Y0037979D03*
X0669436Y0039869D03*
X0667388Y0039869D03*
X0659593Y0039081D03*
X0639121Y0041286D03*
X0637546Y0041286D03*
X0609593Y0031995D03*
X0687861Y0029003D03*
X0688018Y0029003D03*
X0688648Y0030735D03*
X0688806Y0030735D03*
X0696286Y0031207D03*
X0698018Y0031050D03*
X0698176Y0031050D03*
X0698018Y0029003D03*
X0697861Y0029003D03*
X0490223Y0027979D03*
X0487388Y0027979D03*
X0486444Y0027979D03*
X0487388Y0026562D03*
X0486916Y0024672D03*
X0489908Y0024672D03*
X0488963Y0020262D03*
X0487388Y0018688D03*
X0486286Y0035223D03*
X0488176Y0035538D03*
X0488333Y0035538D03*
X0488176Y0039475D03*
X0488018Y0039475D03*
X0486286Y0039633D03*
X0409278Y0033018D03*
X0409121Y0033018D03*
X0408491Y0028924D03*
X0408333Y0028924D03*
X0406759Y0024829D03*
X0408018Y0024199D03*
X0408176Y0024199D03*
X0408333Y0024199D03*
X0408491Y0024199D03*
X0408648Y0024199D03*
X0408806Y0024199D03*
X0409908Y0024829D03*
X0407231Y0019160D03*
X0409278Y0018530D03*
X0408176Y0037743D03*
X0408018Y0037743D03*
X0408176Y0041680D03*
X0408333Y0041680D03*
D30*
X0407388Y0041916D03*
X0407231Y0041916D03*
X0406444Y0041916D03*
X0408333Y0039711D03*
X0408491Y0039711D03*
X0407231Y0037507D03*
X0407073Y0037507D03*
X0406444Y0037507D03*
X0406444Y0036089D03*
X0406759Y0031680D03*
X0406916Y0031680D03*
X0408491Y0030735D03*
X0408648Y0030735D03*
X0409278Y0028688D03*
X0409436Y0028688D03*
X0409908Y0028530D03*
X0410066Y0028373D03*
X0410066Y0020971D03*
X0410223Y0020971D03*
X0409908Y0020971D03*
X0409751Y0020971D03*
X0409593Y0020971D03*
X0409436Y0020971D03*
X0409278Y0020971D03*
X0409121Y0020971D03*
X0408963Y0020971D03*
X0408806Y0020971D03*
X0408648Y0020971D03*
X0408491Y0020971D03*
X0408333Y0020971D03*
X0408176Y0020971D03*
X0408018Y0020971D03*
X0407861Y0020971D03*
X0407703Y0020971D03*
X0407546Y0020971D03*
X0407388Y0020971D03*
X0407231Y0020971D03*
X0407073Y0020971D03*
X0406916Y0020971D03*
X0406759Y0020971D03*
X0406601Y0020971D03*
X0406444Y0020971D03*
X0407861Y0019396D03*
X0408648Y0018294D03*
X0487231Y0026483D03*
X0487546Y0024908D03*
X0487703Y0024908D03*
X0487861Y0024908D03*
X0488018Y0024908D03*
X0488176Y0025066D03*
X0489121Y0024908D03*
X0489436Y0024751D03*
X0489436Y0028215D03*
X0489593Y0028215D03*
X0489751Y0028215D03*
X0489278Y0028215D03*
X0489121Y0028215D03*
X0488963Y0028215D03*
X0488806Y0028215D03*
X0488648Y0028215D03*
X0488491Y0028215D03*
X0487073Y0029633D03*
X0487073Y0033727D03*
X0486444Y0033885D03*
X0487231Y0035302D03*
X0487388Y0035302D03*
X0488333Y0037507D03*
X0488491Y0037507D03*
X0487231Y0039711D03*
X0487073Y0039711D03*
X0486444Y0039711D03*
X0488648Y0020341D03*
X0607703Y0030814D03*
X0607861Y0030814D03*
X0608176Y0030656D03*
X0609751Y0030656D03*
X0609908Y0030656D03*
X0610381Y0030814D03*
X0609908Y0032073D03*
X0617388Y0031916D03*
X0617546Y0031916D03*
X0619121Y0031916D03*
X0619278Y0031916D03*
X0619436Y0031916D03*
X0618806Y0030341D03*
X0617703Y0029396D03*
X0618806Y0028451D03*
X0627231Y0028609D03*
X0628333Y0030184D03*
X0628491Y0030184D03*
X0629278Y0030341D03*
X0629436Y0030341D03*
X0629436Y0028609D03*
X0637703Y0029396D03*
X0638806Y0028451D03*
X0638806Y0030341D03*
X0647703Y0030341D03*
X0647861Y0030341D03*
X0649278Y0030341D03*
X0649436Y0030341D03*
X0649593Y0030341D03*
X0649751Y0030341D03*
X0657546Y0030656D03*
X0659751Y0030656D03*
X0660538Y0030656D03*
X0659593Y0032073D03*
X0659436Y0032073D03*
X0658491Y0032861D03*
X0658491Y0034278D03*
X0658333Y0034278D03*
X0657388Y0034121D03*
X0658963Y0036010D03*
X0659121Y0036010D03*
X0658333Y0037743D03*
X0658018Y0037900D03*
X0657546Y0038058D03*
X0657388Y0040262D03*
X0666601Y0041365D03*
X0666444Y0038215D03*
X0667073Y0038215D03*
X0667231Y0038215D03*
X0669593Y0038215D03*
X0670223Y0038215D03*
X0669593Y0034593D03*
X0676444Y0034908D03*
X0676601Y0034908D03*
X0676759Y0034908D03*
X0676916Y0034908D03*
X0677073Y0034908D03*
X0677231Y0034908D03*
X0677388Y0034908D03*
X0677546Y0034908D03*
X0677703Y0034908D03*
X0677861Y0034908D03*
X0678018Y0034908D03*
X0678176Y0034908D03*
X0678333Y0034908D03*
X0678491Y0034908D03*
X0678648Y0034908D03*
X0678806Y0034908D03*
X0678963Y0034908D03*
X0679121Y0034908D03*
X0679278Y0034908D03*
X0679436Y0034908D03*
X0679593Y0034908D03*
X0679751Y0034908D03*
X0679908Y0034908D03*
X0680066Y0034908D03*
X0680223Y0034908D03*
X0678018Y0033491D03*
X0678806Y0032388D03*
X0678806Y0030814D03*
X0678963Y0030814D03*
X0679121Y0030814D03*
X0679278Y0030814D03*
X0679436Y0030814D03*
X0679593Y0030814D03*
X0679751Y0030814D03*
X0679908Y0030814D03*
X0678648Y0030814D03*
X0678491Y0030814D03*
X0678333Y0030814D03*
X0678176Y0030814D03*
X0678018Y0030814D03*
X0676916Y0030814D03*
X0669593Y0031286D03*
X0669436Y0031286D03*
X0668648Y0029081D03*
X0668491Y0029081D03*
X0687073Y0031286D03*
X0687388Y0031129D03*
X0687703Y0030971D03*
X0687861Y0030971D03*
X0696444Y0031286D03*
X0696916Y0031286D03*
X0697073Y0031286D03*
X0697231Y0031286D03*
X0698018Y0032703D03*
X0698176Y0032703D03*
X0698333Y0032703D03*
X0698491Y0032703D03*
X0699436Y0034908D03*
X0699593Y0034908D03*
X0699278Y0035066D03*
X0699121Y0035066D03*
X0699908Y0034751D03*
X0689436Y0034908D03*
X0687231Y0034908D03*
X0698491Y0037113D03*
X0698648Y0037113D03*
X0700066Y0039475D03*
X0697073Y0042310D03*
X0696286Y0042310D03*
X0650223Y0036168D03*
X0649121Y0036168D03*
X0647861Y0036168D03*
X0647703Y0036168D03*
X0647703Y0033491D03*
X0647861Y0033491D03*
X0648018Y0033491D03*
X0649908Y0033333D03*
X0650381Y0033491D03*
X0639908Y0033333D03*
X0639278Y0033333D03*
X0639121Y0033333D03*
X0638018Y0033333D03*
X0637861Y0033333D03*
X0637703Y0033333D03*
X0637546Y0033333D03*
X0637388Y0033333D03*
X0637231Y0033333D03*
X0637073Y0033333D03*
X0636916Y0033333D03*
X0637231Y0034908D03*
X0638333Y0036483D03*
X0639121Y0036640D03*
X0639278Y0036640D03*
X0630223Y0037428D03*
X0629751Y0037428D03*
X0629436Y0038845D03*
X0627231Y0038845D03*
X0619908Y0039475D03*
X0619751Y0039475D03*
X0618491Y0039475D03*
X0618333Y0039475D03*
X0616916Y0039475D03*
X0616759Y0039475D03*
X0617231Y0037900D03*
X0617861Y0036325D03*
X0618018Y0036325D03*
X0618176Y0036325D03*
X0617546Y0036168D03*
X0617388Y0036168D03*
X0619278Y0036168D03*
X0619436Y0037900D03*
X0626759Y0034121D03*
X0626916Y0034121D03*
X0627073Y0034121D03*
X0627231Y0034121D03*
X0629436Y0034121D03*
X0629593Y0034121D03*
X0629751Y0034121D03*
X0629908Y0034121D03*
X0630066Y0034121D03*
X0806601Y0030656D03*
X0807388Y0030656D03*
X0809278Y0030656D03*
X0809436Y0030656D03*
X0810066Y0030656D03*
X0817703Y0030341D03*
X0817861Y0030341D03*
X0819278Y0030341D03*
X0819436Y0030341D03*
X0819593Y0030341D03*
X0819751Y0030341D03*
X0826916Y0030814D03*
X0828018Y0030814D03*
X0828176Y0030814D03*
X0828333Y0030814D03*
X0828491Y0030814D03*
X0828648Y0030814D03*
X0828806Y0030814D03*
X0828963Y0030814D03*
X0829121Y0030814D03*
X0829278Y0030814D03*
X0829436Y0030814D03*
X0829593Y0030814D03*
X0829751Y0030814D03*
X0829908Y0030814D03*
X0828806Y0032388D03*
X0828018Y0033491D03*
X0828018Y0034908D03*
X0827861Y0034908D03*
X0827703Y0034908D03*
X0827546Y0034908D03*
X0827388Y0034908D03*
X0827231Y0034908D03*
X0827073Y0034908D03*
X0826916Y0034908D03*
X0826759Y0034908D03*
X0826601Y0034908D03*
X0826444Y0034908D03*
X0828176Y0034908D03*
X0828333Y0034908D03*
X0828491Y0034908D03*
X0828648Y0034908D03*
X0828806Y0034908D03*
X0828963Y0034908D03*
X0829121Y0034908D03*
X0829278Y0034908D03*
X0829436Y0034908D03*
X0829593Y0034908D03*
X0829751Y0034908D03*
X0829908Y0034908D03*
X0830066Y0034908D03*
X0830223Y0034908D03*
X0837231Y0034908D03*
X0839436Y0034908D03*
X0848018Y0032703D03*
X0848176Y0032703D03*
X0848333Y0032703D03*
X0848491Y0032703D03*
X0847231Y0031286D03*
X0847073Y0031286D03*
X0846916Y0031286D03*
X0846444Y0031286D03*
X0837861Y0030971D03*
X0837703Y0030971D03*
X0837388Y0031129D03*
X0837073Y0031286D03*
X0849121Y0035066D03*
X0849278Y0035066D03*
X0849436Y0034908D03*
X0849593Y0034908D03*
X0849908Y0034751D03*
X0848648Y0037113D03*
X0848491Y0037113D03*
X0850066Y0039475D03*
X0847073Y0042310D03*
X0846286Y0042310D03*
X0820223Y0036168D03*
X0819121Y0036168D03*
X0817861Y0036168D03*
X0817703Y0036168D03*
X0817703Y0033491D03*
X0817861Y0033491D03*
X0818018Y0033491D03*
X0819908Y0033333D03*
X0820381Y0033491D03*
X0810223Y0034593D03*
X0809436Y0034751D03*
X0809278Y0034751D03*
X0808648Y0036798D03*
X0808491Y0036798D03*
X0809436Y0039003D03*
X0809593Y0039003D03*
X0808648Y0042467D03*
X0808491Y0042467D03*
X0807546Y0042625D03*
X0807388Y0042625D03*
X0806916Y0046562D03*
X0808018Y0046562D03*
X0808176Y0046562D03*
X0808333Y0046562D03*
X0808491Y0046562D03*
X0808648Y0046562D03*
X0808806Y0046562D03*
X0808963Y0046562D03*
X0809121Y0046562D03*
X0809278Y0046562D03*
X0809436Y0046562D03*
X0809593Y0046562D03*
X0809751Y0046562D03*
X0809908Y0046562D03*
X0627546Y0115026D03*
X0628333Y0123058D03*
X0627388Y0139908D03*
X0627388Y0141955D03*
X0630381Y0144475D03*
X0627388Y0148570D03*
X0629436Y0149829D03*
X0629436Y0152664D03*
X0628333Y0154081D03*
X0627388Y0160381D03*
X0627073Y0160381D03*
D31*
X0629121Y0153609D03*
X0628648Y0153294D03*
X0629121Y0150774D03*
X0628806Y0150617D03*
X0628648Y0150459D03*
X0629278Y0141010D03*
X0630223Y0132664D03*
X0627703Y0132664D03*
X0628491Y0129672D03*
X0629121Y0122585D03*
X0628648Y0122270D03*
X0627703Y0122428D03*
X0630223Y0122270D03*
X0630223Y0119278D03*
X0627703Y0119278D03*
X0666444Y0046562D03*
X0667861Y0045144D03*
X0668018Y0045144D03*
X0668176Y0045144D03*
X0668333Y0045144D03*
X0668491Y0045144D03*
X0668648Y0045144D03*
X0668806Y0045144D03*
X0646444Y0043570D03*
X0639751Y0041365D03*
X0638491Y0038845D03*
X0638333Y0038845D03*
X0636916Y0041365D03*
X0648648Y0039475D03*
X0657388Y0036010D03*
X0648333Y0032546D03*
X0648176Y0032546D03*
X0636759Y0029396D03*
X0636286Y0026404D03*
X0630066Y0026404D03*
X0628333Y0026404D03*
X0626601Y0026404D03*
X0627703Y0029396D03*
X0626444Y0030499D03*
X0630223Y0030499D03*
X0616759Y0029396D03*
X0616286Y0026404D03*
X0610223Y0027034D03*
X0607861Y0027034D03*
X0616286Y0032388D03*
X0610538Y0033963D03*
X0610381Y0034121D03*
X0610223Y0034278D03*
X0616444Y0036010D03*
X0617703Y0038688D03*
X0616444Y0041837D03*
X0620223Y0041837D03*
X0620381Y0041680D03*
X0666444Y0030499D03*
X0670066Y0029081D03*
X0669121Y0026404D03*
X0668963Y0026404D03*
X0677073Y0026247D03*
X0677231Y0026247D03*
X0679436Y0026247D03*
X0679593Y0026247D03*
X0686286Y0026247D03*
X0687546Y0026247D03*
X0687703Y0026247D03*
X0696286Y0026247D03*
X0697546Y0026247D03*
X0697703Y0026247D03*
X0700223Y0030499D03*
X0686286Y0031759D03*
X0676286Y0032861D03*
X0660223Y0027034D03*
X0660066Y0027034D03*
X0657861Y0027034D03*
X0700066Y0037113D03*
X0690223Y0039160D03*
X0679593Y0039475D03*
X0679436Y0039475D03*
X0677231Y0039475D03*
X0677073Y0039475D03*
X0806444Y0038215D03*
X0806444Y0035381D03*
X0810066Y0036798D03*
X0818648Y0039475D03*
X0819121Y0042467D03*
X0816601Y0043412D03*
X0816444Y0043570D03*
X0827073Y0039475D03*
X0827231Y0039475D03*
X0829436Y0039475D03*
X0829593Y0039475D03*
X0840223Y0039160D03*
X0850066Y0037113D03*
X0836286Y0031759D03*
X0826286Y0032861D03*
X0818333Y0032546D03*
X0818176Y0032546D03*
X0809436Y0026247D03*
X0809278Y0026247D03*
X0807388Y0026247D03*
X0807231Y0026247D03*
X0827073Y0026247D03*
X0827231Y0026247D03*
X0829436Y0026247D03*
X0829593Y0026247D03*
X0836286Y0026247D03*
X0837546Y0026247D03*
X0837703Y0026247D03*
X0846286Y0026247D03*
X0847546Y0026247D03*
X0847703Y0026247D03*
X0850223Y0030499D03*
X0490381Y0030262D03*
X0490381Y0033097D03*
X0486759Y0037507D03*
X0490223Y0038924D03*
X0488648Y0022703D03*
X0488491Y0022703D03*
X0488333Y0022703D03*
X0488176Y0022703D03*
X0488018Y0022703D03*
X0486444Y0020656D03*
X0488018Y0016089D03*
X0488176Y0016089D03*
X0488333Y0016089D03*
X0488491Y0016089D03*
X0410066Y0030735D03*
X0406601Y0029160D03*
X0410223Y0038294D03*
X0406759Y0039711D03*
X0406601Y0039711D03*
X0409436Y0046168D03*
X0406286Y0018924D03*
X0407703Y0016089D03*
X0407861Y0016089D03*
D32*
X0409121Y0018451D03*
X0407388Y0019239D03*
X0406286Y0020971D03*
X0410381Y0020971D03*
X0409436Y0024593D03*
X0409751Y0024751D03*
X0408648Y0026168D03*
X0408491Y0026168D03*
X0408333Y0026168D03*
X0408176Y0026168D03*
X0408018Y0026168D03*
X0407231Y0024593D03*
X0406916Y0024751D03*
X0408648Y0028845D03*
X0408806Y0028845D03*
X0410223Y0028373D03*
X0409593Y0033097D03*
X0409436Y0033097D03*
X0406444Y0031522D03*
X0406286Y0037507D03*
X0407703Y0037664D03*
X0407861Y0037664D03*
X0408018Y0039711D03*
X0408176Y0039711D03*
X0408018Y0041759D03*
X0407861Y0041759D03*
X0406286Y0041916D03*
X0486286Y0033885D03*
X0487861Y0035459D03*
X0488018Y0035459D03*
X0488018Y0037507D03*
X0488176Y0037507D03*
X0487861Y0039554D03*
X0487703Y0039554D03*
X0487231Y0028058D03*
X0486601Y0028058D03*
X0488176Y0028058D03*
X0490066Y0028058D03*
X0489278Y0026483D03*
X0488491Y0025223D03*
X0487073Y0024751D03*
X0487388Y0022703D03*
X0487073Y0020656D03*
X0488176Y0018609D03*
X0607546Y0030814D03*
X0609751Y0032073D03*
X0610538Y0030814D03*
X0616916Y0032073D03*
X0619751Y0032073D03*
X0619121Y0030184D03*
X0619278Y0028609D03*
X0617546Y0029396D03*
X0627388Y0028609D03*
X0629593Y0030341D03*
X0637546Y0029396D03*
X0639121Y0030184D03*
X0639278Y0028609D03*
X0648806Y0028924D03*
X0649908Y0028924D03*
X0650066Y0028924D03*
X0650223Y0028924D03*
X0658018Y0032703D03*
X0658176Y0032703D03*
X0659908Y0032231D03*
X0659121Y0034436D03*
X0658963Y0034436D03*
X0658806Y0036010D03*
X0658648Y0036010D03*
X0658648Y0037743D03*
X0658806Y0037743D03*
X0657388Y0038058D03*
X0659751Y0039160D03*
X0666286Y0038215D03*
X0668176Y0039948D03*
X0666444Y0041207D03*
X0677388Y0036640D03*
X0676286Y0034908D03*
X0677546Y0033333D03*
X0679278Y0032546D03*
X0680381Y0034908D03*
X0686916Y0035066D03*
X0686601Y0031601D03*
X0688333Y0030814D03*
X0688491Y0030814D03*
X0697703Y0031129D03*
X0697861Y0031129D03*
X0698806Y0035066D03*
X0700223Y0034593D03*
X0696444Y0037900D03*
X0699278Y0039318D03*
X0699436Y0039318D03*
X0677388Y0030656D03*
X0676601Y0030656D03*
X0678018Y0028451D03*
X0678176Y0028451D03*
X0678333Y0028451D03*
X0678491Y0028451D03*
X0678648Y0028451D03*
X0670381Y0031286D03*
X0668963Y0031129D03*
X0668806Y0031129D03*
X0649751Y0034751D03*
X0650538Y0036010D03*
X0648806Y0036010D03*
X0648176Y0036010D03*
X0647388Y0036010D03*
X0647388Y0033648D03*
X0640223Y0033491D03*
X0639278Y0034908D03*
X0638333Y0033491D03*
X0636601Y0033491D03*
X0637073Y0036640D03*
X0639751Y0036798D03*
X0630223Y0033963D03*
X0627546Y0033963D03*
X0619751Y0036010D03*
X0619278Y0037900D03*
X0617388Y0039318D03*
X0626916Y0039003D03*
X0629751Y0039003D03*
X0637703Y0041207D03*
X0638963Y0041207D03*
X0617073Y0036168D03*
X0806444Y0030499D03*
X0807546Y0030499D03*
X0808648Y0034908D03*
X0808806Y0034908D03*
X0817388Y0036010D03*
X0818176Y0036010D03*
X0818806Y0036010D03*
X0819751Y0034751D03*
X0820538Y0036010D03*
X0817388Y0033648D03*
X0826286Y0034908D03*
X0827546Y0033333D03*
X0829278Y0032546D03*
X0830381Y0034908D03*
X0827388Y0036640D03*
X0836916Y0035066D03*
X0836601Y0031601D03*
X0838333Y0030814D03*
X0838491Y0030814D03*
X0847703Y0031129D03*
X0847861Y0031129D03*
X0848806Y0035066D03*
X0850223Y0034593D03*
X0846444Y0037900D03*
X0849278Y0039318D03*
X0849436Y0039318D03*
X0817546Y0043097D03*
X0809908Y0042940D03*
X0809751Y0042782D03*
X0808648Y0044199D03*
X0808491Y0044199D03*
X0808333Y0044199D03*
X0808176Y0044199D03*
X0808018Y0044199D03*
X0808176Y0040735D03*
X0808806Y0038845D03*
X0808963Y0038845D03*
X0810381Y0039003D03*
X0807388Y0046404D03*
X0806601Y0046404D03*
X0826601Y0030656D03*
X0827388Y0030656D03*
X0828018Y0028451D03*
X0828176Y0028451D03*
X0828333Y0028451D03*
X0828491Y0028451D03*
X0828648Y0028451D03*
X0820223Y0028924D03*
X0820066Y0028924D03*
X0819908Y0028924D03*
X0818806Y0028924D03*
X0629278Y0115026D03*
X0626444Y0129514D03*
X0627546Y0141955D03*
X0630381Y0148570D03*
X0630381Y0160381D03*
X0630381Y0167152D03*
D33*
X0629908Y0166286D03*
X0629751Y0166286D03*
X0628018Y0166286D03*
X0628176Y0169593D03*
X0629121Y0169436D03*
X0629751Y0162822D03*
X0628176Y0162822D03*
X0628018Y0158097D03*
X0629908Y0158097D03*
X0629908Y0147703D03*
X0629751Y0147703D03*
X0628018Y0147703D03*
X0628018Y0144081D03*
X0629751Y0144081D03*
X0629908Y0144081D03*
X0629908Y0137310D03*
X0628018Y0137310D03*
X0627861Y0137310D03*
X0628176Y0119199D03*
X0629751Y0119199D03*
X0657388Y0045223D03*
X0657546Y0045223D03*
X0660538Y0043963D03*
X0660696Y0043806D03*
X0669593Y0045538D03*
X0650696Y0042703D03*
X0650538Y0042861D03*
X0647546Y0044121D03*
X0658333Y0040341D03*
X0676444Y0039081D03*
X0680223Y0039081D03*
X0677703Y0029633D03*
X0676444Y0026640D03*
X0680223Y0026640D03*
X0689121Y0026640D03*
X0689278Y0026640D03*
X0699121Y0026640D03*
X0699278Y0026640D03*
X0690223Y0030892D03*
X0667546Y0026798D03*
X0667388Y0026798D03*
X0660696Y0027428D03*
X0628806Y0032940D03*
X0628648Y0032940D03*
X0628018Y0032940D03*
X0627861Y0032940D03*
X0626286Y0030577D03*
X0610696Y0027428D03*
X0609121Y0029948D03*
X0617231Y0042231D03*
X0619436Y0042231D03*
X0627073Y0042073D03*
X0629593Y0042073D03*
X0490223Y0015696D03*
X0489751Y0019633D03*
X0489593Y0019633D03*
X0410066Y0015696D03*
X0409908Y0015696D03*
X0409751Y0015696D03*
X0488018Y0043885D03*
X0486444Y0044514D03*
X0408648Y0046089D03*
X0807703Y0045381D03*
X0815814Y0043806D03*
X0819908Y0042861D03*
X0826444Y0039081D03*
X0830223Y0039081D03*
X0827703Y0029633D03*
X0840223Y0030892D03*
X0839278Y0026640D03*
X0839121Y0026640D03*
X0830223Y0026640D03*
X0826444Y0026640D03*
X0810223Y0026640D03*
X0808648Y0029475D03*
X0808491Y0029475D03*
X0808333Y0029475D03*
X0808176Y0029475D03*
X0808018Y0029475D03*
X0849121Y0026640D03*
X0849278Y0026640D03*
D34*
X0847703Y0029003D03*
X0847546Y0029003D03*
X0848648Y0030892D03*
X0848806Y0030892D03*
X0848806Y0033097D03*
X0848963Y0033097D03*
X0849121Y0033097D03*
X0836444Y0031680D03*
X0830381Y0030577D03*
X0829121Y0029003D03*
X0837546Y0029003D03*
X0837703Y0029003D03*
X0829908Y0032782D03*
X0826916Y0033097D03*
X0819121Y0033412D03*
X0818648Y0035774D03*
X0827703Y0036877D03*
X0828963Y0036877D03*
X0836601Y0035144D03*
X0839278Y0037034D03*
X0846286Y0037822D03*
X0848333Y0039081D03*
X0848491Y0039081D03*
X0847861Y0035302D03*
X0848176Y0035144D03*
X0848333Y0035144D03*
X0820696Y0029003D03*
X0809278Y0029160D03*
X0807861Y0035144D03*
X0807703Y0035144D03*
X0807861Y0038609D03*
X0808018Y0038609D03*
X0807861Y0040814D03*
X0807703Y0040814D03*
X0806759Y0042703D03*
X0809121Y0044751D03*
X0810381Y0046325D03*
X0808491Y0050105D03*
X0808333Y0050105D03*
X0808176Y0050105D03*
X0810066Y0040814D03*
X0810223Y0040814D03*
X0699121Y0033097D03*
X0698963Y0033097D03*
X0698806Y0033097D03*
X0698806Y0030892D03*
X0698648Y0030892D03*
X0697703Y0029003D03*
X0697546Y0029003D03*
X0687703Y0029003D03*
X0687546Y0029003D03*
X0680381Y0030577D03*
X0679121Y0029003D03*
X0668018Y0030892D03*
X0667861Y0030892D03*
X0660538Y0032467D03*
X0660066Y0034672D03*
X0659908Y0034672D03*
X0657546Y0032467D03*
X0649121Y0033412D03*
X0648648Y0035774D03*
X0640381Y0033570D03*
X0638648Y0033727D03*
X0630381Y0033885D03*
X0626759Y0030420D03*
X0617231Y0029318D03*
X0608333Y0029475D03*
X0607388Y0030735D03*
X0617546Y0034042D03*
X0616759Y0036089D03*
X0618648Y0036719D03*
X0620381Y0039239D03*
X0626444Y0039239D03*
X0630223Y0039239D03*
X0637546Y0038766D03*
X0637388Y0041286D03*
X0639278Y0041286D03*
X0659278Y0041129D03*
X0659436Y0041129D03*
X0659593Y0041129D03*
X0659751Y0041129D03*
X0659908Y0041129D03*
X0660066Y0041129D03*
X0667703Y0040026D03*
X0667861Y0040026D03*
X0667861Y0037822D03*
X0670066Y0040026D03*
X0670223Y0040026D03*
X0660066Y0037349D03*
X0659908Y0037349D03*
X0659751Y0037507D03*
X0659121Y0037822D03*
X0677703Y0036877D03*
X0678963Y0036877D03*
X0686601Y0035144D03*
X0689278Y0037034D03*
X0696286Y0037822D03*
X0698333Y0039081D03*
X0698491Y0039081D03*
X0697861Y0035302D03*
X0698176Y0035144D03*
X0698333Y0035144D03*
X0686444Y0031680D03*
X0679908Y0032782D03*
X0676916Y0033097D03*
X0658333Y0029475D03*
X0650696Y0029003D03*
X0637231Y0029318D03*
X0490066Y0024672D03*
X0488648Y0025302D03*
X0486759Y0024672D03*
X0486759Y0020577D03*
X0489121Y0020105D03*
X0488963Y0035696D03*
X0488806Y0035696D03*
X0487546Y0037428D03*
X0488648Y0039318D03*
X0488806Y0039318D03*
X0410381Y0028294D03*
X0409121Y0026719D03*
X0408176Y0028924D03*
X0408018Y0028924D03*
X0408491Y0032861D03*
X0408648Y0032861D03*
X0408648Y0037900D03*
X0408806Y0037900D03*
X0408806Y0041522D03*
X0408963Y0041522D03*
X0409751Y0018688D03*
X0627861Y0112585D03*
X0627546Y0112743D03*
X0628806Y0112585D03*
X0628963Y0112585D03*
X0629121Y0112743D03*
X0629121Y0118255D03*
X0629278Y0118255D03*
X0628648Y0118255D03*
X0629278Y0120144D03*
X0629121Y0120302D03*
X0628963Y0120302D03*
X0628806Y0120302D03*
X0628648Y0124396D03*
X0628491Y0124554D03*
X0629436Y0124554D03*
X0628648Y0126286D03*
X0628491Y0126286D03*
X0627388Y0129436D03*
X0628648Y0131640D03*
X0628806Y0131640D03*
X0628963Y0131640D03*
X0629121Y0131640D03*
X0628491Y0131798D03*
X0628491Y0133530D03*
X0628648Y0133688D03*
X0628806Y0133688D03*
X0629121Y0133688D03*
X0629121Y0136522D03*
X0628963Y0136522D03*
X0628806Y0136522D03*
X0627388Y0136522D03*
X0627231Y0136522D03*
X0627073Y0136522D03*
X0626916Y0136522D03*
X0626759Y0136522D03*
X0626601Y0136522D03*
X0626444Y0136522D03*
X0628648Y0138412D03*
X0629278Y0138412D03*
X0628018Y0139829D03*
X0627861Y0139829D03*
X0628176Y0139987D03*
X0628491Y0140144D03*
X0628491Y0141719D03*
X0628333Y0141719D03*
X0628176Y0141877D03*
X0628018Y0141877D03*
X0628648Y0143294D03*
X0628806Y0143294D03*
X0628963Y0143294D03*
X0629121Y0143294D03*
X0630381Y0143294D03*
X0630538Y0143294D03*
X0630696Y0143294D03*
X0630853Y0143294D03*
X0631010Y0143294D03*
X0630381Y0140932D03*
X0630223Y0140932D03*
X0630066Y0140932D03*
X0630538Y0140774D03*
X0630696Y0140774D03*
X0630853Y0140617D03*
X0631010Y0140617D03*
X0631168Y0140459D03*
X0631325Y0140459D03*
X0629121Y0145184D03*
X0628648Y0145184D03*
X0628648Y0146601D03*
X0629121Y0146601D03*
X0629121Y0148491D03*
X0628963Y0148491D03*
X0628806Y0148491D03*
X0628648Y0148491D03*
X0629593Y0151325D03*
X0629278Y0156995D03*
X0629121Y0156995D03*
X0628648Y0156995D03*
X0628648Y0158885D03*
X0628806Y0158885D03*
X0628963Y0158885D03*
X0629121Y0158885D03*
X0628963Y0161719D03*
X0628806Y0161719D03*
X0629278Y0161877D03*
X0629278Y0163766D03*
X0628648Y0163766D03*
X0628648Y0165184D03*
X0628806Y0165184D03*
X0629121Y0165184D03*
X0629121Y0167073D03*
X0628806Y0167073D03*
X0628648Y0167073D03*
X0628491Y0168648D03*
X0629436Y0168648D03*
X0628648Y0170381D03*
D35*
X0630538Y0162900D03*
X0630538Y0153451D03*
X0630538Y0150459D03*
X0627388Y0144475D03*
X0627388Y0137703D03*
X0630538Y0122428D03*
X0625971Y0116444D03*
X0629121Y0115026D03*
X0436050Y0176129D03*
X0438570Y0179278D03*
X0444869Y0180696D03*
X0458097Y0177861D03*
X0425656Y0180696D03*
X0807703Y0042625D03*
X0807861Y0042625D03*
X0817546Y0039160D03*
X0817703Y0039160D03*
X0808176Y0036798D03*
X0810066Y0034593D03*
X0818491Y0030499D03*
X0818648Y0030499D03*
X0820223Y0030499D03*
X0820381Y0030499D03*
X0820538Y0030499D03*
X0828333Y0032231D03*
X0828491Y0032231D03*
X0828333Y0033648D03*
X0839436Y0033333D03*
X0848176Y0037113D03*
X0846916Y0042310D03*
X0846759Y0042310D03*
X0846601Y0042310D03*
X0846444Y0042310D03*
X0848806Y0029081D03*
X0838806Y0029081D03*
X0698806Y0029081D03*
X0688806Y0029081D03*
X0678491Y0032231D03*
X0678333Y0032231D03*
X0678333Y0033648D03*
X0689436Y0033333D03*
X0698176Y0037113D03*
X0696916Y0042310D03*
X0696759Y0042310D03*
X0696601Y0042310D03*
X0696444Y0042310D03*
X0667073Y0041680D03*
X0666916Y0041522D03*
X0657861Y0040420D03*
X0657703Y0040420D03*
X0647703Y0039160D03*
X0647546Y0039160D03*
X0659278Y0036010D03*
X0657861Y0034121D03*
X0657703Y0034121D03*
X0657546Y0034121D03*
X0658963Y0033018D03*
X0659121Y0031916D03*
X0650538Y0030499D03*
X0650381Y0030499D03*
X0650223Y0030499D03*
X0648648Y0030499D03*
X0648491Y0030499D03*
X0638333Y0030499D03*
X0638333Y0028294D03*
X0638491Y0028294D03*
X0629436Y0032546D03*
X0618333Y0030499D03*
X0618333Y0028294D03*
X0618491Y0028294D03*
X0627546Y0038688D03*
X0629121Y0038688D03*
X0668176Y0029081D03*
X0489436Y0022703D03*
X0488018Y0020499D03*
X0488806Y0037507D03*
X0408806Y0039711D03*
X0408176Y0030735D03*
X0408176Y0019554D03*
X0408333Y0019554D03*
X0408333Y0018136D03*
D36*
X0408491Y0018215D03*
X0408018Y0019475D03*
X0409593Y0028609D03*
X0409751Y0028609D03*
X0408333Y0030814D03*
X0406916Y0036168D03*
X0406759Y0036168D03*
X0406601Y0036168D03*
X0406601Y0037428D03*
X0406759Y0037428D03*
X0406916Y0037428D03*
X0408648Y0039790D03*
X0407073Y0041995D03*
X0406916Y0041995D03*
X0406759Y0041995D03*
X0406601Y0041995D03*
X0486601Y0039790D03*
X0486759Y0039790D03*
X0486916Y0039790D03*
X0488648Y0037428D03*
X0487073Y0035223D03*
X0486916Y0035223D03*
X0486759Y0035223D03*
X0486601Y0035223D03*
X0486444Y0035223D03*
X0486601Y0033806D03*
X0486759Y0033806D03*
X0486916Y0033806D03*
X0486916Y0029554D03*
X0486759Y0029554D03*
X0486601Y0029554D03*
X0486444Y0029554D03*
X0487546Y0020577D03*
X0487703Y0020577D03*
X0487861Y0020577D03*
X0488176Y0020420D03*
X0488333Y0020420D03*
X0488491Y0020420D03*
X0608018Y0030735D03*
X0610066Y0030735D03*
X0610223Y0030735D03*
X0609908Y0029475D03*
X0617861Y0029318D03*
X0618648Y0028373D03*
X0618648Y0030420D03*
X0618491Y0030420D03*
X0618491Y0031837D03*
X0618648Y0031837D03*
X0618806Y0031837D03*
X0618963Y0031837D03*
X0618333Y0031837D03*
X0618176Y0031837D03*
X0618018Y0031837D03*
X0617861Y0031837D03*
X0617703Y0031837D03*
X0619436Y0034042D03*
X0617703Y0036247D03*
X0627388Y0038766D03*
X0629278Y0038766D03*
X0629908Y0037507D03*
X0630066Y0037507D03*
X0638491Y0036562D03*
X0638648Y0036562D03*
X0638806Y0036562D03*
X0638963Y0036562D03*
X0639436Y0038766D03*
X0647388Y0039239D03*
X0647861Y0039239D03*
X0657546Y0040341D03*
X0657703Y0037979D03*
X0657861Y0037979D03*
X0658176Y0037822D03*
X0650066Y0036247D03*
X0649908Y0036247D03*
X0649751Y0036247D03*
X0649593Y0036247D03*
X0649436Y0036247D03*
X0649278Y0036247D03*
X0650066Y0033412D03*
X0650223Y0033412D03*
X0658018Y0034199D03*
X0658176Y0034199D03*
X0658648Y0032940D03*
X0658806Y0032940D03*
X0659278Y0031995D03*
X0659908Y0030735D03*
X0660066Y0030735D03*
X0660223Y0030735D03*
X0660381Y0030735D03*
X0659908Y0029475D03*
X0658176Y0030735D03*
X0658018Y0030735D03*
X0657861Y0030735D03*
X0657703Y0030735D03*
X0650066Y0030420D03*
X0649908Y0030420D03*
X0649121Y0030420D03*
X0648963Y0030420D03*
X0648806Y0030420D03*
X0648333Y0030420D03*
X0648176Y0030420D03*
X0648018Y0030420D03*
X0640066Y0031837D03*
X0639908Y0031837D03*
X0639751Y0031837D03*
X0639593Y0031837D03*
X0639436Y0031837D03*
X0639278Y0031837D03*
X0639121Y0031837D03*
X0638963Y0031837D03*
X0638806Y0031837D03*
X0638648Y0031837D03*
X0638491Y0031837D03*
X0638333Y0031837D03*
X0638176Y0031837D03*
X0638018Y0031837D03*
X0637861Y0031837D03*
X0637703Y0031837D03*
X0637546Y0031837D03*
X0637388Y0031837D03*
X0637231Y0031837D03*
X0637073Y0031837D03*
X0636916Y0031837D03*
X0636759Y0031837D03*
X0636601Y0031837D03*
X0638491Y0030420D03*
X0638648Y0030420D03*
X0637861Y0029318D03*
X0638648Y0028373D03*
X0629121Y0030262D03*
X0628963Y0030262D03*
X0628806Y0030262D03*
X0628648Y0030262D03*
X0639436Y0033255D03*
X0639593Y0033255D03*
X0639751Y0033255D03*
X0619593Y0039554D03*
X0619436Y0039554D03*
X0619278Y0039554D03*
X0619121Y0039554D03*
X0618963Y0039554D03*
X0618806Y0039554D03*
X0618648Y0039554D03*
X0666601Y0038294D03*
X0666759Y0038294D03*
X0666916Y0038294D03*
X0669751Y0038294D03*
X0669908Y0038294D03*
X0670066Y0038294D03*
X0670066Y0034672D03*
X0670223Y0034672D03*
X0669908Y0034672D03*
X0669751Y0034672D03*
X0678176Y0033570D03*
X0678648Y0032310D03*
X0670223Y0031365D03*
X0670066Y0031365D03*
X0669908Y0031365D03*
X0669751Y0031365D03*
X0668333Y0029160D03*
X0687231Y0031207D03*
X0687546Y0031050D03*
X0688491Y0029003D03*
X0688648Y0029003D03*
X0696601Y0031365D03*
X0696759Y0031365D03*
X0698491Y0029003D03*
X0698648Y0029003D03*
X0699751Y0034829D03*
X0698333Y0037034D03*
X0666759Y0041444D03*
X0806759Y0030735D03*
X0806916Y0030735D03*
X0807073Y0030735D03*
X0807231Y0030735D03*
X0809593Y0030735D03*
X0809751Y0030735D03*
X0809908Y0030735D03*
X0818018Y0030420D03*
X0818176Y0030420D03*
X0818333Y0030420D03*
X0818806Y0030420D03*
X0818963Y0030420D03*
X0819121Y0030420D03*
X0819908Y0030420D03*
X0820066Y0030420D03*
X0828648Y0032310D03*
X0828176Y0033570D03*
X0820223Y0033412D03*
X0820066Y0033412D03*
X0820066Y0036247D03*
X0819908Y0036247D03*
X0819751Y0036247D03*
X0819593Y0036247D03*
X0819436Y0036247D03*
X0819278Y0036247D03*
X0809908Y0034672D03*
X0809751Y0034672D03*
X0809593Y0034672D03*
X0808333Y0036877D03*
X0809751Y0039081D03*
X0809908Y0039081D03*
X0810066Y0039081D03*
X0810223Y0039081D03*
X0817388Y0039239D03*
X0817861Y0039239D03*
X0808333Y0042546D03*
X0808176Y0042546D03*
X0808018Y0042546D03*
X0848333Y0037034D03*
X0849751Y0034829D03*
X0846759Y0031365D03*
X0846601Y0031365D03*
X0848491Y0029003D03*
X0848648Y0029003D03*
X0838648Y0029003D03*
X0838491Y0029003D03*
X0837546Y0031050D03*
X0837231Y0031207D03*
X0630538Y0114160D03*
X0629436Y0126286D03*
X0627388Y0130381D03*
X0627388Y0143294D03*
X0627388Y0147388D03*
X0628333Y0151325D03*
X0627388Y0157782D03*
X0627388Y0165971D03*
X0629436Y0170381D03*
D37*
X0627703Y0169593D03*
X0627703Y0162822D03*
X0627703Y0153530D03*
X0628018Y0153373D03*
X0628176Y0153373D03*
X0628806Y0153373D03*
X0628963Y0153530D03*
X0630223Y0153373D03*
X0630223Y0150538D03*
X0628963Y0150696D03*
X0628176Y0150538D03*
X0627703Y0150696D03*
X0627546Y0147861D03*
X0629121Y0140932D03*
X0627703Y0125499D03*
X0628018Y0122349D03*
X0628806Y0122349D03*
X0628963Y0122507D03*
X0626444Y0114160D03*
X0806444Y0051050D03*
X0810223Y0051050D03*
X0806444Y0042703D03*
X0816286Y0043648D03*
X0819278Y0042546D03*
X0819436Y0039396D03*
X0826916Y0039396D03*
X0829751Y0039396D03*
X0836444Y0039081D03*
X0837546Y0039081D03*
X0850223Y0037034D03*
X0846759Y0035459D03*
X0846601Y0035459D03*
X0839908Y0030735D03*
X0836601Y0029003D03*
X0836444Y0029003D03*
X0837861Y0026325D03*
X0838018Y0026325D03*
X0829751Y0026325D03*
X0826916Y0026325D03*
X0809751Y0026325D03*
X0809593Y0026325D03*
X0807073Y0026325D03*
X0818491Y0032625D03*
X0819751Y0032625D03*
X0810223Y0036877D03*
X0846444Y0029003D03*
X0846601Y0029003D03*
X0847861Y0026325D03*
X0848018Y0026325D03*
X0700223Y0037034D03*
X0696759Y0035459D03*
X0696601Y0035459D03*
X0687546Y0039081D03*
X0686444Y0039081D03*
X0679751Y0039396D03*
X0676916Y0039396D03*
X0658648Y0040656D03*
X0649436Y0039396D03*
X0639908Y0041444D03*
X0630381Y0041601D03*
X0630223Y0041759D03*
X0630066Y0041916D03*
X0626601Y0041916D03*
X0626444Y0041759D03*
X0626286Y0041601D03*
X0620066Y0041916D03*
X0616601Y0041916D03*
X0616286Y0041601D03*
X0617546Y0038609D03*
X0618963Y0037192D03*
X0610696Y0033727D03*
X0610066Y0034357D03*
X0609908Y0034514D03*
X0606601Y0034357D03*
X0608491Y0029790D03*
X0616601Y0029318D03*
X0610381Y0027113D03*
X0607703Y0027113D03*
X0626444Y0026483D03*
X0628491Y0026483D03*
X0630223Y0026483D03*
X0627546Y0029318D03*
X0636601Y0029318D03*
X0648491Y0032625D03*
X0649751Y0032625D03*
X0658491Y0029790D03*
X0658648Y0029790D03*
X0659436Y0029790D03*
X0659593Y0029790D03*
X0670223Y0029160D03*
X0668806Y0026483D03*
X0668648Y0026483D03*
X0676916Y0026325D03*
X0679751Y0026325D03*
X0686444Y0029003D03*
X0686601Y0029003D03*
X0687861Y0026325D03*
X0688018Y0026325D03*
X0696444Y0029003D03*
X0696601Y0029003D03*
X0697861Y0026325D03*
X0698018Y0026325D03*
X0689908Y0030735D03*
X0660381Y0027113D03*
X0657703Y0027113D03*
X0638963Y0034199D03*
X0637703Y0035774D03*
X0667703Y0045223D03*
X0668963Y0045223D03*
X0666286Y0046640D03*
X0488963Y0025774D03*
X0487703Y0027349D03*
X0486601Y0037428D03*
X0410381Y0035381D03*
X0410223Y0030814D03*
X0408491Y0016010D03*
X0408333Y0016010D03*
X0408176Y0016010D03*
X0408018Y0016010D03*
X0488648Y0016010D03*
X0488806Y0016010D03*
D38*
X0488018Y0018766D03*
X0487861Y0018766D03*
X0487703Y0018766D03*
X0487546Y0018766D03*
X0486916Y0020656D03*
X0489278Y0022703D03*
X0489121Y0026483D03*
X0488018Y0027900D03*
X0488491Y0035617D03*
X0488648Y0035617D03*
X0487861Y0037507D03*
X0487703Y0037507D03*
X0488333Y0039396D03*
X0488491Y0039396D03*
X0410381Y0033097D03*
X0408963Y0032940D03*
X0408806Y0032940D03*
X0406286Y0031522D03*
X0407388Y0026798D03*
X0409278Y0026798D03*
X0410066Y0024908D03*
X0407861Y0024121D03*
X0406601Y0024908D03*
X0406916Y0019081D03*
X0407073Y0019081D03*
X0409436Y0018609D03*
X0409593Y0018609D03*
X0408491Y0037822D03*
X0408333Y0037822D03*
X0407861Y0039711D03*
X0407703Y0039711D03*
X0408491Y0041601D03*
X0408648Y0041601D03*
X0609751Y0029396D03*
X0617388Y0029396D03*
X0626916Y0030341D03*
X0627388Y0030026D03*
X0628018Y0029869D03*
X0629121Y0028451D03*
X0629908Y0030499D03*
X0629278Y0032546D03*
X0620066Y0032231D03*
X0616601Y0032231D03*
X0619908Y0036010D03*
X0619121Y0037743D03*
X0626601Y0039160D03*
X0630066Y0039160D03*
X0639278Y0038845D03*
X0639908Y0036798D03*
X0639121Y0034908D03*
X0636759Y0036798D03*
X0648963Y0033333D03*
X0648648Y0033176D03*
X0647388Y0030184D03*
X0637388Y0029396D03*
X0657703Y0032546D03*
X0660381Y0032388D03*
X0659751Y0034593D03*
X0659593Y0034593D03*
X0658491Y0036010D03*
X0658333Y0036010D03*
X0658176Y0036010D03*
X0658963Y0037743D03*
X0650696Y0036010D03*
X0667546Y0039948D03*
X0668018Y0039948D03*
X0669593Y0039948D03*
X0669751Y0039948D03*
X0669908Y0039948D03*
X0668806Y0037900D03*
X0668648Y0037900D03*
X0668018Y0037900D03*
X0677546Y0036798D03*
X0679121Y0036798D03*
X0677231Y0033176D03*
X0677073Y0033176D03*
X0679593Y0032703D03*
X0679751Y0032703D03*
X0688963Y0030656D03*
X0689121Y0030656D03*
X0697388Y0033018D03*
X0697546Y0033018D03*
X0697703Y0033018D03*
X0699278Y0033018D03*
X0698491Y0030971D03*
X0698333Y0030971D03*
X0689278Y0033333D03*
X0690066Y0035223D03*
X0698648Y0039160D03*
X0698806Y0039160D03*
X0668333Y0030971D03*
X0668176Y0030971D03*
X0659751Y0029396D03*
X0677388Y0029081D03*
X0679278Y0029081D03*
X0807546Y0040735D03*
X0808018Y0040735D03*
X0809593Y0040735D03*
X0809751Y0040735D03*
X0809908Y0040735D03*
X0817388Y0043097D03*
X0809278Y0044829D03*
X0807388Y0044829D03*
X0808176Y0038688D03*
X0808333Y0038688D03*
X0820696Y0036010D03*
X0818963Y0033333D03*
X0818648Y0033176D03*
X0817388Y0030184D03*
X0810381Y0030499D03*
X0808176Y0035066D03*
X0808018Y0035066D03*
X0827073Y0033176D03*
X0827231Y0033176D03*
X0829593Y0032703D03*
X0829751Y0032703D03*
X0838963Y0030656D03*
X0839121Y0030656D03*
X0847388Y0033018D03*
X0847546Y0033018D03*
X0847703Y0033018D03*
X0849278Y0033018D03*
X0848491Y0030971D03*
X0848333Y0030971D03*
X0839278Y0033333D03*
X0840066Y0035223D03*
X0829121Y0036798D03*
X0827546Y0036798D03*
X0848648Y0039160D03*
X0848806Y0039160D03*
X0829278Y0029081D03*
X0827388Y0029081D03*
X0628648Y0112507D03*
X0628491Y0112507D03*
X0628333Y0112507D03*
X0628176Y0112507D03*
X0628018Y0112507D03*
X0628018Y0116444D03*
X0627861Y0116444D03*
X0627703Y0116444D03*
X0627546Y0116444D03*
X0627388Y0116444D03*
X0627231Y0116444D03*
X0627073Y0116444D03*
X0626916Y0116444D03*
X0626759Y0116444D03*
X0626601Y0116444D03*
X0626444Y0116444D03*
X0626286Y0116444D03*
X0628176Y0116444D03*
X0628333Y0116444D03*
X0628491Y0116444D03*
X0628648Y0116444D03*
X0628806Y0116444D03*
X0628963Y0116444D03*
X0629121Y0116444D03*
X0629278Y0116444D03*
X0630381Y0116916D03*
X0628963Y0118176D03*
X0628806Y0118176D03*
X0627388Y0119278D03*
X0628648Y0120223D03*
X0628333Y0121640D03*
X0627388Y0122428D03*
X0627231Y0129514D03*
X0627073Y0129514D03*
X0626916Y0129514D03*
X0626759Y0129514D03*
X0626601Y0129514D03*
X0628648Y0129514D03*
X0628806Y0129514D03*
X0628963Y0129514D03*
X0629121Y0129514D03*
X0629278Y0129514D03*
X0630381Y0130144D03*
X0627388Y0132664D03*
X0628963Y0133766D03*
X0626286Y0136601D03*
X0628806Y0138491D03*
X0628963Y0138491D03*
X0629121Y0138491D03*
X0627703Y0139751D03*
X0627703Y0141955D03*
X0627861Y0141955D03*
X0631168Y0143373D03*
X0631325Y0143373D03*
X0628963Y0145262D03*
X0628806Y0145262D03*
X0628806Y0146522D03*
X0628963Y0146522D03*
X0627546Y0144475D03*
X0628333Y0149987D03*
X0627388Y0150617D03*
X0629593Y0149987D03*
X0628333Y0152822D03*
X0627388Y0153451D03*
X0628806Y0156916D03*
X0628963Y0156916D03*
X0627388Y0158963D03*
X0627231Y0158963D03*
X0627073Y0158963D03*
X0626916Y0158963D03*
X0626759Y0158963D03*
X0626601Y0158963D03*
X0626444Y0158963D03*
X0626286Y0158963D03*
X0626286Y0160381D03*
X0626444Y0160381D03*
X0626601Y0160381D03*
X0626759Y0160381D03*
X0626916Y0160381D03*
X0627703Y0160381D03*
X0627861Y0160381D03*
X0628018Y0160381D03*
X0628176Y0160381D03*
X0628333Y0160381D03*
X0628491Y0160381D03*
X0628648Y0160381D03*
X0628806Y0160381D03*
X0628963Y0160381D03*
X0629121Y0160381D03*
X0629278Y0160381D03*
X0629436Y0160381D03*
X0629593Y0160381D03*
X0629751Y0160381D03*
X0629908Y0160381D03*
X0630066Y0160381D03*
X0630223Y0160381D03*
X0629121Y0161798D03*
X0628648Y0161798D03*
X0628806Y0163845D03*
X0628963Y0163845D03*
X0629121Y0163845D03*
X0628963Y0165105D03*
X0628963Y0167152D03*
X0628648Y0168570D03*
X0627388Y0169672D03*
X0628491Y0170459D03*
X0627388Y0167152D03*
X0627231Y0167152D03*
X0627073Y0167152D03*
X0626916Y0167152D03*
X0626759Y0167152D03*
X0626601Y0167152D03*
X0626444Y0167152D03*
X0626286Y0167152D03*
D39*
X0628176Y0166207D03*
X0628333Y0166207D03*
X0628491Y0166207D03*
X0629436Y0166207D03*
X0629593Y0166207D03*
X0629593Y0162743D03*
X0628333Y0162743D03*
X0628333Y0158018D03*
X0628176Y0158018D03*
X0629593Y0158018D03*
X0629751Y0158018D03*
X0629593Y0147625D03*
X0629436Y0147625D03*
X0628333Y0147625D03*
X0628176Y0147625D03*
X0628176Y0144160D03*
X0628333Y0144160D03*
X0629436Y0144160D03*
X0629593Y0144160D03*
X0629593Y0137388D03*
X0629751Y0137388D03*
X0628176Y0137388D03*
X0628176Y0132664D03*
X0628333Y0132664D03*
X0629436Y0132664D03*
X0629593Y0132664D03*
X0628333Y0125420D03*
X0628176Y0125420D03*
X0628963Y0125262D03*
X0629121Y0125262D03*
X0629593Y0119278D03*
X0628333Y0119278D03*
X0626759Y0114081D03*
X0629908Y0114081D03*
X0628333Y0169514D03*
X0406444Y0046798D03*
X0408018Y0046168D03*
X0486286Y0044436D03*
X0487861Y0043806D03*
X0486286Y0020656D03*
X0489908Y0019711D03*
X0490381Y0015774D03*
X0410223Y0015617D03*
X0609121Y0034751D03*
X0609278Y0034751D03*
X0616286Y0029396D03*
X0628176Y0032861D03*
X0628333Y0032861D03*
X0628491Y0032861D03*
X0636286Y0029396D03*
X0667073Y0026877D03*
X0667231Y0026877D03*
X0677861Y0029554D03*
X0689436Y0026719D03*
X0689593Y0026719D03*
X0699436Y0026719D03*
X0699593Y0026719D03*
X0640223Y0041365D03*
X0647388Y0044042D03*
X0647703Y0044199D03*
X0650381Y0042940D03*
X0657703Y0045302D03*
X0660381Y0044042D03*
X0669751Y0045617D03*
X0619278Y0042310D03*
X0619121Y0042310D03*
X0617546Y0042310D03*
X0617388Y0042310D03*
X0806286Y0042625D03*
X0807861Y0045302D03*
X0820066Y0042940D03*
X0827861Y0029554D03*
X0839436Y0026719D03*
X0839593Y0026719D03*
X0849436Y0026719D03*
X0849593Y0026719D03*
X0806444Y0026719D03*
D40*
X0826286Y0026798D03*
X0830381Y0026798D03*
X0839751Y0026798D03*
X0839908Y0026798D03*
X0849751Y0026798D03*
X0849908Y0026798D03*
X0846286Y0035302D03*
X0847231Y0042388D03*
X0847388Y0042388D03*
X0847546Y0042388D03*
X0847703Y0042388D03*
X0847861Y0042388D03*
X0848018Y0042388D03*
X0848176Y0042388D03*
X0848333Y0042388D03*
X0848491Y0042388D03*
X0848648Y0042388D03*
X0848806Y0042388D03*
X0848963Y0042388D03*
X0849121Y0042388D03*
X0849278Y0042388D03*
X0849436Y0042388D03*
X0849593Y0042388D03*
X0849751Y0042388D03*
X0849908Y0042388D03*
X0850066Y0042388D03*
X0850066Y0046483D03*
X0850223Y0046483D03*
X0849908Y0046483D03*
X0849751Y0046483D03*
X0849593Y0046483D03*
X0849436Y0046483D03*
X0849278Y0046483D03*
X0849121Y0046483D03*
X0848963Y0046483D03*
X0848806Y0046483D03*
X0848648Y0046483D03*
X0848491Y0046483D03*
X0848333Y0046483D03*
X0848176Y0046483D03*
X0848018Y0046483D03*
X0847861Y0046483D03*
X0847703Y0046483D03*
X0847546Y0046483D03*
X0847388Y0046483D03*
X0847231Y0046483D03*
X0820223Y0043018D03*
X0818176Y0038924D03*
X0808963Y0049318D03*
X0807703Y0049318D03*
X0700223Y0046483D03*
X0700066Y0046483D03*
X0699908Y0046483D03*
X0699751Y0046483D03*
X0699593Y0046483D03*
X0699436Y0046483D03*
X0699278Y0046483D03*
X0699121Y0046483D03*
X0698963Y0046483D03*
X0698806Y0046483D03*
X0698648Y0046483D03*
X0698491Y0046483D03*
X0698333Y0046483D03*
X0698176Y0046483D03*
X0698018Y0046483D03*
X0697861Y0046483D03*
X0697703Y0046483D03*
X0697546Y0046483D03*
X0697388Y0046483D03*
X0697231Y0046483D03*
X0697231Y0042388D03*
X0697388Y0042388D03*
X0697546Y0042388D03*
X0697703Y0042388D03*
X0697861Y0042388D03*
X0698018Y0042388D03*
X0698176Y0042388D03*
X0698333Y0042388D03*
X0698491Y0042388D03*
X0698648Y0042388D03*
X0698806Y0042388D03*
X0698963Y0042388D03*
X0699121Y0042388D03*
X0699278Y0042388D03*
X0699436Y0042388D03*
X0699593Y0042388D03*
X0699751Y0042388D03*
X0699908Y0042388D03*
X0700066Y0042388D03*
X0696286Y0035302D03*
X0660223Y0044121D03*
X0657861Y0045381D03*
X0650223Y0043018D03*
X0636444Y0041286D03*
X0629436Y0042073D03*
X0627231Y0042073D03*
X0618963Y0042388D03*
X0617703Y0042388D03*
X0607546Y0034672D03*
X0609278Y0030105D03*
X0628806Y0026955D03*
X0666601Y0026955D03*
X0666759Y0026955D03*
X0666916Y0026955D03*
X0676286Y0026798D03*
X0680381Y0026798D03*
X0689751Y0026798D03*
X0689908Y0026798D03*
X0699751Y0026798D03*
X0699908Y0026798D03*
X0648176Y0038924D03*
X0669908Y0045696D03*
X0490066Y0019790D03*
X0410381Y0015696D03*
X0406286Y0029081D03*
X0407861Y0046089D03*
X0406286Y0046719D03*
X0626916Y0114003D03*
X0629751Y0114003D03*
X0629436Y0119199D03*
X0628806Y0125341D03*
X0628491Y0137467D03*
X0628333Y0137467D03*
X0629436Y0137467D03*
X0628491Y0144239D03*
X0628491Y0147546D03*
X0628491Y0157940D03*
X0629436Y0157940D03*
X0629436Y0162822D03*
X0628963Y0169436D03*
X0628806Y0169436D03*
D41*
X0658018Y0044751D03*
X0658176Y0044751D03*
X0658333Y0044751D03*
X0658491Y0044751D03*
X0658648Y0044751D03*
X0658806Y0044751D03*
X0648806Y0043648D03*
X0648648Y0043648D03*
X0648491Y0043648D03*
X0648333Y0043648D03*
X0648176Y0043648D03*
X0648018Y0043648D03*
X0628648Y0041916D03*
X0628018Y0041916D03*
D42*
X0627073Y0038924D03*
X0629593Y0038924D03*
X0629593Y0037349D03*
X0630381Y0037507D03*
X0638176Y0036404D03*
X0639436Y0036719D03*
X0639593Y0036719D03*
X0639436Y0034987D03*
X0640066Y0033412D03*
X0640223Y0031837D03*
X0640381Y0031837D03*
X0638963Y0030262D03*
X0638963Y0028530D03*
X0639121Y0028530D03*
X0647546Y0030262D03*
X0648176Y0028845D03*
X0650696Y0030420D03*
X0658176Y0029475D03*
X0658333Y0030577D03*
X0659751Y0032152D03*
X0658333Y0032782D03*
X0658648Y0034357D03*
X0658806Y0034357D03*
X0650538Y0033570D03*
X0649908Y0034829D03*
X0650381Y0036089D03*
X0648963Y0036089D03*
X0648018Y0036089D03*
X0647546Y0036089D03*
X0648176Y0034829D03*
X0647546Y0033570D03*
X0638176Y0033412D03*
X0636759Y0033412D03*
X0636444Y0031837D03*
X0629278Y0034042D03*
X0627388Y0034042D03*
X0626601Y0034042D03*
X0619593Y0036089D03*
X0619436Y0036089D03*
X0619121Y0036247D03*
X0618333Y0036404D03*
X0617231Y0036089D03*
X0617231Y0039396D03*
X0617073Y0039396D03*
X0616601Y0039396D03*
X0618176Y0039396D03*
X0620066Y0039396D03*
X0637861Y0041129D03*
X0638018Y0041129D03*
X0638176Y0041129D03*
X0638333Y0041129D03*
X0638491Y0041129D03*
X0638648Y0041129D03*
X0638806Y0041129D03*
X0658176Y0039239D03*
X0658491Y0037822D03*
X0659908Y0039239D03*
X0669436Y0038136D03*
X0670381Y0038294D03*
X0670381Y0034672D03*
X0677703Y0033412D03*
X0677861Y0033412D03*
X0678963Y0032467D03*
X0679121Y0032467D03*
X0680066Y0030735D03*
X0677231Y0030735D03*
X0677073Y0030735D03*
X0676759Y0030735D03*
X0669278Y0031207D03*
X0669121Y0031207D03*
X0686759Y0031522D03*
X0686916Y0031365D03*
X0688018Y0030892D03*
X0688176Y0030892D03*
X0688176Y0029003D03*
X0688333Y0029003D03*
X0697388Y0031207D03*
X0697546Y0031207D03*
X0697861Y0032782D03*
X0698648Y0032782D03*
X0700066Y0034672D03*
X0698963Y0035144D03*
X0696916Y0037979D03*
X0696759Y0037979D03*
X0696601Y0037979D03*
X0697073Y0038136D03*
X0699593Y0039396D03*
X0699751Y0039396D03*
X0699908Y0039396D03*
X0700223Y0039396D03*
X0689751Y0034987D03*
X0689593Y0034987D03*
X0689278Y0034829D03*
X0687546Y0034672D03*
X0687388Y0034829D03*
X0687073Y0034987D03*
X0698176Y0029003D03*
X0698333Y0029003D03*
X0628176Y0030105D03*
X0619593Y0031995D03*
X0618963Y0030262D03*
X0618963Y0028530D03*
X0619121Y0028530D03*
X0617231Y0031995D03*
X0617073Y0031995D03*
X0608333Y0030577D03*
X0608176Y0029475D03*
X0608176Y0032152D03*
X0489908Y0028136D03*
X0488333Y0028136D03*
X0487073Y0028136D03*
X0486916Y0028136D03*
X0486759Y0028136D03*
X0486286Y0029554D03*
X0489436Y0026562D03*
X0489278Y0024829D03*
X0489593Y0024672D03*
X0489751Y0024672D03*
X0488333Y0025144D03*
X0487388Y0024829D03*
X0487231Y0024829D03*
X0487231Y0020577D03*
X0487388Y0020577D03*
X0488806Y0020262D03*
X0487703Y0035381D03*
X0487546Y0035381D03*
X0487546Y0039633D03*
X0487388Y0039633D03*
X0410223Y0033176D03*
X0410066Y0033176D03*
X0409908Y0033176D03*
X0409751Y0033176D03*
X0407073Y0031759D03*
X0406601Y0031601D03*
X0408963Y0028766D03*
X0409121Y0028766D03*
X0409593Y0024672D03*
X0407073Y0024672D03*
X0407546Y0019318D03*
X0407703Y0019318D03*
X0408806Y0018373D03*
X0408963Y0018373D03*
X0407073Y0036010D03*
X0406286Y0036168D03*
X0407388Y0037585D03*
X0407546Y0037585D03*
X0407546Y0041837D03*
X0407703Y0041837D03*
X0629436Y0121562D03*
X0806759Y0046483D03*
X0807073Y0046483D03*
X0807231Y0046483D03*
X0810066Y0046483D03*
X0809593Y0042703D03*
X0809436Y0042703D03*
X0809278Y0042546D03*
X0809121Y0042546D03*
X0808963Y0042388D03*
X0808806Y0042388D03*
X0807231Y0042703D03*
X0807073Y0042703D03*
X0809121Y0038924D03*
X0809278Y0038924D03*
X0817546Y0036089D03*
X0818018Y0036089D03*
X0818963Y0036089D03*
X0820381Y0036089D03*
X0819908Y0034829D03*
X0820538Y0033570D03*
X0818176Y0034829D03*
X0817546Y0033570D03*
X0810381Y0034672D03*
X0809121Y0034829D03*
X0808963Y0034829D03*
X0810223Y0030577D03*
X0817546Y0030262D03*
X0818176Y0028845D03*
X0820696Y0030420D03*
X0826759Y0030735D03*
X0827073Y0030735D03*
X0827231Y0030735D03*
X0828963Y0032467D03*
X0829121Y0032467D03*
X0827861Y0033412D03*
X0827703Y0033412D03*
X0836759Y0031522D03*
X0836916Y0031365D03*
X0838018Y0030892D03*
X0838176Y0030892D03*
X0838176Y0029003D03*
X0838333Y0029003D03*
X0830066Y0030735D03*
X0837073Y0034987D03*
X0837388Y0034829D03*
X0837546Y0034672D03*
X0839278Y0034829D03*
X0839593Y0034987D03*
X0839751Y0034987D03*
X0847861Y0032782D03*
X0848648Y0032782D03*
X0847546Y0031207D03*
X0847388Y0031207D03*
X0848176Y0029003D03*
X0848333Y0029003D03*
X0850066Y0034672D03*
X0848963Y0035144D03*
X0846916Y0037979D03*
X0846759Y0037979D03*
X0846601Y0037979D03*
X0847073Y0038136D03*
X0849593Y0039396D03*
X0849751Y0039396D03*
X0849908Y0039396D03*
X0850223Y0039396D03*
X0817861Y0042861D03*
X0817703Y0043018D03*
D43*
X0838018Y0038058D03*
X0838176Y0038058D03*
X0838333Y0038058D03*
X0838491Y0038058D03*
X0838648Y0038058D03*
X0688648Y0038058D03*
X0688491Y0038058D03*
X0688333Y0038058D03*
X0688176Y0038058D03*
X0688018Y0038058D03*
X0658963Y0044672D03*
X0648963Y0043570D03*
X0628806Y0041995D03*
X0627861Y0041995D03*
X0408963Y0045223D03*
D44*
X0409121Y0045144D03*
X0409278Y0045144D03*
X0488963Y0042940D03*
X0608648Y0034514D03*
X0649121Y0043491D03*
X0649278Y0043491D03*
X0659121Y0044593D03*
X0659278Y0044593D03*
X0687861Y0038136D03*
X0688806Y0038136D03*
X0688963Y0038136D03*
X0837861Y0038136D03*
X0838806Y0038136D03*
X0838963Y0038136D03*
D45*
X0839121Y0038215D03*
X0837703Y0038215D03*
X0689121Y0038215D03*
X0687703Y0038215D03*
X0659436Y0044514D03*
X0649436Y0043412D03*
X0628963Y0041995D03*
X0490381Y0020026D03*
X0407861Y0027743D03*
X0489121Y0042861D03*
X0489278Y0042861D03*
D46*
X0407703Y0027822D03*
X0407546Y0027979D03*
X0607231Y0034199D03*
X0627703Y0042073D03*
X0649593Y0043333D03*
X0659593Y0044436D03*
X0670381Y0045853D03*
X0820696Y0043176D03*
D47*
X0666286Y0027192D03*
X0628963Y0027192D03*
X0609436Y0030341D03*
X0608806Y0034751D03*
X0608176Y0034751D03*
X0629121Y0041995D03*
X0636286Y0041207D03*
X0649751Y0043255D03*
X0659751Y0044357D03*
X0490223Y0019869D03*
D48*
X0607861Y0034829D03*
X0608018Y0034829D03*
X0627388Y0042073D03*
X0627546Y0042073D03*
X0629278Y0042073D03*
X0640381Y0041286D03*
X0649908Y0043176D03*
X0659908Y0044278D03*
X0670223Y0045853D03*
X0700381Y0042388D03*
X0700381Y0026955D03*
X0690381Y0026955D03*
X0807388Y0049475D03*
X0809278Y0049475D03*
X0820538Y0043176D03*
X0850381Y0042388D03*
X0850381Y0026955D03*
X0840381Y0026955D03*
D49*
X0840223Y0026877D03*
X0840066Y0026877D03*
X0850066Y0026877D03*
X0850223Y0026877D03*
X0840381Y0030971D03*
X0810381Y0026877D03*
X0806286Y0026877D03*
X0818333Y0038845D03*
X0818491Y0038845D03*
X0819593Y0038845D03*
X0819751Y0038845D03*
X0826286Y0038845D03*
X0830381Y0038845D03*
X0820381Y0043097D03*
X0809121Y0049396D03*
X0807546Y0049396D03*
X0850381Y0046404D03*
X0850223Y0042310D03*
X0700381Y0046404D03*
X0700223Y0042310D03*
X0680381Y0038845D03*
X0676286Y0038845D03*
X0660066Y0044199D03*
X0650066Y0043097D03*
X0647861Y0044199D03*
X0648333Y0038845D03*
X0648491Y0038845D03*
X0649593Y0038845D03*
X0649751Y0038845D03*
X0670066Y0045774D03*
X0618806Y0042467D03*
X0618648Y0042467D03*
X0618491Y0042467D03*
X0618333Y0042467D03*
X0618176Y0042467D03*
X0618018Y0042467D03*
X0617861Y0042467D03*
X0608963Y0034751D03*
X0607703Y0034751D03*
X0607388Y0034593D03*
X0666444Y0027034D03*
X0690066Y0026877D03*
X0690223Y0026877D03*
X0700066Y0026877D03*
X0700223Y0026877D03*
X0690381Y0030971D03*
X0629436Y0113766D03*
X0629593Y0113924D03*
X0627231Y0113924D03*
X0627073Y0113924D03*
D50*
X0629751Y0122349D03*
X0629908Y0122349D03*
X0629278Y0125184D03*
X0630066Y0125499D03*
X0627861Y0125499D03*
X0627861Y0129751D03*
X0628018Y0129751D03*
X0627703Y0137152D03*
X0630066Y0137310D03*
X0628806Y0140932D03*
X0630066Y0143924D03*
X0630223Y0147861D03*
X0627703Y0147861D03*
X0629908Y0150538D03*
X0630066Y0150538D03*
X0629751Y0150696D03*
X0629751Y0153373D03*
X0629908Y0153373D03*
X0630066Y0153373D03*
X0629593Y0153530D03*
X0630223Y0158255D03*
X0627703Y0158255D03*
X0627861Y0162822D03*
X0629908Y0162822D03*
X0627703Y0166444D03*
X0627861Y0169593D03*
X0630066Y0169593D03*
X0806286Y0051050D03*
X0815971Y0043806D03*
X0819593Y0042703D03*
X0826601Y0039239D03*
X0830066Y0039239D03*
X0836286Y0038924D03*
X0836286Y0035144D03*
X0837703Y0033727D03*
X0838018Y0033570D03*
X0838648Y0033570D03*
X0838963Y0033727D03*
X0839121Y0033727D03*
X0819436Y0033727D03*
X0809121Y0029633D03*
X0807703Y0029633D03*
X0806759Y0026483D03*
X0809908Y0026483D03*
X0826601Y0026483D03*
X0830066Y0026483D03*
X0836286Y0029003D03*
X0838491Y0026483D03*
X0838648Y0026483D03*
X0846286Y0029003D03*
X0848491Y0026483D03*
X0848648Y0026483D03*
X0806286Y0035459D03*
X0698648Y0026483D03*
X0698491Y0026483D03*
X0696286Y0029003D03*
X0688648Y0026483D03*
X0688491Y0026483D03*
X0686286Y0029003D03*
X0680066Y0026483D03*
X0676601Y0026483D03*
X0668176Y0026640D03*
X0668018Y0026640D03*
X0660538Y0027270D03*
X0640223Y0029318D03*
X0630381Y0026640D03*
X0626286Y0026640D03*
X0620223Y0029318D03*
X0610538Y0027270D03*
X0609593Y0029948D03*
X0608806Y0029790D03*
X0608648Y0029790D03*
X0609593Y0034672D03*
X0616286Y0035932D03*
X0616916Y0042073D03*
X0619751Y0042073D03*
X0626916Y0042073D03*
X0629751Y0042073D03*
X0636286Y0036877D03*
X0649436Y0033727D03*
X0676601Y0039239D03*
X0680066Y0039239D03*
X0686286Y0038924D03*
X0686286Y0035144D03*
X0687703Y0033727D03*
X0688018Y0033570D03*
X0688648Y0033570D03*
X0688963Y0033727D03*
X0689121Y0033727D03*
X0669278Y0045381D03*
X0667388Y0045381D03*
X0488806Y0043727D03*
X0487073Y0044357D03*
X0486286Y0037428D03*
X0486286Y0024514D03*
X0489436Y0015853D03*
X0489593Y0015853D03*
X0409278Y0015853D03*
X0409121Y0015853D03*
X0408963Y0015853D03*
X0407703Y0023412D03*
X0406444Y0029081D03*
D51*
X0646759Y0035381D03*
X0660853Y0035538D03*
D52*
X0611483Y0029948D03*
X0605184Y0029948D03*
D53*
X0605341Y0030026D03*
X0611325Y0030026D03*
D54*
X0611168Y0030184D03*
X0605499Y0030184D03*
D55*
X0605656Y0030262D03*
X0611010Y0030262D03*
D56*
X0606759Y0030814D03*
D57*
X0606916Y0030892D03*
D58*
X0607073Y0030971D03*
D59*
X0607231Y0028924D03*
D60*
X0608333Y0034199D03*
X0407703Y0045459D03*
X0407546Y0045459D03*
X0407388Y0045459D03*
D61*
X0487388Y0043176D03*
X0487546Y0043176D03*
X0487703Y0043176D03*
X0608491Y0034278D03*
X0628176Y0041837D03*
X0628333Y0041837D03*
X0628491Y0041837D03*
D62*
X0610853Y0030341D03*
D63*
X0645184Y0034514D03*
X0651483Y0034514D03*
D64*
X0651325Y0034593D03*
X0645341Y0034593D03*
D65*
X0645499Y0034751D03*
X0640538Y0034278D03*
X0636129Y0034278D03*
X0651168Y0034751D03*
D66*
X0651010Y0034829D03*
X0645656Y0034829D03*
X0640696Y0034357D03*
X0635971Y0034357D03*
D67*
X0646916Y0035459D03*
D68*
X0647073Y0035538D03*
X0820853Y0035538D03*
D69*
X0817231Y0039396D03*
X0817231Y0030262D03*
X0647231Y0030262D03*
D70*
X0647231Y0040184D03*
D71*
X0650853Y0034908D03*
X0640853Y0034436D03*
X0635814Y0034436D03*
X0817073Y0034908D03*
D72*
X0815341Y0035774D03*
X0821325Y0035774D03*
D73*
X0821168Y0035696D03*
X0815499Y0035696D03*
D74*
X0815656Y0035617D03*
X0821010Y0035617D03*
D75*
X0671483Y0037113D03*
X0665184Y0037113D03*
D76*
X0665341Y0037034D03*
X0671325Y0037034D03*
D77*
X0671168Y0036955D03*
X0665499Y0036955D03*
D78*
X0665656Y0036877D03*
X0671010Y0036877D03*
D79*
X0670853Y0036798D03*
X0665814Y0036798D03*
X0695184Y0036640D03*
X0695341Y0036640D03*
X0695499Y0036640D03*
X0695656Y0036640D03*
X0695814Y0036640D03*
X0695971Y0036640D03*
X0696129Y0036640D03*
X0700538Y0036640D03*
X0700696Y0036640D03*
X0700853Y0036640D03*
X0701010Y0036640D03*
X0701168Y0036640D03*
X0701325Y0036640D03*
X0701483Y0036640D03*
X0845184Y0036640D03*
X0845341Y0036640D03*
X0845499Y0036640D03*
X0845656Y0036640D03*
X0845814Y0036640D03*
X0845971Y0036640D03*
X0846129Y0036640D03*
X0850538Y0036640D03*
X0850696Y0036640D03*
X0850853Y0036640D03*
X0851010Y0036640D03*
X0851168Y0036640D03*
X0851325Y0036640D03*
X0851483Y0036640D03*
D80*
X0670696Y0036719D03*
X0665971Y0036719D03*
D81*
X0666129Y0036640D03*
X0670538Y0036640D03*
D82*
X0675184Y0032861D03*
X0675341Y0032861D03*
X0675499Y0032861D03*
X0675656Y0032861D03*
X0675814Y0032861D03*
X0675971Y0032861D03*
X0676129Y0032861D03*
X0680538Y0032861D03*
X0680696Y0032861D03*
X0680853Y0032861D03*
X0681010Y0032861D03*
X0681168Y0032861D03*
X0681325Y0032861D03*
X0681483Y0032861D03*
X0825184Y0032861D03*
X0825341Y0032861D03*
X0825499Y0032861D03*
X0825656Y0032861D03*
X0825814Y0032861D03*
X0825971Y0032861D03*
X0826129Y0032861D03*
X0830538Y0032861D03*
X0830696Y0032861D03*
X0830853Y0032861D03*
X0831010Y0032861D03*
X0831168Y0032861D03*
X0831325Y0032861D03*
X0831483Y0032861D03*
D83*
X0811483Y0039318D03*
X0805184Y0039318D03*
D84*
X0805341Y0039239D03*
X0811325Y0039239D03*
D85*
X0811168Y0039160D03*
X0805499Y0039160D03*
D86*
X0805656Y0039081D03*
X0811010Y0039081D03*
D87*
X0810853Y0039003D03*
X0805814Y0039003D03*
D88*
X0805971Y0038924D03*
X0810696Y0038924D03*
D89*
X0810538Y0038845D03*
X0806129Y0038845D03*
D90*
X0641325Y0034672D03*
X0635341Y0034672D03*
D91*
X0631483Y0033412D03*
X0625184Y0033412D03*
X0621483Y0033412D03*
X0615184Y0033412D03*
D92*
X0615341Y0033491D03*
X0621325Y0033491D03*
X0625341Y0033491D03*
X0631325Y0033491D03*
D93*
X0631168Y0033648D03*
X0625499Y0033648D03*
X0621168Y0033648D03*
X0615499Y0033648D03*
D94*
X0615656Y0033727D03*
X0621010Y0033727D03*
X0625656Y0033727D03*
X0631010Y0033727D03*
D95*
X0630853Y0033806D03*
X0625814Y0033806D03*
X0620853Y0033806D03*
X0615814Y0033806D03*
D96*
X0615971Y0033885D03*
X0620696Y0033885D03*
X0625971Y0033885D03*
X0630696Y0033885D03*
D97*
X0630538Y0033963D03*
X0626129Y0033963D03*
X0620538Y0033963D03*
X0616129Y0033963D03*
D98*
X0685184Y0032703D03*
X0685341Y0032703D03*
X0685499Y0032703D03*
X0685656Y0032703D03*
X0685814Y0032703D03*
X0685971Y0032703D03*
X0686129Y0032703D03*
X0690538Y0032703D03*
X0690696Y0032703D03*
X0690853Y0032703D03*
X0691010Y0032703D03*
X0691168Y0032703D03*
X0691325Y0032703D03*
X0691483Y0032703D03*
X0835184Y0032703D03*
X0835341Y0032703D03*
X0835499Y0032703D03*
X0835656Y0032703D03*
X0835814Y0032703D03*
X0835971Y0032703D03*
X0836129Y0032703D03*
X0840538Y0032703D03*
X0840696Y0032703D03*
X0840853Y0032703D03*
X0841010Y0032703D03*
X0841168Y0032703D03*
X0841325Y0032703D03*
X0841483Y0032703D03*
D99*
X0405184Y0032467D03*
X0405499Y0032310D03*
X0405814Y0032152D03*
X0405971Y0032152D03*
X0410696Y0030262D03*
X0410853Y0030262D03*
X0411168Y0030105D03*
X0411483Y0029948D03*
D100*
X0411325Y0030026D03*
X0411010Y0030184D03*
X0410538Y0030341D03*
X0406129Y0032073D03*
X0405656Y0032231D03*
X0405341Y0032388D03*
D101*
X0485184Y0031365D03*
X0485499Y0031207D03*
X0485814Y0031050D03*
X0485971Y0031050D03*
X0490696Y0029160D03*
X0490853Y0029160D03*
X0491168Y0029003D03*
X0491483Y0028845D03*
D102*
X0491325Y0028924D03*
X0491010Y0029081D03*
X0490538Y0029239D03*
X0486129Y0030971D03*
X0485656Y0031129D03*
X0485341Y0031286D03*
D103*
X0751640Y0096404D03*
X0711640Y0101129D03*
X0729278Y0107743D03*
X0745026Y0110577D03*
X0844514Y0114081D03*
X0846640Y0122113D03*
X0846640Y0126365D03*
D104*
X0841207Y0124239D03*
X0840971Y0124239D03*
X0841916Y0131798D03*
X0843097Y0131562D03*
X0842152Y0134160D03*
X0844514Y0134160D03*
X0844751Y0134396D03*
X0840262Y0112664D03*
X0842388Y0110538D03*
X0840262Y0099436D03*
X0842152Y0097310D03*
X0844514Y0097310D03*
X0843097Y0094711D03*
X0841916Y0094948D03*
X0842152Y0089278D03*
X0840262Y0087388D03*
X0842152Y0085499D03*
X0844278Y0085262D03*
X0771404Y0096877D03*
X0769987Y0095696D03*
X0767388Y0095696D03*
X0766680Y0095696D03*
X0769987Y0098294D03*
X0748570Y0097349D03*
X0748333Y0099711D03*
X0746207Y0098530D03*
X0729514Y0096877D03*
X0727152Y0096877D03*
X0725262Y0099003D03*
X0708570Y0100184D03*
X0706207Y0099003D03*
X0708333Y0097822D03*
X0725262Y0093333D03*
X0727152Y0091207D03*
X0729514Y0091207D03*
X0730696Y0086955D03*
X0745262Y0087192D03*
X0747152Y0085066D03*
X0747388Y0084829D03*
X0749278Y0084829D03*
X0766916Y0087900D03*
X0768097Y0087664D03*
X0748097Y0105853D03*
X0746916Y0106089D03*
X0747152Y0108451D03*
X0746916Y0108688D03*
X0749514Y0108451D03*
D105*
X0746916Y0111759D03*
X0771404Y0107979D03*
X0751404Y0100892D03*
X0751404Y0096404D03*
X0751404Y0094278D03*
X0745262Y0094278D03*
X0729751Y0094514D03*
X0711404Y0096640D03*
X0711404Y0101129D03*
X0711404Y0103727D03*
X0726916Y0100184D03*
X0729751Y0100184D03*
X0769514Y0095459D03*
X0751404Y0090499D03*
X0749751Y0088373D03*
X0745262Y0090499D03*
X0731404Y0086955D03*
X0725262Y0084593D03*
X0841916Y0100617D03*
X0844751Y0100617D03*
X0846640Y0087388D03*
X0844751Y0114081D03*
X0846404Y0116207D03*
X0840262Y0116207D03*
X0840262Y0119987D03*
X0846404Y0119987D03*
X0846404Y0121877D03*
X0840499Y0124239D03*
X0846404Y0126601D03*
X0841916Y0137467D03*
D106*
X0846404Y0131916D03*
X0731404Y0114239D03*
X0725262Y0111877D03*
X0729751Y0107388D03*
X0731640Y0108570D03*
X0751404Y0106207D03*
X0745262Y0098648D03*
X0766916Y0097940D03*
X0725262Y0089199D03*
X0711404Y0086837D03*
X0705262Y0089199D03*
X0705262Y0084475D03*
X0771404Y0088018D03*
X0705262Y0098885D03*
X0725262Y0116601D03*
X0846404Y0095066D03*
D107*
X0840262Y0092822D03*
X0840499Y0087388D03*
X0771168Y0096877D03*
X0768806Y0097585D03*
X0765499Y0096877D03*
X0747152Y0098530D03*
X0745262Y0103963D03*
X0731168Y0108451D03*
X0727625Y0108215D03*
X0725262Y0108924D03*
X0748097Y0111522D03*
X0748333Y0111522D03*
X0748570Y0111522D03*
X0707152Y0099003D03*
X0725499Y0093333D03*
X0729514Y0086955D03*
X0729751Y0086955D03*
X0765262Y0085774D03*
X0842152Y0124239D03*
X0842388Y0124239D03*
X0840262Y0129672D03*
D108*
X0841916Y0134278D03*
X0840262Y0136168D03*
X0844042Y0137349D03*
X0846404Y0112782D03*
X0844751Y0110892D03*
X0841916Y0110892D03*
X0841916Y0097664D03*
X0844751Y0097428D03*
X0844751Y0089160D03*
X0841916Y0089160D03*
X0841916Y0085617D03*
X0844751Y0085617D03*
X0765262Y0096995D03*
X0746444Y0098648D03*
X0729751Y0096995D03*
X0726916Y0097231D03*
X0706444Y0098885D03*
X0725026Y0105026D03*
X0726207Y0104790D03*
X0732113Y0104790D03*
X0731404Y0108570D03*
X0745262Y0110459D03*
X0749751Y0108806D03*
X0730459Y0114239D03*
X0730223Y0114239D03*
X0732113Y0119199D03*
X0726207Y0119199D03*
X0725026Y0118963D03*
X0726916Y0091562D03*
X0729751Y0091562D03*
X0730459Y0086837D03*
X0710459Y0086837D03*
X0710223Y0086837D03*
X0749751Y0085184D03*
X0751404Y0087073D03*
D109*
X0750696Y0086955D03*
X0745971Y0086955D03*
X0730696Y0093333D03*
X0725971Y0093333D03*
X0705735Y0092625D03*
X0730696Y0098766D03*
X0745971Y0104199D03*
X0749042Y0104199D03*
X0750696Y0110577D03*
X0745971Y0110577D03*
X0745262Y0116010D03*
X0725735Y0118136D03*
X0770223Y0096877D03*
X0770459Y0096877D03*
X0769042Y0086010D03*
X0765971Y0086010D03*
X0840262Y0081483D03*
X0840971Y0087388D03*
X0845696Y0087388D03*
X0844042Y0093058D03*
X0840971Y0093058D03*
X0845696Y0099199D03*
X0845696Y0112664D03*
X0840971Y0112664D03*
X0843806Y0124239D03*
X0844042Y0129908D03*
X0840971Y0129908D03*
X0840971Y0136050D03*
X0840262Y0141719D03*
D110*
X0840499Y0136168D03*
X0840499Y0112782D03*
X0840499Y0099318D03*
X0751168Y0087073D03*
X0745499Y0087073D03*
X0709514Y0086837D03*
X0709278Y0086837D03*
X0707388Y0098885D03*
X0725499Y0098885D03*
X0747388Y0098648D03*
X0745499Y0110459D03*
X0729514Y0114239D03*
X0729278Y0114239D03*
D111*
X0728806Y0115302D03*
X0728333Y0115538D03*
X0727861Y0115774D03*
X0727861Y0119554D03*
X0728097Y0119554D03*
X0728333Y0119554D03*
X0728570Y0119554D03*
X0728806Y0119554D03*
X0729042Y0119554D03*
X0729278Y0119554D03*
X0729514Y0119554D03*
X0729751Y0119554D03*
X0729987Y0119554D03*
X0730223Y0119554D03*
X0730459Y0119554D03*
X0730696Y0119554D03*
X0730932Y0119554D03*
X0731168Y0119554D03*
X0731404Y0119554D03*
X0731640Y0119554D03*
X0731877Y0119554D03*
X0727625Y0119554D03*
X0727388Y0119554D03*
X0727152Y0119554D03*
X0726916Y0119554D03*
X0726680Y0119554D03*
X0726444Y0119554D03*
X0747625Y0111522D03*
X0747625Y0108215D03*
X0747861Y0108215D03*
X0748570Y0108215D03*
X0748806Y0108215D03*
X0750932Y0106325D03*
X0751168Y0106325D03*
X0751168Y0103018D03*
X0750932Y0103018D03*
X0750932Y0100892D03*
X0751168Y0100892D03*
X0745735Y0098530D03*
X0745735Y0094278D03*
X0745971Y0094278D03*
X0746207Y0094278D03*
X0746444Y0094278D03*
X0746680Y0094278D03*
X0746916Y0094278D03*
X0747152Y0094278D03*
X0747388Y0094278D03*
X0745499Y0094278D03*
X0749278Y0094278D03*
X0749514Y0094278D03*
X0749751Y0094278D03*
X0749987Y0094278D03*
X0750223Y0094278D03*
X0750459Y0094278D03*
X0750696Y0094278D03*
X0750932Y0094278D03*
X0751168Y0094278D03*
X0766680Y0097822D03*
X0769751Y0095459D03*
X0751168Y0090499D03*
X0750932Y0090499D03*
X0750696Y0090499D03*
X0750459Y0090499D03*
X0750223Y0090499D03*
X0749987Y0090499D03*
X0749751Y0090499D03*
X0749514Y0090499D03*
X0749278Y0090499D03*
X0747388Y0090499D03*
X0747152Y0090499D03*
X0746916Y0090499D03*
X0746680Y0090499D03*
X0746444Y0090499D03*
X0746207Y0090499D03*
X0745971Y0090499D03*
X0745735Y0090499D03*
X0745499Y0090499D03*
X0731168Y0086955D03*
X0728570Y0085774D03*
X0728097Y0085538D03*
X0727625Y0085302D03*
X0725735Y0084593D03*
X0708806Y0087900D03*
X0708333Y0088136D03*
X0707861Y0088373D03*
X0705735Y0089318D03*
X0725499Y0089318D03*
X0725735Y0089318D03*
X0727861Y0090971D03*
X0728097Y0090971D03*
X0728570Y0090971D03*
X0728806Y0090971D03*
X0729042Y0090971D03*
X0709514Y0094751D03*
X0709278Y0094751D03*
X0707388Y0094514D03*
X0707152Y0094514D03*
X0710932Y0096640D03*
X0711168Y0096640D03*
X0705735Y0099003D03*
X0706680Y0103727D03*
X0706916Y0103727D03*
X0707152Y0103727D03*
X0707388Y0103727D03*
X0707625Y0103727D03*
X0707861Y0103727D03*
X0708097Y0103727D03*
X0708333Y0103727D03*
X0708570Y0103727D03*
X0708806Y0103727D03*
X0709042Y0103727D03*
X0709278Y0103727D03*
X0709514Y0103727D03*
X0709751Y0103727D03*
X0709987Y0103727D03*
X0710223Y0103727D03*
X0710459Y0103727D03*
X0710696Y0103727D03*
X0710932Y0103727D03*
X0711168Y0103727D03*
X0726444Y0104436D03*
X0726680Y0104436D03*
X0726916Y0104436D03*
X0727152Y0104436D03*
X0727388Y0104436D03*
X0727625Y0104436D03*
X0727861Y0104436D03*
X0728097Y0104436D03*
X0728333Y0104436D03*
X0728570Y0104436D03*
X0728806Y0104436D03*
X0729042Y0104436D03*
X0729278Y0104436D03*
X0729514Y0104436D03*
X0729751Y0104436D03*
X0729987Y0104436D03*
X0730223Y0104436D03*
X0730459Y0104436D03*
X0730696Y0104436D03*
X0730932Y0104436D03*
X0731168Y0104436D03*
X0731404Y0104436D03*
X0731640Y0104436D03*
X0731877Y0104436D03*
X0729751Y0109869D03*
X0710932Y0109869D03*
X0710696Y0109869D03*
X0710459Y0109869D03*
X0710223Y0109869D03*
X0709987Y0109869D03*
X0709751Y0109869D03*
X0709514Y0109869D03*
X0709278Y0109869D03*
X0709042Y0109869D03*
X0708806Y0109869D03*
X0708570Y0109869D03*
X0708333Y0109869D03*
X0708097Y0109869D03*
X0707861Y0109869D03*
X0707625Y0109869D03*
X0707388Y0109869D03*
X0707152Y0109869D03*
X0706916Y0109869D03*
X0706680Y0109869D03*
X0766680Y0107979D03*
X0766916Y0107979D03*
X0767152Y0107979D03*
X0767388Y0107979D03*
X0767625Y0107979D03*
X0767861Y0107979D03*
X0768097Y0107979D03*
X0768333Y0107979D03*
X0768570Y0107979D03*
X0768806Y0107979D03*
X0769042Y0107979D03*
X0769278Y0107979D03*
X0769514Y0107979D03*
X0769751Y0107979D03*
X0769987Y0107979D03*
X0770223Y0107979D03*
X0770459Y0107979D03*
X0770696Y0107979D03*
X0770932Y0107979D03*
X0771168Y0107979D03*
X0840499Y0116207D03*
X0840735Y0116207D03*
X0840971Y0116207D03*
X0841207Y0116207D03*
X0841444Y0116207D03*
X0841680Y0116207D03*
X0841916Y0116207D03*
X0842152Y0116207D03*
X0842388Y0116207D03*
X0844278Y0116207D03*
X0844514Y0116207D03*
X0844751Y0116207D03*
X0844987Y0116207D03*
X0845223Y0116207D03*
X0845459Y0116207D03*
X0845696Y0116207D03*
X0845932Y0116207D03*
X0846168Y0116207D03*
X0846168Y0119987D03*
X0845932Y0119987D03*
X0845696Y0119987D03*
X0845459Y0119987D03*
X0845223Y0119987D03*
X0844987Y0119987D03*
X0844751Y0119987D03*
X0844514Y0119987D03*
X0844278Y0119987D03*
X0842388Y0119987D03*
X0842152Y0119987D03*
X0841916Y0119987D03*
X0841680Y0119987D03*
X0841444Y0119987D03*
X0841207Y0119987D03*
X0840971Y0119987D03*
X0840735Y0119987D03*
X0840499Y0119987D03*
X0845932Y0121877D03*
X0846168Y0121877D03*
X0840735Y0124239D03*
X0845932Y0126601D03*
X0846168Y0126601D03*
X0846168Y0128727D03*
X0845932Y0128727D03*
X0845932Y0132034D03*
X0846168Y0132034D03*
X0844042Y0133924D03*
X0842625Y0137231D03*
X0844278Y0137703D03*
X0844514Y0137703D03*
X0844751Y0137703D03*
X0843806Y0110302D03*
X0843570Y0110302D03*
X0843333Y0110302D03*
X0843097Y0110302D03*
X0842861Y0110302D03*
X0845932Y0095184D03*
X0846168Y0095184D03*
X0846168Y0091877D03*
X0845932Y0091877D03*
X0843333Y0089751D03*
X0843333Y0085026D03*
X0843097Y0085026D03*
X0843570Y0085026D03*
X0845932Y0079829D03*
X0846168Y0079829D03*
X0771168Y0084829D03*
X0770932Y0084829D03*
X0770932Y0088136D03*
X0771168Y0088136D03*
X0748570Y0084593D03*
X0748333Y0084593D03*
D112*
X0746916Y0088255D03*
X0725499Y0084475D03*
X0711168Y0086837D03*
X0705499Y0089199D03*
X0705499Y0084475D03*
X0726916Y0094633D03*
X0745499Y0098648D03*
X0751168Y0096286D03*
X0751404Y0102900D03*
X0729042Y0107625D03*
X0725499Y0111877D03*
X0731168Y0114239D03*
X0725499Y0116601D03*
X0711404Y0109987D03*
X0711168Y0109987D03*
X0711168Y0101247D03*
X0705499Y0098885D03*
X0771404Y0084711D03*
X0846404Y0079711D03*
X0846404Y0091759D03*
X0841916Y0113963D03*
X0846404Y0128609D03*
D113*
X0840499Y0129790D03*
X0842625Y0132861D03*
X0842861Y0132861D03*
X0729042Y0114239D03*
X0728333Y0108570D03*
X0726444Y0108806D03*
X0726207Y0108806D03*
X0725971Y0108806D03*
X0725735Y0108806D03*
X0745499Y0104081D03*
X0747861Y0098648D03*
X0765735Y0096995D03*
X0765971Y0096995D03*
X0768097Y0096759D03*
X0768333Y0096995D03*
X0768570Y0097231D03*
X0770932Y0096995D03*
X0745735Y0087073D03*
X0765499Y0085892D03*
X0711404Y0092507D03*
X0709042Y0086837D03*
X0707861Y0098885D03*
X0840499Y0092940D03*
X0842625Y0096010D03*
X0842861Y0096010D03*
D114*
X0843333Y0093294D03*
X0843570Y0093294D03*
X0841680Y0093294D03*
X0841444Y0093294D03*
X0841680Y0098963D03*
X0841207Y0099199D03*
X0844987Y0098963D03*
X0845459Y0099199D03*
X0845223Y0104396D03*
X0844987Y0104396D03*
X0841680Y0104396D03*
X0841680Y0112428D03*
X0841444Y0112428D03*
X0844987Y0112192D03*
X0845223Y0112428D03*
X0844278Y0124239D03*
X0844042Y0124239D03*
X0843570Y0130144D03*
X0843333Y0130144D03*
X0841680Y0130144D03*
X0841444Y0130144D03*
X0841680Y0135814D03*
X0841207Y0136050D03*
X0845223Y0136050D03*
X0845459Y0136050D03*
X0844987Y0141483D03*
X0845932Y0141719D03*
X0846168Y0141719D03*
X0841680Y0141483D03*
X0840735Y0141719D03*
X0840499Y0141719D03*
X0751168Y0116010D03*
X0750932Y0116010D03*
X0749987Y0115774D03*
X0746680Y0115774D03*
X0745735Y0116010D03*
X0745499Y0116010D03*
X0746444Y0110341D03*
X0746680Y0110105D03*
X0750459Y0110577D03*
X0748570Y0104436D03*
X0748333Y0104436D03*
X0746680Y0104436D03*
X0746444Y0104436D03*
X0749042Y0098530D03*
X0766680Y0102073D03*
X0769987Y0102073D03*
X0770223Y0102073D03*
X0730459Y0098766D03*
X0729987Y0098530D03*
X0726680Y0098530D03*
X0726207Y0098766D03*
X0709042Y0099003D03*
X0710223Y0092861D03*
X0710459Y0092861D03*
X0706680Y0092861D03*
X0706444Y0092861D03*
X0726444Y0093097D03*
X0726680Y0092861D03*
X0729987Y0092861D03*
X0730223Y0093097D03*
X0746680Y0086719D03*
X0749987Y0086719D03*
X0750223Y0086719D03*
X0766444Y0086247D03*
X0766680Y0086247D03*
X0768333Y0086247D03*
X0768570Y0086247D03*
X0769987Y0091680D03*
X0770223Y0091680D03*
X0766680Y0091680D03*
X0840499Y0081483D03*
X0840735Y0081483D03*
X0841680Y0081247D03*
X0841207Y0087388D03*
X0845459Y0087388D03*
D115*
X0840735Y0093176D03*
X0840971Y0099318D03*
X0843097Y0104042D03*
X0843333Y0104042D03*
X0843570Y0104042D03*
X0843806Y0104042D03*
X0768806Y0101719D03*
X0768570Y0101719D03*
X0768333Y0101719D03*
X0768097Y0101719D03*
X0745735Y0104318D03*
X0730459Y0108570D03*
X0730223Y0108570D03*
X0747861Y0115420D03*
X0748097Y0115420D03*
X0748333Y0115420D03*
X0748570Y0115420D03*
X0748806Y0115420D03*
X0725971Y0098885D03*
X0711168Y0092507D03*
X0705499Y0092507D03*
X0750932Y0087073D03*
X0765735Y0086129D03*
X0768097Y0091325D03*
X0768333Y0091325D03*
X0768570Y0091325D03*
X0768806Y0091325D03*
X0842861Y0080892D03*
X0843097Y0080892D03*
X0843333Y0080892D03*
X0843570Y0080892D03*
X0843806Y0080892D03*
X0840735Y0130026D03*
X0840735Y0136168D03*
X0845932Y0136168D03*
X0843806Y0141129D03*
X0843570Y0141129D03*
X0843333Y0141129D03*
X0843097Y0141129D03*
X0842861Y0141129D03*
D116*
X0842625Y0141010D03*
X0844042Y0141010D03*
X0749042Y0115302D03*
X0747625Y0115302D03*
X0745735Y0110577D03*
X0750932Y0110577D03*
X0730696Y0108451D03*
X0729987Y0108688D03*
X0728806Y0108688D03*
X0728570Y0108688D03*
X0730932Y0099003D03*
X0725735Y0099003D03*
X0708097Y0099003D03*
X0725735Y0093333D03*
X0730932Y0093333D03*
X0748097Y0098530D03*
X0766207Y0096877D03*
X0766444Y0096877D03*
X0770696Y0096877D03*
X0769042Y0101601D03*
X0767861Y0101601D03*
X0767625Y0101601D03*
X0767625Y0091207D03*
X0767861Y0091207D03*
X0769042Y0091207D03*
X0840735Y0087388D03*
X0845932Y0087388D03*
X0844042Y0080774D03*
X0842625Y0080774D03*
X0840735Y0099436D03*
X0845932Y0099436D03*
X0844042Y0103924D03*
X0842861Y0103924D03*
X0842625Y0103924D03*
X0840735Y0112664D03*
X0845932Y0112664D03*
D117*
X0844514Y0110656D03*
X0844278Y0110420D03*
X0844042Y0110420D03*
X0842625Y0110420D03*
X0842152Y0110656D03*
X0842152Y0102861D03*
X0841916Y0102861D03*
X0842388Y0102861D03*
X0844278Y0102861D03*
X0844514Y0102861D03*
X0844751Y0102861D03*
X0844278Y0097192D03*
X0844042Y0096955D03*
X0843806Y0096955D03*
X0843570Y0096955D03*
X0843333Y0096955D03*
X0843097Y0096955D03*
X0842388Y0097192D03*
X0842388Y0095066D03*
X0842152Y0095066D03*
X0844987Y0094829D03*
X0845223Y0094829D03*
X0845459Y0095066D03*
X0845696Y0095066D03*
X0845696Y0091759D03*
X0845459Y0091759D03*
X0845223Y0091759D03*
X0844987Y0091759D03*
X0843097Y0091759D03*
X0842861Y0091759D03*
X0842625Y0091759D03*
X0842388Y0091759D03*
X0842152Y0091759D03*
X0841916Y0091759D03*
X0842625Y0089633D03*
X0842861Y0089633D03*
X0843097Y0089633D03*
X0843570Y0089633D03*
X0843806Y0089633D03*
X0844042Y0089633D03*
X0844278Y0089396D03*
X0844514Y0089396D03*
X0842388Y0089396D03*
X0842388Y0085381D03*
X0842625Y0085144D03*
X0842861Y0085144D03*
X0843806Y0085144D03*
X0844042Y0085144D03*
X0844514Y0085381D03*
X0844514Y0079711D03*
X0844278Y0079711D03*
X0844751Y0079711D03*
X0844987Y0079711D03*
X0845223Y0079711D03*
X0845459Y0079711D03*
X0845696Y0079711D03*
X0842388Y0079711D03*
X0842152Y0079711D03*
X0841916Y0079711D03*
X0770696Y0084711D03*
X0770459Y0084711D03*
X0770223Y0084711D03*
X0769987Y0084711D03*
X0768097Y0084711D03*
X0767861Y0084711D03*
X0767625Y0084711D03*
X0767388Y0084711D03*
X0767152Y0084711D03*
X0766916Y0084711D03*
X0767152Y0088018D03*
X0767388Y0088018D03*
X0767625Y0088018D03*
X0767861Y0088018D03*
X0769987Y0087782D03*
X0770223Y0087782D03*
X0770459Y0088018D03*
X0770696Y0088018D03*
X0769751Y0090144D03*
X0769514Y0090144D03*
X0769278Y0090144D03*
X0767388Y0090144D03*
X0767152Y0090144D03*
X0766916Y0090144D03*
X0766916Y0095577D03*
X0767152Y0095577D03*
X0769278Y0098412D03*
X0769514Y0098412D03*
X0769751Y0098412D03*
X0769751Y0100538D03*
X0769514Y0100538D03*
X0769278Y0100538D03*
X0767388Y0100538D03*
X0767152Y0100538D03*
X0766916Y0100538D03*
X0750696Y0100774D03*
X0750459Y0100774D03*
X0748570Y0099829D03*
X0745971Y0098648D03*
X0748333Y0097467D03*
X0750459Y0096522D03*
X0750696Y0096286D03*
X0750932Y0096286D03*
X0750696Y0102900D03*
X0750459Y0102900D03*
X0750223Y0102900D03*
X0749987Y0102900D03*
X0748097Y0102900D03*
X0747861Y0102900D03*
X0747625Y0102900D03*
X0747388Y0102900D03*
X0747152Y0102900D03*
X0746916Y0102900D03*
X0747152Y0106207D03*
X0747388Y0106207D03*
X0747625Y0106207D03*
X0747861Y0106207D03*
X0748097Y0108097D03*
X0748333Y0108097D03*
X0749042Y0108333D03*
X0749278Y0108333D03*
X0747388Y0108333D03*
X0749987Y0105971D03*
X0750223Y0105971D03*
X0750459Y0106207D03*
X0750696Y0106207D03*
X0749751Y0112113D03*
X0749514Y0112113D03*
X0749278Y0112113D03*
X0749278Y0114239D03*
X0749514Y0114239D03*
X0749751Y0114239D03*
X0747388Y0114239D03*
X0747152Y0114239D03*
X0746916Y0114239D03*
X0730932Y0114239D03*
X0730696Y0114239D03*
X0728806Y0113294D03*
X0728570Y0113058D03*
X0728333Y0113058D03*
X0728097Y0112822D03*
X0727861Y0112822D03*
X0727625Y0112585D03*
X0727388Y0112585D03*
X0727152Y0112349D03*
X0726916Y0112349D03*
X0726680Y0112113D03*
X0726444Y0112113D03*
X0726207Y0111877D03*
X0725971Y0111877D03*
X0725735Y0111877D03*
X0729042Y0109751D03*
X0729278Y0109987D03*
X0729514Y0109987D03*
X0727152Y0107625D03*
X0726916Y0107625D03*
X0728570Y0115420D03*
X0728097Y0115656D03*
X0727625Y0115892D03*
X0727388Y0115892D03*
X0727152Y0116129D03*
X0726916Y0116129D03*
X0726680Y0116365D03*
X0726444Y0116365D03*
X0726207Y0116601D03*
X0725971Y0116601D03*
X0710932Y0101247D03*
X0710696Y0101247D03*
X0710459Y0101010D03*
X0708333Y0100066D03*
X0705971Y0098885D03*
X0708570Y0097703D03*
X0710459Y0096759D03*
X0710696Y0096759D03*
X0709751Y0094633D03*
X0709042Y0094633D03*
X0706916Y0094396D03*
X0706916Y0091325D03*
X0707152Y0091325D03*
X0707388Y0091325D03*
X0707625Y0091325D03*
X0707861Y0091325D03*
X0708097Y0091325D03*
X0708333Y0091325D03*
X0708570Y0091325D03*
X0708806Y0091325D03*
X0709042Y0091325D03*
X0709278Y0091325D03*
X0709514Y0091325D03*
X0709751Y0091325D03*
X0707152Y0088727D03*
X0706916Y0088727D03*
X0706680Y0088963D03*
X0706444Y0088963D03*
X0706207Y0089199D03*
X0705971Y0089199D03*
X0707388Y0088491D03*
X0707625Y0088491D03*
X0708097Y0088255D03*
X0708570Y0088018D03*
X0708806Y0085892D03*
X0708570Y0085656D03*
X0708333Y0085656D03*
X0708097Y0085420D03*
X0707861Y0085420D03*
X0707625Y0085184D03*
X0707388Y0085184D03*
X0707152Y0084948D03*
X0706916Y0084948D03*
X0706680Y0084711D03*
X0706444Y0084711D03*
X0706207Y0084475D03*
X0705971Y0084475D03*
X0705735Y0084475D03*
X0710696Y0086837D03*
X0710932Y0086837D03*
X0725971Y0084475D03*
X0726207Y0084711D03*
X0726444Y0084711D03*
X0726680Y0084948D03*
X0726916Y0084948D03*
X0727152Y0085184D03*
X0727388Y0085184D03*
X0727861Y0085420D03*
X0728333Y0085656D03*
X0728806Y0085892D03*
X0728806Y0088018D03*
X0728570Y0088018D03*
X0728333Y0088255D03*
X0728097Y0088255D03*
X0727861Y0088491D03*
X0727625Y0088491D03*
X0727388Y0088727D03*
X0727152Y0088727D03*
X0726916Y0088963D03*
X0726680Y0088963D03*
X0726444Y0089199D03*
X0726207Y0089199D03*
X0725971Y0089199D03*
X0727388Y0091089D03*
X0727625Y0091089D03*
X0728333Y0090853D03*
X0729278Y0091089D03*
X0730932Y0086837D03*
X0747625Y0084711D03*
X0747861Y0084711D03*
X0748097Y0084711D03*
X0748806Y0084711D03*
X0749042Y0084711D03*
X0749514Y0084948D03*
X0729278Y0096759D03*
X0729042Y0096522D03*
X0728806Y0096522D03*
X0728570Y0096522D03*
X0728333Y0096522D03*
X0728097Y0096522D03*
X0727861Y0096522D03*
X0727625Y0096522D03*
X0727388Y0096759D03*
X0843097Y0123176D03*
X0843333Y0123176D03*
X0843570Y0122940D03*
X0845459Y0121995D03*
X0845696Y0121995D03*
X0843333Y0125302D03*
X0843097Y0125302D03*
X0843570Y0125538D03*
X0845459Y0126483D03*
X0845696Y0126483D03*
X0845696Y0128609D03*
X0845459Y0128609D03*
X0845223Y0128609D03*
X0844987Y0128609D03*
X0843097Y0128609D03*
X0842861Y0128609D03*
X0842625Y0128609D03*
X0842388Y0128609D03*
X0842152Y0128609D03*
X0841916Y0128609D03*
X0842152Y0131916D03*
X0842388Y0131916D03*
X0843097Y0133806D03*
X0843333Y0133806D03*
X0843570Y0133806D03*
X0843806Y0133806D03*
X0844278Y0134042D03*
X0842388Y0134042D03*
X0844987Y0131680D03*
X0845223Y0131680D03*
X0845459Y0131916D03*
X0845696Y0131916D03*
X0844751Y0139948D03*
X0844514Y0139948D03*
X0844278Y0139948D03*
X0842388Y0139948D03*
X0842152Y0139948D03*
X0841916Y0139948D03*
D118*
X0841444Y0141601D03*
X0841207Y0141601D03*
X0840971Y0141601D03*
X0845223Y0141601D03*
X0845459Y0141601D03*
X0845696Y0141601D03*
X0844987Y0135932D03*
X0750696Y0115892D03*
X0750459Y0115892D03*
X0750223Y0115892D03*
X0746444Y0115892D03*
X0746207Y0115892D03*
X0745971Y0115892D03*
X0750223Y0110459D03*
X0766207Y0102192D03*
X0766444Y0102192D03*
X0770459Y0102192D03*
X0770696Y0102192D03*
X0770932Y0102192D03*
X0771168Y0102192D03*
X0749278Y0098648D03*
X0765735Y0091798D03*
X0765971Y0091798D03*
X0766207Y0091798D03*
X0766444Y0091798D03*
X0770459Y0091798D03*
X0770696Y0091798D03*
X0770932Y0091798D03*
X0771168Y0091798D03*
X0709987Y0092979D03*
X0709278Y0098885D03*
X0840735Y0104514D03*
X0840971Y0104514D03*
X0841207Y0104514D03*
X0841444Y0104514D03*
X0845459Y0104514D03*
X0845696Y0104514D03*
X0845932Y0104514D03*
X0846168Y0104514D03*
X0841444Y0081365D03*
X0841207Y0081365D03*
X0840971Y0081365D03*
D119*
X0841207Y0093176D03*
X0843806Y0093176D03*
X0844278Y0093176D03*
X0844514Y0093176D03*
X0844751Y0093176D03*
X0845223Y0099081D03*
X0841444Y0099081D03*
X0840499Y0104514D03*
X0840262Y0104514D03*
X0846404Y0104514D03*
X0845459Y0112546D03*
X0841207Y0112546D03*
X0771404Y0102192D03*
X0765499Y0102192D03*
X0765262Y0102192D03*
X0749751Y0104318D03*
X0749514Y0104318D03*
X0749278Y0104318D03*
X0748806Y0104318D03*
X0746207Y0104318D03*
X0746207Y0110459D03*
X0751404Y0115892D03*
X0748806Y0098648D03*
X0730223Y0098648D03*
X0726444Y0098648D03*
X0708806Y0098885D03*
X0710696Y0092743D03*
X0710932Y0092743D03*
X0706207Y0092743D03*
X0705971Y0092743D03*
X0726207Y0093215D03*
X0730459Y0093215D03*
X0746207Y0086837D03*
X0746444Y0086837D03*
X0750459Y0086837D03*
X0765262Y0091798D03*
X0765499Y0091798D03*
X0771404Y0091798D03*
X0769751Y0086129D03*
X0769514Y0086129D03*
X0769278Y0086129D03*
X0768806Y0086129D03*
X0766207Y0086129D03*
X0841207Y0130026D03*
X0843806Y0130026D03*
X0844278Y0130026D03*
X0844514Y0130026D03*
X0844751Y0130026D03*
X0845696Y0136168D03*
X0841444Y0135932D03*
X0846404Y0141601D03*
D120*
X0846404Y0136286D03*
X0841680Y0124239D03*
X0841444Y0124239D03*
X0751404Y0110577D03*
X0749042Y0111759D03*
X0747861Y0111522D03*
X0732349Y0104908D03*
X0725971Y0104908D03*
X0731404Y0099003D03*
X0746680Y0098530D03*
X0731404Y0093333D03*
X0730223Y0086955D03*
X0746916Y0085302D03*
X0708570Y0094042D03*
X0708097Y0093806D03*
X0707861Y0094042D03*
X0707625Y0094042D03*
X0706680Y0099003D03*
X0769042Y0098058D03*
X0846404Y0099436D03*
X0846404Y0087388D03*
X0732349Y0119081D03*
X0725971Y0119081D03*
D121*
X0725499Y0118963D03*
X0725262Y0118963D03*
X0732585Y0118963D03*
X0732822Y0118963D03*
X0733058Y0118963D03*
X0729987Y0114239D03*
X0729751Y0114239D03*
X0727388Y0108097D03*
X0725735Y0105026D03*
X0725499Y0105026D03*
X0725262Y0105026D03*
X0732585Y0105026D03*
X0732822Y0105026D03*
X0733058Y0105026D03*
X0746916Y0098648D03*
X0767625Y0096286D03*
X0729987Y0086837D03*
X0709987Y0086837D03*
X0709751Y0086837D03*
X0708333Y0093924D03*
X0708806Y0094160D03*
X0706916Y0098885D03*
X0748806Y0111640D03*
X0841916Y0124357D03*
X0842861Y0137113D03*
X0843097Y0137113D03*
X0843333Y0137113D03*
X0843570Y0137113D03*
X0843806Y0137113D03*
D122*
X0840262Y0124239D03*
X0842152Y0114081D03*
X0727152Y0094751D03*
X0747152Y0088373D03*
D123*
X0749514Y0088491D03*
X0751640Y0087073D03*
X0731640Y0093451D03*
X0729514Y0094633D03*
X0731640Y0098885D03*
X0729514Y0100302D03*
X0727152Y0100302D03*
X0751640Y0100774D03*
X0771640Y0096995D03*
X0769278Y0095341D03*
X0751640Y0110459D03*
X0747152Y0111877D03*
X0842152Y0100735D03*
X0844514Y0100735D03*
X0846640Y0099318D03*
X0846640Y0112782D03*
X0846640Y0136168D03*
X0842152Y0137585D03*
D124*
X0844514Y0124239D03*
X0844751Y0124239D03*
X0844042Y0118097D03*
X0843806Y0118097D03*
X0843570Y0118097D03*
X0843333Y0118097D03*
X0843097Y0118097D03*
X0842861Y0118097D03*
X0842625Y0118097D03*
X0749987Y0110341D03*
X0749514Y0098530D03*
X0749042Y0092388D03*
X0748806Y0092388D03*
X0748570Y0092388D03*
X0748333Y0092388D03*
X0748097Y0092388D03*
X0747861Y0092388D03*
X0747625Y0092388D03*
X0709514Y0099003D03*
X0841444Y0087388D03*
X0841680Y0087388D03*
X0844987Y0087388D03*
X0845223Y0087388D03*
D125*
X0846168Y0087388D03*
X0846168Y0099436D03*
X0846168Y0112664D03*
X0842861Y0124239D03*
X0842625Y0124239D03*
X0846168Y0136286D03*
X0751168Y0110577D03*
X0730932Y0108451D03*
X0728097Y0108451D03*
X0727861Y0108451D03*
X0726680Y0108688D03*
X0725499Y0108924D03*
X0731168Y0099003D03*
X0747625Y0098530D03*
X0731168Y0093333D03*
X0729278Y0086955D03*
X0729042Y0086955D03*
X0705262Y0092388D03*
X0707625Y0099003D03*
X0767861Y0096640D03*
D126*
X0749751Y0098648D03*
X0709751Y0098885D03*
X0706444Y0109987D03*
X0705262Y0109987D03*
D127*
X0705262Y0103727D03*
X0706207Y0103727D03*
X0706444Y0103727D03*
X0709987Y0099003D03*
X0710223Y0099003D03*
X0749987Y0098530D03*
X0765262Y0107979D03*
X0766207Y0107979D03*
X0766444Y0107979D03*
X0844987Y0124239D03*
X0845223Y0124239D03*
D128*
X0765499Y0107861D03*
X0750223Y0098648D03*
X0705971Y0103609D03*
X0705735Y0103609D03*
X0705499Y0103609D03*
X0705499Y0109987D03*
X0705735Y0109987D03*
X0705971Y0109987D03*
X0706207Y0109987D03*
D129*
X0765735Y0105262D03*
X0765971Y0105262D03*
D130*
X0567664Y0061404D03*
X0565302Y0061404D03*
X0551010Y0061404D03*
X0567664Y0055262D03*
D131*
X0567664Y0055499D03*
X0567664Y0055735D03*
X0567664Y0055971D03*
X0567664Y0056207D03*
X0567664Y0056444D03*
X0567664Y0056680D03*
X0567664Y0058570D03*
X0567664Y0058806D03*
X0567664Y0059042D03*
X0567664Y0059278D03*
X0567664Y0059514D03*
X0567664Y0059751D03*
X0567664Y0059987D03*
X0567664Y0060223D03*
X0567664Y0060459D03*
X0567664Y0060696D03*
X0567664Y0060932D03*
X0567664Y0061168D03*
X0565302Y0061168D03*
X0565302Y0060932D03*
X0565302Y0060696D03*
X0565066Y0059751D03*
X0564829Y0058806D03*
X0551010Y0058570D03*
X0551010Y0058333D03*
X0551010Y0058097D03*
X0551010Y0057861D03*
X0551010Y0057625D03*
X0551010Y0057388D03*
X0551010Y0057152D03*
X0551010Y0056916D03*
X0551010Y0056680D03*
X0551010Y0056444D03*
X0551010Y0056207D03*
X0551010Y0055971D03*
X0551010Y0055735D03*
X0551010Y0055499D03*
X0537664Y0059042D03*
X0537664Y0059278D03*
X0537664Y0059514D03*
X0534593Y0059278D03*
X0534593Y0059042D03*
X0534593Y0058806D03*
X0551010Y0061168D03*
X0579593Y0057388D03*
X0579593Y0057152D03*
X0582900Y0057152D03*
X0582664Y0059514D03*
X0582664Y0059751D03*
D132*
X0582782Y0057388D03*
X0582782Y0056916D03*
X0579711Y0056916D03*
X0579948Y0059751D03*
X0565184Y0059987D03*
X0565184Y0060223D03*
X0565184Y0060459D03*
X0564948Y0059514D03*
X0564948Y0059278D03*
X0564948Y0059042D03*
X0564711Y0058570D03*
X0550892Y0060932D03*
X0537546Y0059751D03*
X0537546Y0058806D03*
X0534711Y0059514D03*
X0534711Y0059751D03*
D133*
X0536247Y0061404D03*
X0537428Y0058570D03*
X0550774Y0060696D03*
X0581247Y0061404D03*
D134*
X0582546Y0056680D03*
X0579948Y0056680D03*
X0550656Y0060459D03*
X0537310Y0058333D03*
X0537073Y0058097D03*
D135*
X0536719Y0057861D03*
X0550538Y0060223D03*
X0581247Y0055262D03*
X0582428Y0057625D03*
X0581719Y0058570D03*
X0582192Y0059278D03*
D136*
X0582073Y0059042D03*
X0581837Y0058806D03*
X0581837Y0058333D03*
X0582073Y0057861D03*
X0550420Y0058806D03*
X0550420Y0059987D03*
X0536129Y0061168D03*
X0535892Y0057152D03*
X0535656Y0056916D03*
D137*
X0536247Y0057388D03*
X0536483Y0057625D03*
X0550302Y0059042D03*
X0550302Y0059751D03*
X0581247Y0061168D03*
X0581955Y0058097D03*
D138*
X0581129Y0055499D03*
X0550184Y0059278D03*
X0550184Y0059514D03*
X0536129Y0060932D03*
D139*
X0549475Y0058570D03*
X0579711Y0057625D03*
D140*
X0579948Y0059514D03*
X0550892Y0055262D03*
X0534711Y0058570D03*
D141*
X0536129Y0060696D03*
X0581129Y0055735D03*
D142*
X0581247Y0055971D03*
X0581247Y0060459D03*
X0581247Y0060696D03*
X0536247Y0060459D03*
D143*
X0536129Y0060223D03*
X0566365Y0056916D03*
D144*
X0581247Y0056207D03*
X0581247Y0059987D03*
X0581247Y0060223D03*
X0536247Y0059987D03*
X0536247Y0056680D03*
D145*
X0536247Y0056444D03*
X0536247Y0056207D03*
X0536247Y0055971D03*
X0536247Y0055735D03*
X0536247Y0055499D03*
D146*
X0536365Y0055262D03*
X0566129Y0057152D03*
X0566129Y0057388D03*
X0566129Y0057625D03*
X0566129Y0057861D03*
X0566129Y0058097D03*
X0566129Y0058333D03*
X0581129Y0056444D03*
D147*
X0581247Y0060932D03*
D148*
X0579948Y0059278D03*
D149*
X0581247Y0055026D03*
D150*
X0443373Y0176286D03*
X0443373Y0179121D03*
X0443373Y0179751D03*
X0443373Y0180538D03*
X0444790Y0180538D03*
X0448097Y0178491D03*
X0437388Y0179121D03*
X0436129Y0176444D03*
X0429514Y0176129D03*
X0427310Y0176444D03*
X0424318Y0179121D03*
X0425577Y0180538D03*
X0422113Y0179121D03*
X0414711Y0179121D03*
X0412507Y0176129D03*
X0409357Y0176444D03*
X0407782Y0176444D03*
X0408570Y0178963D03*
X0408570Y0179121D03*
X0406995Y0179121D03*
X0429514Y0179278D03*
X0434554Y0180223D03*
D151*
X0434633Y0179751D03*
X0433845Y0178333D03*
X0435420Y0178176D03*
X0437625Y0177388D03*
X0440932Y0178176D03*
X0445026Y0177231D03*
X0445184Y0176601D03*
X0445184Y0176444D03*
X0449908Y0178491D03*
X0449121Y0180381D03*
X0452585Y0180381D03*
X0455735Y0179908D03*
X0457467Y0179436D03*
X0459042Y0178963D03*
X0458885Y0177703D03*
X0458727Y0177546D03*
X0427231Y0176759D03*
X0423294Y0176759D03*
X0422349Y0178333D03*
X0422192Y0178648D03*
X0411483Y0178176D03*
X0411483Y0177231D03*
X0409436Y0177073D03*
X0409436Y0176916D03*
X0405341Y0177388D03*
X0405499Y0178963D03*
X0404081Y0180381D03*
X0402979Y0179278D03*
X0402822Y0179121D03*
X0402822Y0177546D03*
D152*
X0410223Y0179121D03*
X0414633Y0176286D03*
X0416680Y0176286D03*
X0425656Y0176286D03*
X0427073Y0178963D03*
X0433058Y0176286D03*
X0436050Y0176286D03*
X0440774Y0176286D03*
X0452585Y0176129D03*
X0455892Y0176286D03*
X0419514Y0180381D03*
D153*
X0419514Y0180223D03*
X0419514Y0180066D03*
X0419514Y0179908D03*
X0419514Y0179751D03*
X0419514Y0179593D03*
X0419514Y0179436D03*
X0419514Y0179278D03*
X0419514Y0179121D03*
X0419514Y0178963D03*
X0419514Y0178806D03*
X0419514Y0178648D03*
X0419514Y0178491D03*
X0419514Y0178333D03*
X0419514Y0178176D03*
X0419514Y0178018D03*
X0419514Y0177861D03*
X0419514Y0177703D03*
X0419514Y0177546D03*
X0419514Y0177388D03*
X0419514Y0177231D03*
X0416680Y0177231D03*
X0416680Y0177388D03*
X0416680Y0177546D03*
X0416680Y0177703D03*
X0416680Y0177861D03*
X0416680Y0177073D03*
X0416680Y0176916D03*
X0416680Y0176759D03*
X0416680Y0176601D03*
X0416680Y0176444D03*
X0414633Y0176444D03*
X0414633Y0176601D03*
X0414633Y0176759D03*
X0414633Y0176916D03*
X0414633Y0177073D03*
X0414633Y0177231D03*
X0414633Y0177388D03*
X0414633Y0177546D03*
X0414633Y0177703D03*
X0415892Y0179121D03*
X0412428Y0179278D03*
X0410223Y0178963D03*
X0410223Y0178806D03*
X0410066Y0178333D03*
X0409436Y0176601D03*
X0407703Y0176601D03*
X0406916Y0178806D03*
X0406916Y0178963D03*
X0405656Y0178491D03*
X0405656Y0178333D03*
X0405656Y0178176D03*
X0405656Y0178018D03*
X0402664Y0178806D03*
X0422034Y0178963D03*
X0424239Y0178963D03*
X0424239Y0178648D03*
X0425656Y0178648D03*
X0425656Y0178806D03*
X0425656Y0178963D03*
X0425656Y0179121D03*
X0425656Y0179278D03*
X0425656Y0179436D03*
X0425656Y0179593D03*
X0425656Y0179751D03*
X0425656Y0179908D03*
X0425656Y0180066D03*
X0425656Y0180223D03*
X0425656Y0180381D03*
X0427073Y0178806D03*
X0425656Y0176916D03*
X0425656Y0176759D03*
X0425656Y0176601D03*
X0425656Y0176444D03*
X0422979Y0175814D03*
X0422822Y0175341D03*
X0422822Y0175184D03*
X0433058Y0176444D03*
X0433058Y0176601D03*
X0437467Y0176286D03*
X0437467Y0176129D03*
X0437467Y0175971D03*
X0437467Y0175814D03*
X0437467Y0175656D03*
X0437467Y0175499D03*
X0437467Y0175341D03*
X0437467Y0175184D03*
X0440774Y0176444D03*
X0440774Y0176601D03*
X0440774Y0176759D03*
X0440774Y0176916D03*
X0440774Y0177073D03*
X0440774Y0177231D03*
X0440774Y0177388D03*
X0440774Y0177546D03*
X0440774Y0177703D03*
X0440774Y0177861D03*
X0440774Y0178018D03*
X0439357Y0178018D03*
X0439357Y0177861D03*
X0439357Y0177703D03*
X0439357Y0177546D03*
X0438570Y0179121D03*
X0437467Y0177861D03*
X0437467Y0177703D03*
X0434633Y0180066D03*
X0443451Y0179908D03*
X0443451Y0180381D03*
X0443451Y0178963D03*
X0444869Y0178963D03*
X0444869Y0178806D03*
X0444869Y0178648D03*
X0444869Y0178491D03*
X0444869Y0178333D03*
X0444869Y0178176D03*
X0444869Y0178018D03*
X0444869Y0177861D03*
X0444869Y0177703D03*
X0444869Y0177546D03*
X0444869Y0177388D03*
X0445341Y0176286D03*
X0443451Y0176444D03*
X0443451Y0176601D03*
X0444869Y0179121D03*
X0444869Y0179278D03*
X0444869Y0179436D03*
X0444869Y0179593D03*
X0444869Y0179751D03*
X0444869Y0179908D03*
X0444869Y0180066D03*
X0444869Y0180223D03*
X0444869Y0180381D03*
X0448018Y0178963D03*
X0448018Y0178806D03*
X0448018Y0178648D03*
X0450066Y0178806D03*
X0450066Y0178963D03*
X0450066Y0179121D03*
X0451483Y0178648D03*
X0451483Y0178491D03*
X0451483Y0178333D03*
X0451483Y0178176D03*
X0451483Y0178018D03*
X0451483Y0177861D03*
X0451640Y0179121D03*
X0453530Y0179121D03*
X0453688Y0178491D03*
X0453688Y0178333D03*
X0453688Y0178176D03*
X0453688Y0178018D03*
X0453530Y0177546D03*
X0455892Y0177546D03*
X0455892Y0177703D03*
X0455892Y0177861D03*
X0455892Y0178018D03*
X0455892Y0178176D03*
X0455892Y0178333D03*
X0455892Y0178491D03*
X0455892Y0177388D03*
X0455892Y0177231D03*
X0455892Y0177073D03*
X0455892Y0176916D03*
X0455892Y0176759D03*
X0455892Y0176601D03*
X0455892Y0176444D03*
X0457310Y0178963D03*
X0457310Y0179121D03*
X0457310Y0179278D03*
X0455892Y0180223D03*
X0459042Y0179278D03*
X0459042Y0179121D03*
D154*
X0455971Y0180381D03*
X0443373Y0179593D03*
X0441955Y0179278D03*
X0434554Y0180381D03*
X0427310Y0176286D03*
X0409357Y0176286D03*
X0407782Y0176286D03*
X0404160Y0176129D03*
D155*
X0405420Y0177546D03*
X0405577Y0177703D03*
X0405577Y0177861D03*
X0405577Y0178648D03*
X0405577Y0178806D03*
X0405420Y0179121D03*
X0406995Y0178648D03*
X0406995Y0178491D03*
X0408570Y0178491D03*
X0408570Y0178648D03*
X0408570Y0178806D03*
X0410144Y0178648D03*
X0410144Y0178491D03*
X0411404Y0178018D03*
X0413294Y0178018D03*
X0413294Y0178176D03*
X0414711Y0178018D03*
X0414711Y0177861D03*
X0416601Y0178018D03*
X0422113Y0178806D03*
X0422270Y0178491D03*
X0422428Y0178176D03*
X0422585Y0178018D03*
X0424003Y0178018D03*
X0424003Y0178176D03*
X0424160Y0178333D03*
X0424160Y0178491D03*
X0424318Y0178806D03*
X0423373Y0176601D03*
X0423215Y0176444D03*
X0423215Y0176286D03*
X0423058Y0176129D03*
X0423058Y0175971D03*
X0422900Y0175656D03*
X0422900Y0175499D03*
X0427310Y0176601D03*
X0428570Y0177231D03*
X0428412Y0178018D03*
X0428570Y0178176D03*
X0426995Y0178648D03*
X0430302Y0178176D03*
X0430302Y0178018D03*
X0433136Y0176916D03*
X0433136Y0176759D03*
X0433766Y0178176D03*
X0435341Y0178333D03*
X0435971Y0176916D03*
X0436129Y0176759D03*
X0436129Y0176601D03*
X0437546Y0177546D03*
X0437546Y0178018D03*
X0439278Y0177388D03*
X0443373Y0177388D03*
X0443373Y0177231D03*
X0443373Y0177073D03*
X0443373Y0176916D03*
X0443373Y0176759D03*
X0443373Y0177546D03*
X0443373Y0177703D03*
X0443373Y0177861D03*
X0443373Y0178018D03*
X0443373Y0178176D03*
X0443373Y0178333D03*
X0443373Y0178491D03*
X0443373Y0178648D03*
X0443373Y0178806D03*
X0443373Y0180066D03*
X0443373Y0180223D03*
X0448097Y0179278D03*
X0448097Y0179121D03*
X0449987Y0179278D03*
X0449987Y0178648D03*
X0451562Y0178806D03*
X0451562Y0178963D03*
X0451719Y0179278D03*
X0451562Y0177703D03*
X0451562Y0177546D03*
X0451719Y0177388D03*
X0453451Y0177388D03*
X0453609Y0177703D03*
X0453609Y0177861D03*
X0453609Y0178648D03*
X0453609Y0178806D03*
X0453609Y0178963D03*
X0453451Y0179278D03*
X0455814Y0180066D03*
X0458176Y0180381D03*
X0458963Y0179436D03*
X0458963Y0177861D03*
X0457546Y0176286D03*
X0434554Y0179908D03*
X0409357Y0176759D03*
X0407782Y0176759D03*
X0407782Y0176916D03*
X0402743Y0177703D03*
X0402585Y0177861D03*
X0402585Y0178018D03*
X0402585Y0178176D03*
X0402585Y0178333D03*
X0402585Y0178491D03*
X0402585Y0178648D03*
X0402743Y0178963D03*
D156*
X0404081Y0180223D03*
X0423294Y0177388D03*
X0426129Y0177861D03*
X0434633Y0179121D03*
X0449121Y0177703D03*
X0449278Y0177861D03*
X0452585Y0176444D03*
X0455420Y0178806D03*
X0455420Y0178963D03*
X0455420Y0179121D03*
X0455420Y0179278D03*
X0457782Y0176601D03*
D157*
X0455499Y0178648D03*
X0455499Y0179436D03*
X0458176Y0180223D03*
X0452507Y0180223D03*
X0449042Y0180223D03*
X0448885Y0177546D03*
X0448727Y0177388D03*
X0434554Y0179278D03*
X0426050Y0177703D03*
X0429514Y0176286D03*
X0412507Y0176286D03*
D158*
X0412507Y0176601D03*
X0412349Y0178806D03*
X0404160Y0180066D03*
X0423215Y0177861D03*
X0426365Y0178333D03*
X0426365Y0177231D03*
X0429199Y0177388D03*
X0429514Y0176601D03*
X0429514Y0178806D03*
X0434554Y0178648D03*
X0438176Y0178963D03*
X0438176Y0176601D03*
X0449042Y0179908D03*
X0458176Y0179908D03*
X0452507Y0176759D03*
D159*
X0457861Y0176759D03*
X0458018Y0177073D03*
X0458491Y0178018D03*
X0458176Y0180066D03*
X0452507Y0180066D03*
X0449042Y0180066D03*
X0441325Y0178333D03*
X0434554Y0178963D03*
X0429514Y0178963D03*
X0426207Y0178018D03*
X0426207Y0177546D03*
X0423215Y0177546D03*
X0412507Y0176444D03*
X0412349Y0178963D03*
D160*
X0412270Y0177703D03*
X0412270Y0177546D03*
X0415577Y0178333D03*
X0415577Y0178491D03*
X0420459Y0177073D03*
X0420459Y0176916D03*
X0429278Y0177546D03*
X0429278Y0177703D03*
X0429436Y0178333D03*
X0429436Y0178491D03*
X0438412Y0178333D03*
X0438412Y0178176D03*
X0438412Y0177231D03*
X0449121Y0177231D03*
X0452585Y0177231D03*
X0458255Y0178648D03*
X0458255Y0178806D03*
X0452585Y0179436D03*
X0449121Y0179436D03*
X0404081Y0179908D03*
X0404081Y0176759D03*
D161*
X0404081Y0176444D03*
X0423294Y0177703D03*
X0426286Y0177388D03*
X0426286Y0178176D03*
X0429593Y0176444D03*
X0434633Y0178806D03*
X0438097Y0176444D03*
X0441404Y0178491D03*
X0441404Y0178648D03*
X0441404Y0178806D03*
X0441404Y0178963D03*
X0441404Y0179121D03*
X0452585Y0179908D03*
X0458412Y0178176D03*
X0458097Y0177231D03*
X0457940Y0176916D03*
X0452585Y0176601D03*
D162*
X0449121Y0176601D03*
X0449121Y0176444D03*
X0449121Y0176759D03*
X0449121Y0176916D03*
X0449121Y0177073D03*
X0434633Y0177861D03*
X0404081Y0176916D03*
X0404081Y0179751D03*
D163*
X0412113Y0177388D03*
X0412270Y0177073D03*
X0412270Y0176916D03*
X0412428Y0176759D03*
X0412428Y0178648D03*
X0415420Y0178963D03*
X0426444Y0178491D03*
X0426444Y0177073D03*
X0429278Y0177073D03*
X0429436Y0176916D03*
X0429436Y0176759D03*
X0429436Y0178648D03*
X0434633Y0178491D03*
X0438255Y0178806D03*
X0438255Y0176759D03*
X0449121Y0179751D03*
X0452585Y0179751D03*
X0458097Y0179751D03*
X0458412Y0178333D03*
X0452585Y0176916D03*
X0404081Y0176601D03*
D164*
X0402900Y0177388D03*
X0405262Y0179278D03*
X0407782Y0177073D03*
X0423373Y0176916D03*
X0427152Y0176916D03*
X0434554Y0179593D03*
X0445105Y0177073D03*
X0445105Y0176916D03*
X0445105Y0176759D03*
X0449672Y0178176D03*
X0449829Y0178333D03*
X0452507Y0176286D03*
X0458648Y0177388D03*
X0455656Y0179751D03*
D165*
X0434554Y0177703D03*
X0408570Y0177546D03*
X0408570Y0177388D03*
X0404160Y0179593D03*
D166*
X0407940Y0178333D03*
X0412349Y0178333D03*
X0412349Y0178491D03*
X0415499Y0178648D03*
X0415499Y0178806D03*
X0420538Y0176286D03*
X0438333Y0176916D03*
X0438333Y0177073D03*
X0438333Y0178491D03*
X0438333Y0178648D03*
X0449042Y0179593D03*
X0452507Y0179593D03*
X0458176Y0179593D03*
X0458333Y0178491D03*
X0452507Y0177073D03*
D167*
X0449436Y0178018D03*
X0455577Y0179593D03*
X0457625Y0176444D03*
X0434633Y0179436D03*
X0429436Y0179121D03*
X0423294Y0177231D03*
X0423294Y0177073D03*
X0412428Y0179121D03*
X0404081Y0176286D03*
D168*
X0404081Y0177073D03*
X0404081Y0179436D03*
X0434633Y0177546D03*
D169*
X0437467Y0179278D03*
X0440774Y0179278D03*
X0454948Y0178491D03*
X0438570Y0176286D03*
X0424239Y0179278D03*
X0422192Y0179278D03*
X0410223Y0179278D03*
X0407073Y0179278D03*
D170*
X0408570Y0179278D03*
X0414711Y0179278D03*
X0415814Y0179278D03*
X0427152Y0179121D03*
X0430302Y0177231D03*
X0442113Y0178176D03*
X0443373Y0179278D03*
X0413294Y0177231D03*
D171*
X0408570Y0178176D03*
D172*
X0408570Y0177231D03*
X0412349Y0177861D03*
X0415656Y0178176D03*
X0420538Y0176759D03*
X0420538Y0176601D03*
X0420538Y0176444D03*
X0429357Y0177861D03*
X0434554Y0178018D03*
X0449199Y0176286D03*
D173*
X0434554Y0177388D03*
X0408570Y0177703D03*
X0408570Y0177861D03*
X0408570Y0178018D03*
X0404160Y0177231D03*
D174*
X0434633Y0177231D03*
X0434633Y0177073D03*
D175*
X0475262Y0158058D03*
X0480617Y0155223D03*
X0443451Y0151129D03*
X0425499Y0155223D03*
D176*
X0427861Y0154908D03*
X0435420Y0156798D03*
X0455577Y0154908D03*
X0442034Y0148924D03*
X0436680Y0149239D03*
X0427861Y0149239D03*
X0425656Y0149239D03*
X0470066Y0149239D03*
X0480459Y0149239D03*
X0482979Y0154908D03*
X0485814Y0154908D03*
X0475420Y0157743D03*
X0504711Y0154908D03*
X0500617Y0148924D03*
X0512585Y0149554D03*
X0516680Y0149554D03*
D177*
X0514633Y0151444D03*
X0514633Y0153018D03*
X0506129Y0153648D03*
X0506129Y0153963D03*
X0506129Y0154278D03*
X0506129Y0154593D03*
X0494475Y0154278D03*
X0494475Y0150184D03*
X0500459Y0149554D03*
X0481562Y0149554D03*
X0453530Y0152073D03*
X0447546Y0153648D03*
X0447546Y0153963D03*
X0447546Y0154278D03*
X0447546Y0154593D03*
X0447546Y0154908D03*
X0462664Y0157428D03*
X0441877Y0149554D03*
X0418255Y0157428D03*
D178*
X0416680Y0155223D03*
X0416680Y0154908D03*
X0416680Y0154593D03*
X0416680Y0154278D03*
X0416680Y0153963D03*
X0416680Y0153648D03*
X0416680Y0153333D03*
X0416680Y0153018D03*
X0416680Y0152703D03*
X0416680Y0152388D03*
X0416680Y0152073D03*
X0416680Y0151759D03*
X0416680Y0151444D03*
X0423924Y0151759D03*
X0423924Y0152073D03*
X0423924Y0152388D03*
X0425499Y0154908D03*
X0421089Y0154908D03*
X0421089Y0154593D03*
X0431483Y0155538D03*
X0431483Y0155853D03*
X0431483Y0156168D03*
X0431483Y0156483D03*
X0431483Y0156798D03*
X0435577Y0156483D03*
X0435577Y0156168D03*
X0435577Y0155853D03*
X0435577Y0155538D03*
X0441877Y0155223D03*
X0451325Y0154593D03*
X0455735Y0154593D03*
X0465499Y0154593D03*
X0465499Y0154908D03*
X0465814Y0152073D03*
X0465814Y0151759D03*
X0468333Y0152073D03*
X0468333Y0152388D03*
X0475262Y0152388D03*
X0475262Y0152073D03*
X0475262Y0151759D03*
X0475262Y0151444D03*
X0475262Y0152703D03*
X0475262Y0153018D03*
X0475262Y0153333D03*
X0475262Y0153648D03*
X0475262Y0153963D03*
X0475262Y0154278D03*
X0475262Y0154593D03*
X0475262Y0154908D03*
X0475262Y0155223D03*
X0475262Y0155538D03*
X0475262Y0155853D03*
X0475262Y0156168D03*
X0475262Y0156483D03*
X0475262Y0156798D03*
X0475262Y0157113D03*
X0475262Y0157428D03*
X0488176Y0154908D03*
X0489751Y0152388D03*
X0489751Y0152073D03*
X0489751Y0151759D03*
X0489751Y0151444D03*
X0489751Y0151129D03*
X0489751Y0150814D03*
X0489751Y0150499D03*
X0489751Y0150184D03*
X0489751Y0149869D03*
X0489751Y0149554D03*
X0485656Y0149554D03*
X0485656Y0149869D03*
X0485656Y0150184D03*
X0485656Y0150499D03*
X0485656Y0150814D03*
X0485656Y0151129D03*
X0485656Y0151444D03*
X0485656Y0151759D03*
X0485656Y0152073D03*
X0482822Y0152073D03*
X0482822Y0152388D03*
X0492585Y0151759D03*
X0498255Y0152703D03*
X0502034Y0153018D03*
X0504869Y0152703D03*
X0504869Y0152388D03*
X0504869Y0152073D03*
X0504869Y0151759D03*
X0504869Y0151444D03*
X0504869Y0151129D03*
X0504869Y0150814D03*
X0504869Y0150499D03*
X0504869Y0150184D03*
X0504869Y0149869D03*
X0504869Y0149554D03*
X0512743Y0149869D03*
X0516522Y0149869D03*
X0523136Y0149869D03*
X0523136Y0150184D03*
X0523136Y0150499D03*
X0523136Y0150814D03*
X0523136Y0151129D03*
X0523136Y0149554D03*
X0523136Y0153648D03*
X0523136Y0153963D03*
X0523136Y0154278D03*
X0523136Y0154593D03*
X0523136Y0154908D03*
X0523136Y0155223D03*
X0523136Y0155538D03*
X0523136Y0155853D03*
X0523136Y0156168D03*
X0523136Y0156483D03*
X0523136Y0156798D03*
X0523136Y0157113D03*
X0519987Y0157113D03*
X0519987Y0156798D03*
X0519987Y0156483D03*
X0519672Y0155223D03*
X0519357Y0153963D03*
X0516522Y0154593D03*
X0512743Y0154593D03*
X0500459Y0155223D03*
X0476207Y0149239D03*
X0452900Y0147979D03*
X0452585Y0147034D03*
X0446286Y0149554D03*
X0446286Y0149869D03*
X0446286Y0150184D03*
X0446286Y0150499D03*
X0446286Y0150814D03*
X0446286Y0151129D03*
X0446286Y0151444D03*
X0446286Y0151759D03*
X0446286Y0152073D03*
X0446286Y0152388D03*
X0446286Y0152703D03*
X0443451Y0152703D03*
X0443451Y0153018D03*
X0435577Y0152703D03*
X0435577Y0152388D03*
X0435577Y0152073D03*
X0435577Y0151759D03*
X0435577Y0151444D03*
X0432743Y0149239D03*
X0431483Y0151444D03*
X0431483Y0151759D03*
X0431483Y0152073D03*
X0431483Y0152388D03*
X0431483Y0152703D03*
D179*
X0446286Y0149239D03*
X0451325Y0154908D03*
X0435577Y0157113D03*
X0431483Y0157113D03*
X0472428Y0149239D03*
X0482822Y0149239D03*
X0485656Y0149239D03*
X0489751Y0149239D03*
X0504869Y0149239D03*
X0523136Y0149239D03*
X0516522Y0154908D03*
X0512743Y0154908D03*
X0519987Y0157428D03*
X0523136Y0157428D03*
X0494475Y0155223D03*
D180*
X0500144Y0153963D03*
X0514633Y0153333D03*
X0514633Y0151129D03*
X0500144Y0150499D03*
X0500144Y0150184D03*
X0499829Y0150814D03*
X0499829Y0151444D03*
X0494160Y0150814D03*
X0487231Y0154593D03*
X0481247Y0154278D03*
X0470853Y0154278D03*
X0470853Y0149869D03*
X0481247Y0149869D03*
X0453530Y0152703D03*
X0441562Y0150814D03*
X0441562Y0150499D03*
X0441247Y0151444D03*
X0426444Y0149869D03*
X0418255Y0157113D03*
D181*
X0426286Y0154278D03*
X0426286Y0153963D03*
X0426286Y0150184D03*
X0418412Y0149554D03*
X0441404Y0151759D03*
X0441719Y0153648D03*
X0441719Y0153963D03*
X0462822Y0157113D03*
X0470696Y0153963D03*
X0481089Y0153963D03*
X0481089Y0153648D03*
X0487388Y0153963D03*
X0487388Y0154278D03*
X0481089Y0150499D03*
X0481089Y0150184D03*
X0470696Y0150184D03*
X0470696Y0150499D03*
X0462822Y0149554D03*
X0499987Y0151759D03*
X0500302Y0153648D03*
X0521404Y0151444D03*
D182*
X0514633Y0150814D03*
X0514633Y0150499D03*
X0514633Y0153648D03*
X0500144Y0153333D03*
X0487546Y0153333D03*
X0487546Y0153648D03*
X0480932Y0153333D03*
X0480932Y0153018D03*
X0480932Y0151129D03*
X0480932Y0150814D03*
X0470538Y0150814D03*
X0470538Y0151129D03*
X0470538Y0153333D03*
X0470538Y0153648D03*
X0462979Y0156798D03*
X0441562Y0153333D03*
X0441562Y0152388D03*
X0441562Y0152073D03*
X0426129Y0150814D03*
X0426129Y0150499D03*
X0418570Y0149869D03*
X0426129Y0153648D03*
X0418570Y0156483D03*
X0418570Y0156798D03*
D183*
X0418727Y0156168D03*
X0425971Y0153333D03*
X0425971Y0153018D03*
X0425971Y0151129D03*
X0418727Y0150184D03*
X0463136Y0150184D03*
X0463136Y0149869D03*
X0470381Y0153018D03*
X0463136Y0156168D03*
X0463136Y0156483D03*
X0487703Y0153018D03*
X0499987Y0152388D03*
X0499987Y0152073D03*
X0521089Y0152073D03*
X0521089Y0151759D03*
X0521089Y0152388D03*
X0521089Y0152703D03*
X0521089Y0153018D03*
X0521089Y0153333D03*
D184*
X0519514Y0154278D03*
X0519514Y0154593D03*
X0519514Y0154908D03*
X0519829Y0155538D03*
X0519829Y0155853D03*
X0519829Y0156168D03*
X0519199Y0153648D03*
X0516365Y0154278D03*
X0507231Y0154908D03*
X0501877Y0152703D03*
X0498412Y0153018D03*
X0498412Y0151129D03*
X0494633Y0149239D03*
X0492743Y0151444D03*
X0492428Y0152073D03*
X0492428Y0152388D03*
X0492743Y0152703D03*
X0489593Y0152703D03*
X0485814Y0152703D03*
X0485814Y0152388D03*
X0482664Y0152703D03*
X0482664Y0151759D03*
X0479199Y0151444D03*
X0478885Y0151759D03*
X0478885Y0152073D03*
X0478885Y0152388D03*
X0478885Y0152703D03*
X0480459Y0154908D03*
X0472270Y0152703D03*
X0472270Y0152388D03*
X0472270Y0152073D03*
X0472270Y0151759D03*
X0468491Y0151759D03*
X0468491Y0152703D03*
X0465656Y0152388D03*
X0465656Y0151444D03*
X0461247Y0151444D03*
X0461247Y0151759D03*
X0461247Y0152073D03*
X0461247Y0152388D03*
X0461247Y0152703D03*
X0461247Y0153018D03*
X0461247Y0153333D03*
X0461247Y0153648D03*
X0461247Y0153963D03*
X0461247Y0154278D03*
X0461247Y0154593D03*
X0461247Y0154908D03*
X0461247Y0155223D03*
X0465341Y0155223D03*
X0455577Y0154278D03*
X0455577Y0153963D03*
X0455577Y0153648D03*
X0455262Y0153333D03*
X0455262Y0153018D03*
X0452113Y0153018D03*
X0451798Y0153333D03*
X0451483Y0153963D03*
X0451483Y0154278D03*
X0439829Y0153018D03*
X0439829Y0152703D03*
X0439829Y0151129D03*
X0453058Y0148609D03*
X0453058Y0148294D03*
X0453373Y0148924D03*
X0453373Y0149239D03*
X0453688Y0149554D03*
X0453688Y0149869D03*
X0452743Y0147664D03*
X0452743Y0147349D03*
X0427861Y0151759D03*
X0427861Y0152073D03*
X0427861Y0152388D03*
X0424081Y0152703D03*
X0424081Y0151444D03*
X0421247Y0151444D03*
X0421247Y0151759D03*
X0421247Y0152073D03*
X0421247Y0152388D03*
X0420932Y0155223D03*
D185*
X0418885Y0155538D03*
X0418885Y0155853D03*
X0418885Y0151129D03*
X0418885Y0150814D03*
X0418885Y0150499D03*
X0463294Y0150499D03*
X0463294Y0150814D03*
X0463294Y0155538D03*
X0463294Y0155853D03*
D186*
X0455420Y0155223D03*
X0451325Y0155223D03*
X0446286Y0155223D03*
X0428018Y0155223D03*
X0472428Y0155223D03*
X0495735Y0152703D03*
X0504869Y0155223D03*
X0512743Y0155223D03*
X0516522Y0155223D03*
X0507388Y0153018D03*
D187*
X0433845Y0153018D03*
X0433845Y0155223D03*
D188*
X0448648Y0155223D03*
X0495577Y0151444D03*
X0512585Y0149239D03*
X0516680Y0149239D03*
X0507231Y0155223D03*
D189*
X0488018Y0155223D03*
X0485814Y0155223D03*
X0482979Y0155223D03*
X0470066Y0155223D03*
X0448963Y0153018D03*
X0501877Y0151129D03*
D190*
X0433845Y0153333D03*
X0433845Y0153648D03*
X0433845Y0153963D03*
X0433845Y0154278D03*
X0433845Y0154593D03*
X0433845Y0154908D03*
D191*
X0441877Y0154908D03*
X0436207Y0150814D03*
X0436207Y0150499D03*
X0432428Y0150499D03*
X0432428Y0150184D03*
X0432113Y0150814D03*
X0420459Y0152703D03*
X0420144Y0153333D03*
X0420144Y0153648D03*
X0420144Y0153963D03*
X0420459Y0154278D03*
X0464554Y0153648D03*
X0464869Y0153963D03*
X0464869Y0154278D03*
X0464869Y0153018D03*
X0475892Y0150499D03*
X0475892Y0150184D03*
X0500459Y0154908D03*
X0514633Y0152388D03*
X0514633Y0152073D03*
D192*
X0505971Y0153333D03*
X0500302Y0154593D03*
X0494633Y0149869D03*
X0471010Y0154908D03*
X0453688Y0151759D03*
X0447388Y0153333D03*
X0441719Y0154593D03*
D193*
X0436365Y0150184D03*
X0436365Y0149869D03*
X0432585Y0149869D03*
X0431955Y0151129D03*
X0453688Y0150814D03*
X0453688Y0150499D03*
X0475735Y0150814D03*
X0476050Y0149869D03*
X0476050Y0149554D03*
X0494633Y0154908D03*
X0512900Y0153963D03*
D194*
X0500302Y0154278D03*
X0494318Y0153963D03*
X0494318Y0153648D03*
X0494003Y0153333D03*
X0494003Y0153018D03*
X0494003Y0151129D03*
X0494318Y0150499D03*
X0500302Y0149869D03*
X0481404Y0154593D03*
X0471010Y0154593D03*
X0453688Y0152388D03*
X0441719Y0154278D03*
X0441719Y0150184D03*
X0441719Y0149869D03*
X0426601Y0149554D03*
X0418412Y0149239D03*
X0426601Y0154593D03*
X0462822Y0149239D03*
X0471010Y0149554D03*
D195*
X0494475Y0154593D03*
X0514633Y0152703D03*
X0514633Y0151759D03*
D196*
X0516522Y0150184D03*
X0512743Y0150184D03*
X0505184Y0153018D03*
X0512743Y0154278D03*
X0516207Y0153963D03*
X0482507Y0151444D03*
X0475577Y0151129D03*
X0472113Y0151444D03*
X0468648Y0151444D03*
X0453845Y0150184D03*
X0446601Y0153018D03*
X0451640Y0153648D03*
X0435892Y0151129D03*
X0436522Y0149554D03*
X0432743Y0149554D03*
X0427703Y0151444D03*
X0427703Y0152703D03*
D197*
X0420302Y0153018D03*
X0442034Y0149239D03*
X0453688Y0151129D03*
X0453688Y0151444D03*
X0464711Y0153333D03*
X0465026Y0152703D03*
X0494633Y0149554D03*
X0500617Y0149239D03*
D198*
X0463451Y0151129D03*
M02*
